<svg width="59" height="59" viewBox="0 0 59 59" fill="none" xmlns="http://www.w3.org/2000/svg">
<circle cx="29.5" cy="29.5" r="29.5" fill="#E22440" fill-opacity="0.8"/>
<path d="M38.9315 26.4969L25.3567 18.998C24.9133 18.7499 24.4108 18.6213 23.9002 18.6251C23.3897 18.6289 22.8892 18.7651 22.4498 19.0197C22.0217 19.2595 21.6661 19.6059 21.419 20.0237C21.1719 20.4416 21.0422 20.9161 21.043 21.3989V36.3968C21.0422 36.8796 21.1719 37.3541 21.419 37.772C21.6661 38.1899 22.0217 38.5363 22.4498 38.776C22.8893 39.0305 23.3897 39.1666 23.9002 39.1705C24.4108 39.1743 24.9133 39.0457 25.3567 38.7977L38.9315 31.2988C39.3693 31.0614 39.7342 30.7135 39.9882 30.2912C40.2423 29.869 40.3763 29.3879 40.3763 28.8979C40.3763 28.4078 40.2423 27.9267 39.9882 27.5045C39.7342 27.0823 39.3693 26.7344 38.9315 26.4969V26.4969Z" fill="white"/>
</svg>
