<svg width="134" height="37" viewBox="0 0 134 37" fill="none" xmlns="http://www.w3.org/2000/svg">
<g clip-path="url(#clip0_4263_1956)">
<path d="M0 0.920288V35.1781H31.717V31.3382H3.79835V4.76014H31.717V0.920288H0Z" fill="#252936"/>
<path d="M54.5781 16.209L59.9167 7.83923H64.3278L57.9914 17.784V18.3148L64.6778 28.2418H60.0918L54.5781 19.8896V16.209Z" fill="#252936"/>
<path d="M77.3347 19.8896H82.4108L80.1353 9.76804H79.6101L77.3347 19.8896ZM83.2685 23.7294H76.4769L75.4617 28.2418H71.4883L76.3019 7.83923H83.4435L88.2573 28.2418H84.2837L83.2685 23.7294Z" fill="#252936"/>
<path d="M98.3398 7.83923H102.138V24.5788H111.31V28.2418H98.3398V7.83923Z" fill="#252936"/>
<path d="M34.8683 14.0856C34.8683 13.2716 34.5533 12.5638 33.923 11.9623C33.2929 11.3606 32.4178 11.0597 31.2799 11.0597C30.3173 11.0597 29.5646 11.2544 29.0045 11.6614C28.4444 12.0684 28.1643 12.5993 28.1643 13.2716C28.1643 13.6255 28.2343 13.9441 28.3743 14.2272C28.5143 14.5103 28.7419 14.7581 29.0744 14.9881C29.407 15.2182 29.8446 15.4128 30.4048 15.5897C30.9474 15.7666 31.6476 15.926 32.4877 16.0852C34.6057 16.4745 36.2161 17.1292 37.3364 18.0316C38.4565 18.9518 39.0167 20.2967 39.0167 22.0838V22.4378C39.0167 23.3933 38.8417 24.2426 38.5091 25.0213C38.1765 25.7821 37.6865 26.4369 37.0563 26.9854C36.426 27.534 35.656 27.9409 34.7457 28.2418C33.8355 28.5249 32.8203 28.6841 31.6826 28.6841C30.3522 28.6841 29.197 28.4895 28.1818 28.1179C27.1666 27.7463 26.3264 27.2154 25.6612 26.543C24.996 25.8706 24.471 25.092 24.1384 24.1895C23.7883 23.2871 23.6133 22.2962 23.6133 21.2345V21.0575H27.4116C27.4116 22.2784 27.7617 23.2518 28.4619 23.9949C29.162 24.7204 30.2472 25.092 31.7351 25.092C32.8903 25.092 33.748 24.8443 34.3081 24.3311C34.8683 23.8179 35.1484 23.2164 35.1484 22.5263C35.1484 22.19 35.0958 21.8892 34.9733 21.5707C34.8507 21.2699 34.6582 21.0045 34.3607 20.7568C34.0806 20.509 33.678 20.2967 33.1704 20.102C32.6628 19.9073 32.0326 19.7481 31.2625 19.6065C30.2472 19.4296 29.3195 19.1996 28.4619 18.9164C27.6216 18.6332 26.8865 18.2616 26.2564 17.8016C25.6262 17.3415 25.1536 16.7575 24.8036 16.0498C24.4534 15.3419 24.2784 14.4927 24.2784 13.484V13.3071C24.2784 12.4753 24.4534 11.6968 24.786 10.989C25.1186 10.2811 25.5912 9.66184 26.2038 9.13099C26.8164 8.60014 27.5341 8.19315 28.3917 7.91003C29.2495 7.6269 30.1947 7.46765 31.2625 7.46765C32.4527 7.46765 33.503 7.6446 34.4307 7.98082C35.3584 8.31702 36.1286 8.7771 36.7587 9.36103C37.3888 9.94499 37.8089 10.6351 38.1765 11.3783C38.6316 12.2807 38.6491 14.121 38.6491 14.121L34.8683 14.0856Z" fill="#252936"/>
<path d="M120.164 7.83923V28.2418H133.257V24.5788H123.979V11.5198H133.257V7.83923H120.164Z" fill="#252936"/>
<path d="M51.8648 7.83923H48.0664V28.2418H51.8648V7.83923Z" fill="#252936"/>
<path d="M130.351 16.2092H126.711V19.8898H130.351V16.2092Z" fill="#252936"/>
</g>
<defs>
<clipPath id="clip0_4263_1956">
<rect width="133.605" height="35.1593" fill="white" transform="translate(0 0.920288)"/>
</clipPath>
</defs>
</svg>
