<svg width="190" height="66" viewBox="0 0 190 66" fill="none" xmlns="http://www.w3.org/2000/svg">
<path d="M0 10C0 4.47715 4.47715 0 10 0H180C185.523 0 190 4.47715 190 10V56C190 61.5228 185.523 66 180 66H10C4.47715 66 0 61.5228 0 56V10Z" fill="white"/>
<path d="M72.4096 25.1348V40.713H69.2534V25.1348H72.4096Z" fill="black"/>
<path d="M85.272 30.2042V40.7347C85.272 43.9983 82.7428 46 79.6514 46C76.6682 46 74.4415 44.1288 74.2253 41.4962L77.3599 41.518C77.4896 42.6276 78.4624 43.128 79.7595 43.128C80.9701 43.128 82.1159 42.4753 82.1159 40.7565V39.4293C81.316 39.9514 80.2783 40.256 79.1326 40.256C76.2574 40.256 73.9443 37.9063 73.9443 35.2084C73.9443 32.0753 76.2574 29.9648 79.1326 29.9648C80.2783 29.9648 81.316 30.2694 82.1159 30.7916V30.2259L85.272 30.2042ZM82.1159 36.405V33.8376C81.4673 32.9021 80.5809 32.5757 79.6946 32.5757C78.1382 32.5757 77.0789 33.6201 77.0789 35.2084C77.0789 36.3832 78.1598 37.6452 79.6946 37.6452C80.5809 37.6669 81.4889 37.3406 82.1159 36.405Z" fill="black"/>
<path d="M97.8537 35.3385C97.8537 38.5803 95.4758 40.8866 92.2763 40.8866C89.0553 40.8866 86.6772 38.5803 86.6772 35.3385C86.6772 32.1184 89.0553 29.7686 92.2763 29.7686C95.4758 29.7686 97.8537 32.1184 97.8537 35.3385V35.3385ZM94.8056 35.3385C94.8056 33.8155 93.8111 32.5753 92.2763 32.5753C90.7198 32.5753 89.7254 33.8155 89.7254 35.3385C89.7254 36.905 90.7198 38.0799 92.2763 38.0799C93.8111 38.0581 94.8056 36.905 94.8056 35.3385Z" fill="black"/>
<path d="M117.44 30.2257V40.6909L114.348 40.7127V40.1252C113.548 40.6474 112.511 40.9738 111.365 40.9738C108.49 40.9738 106.177 38.5152 106.177 35.4909C106.177 32.4449 108.49 29.9863 111.365 29.9863C112.511 29.9863 113.548 30.3127 114.348 30.8349V30.2474L117.44 30.2257ZM114.327 37.0792V33.8809C113.678 32.9453 112.77 32.6842 111.862 32.6842C110.284 32.6842 109.182 33.9679 109.182 35.4909C109.182 36.9922 110.284 38.2759 111.862 38.2759C112.77 38.2759 113.678 38.0148 114.327 37.0792Z" fill="black"/>
<path d="M130.151 35.034V40.7127H127.103V35.4039C127.103 33.6851 126.26 32.793 124.746 32.793C123.968 32.793 123.082 33.2499 122.347 34.1202V40.7127H119.234V30.2474H122.347V31.0307C123.19 30.3562 124.184 29.9863 125.352 29.9863C128.119 29.9863 130.151 31.9445 130.151 35.034V35.034Z" fill="black"/>
<path d="M67.8048 40.6912H64.6055L62.5085 32.8803L58.012 40.6912H54.4234L61.3628 28.5941L60.2386 24.3732L50.8781 40.6912H47.2896L59.1578 20H62.3139L63.6759 25.1565H66.9185L64.7135 29.0293L67.8048 40.6912Z" fill="black"/>
<path d="M142.711 25.1348V40.713H139.554V40.1255C138.754 40.6477 137.717 40.9741 136.571 40.9741C133.696 40.9741 131.383 38.5155 131.383 35.4695C131.383 32.4452 133.696 29.9866 136.571 29.9866C137.717 29.9866 138.754 30.313 139.554 30.8352V25.1348H142.711ZM139.554 37.0795V33.8594C138.906 32.9239 137.976 32.6628 137.068 32.6628C135.469 32.6628 134.366 33.9465 134.366 35.4695C134.366 37.0142 135.469 38.2979 137.068 38.2979C137.976 38.2979 138.884 38.0368 139.554 37.0795Z" fill="black"/>
<path d="M105.593 32.88C104.901 32.9671 103.301 33.0541 102.35 34.3595V40.7127H99.2373V30.2692H102.35V31.0524C103.064 30.4432 104.123 30.0734 105.593 30.2257" fill="black"/>
</svg>
