<svg width="190" height="66" viewBox="0 0 190 66" fill="none" xmlns="http://www.w3.org/2000/svg">
<path d="M0 10C0 4.47715 4.47715 0 10 0H180C185.523 0 190 4.47715 190 10V56C190 61.5228 185.523 66 180 66H10C4.47715 66 0 61.5228 0 56V10Z" fill="white"/>
<path d="M94.5056 25.6458C94.5608 25.6458 94.6138 25.6677 94.6529 25.7068C94.692 25.7459 94.7139 25.7988 94.7139 25.8541V34.4958C94.7139 38.5916 92.1493 40.6104 88.7681 40.6104C85.3868 40.6104 82.8223 38.5916 82.8223 34.4958V25.8499C82.8223 25.7947 82.8442 25.7417 82.8833 25.7026C82.9224 25.6636 82.9753 25.6416 83.0306 25.6416H85.0389C85.0942 25.6416 85.1472 25.6636 85.1862 25.7026C85.2253 25.7417 85.2473 25.7947 85.2473 25.8499V34.3437C85.2473 37.202 86.7389 38.3354 88.7785 38.3354C90.8181 38.3354 92.2931 37.202 92.2931 34.3437V25.8499C92.2931 25.7947 92.315 25.7417 92.3541 25.7026C92.3932 25.6636 92.4462 25.6416 92.5014 25.6416L94.5056 25.6458Z" fill="#101820"/>
<path d="M129.708 32.9998C129.687 37.3269 126.387 40.6061 122.081 40.6061C117.774 40.6061 114.454 37.3269 114.454 32.9998C114.454 28.6727 117.774 25.3936 122.081 25.3936C126.387 25.3936 129.687 28.6727 129.708 32.9998ZM116.849 32.9998C116.849 36.0665 119.097 38.3352 122.081 38.3352C125.064 38.3352 127.289 36.0665 127.289 32.9998C127.289 29.9331 125.041 27.6644 122.081 27.6644C119.12 27.6644 116.849 29.9331 116.849 32.9998Z" fill="#101820"/>
<path d="M150.579 40.3545H148.495C148.463 40.3535 148.43 40.3447 148.402 40.3289C148.373 40.313 148.348 40.2905 148.329 40.2633C148.311 40.2361 148.299 40.2048 148.295 40.1721C148.291 40.1395 148.295 40.1063 148.306 40.0753L153.808 25.8628C153.83 25.8052 153.869 25.7557 153.92 25.7207C153.971 25.6858 154.032 25.667 154.093 25.667H156.695C156.757 25.6668 156.818 25.6854 156.869 25.7204C156.92 25.7553 156.959 25.805 156.981 25.8628L162.487 40.0837C162.498 40.1146 162.502 40.1478 162.498 40.1805C162.494 40.2132 162.482 40.2444 162.464 40.2716C162.445 40.2989 162.42 40.3213 162.392 40.3372C162.363 40.353 162.33 40.3618 162.298 40.3628H160.21C160.168 40.3623 160.128 40.3493 160.094 40.3255C160.06 40.3018 160.033 40.2683 160.018 40.2295L155.581 28.5274C155.565 28.4904 155.538 28.459 155.504 28.4369C155.47 28.4149 155.431 28.4031 155.39 28.4031C155.35 28.4031 155.31 28.4149 155.277 28.4369C155.243 28.459 155.216 28.4904 155.2 28.5274L150.762 40.2295C150.746 40.2655 150.721 40.2963 150.689 40.3184C150.656 40.3405 150.618 40.353 150.579 40.3545Z" fill="#101820"/>
<path d="M67.2932 40.3545H65.2098C65.1769 40.3535 65.1447 40.3447 65.1159 40.3289C65.087 40.313 65.0623 40.2905 65.0438 40.2633C65.0253 40.2361 65.0135 40.2048 65.0094 40.1721C65.0053 40.1395 65.009 40.1063 65.0203 40.0753L70.5223 25.8628C70.5444 25.805 70.5835 25.7553 70.6345 25.7204C70.6855 25.6854 70.7459 25.6668 70.8078 25.667H73.4098C73.4716 25.667 73.5319 25.6858 73.5829 25.7207C73.6338 25.7557 73.673 25.8052 73.6953 25.8628L79.1932 40.0837C79.2044 40.1146 79.2081 40.1478 79.204 40.1805C79.1999 40.2132 79.1881 40.2444 79.1696 40.2716C79.1511 40.2989 79.1264 40.3213 79.0976 40.3372C79.0687 40.353 79.0365 40.3618 79.0036 40.3628H76.9203C76.8786 40.3623 76.8382 40.3493 76.804 40.3255C76.7698 40.3018 76.7436 40.2683 76.7286 40.2295L72.2932 28.5191C72.2769 28.4821 72.2502 28.4507 72.2163 28.4286C72.1825 28.4065 72.143 28.3948 72.1025 28.3948C72.0621 28.3948 72.0226 28.4065 71.9888 28.4286C71.9549 28.4507 71.9282 28.4821 71.9119 28.5191L67.4744 40.2212C67.4601 40.2584 67.4355 40.2908 67.4034 40.3144C67.3712 40.338 67.333 40.352 67.2932 40.3545V40.3545Z" fill="#101820"/>
<path d="M144.464 40.0232L140.337 34.7524C142.666 34.3107 144.028 32.7378 144.028 30.3253C144.028 27.5545 142.224 25.667 139.028 25.667H133.278C133.197 25.667 133.119 25.6993 133.062 25.7567C133.004 25.8141 132.972 25.892 132.972 25.9732V25.9732C132.972 26.4932 133.179 26.9918 133.546 27.3595C133.914 27.7271 134.413 27.9337 134.933 27.9337H138.785C140.714 27.9337 141.637 28.9191 141.637 30.3462C141.637 31.7732 140.735 32.7795 138.785 32.7795H133.278C133.197 32.7795 133.119 32.8118 133.062 32.8692C133.004 32.9266 132.972 33.0045 132.972 33.0857V40.1503C132.972 40.2056 132.994 40.2586 133.033 40.2976C133.072 40.3367 133.125 40.3587 133.181 40.3587H135.143C135.198 40.3587 135.251 40.3367 135.29 40.2976C135.329 40.2586 135.351 40.2056 135.351 40.1503V34.8753H137.618L141.201 39.5524C141.392 39.8012 141.637 40.0028 141.917 40.1415C142.198 40.2803 142.507 40.3524 142.82 40.3524H144.312C144.348 40.3494 144.384 40.3366 144.414 40.3155C144.444 40.2944 144.468 40.2656 144.484 40.2322C144.499 40.1987 144.506 40.1617 144.502 40.125C144.499 40.0883 144.485 40.0532 144.464 40.0232Z" fill="#101820"/>
<path d="M111.145 40.0232L107.018 34.7524C109.348 34.3107 110.712 32.7378 110.712 30.3253C110.712 27.5545 108.908 25.667 105.712 25.667H99.9601C99.8788 25.667 99.8009 25.6993 99.7435 25.7567C99.6861 25.8141 99.6538 25.892 99.6538 25.9732V25.9732C99.6544 26.493 99.8611 26.9913 100.229 27.3589C100.596 27.7264 101.094 27.9331 101.614 27.9337H105.466C107.398 27.9337 108.32 28.9191 108.32 30.3462C108.32 31.7732 107.418 32.7795 105.466 32.7795H99.9601C99.8788 32.7795 99.8009 32.8118 99.7435 32.8692C99.6861 32.9266 99.6538 33.0045 99.6538 33.0857V40.1503C99.6538 40.2056 99.6758 40.2586 99.7148 40.2976C99.7539 40.3367 99.8069 40.3587 99.8621 40.3587H101.827C101.882 40.3587 101.935 40.3367 101.974 40.2976C102.013 40.2586 102.035 40.2056 102.035 40.1503V34.8753H104.3L107.883 39.5524C108.073 39.8008 108.319 40.0022 108.599 40.1409C108.88 40.2796 109.189 40.352 109.502 40.3524H110.993C111.03 40.3494 111.065 40.3366 111.096 40.3155C111.126 40.2944 111.15 40.2656 111.165 40.2322C111.181 40.1987 111.187 40.1617 111.184 40.125C111.18 40.0883 111.167 40.0532 111.145 40.0232Z" fill="#101820"/>
<path d="M42.5016 20.2917C43.1209 20.2897 43.7284 20.4611 44.2553 20.7866C44.7822 21.1121 45.2074 21.5786 45.4829 22.1333L54.8579 40.8833C55.1122 41.3916 55.2323 41.9564 55.2069 42.5241C55.1815 43.0918 55.0113 43.6436 54.7126 44.1271C54.4139 44.6106 53.9965 45.0096 53.5002 45.2864C53.0038 45.5631 52.4449 45.7084 51.8766 45.7083H33.1266C32.5583 45.7084 31.9994 45.5631 31.5031 45.2864C31.0067 45.0096 30.5893 44.6106 30.2906 44.1271C29.9919 43.6436 29.8217 43.0918 29.7963 42.5241C29.7709 41.9564 29.8911 41.3916 30.1454 40.8833L39.5204 22.1333C39.7958 21.5786 40.221 21.1121 40.7479 20.7866C41.2748 20.4611 41.8823 20.2897 42.5016 20.2917ZM42.5016 18C41.4571 17.9999 40.4332 18.2906 39.5445 18.8396C38.6559 19.3886 37.9377 20.1742 37.4704 21.1083L28.0954 39.8583C27.6663 40.716 27.4637 41.6691 27.5066 42.6271C27.5496 43.5851 27.8368 44.5162 28.3409 45.332C28.845 46.1478 29.5494 46.8211 30.387 47.2881C31.2246 47.755 32.1676 48.0001 33.1266 48H51.8766C52.8356 48.0001 53.7787 47.755 54.6163 47.2881C55.4539 46.8211 56.1582 46.1478 56.6623 45.332C57.1664 44.5162 57.4536 43.5851 57.4966 42.6271C57.5396 41.6691 57.3369 40.716 56.9079 39.8583L47.5329 21.1083C47.0655 20.1742 46.3473 19.3886 45.4587 18.8396C44.5701 18.2906 43.5462 17.9999 42.5016 18V18Z" fill="#70D44B"/>
</svg>
