<svg fill="none" height="66" viewBox="0 0 191 66" width="191" xmlns="http://www.w3.org/2000/svg" xmlns:xlink="http://www.w3.org/1999/xlink"><clipPath id="a"><path d="m21.4507 18h148.099v30h-148.099z"/></clipPath><path d="m0 10c0-5.52285 4.47715-10 10-10h171c5.523 0 10 4.47715 10 10v46c0 5.5228-4.477 10-10 10h-171c-5.52285 0-10-4.4772-10-10z" fill="#fff"/><g clip-path="url(#a)"><g fill="#000"><path d="m61.5094 27.7695h1.61l4.505 10.4576h-2.127l-.9748-2.3929h-4.5346l-.9454 2.3929h-2.0826zm2.3633 6.4696-1.61-4.254-1.6396 4.254z"/><path d="m69.6206 27.7695h2.1417l2.8507 7.9023 2.9393-7.9023h2.0091l-4.2246 10.4576h-1.6099z"/><path d="m86.2122 27.7695h1.6104l4.5046 10.4576h-2.1269l-.9746-2.3929h-4.5348l-.9454 2.3929h-2.0824zm2.3634 6.4696-1.6099-4.254-1.6396 4.254z"/><path d="m96.4438 27.7695h1.8613v8.7738h4.4459v1.6838h-6.3072z"/><path d="m110.439 27.7695h1.611l4.504 10.4576h-2.127l-.974-2.3929h-4.535l-.945 2.3929h-2.083zm2.364 6.4696-1.61-4.254-1.64 4.254z"/><path d="m120.671 27.7695h2.467l5.066 7.7693h.029v-7.7693h1.861v10.4576h-2.363l-5.17-8.0204h-.029v8.0204h-1.861z"/><path d="m142.56 30.2217c-.384-.4136-.759-.6893-1.123-.8272-.355-.1378-.714-.2067-1.078-.2067-.542 0-1.034.0984-1.477.2954-.433.1871-.808.4529-1.123.7976-.315.3348-.561.7287-.739 1.1816-.167.453-.25.9404-.25 1.4623 0 .5613.083 1.0783.25 1.5509.178.4727.424.8813.739 1.226.315.3446.69.6154 1.123.8124.443.1969.935.2954 1.477.2954.423 0 .832-.0985 1.226-.2954.403-.2068.777-.5318 1.122-.9749l1.536 1.093c-.472.6499-1.048 1.1226-1.728 1.418-.679.2954-1.403.4431-2.171.4431-.808 0-1.551-.128-2.23-.384-.67-.2659-1.251-.6351-1.743-1.1078-.483-.4825-.862-1.0586-1.138-1.7282-.275-.6696-.413-1.413-.413-2.2303 0-.837.138-1.5953.413-2.2747.276-.6893.655-1.2752 1.138-1.7577.492-.4825 1.073-.8518 1.743-1.1078.679-.2659 1.422-.3988 2.23-.3988.709 0 1.364.128 1.964.384.611.2462 1.177.6696 1.699 1.2703z"/><path d="m148.447 27.7695h1.861v4.1653h4.889v-4.1653h1.861v10.4576h-1.861v-4.6084h-4.889v4.6084h-1.861z"/><path d="m162.349 27.7695h6.927v1.6839h-5.066v2.5701h4.8v1.6838h-4.8v2.836h5.332v1.6838h-7.193z"/></g><path clip-rule="evenodd" d="m51.4507 33c0 8.2843-6.7158 15-15 15-8.2843 0-15-6.7157-15-15s6.7157-15 15-15c8.2842 0 15 6.7157 15 15zm-19.2506 5.9689h-2.911c-.6117 0-.9139 0-1.0982-.1179-.1989-.129-.3205-.3427-.3353-.5785-.011-.2174.14-.4827.4422-1.0134l7.1878-12.6695c.3059-.538.4606-.807.6559-.9065.2101-.1068.4607-.1068.6707 0 .1953.0995.3501.3685.6559.9065l1.4777 2.5795.0075.0131c.3304.5772.4979.8699.571 1.1771.0811.3353.0811.689 0 1.0244-.0737.3095-.2395.6043-.5749 1.1902l-3.7755 6.6742-.0098.0171c-.3325.5819-.501.8768-.7346 1.0994-.2542.2432-.5601.4201-.8954.5196-.3058.0847-.6485.0847-1.334.0847zm7.3515.0004h4.1713c.6154 0 .9249 0 1.1092-.1216.199-.129.3242-.3464.3353-.5823.0107-.2102-.1371-.4653-.4268-.965-.0099-.0171-.0199-.0344-.0301-.052l-2.0894-3.5744-.0238-.0402c-.2936-.4965-.4418-.7472-.6321-.8441-.21-.1069-.4569-.1069-.6669 0-.1917.0994-.3465.3611-.6523.888l-2.082 3.5744-.0071.0123c-.3048.5261-.4571.789-.4461 1.0047.0147.2359.1363.4533.3353.5822.1806.118.4901.118 1.1055.118z" fill="#e84142" fill-rule="evenodd"/></g></svg>