<svg width="191" height="66" viewBox="0 0 191 66" fill="none" xmlns="http://www.w3.org/2000/svg">
<path d="M0 10C0 4.47715 4.47715 0 10 0H181C186.523 0 191 4.47715 191 10V56C191 61.5228 186.523 66 181 66H10C4.47715 66 0 61.5228 0 56V10Z" fill="white"/>
<path d="M70.3833 21.2981H75.6123C76.941 21.2981 77.9125 21.6553 78.5412 22.2696C79.1555 22.7982 79.4269 23.5126 79.4269 24.2126C79.4269 24.4841 79.4269 24.827 79.3412 25.0984C79.1698 25.5413 78.8983 25.9842 78.5412 26.3414C78.3697 26.5128 78.184 26.6129 78.0125 26.6986C78.6269 26.87 79.1698 27.2272 79.6127 27.6701C79.9698 28.113 80.1413 28.6416 80.1413 29.4417C80.1413 29.8846 80.0556 30.4132 79.8698 30.7704C79.6984 31.1275 79.3412 31.4847 78.984 31.7419C78.5412 32.0133 78.0983 32.1848 77.6554 32.3562C77.1267 32.5277 76.4981 32.5277 75.8838 32.5277H70.469V21.2695H70.3833V21.2981ZM75.1694 25.8985C75.6123 25.8985 76.0552 25.8128 76.4981 25.6271C76.8553 25.4556 77.0267 25.0984 77.0267 24.7413C77.0267 24.3841 76.8553 24.0269 76.5838 23.8555C76.2267 23.584 75.7838 23.4983 75.3409 23.584H72.8549V25.9699H75.1551V25.8985H75.1694ZM75.7838 30.4275C76.2267 30.4275 76.6696 30.3417 77.1125 30.156C77.4696 29.9846 77.6411 29.6274 77.5554 29.1845C77.5554 28.8273 77.3839 28.4702 77.1125 28.2987C76.841 28.1273 76.3124 27.9415 75.698 27.9415H72.7692V30.4275H75.7838Z" fill="#F3BA2F"/>
<path d="M83.2275 21.2988H85.7135V32.6427H83.2275V21.2988Z" fill="#F3BA2F"/>
<path d="M89.5278 21.2988H91.828L97.1428 28.2994V21.2988H99.6144V32.6427H97.5L91.9137 25.4563V32.6427H89.5278V21.2988Z" fill="#F3BA2F"/>
<path d="M107.158 21.2129H109.458L114.33 32.6425H111.758L110.701 30.0708H105.915L104.858 32.6425H102.286L107.158 21.2129ZM109.815 27.942L108.315 24.2274L106.815 27.942H109.815Z" fill="#F3BA2F"/>
<path d="M116.988 21.2988H119.288L124.603 28.2994V21.2988H127.089V32.6427H124.96L119.459 25.4563V32.6427H116.988V21.2988Z" fill="#F3BA2F"/>
<path d="M136.118 32.8137C135.318 32.8137 134.518 32.6422 133.818 32.3708C132.403 31.7564 131.332 30.6849 130.717 29.2705C130.446 28.5562 130.274 27.7704 130.274 26.9703C130.274 25.4702 130.889 23.9558 131.96 22.8128C132.489 22.2842 133.118 21.8413 133.818 21.5698C134.618 21.2127 135.418 21.127 136.203 21.127C136.646 21.127 137.175 21.127 137.618 21.2127C138.061 21.2984 138.418 21.3841 138.775 21.5698C139.132 21.7413 139.49 21.927 139.747 22.0985C140.018 22.2699 140.361 22.5414 140.632 22.8128L139.132 24.6701C138.689 24.3129 138.247 23.9558 137.804 23.6986C137.361 23.4414 136.832 23.3414 136.304 23.3414C135.861 23.3414 135.418 23.4272 134.975 23.6129C134.532 23.7843 134.175 24.0558 133.918 24.413C133.66 24.7701 133.389 25.1273 133.203 25.5702C133.032 26.0131 132.932 26.456 132.932 26.8989C132.932 27.3418 133.018 27.8704 133.203 28.3133C133.389 28.7562 133.56 29.1134 133.918 29.4705C134.532 30.1849 135.418 30.5278 136.304 30.5278C136.832 30.5278 137.461 30.442 137.989 30.1706C138.432 29.8991 138.961 29.5563 139.318 29.1991L140.904 30.7849C140.632 31.0564 140.29 31.3993 140.018 31.6707C139.661 31.9422 139.304 32.1136 138.961 32.2851C138.604 32.4565 138.161 32.6422 137.718 32.728C137.089 32.8137 136.561 32.8137 136.118 32.8137Z" fill="#F3BA2F"/>
<path d="M143.747 21.2988H152.248V23.5133H146.133V25.8135H151.533V28.028H146.133V30.4282H152.334V32.6427H143.747V21.2988Z" fill="#F3BA2F"/>
<path d="M73.5695 43.8004C72.9551 43.8004 72.3265 43.7147 71.7979 43.4433C71.2693 43.2718 70.7407 42.9146 70.1978 42.4717L71.0835 41.5002C71.4407 41.8574 71.7979 42.0288 72.2408 42.3003C72.6837 42.4717 73.1266 42.5718 73.5695 42.5718C73.9266 42.5718 74.2838 42.486 74.6267 42.3003C74.8982 42.1289 74.9839 41.8574 74.9839 41.586C74.9839 41.5002 74.9839 41.3145 74.8982 41.2288C74.8124 41.1431 74.7267 40.9573 74.6267 40.8716C74.4553 40.7859 74.2695 40.7002 74.0981 40.6002C73.8266 40.5144 73.4838 40.4287 73.2123 40.3287C72.8551 40.243 72.4122 40.1573 72.0551 39.9715C71.7836 39.8858 71.4407 39.7001 71.255 39.5286C71.0835 39.3572 70.8978 39.1715 70.7264 38.9143C70.5549 38.5571 70.5549 38.1999 70.5549 37.9428C70.5549 37.5856 70.6406 37.3284 70.7264 36.9713C70.8121 36.6998 71.0835 36.4426 71.255 36.2569C71.5264 36.0855 71.7836 35.8997 72.1408 35.814C72.498 35.7283 72.8551 35.6426 73.198 35.6426C73.7266 35.6426 74.2552 35.7283 74.7982 35.914C75.241 36.0855 75.6839 36.3569 76.1268 36.6284L75.4125 37.6856C75.0553 37.4142 74.6981 37.2427 74.3553 37.0713C73.9981 36.8998 73.6409 36.8998 73.298 36.8998C72.9408 36.8998 72.5837 36.9856 72.3265 37.1713C72.1551 37.3427 71.9693 37.6142 71.9693 37.8856C71.9693 38.0571 71.9693 38.1571 72.0551 38.3285C72.1408 38.4142 72.2265 38.6 72.3265 38.6857C72.498 38.7714 72.6837 38.8571 72.9408 38.9572C73.2123 39.0429 73.4695 39.1286 73.9124 39.2286C74.2695 39.3143 74.6267 39.4 75.0696 39.5858C75.3411 39.6715 75.5982 39.8572 75.8697 40.0287C76.0411 40.2001 76.2268 40.4716 76.3126 40.643C76.3983 40.9145 76.484 41.1716 76.484 41.5288C76.484 41.886 76.3983 42.2432 76.3126 42.5003C76.1411 42.7718 75.9554 43.0289 75.6982 43.3004C75.4268 43.4718 75.1696 43.6576 74.8124 43.7433C74.3695 43.7147 73.9266 43.8004 73.5695 43.8004Z" fill="#F3BA2F"/>
<path d="M77.9985 35.7432H79.5129L81.8989 39.4578L84.3848 35.7432H85.8849V43.7153H84.4705V37.9576L81.9846 41.6722H81.8989L79.4272 37.9576V43.7153H77.9985V35.7432Z" fill="#F3BA2F"/>
<path d="M90.6712 35.6572H91.9999L95.4573 43.6293H93.9572L93.1571 41.6863H89.4425L88.6424 43.6293H87.228L90.6712 35.6572ZM92.7142 40.5291L91.2998 37.3431L89.9711 40.5291H92.7142Z" fill="#F3BA2F"/>
<path d="M96.8719 35.7432H100.415C100.858 35.7432 101.301 35.8289 101.744 35.9146C102.101 36.0003 102.458 36.2718 102.715 36.5289C102.887 36.7004 103.072 36.9718 103.244 37.329C103.33 37.6005 103.415 37.9434 103.415 38.3005C103.415 38.572 103.33 38.9149 103.244 39.1863C103.158 39.4578 102.972 39.6292 102.887 39.9007C102.715 40.0721 102.529 40.2578 102.272 40.4293C102.001 40.6007 101.744 40.7007 101.472 40.7865L103.601 43.801H101.915L99.9721 41.0579H98.2005V43.801H96.7861L96.8719 35.7432ZM100.329 39.6435C100.772 39.6435 101.215 39.5578 101.487 39.2863C101.758 39.0149 101.929 38.672 101.929 38.3148C101.929 37.9576 101.758 37.6005 101.487 37.3433C101.129 37.0718 100.686 36.9861 100.244 36.9861H98.2005V39.6435H100.329Z" fill="#F3BA2F"/>
<path d="M107.058 36.9861H104.486V35.7432H110.958V36.9861H108.387V43.7153H106.972L107.058 36.9861Z" fill="#F3BA2F"/>
<path d="M119.559 43.8008C119.03 43.8008 118.502 43.7151 117.959 43.4437C116.987 43.0008 116.187 42.2864 115.83 41.3149C115.659 40.7863 115.473 40.2577 115.559 39.7148C115.559 39.1861 115.644 38.6575 115.83 38.1146C116.187 37.1431 116.987 36.343 117.959 35.9001C118.488 35.7287 119.016 35.543 119.645 35.543C120.002 35.543 120.359 35.543 120.616 35.6287C120.888 35.7144 121.145 35.8001 121.416 35.9001C121.688 35.9859 121.859 36.1716 122.131 36.2573C122.302 36.4288 122.574 36.6145 122.745 36.7859L121.859 37.8432C121.588 37.5717 121.245 37.3146 120.888 37.1288C120.531 36.9574 120.088 36.8574 119.645 36.8574C119.288 36.8574 118.93 36.9431 118.588 37.0288C118.23 37.2003 117.973 37.386 117.702 37.6432C117.43 37.9146 117.259 38.1718 117.173 38.5289C117.087 38.8861 117.002 39.2433 117.002 39.5862C117.002 39.9434 117.087 40.3005 117.173 40.6434C117.259 40.9863 117.445 41.2578 117.702 41.5292C117.973 41.8007 118.23 41.9721 118.588 42.1435C118.945 42.315 119.302 42.415 119.645 42.315C120.088 42.315 120.531 42.2293 120.888 42.0435C121.245 41.8721 121.602 41.6006 121.945 41.2435L122.831 42.1293C122.659 42.3007 122.388 42.5722 122.216 42.7436C121.945 42.915 121.774 43.1008 121.502 43.1865C121.231 43.2722 120.973 43.4579 120.616 43.4579C120.259 43.8008 119.902 43.8008 119.559 43.8008Z" fill="#F3BA2F"/>
<path d="M124.245 35.7432H125.574V39.0149H129.388V35.7432H130.803V43.7153H129.388V40.3436H125.574V43.7153H124.245V35.7432Z" fill="#F3BA2F"/>
<path d="M135.675 35.6572H137.004L140.461 43.6293H138.961L138.161 41.6863H134.446L133.646 43.6293H132.232L135.675 35.6572ZM137.632 40.5291L136.304 37.3431L134.975 40.5291H137.632Z" fill="#F3BA2F"/>
<path d="M141.875 35.7432H143.304V43.7153H141.875V35.7432Z" fill="#F3BA2F"/>
<path d="M145.418 35.7432H146.661L150.919 41.2294V35.7432H152.333V43.7153H151.176L146.847 38.0434V43.7153H145.418V35.7432Z" fill="#F3BA2F"/>
<path d="M54.7965 43.1862V46.6436L51.7819 48.4152L48.8531 46.6436V43.1862L51.7819 44.9578L54.7965 43.1862ZM38.6665 31.228L41.5953 32.9996V38.9287L46.6386 41.9432V45.4007L38.6665 40.7003V31.228V31.228ZM64.8974 31.228V40.7146L56.8395 45.415V41.9575L61.8828 38.943V33.0139L64.8974 31.228ZM56.8252 26.5276L59.8398 28.2992V31.7566L54.7965 34.7712V40.786L51.8676 42.5576L48.9531 40.786V34.7569L43.7241 31.7424V28.2849L46.7386 26.5133L51.7819 29.5279L56.8252 26.5276ZM43.7241 34.2283L46.6529 35.9999V39.4573L43.7241 37.6857V34.2283ZM59.8398 34.2283V37.6857L56.9109 39.4573V35.9999L59.8398 34.2283ZM41.5953 23.5131L44.6099 25.2847L41.5953 27.0562V30.5137L38.6665 28.7421V25.2847L41.5953 23.5131ZM61.9685 23.5131L64.9831 25.2847V28.7421L61.9685 30.5137V27.0562L59.0397 25.2847L61.9685 23.5131ZM51.7819 23.5131L54.7965 25.2847L51.7819 27.0562L48.8531 25.2847L51.7819 23.5131ZM51.7819 17.584L59.8398 22.2844L56.9109 24.056L51.8676 21.0414L46.7243 24.056L43.7955 22.2844L51.7819 17.584Z" fill="#F3BA2F"/>
</svg>
