<svg width="190" height="66" viewBox="0 0 190 66" fill="none" xmlns="http://www.w3.org/2000/svg">
<path d="M0 10C0 4.47715 4.47715 0 10 0H180C185.523 0 190 4.47715 190 10V56C190 61.5228 185.523 66 180 66H10C4.47715 66 0 61.5228 0 56V10Z" fill="white"/>
<path d="M64.8311 33.1586C64.7781 33.1865 64.7753 33.2451 64.7502 33.2897C64.5884 33.5882 64.2676 33.7305 63.9467 33.6468C63.6287 33.5631 63.4111 33.2702 63.4223 32.9382C63.4334 32.6146 63.665 32.3328 63.9774 32.2715C64.3094 32.2045 64.633 32.3719 64.7725 32.6815C64.792 32.7234 64.7892 32.7764 64.8311 32.8071C64.8311 32.9242 64.8311 33.0414 64.8311 33.1586Z" fill="#0033AC"/>
<path d="M32.3652 32.8749C32.3848 32.8331 32.4071 32.7884 32.4266 32.7466C32.5689 32.4425 32.8841 32.2779 33.2105 32.3449C33.5341 32.4118 33.7712 32.6908 33.7796 33.0172C33.7852 33.3436 33.5592 33.6449 33.2496 33.723C32.926 33.8039 32.6051 33.656 32.4461 33.3575C32.421 33.3129 32.4182 33.2543 32.368 33.2236C32.3652 33.1065 32.3652 32.9893 32.3652 32.8749Z" fill="#0033AC"/>
<path d="M41.2642 33.0168C41.267 31.7949 42.2405 30.8213 43.4624 30.8213C44.6731 30.8241 45.6439 31.8033 45.6383 33.0195C45.6328 34.247 44.662 35.1955 43.4094 35.1955C42.235 35.1927 41.2614 34.2052 41.2642 33.0168Z" fill="#0033AC"/>
<path d="M43.8418 37.4552C43.8446 36.2529 44.8321 35.2765 46.0429 35.2793C47.2508 35.2821 48.2216 36.2641 48.2188 37.4776C48.216 38.6855 47.234 39.6591 46.0205 39.6535C44.8126 39.6507 43.8362 38.6659 43.8418 37.4552Z" fill="#0033AC"/>
<path d="M48.1966 28.5448C48.1939 29.7583 47.2203 30.7291 46.0068 30.7235C44.7988 30.7207 43.8169 29.7332 43.8252 28.5281C43.8336 27.3229 44.8212 26.3382 46.0207 26.3438C47.2286 26.3466 48.2022 27.3313 48.1966 28.5448Z" fill="#0033AC"/>
<path d="M48.9942 37.4494C48.9997 36.2387 49.9845 35.2679 51.1952 35.2735C52.4031 35.279 53.3823 36.2694 53.3711 37.4745C53.36 38.6741 52.3808 39.6476 51.1785 39.6448C49.9761 39.6448 48.9886 38.6517 48.9942 37.4494Z" fill="#0033AC"/>
<path d="M53.7398 35.168C52.5625 35.182 51.5834 34.214 51.5666 33.02C51.5499 31.8093 52.5012 30.8245 53.7063 30.805C54.9226 30.7855 55.9129 31.7339 55.9269 32.9335C55.9436 34.1805 54.9923 35.1513 53.7398 35.168Z" fill="#0033AC"/>
<path d="M48.9775 28.5282C48.9775 27.3231 49.9623 26.3439 51.1702 26.3467C52.367 26.3495 53.3461 27.3342 53.3434 28.531C53.3406 29.7333 52.3642 30.7125 51.1646 30.7125C49.9567 30.7125 48.9775 29.7361 48.9775 28.5282Z" fill="#0033AC"/>
<path d="M40.949 27.3233C41.6604 27.326 42.2294 27.8979 42.2294 28.6065C42.2267 29.3234 41.6492 29.8981 40.935 29.8925C40.232 29.8842 39.6574 29.3039 39.6602 28.6009C39.663 27.8923 40.2404 27.3205 40.949 27.3233Z" fill="#0033AC"/>
<path d="M56.245 38.6768C55.5336 38.6712 54.9645 38.0993 54.9673 37.3908C54.9701 36.6738 55.5503 36.0991 56.2645 36.1075C56.9675 36.1159 57.5421 36.6989 57.5366 37.4019C57.531 38.1105 56.9535 38.6824 56.245 38.6768Z" fill="#0033AC"/>
<path d="M49.8092 41.8236C49.8092 42.5433 49.2401 43.1124 48.5231 43.1124C47.8174 43.1124 47.2399 42.5349 47.2427 41.8319C47.2455 41.115 47.809 40.5459 48.5148 40.5459C49.2373 40.5431 49.8092 41.1066 49.8092 41.8236Z" fill="#0033AC"/>
<path d="M48.5757 25.4542C47.856 25.4514 47.2925 24.8851 47.2925 24.1654C47.2925 23.454 47.8644 22.8849 48.5729 22.8877C49.2871 22.8905 49.8562 23.4568 49.859 24.1626C49.8562 24.8851 49.2899 25.457 48.5757 25.4542Z" fill="#0033AC"/>
<path d="M40.9659 38.7131C40.2573 38.7103 39.6854 38.1412 39.6826 37.4354C39.6826 36.724 40.2684 36.1382 40.9742 36.1466C41.6772 36.1549 42.2575 36.738 42.2519 37.4382C42.2463 38.1412 41.6716 38.7158 40.9659 38.7131Z" fill="#0033AC"/>
<path d="M57.5112 28.5611C57.5112 29.2669 56.9393 29.8472 56.2391 29.8528C55.5333 29.8583 54.9419 29.2697 54.9419 28.5667C54.9447 27.8609 55.5166 27.2891 56.2251 27.2891C56.9393 27.2891 57.5112 27.8554 57.5112 28.5611Z" fill="#0033AC"/>
<path d="M53.2568 42.9146C53.2541 42.312 53.7367 41.8183 54.3364 41.8155C54.9474 41.8099 55.4439 42.2981 55.4467 42.9007C55.4495 43.5088 54.9585 44.0026 54.3504 44.0026C53.7534 43.9998 53.2624 43.5116 53.2568 42.9146Z" fill="#0033AC"/>
<path d="M42.9019 41.8399C43.5045 41.8455 43.9899 42.3364 43.9843 42.9334C43.9788 43.536 43.4766 44.0298 42.874 44.0242C42.2715 44.0186 41.7917 43.5276 41.7944 42.9251C41.7972 42.3169 42.2882 41.8343 42.9019 41.8399Z" fill="#0033AC"/>
<path d="M54.3058 24.1599C53.7033 24.1599 53.2123 23.6773 53.2095 23.0775C53.2067 22.4749 53.7033 21.9784 54.3058 21.9756C54.9112 21.9728 55.4021 22.4694 55.3966 23.0775C55.3966 23.6801 54.914 24.1599 54.3058 24.1599Z" fill="#0033AC"/>
<path d="M37.1381 34.119C36.5328 34.1162 36.0502 33.6364 36.0474 33.0338C36.0474 32.4257 36.5356 31.9347 37.1437 31.9375C37.7546 31.9403 38.2372 32.4285 38.2317 33.0394C38.2289 33.6476 37.7463 34.1218 37.1381 34.119Z" fill="#0033AC"/>
<path d="M60.0634 31.8868C60.666 31.8923 61.1514 32.3805 61.1458 32.9803C61.1403 33.5829 60.6353 34.0822 60.0383 34.0711C59.4274 34.0599 58.9532 33.5689 58.9615 32.958C58.9727 32.3554 59.4581 31.8812 60.0634 31.8868Z" fill="#0033AC"/>
<path d="M43.9396 23.0995C43.9368 23.7048 43.4514 24.1874 42.8489 24.1846C42.2463 24.1818 41.7609 23.6909 41.7637 23.0911C41.7665 22.4885 42.2575 22.0003 42.8572 22.0059C43.4598 22.0087 43.9424 22.4969 43.9396 23.0995Z" fill="#0033AC"/>
<path d="M36.3963 39.1787C36.8956 39.1759 37.3029 39.5693 37.3085 40.063C37.3141 40.5652 36.9124 40.9781 36.4102 40.9781C35.9164 40.9808 35.5092 40.5763 35.5064 40.0854C35.5036 39.5888 35.9025 39.1815 36.3963 39.1787Z" fill="#0033AC"/>
<path d="M61.7237 40.0244C61.7237 40.5154 61.322 40.9199 60.8282 40.9255C60.3289 40.931 59.9188 40.521 59.9244 40.0216C59.9272 39.5306 60.3345 39.1289 60.8282 39.1289C61.322 39.1289 61.7237 39.5306 61.7237 40.0244Z" fill="#0033AC"/>
<path d="M35.4727 25.9697C35.4727 25.4787 35.8772 25.077 36.3709 25.0742C36.8647 25.0714 37.2664 25.4732 37.272 25.9669C37.2748 26.4635 36.8647 26.8736 36.3654 26.8708C35.8688 26.868 35.4699 26.4663 35.4727 25.9697Z" fill="#0033AC"/>
<path d="M48.5425 48.0003C48.0488 48.0031 47.6387 47.5986 47.6387 47.1105C47.6387 46.6111 48.0488 46.1982 48.5425 46.1982C49.0279 46.201 49.4352 46.6111 49.438 47.1021C49.4436 47.5903 49.0363 47.9976 48.5425 48.0003Z" fill="#0033AC"/>
<path d="M49.4633 18.8899C49.4633 19.3893 49.0532 19.8021 48.5595 19.8021C48.0741 19.8021 47.6668 19.3893 47.6612 18.8983C47.6556 18.4101 48.0629 18.0028 48.5567 18C49.0532 18 49.4633 18.4017 49.4633 18.8899Z" fill="#0033AC"/>
<path d="M60.7863 26.8213C60.287 26.8185 59.8853 26.4223 59.8853 25.9313C59.8853 25.4264 60.287 25.0275 60.7919 25.0303C61.2912 25.0331 61.6902 25.4348 61.6874 25.9286C61.6818 26.4251 61.2829 26.824 60.7863 26.8213Z" fill="#0033AC"/>
<path d="M57.0339 19.532C57.0367 19.9197 56.7187 20.2405 56.3309 20.2461C55.9404 20.2489 55.6252 19.9253 55.6279 19.5208C55.6307 19.133 55.9348 18.829 56.3254 18.8262C56.7075 18.8262 57.0311 19.147 57.0339 19.532Z" fill="#0033AC"/>
<path d="M41.5094 19.5596C41.5122 19.9529 41.2026 20.2709 40.8148 20.2765C40.4326 20.2821 40.1062 19.9613 40.1007 19.5735C40.0951 19.1802 40.4047 18.8622 40.7981 18.8594C41.1914 18.8594 41.5066 19.1662 41.5094 19.5596Z" fill="#0033AC"/>
<path d="M57.0956 46.449C57.09 46.8395 56.7664 47.1492 56.3759 47.138C55.9797 47.1269 55.6757 46.8088 55.6868 46.4155C55.698 46.0222 56.0188 45.7125 56.4066 45.7209C56.7915 45.732 57.1012 46.0584 57.0956 46.449Z" fill="#0033AC"/>
<path d="M41.5655 46.4653C41.5627 46.8475 41.2391 47.1655 40.8541 47.1655C40.4664 47.1627 40.1567 46.8475 40.1567 46.4541C40.1595 46.0664 40.4775 45.7511 40.8653 45.7539C41.2531 45.7567 41.5655 46.0775 41.5655 46.4653Z" fill="#0033AC"/>
<path fill-rule="evenodd" clip-rule="evenodd" d="M111.206 36.7938L109.017 36.7742L109.025 29.3175L110.927 29.3203C113.006 29.3231 114.283 29.9452 114.819 31.9119C115.592 34.7434 113.734 36.7938 111.206 36.7938ZM106.271 39.1706L109.767 39.1817C111.53 39.1873 113.265 39.0534 114.501 38.4703C116.367 37.5916 117.821 35.7309 117.804 32.9468C117.787 28.2128 114.225 26.8849 110.456 26.8765L106.302 26.8682L106.271 39.1706Z" fill="#0033AC"/>
<path fill-rule="evenodd" clip-rule="evenodd" d="M97.3947 33.2734L97.3975 29.1698L99.7911 29.1503C101.133 29.1391 102.232 29.7473 102.271 31.1505C102.302 32.2524 101.775 32.9191 100.829 33.1618C100.608 33.2176 100.19 33.2818 99.7157 33.279L97.3947 33.2734ZM102.823 34.9779C105.122 33.8146 105.831 29.8003 103.683 28.0121C102.631 27.1361 101.451 26.9269 99.6767 26.9297L94.6553 26.9771L94.6915 39.0257L97.3919 38.981L97.4003 35.547L100.254 35.5386L102.076 39.0313L105.183 38.9894L102.823 34.9779Z" fill="#0033AC"/>
<path fill-rule="evenodd" clip-rule="evenodd" d="M85.0756 34.4838L86.8247 30.1291L88.5822 34.4894C87.4106 34.4894 86.2417 34.495 85.0756 34.4838ZM84.102 36.7183L89.5502 36.7211L90.535 39.0282L93.4613 39.0142C93.4279 38.6097 91.2882 33.6915 90.9534 32.9523L88.4232 26.9238L85.4383 26.9434C84.8274 28.5335 80.3332 38.3977 80.3081 39.0309L83.0922 39.017L84.102 36.7183Z" fill="#0033AC"/>
<path fill-rule="evenodd" clip-rule="evenodd" d="M78.6064 30.6957L80.0543 28.7932C79.4099 27.7136 77.061 26.7734 75.5657 26.7734C66.1701 26.7734 67.2999 39.1539 74.8237 39.1679C78.2549 39.1735 78.9217 37.9907 80.0738 37.1621L78.5339 35.3042C77.9899 35.4604 76.2966 37.3044 73.9979 36.4033C69.5791 34.6682 72.0647 27.5824 76.729 29.485C77.658 29.8616 78.1155 30.1963 78.6064 30.6957Z" fill="#0033AC"/>
<path fill-rule="evenodd" clip-rule="evenodd" d="M122.649 34.5365L124.396 30.1819L126.153 34.5421C124.984 34.5421 123.818 34.5477 122.649 34.5365ZM121.676 36.7711L127.124 36.7738L128.109 39.0809L131.035 39.0669C131.002 38.6624 128.862 33.7443 128.527 33.005L125.997 26.9766L123.012 26.9961C122.401 28.5862 117.907 38.4504 117.882 39.0837L120.669 39.0697L121.676 36.7711Z" fill="#0033AC"/>
<path fill-rule="evenodd" clip-rule="evenodd" d="M132.374 26.9209H134.896L140.71 34.651L140.749 26.9209H143.27L143.24 38.9304L140.737 38.9276L134.921 31.2421L134.835 38.9053H132.466L132.374 26.9209Z" fill="#0033AC"/>
<path fill-rule="evenodd" clip-rule="evenodd" d="M151.202 26.8818C154.753 26.8818 157.635 29.6464 157.635 33.0526C157.635 36.4615 154.756 39.2261 151.202 39.2261C147.65 39.2261 144.769 36.4615 144.769 33.0526C144.769 29.6464 147.648 26.8818 151.202 26.8818ZM151.202 29.2196C153.252 29.2196 154.912 30.9352 154.912 33.0554C154.912 35.1727 153.249 36.8911 151.202 36.8911C149.151 36.8911 147.491 35.1755 147.491 33.0554C147.491 30.938 149.151 29.2196 151.202 29.2196Z" fill="#0033AC"/>
</svg>
