<svg width="190" height="66" viewBox="0 0 190 66" fill="none" xmlns="http://www.w3.org/2000/svg">
<path d="M0 10C0 4.47715 4.47715 0 10 0H180C185.523 0 190 4.47715 190 10V56C190 61.5228 185.523 66 180 66H10C4.47715 66 0 61.5228 0 56V10Z" fill="white"/>
<path d="M70.8033 24.8569C70.6949 24.7485 70.6329 24.6246 70.6329 24.4853C70.6329 24.346 70.6949 24.2221 70.8033 24.1138C71.0357 23.9125 71.3764 23.9125 71.5933 24.1138C71.7018 24.2221 71.7637 24.346 71.7637 24.4853C71.7637 24.6246 71.7018 24.7485 71.5933 24.8569C71.4849 24.9497 71.33 24.9962 71.1906 24.9962C71.0511 25.0271 70.9117 24.9652 70.8033 24.8569ZM69.4091 26.3276C69.3162 26.2192 69.2697 26.0953 69.2697 25.956C69.2697 25.8167 69.3317 25.6928 69.4091 25.5845C69.6105 25.3832 69.9513 25.3832 70.1527 25.5845C70.2456 25.6928 70.2921 25.8167 70.2921 25.956C70.2921 26.0953 70.2301 26.2192 70.1527 26.3276C70.0442 26.4205 69.9203 26.4669 69.7809 26.4669C69.6415 26.4669 69.5176 26.4205 69.4091 26.3276ZM67.891 27.7828C67.7981 27.6899 67.7516 27.5506 67.7516 27.4112C67.7516 27.2719 67.8136 27.1481 67.891 27.0397C68.0924 26.8384 68.4332 26.8384 68.6346 27.0397C68.7275 27.1326 68.774 27.2719 68.774 27.4112C68.774 27.5506 68.712 27.6744 68.6346 27.7828C68.5261 27.8912 68.4022 27.9221 68.2628 27.9221C68.1234 27.9221 67.984 27.8757 67.891 27.7828ZM66.4504 29.238C66.3419 29.1451 66.28 29.0058 66.28 28.8665C66.28 28.7271 66.3419 28.6033 66.4504 28.4949C66.6827 28.2937 67.0235 28.2937 67.2404 28.4949C67.3488 28.5878 67.4108 28.7271 67.4108 28.8665C67.4108 29.0058 67.3488 29.1451 67.2404 29.238C67.132 29.3464 66.9771 29.3774 66.8376 29.3774C66.6982 29.3774 66.5588 29.3464 66.4504 29.238ZM65.0562 30.6778C64.9478 30.5849 64.9168 30.4456 64.9168 30.3062C64.9168 30.1669 64.9788 30.043 65.0562 29.9347C65.2576 29.7334 65.5984 29.7334 65.7998 29.9347C65.9082 30.0276 65.9392 30.1669 65.9392 30.3062C65.9392 30.4456 65.8772 30.5849 65.7998 30.6778C65.7068 30.7861 65.5674 30.8171 65.428 30.8171C65.2731 30.8481 65.1337 30.8016 65.0562 30.6778ZM63.3677 31.7615C63.3677 31.6221 63.4297 31.4983 63.5071 31.3899C63.7085 31.1887 64.0493 31.1887 64.2507 31.3899C64.3591 31.4983 64.3901 31.6221 64.3901 31.7615C64.3901 31.9008 64.3281 32.0246 64.2507 32.133C64.1577 32.2259 64.0183 32.2723 63.8789 32.2723C63.7395 32.2723 63.6156 32.2104 63.5071 32.133C63.4297 32.0556 63.3677 31.9008 63.3677 31.7615ZM60.6723 34.9815C60.5794 34.8887 60.5329 34.7493 60.5329 34.61C60.5329 34.4707 60.5949 34.3468 60.6723 34.2384C60.8737 34.0372 61.2145 34.0372 61.4159 34.2384C61.5243 34.3468 61.5553 34.4707 61.5553 34.61C61.5553 34.7493 61.4933 34.8732 61.4159 34.9815C61.3229 35.0899 61.1835 35.1209 61.0441 35.1209C60.8892 35.1518 60.7807 35.0899 60.6723 34.9815ZM59.1542 36.4368C59.0458 36.3439 58.9838 36.2046 58.9838 36.0652C58.9838 35.9259 59.0458 35.802 59.1542 35.6937C59.3866 35.4924 59.7274 35.4924 59.9442 35.6937C60.0527 35.802 60.1146 35.9259 60.1146 36.0652C60.1146 36.2046 60.0527 36.3284 59.9442 36.4368C59.8358 36.5451 59.6809 36.5761 59.5415 36.5761C59.4176 36.6071 59.2781 36.5451 59.1542 36.4368ZM57.76 37.9075C57.6671 37.8146 57.6206 37.6753 57.6206 37.5359C57.6206 37.3966 57.6826 37.2573 57.76 37.1644C57.9614 36.9631 58.3022 36.9631 58.5036 37.1644C58.5965 37.2573 58.643 37.3966 58.643 37.5359C58.643 37.6753 58.5811 37.7991 58.5036 37.9075C58.3952 38.0159 58.2712 38.0468 58.1318 38.0468C57.9924 38.0468 57.884 38.0004 57.76 37.9075ZM56.3194 39.3627C56.211 39.2698 56.18 39.1305 56.18 38.9912C56.18 38.8518 56.2419 38.728 56.3194 38.6196C56.5208 38.4184 56.8616 38.4184 57.063 38.6196C57.1559 38.728 57.2024 38.8518 57.2024 38.9912C57.2024 39.1305 57.1404 39.2698 57.063 39.3627C56.9545 39.4711 56.8306 39.502 56.6912 39.502C56.5363 39.502 56.3969 39.4711 56.3194 39.3627ZM54.8013 40.8179C54.6929 40.7251 54.6309 40.5857 54.6309 40.4464C54.6309 40.3071 54.6929 40.1832 54.8013 40.0748C55.0337 39.8736 55.3745 39.8736 55.5758 40.0748C55.6843 40.1832 55.7462 40.3071 55.7462 40.4464C55.7462 40.5857 55.6843 40.7251 55.5758 40.8179C55.4674 40.9108 55.3125 40.9573 55.1731 40.9573C55.0337 40.9573 54.8942 40.9263 54.8013 40.8179ZM53.3761 42.2577C53.2677 42.1493 53.2367 42.0255 53.2367 41.8861C53.2367 41.7468 53.2987 41.623 53.3761 41.5146C53.5775 41.3133 53.9183 41.3133 54.1197 41.5146C54.2281 41.623 54.2591 41.7468 54.2591 41.8861C54.2591 42.0255 54.1972 42.1493 54.1197 42.2577C54.0268 42.3506 53.8873 42.397 53.7479 42.397C53.6395 42.428 53.5001 42.3815 53.3761 42.2577ZM54.1197 24.8569C54.2126 24.7485 54.2591 24.6246 54.2591 24.4853C54.2591 24.346 54.1972 24.2221 54.1197 24.1138C53.9183 23.9125 53.5775 23.9125 53.3761 24.1138C53.2677 24.2221 53.2367 24.346 53.2367 24.4853C53.2367 24.6246 53.2987 24.7485 53.3761 24.8569C53.4691 24.9497 53.6085 24.9962 53.7479 24.9962C53.8873 25.0271 54.0268 24.9652 54.1197 24.8569ZM55.5758 26.3276C55.6843 26.2192 55.7462 26.0953 55.7462 25.956C55.7462 25.8167 55.6843 25.6928 55.5758 25.5845C55.3435 25.3832 55.0027 25.3832 54.7858 25.5845C54.6774 25.6928 54.6154 25.8167 54.6154 25.956C54.6154 26.0953 54.6774 26.2192 54.7858 26.3276C54.8942 26.4205 55.0492 26.4669 55.1886 26.4669C55.3125 26.4669 55.4519 26.4205 55.5758 26.3276ZM57.0475 27.7828C57.1404 27.6899 57.1869 27.5506 57.1869 27.4112C57.1869 27.2719 57.1249 27.1481 57.0475 27.0397C56.8461 26.8384 56.5053 26.8384 56.3039 27.0397C56.211 27.1326 56.1645 27.2719 56.1645 27.4112C56.1645 27.5506 56.2265 27.6744 56.3039 27.7828C56.4123 27.8912 56.5363 27.9221 56.6757 27.9221C56.7996 27.9221 56.939 27.8757 57.0475 27.7828ZM58.5036 29.238C58.5965 29.1451 58.643 29.0058 58.643 28.8665C58.643 28.7271 58.5811 28.6033 58.5036 28.4949C58.3022 28.2937 57.9614 28.2937 57.76 28.4949C57.6671 28.5878 57.6206 28.7271 57.6206 28.8665C57.6206 29.0058 57.6826 29.1451 57.76 29.238C57.8685 29.3464 57.9924 29.3774 58.1318 29.3774C58.2403 29.3774 58.3952 29.3464 58.5036 29.238ZM59.9288 30.6778C60.0372 30.5849 60.0992 30.4456 60.0992 30.3062C60.0992 30.1669 60.0372 30.043 59.9288 29.9347C59.7274 29.7334 59.3556 29.7334 59.1542 29.9347C59.0458 30.0276 58.9838 30.1669 58.9838 30.3062C58.9838 30.4456 59.0458 30.5849 59.1542 30.6778C59.2626 30.7861 59.4176 30.8171 59.557 30.8171C59.6964 30.8481 59.8358 30.8016 59.9288 30.6778ZM61.5553 31.7615C61.5553 31.6221 61.4933 31.4983 61.4159 31.3899C61.2145 31.1887 60.8737 31.1887 60.6723 31.3899C60.5639 31.4983 60.5329 31.6221 60.5329 31.7615C60.5329 31.9008 60.5949 32.0246 60.6723 32.133C60.7653 32.2259 60.9047 32.2723 61.0441 32.2723C61.1835 32.2723 61.3074 32.2104 61.4159 32.133C61.5243 32.0556 61.5553 31.9008 61.5553 31.7615ZM62.8565 33.6192C62.9649 33.5108 62.9959 33.387 62.9959 33.2477C62.9959 33.1083 62.934 32.9845 62.8565 32.8761C62.6551 32.6748 62.3143 32.6748 62.113 32.8761C62.0045 32.9845 61.9735 33.1083 61.9735 33.2477C61.9735 33.387 62.0355 33.5108 62.113 33.6192C62.2059 33.7121 62.3453 33.7585 62.4847 33.7585C62.6242 33.7585 62.7791 33.6966 62.8565 33.6192ZM64.3126 34.9815C64.4211 34.8887 64.483 34.7493 64.483 34.61C64.483 34.4707 64.4211 34.3468 64.3126 34.2384C64.0803 34.0372 63.7395 34.0372 63.5381 34.2384C63.4297 34.3468 63.3677 34.4707 63.3677 34.61C63.3677 34.7493 63.4297 34.8732 63.5381 34.9815C63.6465 35.0899 63.8015 35.1209 63.9409 35.1209C64.0493 35.1518 64.2042 35.0899 64.3126 34.9815ZM65.7843 36.4368C65.8772 36.3439 65.9237 36.2046 65.9237 36.0652C65.9237 35.9259 65.8617 35.802 65.7843 35.6937C65.5829 35.4924 65.2421 35.4924 65.0407 35.6937C64.9478 35.802 64.9013 35.9259 64.9013 36.0652C64.9013 36.2046 64.9633 36.3284 65.0407 36.4368C65.1492 36.5451 65.2731 36.5761 65.4125 36.5761C65.5364 36.6071 65.6758 36.5451 65.7843 36.4368ZM67.2404 37.9075C67.3334 37.8146 67.3798 37.6753 67.3798 37.5359C67.3798 37.3966 67.3179 37.2573 67.2404 37.1644C67.039 36.9631 66.6982 36.9631 66.4968 37.1644C66.4039 37.2573 66.3574 37.3966 66.3574 37.5359C66.3574 37.6753 66.4194 37.7991 66.4968 37.9075C66.6053 38.0159 66.7292 38.0468 66.8686 38.0468C67.008 38.0468 67.132 38.0004 67.2404 37.9075ZM68.6036 39.3627C68.712 39.2698 68.743 39.1305 68.743 38.9912C68.743 38.8518 68.6811 38.728 68.6036 38.6196C68.4022 38.4184 68.0614 38.4184 67.86 38.6196C67.7671 38.728 67.7206 38.8518 67.7206 38.9912C67.7206 39.1305 67.7826 39.2698 67.86 39.3627C67.9685 39.4711 68.0924 39.502 68.2318 39.502C68.3712 39.502 68.5261 39.4711 68.6036 39.3627ZM70.1527 40.8179C70.2611 40.7251 70.2921 40.5857 70.2921 40.4464C70.2921 40.3071 70.2301 40.1832 70.1527 40.0748C69.9513 39.8736 69.6105 39.8736 69.4091 40.0748C69.3007 40.1832 69.2697 40.3071 69.2697 40.4464C69.2697 40.5857 69.3317 40.7251 69.4091 40.8179C69.5021 40.9108 69.6415 40.9573 69.7809 40.9573C69.9203 40.9573 70.0597 40.9263 70.1527 40.8179ZM71.5933 42.2577C71.7018 42.1493 71.7637 42.0255 71.7637 41.8861C71.7637 41.7468 71.7018 41.623 71.5933 41.5146C71.361 41.3133 71.0202 41.3133 70.8188 41.5146C70.7103 41.623 70.6484 41.7468 70.6484 41.8861C70.6484 42.0255 70.7103 42.1493 70.8188 42.2577C70.9272 42.3506 71.0821 42.397 71.2215 42.397C71.3455 42.428 71.4849 42.3815 71.5933 42.2577ZM57.5587 25.2439C59.0458 24.2841 60.6568 23.8196 62.4538 23.7887C64.2197 23.7887 65.8462 24.2686 67.3488 25.2439L70.478 22.1167C68.0304 20.2744 65.3815 19.3301 62.4538 19.3301C59.526 19.3301 56.8461 20.2744 54.4605 22.1167L57.5587 25.2439ZM54.4295 38.0778C53.4381 36.5761 52.9424 34.9506 52.9424 33.2167C52.9424 31.4518 53.4226 29.8263 54.4295 28.3556L51.3314 25.2594C49.5034 27.6435 48.605 30.2907 48.605 33.2477C48.605 36.1426 49.5189 38.8209 51.3623 41.2359L54.4295 38.0778ZM67.3643 41.1895C65.8772 42.1803 64.2662 42.6912 62.5002 42.7221C60.7033 42.7221 59.0613 42.2422 57.5742 41.2205L54.445 44.3167C56.8616 46.1899 59.5415 47.1343 62.5002 47.1033C65.428 47.0723 68.0769 46.1435 70.478 44.3167L67.3643 41.1895ZM70.4005 28.3246C71.3919 29.8263 71.9031 31.4828 71.8876 33.2786C71.8567 35.0125 71.3764 36.6071 70.4005 38.0623L73.5297 41.1585C75.3731 38.7744 76.318 36.1271 76.318 33.2167C76.349 30.2598 75.4041 27.5815 73.5297 25.1665L70.4005 28.3246ZM73.6691 42.1493C74.8619 42.1493 75.8688 43.1092 75.8688 44.3476C75.8688 45.5397 74.9084 46.546 73.6691 46.546C72.4763 46.546 71.4694 45.5861 71.4694 44.3476C71.4849 43.1246 72.4453 42.1493 73.6691 42.1493ZM51.3004 42.1493C52.4932 42.1493 53.4691 43.1092 53.4691 44.3476C53.4691 45.5397 52.5087 46.546 51.3004 46.546C50.0921 46.546 49.1317 45.5861 49.1317 44.3476C49.1317 43.1246 50.1076 42.1493 51.3004 42.1493ZM73.7001 19.81C74.8929 19.81 75.8688 20.7698 75.8688 22.0083C75.8688 23.2313 74.9084 24.2066 73.7001 24.2066C72.4918 24.2066 71.5314 23.2468 71.5314 22.0083C71.5468 20.7853 72.5073 19.81 73.7001 19.81ZM51.2694 19.81C52.4622 19.81 53.4691 20.7698 53.4691 21.9774C53.4691 23.1694 52.5087 24.1447 51.2694 24.1447C50.0766 24.1447 49.0697 23.1849 49.0697 21.9774C49.0852 20.7853 50.0456 19.81 51.2694 19.81ZM92.5214 37.3347L91.437 36.3748C90.7864 37.1489 89.4697 37.5979 88.3699 37.5979C86.5265 37.5979 85.0393 36.4832 84.8689 34.7029H93.0636C93.4353 30.8636 91.1892 29.0368 88.2304 29.0368C85.3337 29.0368 83.2269 31.1113 83.2269 34.0372C83.2269 37.1025 85.3027 39.0686 88.3234 39.0686C89.8415 39.0531 91.53 38.4803 92.5214 37.3347ZM91.5764 33.3251H84.8844C85.1633 31.4828 86.6194 30.4456 88.3079 30.4456C90.1823 30.4456 91.468 31.4364 91.5764 33.2631V33.3251V33.3251ZM97.0447 25.1974H95.4491V38.8828H97.0447V25.1974ZM101.568 29.238H100.081V38.8828H101.676V33.5108C101.676 31.746 102.962 30.6313 104.527 30.6159C105.177 30.6159 105.689 30.7861 106.2 31.1577L106.912 29.7953C106.308 29.3464 105.518 29.0523 104.666 29.0832C103.551 29.0832 102.358 29.4238 101.707 30.6778L101.568 29.238ZM107.842 34.0682C107.842 36.9941 109.949 39.0531 112.845 39.0531C115.742 39.0531 117.849 37.0096 117.849 34.0682C117.849 31.0803 115.773 29.0058 112.845 29.0058C109.98 29.0058 107.842 31.0803 107.842 34.0682ZM116.269 34.0682C116.238 36.0807 114.813 37.5359 112.83 37.5359C110.862 37.5359 109.437 36.0807 109.437 34.0682C109.437 31.9008 110.893 30.4765 112.861 30.4765C114.782 30.492 116.269 31.9317 116.269 34.0682ZM120.157 29.2071V38.8828H121.753V33.6966C121.753 31.9627 122.976 30.5694 124.711 30.5384C126.555 30.5384 127.639 31.6995 127.639 33.5573V38.8828H129.235V33.5573C129.235 30.7087 127.438 29.0832 124.99 29.0832C123.704 29.0832 122.512 29.6251 121.691 30.7552L121.598 29.2225L120.157 29.2071ZM141.519 25.1974H139.923V30.9719C139.242 29.656 137.677 29.0368 136.314 29.0368C133.587 29.0368 131.45 30.8016 131.45 34.0372C131.45 37.2263 133.587 39.0376 136.345 39.0376C137.77 39.0376 139.195 38.4184 139.954 37.0715L140.047 38.8364H141.55L141.519 25.1974ZM136.453 30.5384C138.359 30.5384 139.877 31.9627 139.877 34.0062C139.877 36.1117 138.374 37.5359 136.453 37.5359C134.579 37.5359 133.061 36.251 133.061 34.0372C133.061 31.7924 134.548 30.5694 136.391 30.5384H136.453V30.5384Z" fill="black"/>
</svg>
