<svg width="190" height="66" viewBox="0 0 190 66" fill="none" xmlns="http://www.w3.org/2000/svg">
<path d="M0 10C0 4.47715 4.47715 0 10 0H180C185.523 0 190 4.47715 190 10V56C190 61.5228 185.523 66 180 66H10C4.47715 66 0 61.5228 0 56V10Z" fill="white"/>
<path d="M72.226 33.828C72.226 34.0356 72.0519 34.2045 71.844 34.2045H64.4855C64.6692 36.0194 66.0375 37.675 67.9617 37.675C69.2768 37.675 70.2534 37.173 70.9883 36.1256C71.0947 35.9808 71.2542 35.8891 71.4573 35.9759C71.5685 36.0242 71.6458 36.1256 71.6652 36.2414C71.6845 36.3621 71.6507 36.4297 71.6168 36.4972C70.8771 37.786 69.4025 38.4183 67.9569 38.4183C65.4815 38.4183 63.7168 36.2076 63.7168 33.8425C63.7168 31.4773 65.4815 29.2666 67.9569 29.2666C70.4323 29.2618 72.2212 31.4677 72.226 33.828V33.828ZM71.4379 33.4708C71.2784 31.6559 69.886 30.0003 67.9617 30.0003C66.0375 30.0003 64.6692 31.6559 64.4855 33.4708H71.4379ZM81.1558 29.4452C81.3685 29.4452 81.5233 29.6287 81.5233 29.8121C81.5233 30.0245 81.3637 30.1789 81.1558 30.1789H79.1832V37.9067C79.1832 38.0901 79.0237 38.2735 78.8158 38.2735C78.6031 38.2735 78.4483 38.0901 78.4483 37.9067V30.1789H76.5531C76.3404 30.1789 76.1857 30.0196 76.1857 29.8121C76.1857 29.6287 76.3452 29.4452 76.5531 29.4452H78.4483V26.6167C78.4483 26.4381 78.5692 26.274 78.7433 26.2451C78.9898 26.2064 79.1832 26.3754 79.1832 26.6071V29.4452H81.1558ZM93.1896 33.1812V37.8632C93.1896 38.0756 93.0058 38.2301 92.8221 38.2301C92.6094 38.2301 92.4547 38.0708 92.4547 37.8632V33.1812C92.4547 31.6028 91.5602 30.0245 89.7956 30.0245C87.5329 30.0245 86.5563 31.9986 86.6868 34.0211C86.6868 34.0742 86.711 34.3107 86.711 34.3348V37.8487C86.711 38.0273 86.5901 38.1915 86.416 38.2204C86.1695 38.259 85.9761 38.0901 85.9761 37.8584V22.4801C85.9761 22.2967 86.1356 22.1133 86.3435 22.1133C86.5563 22.1133 86.711 22.2967 86.711 22.4801V31.1829C87.3443 30.0534 88.4757 29.2908 89.7907 29.2908C91.9519 29.2908 93.1896 31.1829 93.1896 33.1812V33.1812ZM106.384 33.828C106.384 34.0356 106.21 34.2045 106.002 34.2045H98.6383C98.8221 36.0194 100.19 37.675 102.115 37.675C103.43 37.675 104.406 37.173 105.141 36.1256C105.247 35.9808 105.407 35.8891 105.61 35.9759C105.721 36.0242 105.799 36.1256 105.818 36.2414C105.837 36.3621 105.803 36.4297 105.77 36.4972C105.03 37.786 103.555 38.4183 102.11 38.4183C99.6343 38.4183 97.8696 36.2076 97.8696 33.8425C97.8696 31.4773 99.6343 29.2666 102.11 29.2666C104.59 29.2618 106.379 31.4677 106.384 33.828V33.828ZM105.591 33.4708C105.431 31.6559 104.039 30.0003 102.115 30.0003C100.19 30.0003 98.8221 31.6559 98.6383 33.4708H105.591ZM115.415 29.7879C115.415 30.0245 115.284 30.1548 115.072 30.1837C112.911 30.4975 111.939 32.2593 111.939 34.3107V37.8246C111.939 38.0032 111.818 38.1673 111.644 38.1963C111.397 38.2349 111.204 38.066 111.204 37.8343V29.8266C111.204 29.648 111.325 29.4839 111.499 29.4549C111.745 29.4163 111.939 29.5852 111.939 29.8169V31.4484C112.543 30.4251 113.757 29.4501 115.019 29.4501C115.202 29.4452 115.415 29.5804 115.415 29.7879V29.7879ZM127.502 33.828C127.502 34.0356 127.328 34.2045 127.12 34.2045H119.761C119.945 36.0194 121.313 37.675 123.238 37.675C124.553 37.675 125.529 37.173 126.264 36.1256C126.371 35.9808 126.53 35.8891 126.733 35.9759C126.844 36.0242 126.922 36.1256 126.941 36.2414C126.96 36.3621 126.927 36.4297 126.893 36.4972C126.153 37.786 124.678 38.4183 123.233 38.4183C120.757 38.4183 118.993 36.2076 118.993 33.8425C118.993 31.4773 120.757 29.2666 123.233 29.2666C125.708 29.2618 127.497 31.4677 127.502 33.828V33.828ZM126.714 33.4708C126.554 31.6559 125.162 30.0003 123.238 30.0003C121.313 30.0003 119.945 31.6559 119.761 33.4708H126.714V33.4708ZM139.381 29.8797V37.9067C139.381 38.1191 139.197 38.2735 139.014 38.2735C138.801 38.2735 138.646 38.1142 138.646 37.9067V36.3814C138.042 37.5929 136.959 38.4569 135.591 38.4569C133.405 38.4569 132.192 36.5648 132.192 34.5665V29.8603C132.192 29.6769 132.351 29.4935 132.559 29.4935C132.772 29.4935 132.927 29.6769 132.927 29.8603V34.5665C132.927 36.1449 133.821 37.7233 135.586 37.7233C138.061 37.7233 138.641 35.4112 138.641 32.8578V29.8603C138.641 29.648 138.854 29.4308 139.115 29.508C139.275 29.5611 139.381 29.7155 139.381 29.8797V29.8797ZM157.995 33.1522V37.8584C157.995 38.0708 157.811 38.2252 157.627 38.2252C157.415 38.2252 157.26 38.066 157.26 37.8584V33.1522C157.26 31.5739 156.366 30.0245 154.601 30.0245C152.386 30.0245 151.545 32.3896 151.545 34.2286V37.8584C151.545 38.0708 151.362 38.2252 151.178 38.2252C150.965 38.2252 150.81 38.066 150.81 37.8584V33.1522C150.81 31.5739 149.916 30.0245 148.151 30.0245C145.913 30.0245 144.989 31.7862 145.071 34.1273C145.071 34.1804 145.096 34.2866 145.071 34.3107V37.8487C145.071 38.0273 144.951 38.1915 144.772 38.2204C144.525 38.259 144.332 38.0901 144.332 37.8584V29.8266C144.332 29.648 144.453 29.4839 144.627 29.4549C144.873 29.4163 145.067 29.5852 145.067 29.8169V31.1588C145.7 30.0293 146.831 29.2908 148.146 29.2908C149.645 29.2908 150.806 30.2368 151.279 31.6318C151.884 30.2658 153.068 29.2908 154.596 29.2908C156.757 29.2908 157.995 31.1539 157.995 33.1522" fill="#3C3C3B"/>
<g opacity="0.6">
<path opacity="0.6" d="M44.3045 27.7891L32.0049 33.3737L44.3045 40.6284L56.5994 33.3737L44.3045 27.7891Z" fill="#010101"/>
</g>
<g opacity="0.45">
<path opacity="0.45" d="M32.0049 33.3741L44.3046 40.6288V13L32.0049 33.3741Z" fill="#010101"/>
</g>
<g opacity="0.8">
<path opacity="0.8" d="M44.3047 13V40.6288L56.5995 33.3741L44.3047 13Z" fill="#010101"/>
</g>
<g opacity="0.45">
<path opacity="0.45" d="M32.0049 35.7002L44.3046 52.9996V42.9549L32.0049 35.7002Z" fill="#010101"/>
</g>
<g opacity="0.8">
<path opacity="0.8" d="M44.3047 42.9549V52.9996L56.6092 35.7002L44.3047 42.9549Z" fill="#010101"/>
</g>
</svg>
