<svg width="190" height="66" viewBox="0 0 190 66" fill="none" xmlns="http://www.w3.org/2000/svg">
<path d="M0 10C0 4.47715 4.47715 0 10 0H180C185.523 0 190 4.47715 190 10V56C190 61.5228 185.523 66 180 66H10C4.47715 66 0 61.5228 0 56V10Z" fill="white"/>
<g clip-path="url(#clip0_279_3075)">
<path d="M50.9121 19.2682C51.5927 18.9106 52.6282 18.9106 53.3087 19.2682L60.2529 22.9174C60.6628 23.1328 60.8879 23.4538 60.9282 23.7851H60.9348V42.128C60.9258 42.4894 60.6986 42.8483 60.2529 43.0826L53.3087 46.7318C52.6282 47.0895 51.5927 47.0895 50.9121 46.7318L43.9679 43.0826C43.5241 42.8494 43.3112 42.4878 43.3006 42.128C43.2996 42.0926 43.2994 42.063 43.3004 42.0385L43.3004 23.9029C43.2997 23.883 43.2996 23.8632 43.3002 23.8435L43.3006 23.7851L43.3037 23.7851C43.3346 23.4501 43.5495 23.1374 43.9679 22.9174L50.9121 19.2682ZM59.8416 34.0185L53.3087 37.4516C52.6282 37.8092 51.5927 37.8092 50.9121 37.4516L44.3935 34.0262V42.0917L50.9121 45.4992C51.2802 45.6949 51.6623 45.8857 52.0358 45.91L52.1104 45.9124C52.4997 45.9137 52.8776 45.717 53.2608 45.5309L59.8416 42.0624V34.0185ZM42.1712 41.7292C42.1712 42.4318 42.2532 42.8938 42.4162 43.2193C42.5513 43.4891 42.7541 43.6951 43.1242 43.946L43.1453 43.9602C43.2265 44.0147 43.316 44.0718 43.4249 44.1387L43.5534 44.2171L43.9478 44.454L43.3821 45.3845L42.9406 45.1192L42.8664 45.0739C42.7388 44.9954 42.633 44.9282 42.5343 44.8619C41.4794 44.1543 41.086 43.383 41.0782 41.778L41.0781 41.7292H42.1712ZM51.5638 29.1021C51.5132 29.1193 51.4658 29.1393 51.4226 29.162L44.4784 32.8112C44.4711 32.8151 44.4642 32.8189 44.4576 32.8226L44.4517 32.826L44.4626 32.8322L44.4784 32.8407L51.4226 36.49C51.4658 36.5127 51.5132 36.5327 51.5638 36.5499V29.1021ZM52.6571 29.1021V36.5499C52.7077 36.5327 52.755 36.5127 52.7982 36.49L59.7424 32.8407C59.7497 32.8369 59.7567 32.8331 59.7633 32.8294L59.7692 32.826L59.7583 32.8198L59.7424 32.8112L52.7982 29.162C52.755 29.1393 52.7077 29.1193 52.6571 29.1021ZM59.8416 25.0863L53.6123 28.3599L59.8416 31.6335V25.0863ZM44.3935 25.0939V31.6258L50.6084 28.3599L44.3935 25.0939ZM52.7982 20.2298C52.4371 20.0401 51.7838 20.0401 51.4226 20.2298L44.4784 23.8791C44.4711 23.8829 44.4642 23.8867 44.4576 23.8904L44.4517 23.8938L44.4626 23.9L44.4784 23.9086L51.4226 27.5578C51.7838 27.7476 52.4371 27.7476 52.7982 27.5578L59.7424 23.9086C59.7497 23.9048 59.7567 23.901 59.7633 23.8972L59.7692 23.8938L59.7583 23.8876L59.7424 23.8791L52.7982 20.2298ZM60.8679 20.63L61.3094 20.8953L61.3836 20.9406C61.5112 21.019 61.617 21.0864 61.7157 21.1526C62.7706 21.8602 63.164 22.6316 63.1717 24.2365L63.1719 24.2854H62.0788C62.0788 23.5826 61.9967 23.1206 61.8338 22.7952C61.6987 22.5255 61.4959 22.3194 61.1258 22.0685L61.1047 22.0543C61.0235 21.9998 60.934 21.9427 60.8251 21.8756L60.6966 21.7974L60.3022 21.5606L60.8679 20.63Z" fill="#1F6AF8"/>
<path d="M74.2756 41.3633V31.1337H77.1124V29.2608H74.2756V27.916C74.2756 26.3952 74.9408 25.6348 76.2711 25.6348C76.6556 25.6348 77.0645 25.6989 77.4972 25.8269V23.8339C76.9682 23.6738 76.3833 23.5938 75.7421 23.5938C74.5082 23.5938 73.5505 23.9459 72.8693 24.6503C72.1881 25.3547 71.8475 26.3792 71.8475 27.7239V29.2608H69.5156V31.1337H71.8475V41.3633H74.2756ZM84.1323 41.5312C85.062 41.5312 85.8753 41.3392 86.5724 40.9548C87.2696 40.5707 87.7946 40.0184 88.1472 39.2981V41.3633H90.5513V29.2608H88.1472V31.2298C87.7784 30.5094 87.2497 29.9531 86.5604 29.5609C85.8713 29.1687 85.062 28.9726 84.1323 28.9726C83.0906 28.9726 82.1609 29.2367 81.3437 29.765C80.5262 30.2933 79.8892 31.0377 79.4324 31.9982C78.9757 32.9587 78.7473 34.0633 78.7473 35.3119C78.7473 36.5606 78.9715 37.6532 79.4204 38.5897C79.8691 39.5262 80.4982 40.2506 81.3076 40.7628C82.1169 41.2751 83.0584 41.5312 84.1323 41.5312ZM84.7093 39.6102C83.6033 39.6102 82.7419 39.234 82.125 38.4816C81.5079 37.7292 81.1993 36.6727 81.1993 35.3119C81.1993 33.9352 81.5079 32.8587 82.125 32.0823C82.7419 31.3058 83.5955 30.9176 84.6853 30.9176C85.7911 30.9176 86.6446 31.2938 87.2455 32.0462C87.8467 32.7986 88.1472 33.8712 88.1472 35.2639C88.1472 36.6407 87.8467 37.7092 87.2455 38.4696C86.6446 39.23 85.7992 39.6102 84.7093 39.6102ZM96.5133 41.3633V34.4715C96.5133 33.3989 96.8217 32.5425 97.4388 31.9022C98.0559 31.2618 98.8773 30.9417 99.9031 30.9417C100.801 30.9417 101.454 31.1818 101.862 31.662C102.271 32.1423 102.475 32.9107 102.475 33.9672V41.3633H104.903V33.8232C104.903 30.5895 103.453 28.9726 100.552 28.9726C99.6226 28.9726 98.7931 29.1767 98.0638 29.5849C97.3347 29.9931 96.7778 30.5815 96.393 31.3499L96.1767 29.2608H93.917C94.0452 30.2693 94.1092 31.4059 94.1092 32.6706V41.3633H96.5133ZM113.029 41.5312C113.702 41.5312 114.303 41.4433 114.832 41.2672V39.2981C114.399 39.4261 113.975 39.4902 113.558 39.4902C112.917 39.4902 112.416 39.3181 112.055 38.9739C111.695 38.6297 111.515 38.0414 111.515 37.209V31.1337H114.856V29.2608H111.515V25.3947L109.087 26.2352V29.2608H106.73V31.1337H109.087V37.4011C109.087 38.7458 109.431 39.7703 110.12 40.4747C110.81 41.1791 111.779 41.5312 113.029 41.5312ZM122.309 41.5312C123.479 41.5312 124.513 41.2751 125.41 40.7628C126.308 40.2506 127.001 39.5222 127.49 38.5777C127.979 37.6332 128.223 36.5286 128.223 35.2639C128.223 33.9993 127.979 32.8907 127.49 31.9382C127.001 30.9857 126.308 30.2533 125.41 29.741C124.513 29.2287 123.479 28.9726 122.309 28.9726C121.123 28.9726 120.081 29.2287 119.184 29.741C118.286 30.2533 117.593 30.9857 117.104 31.9382C116.615 32.8907 116.371 33.9993 116.371 35.2639C116.371 36.5286 116.615 37.6332 117.104 38.5777C117.593 39.5222 118.286 40.2506 119.184 40.7628C120.081 41.2751 121.123 41.5312 122.309 41.5312ZM122.285 39.6102C121.179 39.6102 120.326 39.242 119.724 38.5057C119.124 37.7693 118.823 36.6887 118.823 35.2639C118.823 33.8712 119.127 32.7986 119.736 32.0462C120.345 31.2938 121.203 30.9176 122.309 30.9176C123.399 30.9176 124.244 31.2938 124.845 32.0462C125.446 32.7986 125.747 33.8712 125.747 35.2639C125.747 36.6887 125.45 37.7693 124.857 38.5057C124.264 39.242 123.407 39.6102 122.285 39.6102ZM133.464 41.3633V34.5195C133.464 33.4149 133.736 32.5425 134.281 31.9022C134.826 31.2618 135.563 30.9417 136.493 30.9417C137.294 30.9417 137.875 31.1818 138.236 31.662C138.596 32.1423 138.777 32.9027 138.777 33.9432V41.3633H141.205V34.5195C141.205 33.4149 141.473 32.5425 142.01 31.9022C142.547 31.2618 143.28 30.9417 144.21 30.9417C145.011 30.9417 145.592 31.1818 145.953 31.662C146.314 32.1423 146.494 32.9027 146.494 33.9432V41.3633H148.922V33.8232C148.922 30.5895 147.576 28.9726 144.883 28.9726C143.986 28.9726 143.18 29.1807 142.467 29.5969C141.754 30.0131 141.213 30.5815 140.844 31.3018C140.267 29.749 139.041 28.9726 137.166 28.9726C136.284 28.9726 135.515 29.1727 134.858 29.5729C134.201 29.9731 133.696 30.5414 133.344 31.2778L133.127 29.2608H130.867C130.996 30.2693 131.06 31.4059 131.06 32.6706V41.3633H133.464Z" fill="#1F6AF8"/>
</g>
<defs>
<clipPath id="clip0_279_3075">
<rect width="107.844" height="28" fill="white" transform="translate(41.0781 19)"/>
</clipPath>
</defs>
</svg>
