<svg width="190" height="66" viewBox="0 0 190 66" fill="none" xmlns="http://www.w3.org/2000/svg">
<path d="M0 10C0 4.47715 4.47715 0 10 0H180C185.523 0 190 4.47715 190 10V56C190 61.5228 185.523 66 180 66H10C4.47715 66 0 61.5228 0 56V10Z" fill="white"/>
<g clip-path="url(#clip0_279_3010)">
<mask id="mask0_279_3010" style="mask-type:alpha" maskUnits="userSpaceOnUse" x="47" y="37" width="24" height="9">
<path d="M47.522 37.0703H70.621V45.8311H47.522V37.0703Z" fill="white"/>
</mask>
<g mask="url(#mask0_279_3010)">
<path fill-rule="evenodd" clip-rule="evenodd" d="M59.0491 41.5293C58.2351 41.5293 57.4788 41.3598 56.8614 41.039L50.2135 37.586L48.2215 38.7753C47.2746 39.3404 47.2911 40.2067 48.2584 40.7092L57.453 45.4854C57.8996 45.7172 58.4705 45.8313 59.0491 45.8313C59.7246 45.8313 60.4101 45.676 60.9202 45.3716L69.9215 39.9976C70.8684 39.4322 70.8518 38.5659 69.8846 38.0637L67.973 37.0703L61.5777 40.8887C60.8856 41.3016 59.9877 41.5293 59.0491 41.5293Z" fill="url(#paint0_linear_279_3010)"/>
</g>
<path fill-rule="evenodd" clip-rule="evenodd" d="M69.9438 32.3453L68.3477 31.5039L64.6308 33.7554L63.9927 34.1419L63.3549 34.5283L61.6149 35.5824C60.921 36.0031 60.0204 36.2344 59.0796 36.2344C58.2636 36.2344 57.5052 36.0619 56.8862 35.7359L54.8927 34.6851L54.2329 34.3376L53.5731 33.9899L49.8999 32.0535L48.2235 33.0692C47.2741 33.6444 47.2903 34.5254 48.2601 35.0366L50.1771 36.0469L50.8369 36.3946L51.4964 36.7424L57.4794 39.8957C57.9268 40.1315 58.4995 40.2473 59.0796 40.2473C59.7567 40.2473 60.4442 40.0896 60.9554 39.7799L66.7075 36.2955L67.3457 35.909L67.9835 35.5226L69.9808 34.3127C70.9301 33.7378 70.9136 32.8565 69.9438 32.3453Z" fill="url(#paint1_linear_279_3010)"/>
<path fill-rule="evenodd" clip-rule="evenodd" d="M69.9438 27.1903L60.7245 22.4161C60.2771 22.1841 59.7047 22.0703 59.1243 22.0703C58.4472 22.0703 57.7597 22.2256 57.2485 22.5299L48.2235 27.902C47.2741 28.4669 47.2903 29.3326 48.2601 29.8349L49.8563 30.6616L50.5161 31.0033L51.1759 31.345L54.849 33.2474L55.5088 33.5888L56.1687 33.9308L57.4794 34.6098C57.9268 34.8415 58.4995 34.9553 59.0796 34.9553C59.7567 34.9553 60.4442 34.8 60.9554 34.4957L62.0352 33.8529L62.6734 33.4731L63.3112 33.0934L67.028 30.8811L67.6662 30.5013L68.304 30.1216L69.9808 29.1236C70.9301 28.5587 70.9136 27.6927 69.9438 27.1903Z" fill="url(#paint2_linear_279_3010)"/>
<mask id="mask1_279_3010" style="mask-type:alpha" maskUnits="userSpaceOnUse" x="77" y="20" width="14" height="26">
<path d="M77.3276 20.1787H90.5134V45.0085H77.3276V20.1787Z" fill="white"/>
</mask>
<g mask="url(#mask1_279_3010)">
<path fill-rule="evenodd" clip-rule="evenodd" d="M86.9326 24.0249C85.7221 23.9775 84.702 24.9041 84.6537 26.0953C84.6537 26.0994 84.6534 26.1029 84.6534 26.107V28.1893H89.5369V31.7137H84.6534V45.0086H80.2576V31.7137H77.3276V28.1893H80.2576V25.784C80.2576 22.4203 83.1879 20.1801 86.4436 20.1801C87.9348 20.1487 89.3849 20.6625 90.5134 21.6218L88.8855 24.6649C88.2997 24.2926 87.6278 24.0718 86.932 24.024" fill="#1E1E1E"/>
</g>
<path fill-rule="evenodd" clip-rule="evenodd" d="M107.738 28.0527V44.9181H104.368L103.725 42.9912H103.245C102.603 43.7941 101.159 45.0793 98.269 45.0793C93.7741 45.0793 91.5264 41.8666 91.5264 37.2083V28.0527H96.1836V36.0836C96.1836 38.1717 96.3437 41.063 99.2342 41.063C100.679 41.063 103.087 40.2598 103.087 35.9238V28.0527H107.738Z" fill="#1E1E1E"/>
<path fill-rule="evenodd" clip-rule="evenodd" d="M117.281 31.4395C115.817 31.4395 115.167 32.0845 115.167 32.8914C115.167 34.0206 116.631 34.343 117.769 34.665C120.86 35.3104 123.951 36.2778 123.951 39.8254C123.951 43.3733 121.023 45.3094 117.444 45.3094C113.539 45.3094 110.449 42.8901 110.286 39.3418H114.515C114.675 40.7982 115.97 41.8672 117.443 41.7608C119.232 41.7608 119.558 40.7934 119.558 40.1484C119.558 38.858 118.419 38.5353 117.118 38.2129C115.165 37.731 110.773 36.9225 110.773 33.0519C110.773 29.6655 114.028 28.0527 117.281 28.0527C121.186 28.0527 123.626 30.3109 123.788 33.2131H119.559C119.559 32.4069 119.073 31.4395 117.281 31.4395Z" fill="#1E1E1E"/>
<path fill-rule="evenodd" clip-rule="evenodd" d="M142.417 37.7287H130C130.482 40.2851 132.58 41.2441 134.515 41.2441C135.761 41.3037 136.96 40.7692 137.74 39.8058H142.094C140.902 43.01 137.801 45.1227 134.354 45.0782C129.619 45.065 125.79 41.2504 125.803 36.558C125.804 36.469 125.805 36.3803 125.808 36.291C125.651 31.7728 129.22 27.9832 133.78 27.827C133.918 27.8223 134.056 27.8213 134.193 27.8232C138.547 27.8232 143.062 30.8592 142.417 37.7294V37.7287ZM130.323 34.3736H137.902C137.564 32.7214 136.054 31.5648 134.354 31.6576C132.541 31.5399 130.879 32.6595 130.323 34.3736Z" fill="#1E1E1E"/>
</g>
<defs>
<linearGradient id="paint0_linear_279_3010" x1="59.0715" y1="22.8346" x2="59.0715" y2="45.8313" gradientUnits="userSpaceOnUse">
<stop stop-color="#B3F9BA"/>
<stop offset="1" stop-color="#F6FB8C"/>
</linearGradient>
<linearGradient id="paint1_linear_279_3010" x1="59.102" y1="22.8522" x2="59.102" y2="45.302" gradientUnits="userSpaceOnUse">
<stop stop-color="#B1FFBF"/>
<stop offset="1" stop-color="#FFF16D"/>
</linearGradient>
<linearGradient id="paint2_linear_279_3010" x1="59.102" y1="22.0703" x2="59.102" y2="45.3668" gradientUnits="userSpaceOnUse">
<stop stop-color="#B3F9BA"/>
<stop offset="1" stop-color="#F6FB8C"/>
</linearGradient>
<clipPath id="clip0_279_3010">
<rect width="94.9565" height="26" fill="white" transform="translate(47.522 20)"/>
</clipPath>
</defs>
</svg>
