<svg width="190" height="66" viewBox="0 0 190 66" fill="none" xmlns="http://www.w3.org/2000/svg">
<path d="M0 10C0 4.47715 4.47715 0 10 0H180C185.523 0 190 4.47715 190 10V56C190 61.5228 185.523 66 180 66H10C4.47715 66 0 61.5228 0 56V10Z" fill="white"/>
<path d="M67.8464 38.6603C69.7118 38.6603 71.5432 38.0329 72.6454 37.185V31.7756H67.5921V34.1157H69.9322V35.5401C69.237 35.9132 68.5926 36.0658 67.8464 36.0658C65.7946 36.0658 64.5906 34.4718 64.5906 32.5217C64.5906 30.2833 66.0151 28.9776 67.7277 28.9776C69.0165 28.9776 69.9661 29.5372 70.6105 30.1646L72.6115 28.4689C71.3736 27.0445 69.4744 26.3153 67.7277 26.3153C63.8784 26.3153 61.623 29.0285 61.623 32.5217C61.623 36.4389 64.3701 38.6603 67.8464 38.6603V38.6603ZM74.3972 38.5246H77.0426V34.3531C77.0426 33.0643 77.653 32.4369 78.5688 32.4369C79.4336 32.4369 79.8914 32.8269 79.8914 34.2005V38.5246H82.5366V33.5561C82.5366 30.9277 81.2817 30.0799 79.5692 30.0799C78.6026 30.0799 77.7209 30.4529 77.0765 31.199H77.0426V30.2324H74.3972V38.5246ZM88.3537 38.6773C90.965 38.6773 92.8307 36.9307 92.8307 34.387C92.8307 31.8265 90.965 30.0799 88.3537 30.0799C85.6743 30.0799 83.8602 31.8604 83.8602 34.387C83.8602 36.8967 85.6743 38.6773 88.3537 38.6773ZM88.3537 36.3371C87.3021 36.3371 86.5395 35.4892 86.5395 34.387C86.5395 33.2509 87.2857 32.4369 88.3537 32.4369C89.3882 32.4369 90.1514 33.2339 90.1514 34.387C90.1514 35.5232 89.3542 36.3371 88.3537 36.3371ZM96.983 38.6773C99.2549 38.6773 100.357 37.5581 100.357 36.015C100.357 34.387 99.3569 33.9122 97.5258 33.2848C96.6946 32.9965 96.3892 32.81 96.3892 32.5556C96.3892 32.2334 96.7456 32.0978 97.051 32.0978C97.6102 32.0978 98.3223 32.386 98.8991 32.9626L100.154 31.1142C99.1875 30.402 98.2713 30.0799 97.017 30.0799C95.2872 30.0799 93.9133 31.0464 93.9133 32.7252C93.9133 34.3192 95.1342 34.9975 96.5252 35.4214C97.5592 35.7436 97.8136 35.9132 97.8136 36.1845C97.8136 36.4898 97.5422 36.6763 97.017 36.6763C96.2538 36.6763 95.5416 36.3711 94.8465 35.7436L93.6085 37.4563C94.5241 38.2703 95.677 38.6773 96.983 38.6773ZM103.128 29.198C104.045 29.198 104.723 28.5367 104.723 27.6719C104.723 26.8409 104.045 26.1796 103.128 26.1796C102.213 26.1796 101.552 26.8579 101.552 27.6719C101.552 28.5367 102.213 29.198 103.128 29.198ZM101.806 38.5246H104.451V30.2324H101.806V38.5246ZM109.105 38.6773C111.377 38.6773 112.479 37.5581 112.479 36.015C112.479 34.387 111.479 33.9122 109.647 33.2848C108.817 32.9965 108.511 32.81 108.511 32.5556C108.511 32.2334 108.867 32.0978 109.173 32.0978C109.732 32.0978 110.445 32.386 111.021 32.9626L112.276 31.1142C111.309 30.402 110.394 30.0799 109.139 30.0799C107.409 30.0799 106.035 31.0464 106.035 32.7252C106.035 34.3192 107.256 34.9975 108.647 35.4214C109.681 35.7436 109.936 35.9132 109.936 36.1845C109.936 36.4898 109.664 36.6763 109.139 36.6763C108.375 36.6763 107.663 36.3711 106.968 35.7436L105.73 37.4563C106.646 38.2703 107.799 38.6773 109.105 38.6773V38.6773ZM123.902 38.6773C126.039 38.6773 127.718 37.6598 128.752 36.388L126.683 34.6075C125.988 35.4384 125.021 35.9641 123.902 35.9641C121.935 35.9641 120.663 34.4549 120.663 32.5217C120.663 30.3172 122.139 29.0285 123.885 29.0285C125.055 29.0285 126.022 29.6559 126.666 30.419L128.735 28.6384C127.412 27.0275 125.581 26.3153 123.885 26.3153C119.917 26.3153 117.679 29.0793 117.679 32.5217C117.679 36.5237 120.443 38.6773 123.902 38.6773V38.6773ZM130.055 38.5246H132.701V34.3362C132.701 33.0474 133.311 32.4369 134.244 32.4369C135.177 32.4369 135.634 32.8439 135.634 34.1835V38.5246H138.28V33.5222C138.28 30.9107 137.008 30.0799 135.296 30.0799C134.278 30.0799 133.379 30.4529 132.735 31.1821L132.701 31.1651V26.0439H130.055V38.5246ZM143.485 38.6773C144.485 38.6773 145.231 38.3381 145.774 37.6428L145.808 37.6598V38.5246H148.335V30.2324H145.672V31.0973L145.638 31.1142C145.061 30.4359 144.231 30.0799 143.349 30.0799C141.212 30.0799 139.567 31.8434 139.567 34.387C139.567 36.9476 141.212 38.6773 143.485 38.6773ZM144.044 36.3371C142.993 36.3371 142.264 35.5571 142.264 34.387C142.264 33.2 143.027 32.42 144.044 32.42C145.027 32.42 145.791 33.2509 145.791 34.387C145.791 35.5741 144.993 36.3371 144.044 36.3371ZM151.517 29.198C152.433 29.198 153.112 28.5367 153.112 27.6719C153.112 26.8409 152.433 26.1796 151.517 26.1796C150.602 26.1796 149.94 26.8579 149.94 27.6719C149.94 28.5367 150.602 29.198 151.517 29.198ZM150.195 38.5246H152.84V30.2324H150.195V38.5246ZM154.763 38.5246H157.408V34.3531C157.408 33.0643 158.019 32.4369 158.935 32.4369C159.8 32.4369 160.258 32.8269 160.258 34.2005V38.5246H162.903V33.5561C162.903 30.9277 161.648 30.0799 159.935 30.0799C158.969 30.0799 158.087 30.4529 157.442 31.199H157.408V30.2324H154.763V38.5246Z" fill="#04795B"/>
<path d="M35.7595 34.9853C36.6219 34.9853 37.418 34.6979 38.0593 34.2006L32.7963 28.9395C32.2988 29.5695 32.0113 30.3653 32.0113 31.2385C32.0002 33.3053 33.6809 34.9853 35.7595 34.9853Z" fill="#04795B"/>
<path d="M51.4157 31.2277C51.4157 30.3656 51.1282 29.5698 50.6307 28.9287L45.3677 34.1898C45.998 34.6872 46.794 34.9745 47.6675 34.9745C49.7351 34.9856 51.4157 33.3056 51.4157 31.2277V31.2277Z" fill="#04795B"/>
<path d="M54.0695 25.5127L51.7365 27.8449C52.5105 28.7732 52.9749 29.9448 52.9749 31.2491C52.9749 34.178 50.5977 36.5544 47.6676 36.5544C46.374 36.5544 45.1909 36.0902 44.2622 35.3165L41.7081 37.8696L39.1539 35.3165C38.2252 36.0902 37.0531 36.5544 35.7485 36.5544C32.8184 36.5544 30.4412 34.178 30.4412 31.2491C30.4412 29.9559 30.9056 28.7732 31.6796 27.8449L30.4854 26.6511L29.3466 25.5127C28.0198 27.7011 27.2568 30.2544 27.2568 32.9954C27.2568 40.9755 33.725 47.4303 41.697 47.4303C49.6689 47.4303 56.1371 40.9644 56.1371 32.9954C56.1593 30.2433 55.3963 27.6901 54.0695 25.5127V25.5127Z" fill="#04795B"/>
<path d="M52.1567 23.0261C49.5363 20.274 45.8212 18.5498 41.7081 18.5498C37.5949 18.5498 33.8909 20.274 31.2594 23.0261C30.9056 23.402 30.5629 23.7999 30.2422 24.2088L41.697 35.6594L53.1518 24.1977C52.8643 23.7998 52.5216 23.3909 52.1567 23.0261V23.0261ZM41.7081 20.4288C45.0914 20.4288 48.2316 21.733 50.5866 24.1093L41.7081 32.9847L32.8295 24.1093C35.1956 21.733 38.3247 20.4288 41.7081 20.4288Z" fill="#04795B"/>
</svg>
