<svg width="190" height="66" viewBox="0 0 190 66" fill="none" xmlns="http://www.w3.org/2000/svg">
<path d="M0 10C0 4.47715 4.47715 0 10 0H180C185.523 0 190 4.47715 190 10V56C190 61.5228 185.523 66 180 66H10C4.47715 66 0 61.5228 0 56V10Z" fill="white"/>
<path d="M52.741 21C49.9449 21 47.6148 23.3301 47.4983 26.1262V31.835C47.0322 31.835 46.4497 31.9515 45.8672 31.9515C45.2847 31.9515 44.7021 31.9515 44.2361 32.068V26.1262C44.2361 23.3301 41.906 21 38.9934 21C36.1973 21 33.9837 23.3301 33.8672 26.1262V39.8738C33.9837 42.6699 36.1973 45 39.1099 45C41.906 44.8835 44.2361 42.6699 44.2361 39.8738V34.165C44.7021 34.165 45.2847 34.0485 45.8672 34.0485C46.4497 34.0485 47.0322 34.0485 47.4983 33.932V39.7573C47.6148 42.5534 49.8284 44.8835 52.741 44.8835C55.5371 44.767 57.8672 42.5534 57.8672 39.7573V26.1262C57.8672 23.3301 55.5371 21 52.741 21ZM39.1099 23.0971C40.8575 23.0971 42.139 24.4951 42.139 26.1262V32.1845C40.6245 32.4175 39.1099 32.8835 37.7118 33.466C37.1293 33.8155 36.5468 34.0485 35.9643 34.5146V26.1262C36.0808 24.4951 37.3623 23.0971 39.1099 23.0971ZM42.139 39.8738C42.139 41.6214 40.741 42.9029 39.1099 42.9029C37.4788 42.9029 36.0808 41.5049 36.0808 39.8738V38.4757C36.0808 37.3107 37.0128 36.1456 38.6439 35.4466C39.8089 34.9806 40.974 34.6311 42.2555 34.3981L42.139 39.8738ZM52.741 42.9029C50.9934 42.9029 49.7118 41.5049 49.7118 39.8738V33.8155C51.2264 33.5825 52.741 33.1165 54.139 32.534C54.7216 32.1845 55.3041 31.9515 55.8866 31.4854V39.8738C55.7701 41.6214 54.372 42.9029 52.741 42.9029ZM53.207 30.5534C52.0419 31.0194 50.8769 31.3689 49.5953 31.6019V26.1262C49.5953 24.3786 50.9934 23.0971 52.6245 23.0971C54.2555 23.0971 55.6536 24.4951 55.6536 26.1262V27.5243C55.7701 28.6893 54.8381 29.8544 53.207 30.5534Z" fill="url(#paint0_linear_279_2794)"/>
<path d="M127.304 29.2715C124.042 29.2715 121.362 31.8346 121.479 35.2132C121.479 38.4754 124.042 41.155 127.421 41.0385C130.683 41.0385 133.246 38.4754 133.246 35.0967C133.129 31.9511 130.566 29.2715 127.304 29.2715ZM131.265 35.2132C131.265 37.4268 129.518 39.1744 127.304 39.1744C125.09 39.1744 123.343 37.4268 123.343 35.2132C123.343 32.9996 125.09 31.2521 127.304 31.2521C129.518 31.2521 131.265 32.9996 131.265 35.2132Z" fill="#293258"/>
<path d="M92.1194 29.3881C91.6534 29.3881 91.1874 29.8541 91.1874 30.3201V30.7861C88.8573 28.5725 85.0126 28.8055 82.9155 31.1356C80.7019 33.4657 80.9349 37.3104 83.265 39.4075C85.4786 41.5046 88.9738 41.5046 91.1874 39.4075V39.8735C91.1874 40.3395 91.5369 40.8055 92.1194 40.8055C92.5854 40.8055 93.0514 40.456 93.0514 39.8735V39.757V30.0871C93.0514 29.7376 92.5854 29.3881 92.1194 29.3881ZM91.0708 35.2133C91.0708 37.4269 89.3233 39.1745 87.1097 39.1745C84.8961 39.1745 83.1485 37.4269 83.1485 35.2133C83.1485 32.9997 84.8961 31.2521 87.1097 31.2521C89.3233 31.2521 91.0708 32.9997 91.0708 35.2133Z" fill="#293258"/>
<path d="M102.256 30.2035C102.256 30.6695 101.79 31.1356 101.324 31.1356H101.207C98.9935 31.1356 97.2459 32.8831 97.2459 35.0967C97.1294 35.3297 97.2459 38.3589 97.2459 40.1064C97.1294 40.5725 96.7799 41.0385 96.1974 40.922C95.7313 40.8055 95.3818 40.456 95.3818 39.9899V30.32C95.3818 29.854 95.8479 29.388 96.3139 29.388H96.4304C96.8964 29.5045 97.3624 29.854 97.3624 30.32V30.786C98.411 29.854 99.809 29.2715 101.324 29.2715H101.44C101.79 29.2715 102.256 29.7375 102.256 30.2035Z" fill="#293258"/>
<path d="M144.43 34.1654V39.9907C144.43 40.4567 143.964 40.9227 143.498 40.9227C143.032 40.9227 142.566 40.4567 142.566 39.9907V39.0586V34.1654C142.566 32.5343 141.168 31.1363 139.537 31.1363C139.421 31.1363 139.421 31.1363 139.304 31.1363C137.79 31.2528 136.508 32.6508 136.508 34.1654V35.3305V38.9421V39.8741C136.508 40.3402 136.042 40.8062 135.576 40.8062C135.11 40.8062 134.644 40.3402 134.644 39.8741V30.2042C134.644 29.7382 135.11 29.2722 135.576 29.2722C136.042 29.2722 136.508 29.7382 136.508 30.2042V30.3208C137.207 29.7382 138.256 29.3887 139.304 29.2722C141.984 29.1557 144.314 31.2528 144.43 33.9324C144.43 34.0489 144.43 34.1654 144.43 34.1654Z" fill="#293258"/>
<path d="M79.4205 25.893V40.1066C79.4205 40.5726 78.9545 41.0386 78.4885 41.0386C78.0225 41.0386 77.5564 40.5726 77.5564 40.1066V33.6988H67.8865V40.1066C67.8865 40.5726 67.4205 41.0386 66.9545 41.0386C66.4885 41.0386 66.0225 40.5726 66.0225 40.1066V25.893C66.0225 25.427 66.4885 24.9609 66.9545 24.9609C67.4205 24.9609 67.8865 25.427 67.8865 25.893V32.0677H77.6729V25.893C77.6729 25.427 78.139 24.9609 78.605 24.9609C78.9545 24.9609 79.4205 25.427 79.4205 25.893Z" fill="#293258"/>
<path d="M120.081 34.631V39.9902C120.081 40.4562 119.615 40.9222 119.149 40.9222C118.683 40.9222 118.217 40.4562 118.217 39.9902V35.097V33.8154C118.217 32.3009 117.051 31.1358 115.653 31.1358C114.255 31.1358 112.974 32.3009 112.974 33.6989C112.974 33.8154 112.974 33.8154 112.974 33.8154V39.9902C112.974 40.4562 112.624 40.9222 112.042 40.9222C111.576 40.9222 111.11 40.5727 111.11 39.9902V39.8737V34.864V33.5824C111.11 32.0679 109.945 30.9028 108.547 30.9028C107.149 30.9028 105.867 32.0678 105.867 33.4659C105.867 33.5824 105.867 33.5824 105.867 33.5824V39.7572C105.867 40.2232 105.517 40.6892 104.935 40.6892C104.469 40.6892 104.003 40.3397 104.003 39.7572V39.6407V29.9708C104.003 29.5047 104.469 29.0387 104.935 29.0387C105.401 29.0387 105.867 29.3882 105.867 29.8543C107.848 28.4562 110.644 28.8057 112.158 30.7863C113.673 28.8057 116.585 28.4562 118.45 29.9708C119.615 30.9028 120.197 32.1844 120.197 33.5824L120.081 34.631Z" fill="#293258"/>
<path d="M156.081 30.6699L149.673 44.5339C149.324 45 148.741 45.1165 148.275 44.8835C147.926 44.6504 147.693 44.1844 147.809 43.7184L149.557 39.9902L145.246 30.6699C144.896 30.2038 145.129 29.6213 145.595 29.2718C146.061 28.9223 146.644 29.1553 146.993 29.6213C146.993 29.7378 147.11 29.7378 147.11 29.7378L150.722 37.5436L154.333 29.7378C154.45 29.2718 155.032 29.0388 155.498 29.1553C155.964 29.2718 156.197 29.8543 156.081 30.3203C156.197 30.5534 156.081 30.6699 156.081 30.6699Z" fill="#293258"/>
<defs>
<linearGradient id="paint0_linear_279_2794" x1="51.8737" y1="26.9761" x2="35.3101" y2="43.5398" gradientUnits="userSpaceOnUse">
<stop stop-color="#00E8A2"/>
<stop offset="1" stop-color="#00ADE8"/>
</linearGradient>
</defs>
</svg>
