<svg width="190" height="66" viewBox="0 0 190 66" fill="none" xmlns="http://www.w3.org/2000/svg">
<path d="M0 10C0 4.47715 4.47715 0 10 0H180C185.523 0 190 4.47715 190 10V56C190 61.5228 185.523 66 180 66H10C4.47715 66 0 61.5228 0 56V10Z" fill="white"/>
<path d="M95.0594 25.4313V40.598C95.0594 40.7135 94.9727 40.8291 94.8283 40.8291H93.2394C92.5172 40.8291 91.8238 40.4535 91.4194 39.8469L84.255 28.7824L84.4861 34.3002V40.6269C84.4861 40.7424 84.3994 40.858 84.255 40.858H82.175C82.0594 40.858 81.9438 40.7713 81.9438 40.6269V25.4313C81.9438 25.3158 82.0305 25.2002 82.175 25.2002H83.735C84.4572 25.2002 85.1505 25.5758 85.555 26.1824L92.7194 37.218L92.4883 31.7002V25.4313C92.4883 25.3158 92.575 25.2002 92.7194 25.2002H94.7994C94.9727 25.2002 95.0594 25.2869 95.0594 25.4313Z" fill="black"/>
<path d="M116.379 40.8002H114.184C114.039 40.8002 113.924 40.6558 113.982 40.5113L119.817 25.4024C119.875 25.2869 119.99 25.2002 120.106 25.2002H122.879C123.024 25.2002 123.139 25.2869 123.168 25.4024L129.033 40.5113C129.09 40.6558 128.975 40.8002 128.83 40.8002H126.635C126.548 40.8002 126.461 40.7424 126.433 40.6558L121.724 28.2335C121.666 28.0602 121.377 28.0602 121.319 28.2335L116.61 40.6558C116.553 40.7424 116.466 40.8002 116.379 40.8002Z" fill="black"/>
<path d="M144.344 40.4535L139.952 34.8491C142.437 34.3869 143.881 32.7113 143.881 30.1402C143.881 27.1935 141.975 25.2002 138.566 25.2002H132.441C132.268 25.2002 132.124 25.3446 132.124 25.518C132.124 26.6735 133.048 27.598 134.204 27.598H138.335C140.386 27.598 141.368 28.638 141.368 30.1691C141.368 31.7002 140.415 32.7402 138.335 32.7402H132.499C132.326 32.7402 132.181 32.8846 132.181 33.058V40.5691C132.181 40.6846 132.268 40.8002 132.412 40.8002H134.492C134.608 40.8002 134.724 40.7135 134.724 40.5691V34.9935H137.121L140.935 39.9624C141.339 40.5113 141.975 40.8002 142.668 40.8002H144.257C144.372 40.8002 144.459 40.598 144.344 40.4535Z" fill="black"/>
<path d="M109.793 25.2002H100.115C99.9417 25.2002 99.8262 25.3158 99.8262 25.4891C99.8262 26.6446 100.78 27.598 101.935 27.598H109.793C109.908 27.598 110.024 27.5113 110.024 27.3669V25.4024C109.995 25.2869 109.908 25.2002 109.793 25.2002ZM109.793 38.4024H102.571C102.455 38.4024 102.34 38.3157 102.34 38.1713V34.2713C102.34 34.1557 102.426 34.0402 102.571 34.0402H109.244C109.36 34.0402 109.475 33.9535 109.475 33.8091V31.8446C109.475 31.7291 109.388 31.6135 109.244 31.6135H100.144C99.9706 31.6135 99.8262 31.758 99.8262 31.9313V40.4535C99.8262 40.6269 99.9706 40.7713 100.144 40.7713H109.793C109.908 40.7713 110.024 40.6846 110.024 40.5402V38.5758C109.995 38.4891 109.908 38.4024 109.793 38.4024Z" fill="black"/>
<path d="M66.4593 21.3289L61.0282 29.3889C60.6527 29.9378 61.3749 30.6022 61.8949 30.14L67.2393 25.4889C67.3838 25.3733 67.586 25.46 67.586 25.6622V40.1933C67.586 40.3956 67.326 40.4822 67.2105 40.3378L51.0327 20.9822C50.5127 20.3467 49.7616 20 48.9238 20H48.346C46.8438 20 45.6016 21.2422 45.6016 22.7733V43.2267C45.6016 44.7578 46.8438 46 48.3749 46C49.3282 46 50.2238 45.5089 50.7438 44.6711L56.1749 36.6111C56.5505 36.0622 55.8282 35.3978 55.3082 35.86L49.9638 40.4822C49.8193 40.5978 49.6171 40.5111 49.6171 40.3089V25.8067C49.6171 25.6044 49.8771 25.5178 49.9927 25.6622L66.1705 45.0178C66.6905 45.6533 67.4705 46 68.2793 46H68.8571C70.3882 46 71.6305 44.7578 71.6305 43.2267V22.7733C71.6016 21.2422 70.3593 20 68.8282 20C67.8749 20 66.9793 20.4911 66.4593 21.3289Z" fill="black"/>
</svg>
