<svg width="190" height="66" viewBox="0 0 190 66" fill="none" xmlns="http://www.w3.org/2000/svg">
<path d="M0 10C0 4.47715 4.47715 0 10 0H180C185.523 0 190 4.47715 190 10V56C190 61.5228 185.523 66 180 66H10C4.47715 66 0 61.5228 0 56V10Z" fill="white"/>
<path d="M60.0872 26.267C60.0872 25.8489 60.2532 25.4479 60.5485 25.1522C60.8442 24.8565 61.245 24.6904 61.663 24.6904H65.4753C65.6826 24.6895 65.8879 24.7296 66.0794 24.8085C66.2713 24.8874 66.4453 25.0035 66.5918 25.1501C66.7383 25.2967 66.8542 25.4709 66.9332 25.6626C67.0121 25.8543 67.0521 26.0597 67.0515 26.267V34.569C67.0296 34.9321 67.1294 35.292 67.3354 35.5917C67.416 35.7045 67.5225 35.7963 67.6462 35.8594C67.7695 35.9224 67.9066 35.9548 68.0453 35.9539C68.3686 35.9377 68.6737 35.7979 68.8971 35.5633C69.0379 35.4392 69.1501 35.2861 69.226 35.1144C69.302 34.9428 69.3399 34.7567 69.3373 34.569V26.267C69.3362 26.0603 69.3762 25.8555 69.4545 25.6642C69.5331 25.473 69.6484 25.2991 69.7942 25.1526C69.94 25.0062 70.1134 24.8899 70.3043 24.8106C70.4948 24.7313 70.6994 24.6904 70.906 24.6904H74.8178C75.2357 24.6904 75.6366 24.8565 75.9323 25.1522C76.2276 25.4479 76.3939 25.8489 76.3939 26.267V34.846C76.4289 36.2946 76.0092 37.7177 75.1941 38.9154C74.4186 40.0525 73.3454 40.9542 72.0918 41.5217C70.8247 42.1038 69.4465 42.4043 68.0524 42.4024C67.0511 42.4004 66.0569 42.2398 65.106 41.9265C64.1702 41.6135 63.2993 41.1322 62.5363 40.5062C61.7752 39.8487 61.1651 39.0348 60.7471 38.12C60.2925 37.0995 60.067 35.9916 60.0872 34.8744V26.267Z" fill="#262C3E"/>
<path d="M86.4176 35.6842C87.2909 35.6842 88.2421 36.2027 88.2421 37.1046V40.5419C88.2468 40.9315 88.1023 41.3081 87.8382 41.5946C87.5745 41.8811 87.2109 42.0558 86.8222 42.083C86.4959 42.083 86.2046 42.083 85.9563 42.083C84.3778 42.106 82.8191 41.7272 81.427 40.9822C80.1005 40.2569 79.0112 39.1646 78.2891 37.8361C77.5146 36.3872 77.1259 34.7632 77.1605 33.1205C77.1114 31.3956 77.5442 29.6914 78.4097 28.1989C79.2249 26.8616 80.418 25.7963 81.8386 25.138C83.3563 24.4403 85.0105 24.0909 86.6804 24.1154C88.4652 24.0565 90.2289 24.517 91.7573 25.441C93.2861 26.365 94.5135 27.7128 95.2917 29.321C96.0269 30.7842 96.4109 32.3989 96.4133 34.0366V40.3572C96.4143 40.5639 96.3743 40.7688 96.296 40.96C96.2174 41.1513 96.1021 41.3251 95.9563 41.4716C95.8105 41.6181 95.6371 41.7344 95.4463 41.8137C95.2558 41.893 95.0511 41.9338 94.8445 41.9338H90.9187C90.7114 41.9348 90.5061 41.8946 90.3142 41.8157C90.1227 41.7368 89.9486 41.6207 89.8022 41.4741C89.6557 41.3275 89.5394 41.1534 89.4604 40.9617C89.3818 40.7699 89.3415 40.5645 89.3425 40.3572V33.1205C89.3664 32.7702 89.3076 32.4193 89.1705 32.096C89.0337 31.7728 88.8227 31.4863 88.5546 31.2598C88.0334 30.8545 87.3947 30.6304 86.7348 30.6214C86.0749 30.6124 85.4301 30.8191 84.8986 31.2101C84.6516 31.404 84.4547 31.654 84.3237 31.9393C84.193 32.2246 84.1318 32.537 84.1459 32.8506C84.1174 33.5823 84.3405 34.3016 84.7776 34.8888C84.9678 35.1426 85.2161 35.3472 85.5014 35.4856C85.7866 35.624 86.1008 35.6921 86.4176 35.6842Z" fill="#262C3E"/>
<path d="M98.7417 41.9337C98.535 41.9337 98.3304 41.8929 98.1395 41.8136C97.949 41.7342 97.7757 41.618 97.6298 41.4715C97.484 41.325 97.3688 41.1511 97.2901 40.9599C97.2118 40.7687 97.1719 40.5638 97.1729 40.3571V26.2671C97.1719 26.0604 97.2118 25.8555 97.2901 25.6643C97.3688 25.473 97.484 25.2992 97.6298 25.1527C97.7757 25.0062 97.949 24.8899 98.1395 24.8106C98.3304 24.7313 98.535 24.6905 98.7417 24.6905H102.007C102.214 24.6905 102.419 24.7313 102.609 24.8106C102.8 24.8899 102.974 25.0062 103.119 25.1527C103.265 25.2992 103.38 25.473 103.459 25.6643C103.537 25.8555 103.577 26.0604 103.576 26.2671V26.8707C104.351 25.8184 105.421 25.02 106.65 24.5769C107.362 24.3729 108.092 24.2397 108.83 24.1792C109.034 24.1653 109.239 24.1942 109.432 24.264C109.625 24.3338 109.801 24.443 109.949 24.5846C110.097 24.7263 110.215 24.8972 110.293 25.0866C110.372 25.276 110.41 25.4797 110.406 25.6847V28.5894C110.396 29.0098 110.228 29.4111 109.936 29.7137C109.644 30.0163 109.249 30.198 108.83 30.2228C108.303 30.2658 107.779 30.3394 107.261 30.4429C106.402 30.6164 105.621 31.0593 105.032 31.7071C104.394 32.5109 104.077 33.5235 104.144 34.5478V40.3358C104.145 40.5431 104.105 40.7485 104.026 40.9403C103.947 41.1319 103.831 41.3061 103.685 41.4527C103.538 41.5993 103.364 41.7154 103.172 41.7943C102.981 41.8732 102.775 41.9133 102.568 41.9124L98.7417 41.9337Z" fill="#262C3E"/>
<path d="M111.137 20.7495C111.136 20.5428 111.176 20.3379 111.254 20.1467C111.333 19.9554 111.448 19.7816 111.594 19.6351C111.74 19.4886 111.913 19.3723 112.104 19.293C112.295 19.2137 112.499 19.1729 112.706 19.1729H116.802C117.009 19.1719 117.215 19.212 117.406 19.291C117.598 19.3699 117.772 19.486 117.919 19.6325C118.065 19.7791 118.181 19.9533 118.26 20.145C118.339 20.3367 118.379 20.5422 118.378 20.7495V24.691H120.366C120.573 24.69 120.778 24.7302 120.97 24.8091C121.162 24.888 121.336 25.0041 121.482 25.1506C121.629 25.2972 121.745 25.4714 121.824 25.6631C121.903 25.8548 121.943 26.0603 121.942 26.2676V29.1722C121.942 29.5904 121.776 29.9914 121.48 30.287C121.185 30.5827 120.784 30.7488 120.366 30.7488H118.378V34.2997C118.335 34.7561 118.464 35.2123 118.74 35.5781C119.137 35.8735 119.633 36.0057 120.125 35.9474H120.366C120.784 35.9474 121.185 36.1134 121.48 36.4091C121.776 36.7048 121.942 37.1058 121.942 37.5239V40.3647C121.943 40.572 121.903 40.7774 121.824 40.9692C121.745 41.1608 121.629 41.335 121.482 41.4816C121.336 41.6282 121.162 41.7443 120.97 41.8232C120.778 41.9021 120.573 41.9422 120.366 41.9413H118.115C116.653 42.0147 115.199 41.6751 113.92 40.9612C112.949 40.3831 112.188 39.5097 111.747 38.4685C111.329 37.4159 111.122 36.2915 111.137 35.159V20.7495Z" fill="#262C3E"/>
<path d="M159.646 41.6283C159.375 41.8277 159.046 41.9347 158.709 41.9336H127.239C126.375 41.9584 125.515 41.7986 124.718 41.4649C124.1 41.204 123.568 40.7731 123.185 40.2221C122.855 39.7147 122.68 39.1226 122.681 38.5177C122.695 38.006 122.816 37.503 123.036 37.0405C123.249 36.5361 123.555 36.0761 123.937 35.684L129.326 30.4713H125.506C125.3 30.4713 125.096 30.4307 124.906 30.3518C124.715 30.273 124.542 30.1574 124.397 30.0116C124.251 29.8659 124.136 29.6929 124.057 29.5024C123.978 29.312 123.937 29.1079 123.937 28.9018V26.267C123.936 26.0603 123.976 25.8555 124.055 25.6642C124.133 25.473 124.248 25.2991 124.394 25.1526C124.54 25.0061 124.713 24.8899 124.904 24.8106C125.095 24.7313 125.299 24.6904 125.506 24.6904H133.202C135.147 24.6904 136.567 25.0881 137.461 25.8835C137.878 26.2113 138.216 26.6282 138.451 27.1039C138.686 27.5795 138.811 28.1016 138.817 28.6319C138.849 29.0274 138.79 29.4249 138.645 29.7942C138.5 30.1634 138.272 30.4946 137.979 30.7625L132.371 36.2451H158.709C159.046 36.2441 159.375 36.3511 159.646 36.5505L161.386 37.8288C161.584 37.9754 161.745 38.1664 161.856 38.3866C161.966 38.6068 162.025 38.8499 162.025 39.0965C162.025 39.3431 161.966 39.5862 161.856 39.8063C161.745 40.0265 161.584 40.2176 161.386 40.3642L159.646 41.6283Z" fill="#262C3E"/>
<path fill-rule="evenodd" clip-rule="evenodd" d="M44.8942 43.5788C44.8202 43.498 44.7284 43.4355 44.6262 43.396C44.5239 43.3566 44.4139 43.3414 44.3048 43.3516C44.0278 43.3516 43.7437 43.3871 43.4597 43.3871C41.2586 43.393 39.1122 42.7012 37.3289 41.411C35.5455 40.1207 34.217 38.2985 33.5341 36.206C32.8512 34.1135 32.849 31.8584 33.5279 29.7647C34.2068 27.6708 35.5318 25.8461 37.3127 24.5525C39.0935 23.2588 41.2385 22.5629 43.4396 22.5646C45.6407 22.5663 47.7847 23.2655 49.5635 24.5619C51.3424 25.8583 52.6645 27.6851 53.3402 29.7799C54.0158 31.8748 54.0102 34.1299 53.324 36.2213C53.2606 36.3858 53.2606 36.5681 53.324 36.7327L55.6819 41.8033C55.708 41.8596 55.7485 41.908 55.7992 41.9438C55.8499 41.9795 55.9091 42.0014 55.9709 42.0071C56.0325 42.0129 56.095 42.0024 56.1515 41.9765C56.2079 41.9508 56.2567 41.9106 56.2926 41.8602C58.3886 38.8161 59.3374 35.1276 58.9709 31.4501C58.604 27.7725 56.9458 24.344 54.2901 21.7736C51.6346 19.2032 48.1538 17.6574 44.4663 17.4108C40.7787 17.1642 37.1231 18.2328 34.149 20.4267C31.1749 22.6206 29.0747 25.7978 28.2217 29.3938C27.3687 32.9899 27.818 36.7718 29.4899 40.0678C31.1618 43.3639 33.9479 45.9605 37.3533 47.3966C40.7587 48.8323 44.5629 49.0147 48.09 47.911C48.1465 47.8928 48.1975 47.8609 48.2385 47.8182C48.2794 47.7752 48.309 47.7228 48.3245 47.6657C48.3401 47.6086 48.341 47.5484 48.3274 47.4906C48.3137 47.4332 48.2858 47.3798 48.2462 47.3357L44.8942 43.5788Z" fill="#FF4D6A"/>
<path fill-rule="evenodd" clip-rule="evenodd" d="M49.7661 34.794L47.5716 37.585C47.4882 37.689 47.3738 37.7637 47.2449 37.7981L43.8148 38.6787H43.7651H43.7295C43.7275 38.6645 43.7275 38.6502 43.7295 38.6361C43.7262 38.6221 43.7262 38.6075 43.7295 38.5934L44.8303 34.4176C44.8447 34.3545 44.8716 34.295 44.9094 34.2425C44.9472 34.1901 44.9952 34.1458 45.0505 34.1122C45.1569 34.0411 45.2864 34.0132 45.4127 34.0341L49.7093 34.6591H49.7519C49.7549 34.6707 49.7549 34.6829 49.7519 34.6946C49.7552 34.7086 49.7552 34.7232 49.7519 34.7372C49.7586 34.7448 49.7634 34.754 49.7659 34.7639C49.7683 34.7737 49.7684 34.7841 49.7661 34.794ZM44.0846 39.8079L47.9196 38.7994C48.0495 38.7675 48.1647 38.6924 48.2463 38.5864L50.6893 35.4899H50.7319H50.7745L55.3197 45.2621C55.3697 45.3784 55.3892 45.5054 55.3765 45.6313C55.3613 45.7579 55.3122 45.8782 55.2345 45.9794L54.1266 47.5347C54.0551 47.6227 53.9585 47.6873 53.8496 47.7192L51.9605 48.2235C51.8374 48.2574 51.7073 48.2574 51.5841 48.2235C51.4609 48.1852 51.3504 48.114 51.2645 48.0175L44.0278 39.9428V39.9073C44.0241 39.9008 44.0221 39.8935 44.0221 39.886C44.0221 39.8785 44.0241 39.8712 44.0278 39.8647C44.0247 39.8593 44.023 39.8532 44.023 39.8469C44.023 39.8407 44.0247 39.8346 44.0278 39.8292L44.0846 39.8079Z" fill="#FF4D6A"/>
</svg>
