<svg width="190" height="66" viewBox="0 0 190 66" fill="none" xmlns="http://www.w3.org/2000/svg">
<path d="M0 10C0 4.47715 4.47715 0 10 0H180C185.523 0 190 4.47715 190 10V56C190 61.5228 185.523 66 180 66H10C4.47715 66 0 61.5228 0 56V10Z" fill="white"/>
<path d="M72.7461 18.8525C68.9756 15.0656 63.9592 13 58.615 13C47.5986 13 38.6313 21.9672 38.6313 33C38.6313 44.0328 47.5986 53 58.615 53C63.9592 53 68.9756 50.918 72.7461 47.1311C76.5166 43.3443 78.5986 38.3279 78.5986 32.9836C78.5986 27.6393 76.5166 22.6393 72.7461 18.8525ZM58.615 51.623C48.3527 51.623 40.0084 43.2623 40.0084 33C40.0084 22.7377 48.3527 14.377 58.615 14.377C68.8772 14.377 77.2215 22.7377 77.2215 33C77.2215 43.2623 68.8772 51.623 58.615 51.623Z" fill="#1D1D1B"/>
<path d="M65.1722 33.4756C63.8935 32.3281 62.2213 31.574 60.5984 30.8199H60.582C57.7131 29.5084 55.2377 28.3773 55.4181 25.7051C55.5 24.6887 56.2377 24.0658 56.8443 23.7379C57.5328 23.3609 58.4345 23.1314 59.2705 23.1314C59.3689 23.1314 59.4672 23.1314 59.5656 23.1314C62.0082 23.2953 63.9427 24.3281 65.8279 26.4756L65.9427 26.6068L66.0738 26.492L66.8115 25.8527L66.9427 25.7379L66.8279 25.6068C64.7295 23.1969 62.4509 21.9838 59.664 21.8035C59.5492 21.7871 59.4181 21.7871 59.2705 21.7871C59.1886 21.7871 59.0902 21.7871 58.9918 21.7871H58.8771C57.041 21.7871 55.041 22.3937 53.5164 23.3937C51.6968 24.5904 50.6804 26.2461 50.6476 28.0658C50.582 32.4592 54.1558 33.9347 57.3361 35.2461L57.3689 35.2625C60.1722 36.4265 62.582 37.4265 62.5328 40.0986C62.5164 41.8691 59.9754 42.8363 58.2377 42.8363H58.1722H58.0082C55.4181 42.7543 53.1066 41.6396 51.1394 39.5248L51.0246 39.3937L50.8935 39.5084L50.1722 40.1806L50.041 40.2953L50.1558 40.4265C52.4017 42.8363 55.1558 44.1314 58.1558 44.1642H58.2869C60.2213 44.1642 62.3197 43.6396 63.9099 42.7707C65.8935 41.6888 67.0574 40.0986 67.1722 38.3281C67.3033 36.3937 66.6476 34.7871 65.1722 33.4756ZM55.8935 29.656C57.041 30.6396 58.582 31.3281 60.0738 32.0002L60.1066 32.0166C61.6804 32.7379 63.1886 33.4265 64.2705 34.3937C65.4672 35.4428 65.9754 36.6724 65.8771 38.2461C65.7787 39.8035 64.6148 40.8363 63.5656 41.4756C63.7623 41.0658 63.8771 40.6068 63.8935 40.1314C63.9099 38.5084 63.3033 37.2297 61.9918 36.1806C60.8443 35.2625 59.3361 34.6396 57.8771 34.033C54.8279 32.7871 51.959 31.5904 52.0082 28.0986C52.0246 26.7543 52.8279 25.4756 54.2869 24.5248C54.3361 24.492 54.3853 24.4592 54.4345 24.4265C54.2705 24.8035 54.1722 25.1969 54.1394 25.6068C54.0082 27.2133 54.582 28.5412 55.8935 29.656Z" fill="#1D1D1B"/>
<path d="M91.1229 30.8035C90.4016 30.8035 89.6803 30.6887 88.9754 30.4592C88.2868 30.2297 87.6803 29.8855 87.1885 29.4592L88.0245 28.0658C88.5491 28.4428 89.0737 28.7215 89.5819 28.9183C90.0901 29.0986 90.5819 29.2133 91.0901 29.2133C91.5327 29.2133 91.877 29.1314 92.1393 28.9674C92.4016 28.8035 92.5163 28.574 92.5163 28.2461C92.5163 27.9346 92.3688 27.7051 92.0737 27.574C91.7786 27.4428 91.2868 27.2625 90.6147 27.0658C90.0409 26.9019 89.5655 26.7543 89.1721 26.6232C88.7786 26.4756 88.4508 26.3117 88.2049 26.1314C87.959 25.951 87.7786 25.7379 87.6803 25.5084C87.5655 25.2625 87.5163 24.9838 87.5163 24.656C87.5163 24.2133 87.5983 23.8199 87.7786 23.4592C87.9426 23.115 88.1885 22.8035 88.5 22.5576C88.8114 22.3117 89.1721 22.115 89.5819 21.9838C89.9918 21.8527 90.4508 21.7871 90.9426 21.7871C91.5983 21.7871 92.2049 21.8691 92.7786 22.0658C93.3524 22.2461 93.877 22.5576 94.336 22.9838L93.4016 24.3117C92.959 23.9838 92.5327 23.7379 92.1229 23.5904C91.6967 23.4265 91.2868 23.3609 90.8934 23.3609C90.5163 23.3609 90.2049 23.4428 89.9426 23.5904C89.6803 23.7543 89.5655 24.0002 89.5655 24.3445C89.5655 24.5084 89.5983 24.6232 89.6475 24.7215C89.7131 24.8199 89.8114 24.9019 89.9426 24.9838C90.0737 25.0658 90.2541 25.1314 90.4672 25.1969C90.6803 25.2625 90.959 25.3445 91.2704 25.4101C91.8606 25.574 92.3852 25.7215 92.8114 25.8855C93.2377 26.0494 93.5819 26.2133 93.8606 26.4101C94.1229 26.6068 94.336 26.8363 94.4508 27.0986C94.5819 27.3609 94.6311 27.6724 94.6311 28.033C94.6311 28.8855 94.3032 29.5576 93.6803 30.0494C93.0573 30.574 92.2049 30.8035 91.1229 30.8035Z" fill="#1D1D1B"/>
<path d="M105.369 26.8854H98.4179C98.5327 27.5411 98.8605 28.0493 99.3687 28.4428C99.8933 28.8198 100.533 29.0166 101.287 29.0166C102.27 29.0166 103.057 28.6887 103.68 28.0493L104.795 29.328C104.402 29.8034 103.893 30.1641 103.287 30.41C102.68 30.6559 101.992 30.7706 101.238 30.7706C100.254 30.7706 99.4015 30.5903 98.6638 30.1969C97.9261 29.8034 97.3523 29.2625 96.9425 28.5739C96.5327 27.8854 96.3359 27.0985 96.3359 26.2297C96.3359 25.3608 96.5327 24.5903 96.9261 23.9018C97.3195 23.2133 97.8605 22.6723 98.5654 22.2788C99.254 21.8854 100.057 21.7051 100.91 21.7051C101.779 21.7051 102.549 21.8854 103.221 22.2788C103.893 22.6559 104.418 23.1969 104.811 23.8854C105.188 24.5739 105.385 25.3772 105.385 26.2788C105.402 26.41 105.385 26.6067 105.369 26.8854ZM99.2376 23.9346C98.7786 24.328 98.4999 24.8526 98.4015 25.492H103.418C103.336 24.8526 103.057 24.328 102.598 23.9346C102.139 23.5411 101.582 23.328 100.91 23.328C100.254 23.3444 99.6966 23.5411 99.2376 23.9346Z" fill="#1D1D1B"/>
<path d="M109.631 30.1803C108.91 29.7868 108.336 29.2459 107.926 28.5573C107.516 27.8688 107.303 27.0819 107.303 26.2131C107.303 25.3442 107.516 24.5573 107.926 23.8688C108.336 23.1803 108.91 22.6393 109.631 22.2622C110.352 21.8688 111.188 21.6885 112.107 21.6885C112.975 21.6885 113.746 21.8688 114.402 22.2131C115.057 22.5737 115.566 23.0819 115.893 23.7377L114.303 24.6721C114.041 24.2622 113.729 23.9508 113.352 23.7541C112.975 23.5409 112.549 23.4426 112.09 23.4426C111.32 23.4426 110.68 23.6885 110.172 24.1967C109.664 24.7049 109.402 25.377 109.402 26.2131C109.402 27.0491 109.647 27.7213 110.156 28.2295C110.664 28.7377 111.303 28.9836 112.09 28.9836C112.533 28.9836 112.959 28.8852 113.352 28.6721C113.729 28.459 114.041 28.1639 114.303 27.7541L115.893 28.6885C115.549 29.3606 115.041 29.8688 114.385 30.2295C113.729 30.5901 112.975 30.7704 112.107 30.7704C111.172 30.754 110.369 30.5737 109.631 30.1803Z" fill="#1D1D1B"/>
<path d="M123.45 21.6885V23.6557C123.27 23.6229 123.106 23.6065 122.975 23.6065C122.172 23.6065 121.532 23.8524 121.09 24.3114C120.631 24.7868 120.418 25.459 120.418 26.3442V30.6393H118.319V21.7704H120.287V23.0655C120.893 22.1475 121.942 21.6885 123.45 21.6885Z" fill="#1D1D1B"/>
<path d="M133.926 26.8854H126.976C127.09 27.5411 127.418 28.0493 127.926 28.4428C128.451 28.8198 129.09 29.0166 129.844 29.0166C130.828 29.0166 131.615 28.6887 132.238 28.0493L133.353 29.328C132.959 29.8034 132.451 30.1641 131.844 30.41C131.238 30.6559 130.549 30.7706 129.795 30.7706C128.812 30.7706 127.959 30.5903 127.221 30.1969C126.484 29.8034 125.91 29.2625 125.5 28.5739C125.09 27.8854 124.894 27.0985 124.894 26.2297C124.894 25.3608 125.09 24.5903 125.484 23.9018C125.877 23.2133 126.418 22.6723 127.123 22.2788C127.812 21.8854 128.615 21.7051 129.467 21.7051C130.336 21.7051 131.107 21.8854 131.779 22.2788C132.451 22.6559 132.976 23.1969 133.369 23.8854C133.746 24.5739 133.943 25.3772 133.943 26.2788C133.976 26.41 133.959 26.6067 133.926 26.8854ZM127.812 23.9346C127.353 24.328 127.074 24.8526 126.976 25.492H131.992C131.91 24.8526 131.631 24.328 131.172 23.9346C130.713 23.5411 130.156 23.328 129.484 23.328C128.828 23.3444 128.271 23.5411 127.812 23.9346Z" fill="#1D1D1B"/>
<path d="M141.926 30.1638C141.68 30.3605 141.385 30.5081 141.041 30.6064C140.697 30.7048 140.32 30.754 139.926 30.754C138.943 30.754 138.205 30.4917 137.68 29.9835C137.156 29.4753 136.877 28.7376 136.877 27.754V23.4917H135.418V21.8523H136.877V19.8359H138.943V21.8523H141.32V23.5081H138.943V27.7212C138.943 28.1474 139.057 28.4753 139.27 28.7048C139.484 28.9343 139.795 29.0491 140.188 29.0491C140.664 29.0491 141.041 28.9343 141.352 28.6884L141.926 30.1638Z" fill="#1D1D1B"/>
<path d="M94.5001 36.3764C95.1559 37.0157 95.4674 37.9338 95.4674 39.1633V44.2289H94.287V39.278C94.287 38.3764 94.0575 37.6879 93.6149 37.1961C93.1559 36.7207 92.5165 36.4748 91.6641 36.4748C90.7296 36.4748 89.9756 36.7534 89.4346 37.3108C88.8936 37.8682 88.6149 38.6387 88.6149 39.6223V44.1961H87.4346V35.4748H88.5657V37.0813C88.8936 36.5567 89.3362 36.1305 89.91 35.8518C90.4838 35.5567 91.1395 35.4092 91.8936 35.4092C92.9756 35.4256 93.8444 35.737 94.5001 36.3764Z" fill="#1D1D1B"/>
<path d="M106.172 40.2122H98.8768C98.9424 41.1139 99.3031 41.8516 99.926 42.409C100.549 42.9663 101.352 43.245 102.319 43.245C102.86 43.245 103.352 43.1467 103.811 42.95C104.254 42.7696 104.664 42.4745 104.992 42.0975L105.664 42.868C105.27 43.3434 104.795 43.6877 104.205 43.9336C103.631 44.1795 102.992 44.2942 102.287 44.2942C101.385 44.2942 100.598 44.1139 99.9096 43.7204C99.2211 43.3434 98.6801 42.8188 98.2867 42.1303C97.8932 41.4582 97.7129 40.6877 97.7129 39.8352C97.7129 38.9827 97.8932 38.2123 98.2703 37.5401C98.6309 36.868 99.1391 36.3434 99.7949 35.9663C100.451 35.5893 101.172 35.3926 101.975 35.3926C102.778 35.3926 103.516 35.5729 104.156 35.9663C104.795 36.3434 105.303 36.868 105.664 37.5237C106.024 38.1959 106.205 38.9663 106.205 39.8188L106.172 40.2122ZM99.844 37.245C99.2703 37.786 98.9424 38.4745 98.8768 39.3434H105.074C104.992 38.4745 104.68 37.786 104.106 37.245C103.533 36.7041 102.828 36.4418 101.975 36.4418C101.106 36.4254 100.401 36.7041 99.844 37.245Z" fill="#1D1D1B"/>
<path d="M112.795 43.6882C112.582 43.8849 112.287 44.0325 111.975 44.1472C111.648 44.262 111.303 44.3112 110.959 44.3112C110.139 44.3112 109.516 44.098 109.074 43.639C108.631 43.1964 108.402 42.5734 108.402 41.7702V36.4915H106.844V35.4915H108.402V33.5898H109.582V35.4915H112.238V36.4915H109.582V41.7046C109.582 42.2292 109.713 42.6226 109.975 42.8849C110.238 43.1472 110.615 43.2948 111.09 43.2948C111.336 43.2948 111.566 43.262 111.795 43.18C112.025 43.098 112.221 42.9997 112.385 42.8521L112.795 43.6882Z" fill="#1D1D1B"/>
<path d="M125.057 35.5566H126.467L122.795 44.2288H121.598L119.86 39.9993L118.139 44.2288H116.942L113.254 35.5566H114.647L117.631 42.7698L119.09 39.1632L117.598 35.5566H118.795L119.86 38.3271L120.926 35.5566H122.123L120.631 39.1632L122.09 42.7698L125.057 35.5566Z" fill="#1D1D1B"/>
<path d="M131.189 44.3434C130.566 44.3434 129.992 44.2286 129.467 43.9827C128.943 43.7368 128.5 43.4254 128.107 43.0155C127.73 42.6057 127.435 42.1303 127.221 41.5893C127.008 41.0483 126.894 40.4745 126.894 39.8844C126.894 39.2778 127.008 38.7041 127.221 38.1631C127.435 37.6221 127.746 37.1467 128.123 36.7368C128.5 36.327 128.959 35.9991 129.484 35.7532C130.008 35.5073 130.566 35.3926 131.189 35.3926C131.812 35.3926 132.385 35.5073 132.894 35.7532C133.418 35.9991 133.877 36.327 134.254 36.7368C134.631 37.1467 134.926 37.6221 135.156 38.1631C135.369 38.7041 135.484 39.2778 135.484 39.8844C135.484 40.4909 135.369 41.0483 135.156 41.5893C134.943 42.1303 134.648 42.6057 134.271 43.0155C133.894 43.4254 133.435 43.7532 132.91 43.9827C132.385 44.2122 131.812 44.3434 131.189 44.3434ZM128.041 39.8844C128.041 40.3762 128.123 40.8188 128.287 41.245C128.451 41.6713 128.68 42.0155 128.959 42.3434C129.238 42.6713 129.582 42.9008 129.959 43.0811C130.336 43.2614 130.746 43.3434 131.172 43.3434C131.598 43.3434 132.008 43.2614 132.385 43.0811C132.762 42.9008 133.107 42.6549 133.385 42.327C133.68 41.9991 133.91 41.6549 134.057 41.2123C134.221 40.786 134.303 40.3434 134.303 39.8516C134.303 39.3762 134.221 38.9172 134.057 38.4909C133.894 38.0647 133.664 37.6877 133.385 37.3762C133.09 37.0483 132.762 36.8024 132.385 36.6221C132.008 36.4418 131.598 36.3598 131.172 36.3598C130.746 36.3598 130.336 36.4418 129.976 36.6221C129.598 36.8024 129.271 37.0647 128.976 37.3762C128.68 37.7041 128.451 38.0811 128.303 38.4909C128.139 38.95 128.041 39.409 128.041 39.8844Z" fill="#1D1D1B"/>
<path d="M141.68 36.5736C140.91 36.59 140.254 36.8031 139.68 37.1965C139.107 37.59 138.713 38.1474 138.484 38.8359V44.2129H137.353V35.5736H138.418V37.6556C138.746 36.9834 139.172 36.4752 139.713 36.0982C140.254 35.7211 140.844 35.5244 141.451 35.5244C141.533 35.5244 141.615 35.5408 141.664 35.5408L141.68 36.5736Z" fill="#1D1D1B"/>
<path d="M150.139 44.229L146.959 39.8028L145.09 41.5241V44.229H143.959V32.1143H145.09V40.3438L149.943 35.6061H151.221L147.697 39.1306L151.369 44.229H150.139Z" fill="#1D1D1B"/>
</svg>
