<svg width="190" height="66" viewBox="0 0 190 66" fill="none" xmlns="http://www.w3.org/2000/svg">
<path d="M0 10C0 4.47715 4.47715 0 10 0H180C185.523 0 190 4.47715 190 10V56C190 61.5228 185.523 66 180 66H10C4.47715 66 0 61.5228 0 56V10Z" fill="white"/>
<path d="M33.0153 37.2145C33.1402 37.0896 33.3096 37.0195 33.4862 37.0195H49.7806C50.0774 37.0195 50.226 37.3784 50.016 37.5882L46.7963 40.8054C46.6714 40.9303 46.502 41.0004 46.3254 41.0004H30.031C29.7342 41.0004 29.5856 40.6414 29.7956 40.4316L33.0153 37.2145Z" fill="url(#paint0_linear_279_2777)"/>
<path d="M33.0153 25.1949C33.1402 25.0701 33.3096 25 33.4862 25H49.7806C50.0774 25 50.226 25.3589 50.016 25.5688L46.7963 28.7859C46.6714 28.9107 46.502 28.9808 46.3254 28.9808H30.031C29.7342 28.9808 29.5856 28.6219 29.7956 28.4121L33.0153 25.1949Z" fill="url(#paint1_linear_279_2777)"/>
<path d="M46.7963 31.1666C46.6714 31.0418 46.502 30.9717 46.3254 30.9717H30.031C29.7342 30.9717 29.5856 31.3306 29.7956 31.5404L33.0153 34.7576C33.1402 34.8824 33.3096 34.9525 33.4862 34.9525H49.7806C50.0774 34.9525 50.226 34.5936 50.016 34.3838L46.7963 31.1666Z" fill="url(#paint2_linear_279_2777)"/>
<path d="M60.6404 34.5743H66.3182C67.1158 34.5743 67.7621 35.2298 67.7621 36.0384C67.7621 36.8468 67.1158 37.5023 66.3182 37.5023H59.4698C59.3629 37.5023 59.2597 37.541 59.1784 37.6115L57.1106 39.405C56.7941 39.6794 56.9856 40.205 57.4022 40.205H65.9753C65.9787 40.205 65.9815 40.2021 65.9815 40.1987C65.9815 40.1948 65.9847 40.1919 65.9886 40.1922C66.0963 40.2008 66.2055 40.205 66.3155 40.205C68.5896 40.205 70.4332 38.3397 70.4332 36.0384C70.4332 33.8532 68.7707 32.0608 66.6558 31.8857C66.6522 31.8855 66.6493 31.8823 66.6493 31.8787C66.6493 31.8748 66.6462 31.8716 66.6425 31.8716H60.5257C59.7283 31.8716 59.0817 31.2164 59.0817 30.4078C59.0817 29.5991 59.7283 28.9439 60.5257 28.9439H67.3646C67.4773 28.9439 67.5857 28.9008 67.6683 28.8234L69.5885 27.03C69.8888 26.7496 69.6931 26.2412 69.2846 26.2412H60.6404C60.6402 26.2412 60.6397 26.2415 60.6397 26.2417C60.6397 26.2423 60.6394 26.2425 60.6389 26.2425C60.6023 26.2415 60.5654 26.2412 60.5283 26.2412C58.2543 26.2412 56.4106 28.1065 56.4106 30.4078C56.4106 32.709 58.2543 34.5743 60.5283 34.5743C60.5654 34.5743 60.6023 34.574 60.6389 34.573C60.6394 34.573 60.6397 34.5733 60.6397 34.5738C60.6397 34.5741 60.6402 34.5743 60.6404 34.5743Z" fill="black"/>
<path d="M93.7098 26.2412C93.4615 26.2412 93.2603 26.4445 93.2603 26.6957V39.7505C93.2603 40.0016 93.4615 40.205 93.7098 40.205H104.106C104.23 40.205 104.349 40.153 104.434 40.0615L105.735 38.6572C106.005 38.3669 105.801 37.8917 105.408 37.8917H96.3302C96.0819 37.8917 95.8806 37.6881 95.8806 37.4369V26.6957C95.8806 26.4445 95.6794 26.2412 95.4313 26.2412H93.7098Z" fill="black"/>
<path fill-rule="evenodd" clip-rule="evenodd" d="M77.0577 26.2412C77.0569 26.2412 77.0564 26.2417 77.0564 26.2423C77.0564 26.243 77.0558 26.2436 77.0553 26.2436C75.7263 26.3016 74.6595 27.3773 74.602 28.7173C74.602 28.7181 74.6014 28.7186 74.6007 28.7186C74.6004 28.7186 74.6001 28.7189 74.5999 28.7189C74.5996 28.7191 74.5996 28.7194 74.5996 28.7199V37.5012C74.5996 37.5018 74.6001 37.5023 74.6007 37.5023C74.6014 37.5023 74.602 37.5028 74.602 37.5036C74.6004 37.5404 74.5996 37.5776 74.5996 37.6149C74.5996 39.0074 75.6889 40.143 77.0553 40.2026C77.0558 40.2026 77.0564 40.2032 77.0564 40.2039L77.0566 40.2044L77.0569 40.2047C77.0571 40.205 77.0574 40.205 77.0577 40.205H86.4913C86.4919 40.205 86.4926 40.2045 86.4926 40.2039V40.2032L86.4932 40.2026H86.4937C87.8598 40.143 88.9494 39.0074 88.9494 37.6149C88.9494 37.5776 88.9486 37.5404 88.947 37.5036C88.947 37.5028 88.9476 37.5023 88.9483 37.5023C88.9489 37.5023 88.9494 37.5018 88.9494 37.5012V28.7199C88.9494 28.7191 88.9489 28.7186 88.9481 28.7186C88.9476 28.7186 88.947 28.7181 88.947 28.7173C88.8895 27.3773 87.8224 26.3016 86.4937 26.2436C86.4932 26.2436 86.4926 26.243 86.4926 26.2423C86.4926 26.2417 86.4919 26.2412 86.4913 26.2412H77.0577ZM78.8161 28.7186L78.8155 28.7189L78.8153 28.7194C78.8153 28.7197 78.815 28.7202 78.8145 28.7202C77.9842 28.7565 77.3172 29.4334 77.2814 30.2763C77.2814 30.2765 77.2809 30.2771 77.2806 30.2771C77.2801 30.2771 77.2798 30.2773 77.2798 30.2779V35.8016C77.2798 35.8019 77.2801 35.8022 77.2806 35.8022C77.2809 35.8022 77.2811 35.8027 77.2811 35.8029C77.2803 35.8262 77.2798 35.8497 77.2798 35.873C77.2798 36.749 77.9607 37.4633 78.8145 37.5007C78.815 37.5007 78.8153 37.5012 78.8153 37.5015L78.8155 37.502L78.8158 37.5023H78.8161H84.7329H84.7332L84.7334 37.502L84.7337 37.5015C84.7337 37.5012 84.734 37.5007 84.7342 37.5007C85.5883 37.4633 86.2692 36.749 86.2692 35.873C86.2692 35.8497 86.2687 35.8262 86.2676 35.8029L86.2679 35.8027L86.2684 35.8022C86.2689 35.8022 86.2692 35.8019 86.2692 35.8016V30.2779C86.2692 30.2773 86.2689 30.2771 86.2684 30.2771C86.2681 30.2771 86.2676 30.2765 86.2676 30.2763C86.2318 29.4334 85.5648 28.7565 84.7342 28.7202C84.734 28.7202 84.7337 28.7197 84.7337 28.7194L84.7334 28.7189L84.7332 28.7186H84.7329H78.8161Z" fill="black"/>
<path fill-rule="evenodd" clip-rule="evenodd" d="M120.853 39.7505C120.853 40.0016 121.053 40.205 121.299 40.205H123.062C123.308 40.205 123.508 40.0016 123.508 39.7505V28.9449C123.508 28.9444 123.508 28.9439 123.507 28.9439L123.506 28.9436L123.506 28.9434C123.506 28.9434 123.506 28.9429 123.506 28.9426C123.507 28.9057 123.508 28.8686 123.508 28.8313C123.508 27.4387 122.429 26.3032 121.076 26.2436C121.075 26.2436 121.075 26.243 121.075 26.2423C121.075 26.2417 121.074 26.2412 121.073 26.2412H112.017C112.016 26.2412 112.015 26.2417 112.015 26.2423C112.015 26.243 112.015 26.2436 112.014 26.2436C111.978 26.242 111.941 26.2412 111.905 26.2412C110.5 26.2412 109.361 27.4009 109.361 28.8313C109.361 28.8686 109.362 28.9057 109.363 28.9426C109.363 28.9431 109.363 28.9439 109.362 28.9439C109.361 28.9439 109.361 28.9444 109.361 28.9449V39.7505C109.361 40.0016 109.56 40.205 109.806 40.205H111.57C111.816 40.205 112.015 40.0016 112.015 39.7505V35.2543C112.015 35.0032 112.215 34.7996 112.461 34.7996H120.408C120.654 34.7996 120.853 35.0032 120.853 35.2543V39.7505ZM112.015 32.318V30.0698C112.015 29.1992 112.709 28.4933 113.564 28.4933H119.305C120.16 28.4933 120.853 29.1992 120.853 30.0698V32.318C120.853 32.5692 120.654 32.7725 120.408 32.7725H112.461C112.215 32.7725 112.015 32.5692 112.015 32.318Z" fill="black"/>
<path fill-rule="evenodd" clip-rule="evenodd" d="M158.072 40.205C157.824 40.205 157.622 40.0016 157.622 39.7505V35.2543C157.622 35.0032 157.421 34.7996 157.172 34.7996H149.138C148.89 34.7996 148.688 35.0032 148.688 35.2543V39.7505C148.688 40.0016 148.487 40.205 148.238 40.205H146.458C146.209 40.205 146.008 40.0016 146.008 39.7505V28.9449V28.9447L146.008 28.9442C146.008 28.9439 146.009 28.9439 146.009 28.9439C146.01 28.9439 146.01 28.9431 146.01 28.9426C146.009 28.9057 146.008 28.8686 146.008 28.8313C146.008 27.4009 147.158 26.2412 148.576 26.2412C148.614 26.2412 148.65 26.242 148.687 26.2436C148.688 26.2436 148.688 26.243 148.688 26.2423C148.688 26.2417 148.689 26.2412 148.689 26.2412H157.844C157.845 26.2412 157.846 26.2417 157.846 26.2423C157.846 26.243 157.846 26.2436 157.847 26.2436C159.213 26.3032 160.302 27.4387 160.302 28.8313C160.302 28.8686 160.302 28.9057 160.3 28.9426C160.3 28.9431 160.301 28.9439 160.301 28.9439C160.302 28.9439 160.302 28.9439 160.302 28.9442C160.302 28.9444 160.302 28.9447 160.302 28.9449V39.7505C160.302 40.0016 160.101 40.205 159.853 40.205H158.072ZM148.688 30.0698V32.318C148.688 32.5692 148.89 32.7725 149.138 32.7725H157.172C157.421 32.7725 157.622 32.5692 157.622 32.318V30.0698C157.622 29.1992 156.922 28.4933 156.059 28.4933H150.252C149.388 28.4933 148.688 29.1992 148.688 30.0698Z" fill="black"/>
<path d="M130.145 26.2412C130.275 26.2412 130.399 26.2995 130.484 26.4006L138.392 35.8863C138.661 36.2078 139.177 36.0139 139.177 35.5912V26.6957C139.177 26.4445 139.376 26.2412 139.622 26.2412H141.386C141.632 26.2412 141.831 26.4445 141.831 26.6957V39.7505C141.831 40.0016 141.632 40.205 141.386 40.205H139.193C139.184 40.205 139.177 40.1974 139.177 40.188C139.177 40.1841 139.175 40.1799 139.173 40.177L131.132 30.7577C130.861 30.4412 130.35 30.6367 130.35 31.0567V39.7505C130.35 40.0016 130.151 40.205 129.905 40.205H128.13C127.884 40.205 127.685 40.0016 127.685 39.7505V26.6957C127.685 26.4445 127.884 26.2412 128.13 26.2412H130.145Z" fill="black"/>
<defs>
<linearGradient id="paint0_linear_279_2777" x1="43.5004" y1="20.6115" x2="32.2233" y2="42.2116" gradientUnits="userSpaceOnUse">
<stop stop-color="#00FFA3"/>
<stop offset="1" stop-color="#DC1FFF"/>
</linearGradient>
<linearGradient id="paint1_linear_279_2777" x1="43.5004" y1="20.6111" x2="32.2233" y2="42.2113" gradientUnits="userSpaceOnUse">
<stop stop-color="#00FFA3"/>
<stop offset="1" stop-color="#DC1FFF"/>
</linearGradient>
<linearGradient id="paint2_linear_279_2777" x1="43.5004" y1="20.6115" x2="32.2233" y2="42.2116" gradientUnits="userSpaceOnUse">
<stop stop-color="#00FFA3"/>
<stop offset="1" stop-color="#DC1FFF"/>
</linearGradient>
</defs>
</svg>
