<svg width="191" height="66" viewBox="0 0 191 66" fill="none" xmlns="http://www.w3.org/2000/svg">
<path d="M0 10C0 4.47715 4.47715 0 10 0H181C186.523 0 191 4.47715 191 10V56C191 61.5228 186.523 66 181 66H10C4.47715 66 0 61.5228 0 56V10Z" fill="white"/>
<g clip-path="url(#clip0_279_3094)">
<path d="M95.1409 24.7819H89.794V39.2526H88.4809V24.7819H83.1475V23.6719H95.1409V24.7819Z" fill="#0E61FF"/>
<path d="M100.082 39.4822C98.1691 39.5107 96.4094 38.4372 95.5606 36.7221C95.1085 35.8192 94.8811 34.8216 94.8973 33.8117V33.3515C94.8811 32.3132 95.1044 31.2858 95.5471 30.3463C95.941 29.4935 96.565 28.7666 97.3475 28.2482C98.0879 27.75 98.9597 27.482 99.8517 27.4766C101.26 27.4766 102.37 27.9503 103.195 28.9115C104.021 29.8726 104.427 31.1856 104.427 32.8506V33.5681H96.1562V33.8117C96.1562 35.1248 96.5353 36.2213 97.2798 37.0876C97.9769 37.9364 99.0247 38.421 100.122 38.4007C100.748 38.4156 101.369 38.2856 101.936 38.0216C102.505 37.7414 102.996 37.3272 103.371 36.8169L104.17 37.426C103.249 38.7919 101.882 39.4822 100.082 39.4822ZM99.8517 28.5581C98.9258 28.5433 98.0378 28.9277 97.4151 29.614C96.7518 30.3179 96.3593 31.2655 96.2104 32.4567H103.155V32.3213C103.114 31.2113 102.803 30.3044 102.207 29.6005C101.612 28.8966 100.826 28.5581 99.8517 28.5581Z" fill="#0E61FF"/>
<path d="M108.218 38.1832H115.744V39.2661H106.634V38.3185L113.659 28.7887H106.85V27.6787H115.27V28.6398L108.218 38.1832Z" fill="#0E61FF"/>
<path d="M117.585 33.2961C117.569 32.2578 117.792 31.2304 118.235 30.2909C118.635 29.4368 119.269 28.7153 120.062 28.2063C120.865 27.7027 121.796 27.4442 122.742 27.4618C124.285 27.4618 125.531 28.0032 126.492 29.0862C127.453 30.1691 127.927 31.604 127.927 33.3909V33.6616C127.944 34.7039 127.721 35.7368 127.277 36.6803C126.88 37.5331 126.246 38.2532 125.45 38.7527C124.644 39.2455 123.714 39.5 122.769 39.4837C121.24 39.4837 119.981 38.9423 119.02 37.8593C118.059 36.7764 117.585 35.3415 117.585 33.5546V33.2961V33.2961ZM118.871 33.648C118.871 35.0288 119.236 36.1659 119.94 37.0593C120.644 37.9527 121.592 38.3859 122.756 38.3859C123.851 38.4116 124.895 37.9202 125.571 37.0593C126.289 36.1659 126.641 35.0017 126.641 33.5398V33.2961C126.649 32.4595 126.484 31.6284 126.154 30.8595C125.864 30.1718 125.385 29.5803 124.773 29.1539C124.174 28.7464 123.465 28.5339 122.742 28.5447C121.649 28.5244 120.61 29.0212 119.94 29.8848C119.223 30.7783 118.857 31.956 118.857 33.4044C118.857 33.4044 118.871 33.648 118.871 33.648Z" fill="#0E61FF"/>
<path d="M137.511 36.316C137.527 35.7096 137.237 35.1343 136.739 34.7864C136.225 34.4073 135.467 34.096 134.424 33.8794C133.6 33.7251 132.796 33.476 132.028 33.1349C131.46 32.8506 131.04 32.5122 130.769 32.1061C130.484 31.6675 130.338 31.1531 130.35 30.6306C130.35 29.7101 130.729 28.9656 131.5 28.37C132.272 27.7744 133.247 27.4766 134.438 27.4766C135.724 27.4766 136.766 27.8014 137.551 28.4377C138.319 29.0387 138.756 29.9673 138.729 30.942H137.443C137.448 30.2732 137.13 29.6438 136.59 29.2499C136.022 28.8032 135.304 28.573 134.438 28.573C133.599 28.573 132.922 28.7625 132.407 29.128C131.92 29.4543 131.63 30.0039 131.636 30.59C131.61 31.1152 131.85 31.6174 132.272 31.9301C132.692 32.2415 133.477 32.5393 134.6 32.81C135.724 33.0808 136.563 33.3515 137.132 33.6493C137.631 33.8984 138.06 34.272 138.377 34.7322C139.135 36.0317 138.804 37.6941 137.606 38.6037C136.82 39.1858 135.792 39.4836 134.519 39.4836C133.165 39.4836 132.069 39.1587 131.243 38.509C130.418 37.8592 129.984 37.0335 129.984 36.0317H131.27C131.297 36.7302 131.647 37.3759 132.218 37.778C132.8 38.1976 133.572 38.4007 134.533 38.4007C135.426 38.4007 136.144 38.1976 136.699 37.8186C137.24 37.4111 137.511 36.9103 137.511 36.316Z" fill="#0E61FF"/>
<path d="M73.6855 40.1325C73.3741 34.623 66.4434 32.1188 65.7801 31.8616C65.753 31.848 65.753 31.821 65.7665 31.7939L72.9139 24.6194V23.8478C72.9098 23.722 72.8097 23.6218 72.6838 23.6177H59.5126V19.2995V18L54.6529 19.0153V19.7462H54.9236C54.9236 19.7462 56.1149 19.7462 56.1149 20.9375V23.6042H52.3517C52.2786 23.6096 52.2217 23.6665 52.2163 23.7396V25.4316H56.1284V34.623C56.1284 37.5064 57.9829 39.5098 61.2317 39.2391C61.9005 39.1727 62.5434 38.9399 63.0998 38.5622C63.3448 38.4052 63.4924 38.1358 63.4924 37.8448V36.9378C62.4365 37.6417 61.5431 37.6011 61.5431 37.6011C59.4855 37.6011 59.5261 34.9885 59.5261 34.9885V25.4316H69.0018L62.1793 32.3083C62.1658 33.2152 62.1522 33.9191 62.1522 33.9327C62.1495 33.953 62.1644 33.9706 62.1847 33.9733C62.1874 33.9733 62.1901 33.9733 62.1928 33.9733C68.4468 35.0291 70.1389 39.0766 70.1389 40.2543C70.1389 40.2543 70.8157 45.9803 65.0897 46.3729C65.0897 46.3729 61.34 46.5353 60.6767 45.0328C60.6524 44.984 60.674 44.9245 60.7228 44.9015C60.7255 44.9001 60.7282 44.8987 60.7309 44.8974C61.3685 44.6307 61.7813 44.0053 61.7732 43.3136C61.7732 42.2036 61.0964 41.2966 59.675 41.2966C58.5244 41.2966 57.5768 42.2036 57.5768 43.3136C57.5768 43.3136 57.0354 48.1327 65.0762 47.9973C74.254 47.8349 73.6855 40.1325 73.6855 40.1325Z" fill="#0E61FF"/>
</g>
<defs>
<clipPath id="clip0_279_3094">
<rect width="86.5671" height="30" fill="white" transform="translate(52.2163 18)"/>
</clipPath>
</defs>
</svg>
