<svg width="191" height="66" viewBox="0 0 191 66" fill="none" xmlns="http://www.w3.org/2000/svg">
<path d="M0 10C0 4.47715 4.47715 0 10 0H181C186.523 0 191 4.47715 191 10V56C191 61.5228 186.523 66 181 66H10C4.47715 66 0 61.5228 0 56V10Z" fill="white"/>
<path d="M85.7576 29.8711H84.0859V40.786H85.7576V29.8711Z" fill="#262729"/>
<path d="M93.2464 25.248H79.6206V26.9197H93.2464V25.248Z" fill="#262729"/>
<path d="M88.7772 29.8721H87.1055V40.787H88.7772V29.8721Z" fill="#262729"/>
<path d="M134.959 40.7974H136.646V34.2236L134.959 32.3486V40.7974Z" fill="#262729"/>
<path d="M143.842 25.2478V37.4353L131.91 24.1748V40.7975H133.593V28.6063L145.532 41.8706V25.2478H143.842Z" fill="#262729"/>
<path d="M120.987 25.2402C116.699 25.2402 113.212 28.7267 113.212 33.0151C113.212 37.3035 116.699 40.7899 120.987 40.7899C125.276 40.7899 128.762 37.3035 128.762 33.0151C128.762 28.7304 125.276 25.2402 120.987 25.2402ZM120.987 39.1145C117.625 39.1145 114.888 36.381 114.888 33.0151C114.888 29.6491 117.621 26.9157 120.987 26.9157C124.349 26.9157 127.087 29.6491 127.087 33.0151C127.087 36.3773 124.349 39.1145 120.987 39.1145Z" fill="#262729"/>
<path d="M120.987 31.8965C120.37 31.8965 119.869 32.3972 119.869 33.0147C119.869 33.6322 120.37 34.1329 120.987 34.1329C121.605 34.1329 122.106 33.6322 122.106 33.0147C122.106 32.3972 121.605 31.8965 120.987 31.8965Z" fill="#262729"/>
<path d="M110.287 30.0185C110.287 27.3905 108.163 25.252 105.554 25.252H96.6611V40.8017H98.3215V26.9387H105.554C107.23 26.9387 108.593 28.3205 108.593 30.0185C108.593 31.709 107.248 33.0833 105.588 33.1021L99.6882 33.0983V40.8017H101.349V34.7851H105.238L108.416 40.7979H110.347L107.03 34.5479C108.947 33.9116 110.287 32.0592 110.287 30.0185Z" fill="#262729"/>
<path d="M68.1259 22.1679L45.4678 18L57.3917 48L74.0032 27.759L68.1259 22.1679ZM67.7645 24.0053L71.2321 27.2997L61.7517 29.0166L67.7645 24.0053ZM59.6922 28.6739L49.6997 20.387L66.0288 23.3916L59.6922 28.6739ZM58.9768 30.1423L57.3503 43.6099L48.5664 21.5015L58.9768 30.1423ZM60.4828 30.8539L70.9798 28.9526L58.9429 43.6212L60.4828 30.8539Z" fill="#EB0029"/>
</svg>
