<svg width="2240" height="570" viewBox="0 0 2240 570" fill="none" xmlns="http://www.w3.org/2000/svg">
<g clip-path="url(#clip0_2388_4111)">
<rect width="2240" height="570" fill="#1D1D21"/>
<path opacity="0.2" fill-rule="evenodd" clip-rule="evenodd" d="M951.019 446.047L623.944 770.531L626.056 772.661L953.132 448.177C1045.44 356.605 1194.69 356.613 1285.99 448.171L1286 448.177L1613.07 772.661L1615.19 770.531L1288.12 446.053C1195.63 353.313 1044.49 353.321 951.019 446.047Z" fill="url(#paint0_linear_2388_4111)"/>
<path opacity="0.2" fill-rule="evenodd" clip-rule="evenodd" d="M842.927 200.07L302.943 735.935L305.057 738.065L845.04 202.199C997.807 50.5972 1244.83 50.6053 1395.96 202.194L1395.96 202.199L1935.94 738.065L1938.06 735.935L1398.08 200.076C1398.08 200.074 1398.08 200.072 1398.07 200.07M842.927 200.07C996.855 47.3151 1245.77 47.3051 1398.07 200.07Z" fill="url(#paint1_linear_2388_4111)"/>
<path opacity="0.3" fill-rule="evenodd" clip-rule="evenodd" d="M102.056 585.215L603.045 88.1956C878.151 -184.732 1323.85 -184.732 1598.96 88.1956L2099.94 585.215L2102.06 583.085L1601.07 86.0659C1324.79 -188.022 877.208 -188.022 600.932 86.0658L99.9435 583.085L102.056 585.215Z" fill="url(#paint2_linear_2388_4111)"/>
<path opacity="0.3" fill-rule="evenodd" clip-rule="evenodd" d="M-281.944 622.065L403.158 -57.4743C779.581 -430.842 1389.42 -430.842 1765.84 -57.4742L2450.94 622.065L2453.06 619.935L1767.96 -59.6042C1390.36 -434.132 778.638 -434.132 401.045 -59.6042L-284.056 619.935L-281.944 622.065Z" fill="url(#paint3_linear_2388_4111)"/>
</g>
<defs>
<linearGradient id="paint0_linear_2388_4111" x1="852.293" y1="716.231" x2="855.073" y2="392.096" gradientUnits="userSpaceOnUse">
<stop stop-color="#5B5C61"/>
<stop offset="1" stop-color="#88888A" stop-opacity="0"/>
</linearGradient>
<linearGradient id="paint1_linear_2388_4111" x1="679.248" y1="645.567" x2="683.841" y2="110.278" gradientUnits="userSpaceOnUse">
<stop stop-color="#5B5C61"/>
<stop offset="1" stop-color="#88888A" stop-opacity="0"/>
</linearGradient>
<linearGradient id="paint2_linear_2388_4111" x1="560.581" y1="485.382" x2="564.957" y2="-92.8636" gradientUnits="userSpaceOnUse">
<stop stop-color="#5B5C61"/>
<stop offset="1" stop-color="#88888A" stop-opacity="0"/>
</linearGradient>
<linearGradient id="paint3_linear_2388_4111" x1="345.477" y1="485.961" x2="351.459" y2="-304.633" gradientUnits="userSpaceOnUse">
<stop stop-color="#5B5C61"/>
<stop offset="1" stop-color="#88888A" stop-opacity="0"/>
</linearGradient>
<clipPath id="clip0_2388_4111">
<rect width="2240" height="570" fill="white"/>
</clipPath>
</defs>
</svg>
