<svg width="86" height="75" viewBox="0 0 86 75" fill="none" xmlns="http://www.w3.org/2000/svg">
<rect x="5.03808" y="0.0683594" width="74.3222" height="74.3222" rx="18.5805" fill="#1F2022"/>
<path fill-rule="evenodd" clip-rule="evenodd" d="M46.0088 23.5819C43.8316 22.9496 41.9577 21.1715 41.9577 18.9044L41.9577 17.7934C41.9577 14.9127 44.3179 12.521 47.1362 13.1173C47.7381 13.2446 48.3324 13.3937 48.9182 13.5638C59.2896 16.5759 66.8786 26.1441 66.8786 37.4983C66.8786 51.2617 55.7211 62.4191 41.9577 62.4191C40.4106 62.4191 38.8939 62.2776 37.4206 62.0062C34.5876 61.4843 33.3213 58.373 34.4235 55.7115C35.5257 53.05 38.6122 51.8894 41.4915 51.9798C41.6462 51.9847 41.8016 51.9872 41.9577 51.9872C49.9597 51.9872 56.4466 45.5003 56.4466 37.4983C56.4466 30.9091 52.0438 25.3346 46.0088 23.5819Z" fill="white"/>
<path fill-rule="evenodd" clip-rule="evenodd" d="M39.0662 51.4177C41.2433 52.05 43.1172 53.8281 43.1172 56.0952L43.1172 57.2062C43.1172 60.087 40.757 62.4787 37.9387 61.8824C37.3368 61.755 36.7425 61.6059 36.1567 61.4358C25.7853 58.4237 18.1963 48.8556 18.1963 37.5014C18.1963 23.7379 29.3538 12.5805 43.1172 12.5805C44.6643 12.5805 46.181 12.7221 47.6543 12.9934C50.4874 13.5153 51.7536 16.6266 50.6514 19.2882C49.5492 21.9497 46.4627 23.1102 43.5834 23.0198C43.4287 23.0149 43.2733 23.0125 43.1172 23.0125C35.1152 23.0125 28.6283 29.4994 28.6283 37.5014C28.6283 44.0906 33.0311 49.665 39.0662 51.4177Z" fill="url(#paint0_linear_2154_4060)"/>
<defs>
<linearGradient id="paint0_linear_2154_4060" x1="46.7724" y1="17.218" x2="-5.685" y2="32.3058" gradientUnits="userSpaceOnUse">
<stop stop-color="#E22440"/>
<stop offset="1" stop-color="#E22440" stop-opacity="0"/>
</linearGradient>
</defs>
</svg>
