<svg width="76" height="74" viewBox="0 0 76 74" fill="none" xmlns="http://www.w3.org/2000/svg">
<rect x="0.882206" width="74" height="74" rx="18.5" fill="#1F2022"/>
<path d="M32.8714 27.3954C35.1425 26.0843 38.6595 25.8221 41.433 26.7572L60.4305 33.162C63.5357 34.2089 64.7842 36.435 63.3312 38.3339L62.3822 39.5741L52.3822 50.4112L46.6708 55.8617C45.0084 57.4481 41.1958 57.6975 38.9608 56.366L19.8822 45L16.0634 42.444C13.6458 40.8259 13.8004 38.4051 16.4177 36.8941L32.8714 27.3954Z" fill="white"/>
<path d="M29.7467 7.97784C30.0458 7.58797 30.9959 7.57491 31.3268 7.95612C38.5352 16.2607 48.0902 23.8138 59.5991 30.3052L62.8372 32.1315C65.2194 33.4751 65.2416 35.6833 62.8867 37.0428L47.2124 46.0915C44.4524 47.6849 39.9775 47.6849 37.2175 46.0915L15.2029 33.3825C13.1375 32.1901 12.5555 30.3871 13.7383 28.8453L29.7467 7.97784Z" fill="url(#paint0_linear_2308_2379)"/>
<defs>
<linearGradient id="paint0_linear_2308_2379" x1="36.8067" y1="34.6914" x2="99.6519" y2="12.482" gradientUnits="userSpaceOnUse">
<stop stop-color="#E22440"/>
<stop offset="1" stop-color="#E22440" stop-opacity="0"/>
</linearGradient>
</defs>
</svg>
