<svg width="20" height="20" viewBox="0 0 20 20" fill="none" xmlns="http://www.w3.org/2000/svg">
<path d="M17.955 6.61623C17.7206 6.38189 17.4027 6.25024 17.0713 6.25024C16.7398 6.25024 16.4219 6.38189 16.1875 6.61623L10 12.8037L3.81252 6.61623C3.57677 6.38853 3.26102 6.26254 2.93327 6.26538C2.60553 6.26823 2.29201 6.39969 2.06025 6.63145C1.82849 6.86321 1.69703 7.17673 1.69418 7.50448C1.69134 7.83222 1.81733 8.14797 2.04503 8.38373L9.11627 15.455C9.35067 15.6893 9.66856 15.821 10 15.821C10.3315 15.821 10.6494 15.6893 10.8838 15.455L17.955 8.38373C18.1893 8.14932 18.321 7.83143 18.321 7.49998C18.321 7.16852 18.1893 6.85064 17.955 6.61623Z" fill="#E22440"/>
</svg>
