<svg width="24" height="24" viewBox="0 0 24 24" fill="none" xmlns="http://www.w3.org/2000/svg">
<path d="M12.94 12L18.4667 6.47329C18.5759 6.34576 18.633 6.18171 18.6265 6.01393C18.62 5.84614 18.5504 5.68698 18.4317 5.56825C18.313 5.44952 18.1538 5.37997 17.986 5.37349C17.8183 5.36701 17.6542 5.42408 17.5267 5.53329L12 11.06L6.47334 5.52663C6.3478 5.40109 6.17754 5.33057 6 5.33057C5.82247 5.33057 5.6522 5.40109 5.52667 5.52663C5.40113 5.65216 5.33061 5.82243 5.33061 5.99996C5.33061 6.1775 5.40113 6.34776 5.52667 6.47329L11.06 12L5.52667 17.5266C5.45688 17.5864 5.4002 17.6599 5.36019 17.7427C5.32017 17.8254 5.29768 17.9154 5.29414 18.0073C5.29059 18.0991 5.30606 18.1906 5.33958 18.2762C5.37309 18.3617 5.42393 18.4394 5.4889 18.5044C5.55387 18.5694 5.63157 18.6202 5.71712 18.6537C5.80267 18.6872 5.89423 18.7027 5.98604 18.6992C6.07785 18.6956 6.16794 18.6731 6.25065 18.6331C6.33336 18.5931 6.4069 18.5364 6.46667 18.4666L12 12.94L17.5267 18.4666C17.6542 18.5758 17.8183 18.6329 17.986 18.6264C18.1538 18.62 18.313 18.5504 18.4317 18.4317C18.5504 18.3129 18.62 18.1538 18.6265 17.986C18.633 17.8182 18.5759 17.6542 18.4667 17.5266L12.94 12Z" fill="#E22440"/>
<path fill-rule="evenodd" clip-rule="evenodd" d="M18.4667 6.47349L12.94 12.0002L18.4667 17.5268C18.5759 17.6544 18.633 17.8184 18.6265 17.9862C18.62 18.154 18.5505 18.3131 18.4317 18.4319C18.313 18.5506 18.1538 18.6202 17.986 18.6266C17.8183 18.6331 17.6542 18.576 17.5267 18.4668L12.0002 12.9404L6.46668 18.4668C6.40692 18.5366 6.33337 18.5933 6.25066 18.6333C6.16795 18.6733 6.07786 18.6958 5.98605 18.6994C5.89424 18.7029 5.80268 18.6874 5.71713 18.6539C5.63158 18.6204 5.55388 18.5696 5.48891 18.5046C5.42394 18.4396 5.37311 18.3619 5.33959 18.2764C5.30607 18.1908 5.2906 18.0993 5.29415 18.0075C5.2977 17.9156 5.32018 17.8256 5.3602 17.7428C5.40021 17.6601 5.45689 17.5866 5.52668 17.5268L11.06 12.0002L5.52668 6.47349C5.40115 6.34795 5.33062 6.17769 5.33062 6.00016C5.33062 5.82262 5.40115 5.65236 5.52668 5.52682C5.65222 5.40129 5.82248 5.33076 6.00001 5.33076C6.17755 5.33076 6.34781 5.40129 6.47335 5.52682L11.9998 11.06L17.5267 5.53349C17.6542 5.42427 17.8183 5.3672 17.986 5.37368C18.1538 5.38016 18.313 5.44972 18.4317 5.56845C18.5505 5.68718 18.62 5.84634 18.6265 6.01412C18.633 6.1819 18.5759 6.34596 18.4667 6.47349ZM12.0001 10.6358L17.3227 5.31316L17.3315 5.30563C17.5165 5.14726 17.7543 5.06451 17.9976 5.07391C18.2409 5.0833 18.4717 5.18416 18.6439 5.35632C18.816 5.52847 18.9169 5.75926 18.9263 6.00254C18.9357 6.24583 18.8529 6.4837 18.6945 6.66863L18.687 6.67743L13.3643 12.0002L18.687 17.3229L18.6945 17.3317C18.8529 17.5166 18.9357 17.7545 18.9263 17.9978C18.9169 18.2411 18.816 18.4718 18.6439 18.644C18.4717 18.8162 18.2409 18.917 17.9976 18.9264C17.7543 18.9358 17.5165 18.8531 17.3315 18.6947L17.3227 18.6872L11.9999 13.3643L6.68618 18.6716C6.60106 18.7684 6.49741 18.8472 6.38132 18.9034C6.26138 18.9614 6.13076 18.994 5.99763 18.9991C5.8645 19.0043 5.73175 18.9818 5.6077 18.9332C5.48365 18.8846 5.37099 18.8109 5.27678 18.7167C5.18258 18.6225 5.10886 18.5099 5.06026 18.3858C5.01166 18.2618 4.98923 18.129 4.99437 17.9959C4.99951 17.8627 5.03212 17.7321 5.09014 17.6122C5.14634 17.496 5.22521 17.3923 5.32206 17.3072L10.6355 12.0002L5.31468 6.68575C5.13288 6.50395 5.03062 6.25726 5.03062 6.00016C5.03062 5.74306 5.13275 5.49649 5.31455 5.31469C5.49635 5.13289 5.74292 5.03076 6.00001 5.03076C6.25711 5.03076 6.50368 5.13289 6.68548 5.31469L12.0001 10.6358Z" fill="#E22440"/>
</svg>
