<svg width="18" height="18" viewBox="0 0 18 18" fill="none" xmlns="http://www.w3.org/2000/svg">
<path fill-rule="evenodd" clip-rule="evenodd" d="M1 4.42857C1 2.53502 2.53502 1 4.42857 1H13.5714C15.465 1 17 2.53502 17 4.42857V13.5714C17 15.465 15.465 17 13.5714 17H4.42857C2.53502 17 1 15.465 1 13.5714V4.42857ZM2.38398 4.2H15.616C15.5023 3.17144 14.6303 2.37143 13.5714 2.37143H4.42857C3.3697 2.37143 2.49769 3.17144 2.38398 4.2ZM15.6286 5.57143H2.37143V13.5714C2.37143 14.7076 3.29244 15.6286 4.42857 15.6286H13.5714C14.7076 15.6286 15.6286 14.7076 15.6286 13.5714V5.57143Z" fill="#282829"/>
<path fill-rule="evenodd" clip-rule="evenodd" d="M11.0013 6.83674C10.8527 6.72696 10.6696 6.67416 10.4853 6.68794C10.3011 6.70172 10.1278 6.78126 9.99713 6.91193C9.85264 7.0566 9.77148 7.2527 9.77148 7.45717C9.77148 7.66163 9.85275 7.85785 9.99724 8.00252L12.5384 10.5437L9.99088 13.0912L9.92794 13.1636L9.92166 13.1722C9.8068 13.3287 9.75521 13.5229 9.77718 13.7158C9.79916 13.9088 9.89309 14.0863 10.0402 14.2131C10.1874 14.3398 10.3769 14.4064 10.5709 14.3996C10.765 14.3928 10.9501 14.3123 11.0879 14.1755L14.1808 11.0827L14.2435 11.0106L14.2495 11.0024C14.3593 10.8537 14.4121 10.6706 14.3983 10.4864C14.3845 10.3021 14.3051 10.1289 14.1744 9.9983L11.0816 6.90546L11.0095 6.8428L11.0013 6.83674Z" fill="#282829"/>
<path fill-rule="evenodd" clip-rule="evenodd" d="M6.9988 6.83674C7.14742 6.72696 7.33051 6.67416 7.51476 6.68794C7.69902 6.70172 7.87231 6.78126 8.00294 6.91193C8.14743 7.0566 8.22859 7.2527 8.22859 7.45717C8.22859 7.66163 8.14732 7.85785 8.00283 8.00252L5.46168 10.5437L8.00919 13.0912L8.07213 13.1636L8.07841 13.1722C8.19328 13.3287 8.24487 13.5229 8.22289 13.7158C8.20091 13.9088 8.10698 14.0863 7.95985 14.2131C7.81272 14.3398 7.62321 14.4064 7.42913 14.3996C7.23506 14.3928 7.04999 14.3123 6.91213 14.1755L3.81928 11.0827L3.75662 11.0106L3.75056 11.0024C3.64078 10.8537 3.58798 10.6706 3.60176 10.4864C3.61554 10.3021 3.695 10.1289 3.82566 9.99829L6.9185 6.90546L6.9906 6.8428L6.9988 6.83674Z" fill="#282829"/>
</svg>
