<svg width="18" height="18" viewBox="0 0 18 18" fill="none" xmlns="http://www.w3.org/2000/svg">
<path fill-rule="evenodd" clip-rule="evenodd" d="M6.51847 2.29494C7.47562 2.43674 8.16349 2.70942 9 3.16155C9.83651 2.70942 10.5244 2.43674 11.4815 2.29494C12.5087 2.14277 13.8486 2.14279 16.0411 2.14282H16.0412L16.1429 2.14283C16.6162 2.14283 17 2.52658 17 2.99997V13.8571C17 14.3305 16.6162 14.7143 16.1429 14.7143C12.6704 14.7143 11.1946 14.7331 9.42526 15.7442C9.16175 15.8948 8.83825 15.8948 8.57474 15.7442C7.6182 15.1976 7.08174 14.9685 6.26724 14.8479C5.3816 14.7167 4.17562 14.7143 1.85714 14.7143C1.38376 14.7143 1 14.3305 1 13.8571V2.99997C1 2.52658 1.38376 2.14283 1.85714 2.14283L1.95883 2.14282H1.95886C4.15136 2.14279 5.49133 2.14277 6.51847 2.29494ZM2.71429 13.0002V3.85752C4.48665 3.85996 5.49784 3.87673 6.26724 3.99071C6.96907 4.09469 7.46446 4.27914 8.20006 4.67788V13.6257C7.67664 13.3998 7.15759 13.2468 6.51847 13.1521C5.61493 13.0182 4.46933 13.0021 2.71429 13.0002ZM9.91434 13.628C11.4665 13.0583 13.0536 13.0052 15.2857 13.0004V3.85752C13.5133 3.85996 12.5022 3.87673 11.7328 3.99071C11.0679 4.08921 10.5883 4.25992 9.91434 4.61659V13.628Z" fill="#282829"/>
</svg>
