<svg width="146" height="44" viewBox="0 0 146 44" fill="none" xmlns="http://www.w3.org/2000/svg">
<rect width="145.5" height="44" rx="10" fill="#FBFBFB"/>
<path d="M72.382 16.5252C72.4231 16.5252 72.4625 16.5415 72.4916 16.5706C72.5207 16.5997 72.537 16.6392 72.537 16.6803V23.1136C72.537 26.1627 70.6278 27.6655 68.1107 27.6655C65.5935 27.6655 63.6843 26.1627 63.6843 23.1136V16.6772C63.6843 16.6361 63.7007 16.5966 63.7297 16.5675C63.7588 16.5384 63.7983 16.5221 63.8394 16.5221H65.3345C65.3756 16.5221 65.4151 16.5384 65.4442 16.5675C65.4733 16.5966 65.4896 16.6361 65.4896 16.6772V23.0003C65.4896 25.1282 66.6001 25.9719 68.1184 25.9719C69.6368 25.9719 70.7349 25.1282 70.7349 23.0003V16.6772C70.7349 16.6361 70.7512 16.5966 70.7803 16.5675C70.8094 16.5384 70.8488 16.5221 70.89 16.5221L72.382 16.5252Z" fill="#101820"/>
<path d="M98.588 22C98.5725 25.2213 96.1158 27.6624 92.91 27.6624C89.7042 27.6624 87.2321 25.2213 87.2321 22C87.2321 18.7787 89.7042 16.3375 92.91 16.3375C96.1158 16.3375 98.5725 18.7787 98.588 22ZM89.0156 22C89.0156 24.2829 90.6891 25.9719 92.91 25.9719C95.1309 25.9719 96.7873 24.2829 96.7873 22C96.7873 19.717 95.1139 18.028 92.91 18.028C90.7061 18.028 89.0156 19.717 89.0156 22Z" fill="#101820"/>
<path d="M114.125 27.4747H112.574C112.55 27.474 112.526 27.4674 112.504 27.4556C112.483 27.4438 112.464 27.4271 112.451 27.4068C112.437 27.3865 112.428 27.3633 112.425 27.339C112.422 27.3146 112.425 27.2899 112.433 27.2669L116.529 16.6864C116.546 16.6435 116.575 16.6067 116.613 16.5806C116.651 16.5546 116.696 16.5407 116.742 16.5407H118.679C118.725 16.5405 118.77 16.5543 118.808 16.5804C118.846 16.6064 118.875 16.6434 118.891 16.6864L122.99 27.2731C122.999 27.2961 123.001 27.3208 122.998 27.3452C122.995 27.3695 122.987 27.3928 122.973 27.413C122.959 27.4333 122.941 27.45 122.919 27.4618C122.898 27.4736 122.874 27.4802 122.849 27.4809H121.295C121.264 27.4805 121.234 27.4709 121.209 27.4532C121.183 27.4355 121.164 27.4106 121.152 27.3817L117.849 18.6701C117.837 18.6426 117.817 18.6192 117.792 18.6027C117.767 18.5863 117.737 18.5776 117.707 18.5776C117.677 18.5776 117.648 18.5863 117.622 18.6027C117.597 18.6192 117.577 18.6426 117.565 18.6701L114.262 27.3817C114.25 27.4085 114.231 27.4314 114.207 27.4479C114.183 27.4643 114.154 27.4736 114.125 27.4747Z" fill="#101820"/>
<path d="M52.1236 27.4747H50.5726C50.5481 27.474 50.5242 27.4674 50.5027 27.4556C50.4812 27.4438 50.4628 27.4271 50.449 27.4068C50.4353 27.3865 50.4265 27.3633 50.4234 27.339C50.4204 27.3146 50.4232 27.2899 50.4315 27.2669L54.5275 16.6864C54.5439 16.6434 54.573 16.6064 54.611 16.5804C54.649 16.5543 54.694 16.5405 54.74 16.5407H56.6771C56.7231 16.5407 56.768 16.5546 56.8059 16.5806C56.8438 16.6067 56.873 16.6435 56.8896 16.6864L60.9825 27.2731C60.9908 27.2961 60.9936 27.3208 60.9906 27.3452C60.9875 27.3695 60.9787 27.3928 60.965 27.413C60.9512 27.4333 60.9328 27.45 60.9113 27.4618C60.8898 27.4736 60.8659 27.4802 60.8414 27.4809H59.2904C59.2595 27.4805 59.2293 27.4709 59.2039 27.4532C59.1784 27.4355 59.1589 27.4106 59.1477 27.3817L55.8458 18.6639C55.8337 18.6364 55.8138 18.613 55.7886 18.5965C55.7634 18.5801 55.734 18.5714 55.7039 18.5714C55.6738 18.5714 55.6444 18.5801 55.6192 18.5965C55.594 18.613 55.5741 18.6364 55.562 18.6639L52.2585 27.3755C52.2479 27.4032 52.2295 27.4273 52.2056 27.4449C52.1817 27.4625 52.1532 27.4728 52.1236 27.4747Z" fill="#101820"/>
<path d="M109.573 27.2281L106.501 23.3043C108.235 22.9755 109.249 21.8045 109.249 20.0085C109.249 17.9458 107.906 16.5406 105.527 16.5406H101.246C101.186 16.5406 101.128 16.5647 101.085 16.6074C101.042 16.6502 101.018 16.7082 101.018 16.7686C101.018 17.1557 101.172 17.5269 101.446 17.8006C101.719 18.0743 102.091 18.2281 102.478 18.2281H105.345C106.782 18.2281 107.469 18.9617 107.469 20.024C107.469 21.0864 106.797 21.8355 105.345 21.8355H101.246C101.186 21.8355 101.128 21.8596 101.085 21.9023C101.042 21.9451 101.018 22.0031 101.018 22.0635V27.3227C101.018 27.3639 101.035 27.4033 101.064 27.4324C101.093 27.4615 101.132 27.4778 101.173 27.4778H102.634C102.676 27.4778 102.715 27.4615 102.744 27.4324C102.773 27.4033 102.789 27.3639 102.789 27.3227V23.3958H104.477L107.144 26.8776C107.286 27.0628 107.468 27.2129 107.677 27.3162C107.886 27.4195 108.116 27.4732 108.35 27.4732H109.46C109.487 27.4709 109.514 27.4614 109.536 27.4457C109.559 27.43 109.577 27.4086 109.588 27.3836C109.6 27.3587 109.604 27.3312 109.602 27.3039C109.599 27.2766 109.589 27.2504 109.573 27.2281Z" fill="#101820"/>
<path d="M84.7691 27.2281L81.6967 23.3043C83.4306 22.9755 84.4465 21.8045 84.4465 20.0085C84.4465 17.9458 83.1034 16.5406 80.7242 16.5406H76.4421C76.3816 16.5406 76.3236 16.5647 76.2809 16.6074C76.2381 16.6502 76.2141 16.7082 76.2141 16.7686C76.2145 17.1556 76.3684 17.5265 76.642 17.8002C76.9156 18.0738 77.2866 18.2277 77.6735 18.2281H80.5412C81.9789 18.2281 82.666 18.9617 82.666 20.024C82.666 21.0864 81.9944 21.8355 80.5412 21.8355H76.4421C76.3816 21.8355 76.3236 21.8596 76.2809 21.9023C76.2381 21.9451 76.2141 22.0031 76.2141 22.0635V27.3227C76.2141 27.3639 76.2305 27.4033 76.2595 27.4324C76.2886 27.4615 76.3281 27.4778 76.3692 27.4778H77.8317C77.8729 27.4778 77.9123 27.4615 77.9414 27.4324C77.9705 27.4033 77.9868 27.3639 77.9868 27.3227V23.3958H79.6727L82.3403 26.8776C82.4821 27.0625 82.6646 27.2124 82.8735 27.3157C83.0824 27.419 83.3123 27.4728 83.5454 27.4732H84.6558C84.6832 27.4709 84.7095 27.4614 84.732 27.4457C84.7544 27.43 84.7724 27.4086 84.7839 27.3836C84.7954 27.3587 84.8001 27.3312 84.7975 27.3039C84.7949 27.2766 84.7851 27.2504 84.7691 27.2281Z" fill="#101820"/>
<path d="M33.6676 12.5393C34.1286 12.5378 34.5809 12.6654 34.9731 12.9078C35.3653 13.1501 35.6819 13.4974 35.8869 13.9103L42.8661 27.8687C43.0555 28.247 43.1449 28.6675 43.126 29.0902C43.1071 29.5128 42.9804 29.9236 42.758 30.2835C42.5356 30.6434 42.2249 30.9405 41.8554 31.1465C41.4859 31.3526 41.0698 31.4607 40.6467 31.4606H26.6884C26.2653 31.4607 25.8492 31.3526 25.4797 31.1465C25.1102 30.9405 24.7995 30.6434 24.5771 30.2835C24.3547 29.9236 24.2281 29.5128 24.2091 29.0902C24.1902 28.6675 24.2797 28.247 24.469 27.8687L31.4482 13.9103C31.6532 13.4974 31.9698 13.1501 32.362 12.9078C32.7543 12.6654 33.2065 12.5378 33.6676 12.5393ZM33.6676 10.8333C32.89 10.8332 32.1277 11.0496 31.4662 11.4583C30.8046 11.867 30.27 12.4518 29.9221 13.1472L22.9429 27.1056C22.6235 27.7441 22.4726 28.4536 22.5046 29.1668C22.5366 29.88 22.7504 30.5732 23.1257 31.1805C23.5009 31.7878 24.0253 32.2891 24.6488 32.6367C25.2724 32.9843 25.9745 33.1668 26.6884 33.1667H40.6467C41.3607 33.1668 42.0627 32.9843 42.6863 32.6367C43.3098 32.2891 43.8342 31.7878 44.2095 31.1805C44.5847 30.5732 44.7985 29.88 44.8305 29.1668C44.8625 28.4536 44.7117 27.7441 44.3922 27.1056L37.4131 13.1472C37.0652 12.4518 36.5305 11.867 35.869 11.4583C35.2074 11.0496 34.4452 10.8332 33.6676 10.8333Z" fill="#70D44B"/>
</svg>
