<svg width="146" height="44" viewBox="0 0 146 44" fill="none" xmlns="http://www.w3.org/2000/svg">
<rect x="0.5" width="145.5" height="44" rx="10" fill="#FBFBFB"/>
<g clip-path="url(#clip0_2639_1932)">
<path d="M39.7593 11.5689C40.2763 11.2972 41.0629 11.2972 41.5798 11.5689L46.8549 14.3409C47.1662 14.5045 47.3372 14.7484 47.3679 15H47.3729V28.9339C47.366 29.2085 47.1934 29.4811 46.8549 29.6591L41.5798 32.4312C41.0629 32.7029 40.2763 32.7029 39.7593 32.4312L34.4843 29.6591C34.1471 29.482 33.9854 29.2073 33.9774 28.9339C33.9766 28.907 33.9765 28.8846 33.9772 28.866L33.9772 15.0895C33.9767 15.0744 33.9766 15.0594 33.977 15.0444L33.9774 15L33.9797 15C34.0031 14.7456 34.1664 14.508 34.4843 14.3409L39.7593 11.5689ZM46.5425 22.7737L41.5798 25.3816C41.0629 25.6533 40.2763 25.6533 39.7593 25.3816L34.8075 22.7795V28.9064L39.7593 31.4948C40.0389 31.6435 40.3292 31.7884 40.6129 31.8069L40.6696 31.8087C40.9653 31.8097 41.2524 31.6603 41.5435 31.5189L46.5425 28.8841V22.7737ZM33.1194 28.631C33.1194 29.1648 33.1817 29.5157 33.3055 29.763C33.4082 29.9679 33.5622 30.1244 33.8433 30.315L33.8594 30.3258C33.9211 30.3672 33.989 30.4105 34.0718 30.4614L34.1694 30.5209L34.469 30.7008L34.0392 31.4077L33.7039 31.2062L33.6475 31.1718C33.5506 31.1121 33.4702 31.0611 33.3952 31.0107C32.5939 30.4732 32.295 29.8873 32.2892 28.6681L32.2891 28.631H33.1194ZM40.2543 19.039C40.2159 19.0521 40.1799 19.0673 40.1471 19.0845L34.872 21.8566C34.8665 21.8595 34.8612 21.8624 34.8562 21.8652L34.8517 21.8678L34.86 21.8725L34.872 21.879L40.1471 24.6511C40.1799 24.6684 40.2159 24.6835 40.2543 24.6967V19.039ZM41.0849 19.039V24.6967C41.1233 24.6835 41.1593 24.6684 41.1921 24.6511L46.4671 21.879C46.4727 21.8761 46.4779 21.8732 46.483 21.8704L46.4874 21.8678L46.4791 21.8631L46.4671 21.8566L41.1921 19.0845C41.1593 19.0673 41.1233 19.0521 41.0849 19.039ZM46.5425 15.9885L41.8104 18.4752L46.5425 20.9619V15.9885ZM34.8075 15.9943V20.9561L39.5286 18.4752L34.8075 15.9943ZM41.1921 12.2993C40.9177 12.1552 40.4214 12.1552 40.1471 12.2993L34.872 15.0714C34.8665 15.0743 34.8612 15.0772 34.8562 15.0801L34.8517 15.0826L34.86 15.0874L34.872 15.0939L40.1471 17.8659C40.4214 18.0101 40.9177 18.0101 41.1921 17.8659L46.4671 15.0939C46.4727 15.0909 46.4779 15.0881 46.483 15.0852L46.4874 15.0826L46.4791 15.0779L46.4671 15.0714L41.1921 12.2993ZM47.3221 12.6033L47.6574 12.8049L47.7138 12.8393C47.8107 12.8988 47.8911 12.95 47.9661 13.0003C48.7674 13.5378 49.0663 14.1238 49.0721 15.3429L49.0722 15.38H48.2419C48.2419 14.8462 48.1796 14.4953 48.0558 14.2481C47.9531 14.0432 47.7992 13.8866 47.518 13.6961L47.5019 13.6853C47.4402 13.6439 47.3723 13.6005 47.2895 13.5496L47.1919 13.4901L46.8923 13.3102L47.3221 12.6033Z" fill="#1F6AF8"/>
<path d="M57.5071 28.3531V20.5824H59.662V19.1596H57.5071V18.1381C57.5071 16.9828 58.0124 16.4052 59.0229 16.4052C59.315 16.4052 59.6256 16.4539 59.9543 16.5511V15.0371C59.5525 14.9155 59.1081 14.8547 58.6211 14.8547C57.6837 14.8547 56.9562 15.1223 56.4388 15.6573C55.9213 16.1924 55.6626 16.9707 55.6626 17.9922V19.1596H53.8912V20.5824H55.6626V28.3531H57.5071ZM64.9946 28.4807C65.7008 28.4807 66.3186 28.3348 66.8482 28.0428C67.3778 27.7511 67.7766 27.3315 68.0444 26.7843V28.3531H69.8707V19.1596H68.0444V20.6553C67.7643 20.1081 67.3626 19.6855 66.839 19.3876C66.3156 19.0897 65.7008 18.9407 64.9946 18.9407C64.2033 18.9407 63.497 19.1413 62.8762 19.5426C62.2552 19.9439 61.7714 20.5094 61.4244 21.239C61.0774 21.9687 60.9039 22.8078 60.9039 23.7563C60.9039 24.7048 61.0743 25.5348 61.4153 26.2462C61.7561 26.9576 62.234 27.5078 62.8488 27.897C63.4636 28.2861 64.1788 28.4807 64.9946 28.4807ZM65.4329 27.0214C64.5928 27.0214 63.9384 26.7356 63.4698 26.1641C63.001 25.5926 62.7665 24.7899 62.7665 23.7563C62.7665 22.7105 63.001 21.8927 63.4698 21.3029C63.9384 20.7131 64.5868 20.4182 65.4146 20.4182C66.2546 20.4182 66.903 20.704 67.3595 21.2755C67.8161 21.8471 68.0444 22.6618 68.0444 23.7198C68.0444 24.7656 67.8161 25.5773 67.3595 26.155C66.903 26.7326 66.2608 27.0214 65.4329 27.0214ZM74.3996 28.3531V23.1179C74.3996 22.3031 74.6339 21.6525 75.1027 21.1661C75.5715 20.6797 76.1954 20.4365 76.9746 20.4365C77.6564 20.4365 78.1524 20.6189 78.463 20.9837C78.7734 21.3485 78.9286 21.9322 78.9286 22.7348V28.3531H80.7731V22.6254C80.7731 20.1689 79.6712 18.9407 77.4676 18.9407C76.7616 18.9407 76.1314 19.0957 75.5774 19.4058C75.0236 19.7159 74.6005 20.1628 74.3082 20.7465L74.1439 19.1596H72.4273C72.5247 19.9257 72.5734 20.7891 72.5734 21.7498V28.3531H74.3996ZM86.9456 28.4807C87.4569 28.4807 87.9136 28.4139 88.3154 28.2801V26.7843C87.9865 26.8816 87.664 26.9302 87.3474 26.9302C86.8604 26.9302 86.48 26.7995 86.206 26.538C85.9322 26.2766 85.7951 25.8297 85.7951 25.1973V20.5824H88.3337V19.1596H85.7951V16.2228L83.9507 16.8612V19.1596H82.1609V20.5824H83.9507V25.3432C83.9507 26.3647 84.2125 27.143 84.7359 27.6781C85.2595 28.2132 85.996 28.4807 86.9456 28.4807ZM93.9949 28.4807C94.8836 28.4807 95.6689 28.2861 96.3507 27.897C97.0325 27.5078 97.5589 26.9545 97.9303 26.2371C98.3017 25.5196 98.4873 24.6805 98.4873 23.7198C98.4873 22.7591 98.3017 21.917 97.9303 21.1934C97.5589 20.4699 97.0325 19.9136 96.3507 19.5244C95.6689 19.1353 94.8836 18.9407 93.9949 18.9407C93.0939 18.9407 92.3026 19.1353 91.6208 19.5244C90.939 19.9136 90.4124 20.4699 90.041 21.1934C89.6698 21.917 89.484 22.7591 89.484 23.7198C89.484 24.6805 89.6698 25.5196 90.041 26.2371C90.4124 26.9545 90.939 27.5078 91.6208 27.897C92.3026 28.2861 93.0939 28.4807 93.9949 28.4807ZM93.9766 27.0214C93.1365 27.0214 92.4882 26.7417 92.0316 26.1823C91.5751 25.6229 91.3468 24.8021 91.3468 23.7198C91.3468 22.6618 91.5781 21.8471 92.0407 21.2755C92.5034 20.704 93.1547 20.4182 93.9949 20.4182C94.8228 20.4182 95.465 20.704 95.9215 21.2755C96.3781 21.8471 96.6063 22.6618 96.6063 23.7198C96.6063 24.8021 96.3811 25.6229 95.9306 26.1823C95.4801 26.7417 94.8287 27.0214 93.9766 27.0214ZM102.468 28.3531V23.1543C102.468 22.3153 102.675 21.6525 103.089 21.1661C103.503 20.6797 104.063 20.4365 104.77 20.4365C105.378 20.4365 105.82 20.6189 106.093 20.9837C106.367 21.3485 106.504 21.9261 106.504 22.7166V28.3531H108.349V23.1543C108.349 22.3153 108.553 21.6525 108.961 21.1661C109.368 20.6797 109.925 20.4365 110.632 20.4365C111.24 20.4365 111.682 20.6189 111.956 20.9837C112.23 21.3485 112.367 21.9261 112.367 22.7166V28.3531H114.211V22.6254C114.211 20.1689 113.188 18.9407 111.143 18.9407C110.461 18.9407 109.849 19.0988 109.308 19.415C108.766 19.7311 108.355 20.1628 108.075 20.7101C107.637 19.5305 106.705 18.9407 105.281 18.9407C104.611 18.9407 104.027 19.0927 103.528 19.3967C103.028 19.7007 102.645 20.1324 102.377 20.6918L102.213 19.1596H100.496C100.594 19.9257 100.642 20.7891 100.642 21.7498V28.3531H102.468Z" fill="#1F6AF8"/>
</g>
<defs>
<clipPath id="clip0_2639_1932">
<rect width="81.9219" height="21.2698" fill="white" transform="translate(32.2891 11.3651)"/>
</clipPath>
</defs>
</svg>
