<svg width="147" height="44" viewBox="0 0 147 44" fill="none" xmlns="http://www.w3.org/2000/svg">
<rect width="146.308" height="44" rx="5.95873" fill="#FBFBFB"/>
<rect width="146.308" height="44" rx="5.95873" fill="#FBFBFB"/>
<g clip-path="url(#clip0_2639_5925)">
<path d="M52.8998 18.8835H53.8592L56.5436 25.1149H55.2762L54.6953 23.6891H51.9933L51.43 25.1149H50.189L52.8998 18.8835ZM54.3081 22.7386L53.3487 20.2038L52.3717 22.7386H54.3081Z" fill="black"/>
<path d="M57.733 18.8835H59.0092L60.7079 23.5923L62.4593 18.8835H63.6565L61.1392 25.1149H60.1799L57.733 18.8835Z" fill="black"/>
<path d="M67.6198 18.8835H68.5793L71.2635 25.1149H69.9962L69.4154 23.6891H66.7133L66.1499 25.1149H64.9091L67.6198 18.8835ZM69.028 22.7386L68.0687 20.2038L67.0918 22.7386H69.028Z" fill="black"/>
<path d="M73.7164 18.8834H74.8255V24.1114H77.4746V25.1148H73.7164V18.8834Z" fill="black"/>
<path d="M82.0559 18.8834H83.0155L85.6997 25.1148H84.4323L83.8516 23.689H81.1494L80.586 25.1148H79.3452L82.0559 18.8834ZM83.4642 22.7384L82.5049 20.2036L81.5279 22.7384H83.4642Z" fill="black"/>
<path d="M88.1528 18.8835H89.6227L92.6415 23.5131H92.6592V18.8835H93.7679V25.1149H92.36L89.2793 20.3358H89.2619V25.1149H88.1528V18.8835Z" fill="black"/>
<path d="M101.195 20.3445C100.967 20.0981 100.744 19.9338 100.527 19.8517C100.315 19.7695 100.101 19.7285 99.8842 19.7285C99.5615 19.7285 99.2681 19.7871 99.0039 19.9045C98.7459 20.016 98.5229 20.1744 98.335 20.3798C98.1472 20.5792 98.0007 20.814 97.8949 21.0839C97.7952 21.3538 97.7454 21.6442 97.7454 21.9552C97.7454 22.2896 97.7952 22.5977 97.8949 22.8793C98.0007 23.161 98.1472 23.4045 98.335 23.6099C98.5229 23.8152 98.7459 23.9766 99.0039 24.0939C99.2681 24.2113 99.5615 24.27 99.8842 24.27C100.136 24.27 100.38 24.2113 100.615 24.0939C100.855 23.9707 101.078 23.7771 101.284 23.513L102.199 24.1643C101.917 24.5516 101.574 24.8333 101.169 25.0093C100.764 25.1853 100.333 25.2733 99.8754 25.2733C99.3941 25.2733 98.9512 25.197 98.5464 25.0445C98.1472 24.8861 97.801 24.666 97.5078 24.3844C97.2202 24.0969 96.9942 23.7536 96.8301 23.3546C96.6657 22.9556 96.5836 22.5126 96.5836 22.0256C96.5836 21.5269 96.6657 21.0751 96.8301 20.6702C96.9942 20.2595 97.2202 19.9103 97.5078 19.6228C97.801 19.3353 98.1472 19.1153 98.5464 18.9627C98.9512 18.8043 99.3941 18.7251 99.8754 18.7251C100.298 18.7251 100.688 18.8014 101.046 18.9539C101.41 19.1006 101.747 19.3529 102.058 19.7109L101.195 20.3445Z" fill="black"/>
<path d="M104.704 18.8834H105.813V21.3654H108.726V18.8834H109.835V25.1148H108.726V22.3688H105.813V25.1148H104.704V18.8834Z" fill="black"/>
<path d="M112.987 18.8835H117.115V19.8869H114.096V21.4183H116.957V22.4217H114.096V24.1116H117.274V25.1149H112.987V18.8835Z" fill="black"/>
<path fill-rule="evenodd" clip-rule="evenodd" d="M46.9062 22C46.9062 26.9363 42.9045 30.9381 37.9681 30.9381C33.0318 30.9381 29.03 26.9363 29.03 22C29.03 17.0636 33.0318 13.0619 37.9681 13.0619C42.9045 13.0619 46.9062 17.0636 46.9062 22ZM35.4353 25.5567H33.7007C33.3362 25.5567 33.1562 25.5567 33.0464 25.4864C32.9278 25.4096 32.8553 25.2822 32.8466 25.1417C32.84 25.0122 32.93 24.8541 33.1101 24.5379L37.3931 16.9885C37.5753 16.6679 37.6675 16.5076 37.7839 16.4483C37.9091 16.3846 38.0584 16.3846 38.1835 16.4483C38.2999 16.5076 38.3921 16.6679 38.5744 16.9885L39.4549 18.5255L39.4594 18.5333C39.6562 18.8773 39.756 19.0517 39.7996 19.2347C39.8479 19.4345 39.8479 19.6453 39.7996 19.8451C39.7557 20.0296 39.6569 20.2052 39.4571 20.5544L37.2073 24.5313L37.2015 24.5415C37.0033 24.8882 36.9029 25.064 36.7638 25.1966C36.6123 25.3415 36.43 25.4469 36.2302 25.5062C36.048 25.5567 35.8438 25.5567 35.4353 25.5567ZM39.8159 25.5569H42.3015C42.6681 25.5569 42.8526 25.5569 42.9624 25.4845C43.0809 25.4076 43.1556 25.278 43.1622 25.1375C43.1685 25.0122 43.0805 24.8603 42.9079 24.5625C42.902 24.5523 42.896 24.542 42.8899 24.5315L41.6449 22.4016L41.6307 22.3777C41.4558 22.0818 41.3674 21.9324 41.2541 21.8747C41.1289 21.811 40.9818 21.811 40.8567 21.8747C40.7425 21.9339 40.6502 22.0898 40.468 22.4038L39.2274 24.5337L39.2232 24.541C39.0415 24.8545 38.9508 25.0112 38.9573 25.1397C38.9661 25.2802 39.0386 25.4098 39.1571 25.4866C39.2647 25.5569 39.4492 25.5569 39.8159 25.5569Z" fill="#E84142"/>
</g>
<defs>
<clipPath id="clip0_2639_5925">
<rect width="88.2481" height="17.8762" fill="white" transform="translate(29.03 13.0619)"/>
</clipPath>
</defs>
</svg>
