<svg width="147" height="44" viewBox="0 0 147 44" fill="none" xmlns="http://www.w3.org/2000/svg">
<rect width="146.308" height="44" rx="5.95873" fill="#FBFBFB"/>
<rect width="146.308" height="44" rx="5.95873" fill="#FBFBFB"/>
<path d="M58.1877 15.0276H61.3036C62.0953 15.0276 62.6742 15.2405 63.0488 15.6065C63.4149 15.9215 63.5766 16.3472 63.5766 16.7643C63.5766 16.9261 63.5766 17.1304 63.5255 17.2922C63.4234 17.5561 63.2616 17.82 63.0488 18.0328C62.9466 18.135 62.836 18.1946 62.7338 18.2456C63.0999 18.3478 63.4234 18.5606 63.6873 18.8245C63.9001 19.0884 64.0023 19.4034 64.0023 19.8802C64.0023 20.1441 63.9512 20.4591 63.8405 20.6719C63.7384 20.8847 63.5255 21.0976 63.3127 21.2508C63.0488 21.4126 62.7849 21.5147 62.521 21.6169C62.206 21.719 61.8314 21.719 61.4653 21.719H58.2388V15.0106H58.1877V15.0276ZM61.0397 17.7689C61.3036 17.7689 61.5675 17.7178 61.8314 17.6071C62.0442 17.505 62.1464 17.2922 62.1464 17.0793C62.1464 16.8665 62.0442 16.6537 61.8825 16.5515C61.6696 16.3898 61.4057 16.3387 61.1418 16.3898H59.6605V17.8115H61.0312V17.7689H61.0397ZM61.4057 20.4676C61.6696 20.4676 61.9336 20.4165 62.1975 20.3058C62.4103 20.2037 62.5125 19.9908 62.4614 19.7269C62.4614 19.5141 62.3592 19.3013 62.1975 19.1991C62.0357 19.097 61.7207 18.9863 61.3547 18.9863H59.6095V20.4676H61.4057Z" fill="#F3BA2F"/>
<path d="M65.8413 15.0276H67.3226V21.7871H65.8413V15.0276Z" fill="#F3BA2F"/>
<path d="M69.5953 15.0276H70.966L74.1329 19.1991V15.0276H75.6057V21.7871H74.3457L71.017 17.5049V21.7871H69.5953V15.0276Z" fill="#F3BA2F"/>
<path d="M80.1006 14.9766H81.4713L84.3743 21.7871H82.8419L82.2119 20.2548H79.36L78.73 21.7871H77.1976L80.1006 14.9766ZM81.6841 18.9863L80.7902 16.7728L79.8963 18.9863H81.6841Z" fill="#F3BA2F"/>
<path d="M85.9579 15.0276H87.3285L90.4954 19.1991V15.0276H91.9767V21.7871H90.7083L87.4307 17.5049V21.7871H85.9579V15.0276Z" fill="#F3BA2F"/>
<path d="M97.357 21.8893C96.8803 21.8893 96.4035 21.7872 95.9864 21.6254C95.1436 21.2594 94.5051 20.6209 94.139 19.7781C93.9773 19.3524 93.8751 18.8842 93.8751 18.4074C93.8751 17.5136 94.2412 16.6112 94.8797 15.9301C95.1947 15.6151 95.5693 15.3512 95.9864 15.1894C96.4631 14.9766 96.9399 14.9255 97.4081 14.9255C97.672 14.9255 97.987 14.9255 98.2509 14.9766C98.5148 15.0277 98.7276 15.0788 98.9405 15.1894C99.1533 15.2916 99.3661 15.4023 99.5194 15.5044C99.6811 15.6066 99.8854 15.7683 100.047 15.9301L99.1533 17.0368C98.8894 16.824 98.6255 16.6112 98.3616 16.4579C98.0977 16.3047 97.7827 16.2451 97.4677 16.2451C97.2038 16.2451 96.9399 16.2962 96.676 16.4068C96.4121 16.509 96.1992 16.6707 96.046 16.8836C95.8928 17.0964 95.731 17.3092 95.6203 17.5731C95.5182 17.8371 95.4586 18.101 95.4586 18.3649C95.4586 18.6288 95.5097 18.9438 95.6203 19.2077C95.731 19.4716 95.8332 19.6844 96.046 19.8972C96.4121 20.3229 96.9399 20.5272 97.4677 20.5272C97.7827 20.5272 98.1573 20.4761 98.4723 20.3144C98.7362 20.1526 99.0512 19.9483 99.264 19.7355L100.209 20.6805C100.047 20.8422 99.8429 21.0465 99.6811 21.2083C99.4683 21.37 99.2555 21.4722 99.0512 21.5744C98.8383 21.6765 98.5744 21.7872 98.3105 21.8383C97.9359 21.8893 97.6209 21.8893 97.357 21.8893Z" fill="#F3BA2F"/>
<path d="M101.903 15.0276H106.968V16.3471H103.325V17.7178H106.543V19.0373H103.325V20.4675H107.019V21.7871H101.903V15.0276Z" fill="#F3BA2F"/>
<path d="M60.0861 28.436C59.7201 28.436 59.3455 28.3849 59.0305 28.2232C58.7155 28.121 58.4005 27.9082 58.077 27.6443L58.6048 27.0654C58.8177 27.2782 59.0305 27.3804 59.2944 27.5421C59.5583 27.6443 59.8222 27.7039 60.0861 27.7039C60.299 27.7039 60.5118 27.6528 60.7161 27.5421C60.8779 27.4399 60.929 27.2782 60.929 27.1164C60.929 27.0654 60.9289 26.9547 60.8779 26.9036C60.8268 26.8525 60.7757 26.7419 60.7161 26.6908C60.614 26.6397 60.5033 26.5886 60.4011 26.529C60.2394 26.478 60.0351 26.4269 59.8733 26.3673C59.6605 26.3162 59.3966 26.2651 59.1837 26.1545C59.022 26.1034 58.8177 25.9927 58.707 25.8905C58.6048 25.7884 58.4942 25.6777 58.392 25.5245C58.2899 25.3116 58.2899 25.0988 58.2899 24.9456C58.2899 24.7327 58.3409 24.5795 58.392 24.3667C58.4431 24.2049 58.6048 24.0517 58.707 23.941C58.8688 23.8389 59.022 23.7282 59.2348 23.6771C59.4477 23.626 59.6605 23.575 59.8648 23.575C60.1798 23.575 60.4948 23.626 60.8183 23.7367C61.0822 23.8389 61.3461 24.0006 61.61 24.1624L61.1843 24.7923C60.9715 24.6306 60.7587 24.5284 60.5544 24.4263C60.3415 24.3241 60.1287 24.3241 59.9244 24.3241C59.7116 24.3241 59.4987 24.3752 59.3455 24.4859C59.2433 24.588 59.1327 24.7498 59.1327 24.9115C59.1327 25.0137 59.1327 25.0733 59.1837 25.1754C59.2348 25.2265 59.2859 25.3372 59.3455 25.3883C59.4477 25.4393 59.5583 25.4904 59.7116 25.55C59.8733 25.6011 60.0266 25.6522 60.2905 25.7118C60.5033 25.7628 60.7161 25.8139 60.98 25.9246C61.1418 25.9757 61.295 26.0863 61.4568 26.1885C61.5589 26.2907 61.6696 26.4524 61.7207 26.5546C61.7718 26.7163 61.8228 26.8696 61.8228 27.0824C61.8228 27.2952 61.7718 27.5081 61.7207 27.6613C61.6185 27.823 61.5078 27.9763 61.3546 28.138C61.1929 28.2402 61.0396 28.3509 60.8268 28.4019C60.5629 28.3849 60.299 28.436 60.0861 28.436Z" fill="#F3BA2F"/>
<path d="M62.7253 23.6345H63.6277L65.0494 25.848L66.5307 23.6345H67.4246V28.3849H66.5818V24.9541L65.1005 27.1675H65.0494L63.5767 24.9541V28.3849H62.7253V23.6345Z" fill="#F3BA2F"/>
<path d="M70.2767 23.5835H71.0684L73.1286 28.3339H72.2347L71.758 27.1761H69.5445L69.0678 28.3339H68.225L70.2767 23.5835ZM71.494 26.4865L70.6512 24.5881L69.8595 26.4865H71.494Z" fill="#F3BA2F"/>
<path d="M73.9714 23.6344H76.0826C76.3465 23.6344 76.6105 23.6855 76.8744 23.7366C77.0872 23.7876 77.3 23.9494 77.4533 24.1026C77.5554 24.2048 77.6661 24.3665 77.7683 24.5794C77.8193 24.7411 77.8704 24.9454 77.8704 25.1583C77.8704 25.32 77.8193 25.5243 77.7683 25.6861C77.7172 25.8478 77.6065 25.95 77.5554 26.1117C77.4533 26.2139 77.3426 26.3246 77.1894 26.4267C77.0276 26.5289 76.8744 26.5885 76.7126 26.6396L77.9811 28.4358H76.9765L75.8187 26.8013H74.7631V28.4358H73.9203L73.9714 23.6344ZM76.0316 25.9585C76.2955 25.9585 76.5594 25.9074 76.7211 25.7457C76.8829 25.5839 76.985 25.3796 76.985 25.1668C76.985 24.9539 76.8829 24.7411 76.7211 24.5879C76.5083 24.4261 76.2444 24.375 75.9805 24.375H74.7631V25.9585H76.0316Z" fill="#F3BA2F"/>
<path d="M80.0412 24.375H78.5088V23.6344H82.3653V24.375H80.8329V28.3848H79.9901L80.0412 24.375Z" fill="#F3BA2F"/>
<path d="M87.4901 28.436C87.1751 28.436 86.8601 28.3849 86.5366 28.2232C85.9577 27.9593 85.481 27.5336 85.2681 26.9547C85.166 26.6397 85.0553 26.3247 85.1064 26.0012C85.1064 25.6862 85.1575 25.3713 85.2681 25.0478C85.481 24.4689 85.9577 23.9921 86.5366 23.7282C86.8516 23.6261 87.1666 23.5154 87.5412 23.5154C87.754 23.5154 87.9668 23.5154 88.1201 23.5665C88.2818 23.6175 88.435 23.6686 88.5968 23.7282C88.7585 23.7793 88.8607 23.89 89.0224 23.941C89.1246 24.0432 89.2864 24.1539 89.3885 24.256L88.8607 24.886C88.699 24.7243 88.4946 24.571 88.2818 24.4603C88.069 24.3582 87.8051 24.2986 87.5412 24.2986C87.3283 24.2986 87.1155 24.3497 86.9112 24.4008C86.6983 24.5029 86.5451 24.6136 86.3834 24.7668C86.2216 24.9286 86.1195 25.0818 86.0684 25.2946C86.0173 25.5075 85.9662 25.7203 85.9662 25.9246C85.9662 26.1374 86.0173 26.3503 86.0684 26.5546C86.1195 26.7589 86.2301 26.9207 86.3834 27.0824C86.5451 27.2442 86.6983 27.3463 86.9112 27.4485C87.124 27.5506 87.3368 27.6102 87.5412 27.5506C87.8051 27.5506 88.069 27.4996 88.2818 27.3889C88.4946 27.2867 88.7075 27.125 88.9118 26.9122L89.4396 27.44C89.3374 27.5421 89.1757 27.7039 89.0735 27.806C88.9118 27.9082 88.8096 28.0189 88.6479 28.0699C88.4861 28.121 88.3329 28.2317 88.1201 28.2317C87.9072 28.436 87.6944 28.436 87.4901 28.436Z" fill="#F3BA2F"/>
<path d="M90.2825 23.6344H91.0742V25.5839H93.3472V23.6344H94.19V28.3848H93.3472V26.3756H91.0742V28.3848H90.2825V23.6344Z" fill="#F3BA2F"/>
<path d="M97.0933 23.5835H97.885L99.9452 28.3339H99.0513L98.5746 27.1761H96.3612L95.8844 28.3339H95.0416L97.0933 23.5835ZM98.2596 26.4865L97.4679 24.5881L96.6762 26.4865H98.2596Z" fill="#F3BA2F"/>
<path d="M100.788 23.6345H101.639V28.3849H100.788V23.6345Z" fill="#F3BA2F"/>
<path d="M102.899 23.6344H103.64L106.177 26.9035V23.6344H107.019V28.3848H106.33L103.75 25.005V28.3848H102.899V23.6344Z" fill="#F3BA2F"/>
<path d="M48.9 28.0699V30.1301L47.1037 31.1857L45.3585 30.1301V28.0699L47.1037 29.1255L48.9 28.0699ZM39.2886 20.9443L41.0338 22V25.5329L44.0389 27.3292V29.3894L39.2886 26.5886V20.9443ZM54.9188 20.9443V26.5971L50.1174 29.3979V27.3377L53.1225 25.5415V22.0085L54.9188 20.9443ZM50.1089 18.1435L51.9051 19.1991V21.2593L48.9 23.0556V26.6397L47.1548 27.6953L45.4181 26.6397V23.0471L42.3022 21.2508V19.1906L44.0985 18.135L47.1037 19.9312L50.1089 18.1435ZM42.3022 22.7321L44.0475 23.7877V25.8479L42.3022 24.7923V22.7321ZM51.9051 22.7321V24.7923L50.1599 25.8479V23.7877L51.9051 22.7321ZM41.0338 16.3472L42.8301 17.4028L41.0338 18.4585V20.5187L39.2886 19.463V17.4028L41.0338 16.3472ZM53.1736 16.3472L54.9699 17.4028V19.463L53.1736 20.5187V18.4585L51.4284 17.4028L53.1736 16.3472ZM47.1037 16.3472L48.9 17.4028L47.1037 18.4585L45.3585 17.4028L47.1037 16.3472ZM47.1037 12.8142L51.9051 15.6151L50.1599 16.6707L47.1548 14.8744L44.09 16.6707L42.3448 15.6151L47.1037 12.8142Z" fill="#F3BA2F"/>
</svg>
