<svg width="147" height="44" viewBox="0 0 147 44" fill="none" xmlns="http://www.w3.org/2000/svg">
<rect x="0.691772" width="146.308" height="44" rx="5.95873" fill="#FBFBFB"/>
<rect x="0.691772" width="146.308" height="44" rx="5.95873" fill="#FBFBFB"/>
<path d="M59.4278 17.1477C59.3632 17.0832 59.3263 17.0094 59.3263 16.9264C59.3263 16.8433 59.3632 16.7695 59.4278 16.705C59.5663 16.585 59.7693 16.585 59.8986 16.705C59.9632 16.7695 60.0001 16.8433 60.0001 16.9264C60.0001 17.0094 59.9632 17.0832 59.8986 17.1477C59.834 17.2031 59.7416 17.2308 59.6586 17.2308C59.5755 17.2492 59.4924 17.2123 59.4278 17.1477ZM58.5971 18.0241C58.5417 17.9595 58.514 17.8857 58.514 17.8027C58.514 17.7197 58.5509 17.6459 58.5971 17.5813C58.7171 17.4614 58.9201 17.4614 59.0401 17.5813C59.0955 17.6459 59.1232 17.7197 59.1232 17.8027C59.1232 17.8857 59.0863 17.9595 59.0401 18.0241C58.9755 18.0795 58.9017 18.1071 58.8186 18.1071C58.7355 18.1071 58.6617 18.0795 58.5971 18.0241ZM57.6925 18.8912C57.6371 18.8359 57.6094 18.7529 57.6094 18.6698C57.6094 18.5868 57.6463 18.513 57.6925 18.4484C57.8125 18.3285 58.0155 18.3285 58.1355 18.4484C58.1909 18.5038 58.2186 18.5868 58.2186 18.6698C58.2186 18.7529 58.1817 18.8267 58.1355 18.8912C58.0709 18.9558 57.9971 18.9743 57.914 18.9743C57.8309 18.9743 57.7478 18.9466 57.6925 18.8912ZM56.834 19.7584C56.7694 19.703 56.7325 19.62 56.7325 19.537C56.7325 19.4539 56.7694 19.3802 56.834 19.3156C56.9725 19.1957 57.1756 19.1957 57.3048 19.3156C57.3694 19.3709 57.4063 19.4539 57.4063 19.537C57.4063 19.62 57.3694 19.703 57.3048 19.7584C57.2402 19.8229 57.1479 19.8414 57.0648 19.8414C56.9817 19.8414 56.8986 19.8229 56.834 19.7584ZM56.0033 20.6163C55.9387 20.5609 55.9202 20.4779 55.9202 20.3949C55.9202 20.3119 55.9571 20.2381 56.0033 20.1735C56.1233 20.0536 56.3263 20.0536 56.4463 20.1735C56.511 20.2288 56.5294 20.3119 56.5294 20.3949C56.5294 20.4779 56.4925 20.5609 56.4463 20.6163C56.391 20.6808 56.3079 20.6993 56.2248 20.6993C56.1325 20.7177 56.0494 20.6901 56.0033 20.6163ZM54.9971 21.262C54.9971 21.179 55.0341 21.1052 55.0802 21.0406C55.2002 20.9207 55.4033 20.9207 55.5233 21.0406C55.5879 21.1052 55.6064 21.179 55.6064 21.262C55.6064 21.345 55.5694 21.4188 55.5233 21.4834C55.4679 21.5388 55.3848 21.5664 55.3018 21.5664C55.2187 21.5664 55.1448 21.5295 55.0802 21.4834C55.0341 21.4373 54.9971 21.345 54.9971 21.262ZM53.391 23.1808C53.3356 23.1254 53.308 23.0424 53.308 22.9594C53.308 22.8764 53.3449 22.8026 53.391 22.738C53.511 22.6181 53.7141 22.6181 53.8341 22.738C53.8987 22.8026 53.9172 22.8764 53.9172 22.9594C53.9172 23.0424 53.8803 23.1162 53.8341 23.1808C53.7787 23.2453 53.6956 23.2638 53.6126 23.2638C53.5203 23.2822 53.4556 23.2453 53.391 23.1808ZM52.4864 24.0479C52.4218 23.9926 52.3849 23.9095 52.3849 23.8265C52.3849 23.7435 52.4218 23.6697 52.4864 23.6051C52.6249 23.4852 52.828 23.4852 52.9572 23.6051C53.0218 23.6697 53.0587 23.7435 53.0587 23.8265C53.0587 23.9095 53.0218 23.9833 52.9572 24.0479C52.8926 24.1125 52.8003 24.1309 52.7172 24.1309C52.6434 24.1494 52.5603 24.1125 52.4864 24.0479ZM51.6557 24.9243C51.6003 24.8689 51.5726 24.7859 51.5726 24.7029C51.5726 24.6198 51.6095 24.5368 51.6557 24.4815C51.7757 24.3615 51.9788 24.3615 52.0988 24.4815C52.1541 24.5368 52.1818 24.6198 52.1818 24.7029C52.1818 24.7859 52.1449 24.8597 52.0988 24.9243C52.0341 24.9888 51.9603 25.0073 51.8772 25.0073C51.7941 25.0073 51.7295 24.9796 51.6557 24.9243ZM50.7972 25.7914C50.7326 25.736 50.7142 25.653 50.7142 25.57C50.7142 25.487 50.7511 25.4132 50.7972 25.3486C50.9172 25.2287 51.1203 25.2287 51.2403 25.3486C51.2957 25.4132 51.3234 25.487 51.3234 25.57C51.3234 25.653 51.2865 25.736 51.2403 25.7914C51.1757 25.856 51.1019 25.8744 51.0188 25.8744C50.9265 25.8744 50.8434 25.856 50.7972 25.7914ZM49.8927 26.6585C49.828 26.6032 49.7911 26.5202 49.7911 26.4371C49.7911 26.3541 49.828 26.2803 49.8927 26.2157C50.0311 26.0958 50.2342 26.0958 50.3542 26.2157C50.4188 26.2803 50.4557 26.3541 50.4557 26.4371C50.4557 26.5202 50.4188 26.6032 50.3542 26.6585C50.2896 26.7139 50.1973 26.7415 50.1142 26.7415C50.0311 26.7415 49.948 26.7231 49.8927 26.6585ZM49.0434 27.5164C48.9788 27.4519 48.9604 27.3781 48.9604 27.295C48.9604 27.212 48.9973 27.1382 49.0434 27.0736C49.1634 26.9537 49.3665 26.9537 49.4865 27.0736C49.5511 27.1382 49.5696 27.212 49.5696 27.295C49.5696 27.3781 49.5327 27.4519 49.4865 27.5164C49.4311 27.5718 49.3481 27.5995 49.265 27.5995C49.2004 27.6179 49.1173 27.5902 49.0434 27.5164ZM49.4865 17.1477C49.5419 17.0832 49.5696 17.0094 49.5696 16.9264C49.5696 16.8433 49.5327 16.7695 49.4865 16.705C49.3665 16.585 49.1634 16.585 49.0434 16.705C48.9788 16.7695 48.9604 16.8433 48.9604 16.9264C48.9604 17.0094 48.9973 17.0832 49.0434 17.1477C49.0988 17.2031 49.1819 17.2308 49.265 17.2308C49.3481 17.2492 49.4311 17.2123 49.4865 17.1477ZM50.3542 18.0241C50.4188 17.9595 50.4557 17.8857 50.4557 17.8027C50.4557 17.7197 50.4188 17.6459 50.3542 17.5813C50.2157 17.4614 50.0127 17.4614 49.8834 17.5813C49.8188 17.6459 49.7819 17.7197 49.7819 17.8027C49.7819 17.8857 49.8188 17.9595 49.8834 18.0241C49.948 18.0795 50.0403 18.1071 50.1234 18.1071C50.1973 18.1071 50.2803 18.0795 50.3542 18.0241ZM51.2311 18.8912C51.2865 18.8359 51.3142 18.7529 51.3142 18.6698C51.3142 18.5868 51.2772 18.513 51.2311 18.4484C51.1111 18.3285 50.908 18.3285 50.788 18.4484C50.7326 18.5038 50.7049 18.5868 50.7049 18.6698C50.7049 18.7529 50.7419 18.8267 50.788 18.8912C50.8526 18.9558 50.9265 18.9743 51.0096 18.9743C51.0834 18.9743 51.1665 18.9466 51.2311 18.8912ZM52.0988 19.7584C52.1541 19.703 52.1818 19.62 52.1818 19.537C52.1818 19.4539 52.1449 19.3802 52.0988 19.3156C51.9788 19.1957 51.7757 19.1957 51.6557 19.3156C51.6003 19.3709 51.5726 19.4539 51.5726 19.537C51.5726 19.62 51.6095 19.703 51.6557 19.7584C51.7203 19.8229 51.7941 19.8414 51.8772 19.8414C51.9418 19.8414 52.0341 19.8229 52.0988 19.7584ZM52.948 20.6163C53.0126 20.5609 53.0495 20.4779 53.0495 20.3949C53.0495 20.3119 53.0126 20.2381 52.948 20.1735C52.828 20.0536 52.6064 20.0536 52.4864 20.1735C52.4218 20.2288 52.3849 20.3119 52.3849 20.3949C52.3849 20.4779 52.4218 20.5609 52.4864 20.6163C52.5511 20.6808 52.6434 20.6993 52.7264 20.6993C52.8095 20.7177 52.8926 20.6901 52.948 20.6163ZM53.9172 21.262C53.9172 21.179 53.8803 21.1052 53.8341 21.0406C53.7141 20.9207 53.511 20.9207 53.391 21.0406C53.3264 21.1052 53.308 21.179 53.308 21.262C53.308 21.345 53.3449 21.4188 53.391 21.4834C53.4464 21.5388 53.5295 21.5664 53.6126 21.5664C53.6956 21.5664 53.7695 21.5295 53.8341 21.4834C53.8987 21.4373 53.9172 21.345 53.9172 21.262ZM54.6925 22.369C54.7572 22.3044 54.7756 22.2306 54.7756 22.1476C54.7756 22.0646 54.7387 21.9908 54.6925 21.9262C54.5725 21.8063 54.3695 21.8063 54.2495 21.9262C54.1849 21.9908 54.1664 22.0646 54.1664 22.1476C54.1664 22.2306 54.2033 22.3044 54.2495 22.369C54.3049 22.4243 54.3879 22.452 54.471 22.452C54.5541 22.452 54.6464 22.4151 54.6925 22.369ZM55.5602 23.1808C55.6248 23.1254 55.6617 23.0424 55.6617 22.9594C55.6617 22.8764 55.6248 22.8026 55.5602 22.738C55.4218 22.6181 55.2187 22.6181 55.0987 22.738C55.0341 22.8026 54.9971 22.8764 54.9971 22.9594C54.9971 23.0424 55.0341 23.1162 55.0987 23.1808C55.1633 23.2453 55.2556 23.2638 55.3387 23.2638C55.4033 23.2822 55.4956 23.2453 55.5602 23.1808ZM56.4371 24.0479C56.4925 23.9926 56.5202 23.9095 56.5202 23.8265C56.5202 23.7435 56.4833 23.6697 56.4371 23.6051C56.3171 23.4852 56.114 23.4852 55.994 23.6051C55.9387 23.6697 55.911 23.7435 55.911 23.8265C55.911 23.9095 55.9479 23.9833 55.994 24.0479C56.0587 24.1125 56.1325 24.1309 56.2156 24.1309C56.2894 24.1494 56.3725 24.1125 56.4371 24.0479ZM57.3048 24.9243C57.3602 24.8689 57.3879 24.7859 57.3879 24.7029C57.3879 24.6198 57.3509 24.5368 57.3048 24.4815C57.1848 24.3615 56.9817 24.3615 56.8617 24.4815C56.8063 24.5368 56.7786 24.6198 56.7786 24.7029C56.7786 24.7859 56.8156 24.8597 56.8617 24.9243C56.9263 24.9888 57.0002 25.0073 57.0832 25.0073C57.1663 25.0073 57.2402 24.9796 57.3048 24.9243ZM58.1171 25.7914C58.1817 25.736 58.2001 25.653 58.2001 25.57C58.2001 25.487 58.1632 25.4132 58.1171 25.3486C57.9971 25.2287 57.794 25.2287 57.674 25.3486C57.6186 25.4132 57.5909 25.487 57.5909 25.57C57.5909 25.653 57.6279 25.736 57.674 25.7914C57.7386 25.856 57.8125 25.8744 57.8955 25.8744C57.9786 25.8744 58.0709 25.856 58.1171 25.7914ZM59.0401 26.6585C59.1047 26.6032 59.1232 26.5202 59.1232 26.4371C59.1232 26.3541 59.0863 26.2803 59.0401 26.2157C58.9201 26.0958 58.7171 26.0958 58.5971 26.2157C58.5324 26.2803 58.514 26.3541 58.514 26.4371C58.514 26.5202 58.5509 26.6032 58.5971 26.6585C58.6524 26.7139 58.7355 26.7415 58.8186 26.7415C58.9017 26.7415 58.9847 26.7231 59.0401 26.6585ZM59.8986 27.5164C59.9632 27.4519 60.0001 27.3781 60.0001 27.295C60.0001 27.212 59.9632 27.1382 59.8986 27.0736C59.7601 26.9537 59.557 26.9537 59.437 27.0736C59.3724 27.1382 59.3355 27.212 59.3355 27.295C59.3355 27.3781 59.3724 27.4519 59.437 27.5164C59.5016 27.5718 59.594 27.5995 59.677 27.5995C59.7509 27.6179 59.834 27.5902 59.8986 27.5164ZM51.5357 17.3784C52.4218 16.8064 53.3818 16.5297 54.4525 16.5112C55.5048 16.5112 56.474 16.7972 57.3694 17.3784L59.234 15.515C57.7755 14.4172 56.1971 13.8545 54.4525 13.8545C52.708 13.8545 51.1111 14.4172 49.6896 15.515L51.5357 17.3784ZM49.6711 25.0257C49.0804 24.1309 48.785 23.1623 48.785 22.1291C48.785 21.0775 49.0711 20.1089 49.6711 19.2326L47.825 17.3876C46.7358 18.8082 46.2004 20.3857 46.2004 22.1476C46.2004 23.8726 46.745 25.4685 47.8435 26.9076L49.6711 25.0257ZM57.3786 26.8799C56.4925 27.4703 55.5325 27.7747 54.4802 27.7932C53.4095 27.7932 52.4311 27.5072 51.5449 26.8984L49.6804 28.7433C51.1203 29.8595 52.7172 30.4222 54.4802 30.4038C56.2248 30.3853 57.8032 29.8319 59.234 28.7433L57.3786 26.8799ZM59.1878 19.2141C59.7786 20.1089 60.0832 21.096 60.0739 22.166C60.0555 23.1992 59.7693 24.1494 59.1878 25.0165L61.0524 26.8615C62.1508 25.4409 62.7139 23.8634 62.7139 22.1291C62.7323 20.3672 62.1693 18.7713 61.0524 17.3322L59.1878 19.2141ZM61.1355 27.4519C61.8462 27.4519 62.4462 28.0238 62.4462 28.7618C62.4462 29.4721 61.8739 30.0717 61.1355 30.0717C60.4247 30.0717 59.8247 29.4998 59.8247 28.7618C59.834 28.033 60.4062 27.4519 61.1355 27.4519ZM47.8066 27.4519C48.5173 27.4519 49.0988 28.0238 49.0988 28.7618C49.0988 29.4721 48.5265 30.0717 47.8066 30.0717C47.0866 30.0717 46.5143 29.4998 46.5143 28.7618C46.5143 28.033 47.0958 27.4519 47.8066 27.4519ZM61.1539 14.1405C61.8647 14.1405 62.4462 14.7124 62.4462 15.4504C62.4462 16.1791 61.8739 16.7603 61.1539 16.7603C60.4339 16.7603 59.8616 16.1884 59.8616 15.4504C59.8709 14.7216 60.4432 14.1405 61.1539 14.1405ZM47.7881 14.1405C48.4988 14.1405 49.0988 14.7124 49.0988 15.4319C49.0988 16.1422 48.5265 16.7234 47.7881 16.7234C47.0773 16.7234 46.4774 16.1515 46.4774 15.4319C46.4866 14.7216 47.0589 14.1405 47.7881 14.1405ZM72.369 24.5829L71.7229 24.011C71.3352 24.4722 70.5506 24.7398 69.8952 24.7398C68.7968 24.7398 67.9107 24.0756 67.8091 23.0147H72.6921C72.9136 20.727 71.5752 19.6384 69.8122 19.6384C68.0861 19.6384 66.8307 20.8746 66.8307 22.6181C66.8307 24.4446 68.0676 25.6161 69.8675 25.6161C70.7721 25.6069 71.7783 25.2656 72.369 24.5829ZM71.806 22.1937H67.8184C67.9845 21.096 68.8522 20.4779 69.8583 20.4779C70.9752 20.4779 71.7413 21.0683 71.806 22.1568V22.1937ZM75.0643 17.3507H74.1136V25.5054H75.0643V17.3507ZM77.7597 19.7584H76.8735V25.5054H77.8243V22.3044C77.8243 21.2528 78.5904 20.5886 79.5227 20.5794C79.9104 20.5794 80.215 20.6809 80.5196 20.9022L80.9442 20.0905C80.5842 19.8229 80.1134 19.6477 79.6058 19.6661C78.9412 19.6661 78.2304 19.8691 77.8427 20.6163L77.7597 19.7584ZM81.498 22.6365C81.498 24.38 82.7534 25.6069 84.4795 25.6069C86.2056 25.6069 87.461 24.3892 87.461 22.6365C87.461 20.8561 86.2241 19.62 84.4795 19.62C82.7719 19.62 81.498 20.8561 81.498 22.6365ZM86.5194 22.6365C86.501 23.8357 85.6518 24.7029 84.4703 24.7029C83.298 24.7029 82.4488 23.8357 82.4488 22.6365C82.4488 21.345 83.3164 20.4964 84.4887 20.4964C85.6333 20.5056 86.5194 21.3635 86.5194 22.6365ZM88.8363 19.7399V25.5054H89.7871V22.4151C89.7871 21.3819 90.5163 20.5517 91.5501 20.5333C92.6485 20.5333 93.2947 21.2251 93.2947 22.3321V25.5054H94.2454V22.3321C94.2454 20.6347 93.1747 19.6661 91.7162 19.6661C90.9501 19.6661 90.2394 19.989 89.7501 20.6624L89.6948 19.7491L88.8363 19.7399ZM101.565 17.3507H100.614V20.7915C100.208 20.0074 99.2761 19.6384 98.4638 19.6384C96.8392 19.6384 95.5654 20.6901 95.5654 22.6181C95.5654 24.5184 96.8392 25.5977 98.4822 25.5977C99.3314 25.5977 100.181 25.2287 100.633 24.4261L100.688 25.4777H101.584L101.565 17.3507ZM98.5468 20.5333C99.6822 20.5333 100.587 21.3819 100.587 22.5996C100.587 23.8542 99.6914 24.7029 98.5468 24.7029C97.4299 24.7029 96.5254 23.9372 96.5254 22.6181C96.5254 21.2805 97.4115 20.5517 98.5099 20.5333H98.5468Z" fill="black"/>
</svg>
