<svg width="97" height="44" viewBox="0 0 97 44" fill="none" xmlns="http://www.w3.org/2000/svg">
<path d="M32.1271 16.361C32.054 16.2879 32.0122 16.2044 32.0122 16.1104C32.0122 16.0164 32.054 15.9329 32.1271 15.8598C32.2838 15.724 32.5137 15.724 32.66 15.8598C32.7331 15.9329 32.7749 16.0164 32.7749 16.1104C32.7749 16.2044 32.7331 16.2879 32.66 16.361C32.5868 16.4237 32.4823 16.455 32.3883 16.455C32.2943 16.4759 32.2002 16.4341 32.1271 16.361ZM31.1867 17.353C31.124 17.2799 31.0927 17.1964 31.0927 17.1024C31.0927 17.0084 31.1345 16.9249 31.1867 16.8518C31.3226 16.716 31.5524 16.716 31.6883 16.8518C31.7509 16.9249 31.7823 17.0084 31.7823 17.1024C31.7823 17.1964 31.7405 17.2799 31.6883 17.353C31.6151 17.4156 31.5315 17.447 31.4375 17.447C31.3435 17.447 31.2599 17.4156 31.1867 17.353ZM30.1628 18.3346C30.1001 18.2719 30.0687 18.1779 30.0687 18.0839C30.0687 17.99 30.1105 17.9064 30.1628 17.8333C30.2986 17.6976 30.5285 17.6976 30.6643 17.8333C30.727 17.896 30.7583 17.99 30.7583 18.0839C30.7583 18.1779 30.7165 18.2615 30.6643 18.3346C30.5912 18.4076 30.5076 18.4285 30.4135 18.4285C30.3195 18.4285 30.2255 18.3972 30.1628 18.3346ZM29.191 19.3161C29.1179 19.2535 29.0761 19.1595 29.0761 19.0655C29.0761 18.9715 29.1179 18.888 29.191 18.8149C29.3478 18.6791 29.5776 18.6791 29.7239 18.8149C29.7971 18.8775 29.8389 18.9715 29.8389 19.0655C29.8389 19.1595 29.7971 19.2535 29.7239 19.3161C29.6508 19.3892 29.5463 19.4101 29.4523 19.4101C29.3582 19.4101 29.2642 19.3892 29.191 19.3161ZM28.2507 20.2872C28.1775 20.2246 28.1566 20.1306 28.1566 20.0366C28.1566 19.9426 28.1984 19.8591 28.2507 19.786C28.3865 19.6503 28.6164 19.6503 28.7522 19.786C28.8253 19.8487 28.8462 19.9426 28.8462 20.0366C28.8462 20.1306 28.8045 20.2246 28.7522 20.2872C28.6895 20.3603 28.5955 20.3812 28.5014 20.3812C28.397 20.4021 28.3029 20.3708 28.2507 20.2872ZM27.1118 21.0182C27.1118 20.9242 27.1536 20.8407 27.2058 20.7676C27.3417 20.6318 27.5715 20.6318 27.7073 20.7676C27.7805 20.8407 27.8014 20.9242 27.8014 21.0182C27.8014 21.1121 27.7596 21.1957 27.7073 21.2688C27.6447 21.3314 27.5506 21.3628 27.4566 21.3628C27.3625 21.3628 27.279 21.321 27.2058 21.2688C27.1536 21.2166 27.1118 21.1121 27.1118 21.0182ZM25.2937 23.1901C25.231 23.1275 25.1997 23.0335 25.1997 22.9395C25.1997 22.8455 25.2415 22.762 25.2937 22.6889C25.4296 22.5532 25.6594 22.5532 25.7953 22.6889C25.8684 22.762 25.8893 22.8455 25.8893 22.9395C25.8893 23.0335 25.8475 23.117 25.7953 23.1901C25.7326 23.2632 25.6385 23.2841 25.5445 23.2841C25.44 23.305 25.3669 23.2632 25.2937 23.1901ZM24.2698 24.1717C24.1966 24.109 24.1548 24.015 24.1548 23.9211C24.1548 23.8271 24.1966 23.7435 24.2698 23.6705C24.4265 23.5347 24.6564 23.5347 24.8026 23.6705C24.8758 23.7435 24.9176 23.8271 24.9176 23.9211C24.9176 24.015 24.8758 24.0986 24.8026 24.1717C24.7295 24.2448 24.625 24.2657 24.531 24.2657C24.4474 24.2865 24.3534 24.2448 24.2698 24.1717ZM23.3294 25.1637C23.2667 25.101 23.2354 25.007 23.2354 24.9131C23.2354 24.8191 23.2772 24.7251 23.3294 24.6624C23.4652 24.5267 23.6951 24.5267 23.8309 24.6624C23.8936 24.7251 23.925 24.8191 23.925 24.9131C23.925 25.007 23.8832 25.0906 23.8309 25.1637C23.7578 25.2368 23.6742 25.2576 23.5802 25.2576C23.4861 25.2576 23.413 25.2263 23.3294 25.1637ZM22.3577 26.1452C22.2845 26.0826 22.2636 25.9886 22.2636 25.8946C22.2636 25.8006 22.3054 25.7171 22.3577 25.644C22.4935 25.5083 22.7234 25.5083 22.8592 25.644C22.9219 25.7171 22.9533 25.8006 22.9533 25.8946C22.9533 25.9886 22.9115 26.0826 22.8592 26.1452C22.7861 26.2183 22.7025 26.2392 22.6084 26.2392C22.504 26.2392 22.4099 26.2183 22.3577 26.1452ZM21.3337 27.1268C21.2606 27.0641 21.2188 26.9701 21.2188 26.8762C21.2188 26.7822 21.2606 26.6987 21.3337 26.6256C21.4905 26.4898 21.7203 26.4898 21.8562 26.6256C21.9293 26.6987 21.9711 26.7822 21.9711 26.8762C21.9711 26.9701 21.9293 27.0641 21.8562 27.1268C21.783 27.1894 21.6785 27.2208 21.5845 27.2208C21.4905 27.2208 21.3964 27.1999 21.3337 27.1268ZM20.3725 28.0979C20.2993 28.0248 20.2784 27.9413 20.2784 27.8473C20.2784 27.7533 20.3202 27.6698 20.3725 27.5967C20.5083 27.4609 20.7382 27.4609 20.874 27.5967C20.9471 27.6698 20.968 27.7533 20.968 27.8473C20.968 27.9413 20.9262 28.0248 20.874 28.0979C20.8113 28.1605 20.7173 28.1919 20.6232 28.1919C20.5501 28.2128 20.456 28.1814 20.3725 28.0979ZM20.874 16.361C20.9367 16.2879 20.968 16.2044 20.968 16.1104C20.968 16.0164 20.9262 15.9329 20.874 15.8598C20.7382 15.724 20.5083 15.724 20.3725 15.8598C20.2993 15.9329 20.2784 16.0164 20.2784 16.1104C20.2784 16.2044 20.3202 16.2879 20.3725 16.361C20.4351 16.4237 20.5292 16.455 20.6232 16.455C20.7173 16.4759 20.8113 16.4341 20.874 16.361ZM21.8562 17.353C21.9293 17.2799 21.9711 17.1964 21.9711 17.1024C21.9711 17.0084 21.9293 16.9249 21.8562 16.8518C21.6994 16.716 21.4696 16.716 21.3233 16.8518C21.2501 16.9249 21.2083 17.0084 21.2083 17.1024C21.2083 17.1964 21.2501 17.2799 21.3233 17.353C21.3964 17.4156 21.5009 17.447 21.5949 17.447C21.6785 17.447 21.7726 17.4156 21.8562 17.353ZM22.8488 18.3346C22.9115 18.2719 22.9428 18.1779 22.9428 18.0839C22.9428 17.99 22.901 17.9064 22.8488 17.8333C22.7129 17.6976 22.4831 17.6976 22.3472 17.8333C22.2845 17.896 22.2532 17.99 22.2532 18.0839C22.2532 18.1779 22.295 18.2615 22.3472 18.3346C22.4204 18.4076 22.504 18.4285 22.598 18.4285C22.6816 18.4285 22.7756 18.3972 22.8488 18.3346ZM23.8309 19.3161C23.8936 19.2535 23.925 19.1595 23.925 19.0655C23.925 18.9715 23.8832 18.888 23.8309 18.8149C23.6951 18.6791 23.4652 18.6791 23.3294 18.8149C23.2667 18.8775 23.2354 18.9715 23.2354 19.0655C23.2354 19.1595 23.2772 19.2535 23.3294 19.3161C23.4025 19.3892 23.4861 19.4101 23.5802 19.4101C23.6533 19.4101 23.7578 19.3892 23.8309 19.3161ZM24.7922 20.2872C24.8653 20.2246 24.9071 20.1306 24.9071 20.0366C24.9071 19.9426 24.8653 19.8591 24.7922 19.786C24.6564 19.6503 24.4056 19.6503 24.2698 19.786C24.1966 19.8487 24.1548 19.9426 24.1548 20.0366C24.1548 20.1306 24.1966 20.2246 24.2698 20.2872C24.3429 20.3603 24.4474 20.3812 24.5414 20.3812C24.6355 20.4021 24.7295 20.3708 24.7922 20.2872ZM25.8893 21.0182C25.8893 20.9242 25.8475 20.8407 25.7953 20.7676C25.6594 20.6318 25.4296 20.6318 25.2937 20.7676C25.2206 20.8407 25.1997 20.9242 25.1997 21.0182C25.1997 21.1121 25.2415 21.1957 25.2937 21.2688C25.3564 21.3314 25.4505 21.3628 25.5445 21.3628C25.6385 21.3628 25.7221 21.321 25.7953 21.2688C25.8684 21.2166 25.8893 21.1121 25.8893 21.0182ZM26.767 22.2712C26.8401 22.1981 26.861 22.1146 26.861 22.0206C26.861 21.9266 26.8192 21.8431 26.767 21.77C26.6311 21.6342 26.4013 21.6342 26.2654 21.77C26.1923 21.8431 26.1714 21.9266 26.1714 22.0206C26.1714 22.1146 26.2132 22.1981 26.2654 22.2712C26.3281 22.3339 26.4222 22.3652 26.5162 22.3652C26.6103 22.3652 26.7147 22.3234 26.767 22.2712ZM27.7491 23.1901C27.8223 23.1275 27.8641 23.0335 27.8641 22.9395C27.8641 22.8455 27.8223 22.762 27.7491 22.6889C27.5924 22.5532 27.3625 22.5532 27.2267 22.6889C27.1536 22.762 27.1118 22.8455 27.1118 22.9395C27.1118 23.0335 27.1536 23.117 27.2267 23.1901C27.2999 23.2632 27.4043 23.2841 27.4984 23.2841C27.5715 23.305 27.676 23.2632 27.7491 23.1901ZM28.7418 24.1717C28.8044 24.109 28.8358 24.015 28.8358 23.9211C28.8358 23.8271 28.794 23.7435 28.7418 23.6705C28.6059 23.5347 28.3761 23.5347 28.2402 23.6705C28.1775 23.7435 28.1462 23.8271 28.1462 23.9211C28.1462 24.015 28.188 24.0986 28.2402 24.1717C28.3134 24.2448 28.397 24.2657 28.491 24.2657C28.5746 24.2865 28.6686 24.2448 28.7418 24.1717ZM29.7239 25.1637C29.7866 25.101 29.818 25.007 29.818 24.9131C29.818 24.8191 29.7762 24.7251 29.7239 24.6624C29.5881 24.5267 29.3582 24.5267 29.2224 24.6624C29.1597 24.7251 29.1284 24.8191 29.1284 24.9131C29.1284 25.007 29.1701 25.0906 29.2224 25.1637C29.2955 25.2368 29.3791 25.2576 29.4732 25.2576C29.5672 25.2576 29.6508 25.2263 29.7239 25.1637ZM30.6434 26.1452C30.7165 26.0826 30.7374 25.9886 30.7374 25.8946C30.7374 25.8006 30.6956 25.7171 30.6434 25.644C30.5076 25.5083 30.2777 25.5083 30.1419 25.644C30.0792 25.7171 30.0478 25.8006 30.0478 25.8946C30.0478 25.9886 30.0896 26.0826 30.1419 26.1452C30.215 26.2183 30.2986 26.2392 30.3926 26.2392C30.4867 26.2392 30.5912 26.2183 30.6434 26.1452ZM31.6883 27.1268C31.7614 27.0641 31.7823 26.9701 31.7823 26.8762C31.7823 26.7822 31.7405 26.6987 31.6883 26.6256C31.5524 26.4898 31.3226 26.4898 31.1867 26.6256C31.1136 26.6987 31.0927 26.7822 31.0927 26.8762C31.0927 26.9701 31.1345 27.0641 31.1867 27.1268C31.2494 27.1894 31.3435 27.2208 31.4375 27.2208C31.5315 27.2208 31.6256 27.1999 31.6883 27.1268ZM32.66 28.0979C32.7331 28.0248 32.7749 27.9413 32.7749 27.8473C32.7749 27.7533 32.7331 27.6698 32.66 27.5967C32.5032 27.4609 32.2734 27.4609 32.1375 27.5967C32.0644 27.6698 32.0226 27.7533 32.0226 27.8473C32.0226 27.9413 32.0644 28.0248 32.1375 28.0979C32.2107 28.1605 32.3152 28.1919 32.4092 28.1919C32.4928 28.2128 32.5868 28.1814 32.66 28.0979ZM23.1936 16.6221C24.1966 15.9746 25.2833 15.6614 26.4953 15.6405C27.6865 15.6405 28.7836 15.9642 29.7971 16.6221L31.9077 14.5128C30.2568 13.2701 28.4701 12.6332 26.4953 12.6332C24.5205 12.6332 22.7129 13.2701 21.1039 14.5128L23.1936 16.6221ZM21.083 25.2785C20.4142 24.2657 20.0799 23.1692 20.0799 21.9997C20.0799 20.8093 20.4038 19.7129 21.083 18.7209L18.9932 16.6325C17.7603 18.2406 17.1543 20.0262 17.1543 22.0206C17.1543 23.9733 17.7708 25.7798 19.0141 27.4087L21.083 25.2785ZM29.8075 27.3774C28.8045 28.0457 27.7178 28.3903 26.5267 28.4112C25.3146 28.4112 24.2071 28.0875 23.204 27.3983L21.0934 29.4867C22.7234 30.7502 24.531 31.3871 26.5267 31.3663C28.5014 31.3454 30.2881 30.7189 31.9077 29.4867L29.8075 27.3774ZM31.8554 18.7C32.5241 19.7129 32.8689 20.8302 32.8585 22.0415C32.8376 23.211 32.5137 24.2865 31.8554 25.2681L33.966 27.3565C35.2094 25.7484 35.8468 23.9628 35.8468 21.9997C35.8677 20.0053 35.2303 18.1988 33.966 16.5698L31.8554 18.7ZM34.0601 28.0248C34.8646 28.0248 35.5438 28.6722 35.5438 29.5076C35.5438 30.3116 34.896 30.9903 34.0601 30.9903C33.2555 30.9903 32.5764 30.3429 32.5764 29.5076C32.5868 28.6826 33.2346 28.0248 34.0601 28.0248ZM18.9723 28.0248C19.7769 28.0248 20.4351 28.6722 20.4351 29.5076C20.4351 30.3116 19.7873 30.9903 18.9723 30.9903C18.1574 30.9903 17.5095 30.3429 17.5095 29.5076C17.5095 28.6826 18.1678 28.0248 18.9723 28.0248ZM34.081 12.9569C34.8855 12.9569 35.5438 13.6043 35.5438 14.4397C35.5438 15.2646 34.896 15.9224 34.081 15.9224C33.266 15.9224 32.6182 15.275 32.6182 14.4397C32.6286 13.6147 33.2764 12.9569 34.081 12.9569ZM18.9515 12.9569C19.756 12.9569 20.4351 13.6043 20.4351 14.4188C20.4351 15.2228 19.7873 15.8807 18.9515 15.8807C18.1469 15.8807 17.4678 15.2333 17.4678 14.4188C17.4782 13.6147 18.126 12.9569 18.9515 12.9569ZM46.776 24.7773L46.0446 24.1299C45.6057 24.652 44.7176 24.9548 43.9758 24.9548C42.7324 24.9548 41.7293 24.203 41.6144 23.0022H47.1417C47.3925 20.4125 45.8774 19.1804 43.8817 19.1804C41.9278 19.1804 40.5068 20.5796 40.5068 22.5532C40.5068 24.6207 41.907 25.9468 43.9444 25.9468C44.9684 25.9364 46.1073 25.55 46.776 24.7773ZM46.1386 22.0728H41.6248C41.8129 20.8302 42.7951 20.1306 43.934 20.1306C45.1983 20.1306 46.0655 20.7989 46.1386 22.031V22.0728ZM49.827 16.5907H48.7508V25.8215H49.827V16.5907ZM52.8779 19.3161H51.8749V25.8215H52.9511V22.1981C52.9511 21.0077 53.8183 20.2559 54.8736 20.2455C55.3125 20.2455 55.6573 20.3603 56.0021 20.6109L56.4827 19.692C56.0752 19.3892 55.5423 19.1908 54.9677 19.2117C54.2154 19.2117 53.4108 19.4414 52.972 20.2872L52.8779 19.3161ZM57.1096 22.574C57.1096 24.5476 58.5306 25.9364 60.4845 25.9364C62.4384 25.9364 63.8594 24.558 63.8594 22.574C63.8594 20.5587 62.4593 19.1595 60.4845 19.1595C58.5515 19.1595 57.1096 20.5587 57.1096 22.574ZM62.7936 22.574C62.7727 23.9315 61.8115 24.9131 60.4741 24.9131C59.1471 24.9131 58.1858 23.9315 58.1858 22.574C58.1858 21.1121 59.168 20.1515 60.495 20.1515C61.7906 20.1619 62.7936 21.133 62.7936 22.574ZM65.4162 19.2952V25.8215H66.4924V22.3234C66.4924 21.1539 67.3179 20.2141 68.4881 20.1932C69.7315 20.1932 70.4629 20.9764 70.4629 22.2294V25.8215H71.5391V22.2294C71.5391 20.3081 70.3271 19.2117 68.6762 19.2117C67.8089 19.2117 67.0044 19.5772 66.4506 20.3394L66.3879 19.3057L65.4162 19.2952ZM79.8248 16.5907H78.7486V20.4856C78.2889 19.598 77.2336 19.1804 76.3141 19.1804C74.4751 19.1804 73.0332 20.3708 73.0332 22.5532C73.0332 24.7042 74.4751 25.9259 76.335 25.9259C77.2963 25.9259 78.2575 25.5083 78.7695 24.5998L78.8322 25.7902H79.8457L79.8248 16.5907ZM76.4081 20.1932C77.6933 20.1932 78.7173 21.1539 78.7173 22.5323C78.7173 23.9524 77.7037 24.9131 76.4081 24.9131C75.1438 24.9131 74.1199 24.0464 74.1199 22.5532C74.1199 21.0391 75.123 20.2141 76.3663 20.1932H76.4081Z" fill="black"/>
</svg>
