<svg width="147" height="44" viewBox="0 0 147 44" fill="none" xmlns="http://www.w3.org/2000/svg">
<rect x="0.691772" width="146.308" height="44" rx="5.95873" fill="#FBFBFB"/>
<rect x="0.691772" width="146.308" height="44" rx="5.95873" fill="#FBFBFB"/>
<path d="M60.2752 22.4932C60.2752 22.6169 60.1715 22.7175 60.0476 22.7175H55.6629C55.7724 23.799 56.5877 24.7855 57.7343 24.7855C58.5179 24.7855 59.0998 24.4864 59.5377 23.8622C59.6011 23.776 59.6962 23.7213 59.8172 23.7731C59.8834 23.8018 59.9295 23.8622 59.941 23.9313C59.9526 24.0032 59.9324 24.0434 59.9122 24.0837C59.4715 24.8516 58.5928 25.2284 57.7314 25.2284C56.2564 25.2284 55.2048 23.9111 55.2048 22.5018C55.2048 21.0925 56.2564 19.7752 57.7314 19.7752C59.2064 19.7723 60.2724 21.0867 60.2752 22.4932ZM59.8056 22.2803C59.7106 21.1989 58.8809 20.2124 57.7343 20.2124C56.5877 20.2124 55.7724 21.1989 55.6629 22.2803H59.8056ZM65.5963 19.8816C65.723 19.8816 65.8152 19.9909 65.8152 20.1002C65.8152 20.2267 65.7202 20.3188 65.5963 20.3188H64.4209V24.9235C64.4209 25.0328 64.3258 25.1421 64.2019 25.1421C64.0752 25.1421 63.983 25.0328 63.983 24.9235V20.3188H62.8536C62.7269 20.3188 62.6347 20.2239 62.6347 20.1002C62.6347 19.9909 62.7298 19.8816 62.8536 19.8816H63.983V18.1962C63.983 18.0897 64.055 17.992 64.1587 17.9747C64.3056 17.9517 64.4209 18.0524 64.4209 18.1904V19.8816H65.5963ZM72.7669 22.1078V24.8977C72.7669 25.0242 72.6574 25.1163 72.5479 25.1163C72.4211 25.1163 72.329 25.0213 72.329 24.8977V22.1078C72.329 21.1673 71.796 20.2267 70.7445 20.2267C69.3962 20.2267 68.8142 21.4031 68.892 22.6082C68.892 22.6399 68.9064 22.7808 68.9064 22.7952V24.889C68.9064 24.9955 68.8344 25.0932 68.7307 25.1105C68.5838 25.1335 68.4685 25.0328 68.4685 24.8948V15.7313C68.4685 15.622 68.5636 15.5127 68.6875 15.5127C68.8142 15.5127 68.9064 15.622 68.9064 15.7313V20.917C69.2838 20.244 69.958 19.7896 70.7416 19.7896C72.0293 19.7896 72.7669 20.917 72.7669 22.1078ZM80.6289 22.4932C80.6289 22.6169 80.5251 22.7175 80.4013 22.7175H76.0136C76.1231 23.799 76.9384 24.7855 78.085 24.7855C78.8686 24.7855 79.4506 24.4864 79.8885 23.8622C79.9518 23.776 80.0469 23.7213 80.1679 23.7731C80.2342 23.8018 80.2803 23.8622 80.2918 23.9313C80.3033 24.0032 80.2831 24.0434 80.263 24.0837C79.8222 24.8516 78.9435 25.2284 78.0821 25.2284C76.6071 25.2284 75.5556 23.9111 75.5556 22.5018C75.5556 21.0925 76.6071 19.7752 78.0821 19.7752C79.56 19.7723 80.626 21.0867 80.6289 22.4932ZM80.1564 22.2803C80.0613 21.1989 79.2316 20.2124 78.085 20.2124C76.9384 20.2124 76.1231 21.1989 76.0136 22.2803H80.1564ZM86.0104 20.0858C86.0104 20.2267 85.9326 20.3044 85.8058 20.3217C84.5181 20.5086 83.939 21.5584 83.939 22.7808V24.8747C83.939 24.9811 83.867 25.0789 83.7633 25.0961C83.6164 25.1191 83.5011 25.0185 83.5011 24.8804V20.1088C83.5011 20.0024 83.5731 19.9046 83.6769 19.8874C83.8238 19.8644 83.939 19.965 83.939 20.1031V21.0752C84.2991 20.4655 85.0222 19.8845 85.7742 19.8845C85.8836 19.8816 86.0104 19.9621 86.0104 20.0858ZM93.2127 22.4932C93.2127 22.6169 93.1089 22.7175 92.9851 22.7175H88.6003C88.7098 23.799 89.5251 24.7855 90.6717 24.7855C91.4553 24.7855 92.0372 24.4864 92.4751 23.8622C92.5385 23.776 92.6336 23.7213 92.7546 23.7731C92.8209 23.8018 92.867 23.8622 92.8785 23.9313C92.89 24.0032 92.8698 24.0434 92.8497 24.0837C92.4089 24.8516 91.5302 25.2284 90.6688 25.2284C89.1938 25.2284 88.1423 23.9111 88.1423 22.5018C88.1423 21.0925 89.1938 19.7752 90.6688 19.7752C92.1438 19.7723 93.2098 21.0867 93.2127 22.4932ZM92.7431 22.2803C92.648 21.1989 91.8183 20.2124 90.6717 20.2124C89.5251 20.2124 88.7098 21.1989 88.6003 22.2803H92.7431ZM100.291 20.1405V24.9235C100.291 25.0501 100.182 25.1421 100.072 25.1421C99.9453 25.1421 99.8532 25.0472 99.8532 24.9235V24.0147C99.493 24.7366 98.8477 25.2514 98.0324 25.2514C96.7302 25.2514 96.0071 24.124 96.0071 22.9332V20.129C96.0071 20.0197 96.1022 19.9104 96.2261 19.9104C96.3529 19.9104 96.445 20.0197 96.445 20.129V22.9332C96.445 23.8737 96.978 24.8143 98.0295 24.8143C99.5046 24.8143 99.8503 23.4366 99.8503 21.9151V20.129C99.8503 20.0024 99.977 19.873 100.133 19.919C100.228 19.9506 100.291 20.0427 100.291 20.1405ZM111.383 22.0905V24.8948C111.383 25.0213 111.273 25.1134 111.164 25.1134C111.037 25.1134 110.945 25.0185 110.945 24.8948V22.0905C110.945 21.15 110.412 20.2267 109.36 20.2267C108.041 20.2267 107.539 21.6361 107.539 22.7319V24.8948C107.539 25.0213 107.43 25.1134 107.32 25.1134C107.194 25.1134 107.102 25.0185 107.102 24.8948V22.0905C107.102 21.15 106.569 20.2267 105.517 20.2267C104.183 20.2267 103.633 21.2766 103.682 22.6715C103.682 22.7031 103.696 22.7664 103.682 22.7808V24.889C103.682 24.9955 103.61 25.0932 103.503 25.1105C103.356 25.1335 103.241 25.0328 103.241 24.8948V20.1088C103.241 20.0024 103.313 19.9046 103.417 19.8874C103.564 19.8644 103.679 19.965 103.679 20.1031V20.9027C104.056 20.2296 104.731 19.7896 105.514 19.7896C106.407 19.7896 107.099 20.3533 107.381 21.1845C107.741 20.3706 108.447 19.7896 109.357 19.7896C110.645 19.7896 111.383 20.8998 111.383 22.0905Z" fill="#3C3C3B"/>
<g opacity="0.6">
<path opacity="0.6" d="M43.6379 18.8951L36.3088 22.2229L43.6379 26.5458L50.964 22.2229L43.6379 18.8951Z" fill="#010101"/>
</g>
<g opacity="0.45">
<path opacity="0.45" d="M36.3088 22.2229L43.6379 26.5458V10.0825L36.3088 22.2229Z" fill="#010101"/>
</g>
<g opacity="0.8">
<path opacity="0.8" d="M43.6379 10.0825V26.5458L50.9641 22.2229L43.6379 10.0825Z" fill="#010101"/>
</g>
<g opacity="0.45">
<path opacity="0.45" d="M36.3088 23.6091L43.6379 33.9174V27.932L36.3088 23.6091Z" fill="#010101"/>
</g>
<g opacity="0.8">
<path opacity="0.8" d="M43.6379 27.932V33.9174L50.9698 23.6091L43.6379 27.932Z" fill="#010101"/>
</g>
</svg>
