<svg width="146" height="44" viewBox="0 0 146 44" fill="none" xmlns="http://www.w3.org/2000/svg">
<rect width="145.5" height="44" rx="6.42789" fill="#FBFBFB"/>
<path d="M91.6463 24.1051C91.4489 24.1051 91.2786 24.1753 91.1359 24.3164C90.995 24.4577 90.923 24.6244 90.923 24.8176C90.923 25.1119 91.0735 25.3409 91.3723 25.5045C91.7 25.5933 91.9634 25.5355 92.1617 25.3342C92.3054 25.192 92.3756 25.0216 92.3756 24.8231C92.3756 24.6226 92.3054 24.455 92.1617 24.3165C92.0195 24.1767 91.8487 24.107 91.6458 24.107V24.1052H91.6463V24.1051ZM80.0124 18.6432H79.4728C79.2397 18.6432 79.0498 18.8295 79.0498 19.0614V19.3602C78.4764 18.7676 77.8259 18.471 77.0994 18.471C76.2613 18.471 75.5616 18.7807 75.0032 19.3985C74.4437 20.0162 74.1656 20.7888 74.1656 21.7153C74.1656 22.6578 74.4442 23.4464 75.0021 24.0768C75.5662 24.6949 76.2774 25.0033 77.1389 25.0033C77.8202 25.0033 78.4576 24.7273 79.0504 24.1765V24.7674C79.0504 25.0543 79.2854 25.2876 79.5738 25.2876H80.495V19.122C80.4949 18.8582 80.2787 18.6432 80.0123 18.6432H80.0124ZM78.6484 23.1808C78.3194 23.5449 77.8898 23.7266 77.3559 23.7266C76.8568 23.7266 76.4428 23.5394 76.1151 23.1622C75.7954 22.7909 75.6357 22.3071 75.6357 21.7145C75.6357 21.1606 75.8002 20.6941 76.1278 20.3179C76.4601 19.9452 76.8739 19.7603 77.3686 19.7603C77.8932 19.7603 78.319 19.9443 78.6471 20.3142C78.976 20.6905 79.1405 21.1679 79.1405 21.7474C79.1405 22.3272 78.976 22.8051 78.6471 23.1818H78.6485V23.1808H78.6484ZM74.1646 19.6869V19.076C74.1646 18.8364 73.9701 18.6441 73.7295 18.6441H73.1606C72.921 18.6441 72.726 18.8355 72.726 19.0751V19.3411C72.2057 18.7616 71.5533 18.471 70.7689 18.471C69.8735 18.471 69.1521 18.8067 68.6068 19.4741C68.0992 20.1037 67.8456 20.8699 67.8456 21.7719C67.8456 22.698 68.1189 23.4715 68.6651 24.0887C69.2067 24.6996 69.9014 25.0026 70.75 25.0026C71.4954 25.0026 72.1545 24.7138 72.7259 24.1338V24.9971C72.7259 26.2799 72.1995 26.9213 71.1467 26.9213C70.5751 26.9213 70.1409 26.7282 69.8426 26.3428C69.7664 26.2453 69.7033 26.1241 69.653 25.9779C69.5825 25.7733 69.3865 25.6376 69.1699 25.6376H68.6247C68.3497 25.6376 68.1453 25.8972 68.2147 26.1615C68.3639 26.7245 68.6519 27.1819 69.0806 27.5353C69.6179 27.9799 70.3027 28.2023 71.1335 28.2023C72.1182 28.2023 72.8923 27.8806 73.4555 27.2383C73.7538 26.904 73.9535 26.504 74.056 26.0384C74.0902 25.8708 74.1171 25.6736 74.1359 25.4508C74.1547 25.2294 74.1641 24.9725 74.1641 24.68V23.7816C73.7613 23.2058 73.5588 22.5175 73.5588 21.7153C73.5588 20.9268 73.7609 20.253 74.1641 19.6868H74.1646L74.1646 19.6869ZM72.342 23.1321C72.0224 23.5289 71.5881 23.7266 71.0374 23.7266C70.4873 23.7266 70.0567 23.5307 69.7449 23.1357C69.4598 22.7768 69.3171 22.3148 69.3171 21.7527C69.3171 21.1806 69.4598 20.715 69.7449 20.3561C70.0612 19.9547 70.4912 19.7539 71.0374 19.7539C71.5487 19.7539 71.9689 19.9379 72.2968 20.3055C72.621 20.665 72.7837 21.1452 72.7837 21.7469C72.7837 22.3095 72.6361 22.7704 72.3419 23.1313V23.1322L72.342 23.1321ZM86.1269 18.6478V18.6432H83.1426V16.8292C83.1426 16.596 82.9526 16.4074 82.7171 16.4074H82.1344C81.8972 16.4074 81.7044 16.5988 81.7044 16.8347V18.6432H81.0896V19.9747H81.7035V25.2868H82.5242C82.8663 25.2868 83.1417 25.0134 83.1417 24.6736V19.9757H84.6173C84.7339 19.7548 84.875 19.5511 85.0428 19.3648C85.3486 19.0331 85.7102 18.7944 86.1261 18.6478H86.127L86.1269 18.6478ZM93.4697 16.4074C93.2145 16.4074 92.9951 16.499 92.8116 16.6817C92.6289 16.8634 92.5361 17.0798 92.5361 17.329C92.5361 17.5919 92.628 17.8123 92.8116 17.9959C92.9951 18.1777 93.2173 18.2683 93.4771 18.2683C93.7373 18.2683 93.9567 18.1777 94.1343 17.995C94.3179 17.8114 94.4107 17.5937 94.4107 17.3349C94.4107 17.0772 94.3188 16.8585 94.1348 16.6817C93.9503 16.4981 93.7286 16.4066 93.4688 16.4066L93.4697 16.4075V16.4074ZM93.7612 19.3438H93.2393C92.9717 19.3438 92.7537 19.558 92.7537 19.8258V24.3593C92.8639 24.4878 92.9166 24.6395 92.9166 24.8144C92.9166 24.9894 92.8648 25.1424 92.7537 25.2714V25.5265H93.68C93.9636 25.5265 94.1931 25.2978 94.1931 25.0162V19.7703C94.1931 19.5343 93.9995 19.343 93.7607 19.343L93.7612 19.3439L93.7612 19.3438ZM100.524 20.2185C99.8762 19.5889 99.0872 19.2737 98.1578 19.2737C97.2324 19.2737 96.4476 19.5862 95.8041 20.214C95.1607 20.8389 94.8384 21.5988 94.8384 22.4916C94.8384 23.4387 95.1533 24.2272 95.7848 24.8536C96.4164 25.4882 97.1994 25.8052 98.132 25.8052C99.0739 25.8052 99.8688 25.4945 100.517 24.8723C101.16 24.2445 101.483 23.4697 101.483 22.5427C101.483 21.6239 101.163 20.8494 100.524 20.2185V20.2185ZM99.5063 23.9894C99.1703 24.3498 98.7204 24.5279 98.1569 24.5279C97.5978 24.5279 97.149 24.347 96.8074 23.9821C96.4752 23.6232 96.3081 23.133 96.3081 22.5162C96.3081 21.9413 96.4797 21.4712 96.8203 21.1077C97.1618 20.7433 97.607 20.5615 98.1578 20.5615C98.7154 20.5615 99.1657 20.7433 99.5062 21.1077C99.8432 21.4667 100.012 21.9468 100.012 22.5472C100.012 23.1495 99.8422 23.6291 99.5062 23.9885V23.9904V23.9894H99.5063Z" fill="#DE5959"/>
<path d="M86.663 23.7399C86.3665 23.442 86.2008 23.0356 86.1627 22.5273H90.2872C90.4754 22.5273 90.6305 22.3779 90.6332 22.1915C90.6332 21.1698 90.3689 20.3744 89.8406 19.7985C89.3068 19.2187 88.5806 18.929 87.6654 18.929C86.7585 18.929 86.0287 19.2273 85.4789 19.8241C84.9329 20.4299 84.6603 21.2203 84.6603 22.1983C84.6603 23.1836 84.9424 23.9754 85.5037 24.5717C85.8966 24.9866 86.3781 25.255 86.9495 25.3798C87.1891 25.4358 87.4374 25.4654 87.6885 25.4618C88.7129 25.4828 89.6043 25.5037 90.6288 25.5247L90.6306 25.3753C90.5053 25.24 90.4424 25.0765 90.4424 24.887C90.4424 24.702 90.508 24.543 90.636 24.4055L90.637 24.2246C89.8292 24.2046 87.8703 24.1854 87.7923 24.1854C87.3333 24.1854 86.956 24.0383 86.6632 23.7409V23.7399L86.663 23.7399ZM86.4629 20.8846C86.5533 20.7442 86.6603 20.6258 86.7865 20.5265C86.9136 20.4254 87.0514 20.3507 87.2056 20.2979C87.3589 20.245 87.5232 20.2186 87.6994 20.2186C88.4651 20.2186 88.9497 20.5985 89.1516 21.3602H86.2587C86.306 21.1825 86.3739 21.024 86.463 20.8837V20.8846H86.4629Z" fill="#DE5959"/>
<path d="M47.4366 21.7951L47.2114 21.5685C47.0409 21.3982 46.748 21.5188 46.748 21.7602V24.997C46.748 25.1465 46.8707 25.2682 47.0206 25.2682H50.2585C50.4999 25.2682 50.6214 24.9758 50.4498 24.8058C50.3439 24.6999 50.3439 24.5285 50.4498 24.4229L53.8936 20.9688C53.9997 20.8635 53.9997 20.6922 53.8936 20.5858L53.5799 20.2733C53.4094 20.103 53.5309 19.8106 53.7716 19.8106H57.0076C57.1572 19.8106 57.2796 19.9321 57.2796 20.0817V23.3182C57.2796 23.5596 56.9862 23.6805 56.8153 23.51L56.5972 23.292C56.4907 23.1831 56.3193 23.1831 56.215 23.292L50.4087 29.095C50.3033 29.2006 50.1322 29.2006 50.0254 29.095L42.9218 21.9919C42.815 21.8852 42.815 21.7135 42.9218 21.6075L52.7556 11.7749C52.8612 11.669 52.8612 11.4963 52.7556 11.391L50.4433 9.07904C50.3374 8.97365 50.166 8.97365 50.0597 9.07904L37.329 21.809C37.2237 21.9149 37.2237 22.0876 37.329 22.193L50.0584 34.9211C50.1642 35.0263 50.337 35.0263 50.4424 34.9211L63.1711 22.193C63.2763 22.0871 63.2763 21.9153 63.1711 21.8099L55.6823 14.3216C55.5776 14.2163 55.4053 14.2163 55.2992 14.3216L47.8219 21.7952C47.7151 21.902 47.5433 21.902 47.4366 21.7952V21.7951Z" fill="#DE5959"/>
</svg>
