<svg width="96" height="44" viewBox="0 0 96 44" fill="none" xmlns="http://www.w3.org/2000/svg">
<rect width="95.6667" height="44" rx="6.42789" fill="#FBFBFB"/>
<path d="M66.7297 24.1051C66.5323 24.1051 66.362 24.1753 66.2192 24.3164C66.0783 24.4577 66.0063 24.6244 66.0063 24.8176C66.0063 25.1119 66.1568 25.3409 66.4557 25.5045C66.7834 25.5933 67.0468 25.5355 67.2451 25.3342C67.3888 25.192 67.459 25.0216 67.459 24.8231C67.459 24.6226 67.3888 24.455 67.2451 24.3165C67.1028 24.1767 66.9321 24.107 66.7292 24.107V24.1052H66.7297V24.1051ZM55.0958 18.6432H54.5562C54.3231 18.6432 54.1332 18.8295 54.1332 19.0614V19.3602C53.5598 18.7676 52.9093 18.471 52.1828 18.471C51.3447 18.471 50.6449 18.7807 50.0866 19.3985C49.5271 20.0162 49.249 20.7888 49.249 21.7153C49.249 22.6578 49.5276 23.4464 50.0855 24.0768C50.6496 24.6949 51.3608 25.0033 52.2223 25.0033C52.9036 25.0033 53.5409 24.7273 54.1338 24.1765V24.7674C54.1338 25.0543 54.3688 25.2876 54.6572 25.2876H55.5784V19.122C55.5783 18.8582 55.3621 18.6432 55.0957 18.6432H55.0958ZM53.7318 23.1808C53.4028 23.5449 52.9731 23.7266 52.4393 23.7266C51.9402 23.7266 51.5262 23.5394 51.1985 23.1622C50.8788 22.7909 50.7191 22.3071 50.7191 21.7145C50.7191 21.1606 50.8836 20.6941 51.2112 20.3179C51.5435 19.9452 51.9572 19.7603 52.452 19.7603C52.9766 19.7603 53.4023 19.9443 53.7305 20.3142C54.0594 20.6905 54.2239 21.1679 54.2239 21.7474C54.2239 22.3272 54.0594 22.8051 53.7305 23.1818H53.7319V23.1808H53.7318ZM49.248 19.6869V19.076C49.248 18.8364 49.0534 18.6441 48.8129 18.6441H48.244C48.0044 18.6441 47.8093 18.8355 47.8093 19.0751V19.3411C47.2891 18.7616 46.6367 18.471 45.8523 18.471C44.9569 18.471 44.2355 18.8067 43.6902 19.4741C43.1826 20.1037 42.929 20.8699 42.929 21.7719C42.929 22.698 43.2023 23.4715 43.7485 24.0887C44.29 24.6996 44.9847 25.0026 45.8334 25.0026C46.5787 25.0026 47.2379 24.7138 47.8093 24.1338V24.9971C47.8093 26.2799 47.2829 26.9213 46.2301 26.9213C45.6585 26.9213 45.2243 26.7282 44.9259 26.3428C44.8498 26.2453 44.7866 26.1241 44.7364 25.9779C44.6659 25.7733 44.4699 25.6376 44.2532 25.6376H43.708C43.4331 25.6376 43.2286 25.8972 43.2981 26.1615C43.4473 26.7245 43.7353 27.1819 44.164 27.5353C44.7013 27.9799 45.3861 28.2023 46.2168 28.2023C47.2016 28.2023 47.9757 27.8806 48.5388 27.2383C48.8372 26.904 49.0368 26.504 49.1394 26.0384C49.1736 25.8708 49.2005 25.6736 49.2193 25.4508C49.2381 25.2294 49.2475 24.9725 49.2475 24.68V23.7816C48.8447 23.2058 48.6421 22.5175 48.6421 21.7153C48.6421 20.9268 48.8442 20.253 49.2475 19.6868H49.248L49.248 19.6869ZM47.4254 23.1321C47.1058 23.5289 46.6715 23.7266 46.1207 23.7266C45.5706 23.7266 45.1401 23.5307 44.8282 23.1357C44.5432 22.7768 44.4004 22.3148 44.4004 21.7527C44.4004 21.1806 44.5432 20.715 44.8282 20.3561C45.1445 19.9547 45.5746 19.7539 46.1207 19.7539C46.6321 19.7539 47.0523 19.9379 47.3802 20.3055C47.7044 20.665 47.8671 21.1452 47.8671 21.7469C47.8671 22.3095 47.7195 22.7704 47.4253 23.1313V23.1322L47.4254 23.1321ZM61.2103 18.6478V18.6432H58.226V16.8292C58.226 16.596 58.036 16.4074 57.8005 16.4074H57.2178C56.9805 16.4074 56.7878 16.5988 56.7878 16.8347V18.6432H56.173V19.9747H56.7869V25.2868H57.6075C57.9497 25.2868 58.2251 25.0134 58.2251 24.6736V19.9757H59.7007C59.8173 19.7548 59.9584 19.5511 60.1262 19.3648C60.4319 19.0331 60.7936 18.7944 61.2095 18.6478H61.2104L61.2103 18.6478ZM68.5531 16.4074C68.2979 16.4074 68.0785 16.499 67.8949 16.6817C67.7122 16.8634 67.6195 17.0798 67.6195 17.329C67.6195 17.5919 67.7113 17.8123 67.8949 17.9959C68.0785 18.1777 68.3007 18.2683 68.5605 18.2683C68.8207 18.2683 69.0401 18.1777 69.2177 17.995C69.4013 17.8114 69.4941 17.5937 69.4941 17.3349C69.4941 17.0772 69.4022 16.8585 69.2182 16.6817C69.0336 16.4981 68.8119 16.4066 68.5522 16.4066L68.5531 16.4075V16.4074ZM68.8446 19.3438H68.3227C68.0551 19.3438 67.8371 19.558 67.8371 19.8258V24.3593C67.9472 24.4878 68 24.6395 68 24.8144C68 24.9894 67.9481 25.1424 67.8371 25.2714V25.5265H68.7633C69.047 25.5265 69.2765 25.2978 69.2765 25.0162V19.7703C69.2765 19.5343 69.0829 19.343 68.8441 19.343L68.8446 19.3439L68.8446 19.3438ZM75.6077 20.2185C74.9595 19.5889 74.1706 19.2737 73.2411 19.2737C72.3158 19.2737 71.5309 19.5862 70.8875 20.214C70.244 20.8389 69.9218 21.5988 69.9218 22.4916C69.9218 23.4387 70.2367 24.2272 70.8682 24.8536C71.4998 25.4882 72.2828 25.8052 73.2154 25.8052C74.1573 25.8052 74.9522 25.4945 75.6008 24.8723C76.2429 24.2445 76.566 23.4697 76.566 22.5427C76.566 21.6239 76.2466 20.8494 75.6077 20.2185V20.2185ZM74.5897 23.9894C74.2537 24.3498 73.8038 24.5279 73.2403 24.5279C72.6812 24.5279 72.2323 24.347 71.8908 23.9821C71.5585 23.6232 71.3914 23.133 71.3914 22.5162C71.3914 21.9413 71.5631 21.4712 71.9037 21.1077C72.2452 20.7433 72.6903 20.5615 73.2411 20.5615C73.7988 20.5615 74.2491 20.7433 74.5896 21.1077C74.9266 21.4667 75.0954 21.9468 75.0954 22.5472C75.0954 23.1495 74.9256 23.6291 74.5896 23.9885V23.9904V23.9894H74.5897Z" fill="#DE5959"/>
<path d="M61.7464 23.7399C61.4498 23.442 61.2842 23.0356 61.2461 22.5273H65.3705C65.5587 22.5273 65.7139 22.3779 65.7166 22.1915C65.7166 21.1698 65.4522 20.3744 64.9239 19.7985C64.3902 19.2187 63.664 18.929 62.7488 18.929C61.8419 18.929 61.1121 19.2273 60.5623 19.8241C60.0163 20.4299 59.7437 21.2203 59.7437 22.1983C59.7437 23.1836 60.0257 23.9754 60.5871 24.5717C60.98 24.9866 61.4615 25.255 62.0329 25.3798C62.2725 25.4358 62.5207 25.4654 62.7719 25.4618C63.7963 25.4828 64.6877 25.5037 65.7122 25.5247L65.714 25.3753C65.5887 25.24 65.5258 25.0765 65.5258 24.887C65.5258 24.702 65.5914 24.543 65.7194 24.4055L65.7204 24.2246C64.9126 24.2046 62.9537 24.1854 62.8756 24.1854C62.4166 24.1854 62.0394 24.0383 61.7466 23.7409V23.7399L61.7464 23.7399ZM61.5463 20.8846C61.6367 20.7442 61.7437 20.6258 61.8699 20.5265C61.997 20.4254 62.1347 20.3507 62.2889 20.2979C62.4423 20.245 62.6066 20.2186 62.7828 20.2186C63.5484 20.2186 64.0331 20.5985 64.235 21.3602H61.3421C61.3894 21.1825 61.4572 21.024 61.5463 20.8837V20.8846H61.5463Z" fill="#DE5959"/>
<path d="M22.5199 21.7951L22.2948 21.5685C22.1243 21.3982 21.8314 21.5188 21.8314 21.7602V24.997C21.8314 25.1465 21.9541 25.2682 22.1039 25.2682H25.3418C25.5833 25.2682 25.7048 24.9758 25.5331 24.8058C25.4273 24.6999 25.4273 24.5285 25.5331 24.4229L28.977 20.9688C29.0831 20.8635 29.0831 20.6922 28.977 20.5858L28.6632 20.2733C28.4927 20.103 28.6143 19.8106 28.855 19.8106H32.0909C32.2406 19.8106 32.363 19.9321 32.363 20.0817V23.3182C32.363 23.5596 32.0696 23.6805 31.8987 23.51L31.6806 23.292C31.574 23.1831 31.4027 23.1831 31.2984 23.292L25.4921 29.095C25.3867 29.2006 25.2156 29.2006 25.1088 29.095L18.0052 21.9919C17.8984 21.8852 17.8984 21.7135 18.0052 21.6075L27.839 11.7749C27.9446 11.669 27.9446 11.4963 27.839 11.391L25.5266 9.07904C25.4208 8.97365 25.2494 8.97365 25.143 9.07904L12.4124 21.809C12.307 21.9149 12.307 22.0876 12.4124 22.193L25.1417 34.9211C25.2476 35.0263 25.4204 35.0263 25.5258 34.9211L38.2545 22.193C38.3597 22.0871 38.3597 21.9153 38.2545 21.8099L30.7657 14.3216C30.6609 14.2163 30.4887 14.2163 30.3826 14.3216L22.9053 21.7952C22.7985 21.902 22.6267 21.902 22.5199 21.7952V21.7951Z" fill="#DE5959"/>
</svg>
