<svg width="97" height="44" viewBox="0 0 97 44" fill="none" xmlns="http://www.w3.org/2000/svg">
<g clip-path="url(#clip0_2645_6318)">
<g clip-path="url(#clip1_2645_6318)">
<path d="M84.7627 22.0869C84.2412 21.7393 83.6618 21.5075 83.1403 21.2177C82.7926 21.0439 82.4449 20.8701 82.0972 20.5803C81.5757 20.1747 81.6916 19.3055 82.2131 18.9578C82.9664 18.4363 84.2412 18.726 84.4151 19.7691C84.4151 19.7691 84.4151 19.827 84.473 19.827H85.6319C85.6899 19.827 85.6899 19.827 85.6899 19.7691C85.632 19.0737 85.3422 18.4363 84.8207 18.0886C84.3571 17.7409 83.7777 17.5092 83.1982 17.5092C80.127 17.5092 79.8373 20.7542 81.5177 21.7393C81.6916 21.8552 83.3141 22.6664 83.8935 23.0141C84.473 23.3618 84.6469 23.9992 84.4151 24.5207C84.1833 24.9843 83.6038 25.3319 83.0243 25.274C82.3869 25.2161 81.8654 24.8684 81.6916 24.3469C81.6336 24.231 81.6336 24.0571 81.6336 23.9992C81.6336 23.9992 81.6336 23.9412 81.5757 23.9412H80.3009C80.3009 23.9412 80.2429 23.9412 80.2429 23.9992C80.2429 24.9263 80.4747 25.3899 81.1121 25.8535C81.6916 26.317 82.329 26.4909 82.9664 26.4909C84.7048 26.4909 85.574 25.5058 85.7478 24.5207C85.9217 23.5356 85.6319 22.6664 84.7627 22.0869Z" fill="#161616"/>
<path d="M30.1769 17.6829H29.5974H28.96C28.96 17.6829 28.9021 17.6829 28.9021 17.7409L27.859 21.1597C27.859 21.2177 27.8011 21.2177 27.7431 21.1597L26.7001 17.7409C26.7001 17.7409 26.7001 17.6829 26.6421 17.6829H26.0047H25.4253H24.8458C24.8458 17.6829 24.7878 17.6829 24.7878 17.7409V26.4329C24.7878 26.4329 24.7878 26.4908 24.8458 26.4908H26.1206C26.1206 26.4908 26.1786 26.4908 26.1786 26.4329V19.769C26.1786 19.7111 26.2365 19.7111 26.2945 19.769L27.3375 23.1879L27.3954 23.4197C27.3954 23.4197 27.3954 23.4776 27.4534 23.4776H28.4385C28.4385 23.4776 28.4964 23.4776 28.4964 23.4197L28.5544 23.1879L29.5974 19.769C29.5974 19.7111 29.7133 19.7111 29.7133 19.769V26.3749C29.7133 26.3749 29.7133 26.4329 29.7712 26.4329H31.0461C31.0461 26.4329 31.104 26.4329 31.104 26.3749V17.6829C31.104 17.6829 31.104 17.625 31.0461 17.625H30.1769V17.6829Z" fill="#161616"/>
<path d="M65.5243 17.6829C65.4663 17.6829 65.4663 17.6829 65.5243 17.6829L64.4233 21.1018C64.4233 21.1597 64.3654 21.1597 64.3074 21.1018L63.2644 17.6829C63.2644 17.6829 63.2644 17.625 63.2064 17.625H61.3521C61.3521 17.625 61.2942 17.625 61.2942 17.6829V26.3749C61.2942 26.3749 61.2942 26.4329 61.3521 26.4329H62.627C62.627 26.4329 62.6849 26.4329 62.6849 26.3749V19.769C62.6849 19.7111 62.7429 19.7111 62.8008 19.769L63.8438 23.1879L63.9018 23.4197C63.9018 23.4197 63.9018 23.4776 63.9597 23.4776H64.9448C64.9448 23.4776 65.0028 23.4776 65.0028 23.4197L65.0607 23.1879L66.1038 19.769C66.1038 19.7111 66.2197 19.7111 66.2197 19.769V26.3749C66.2197 26.3749 66.2196 26.4329 66.2776 26.4329H67.5524C67.5524 26.4329 67.6104 26.4329 67.6104 26.3749V17.6829C67.6104 17.6829 67.6104 17.625 67.5524 17.625H65.5243V17.6829Z" fill="#161616"/>
<path d="M49.2993 17.683H46.9814H45.7066H43.3888C43.3888 17.683 43.3308 17.683 43.3308 17.7409V18.8419C43.3308 18.8419 43.3308 18.8999 43.3888 18.8999H45.7066V26.4329C45.7066 26.4329 45.7066 26.4909 45.7646 26.4909H47.0394C47.0394 26.4909 47.0973 26.4909 47.0973 26.4329V18.8999H49.4152C49.4152 18.8999 49.4731 18.8999 49.4731 18.8419L49.2993 17.683C49.3573 17.683 49.2993 17.683 49.2993 17.683Z" fill="#161616"/>
<path d="M56.7166 26.4329H57.8755C57.9335 26.4329 57.9335 26.3749 57.9335 26.3749L55.5577 17.6829C55.5577 17.6829 55.5577 17.625 55.4997 17.625H55.0361H54.2828H53.8193C53.8193 17.625 53.7613 17.625 53.7613 17.6829L51.3855 26.3749C51.3855 26.4329 51.3855 26.4329 51.4434 26.4329H52.6024C52.6024 26.4329 52.6603 26.4329 52.6603 26.3749L53.3557 23.8253C53.3557 23.8253 53.3557 23.7673 53.4136 23.7673H55.9633C55.9633 23.7673 56.0212 23.7673 56.0212 23.8253L56.7166 26.4329C56.6586 26.4329 56.6586 26.4329 56.7166 26.4329ZM53.7034 22.6084L54.6305 19.2475C54.6305 19.1896 54.6885 19.1896 54.7464 19.2475L55.6735 22.6084C55.6735 22.6664 55.6735 22.6664 55.6156 22.6664H53.7613C53.7034 22.6664 53.7034 22.6084 53.7034 22.6084Z" fill="#161616"/>
<path d="M76.1866 26.4329H77.3455C77.4034 26.4329 77.4034 26.3749 77.4034 26.3749L75.0276 17.6829C75.0276 17.6829 75.0276 17.625 74.9697 17.625H74.5061H73.7528H73.2892C73.2892 17.625 73.2313 17.625 73.2313 17.6829L70.8555 26.3749C70.8555 26.4329 70.8555 26.4329 70.9134 26.4329H72.0723C72.0723 26.4329 72.1303 26.4329 72.1303 26.3749L72.8257 23.8253C72.8257 23.8253 72.8257 23.7673 72.8836 23.7673H75.4333C75.4333 23.7673 75.4912 23.7673 75.4912 23.8253L76.1866 26.4329ZM73.2313 22.6084L74.1584 19.2475C74.1584 19.1896 74.2164 19.1896 74.2743 19.2475L75.2015 22.6084C75.2015 22.6664 75.2015 22.6664 75.1435 22.6664H73.2892C73.2313 22.6664 73.2313 22.6084 73.2313 22.6084Z" fill="#161616"/>
<path d="M36.0295 25.1581V22.4926C36.0295 22.4926 36.0295 22.4346 36.0875 22.4346H39.4484C39.4484 22.4346 39.5063 22.4346 39.5063 22.3767V21.2757C39.5063 21.2757 39.5063 21.2177 39.4484 21.2177H36.0875C36.0875 21.2177 36.0295 21.2177 36.0295 21.1598V18.8419C36.0295 18.8419 36.0295 18.784 36.0875 18.784H39.912C39.912 18.784 39.9699 18.784 39.9699 18.726V17.7409C39.9699 17.7409 39.9699 17.683 39.912 17.683H36.0295H34.7547C34.7547 17.683 34.6968 17.683 34.6968 17.7409V18.8419V21.2177V22.3767V25.1581V26.317C34.6968 26.317 34.6968 26.375 34.7547 26.375H36.0295H40.0279C40.0279 26.375 40.0858 26.375 40.0858 26.317V25.1581C40.0858 25.1581 40.0858 25.1001 40.0279 25.1001L36.0295 25.1581C36.0875 25.1581 36.0295 25.1581 36.0295 25.1581Z" fill="#161616"/>
<path d="M96.2361 26.375L91.8901 21.9131V21.8551L95.8305 17.7989C95.8884 17.7409 95.8305 17.7409 95.7725 17.7409H94.15C94.15 17.7409 94.15 17.7409 94.0921 17.7409L90.7891 21.1598C90.7312 21.2177 90.7312 21.1598 90.7312 21.1018V17.7409C90.7312 17.7409 90.7312 17.683 90.6732 17.683H89.3984C89.3984 17.683 89.3405 17.683 89.3405 17.7409V26.4329C89.3405 26.4329 89.3404 26.4909 89.3984 26.4909H90.6732C90.6732 26.4909 90.7312 26.4909 90.7312 26.4329V22.6084C90.7312 22.5505 90.7891 22.5505 90.7891 22.5505L94.5556 26.4329C94.5556 26.4329 94.5556 26.4329 94.6136 26.4329H96.2361C96.2361 26.4329 96.294 26.375 96.2361 26.375Z" fill="#161616"/>
<path d="M19.1092 12.9894L11.4602 18.6102L12.8509 15.3072L19.1092 12.9894Z" fill="#E17726" stroke="#E17726" stroke-width="0.144866" stroke-linecap="round" stroke-linejoin="round"/>
<path d="M1.55139 12.9894L9.08445 18.6681L7.75168 15.3072L1.55139 12.9894Z" fill="#E27625" stroke="#E27625" stroke-width="0.144866" stroke-linecap="round" stroke-linejoin="round"/>
<path d="M16.3856 26.0852L14.3574 29.1564L18.7034 30.3733L19.9203 26.1432L16.3856 26.0852Z" fill="#E27625" stroke="#E27625" stroke-width="0.144866" stroke-linecap="round" stroke-linejoin="round"/>
<path d="M0.73999 26.1432L1.95687 30.3733L6.30286 29.1564L4.27473 26.0852L0.73999 26.1432Z" fill="#E27625" stroke="#E27625" stroke-width="0.144866" stroke-linecap="round" stroke-linejoin="round"/>
<path d="M6.07113 20.8122L4.85425 22.6085L9.1423 22.7823L9.0264 18.1466L6.07113 20.8122Z" fill="#E27625" stroke="#E27625" stroke-width="0.144866" stroke-linecap="round" stroke-linejoin="round"/>
<path d="M14.5893 20.8122L11.5761 18.1466L11.4602 22.8403L15.7483 22.6664L14.5893 20.8122Z" fill="#E27625" stroke="#E27625" stroke-width="0.144866" stroke-linecap="round" stroke-linejoin="round"/>
<path d="M6.30298 29.1565L8.91058 27.8817L6.65066 26.1433L6.30298 29.1565Z" fill="#E27625" stroke="#E27625" stroke-width="0.144866" stroke-linecap="round" stroke-linejoin="round"/>
<path d="M11.7499 27.8817L14.3575 29.1565L14.0098 26.1433L11.7499 27.8817Z" fill="#E27625" stroke="#E27625" stroke-width="0.144866" stroke-linecap="round" stroke-linejoin="round"/>
<path d="M14.3575 29.1564L11.7499 27.8816L11.9817 29.562V30.2574L14.3575 29.1564Z" fill="#D5BFB2" stroke="#D5BFB2" stroke-width="0.144866" stroke-linecap="round" stroke-linejoin="round"/>
<path d="M6.30298 29.1565L8.73674 30.3154V29.62L8.96852 27.9396L6.30298 29.1565Z" fill="#D5BFB2" stroke="#D5BFB2" stroke-width="0.144866" stroke-linecap="round" stroke-linejoin="round"/>
<path d="M8.73668 25.0422L6.59265 24.4048L8.09926 23.7095L8.73668 25.0422Z" fill="#233447" stroke="#233447" stroke-width="0.144866" stroke-linecap="round" stroke-linejoin="round"/>
<path d="M11.8658 25.0422L12.5033 23.7095L14.0099 24.4048L11.8658 25.0422Z" fill="#233447" stroke="#233447" stroke-width="0.144866" stroke-linecap="round" stroke-linejoin="round"/>
<path d="M6.30291 29.1564L6.65059 26.0852L4.27478 26.1432L6.30291 29.1564Z" fill="#CC6228" stroke="#CC6228" stroke-width="0.144866" stroke-linecap="round" stroke-linejoin="round"/>
<path d="M13.9519 26.0852L14.2996 29.1564L16.3277 26.1432L13.9519 26.0852Z" fill="#CC6228" stroke="#CC6228" stroke-width="0.144866" stroke-linecap="round" stroke-linejoin="round"/>
<path d="M15.8062 22.6665L11.5182 22.8403L11.9238 25.0423L12.5612 23.7095L14.0678 24.4049L15.8062 22.6665Z" fill="#CC6228" stroke="#CC6228" stroke-width="0.144866" stroke-linecap="round" stroke-linejoin="round"/>
<path d="M6.59265 24.4049L8.09926 23.7095L8.73667 25.0423L9.1423 22.8403L4.85425 22.6665L6.59265 24.4049Z" fill="#CC6228" stroke="#CC6228" stroke-width="0.144866" stroke-linecap="round" stroke-linejoin="round"/>
<path d="M4.85425 22.6665L6.65059 26.2012L6.59265 24.4628L4.85425 22.6665Z" fill="#E27525" stroke="#E27525" stroke-width="0.144866" stroke-linecap="round" stroke-linejoin="round"/>
<path d="M14.0678 24.4047L14.0099 26.1431L15.8062 22.6084L14.0678 24.4047Z" fill="#E27525" stroke="#E27525" stroke-width="0.144866" stroke-linecap="round" stroke-linejoin="round"/>
<path d="M9.14232 22.8402L8.73669 25.0422L9.25821 27.6498L9.37411 24.2309L9.14232 22.8402Z" fill="#E27525" stroke="#E27525" stroke-width="0.144866" stroke-linecap="round" stroke-linejoin="round"/>
<path d="M11.4602 22.8402L11.2284 24.2309L11.3443 27.6498L11.8658 25.0422L11.4602 22.8402Z" fill="#E27525" stroke="#E27525" stroke-width="0.144866" stroke-linecap="round" stroke-linejoin="round"/>
<path d="M11.8658 25.0423L11.3442 27.6499L11.6919 27.8817L13.9518 26.1433L14.0098 24.4049L11.8658 25.0423Z" fill="#F5841F" stroke="#F5841F" stroke-width="0.144866" stroke-linecap="round" stroke-linejoin="round"/>
<path d="M6.59265 24.4049L6.6506 26.1433L8.91052 27.8817L9.2582 27.6499L8.73668 25.0423L6.59265 24.4049Z" fill="#F5841F" stroke="#F5841F" stroke-width="0.144866" stroke-linecap="round" stroke-linejoin="round"/>
<path d="M11.9238 30.3154V29.6201L11.75 29.4462H8.85263L8.67879 29.6201V30.3154L6.30298 29.1565L7.17218 29.8519L8.85263 31.0108H11.8079L13.5463 29.8519L14.3576 29.1565L11.9238 30.3154Z" fill="#C0AC9D" stroke="#C0AC9D" stroke-width="0.144866" stroke-linecap="round" stroke-linejoin="round"/>
<path d="M11.75 27.8817L11.4023 27.6499H9.2583L8.91062 27.8817L8.67883 29.5621L8.85267 29.3883H11.75L11.9238 29.5621L11.75 27.8817Z" fill="#161616" stroke="#161616" stroke-width="0.144866" stroke-linecap="round" stroke-linejoin="round"/>
<path d="M19.3988 19.0158L20.0362 15.8867L19.0511 12.9894L11.7499 18.4364L14.5893 20.8122L18.5876 21.9711L19.4568 20.9281L19.0511 20.6963L19.6886 20.1168L19.225 19.7691L19.8624 19.3056L19.3988 19.0158Z" fill="#763E1A" stroke="#763E1A" stroke-width="0.144866" stroke-linecap="round" stroke-linejoin="round"/>
<path d="M0.566284 15.8867L1.2037 19.0158L0.798071 19.3056L1.43548 19.7691L0.97191 20.1168L1.60932 20.6963L1.2037 20.986L2.0729 22.029L6.07121 20.8701L8.91059 18.4943L1.55138 12.9894L0.566284 15.8867Z" fill="#763E1A" stroke="#763E1A" stroke-width="0.144866" stroke-linecap="round" stroke-linejoin="round"/>
<path d="M18.5877 21.9711L14.5894 20.8121L15.8062 22.6085L14.0099 26.1432L16.3857 26.0853H19.9204L18.5877 21.9711Z" fill="#F5841F" stroke="#F5841F" stroke-width="0.144866" stroke-linecap="round" stroke-linejoin="round"/>
<path d="M6.07108 20.8121L2.07276 21.9711L0.73999 26.0853H4.27473L6.65054 26.1432L4.8542 22.6085L6.07108 20.8121Z" fill="#F5841F" stroke="#F5841F" stroke-width="0.144866" stroke-linecap="round" stroke-linejoin="round"/>
<path d="M11.4601 22.8403L11.6919 18.4364L12.8509 15.3073H7.6936L8.85254 18.4364L9.08432 22.8403L9.20022 24.231V27.6499H11.3442V24.231L11.4601 22.8403Z" fill="#F5841F" stroke="#F5841F" stroke-width="0.144866" stroke-linecap="round" stroke-linejoin="round"/>
</g>
</g>
<defs>
<clipPath id="clip0_2645_6318">
<rect width="96.7443" height="44" rx="5.95873" fill="white"/>
</clipPath>
<clipPath id="clip1_2645_6318">
<rect width="95.7278" height="18.1373" fill="white" transform="translate(0.508301 12.9314)"/>
</clipPath>
</defs>
</svg>
