<svg width="97" height="44" viewBox="0 0 97 44" fill="none" xmlns="http://www.w3.org/2000/svg">
<rect x="0.666626" width="95.6667" height="44" rx="6.42789" fill="#FBFBFB"/>
<path d="M44.702 19.461C44.7026 19.2812 44.6675 19.1031 44.5988 18.9369C44.53 18.7707 44.4289 18.6198 44.3013 18.4928C44.1737 18.3658 44.0221 18.2652 43.8553 18.197C43.6885 18.1287 43.5098 18.094 43.3295 18.095H35.1364C34.7728 18.095 34.4241 18.2388 34.1668 18.4949C33.9094 18.7511 33.7646 19.0985 33.7639 19.461V24.9081C33.7639 25.271 33.9085 25.6191 34.1659 25.8757C34.4233 26.1324 34.7724 26.2766 35.1364 26.2766H43.3295C43.51 26.2775 43.6889 26.2428 43.8559 26.1744C44.0228 26.1059 44.1745 26.0052 44.3022 25.8779C44.4298 25.7506 44.5309 25.5994 44.5995 25.4329C44.6681 25.2665 44.703 25.0881 44.702 24.9081V19.461ZM36.0269 26.0082C35.9097 26.0082 35.7937 25.9852 35.6855 25.9404C35.5773 25.8956 35.4791 25.83 35.3963 25.7473C35.3136 25.6646 35.2481 25.5664 35.2035 25.4584C35.1589 25.3504 35.136 25.2347 35.1364 25.1179V19.2512C35.1364 19.0157 35.2302 18.7899 35.3972 18.6234C35.5642 18.4569 35.7907 18.3633 36.0269 18.3633H42.439C42.6752 18.3633 42.9017 18.4569 43.0687 18.6234C43.2357 18.7899 43.3295 19.0157 43.3295 19.2512V25.1203C43.3298 25.2371 43.307 25.3528 43.2624 25.4609C43.2178 25.5689 43.1523 25.667 43.0696 25.7497C42.9868 25.8325 42.8886 25.8981 42.7804 25.9429C42.6722 25.9876 42.5562 26.0107 42.439 26.0107L36.0269 26.0082ZM56.1098 23.5689V24.913C56.1111 25.092 56.0769 25.2696 56.0091 25.4354C55.9414 25.6012 55.8414 25.752 55.715 25.8792C55.5886 26.0063 55.4382 26.1074 55.2725 26.1764C55.1069 26.2454 54.9291 26.2811 54.7496 26.2815H46.5441C46.3651 26.2847 46.1871 26.2523 46.0208 26.1862C45.8544 26.1201 45.7029 26.0216 45.5751 25.8965C45.4474 25.7714 45.3458 25.6221 45.2766 25.4574C45.2073 25.2927 45.1717 25.1159 45.1717 24.9374V19.4854C45.1698 19.1198 45.313 18.7684 45.5702 18.5078C45.8274 18.2473 46.1776 18.0989 46.5441 18.095H56.1098V18.3877L47.4347 18.4097C47.3189 18.4071 47.2037 18.4275 47.096 18.4699C46.9882 18.5122 46.8899 18.5755 46.807 18.6562C46.7241 18.7368 46.6581 18.8331 46.613 18.9395C46.5678 19.0459 46.5445 19.1601 46.5441 19.2756V25.1301C46.5445 25.2456 46.5678 25.3598 46.613 25.4662C46.6581 25.5726 46.7241 25.6689 46.807 25.7495C46.8899 25.8302 46.9882 25.8935 47.096 25.9358C47.2037 25.9782 47.3189 25.9986 47.4347 25.996H53.859C54.0927 25.9954 54.3167 25.9033 54.4829 25.7395C54.649 25.5756 54.7439 25.3533 54.7471 25.1203V23.5665L56.1098 23.5689ZM67.5176 23.5689V24.913C67.5189 25.092 67.4846 25.2696 67.4169 25.4354C67.3491 25.6012 67.2491 25.752 67.1228 25.8792C66.9964 26.0063 66.846 26.1074 66.6803 26.1764C66.5147 26.2454 66.3369 26.2811 66.1573 26.2815H57.952C57.7729 26.2847 57.5949 26.2523 57.4286 26.1862C57.2622 26.1201 57.1107 26.0216 56.983 25.8965C56.8552 25.7714 56.7537 25.6221 56.6844 25.4574C56.6151 25.2927 56.5795 25.1159 56.5795 24.9374V19.4854C56.5775 19.1198 56.7208 18.7684 56.978 18.5078C57.2351 18.2473 57.5854 18.0989 57.952 18.095H67.5176V18.3877L58.8424 18.4097C58.7275 18.4071 58.6131 18.4272 58.506 18.4689C58.3988 18.5107 58.3011 18.5731 58.2183 18.6527C58.1354 18.7323 58.0693 18.8275 58.0236 18.9327C57.9779 19.038 57.9536 19.1512 57.952 19.2659V25.1203C57.9522 25.2358 57.9757 25.3501 58.0208 25.4565C58.0659 25.5628 58.1318 25.6592 58.2148 25.7398C58.2977 25.8204 58.3959 25.8838 58.5037 25.9261C58.6115 25.9684 58.7267 25.9889 58.8424 25.9863H65.2669C65.384 25.9863 65.5 25.9632 65.6081 25.9185C65.7164 25.8737 65.8147 25.8081 65.8973 25.7254C65.9801 25.6427 66.0456 25.5445 66.0903 25.4365C66.1349 25.3285 66.1577 25.2127 66.1573 25.0959V23.5421L67.5176 23.5689ZM67.9872 18.0999V18.3926H75.9358L67.9872 26.2815H69.9151L75.1554 21.1856C75.6627 20.6348 75.9393 19.9112 75.9285 19.1634C75.9285 18.1218 77.57 18.1218 77.57 19.1634V26.2815H78.918V19.4513C78.922 19.2737 78.8899 19.0971 78.8236 18.9322C78.7572 18.7673 78.6581 18.6176 78.5321 18.492C78.4062 18.3663 78.256 18.2675 78.0906 18.2013C77.9252 18.1352 77.7481 18.1032 77.57 18.1072L67.9872 18.0999ZM90.086 18.0999C89.9046 18.098 89.7247 18.1322 89.5566 18.2004C89.3886 18.2687 89.2359 18.3697 89.1074 18.4975L88.075 19.5366C87.8316 19.7849 87.6409 20.0797 87.5148 20.4033C87.3887 20.727 87.3296 21.0728 87.3412 21.4198C87.3412 21.6165 87.2628 21.8051 87.1233 21.9442C86.9838 22.0833 86.7947 22.1614 86.5974 22.1614C86.4001 22.1614 86.211 22.0833 86.0715 21.9442C85.932 21.8051 85.8537 21.6165 85.8537 21.4198C85.8646 21.0728 85.8053 20.7272 85.6792 20.4036C85.5531 20.0801 85.3628 19.7852 85.1198 19.5366L84.0873 18.4975C83.9588 18.3698 83.8062 18.2689 83.6382 18.2006C83.4701 18.1324 83.2901 18.0981 83.1088 18.0999H80.7651C80.5849 18.0992 80.4063 18.1341 80.2397 18.2025C80.073 18.2709 79.9216 18.3714 79.794 18.4984C79.6665 18.6253 79.5654 18.7762 79.4965 18.9422C79.4276 19.1082 79.3923 19.2862 79.3926 19.4659V26.2815H80.7651V19.2561C80.7636 19.0808 80.8145 18.9091 80.9112 18.7627C81.0079 18.6163 81.1462 18.502 81.3083 18.4342C81.4705 18.3665 81.6492 18.3484 81.8217 18.3822C81.9942 18.4161 82.1527 18.5004 82.277 18.6243L85.7583 22.1199C85.9812 22.3364 86.2801 22.4576 86.5913 22.4576C86.9025 22.4576 87.2013 22.3364 87.4243 22.1199L90.9179 18.6243C91.043 18.5027 91.2014 18.4205 91.3731 18.388C91.5447 18.3555 91.7222 18.3741 91.8835 18.4414C92.0446 18.5088 92.1824 18.6219 92.2795 18.7668C92.3767 18.9117 92.4289 19.0819 92.4298 19.2561V26.2815H93.7997V19.461C93.8004 19.2814 93.7654 19.1035 93.6968 18.9375C93.6281 18.7715 93.5273 18.6206 93.3999 18.4937C93.2726 18.3667 93.1213 18.2661 92.9547 18.1977C92.7882 18.1292 92.6098 18.0943 92.4298 18.095L90.086 18.0999Z" fill="url(#paint0_linear_2639_6002)"/>
<path d="M22.5222 13.7288H9.7707H9.76688H9.76657H9.29708C7.78112 13.7288 6.92927 14.9557 6.52558 16.4937L3.25743 27.292C3.21085 27.4465 3.18994 27.6084 3.2048 27.7692C3.33819 29.1805 4.53547 30.2714 5.96409 30.2714H8.61991H8.62012H25.5406C26.9975 30.2714 28.1785 29.1715 28.3017 27.7519C28.3146 27.6033 28.2978 27.4534 28.2583 27.3093L25.2937 16.4937C24.8533 15.0604 24.0618 13.7288 22.5222 13.7288ZM6.23555 28.6814C6.18026 28.7363 6.10279 28.4997 6.04453 28.2782C5.98775 28.0616 5.99126 27.8336 6.05196 27.6183L9.29708 16.0683C9.54976 15.0601 9.89338 14.5026 10.6929 14.3194H20.7721L6.23555 28.6814ZM25.5406 27.9318C25.5406 28.9237 24.7345 29.7279 23.7404 29.7279H9.81973C9.58563 29.7279 9.47027 29.4442 9.63773 29.2813L19.2086 19.9677C20.2982 18.9043 20.7721 17.2263 20.7721 15.8795C20.7721 15.0493 21.0541 14.5616 21.3949 14.4032C22.0558 14.669 22.3377 15.2695 22.5222 16.0683L25.5406 27.9318Z" fill="url(#paint1_linear_2639_6002)"/>
<defs>
<linearGradient id="paint0_linear_2639_6002" x1="71.3267" y1="18.095" x2="71.3267" y2="26.2817" gradientUnits="userSpaceOnUse">
<stop stop-color="#060707"/>
<stop offset="0.473958" stop-color="#27292C"/>
<stop offset="1" stop-color="#5B5E62"/>
</linearGradient>
<linearGradient id="paint1_linear_2639_6002" x1="15.753" y1="13.7288" x2="15.753" y2="30.2714" gradientUnits="userSpaceOnUse">
<stop stop-color="#090A0A"/>
<stop offset="1" stop-color="#54565A"/>
</linearGradient>
</defs>
</svg>
