<svg width="146" height="44" viewBox="0 0 146 44" fill="none" xmlns="http://www.w3.org/2000/svg">
<rect x="0.5" width="145.5" height="44" rx="6.42789" fill="#FBFBFB"/>
<path d="M42.4968 26.0944C42.2457 26.0944 42.1202 26.0333 41.9947 25.9722C41.9319 25.85 41.8691 25.7278 41.8691 25.5444V18.7C41.8691 18.5166 41.9319 18.3333 41.9947 18.2722C42.1202 18.15 42.2457 18.0889 42.4968 18.0889H45.4465C46.5762 18.0889 47.3921 18.3333 47.957 18.7611C48.4591 19.25 48.7729 19.9222 48.7729 20.8389C48.7729 21.7555 48.5218 22.4278 47.957 22.9166C47.4549 23.3444 46.5762 23.5889 45.4465 23.5889H44.3168V25.4833C44.3168 25.6666 44.2541 25.85 44.1913 25.9111C44.0658 26.0333 43.9403 26.0333 43.6892 26.0333H42.4968V26.0944ZM45.2583 21.8778C45.5721 21.8778 45.8231 21.8166 46.0114 21.6333C46.1997 21.45 46.2624 21.2055 46.2624 20.8389C46.2624 20.4722 46.1997 20.2278 46.0114 20.0444C45.8231 19.8611 45.5721 19.8 45.2583 19.8H44.3168V21.8778H45.2583Z" fill="#1D1E21"/>
<path d="M51.5974 26.2779C50.8442 26.2779 50.2166 26.0335 49.7773 25.5446C49.338 25.0557 49.0869 24.3835 49.0869 23.5279C49.0869 22.8557 49.2124 22.3057 49.5262 21.8168C49.8401 21.3279 50.2794 20.9612 50.8442 20.6557C51.4091 20.4112 52.0995 20.2279 52.7898 20.2279C53.4174 20.2279 53.9195 20.289 54.4216 20.4112C54.9237 20.5335 55.3003 20.7168 55.7396 20.9612V25.6668C55.7396 25.789 55.7396 25.9112 55.6769 25.9724C55.6141 26.0335 55.4886 26.0335 55.363 26.0335H54.1078C54.0451 26.0335 53.9195 26.0335 53.9195 25.9724C53.8568 25.9112 53.8568 25.9112 53.794 25.8501L53.6057 25.4835C53.3547 25.7279 53.1036 25.9112 52.7898 26.0335C52.476 26.2168 52.0367 26.2779 51.5974 26.2779ZM52.476 24.689C52.7898 24.689 53.0409 24.6279 53.2292 24.4446C53.4174 24.3224 53.4802 24.0779 53.4802 23.8335V22.0001C53.3547 21.939 53.1036 21.8779 52.9154 21.8779C52.476 21.8779 52.1622 22.0001 51.9112 22.3057C51.6601 22.6112 51.5346 22.9779 51.5346 23.5279C51.5346 24.2612 51.8484 24.689 52.476 24.689Z" fill="#1D1E21"/>
<path d="M57.434 26.0944C57.183 26.0944 57.0574 26.0333 56.9319 25.9722C56.8064 25.8499 56.8064 25.7277 56.8064 25.5444V20.7777C56.8064 20.6555 56.8064 20.5333 56.8692 20.4722C56.9319 20.411 57.0574 20.411 57.183 20.411H58.4382C58.5637 20.411 58.6265 20.411 58.6265 20.4722C58.6892 20.4722 58.6892 20.5333 58.752 20.5944L58.8148 20.961C59.0658 20.7166 59.3168 20.5944 59.6934 20.4722C60.07 20.3499 60.4465 20.2888 60.9486 20.2888C61.5762 20.2888 62.1411 20.4722 62.5177 20.8388C62.8942 21.2055 63.1453 21.6944 63.1453 22.4277V25.5444C63.1453 25.7277 63.0825 25.911 63.0198 25.9722C62.957 26.0944 62.7687 26.0944 62.5177 26.0944H61.3252C61.0742 26.0944 60.9486 26.0333 60.8231 25.9722C60.6976 25.8499 60.6976 25.7277 60.6976 25.5444V22.5499C60.6976 22.3055 60.6348 22.1222 60.5093 22.061C60.3838 21.9388 60.2583 21.8777 60.0072 21.8777C59.7562 21.8777 59.5679 21.9388 59.4424 22.061C59.3168 22.1833 59.2541 22.3666 59.2541 22.5499V25.4833C59.2541 25.6666 59.1913 25.8499 59.1286 25.911C59.0658 26.0333 58.8775 26.0333 58.6265 26.0333H57.434V26.0944Z" fill="#1D1E21"/>
<path d="M67.4131 26.2777C66.2834 26.2777 65.4047 26.0333 64.7771 25.4833C64.1495 24.9944 63.8357 24.261 63.8357 23.2833C63.8357 22.6722 63.9612 22.1833 64.275 21.6944C64.5261 21.2666 64.9654 20.8999 65.4675 20.6555C66.0323 20.411 66.6599 20.2888 67.3503 20.2888C67.9152 20.2888 68.3545 20.3499 68.7311 20.4722C69.1076 20.5944 69.4842 20.7166 69.7353 20.961C69.798 21.0222 69.8608 21.0833 69.8608 21.1444C69.8608 21.2055 69.798 21.2666 69.7353 21.3888L69.2332 22.2444C69.1704 22.3666 69.1076 22.4277 69.0449 22.4277C68.9821 22.4277 68.9194 22.3666 68.7938 22.3055C68.6055 22.1833 68.3545 22.061 68.1662 21.9999C67.9779 21.9388 67.7269 21.8777 67.4758 21.8777C67.0993 21.8777 66.7227 21.9999 66.4717 22.2444C66.2206 22.4888 66.0951 22.8555 66.0951 23.2833C66.0951 23.711 66.2206 24.0777 66.4717 24.3222C66.7227 24.5666 67.0365 24.6888 67.4758 24.6888C67.7269 24.6888 67.9779 24.6277 68.1662 24.5666C68.3545 24.5055 68.6055 24.3833 68.7938 24.261C68.9194 24.1999 68.9821 24.1388 69.0449 24.1388C69.1076 24.1388 69.1704 24.1999 69.2332 24.3222L69.798 25.2388C69.8608 25.2999 69.8608 25.361 69.8608 25.4222C69.8608 25.4833 69.798 25.5444 69.7353 25.6055C69.4214 25.7888 69.0449 25.9721 68.6055 26.0944C68.4173 26.2166 67.9779 26.2777 67.4131 26.2777Z" fill="#1D1E21"/>
<path d="M73.1242 26.2779C72.3711 26.2779 71.7435 26.0335 71.3041 25.5446C70.8648 25.0557 70.6138 24.3835 70.6138 23.5279C70.6138 22.8557 70.7393 22.3057 71.0531 21.8168C71.3669 21.3279 71.8062 20.9612 72.3711 20.6557C72.9359 20.4112 73.6263 20.2279 74.3167 20.2279C74.9443 20.2279 75.4464 20.289 75.9485 20.4112C76.4506 20.5335 76.8272 20.7168 77.2665 20.9612V25.6668C77.2665 25.789 77.2665 25.9112 77.2037 25.9724C77.141 26.0335 77.0154 26.0335 76.8899 26.0335H75.6347C75.5719 26.0335 75.4464 26.0335 75.4464 25.9724C75.3836 25.9112 75.3836 25.9112 75.3209 25.8501L75.1326 25.4835C74.8815 25.7279 74.6305 25.9112 74.3167 26.0335C74.0029 26.2168 73.6263 26.2779 73.1242 26.2779ZM74.0657 24.689C74.3795 24.689 74.6305 24.6279 74.8188 24.4446C75.0071 24.3224 75.0698 24.0779 75.0698 23.8335V22.0001C74.9443 21.939 74.6933 21.8779 74.505 21.8779C74.0656 21.8779 73.7518 22.0001 73.5008 22.3057C73.2498 22.6112 73.1242 22.9779 73.1242 23.5279C73.0615 24.2612 73.3753 24.689 74.0657 24.689Z" fill="#1D1E21"/>
<path d="M84.9237 25.6666C84.9864 25.7278 84.9864 25.7889 84.9864 25.85C84.9864 25.9111 84.9864 25.9722 84.9237 26.0333C84.8609 26.0944 84.7982 26.0944 84.7354 26.0944H82.8526C82.727 26.0944 82.6643 26.0944 82.6015 26.0944C82.5388 26.0944 82.476 26.0333 82.4132 25.9722L80.7814 23.7722V25.4833C80.7814 25.6666 80.7187 25.85 80.6559 25.9111C80.5304 26.0333 80.4049 26.0333 80.1538 26.0333H78.9614C78.7103 26.0333 78.5848 25.9722 78.4593 25.9111C78.3965 25.7889 78.3337 25.6666 78.3337 25.4833V18.7C78.3337 18.5166 78.3965 18.3333 78.4593 18.2722C78.5848 18.15 78.7103 18.0889 78.9614 18.0889H80.1538C80.4049 18.0889 80.5304 18.15 80.6559 18.2722C80.7814 18.3944 80.7814 18.5166 80.7814 18.7V22.6111L82.3505 20.5944C82.4132 20.5333 82.476 20.4722 82.5388 20.4722C82.6015 20.4722 82.6643 20.4111 82.7898 20.4111H84.6726C84.7354 20.4111 84.7982 20.4111 84.8609 20.4722C84.9237 20.5333 84.9237 20.5944 84.9237 20.6555C84.9237 20.7166 84.9237 20.7778 84.8609 20.8389L82.7898 23.1611L84.9237 25.6666Z" fill="#1D1E21"/>
<path d="M88.8149 26.2778C88.1246 26.2778 87.5597 26.1555 86.9949 25.9722C86.4928 25.7278 86.0534 25.4222 85.7396 24.9944C85.4258 24.5666 85.3003 24.0166 85.3003 23.4055C85.3003 22.4278 85.6141 21.6333 86.179 21.1444C86.7438 20.5944 87.6225 20.35 88.6894 20.35C89.7563 20.35 90.5722 20.5944 91.0743 21.1444C91.6392 21.6333 91.8902 22.3666 91.8902 23.2833C91.8902 23.65 91.7019 23.8944 91.3881 23.8944H87.6225C87.6225 24.2611 87.748 24.5055 87.999 24.6889C88.2501 24.8722 88.6894 24.9333 89.1915 24.9333C89.5053 24.9333 89.8191 24.9333 90.0074 24.8722C90.2584 24.8111 90.4467 24.6889 90.6978 24.6278C90.8233 24.5666 90.886 24.5666 90.886 24.5666C90.9488 24.5666 91.0116 24.6278 91.0743 24.6889L91.5137 25.4222C91.5764 25.4833 91.5764 25.5444 91.5764 25.6055C91.5764 25.6666 91.5137 25.7278 91.4509 25.7889C91.1371 25.9722 90.7605 26.1555 90.3212 26.2778C89.8191 26.2166 89.3798 26.2778 88.8149 26.2778ZM89.7563 22.6111C89.7563 22.3055 89.6936 22.0611 89.5053 21.9389C89.317 21.7555 89.066 21.6944 88.6894 21.6944C88.3128 21.6944 88.0618 21.7555 87.8735 21.9389C87.6852 22.1222 87.6225 22.3055 87.6225 22.6111H89.7563Z" fill="#1D1E21"/>
<path d="M96.0952 26.2777C95.4048 26.2777 94.7772 26.2166 94.1496 26.0944C93.522 25.9722 93.0827 25.7277 92.7061 25.4833C92.5806 25.4222 92.5178 25.2999 92.5178 25.2388C92.5178 25.1777 92.5178 25.1166 92.5806 25.0555L93.1454 24.1388C93.2082 24.0166 93.271 24.0166 93.3337 24.0166C93.3965 24.0166 93.4592 24.0166 93.522 24.0777C93.8358 24.261 94.1496 24.3833 94.5262 24.5055C94.9028 24.6277 95.2793 24.6888 95.6559 24.6888C96.0325 24.6888 96.2835 24.6277 96.4718 24.5055C96.6601 24.3833 96.7228 24.1999 96.7228 23.9555C96.7228 23.711 96.5973 23.5277 96.409 23.4055C96.2207 23.2833 95.8442 23.0999 95.2793 22.9166C94.4634 22.611 93.8358 22.3055 93.3965 21.9388C92.9572 21.5722 92.7061 21.0222 92.7061 20.411C92.7061 19.6166 93.0199 19.0666 93.5848 18.6388C94.1496 18.211 94.9028 18.0277 95.8442 18.0277C96.5345 18.0277 97.0994 18.0888 97.5387 18.211C98.0408 18.3333 98.4174 18.5166 98.7312 18.6999C98.8567 18.8222 98.9195 18.8833 98.9195 19.0055C98.9195 19.0666 98.9195 19.1277 98.8567 19.1888L98.2919 20.1055C98.2291 20.2277 98.1663 20.2277 98.1036 20.2277C98.0408 20.2277 97.9781 20.2277 97.9153 20.1666C97.476 19.861 96.9111 19.7388 96.2207 19.7388C95.8442 19.7388 95.5931 19.7999 95.4048 19.9222C95.2166 20.0444 95.1538 20.2277 95.1538 20.4722C95.1538 20.6555 95.2166 20.7777 95.2793 20.8999C95.4048 21.0222 95.5304 21.0833 95.6559 21.2055C95.8442 21.2666 96.0952 21.3888 96.409 21.511L96.6601 21.5722C97.2249 21.8166 97.727 21.9999 98.0408 22.2444C98.4174 22.4277 98.6684 22.7333 98.8567 23.0388C99.045 23.3444 99.1078 23.711 99.1078 24.1388C99.1078 24.811 98.8567 25.4222 98.2919 25.7888C97.9153 26.0333 97.0994 26.2777 96.0952 26.2777Z" fill="#1D1E21"/>
<path d="M101.806 26.0945C101.681 26.0945 101.618 26.0945 101.555 26.0334C101.492 25.9722 101.43 25.9111 101.43 25.7889L99.8606 20.7167C99.8606 20.6556 99.8606 20.6556 99.8606 20.5945C99.8606 20.4722 99.9234 20.4111 100.112 20.4111H101.681C101.806 20.4111 101.869 20.4111 101.932 20.4722C101.994 20.5334 101.994 20.5334 102.057 20.6556L102.685 23.3445L103.501 21.2056C103.564 21.0834 103.564 21.0222 103.626 21.0222C103.689 20.9611 103.752 20.9611 103.877 20.9611H104.63C104.756 20.9611 104.819 20.9611 104.882 21.0222C104.944 21.0834 104.944 21.1445 105.007 21.2056L105.823 23.3445L106.513 20.6556C106.513 20.5945 106.576 20.5334 106.639 20.4722C106.702 20.4111 106.764 20.4111 106.827 20.4111H108.459C108.647 20.4111 108.71 20.4722 108.71 20.5945C108.71 20.5945 108.71 20.6556 108.71 20.7167L107.141 25.7889C107.078 25.9111 107.078 25.9722 107.015 26.0334C106.953 26.0945 106.89 26.0945 106.764 26.0945H105.572C105.446 26.0945 105.384 26.0945 105.321 26.0334C105.258 25.9722 105.195 25.9111 105.195 25.7889L104.379 23.65L103.564 25.7889C103.501 25.9111 103.501 25.9722 103.438 26.0334C103.375 26.0945 103.312 26.0945 103.187 26.0945H101.806Z" fill="#1D1E21"/>
<path d="M111.597 26.2779C110.844 26.2779 110.216 26.0335 109.777 25.5446C109.338 25.0557 109.087 24.3835 109.087 23.5279C109.087 22.8557 109.212 22.3057 109.526 21.8168C109.84 21.3279 110.279 20.9612 110.844 20.6557C111.409 20.4112 112.099 20.2279 112.79 20.2279C113.417 20.2279 113.919 20.289 114.421 20.4112C114.923 20.5335 115.3 20.7168 115.739 20.9612V25.6668C115.739 25.789 115.739 25.9112 115.677 25.9724C115.614 26.0335 115.488 26.0335 115.363 26.0335H114.108C114.045 26.0335 113.982 26.0335 113.919 25.9724C113.857 25.9112 113.857 25.9112 113.794 25.8501L113.605 25.4835C113.354 25.7279 113.103 25.9112 112.79 26.0335C112.476 26.2168 112.099 26.2779 111.597 26.2779ZM112.539 24.689C112.852 24.689 113.103 24.6279 113.292 24.4446C113.48 24.3224 113.543 24.0779 113.543 23.8335V22.0001C113.417 21.939 113.166 21.8779 112.978 21.8779C112.539 21.8779 112.225 22.0001 111.974 22.3057C111.723 22.6112 111.597 22.9779 111.597 23.5279C111.534 24.2612 111.848 24.689 112.539 24.689Z" fill="#1D1E21"/>
<path d="M117.434 28.4778C117.183 28.4778 117.057 28.4166 116.932 28.3555C116.869 28.2333 116.806 28.1111 116.806 27.9278V21.2055C117.183 20.9611 117.622 20.7166 118.187 20.5944C118.752 20.4111 119.317 20.35 119.881 20.35C122.329 20.35 123.522 21.3278 123.522 23.3444C123.522 24.2611 123.271 24.9944 122.768 25.5444C122.266 26.0944 121.513 26.3389 120.572 26.3389C120.321 26.3389 120.07 26.2778 119.819 26.2166C119.568 26.1555 119.379 26.0944 119.191 25.9722V27.9278C119.191 28.1111 119.128 28.2944 119.066 28.3555C118.94 28.4778 118.815 28.4778 118.563 28.4778H117.434ZM120.07 24.6889C120.446 24.6889 120.697 24.5666 120.823 24.3222C121.011 24.0778 121.074 23.7111 121.074 23.2833C121.074 22.7944 120.948 22.4278 120.76 22.1833C120.572 22 120.258 21.8778 119.819 21.8778C119.568 21.8778 119.317 21.9389 119.191 22V23.8333C119.191 24.0778 119.254 24.3222 119.442 24.4444C119.568 24.6278 119.819 24.6889 120.07 24.6889Z" fill="#1D1E21"/>
<path fill-rule="evenodd" clip-rule="evenodd" d="M25.865 16.7444C25.614 15.5222 26.6182 14.3611 27.8734 14.3611C29.0031 14.3611 29.9445 15.2778 29.9445 16.3778V18.8222C30.2583 18.8222 30.5094 18.8222 30.8232 18.8222C31.0742 18.8222 31.388 18.8222 31.6391 18.8222V16.3778C31.6391 15.2778 32.5805 14.3611 33.7102 14.3611C34.9654 14.3611 35.9696 15.5222 35.7186 16.7444L35.1537 19.6166C37.0365 20.4111 38.4801 21.8166 38.4801 23.5889V24.6278C38.4801 26.0944 37.4759 27.3166 36.0951 28.1111C34.7144 28.9666 32.8315 29.4555 30.7604 29.4555C28.6893 29.4555 26.8065 28.9666 25.4257 28.1111C24.045 27.3166 23.0408 26.0944 23.0408 24.6278V23.5889C23.0408 21.8166 24.4843 20.4111 26.3671 19.6166L25.865 16.7444ZM34.4633 20.0444L35.0909 16.6833C35.2792 15.8278 34.5889 15.0333 33.7102 15.0333C32.8943 15.0333 32.2667 15.6444 32.2667 16.4389V19.5555C32.0784 19.5555 31.8274 19.4944 31.6391 19.4944C31.388 19.4944 31.0742 19.4944 30.8232 19.4944C30.5094 19.4944 30.2583 19.4944 29.9445 19.5555C29.7562 19.5555 29.5052 19.6166 29.3169 19.6166V16.5C29.3169 15.7055 28.6893 15.0944 27.8734 15.0944C26.9947 15.0944 26.3044 15.8889 26.4926 16.7444L27.1203 20.1666C25.1119 20.9 23.7311 22.2444 23.7311 23.7722V24.8111C23.7311 27.1333 26.8692 29.0278 30.7604 29.0278C34.6516 29.0278 37.7897 27.1333 37.7897 24.8111V23.7722C37.8524 22.1222 36.4717 20.7778 34.4633 20.0444Z" fill="#633001"/>
<path d="M37.8527 24.6889C37.8527 27.0111 34.7147 28.9056 30.8235 28.9056C26.9323 28.9056 23.7942 27.0111 23.7942 24.6889V23.65H37.9155V24.6889H37.8527Z" fill="#FEDC90"/>
<path fill-rule="evenodd" clip-rule="evenodd" d="M26.4927 16.6223C26.3044 15.7667 26.9948 14.9723 27.8734 14.9723C28.6893 14.9723 29.3169 15.5834 29.3169 16.3778V19.5556C29.819 19.4945 30.3211 19.4334 30.8232 19.4334C31.3253 19.4334 31.8274 19.4945 32.2667 19.4945V16.3778C32.2667 15.5834 32.8943 14.9723 33.7102 14.9723C34.5889 14.9723 35.2792 15.7667 35.091 16.6223L34.4634 19.9834C36.5345 20.7167 37.9152 22.0612 37.9152 23.589C37.9152 25.9112 34.7772 27.8056 30.886 27.8056C26.9948 27.8056 23.8567 25.9112 23.8567 23.589C23.8567 22.0612 25.2374 20.7167 27.2458 19.9834L26.4927 16.6223Z" fill="#D1884F"/>
<path d="M28.8776 23.3445C28.8776 23.9556 28.501 24.5056 28.1245 24.5056C27.7479 24.5056 27.3713 24.0167 27.3713 23.3445C27.3713 22.7334 27.7479 22.1833 28.1245 22.1833C28.501 22.1833 28.8776 22.6722 28.8776 23.3445Z" fill="#633001"/>
<path d="M34.2751 23.3445C34.2751 23.9556 33.8985 24.5056 33.5219 24.5056C33.0826 24.5056 32.7688 24.0167 32.7688 23.3445C32.7688 22.7334 33.1454 22.1833 33.5219 22.1833C33.8985 22.1833 34.2751 22.6722 34.2751 23.3445Z" fill="#633001"/>
</svg>
