<svg width="147" height="44" viewBox="0 0 147 44" fill="none" xmlns="http://www.w3.org/2000/svg">
<rect width="146.308" height="44" rx="5.95873" fill="#FBFBFB"/>
<rect width="146.308" height="44" rx="5.95873" fill="#FBFBFB"/>
<path d="M50.8362 19.2184C50.6814 19.1292 50.5059 19.0823 50.3273 19.0823C50.1487 19.0823 49.9733 19.1292 49.8185 19.2184L47.4839 20.6092L45.8976 21.5162L43.563 22.907C43.4082 22.9962 43.2328 23.0431 43.0542 23.0431C42.8756 23.0431 42.7001 22.9962 42.5453 22.907L40.6896 21.8186C40.5374 21.7276 40.4107 21.5994 40.3217 21.446C40.2327 21.2926 40.1842 21.1191 40.1808 20.9417V18.7951C40.1779 18.6165 40.2237 18.4405 40.3133 18.286C40.403 18.1315 40.5331 18.0044 40.6896 17.9183L42.5154 16.8601C42.6702 16.7709 42.8456 16.724 43.0242 16.724C43.2028 16.724 43.3783 16.7709 43.5331 16.8601L45.3588 17.9183C45.5111 18.0093 45.6377 18.1375 45.7267 18.2909C45.8157 18.4443 45.8642 18.6178 45.8676 18.7951V20.1859L47.454 19.2486V17.8578C47.4569 17.6792 47.4111 17.5032 47.3215 17.3487C47.2318 17.1942 47.1017 17.0671 46.9452 16.981L43.563 14.9856C43.4082 14.8964 43.2328 14.8495 43.0542 14.8495C42.8756 14.8495 42.7001 14.8964 42.5453 14.9856L39.1033 16.9811C38.9468 17.0671 38.8167 17.1942 38.727 17.3487C38.6374 17.5032 38.5915 17.6792 38.5945 17.8578V21.879C38.5915 22.0576 38.6374 22.2336 38.727 22.3881C38.8167 22.5426 38.9468 22.6697 39.1033 22.7558L42.5454 24.7512C42.7001 24.8404 42.8756 24.8874 43.0542 24.8874C43.2328 24.8874 43.4082 24.8404 43.563 24.7512L45.8976 23.3907L47.4839 22.4535L49.8185 21.0929C49.9733 21.0037 50.1487 20.9568 50.3273 20.9568C50.5059 20.9568 50.6814 21.0037 50.8362 21.0929L52.6619 22.1511C52.8142 22.2421 52.9408 22.3703 53.0298 22.5237C53.1188 22.677 53.1673 22.8506 53.1707 23.0279V25.1745C53.1737 25.3531 53.1279 25.5292 53.0382 25.6837C52.9486 25.8382 52.8185 25.9653 52.6619 26.0513L50.8362 27.1398C50.6814 27.229 50.5059 27.2759 50.3273 27.2759C50.1487 27.2759 49.9733 27.229 49.8185 27.1398L47.9928 26.0816C47.8405 25.9907 47.7138 25.8624 47.6248 25.709C47.5358 25.5556 47.4873 25.3821 47.4839 25.2048V23.814L45.8976 24.7512V26.142C45.8946 26.3206 45.9404 26.4967 46.0301 26.6512C46.1197 26.8057 46.2498 26.9328 46.4064 27.0188L49.8484 29.0143C50.0032 29.1035 50.1786 29.1504 50.3572 29.1504C50.5358 29.1504 50.7113 29.1035 50.8661 29.0143L54.3081 27.0188C54.4604 26.9279 54.587 26.7997 54.676 26.6463C54.765 26.4929 54.8135 26.3194 54.8169 26.142V22.1209C54.8199 21.9423 54.7741 21.7662 54.6844 21.6117C54.5947 21.4572 54.4646 21.3301 54.3081 21.2441L50.8362 19.2184Z" fill="#7B3FE4"/>
<path d="M61.1376 27.8628V24.5244C61.3665 24.768 61.6463 24.958 61.9571 25.0808C62.268 25.2036 62.6021 25.2563 62.9356 25.235C64.8958 25.235 66.2206 23.8541 66.2206 21.7492C66.2206 19.6443 65.004 18.2633 63.0978 18.2633C62.728 18.2424 62.3583 18.3078 62.0181 18.4544C61.6779 18.601 61.3764 18.8248 61.1376 19.108V18.3706H59.2585V27.8628H61.1376ZM62.7058 23.6262C61.6919 23.6262 61.0295 22.8754 61.0295 21.7492C61.0295 20.6096 61.6919 19.8588 62.7058 19.8588C63.6927 19.8588 64.3686 20.6096 64.3686 21.7492C64.3686 22.8754 63.6927 23.6262 62.7058 23.6262Z" fill="black"/>
<path d="M70.4876 25.2349C71.1724 25.2136 71.8358 24.9911 72.3949 24.5951C72.954 24.1991 73.3841 23.6471 73.6314 23.0082C73.8788 22.3693 73.9325 21.6716 73.7858 21.0024C73.6391 20.3331 73.2985 19.7219 72.8065 19.245C72.3146 18.7681 71.6931 18.4467 71.0196 18.3209C70.3461 18.1951 69.6504 18.2704 69.0195 18.5375C68.3886 18.8047 67.8503 19.2517 67.4719 19.8228C67.0934 20.394 66.8916 21.064 66.8916 21.7491C66.8826 22.2188 66.9703 22.6853 67.1492 23.1196C67.3282 23.5539 67.5946 23.9468 67.9319 24.2737C68.2692 24.6007 68.6701 24.8547 69.1098 25.0201C69.5495 25.1855 70.0185 25.2586 70.4876 25.2349ZM70.4876 23.6261C69.4737 23.6261 68.7843 22.8619 68.7843 21.7491C68.7843 20.6229 69.4737 19.8587 70.4876 19.8587C71.5015 19.8587 72.1909 20.6229 72.1909 21.7491C72.1909 22.8619 71.5015 23.6261 70.4876 23.6261Z" fill="black"/>
<path d="M77.0983 25.1277V15.4344H75.2192V25.1277H77.0983Z" fill="black"/>
<path d="M82.7472 18.3705L81.3277 22.7278L79.8947 18.3705H77.9751L80.449 25.074L79.4486 27.8627H81.2466L82.2064 25.1008L84.6803 18.3705H82.7472Z" fill="black"/>
<path d="M89.9575 19.0408C89.7211 18.7805 89.43 18.5757 89.1051 18.4412C88.7802 18.3068 88.4295 18.246 88.0782 18.2632C86.0909 18.2632 84.8878 19.6442 84.8878 21.7491C84.8878 23.854 86.0909 25.2349 88.1055 25.2349C88.4564 25.2561 88.8075 25.1958 89.1311 25.0585C89.4548 24.9213 89.7422 24.7109 89.9709 24.4439V25.3287C89.9814 25.4651 89.9637 25.6021 89.919 25.7313C89.8743 25.8605 89.8034 25.9791 89.7108 26.0797C89.6183 26.1803 89.506 26.2608 89.3809 26.3161C89.2559 26.3715 89.1208 26.4005 88.9841 26.4013H85.8478V27.8627H89.2813C90.8227 27.8627 91.8501 26.9376 91.8501 25.5299V18.3705H89.9575V19.0408ZM88.4027 23.6261C87.4025 23.6261 86.7398 22.8887 86.7398 21.7491C86.7398 20.6095 87.4025 19.8587 88.4027 19.8587C89.4167 19.8587 90.079 20.6095 90.079 21.7491C90.079 22.8887 89.4167 23.6261 88.4027 23.6261V23.6261Z" fill="black"/>
<path d="M96.5876 25.2349C97.2724 25.2137 97.9358 24.9912 98.495 24.5952C99.0541 24.1992 99.4842 23.6473 99.7316 23.0083C99.979 22.3694 100.033 21.6718 99.886 21.0025C99.7393 20.3332 99.3988 19.722 98.9068 19.2451C98.4149 18.7682 97.7934 18.4468 97.1199 18.3209C96.4464 18.1951 95.7507 18.2704 95.1198 18.5375C94.4888 18.8046 93.9505 19.2517 93.5721 19.8228C93.1937 20.394 92.9918 21.064 92.9918 21.7491C92.9828 22.2187 93.0705 22.6852 93.2495 23.1195C93.4284 23.5538 93.6948 23.9466 94.0321 24.2736C94.3693 24.6005 94.7702 24.8546 95.2099 25.02C95.6495 25.1854 96.1185 25.2585 96.5876 25.2349ZM96.5876 23.6261C95.5736 23.6261 94.8845 22.8619 94.8845 21.7491C94.8845 20.6229 95.5736 19.8587 96.5876 19.8587C97.6016 19.8587 98.2912 20.6229 98.2912 21.7491C98.2912 22.8619 97.6016 23.6261 96.5876 23.6261Z" fill="black"/>
<path d="M103.104 25.1277V21.4273C103.09 21.2347 103.116 21.0413 103.181 20.8592C103.245 20.6772 103.347 20.5104 103.479 20.3694C103.611 20.2284 103.77 20.1162 103.948 20.0399C104.125 19.9635 104.316 19.9247 104.51 19.9257C104.691 19.9239 104.87 19.9598 105.036 20.0311C105.203 20.1025 105.353 20.2078 105.476 20.3402C105.599 20.4727 105.694 20.6295 105.753 20.8005C105.813 20.9715 105.836 21.153 105.821 21.3335V25.1277H107.714V20.9179C107.714 19.3626 106.713 18.2633 105.172 18.2633C104.766 18.2378 104.36 18.3213 103.996 18.5051C103.632 18.6889 103.324 18.9664 103.104 19.309V18.3705H101.211V25.1277H103.104Z" fill="black"/>
</svg>
