<svg width="97" height="44" viewBox="0 0 97 44" fill="none" xmlns="http://www.w3.org/2000/svg">
<mask id="mask0_2645_6359" style="mask-type:alpha" maskUnits="userSpaceOnUse" x="5" y="11" width="21" height="22">
<rect x="5.54956" y="11.9309" width="20.3723" height="20.1381" rx="4.68329" fill="#D9D9D9"/>
</mask>
<g mask="url(#mask0_2645_6359)">
<rect x="5.54956" y="11.9309" width="20.3723" height="20.1381" rx="4.68329" fill="#125ECD"/>
<path fill-rule="evenodd" clip-rule="evenodd" d="M8.8916 16.4449L30.6565 20.8253L24.1624 26.4027L31.3793 25.4747L20.0389 38.2732L21.1709 27.5073L12.218 20.2228L17.7815 33.7477L16.2655 34.3713L8.8916 16.4449ZM13.3232 19.0089L27.0411 21.7697L22.0182 26.0835L13.3232 19.0089ZM22.7422 28.2379L22.2039 33.3582L27.255 27.6577L22.7422 28.2379Z" fill="white"/>
</g>
<g opacity="0.9">
<path d="M31.8806 17.8026V16.6307H40.0624V17.8026H36.632V27.5398H35.311V17.8026H31.8806Z" fill="black"/>
<path d="M41.0812 27.5398V19.358H42.2957V20.5938H42.3809C42.53 20.1889 42.7999 19.8605 43.1905 19.6083C43.5812 19.3562 44.0215 19.2301 44.5116 19.2301C44.6039 19.2301 44.7193 19.2319 44.8578 19.2355C44.9963 19.239 45.1011 19.2443 45.1721 19.2514V20.5299C45.1295 20.5192 45.0318 20.5032 44.8791 20.4819C44.73 20.4571 44.5719 20.4446 44.405 20.4446C44.0073 20.4446 43.6522 20.5281 43.3397 20.695C43.0307 20.8583 42.7857 21.0856 42.6046 21.3768C42.427 21.6644 42.3383 21.9929 42.3383 22.3622V27.5398H41.0812Z" fill="black"/>
<path d="M49.7371 27.7102C48.9984 27.7102 48.3503 27.5345 47.7928 27.1829C47.2388 26.8313 46.8056 26.3395 46.4931 25.7074C46.1841 25.0753 46.0297 24.3367 46.0297 23.4915C46.0297 22.6392 46.1841 21.8953 46.4931 21.2596C46.8056 20.624 47.2388 20.1303 47.7928 19.7788C48.3503 19.4272 48.9984 19.2514 49.7371 19.2514C50.4757 19.2514 51.122 19.4272 51.676 19.7788C52.2335 20.1303 52.6667 20.624 52.9757 21.2596C53.2882 21.8953 53.4444 22.6392 53.4444 23.4915C53.4444 24.3367 53.2882 25.0753 52.9757 25.7074C52.6667 26.3395 52.2335 26.8313 51.676 27.1829C51.122 27.5345 50.4757 27.7102 49.7371 27.7102ZM49.7371 26.581C50.2981 26.581 50.7598 26.4372 51.122 26.1495C51.4842 25.8619 51.7523 25.4837 51.9263 25.0149C52.1003 24.5462 52.1873 24.0384 52.1873 23.4915C52.1873 22.9446 52.1003 22.435 51.9263 21.9627C51.7523 21.4904 51.4842 21.1087 51.122 20.8175C50.7598 20.5263 50.2981 20.3807 49.7371 20.3807C49.176 20.3807 48.7143 20.5263 48.3521 20.8175C47.9899 21.1087 47.7218 21.4904 47.5478 21.9627C47.3738 22.435 47.2868 22.9446 47.2868 23.4915C47.2868 24.0384 47.3738 24.5462 47.5478 25.0149C47.7218 25.4837 47.9899 25.8619 48.3521 26.1495C48.7143 26.4372 49.176 26.581 49.7371 26.581Z" fill="black"/>
<path d="M56.6205 22.6179V27.5398H55.3634V19.358H56.5779V20.6364H56.6844C56.8762 20.2209 57.1674 19.8871 57.558 19.635C57.9486 19.3793 58.4529 19.2514 59.0708 19.2514C59.6248 19.2514 60.1095 19.3651 60.525 19.5924C60.9405 19.8161 61.2636 20.157 61.4944 20.6151C61.7253 21.0696 61.8407 21.6449 61.8407 22.3409V27.5398H60.5836V22.4262C60.5836 21.7834 60.4167 21.2827 60.0829 20.924C59.749 20.5618 59.2909 20.3807 58.7086 20.3807C58.3073 20.3807 57.9486 20.4677 57.6326 20.6417C57.3201 20.8157 57.0733 21.0696 56.8922 21.4034C56.711 21.7372 56.6205 22.1421 56.6205 22.6179Z" fill="black"/>
<path d="M64.3083 27.5398V16.6307H65.6293V26.3679H70.7003V27.5398H64.3083Z" fill="black"/>
<path d="M72.5753 27.5398V19.358H73.8324V27.5398H72.5753ZM73.2145 17.9943C72.9695 17.9943 72.7582 17.9109 72.5806 17.744C72.4066 17.5771 72.3196 17.3764 72.3196 17.1421C72.3196 16.9077 72.4066 16.7071 72.5806 16.5401C72.7582 16.3732 72.9695 16.2898 73.2145 16.2898C73.4595 16.2898 73.6691 16.3732 73.8431 16.5401C74.0206 16.7071 74.1094 16.9077 74.1094 17.1421C74.1094 17.3764 74.0206 17.5771 73.8431 17.744C73.6691 17.9109 73.4595 17.9943 73.2145 17.9943Z" fill="black"/>
<path d="M77.392 22.6179V27.5398H76.1349V19.358H77.3494V20.6364H77.4559C77.6477 20.2209 77.9389 19.8871 78.3295 19.635C78.7201 19.3793 79.2244 19.2514 79.8423 19.2514C80.3962 19.2514 80.881 19.3651 81.2965 19.5924C81.7119 19.8161 82.0351 20.157 82.2659 20.6151C82.4967 21.0696 82.6122 21.6449 82.6122 22.3409V27.5398H81.355V22.4262C81.355 21.7834 81.1881 21.2827 80.8543 20.924C80.5205 20.5618 80.0624 20.3807 79.48 20.3807C79.0788 20.3807 78.7201 20.4677 78.4041 20.6417C78.0916 20.8157 77.8447 21.0696 77.6636 21.4034C77.4825 21.7372 77.392 22.1421 77.392 22.6179Z" fill="black"/>
<path d="M86.0812 24.5568L86.0599 23.0014H86.3155L89.8951 19.358H91.4505L87.6366 23.2145H87.53L86.0812 24.5568ZM84.9093 27.5398V16.6307H86.1664V27.5398H84.9093ZM90.1082 27.5398L86.9121 23.4915L87.807 22.6179L91.7062 27.5398H90.1082Z" fill="black"/>
</g>
</svg>
