<svg width="147" height="44" viewBox="0 0 147 44" fill="none" xmlns="http://www.w3.org/2000/svg">
<rect x="0.691772" width="146.308" height="44" rx="5.95873" fill="#FBFBFB"/>
<rect x="0.691772" width="146.308" height="44" rx="5.95873" fill="#FBFBFB"/>
<path d="M68.0408 20.1357H67.0447V26.6396H68.0408V20.1357Z" fill="#262729"/>
<path d="M72.503 17.3806H64.3838V18.3767H72.503V17.3806Z" fill="#262729"/>
<path d="M69.8399 20.1359H68.8438V26.6398H69.8399V20.1359Z" fill="#262729"/>
<path d="M97.3589 26.646H98.364V22.7288L97.3589 21.6116V26.646Z" fill="#262729"/>
<path d="M102.652 17.3806V24.6428L95.542 16.7412V26.6462H96.5448V19.3818L103.659 27.2856V17.3806H102.652Z" fill="#262729"/>
<path d="M89.0332 17.376C86.4779 17.376 84.4004 19.4535 84.4004 22.0088C84.4004 24.5641 86.4779 26.6416 89.0332 26.6416C91.5886 26.6416 93.666 24.5641 93.666 22.0088C93.666 19.4557 91.5886 17.376 89.0332 17.376ZM89.0332 25.6433C87.0298 25.6433 85.3987 24.0145 85.3987 22.0088C85.3987 20.0031 87.0275 18.3743 89.0332 18.3743C91.0367 18.3743 92.6677 20.0031 92.6677 22.0088C92.6677 24.0122 91.0367 25.6433 89.0332 25.6433Z" fill="#262729"/>
<path d="M89.0333 21.3425C88.6653 21.3425 88.3669 21.6409 88.3669 22.0088C88.3669 22.3768 88.6653 22.6752 89.0333 22.6752C89.4012 22.6752 89.6996 22.3768 89.6996 22.0088C89.6996 21.6409 89.4012 21.3425 89.0333 21.3425Z" fill="#262729"/>
<path d="M82.6571 20.2231C82.6571 18.6571 81.3917 17.3828 79.837 17.3828H74.5378V26.6485H75.5272V18.3879H79.837C80.8353 18.3879 81.6475 19.2113 81.6475 20.2231C81.6475 21.2304 80.8466 22.0493 79.8572 22.0605L76.3416 22.0583V26.6485H77.331V23.0633H79.6485L81.542 26.6462H82.693L80.7164 22.922C81.8584 22.5429 82.6571 21.4391 82.6571 20.2231Z" fill="#262729"/>
<path d="M57.5346 15.5454L44.0332 13.0619L51.1384 30.9381L61.0367 18.877L57.5346 15.5454ZM57.3192 16.6403L59.3855 18.6033L53.7363 19.6264L57.3192 16.6403ZM52.5091 19.4222L46.5549 14.4843L56.2849 16.2746L52.5091 19.4222ZM52.0829 20.2972L51.1137 28.3222L45.8796 15.1483L52.0829 20.2972ZM52.9803 20.7212L59.2351 19.5882L52.0627 28.3289L52.9803 20.7212Z" fill="#EB0029"/>
</svg>
