<svg width="80" height="80" viewBox="0 0 80 80" fill="none" xmlns="http://www.w3.org/2000/svg">
<circle cx="39.6094" cy="44.0476" r="35" fill="#E22440"/>
<mask id="mask0_214_7074" style="mask-type:alpha" maskUnits="userSpaceOnUse" x="4" y="6" width="71" height="74">
<path d="M72.0358 57.3465C64.7323 75.2436 44.3032 83.8315 26.4061 76.528C8.50897 69.2246 -0.0789084 48.7955 7.22454 30.8983C9.84624 24.4738 14.1593 19.2489 19.4394 15.528C21.3154 14.206 20.7849 8.04367 22.8726 7.11503C25.8558 5.78804 29.2984 10.6156 31.3346 10.1171C36.6023 8.82747 42.2056 8.74915 47.7132 10.0634C49.4407 10.4757 54.3572 9.42229 56.0526 10.1141C59.0753 11.3476 58.6341 14.5582 61.094 16.4651C73.1989 25.8487 78.1057 42.472 72.0358 57.3465Z" fill="#E22440"/>
</mask>
<g mask="url(#mask0_214_7074)">
<path d="M22.336 13.442L22.4311 8.75553L26.4245 9.65819L30.2921 28.6836L32.4606 31.3859L33.0964 29.828L38.0498 27.4876L42.4121 29.2677L43.0478 27.7098L47.6644 28.8667L50.5009 34.386L52.4963 17.0262L54.5308 12.0407L57.0235 13.058L55.6079 45.9206L51.374 61.6399L54.3319 76.6593L33.9777 82.8925L32.6155 63.072L24.8439 48.2692L26.0009 43.6526L22.336 13.442Z" fill="white"/>
<path d="M56.5071 10.9741L53.8057 10.4571L51.9432 12.187L49.8531 30.0929L48.2575 27.1613L42.4714 26.7985L41.851 27.9554L41.3326 26.8961L33.839 27.5973L32.8869 28.6705L32.4466 30.1823L30.0497 22.4027L27.6368 9.14892L26.6561 8.15039L23.4883 7.98499L22.152 9.03042L21.33 11.5489L22.9412 23.552L24.8943 40.0953L23.5956 44.7707L24.6462 49.7984L30.4818 61.937L31.3131 88.45L31.3191 88.6857L34.8613 91.8818C35.4747 91.7293 36.0877 91.5698 36.6959 91.4106L35.8583 87.333L34.8937 82.6343L34.1051 64.1113L39.8068 65.9519L43.4483 64.1113L44.0882 58.4513L40.6343 61.1253L33.0878 57.4914L26.5262 48.1759L26.1426 45.023L29.688 38.6147L30.9196 37.7779L38.3333 37.1111L41.0279 37.5696L40.8084 40.3237L38.9173 42.3936L34.4518 43.4715L33.9064 45.8746L39.7205 48.1745L45.7754 54.2993L46.4642 47.7872L50.0209 47.8879L52.5907 42.8356L53.9244 48.5222L49.8922 60.7424L47.2832 59.1036L52.2338 79.909L52.0099 82.9801L51.6798 87.3653C52.7825 87.0807 53.8868 86.8078 54.9928 86.5466L57.2798 83.4076L56.9821 81.8026L52.9152 62.2415L56.7682 48.0483L56.328 38.4749L57.6717 13.0997L56.5071 10.9741ZM23.1822 12.5952L23.9187 10.8201L25.8322 13.4326L26.9804 22.7944L24.012 20.5472L23.1822 12.5952ZM28.8837 33.8213L26.8168 37.2838L24.4515 23.4407L28.5064 25.3651L28.0509 30.9975L32.0812 33.5049L28.8837 33.8213ZM40.6621 35.1547L36.7596 35.7864L35.6881 31.4216L36.152 30.097L40.5179 29.5746L40.6621 35.1547ZM45.1039 43.5954L42.5916 43.1161L43.4483 38.8329L46.842 39.2435L45.1039 43.5954ZM47.3117 36.8366L43.3009 36.5623L43.234 29.4102L47.2878 29.6601L48.4003 31.1873L47.3117 36.8366ZM55.5915 25.154L54.5639 26.8848L55.3748 29.5425L54.6019 39.1033L52.5484 34.6944L52.4989 25.8617L54.4857 24.7507L52.646 21.9272L54.436 16.1353L56.3853 14.1485L55.5915 25.154ZM37.1365 93.4726L36.7525 93.5724L37.2578 94.0185L37.1365 93.4726ZM52.4719 89.3346L52.5177 89.943L53.0673 89.193L52.4719 89.3346Z" fill="#282829"/>
</g>
<path d="M8.98351 3.72853L9.1771 1L9.40339 3.73168C9.44702 4.52285 9.88873 5.15327 10.4395 5.21316L12 5.52837L10.4422 5.80575C9.8969 5.85618 9.45248 6.48345 9.41704 7.27147L9.22345 10L8.99714 7.27462C8.95624 6.48345 8.51181 5.85303 7.96105 5.79314L5 5.47794L7.95832 5.20055C8.50908 5.14381 8.94806 4.51655 8.98351 3.72853Z" fill="#34282A"/>
<path d="M70.989 11.819L71.1181 10L71.2689 11.8211C71.298 12.3486 71.5925 12.7688 71.9597 12.8088L73 13.0189L71.9615 13.2038C71.5979 13.2375 71.3017 13.6556 71.278 14.181L71.149 16L70.9981 14.1831C70.9708 13.6556 70.6745 13.2354 70.3074 13.1954L69 12.9853L70.3055 12.8004C70.6727 12.7625 70.9654 12.3444 70.989 11.819Z" fill="#34282A"/>
<path d="M67.9835 39.7285L68.1771 37L68.4034 39.7317C68.447 40.5229 68.8887 41.1533 69.4395 41.2132L71 41.5284L69.4422 41.8057C68.8969 41.8562 68.4525 42.4835 68.417 43.2715L68.2234 46L67.9971 43.2746C67.9562 42.4835 67.5118 41.853 66.961 41.7931L64 41.4779L66.9583 41.2006C67.5091 41.1438 67.9481 40.5165 67.9835 39.7285Z" fill="white"/>
</svg>
