<svg width="167" height="64" viewBox="0 0 167 64" fill="none" xmlns="http://www.w3.org/2000/svg">
<rect width="166.667" height="64" fill="#F7F7F9"/>
<path d="M36.6287 32.2742C37.1954 31.5247 44.0141 21.9457 44.0872 21.8543H55.0555H55.0738C55.5857 21.8726 56.0244 22.1285 56.2072 22.5672C56.2986 22.8049 56.4631 23.4264 55.8416 24.1942C55.8416 24.1942 48.7122 32.4205 46.2077 35.0163C43.0086 38.3068 38.0363 42.6941 31.7113 42.6941C25.8249 42.6941 21.0354 37.9046 21.0354 32C21.0354 26.0954 25.8249 21.3059 31.7113 21.3059C34.6179 21.3059 37.9266 23.1522 39.7547 24.8889L35.605 30.7021L35.4222 30.3182C34.3985 28.3073 32.6618 27.9783 31.7113 27.96C30.6693 27.9417 29.6273 28.3804 28.8595 29.1665C28.0734 29.9526 27.6347 31.0129 27.6712 32.0548C27.7261 34.2485 29.5541 36.04 31.7113 36.04C33.9232 36.04 35.0018 34.541 36.1352 32.9506L36.6287 32.2742Z" fill="#FFDD00"/>
<path fill-rule="evenodd" clip-rule="evenodd" d="M55.8416 24.1942C56.4631 23.4264 56.2986 22.8049 56.2072 22.5672C56.0244 22.1285 55.5857 21.8726 55.0738 21.8543H44.0872C44.0629 21.8846 43.2939 22.9625 42.257 24.4158C40.1731 27.3365 37.0071 31.7737 36.6287 32.2742L36.1352 32.9506C35.0018 34.541 33.9232 36.04 31.7113 36.04C29.5541 36.04 27.7261 34.2485 27.6712 32.0548C27.6347 31.0129 28.0734 29.9526 28.8595 29.1665C29.6273 28.3804 30.6693 27.9417 31.7113 27.96C32.5455 27.976 33.9851 28.2314 35.017 29.6529C35.1609 29.8511 35.2969 30.0721 35.4222 30.3182L35.605 30.7021L39.7547 24.8889C37.9266 23.1522 34.6179 21.3059 31.7113 21.3059C25.8249 21.3059 21.0354 26.0954 21.0354 32C21.0354 37.9046 25.8249 42.6941 31.7113 42.6941C38.0363 42.6941 43.0086 38.3068 46.2077 35.0163C48.7122 32.4205 55.8416 24.1942 55.8416 24.1942ZM45.4262 34.2591C42.2313 37.5451 37.5431 41.606 31.7113 41.606C26.4271 41.606 22.1236 37.3049 22.1236 32C22.1236 26.6951 26.4271 22.394 31.7113 22.394C32.9495 22.394 34.3392 22.7923 35.6679 23.4278C36.648 23.8965 37.5542 24.4749 38.2939 25.0623L35.6773 28.7278C34.3991 27.1855 32.7027 26.8907 31.7322 26.872L31.7303 26.872C30.3753 26.8482 29.0512 27.4154 28.0855 28.4016C27.108 29.3815 26.5374 30.7235 26.5836 32.0875C26.6558 34.8594 28.9562 37.1282 31.7113 37.1282C34.497 37.1282 35.8776 35.1887 36.9553 33.6748C36.9762 33.6454 36.997 33.6162 37.0177 33.5872L37.5027 32.9225C37.8163 32.5059 39.6643 29.9212 41.4287 27.4497C42.0279 26.6103 42.6203 25.7801 43.1441 25.046C43.4003 24.6868 43.6402 24.3506 43.8564 24.0476C44.1907 23.5791 44.4591 23.2035 44.6447 22.9436C44.645 22.9432 44.6453 22.9428 44.6456 22.9424H55.0492C55.1287 22.9474 55.1747 22.9682 55.193 22.9794C55.1961 22.9814 55.1985 22.983 55.2002 22.9844C55.2066 23.008 55.2118 23.0416 55.2079 23.085C55.2033 23.137 55.1799 23.2779 55.0059 23.4969L54.939 23.5741C54.8864 23.6348 54.8087 23.7242 54.7089 23.8391C54.5094 24.0687 54.2215 24.3997 53.8682 24.8051C53.1614 25.616 52.1932 26.7241 51.147 27.9129C49.0478 30.2983 46.6581 32.9821 45.4262 34.2591Z" fill="#1C1C1E"/>
<path d="M24.5636 21.836L15.6793 21.8177C15.6793 21.8177 14.6921 21.7629 14.3082 22.4393C14.3082 22.4393 13.8512 23.1522 14.4362 24.1211L19.2805 32.6398C19.2988 32.6398 18.6224 26.0222 24.5636 21.836Z" fill="#FFDD00"/>
<path fill-rule="evenodd" clip-rule="evenodd" d="M15.6302 22.9048C15.6298 22.9048 15.6295 22.9048 15.6291 22.9048C15.621 22.9048 15.6033 22.9049 15.5789 22.9062C15.5274 22.9091 15.4598 22.9166 15.392 22.9329C15.3025 22.9544 15.2631 22.9773 15.2495 22.987C15.2442 23.0015 15.2359 23.0283 15.2309 23.065C15.2212 23.1357 15.213 23.3024 15.3677 23.5586L15.3751 23.5708L18.5131 29.089C18.5535 28.9067 18.5986 28.72 18.649 28.5296C19.1046 26.8067 19.9912 24.7742 21.6884 22.9182L15.6479 22.9058L15.6302 22.9048ZM24.5636 21.836C24.0714 22.1828 23.6246 22.5463 23.2191 22.9214C20.451 25.4814 19.6055 28.5793 19.3601 30.5784C19.3154 30.9428 19.2906 31.2707 19.2777 31.5521C19.2532 32.0898 19.2721 32.4581 19.2788 32.588C19.2796 32.6028 19.2802 32.6145 19.2805 32.623C19.281 32.6335 19.2811 32.6392 19.2806 32.6398C19.2806 32.6398 19.2806 32.6398 19.2806 32.6398L14.4362 24.1211C13.8512 23.1522 14.3082 22.4393 14.3082 22.4393C14.6921 21.7629 15.6793 21.8177 15.6793 21.8177L24.5636 21.836Z" fill="#1C1C1E"/>
<path d="M57.6999 36.3656L58.5038 34.0481H61.9244L62.724 36.3656H64.1265L60.9752 27.6088H59.4487L56.2975 36.3656H57.6999ZM58.8886 32.9364L60.1799 29.1994H60.2483L61.5396 32.9364H58.8886Z" fill="#1C1C1E"/>
<path d="M71.0222 27.6088V33.2614C71.0222 34.45 70.2013 35.3052 68.8672 35.3052C67.5375 35.3052 66.7122 34.45 66.7122 33.2614V27.6088H65.391V33.3683C65.391 35.2068 66.7678 36.511 68.8672 36.511C70.9666 36.511 72.3477 35.2068 72.3477 33.3683V27.6088H71.0222Z" fill="#1C1C1E"/>
<path d="M79.0447 29.9091H80.3189C80.2804 28.5067 79.0404 27.489 77.2617 27.489C75.5043 27.489 74.1574 28.4939 74.1574 30.0032C74.1574 31.2218 75.0297 31.9359 76.4364 32.3164L77.4712 32.5986C78.4076 32.8466 79.1302 33.1545 79.1302 33.9327C79.1302 34.7878 78.3135 35.3522 77.189 35.3522C76.1713 35.3522 75.3247 34.899 75.2478 33.9455H73.9223C74.0078 35.5318 75.2349 36.511 77.1975 36.511C79.2542 36.511 80.4386 35.4292 80.4386 33.9455C80.4386 32.3677 79.0318 31.7563 77.9201 31.4826L77.065 31.2603C76.3809 31.085 75.4701 30.7643 75.4744 29.9262C75.4744 29.1823 76.1542 28.6307 77.2317 28.6307C78.2365 28.6307 78.9506 29.101 79.0447 29.9091Z" fill="#1C1C1E"/>
<path d="M81.5856 28.7461H84.3135V36.3656H85.6304V28.7461H88.3627V27.6088H81.5856V28.7461Z" fill="#1C1C1E"/>
<path d="M89.8603 36.3656H91.1815V33.0518H92.9773C93.0072 33.0518 93.0329 33.0518 93.0628 33.0518L94.8416 36.3656H96.3466L94.4054 32.8209C95.4787 32.4233 96.0131 31.5297 96.0131 30.3538C96.0131 28.7419 95.0126 27.6088 92.9816 27.6088H89.8603V36.3656ZM91.1815 31.9145V28.7419H92.8405C94.1446 28.7419 94.6834 29.3618 94.6834 30.3538C94.6834 31.3415 94.1446 31.9145 92.8576 31.9145H91.1815Z" fill="#1C1C1E"/>
<path d="M98.942 27.6088H97.6208V36.3656H98.942V27.6088Z" fill="#1C1C1E"/>
<path d="M101.606 36.3656L102.41 34.0481H105.83L106.63 36.3656H108.032L104.881 27.6088H103.355L100.203 36.3656H101.606ZM102.795 32.9364L104.086 29.1994H104.154L105.446 32.9364H102.795Z" fill="#1C1C1E"/>
<path d="M116.365 27.6088H115.056V34.0395H114.975L110.52 27.6088H109.297V36.3656H110.618V29.9433H110.699L115.15 36.3656H116.365V27.6088Z" fill="#1C1C1E"/>
<path d="M121.479 36.3656H122.8V33.287H124.596C126.627 33.287 127.631 32.0599 127.631 30.4436C127.631 28.8316 126.635 27.6088 124.6 27.6088H121.479V36.3656ZM122.8 32.1668V28.7419H124.459C125.767 28.7419 126.302 29.4516 126.302 30.4436C126.302 31.4356 125.767 32.1668 124.476 32.1668H122.8Z" fill="#1C1C1E"/>
<path d="M136.787 31.9872C136.787 29.1865 135.111 27.489 132.845 27.489C130.57 27.489 128.898 29.1865 128.898 31.9872C128.898 34.7835 130.57 36.4853 132.845 36.4853C135.111 36.4853 136.787 34.7878 136.787 31.9872ZM135.479 31.9872C135.479 34.1208 134.35 35.2795 132.845 35.2795C131.335 35.2795 130.211 34.1208 130.211 31.9872C130.211 29.8536 131.335 28.6948 132.845 28.6948C134.35 28.6948 135.479 29.8536 135.479 31.9872Z" fill="#1C1C1E"/>
<path d="M143.21 29.9091H144.485C144.446 28.5067 143.206 27.489 141.427 27.489C139.67 27.489 138.323 28.4939 138.323 30.0032C138.323 31.2218 139.195 31.9359 140.602 32.3164L141.637 32.5986C142.573 32.8466 143.296 33.1545 143.296 33.9327C143.296 34.7878 142.479 35.3522 141.355 35.3522C140.337 35.3522 139.49 34.899 139.413 33.9455H138.088C138.173 35.5318 139.401 36.511 141.363 36.511C143.42 36.511 144.604 35.4292 144.604 33.9455C144.604 32.3677 143.197 31.7563 142.086 31.4826L141.231 31.2603C140.547 31.085 139.636 30.7643 139.64 29.9262C139.64 29.1823 140.32 28.6307 141.397 28.6307C142.402 28.6307 143.116 29.101 143.21 29.9091Z" fill="#1C1C1E"/>
<path d="M145.751 28.7461H148.479V36.3656H149.796V28.7461H152.528V27.6088H145.751V28.7461Z" fill="#1C1C1E"/>
</svg>
