<svg width="167" height="64" viewBox="0 0 167 64" fill="none" xmlns="http://www.w3.org/2000/svg">
<rect width="166.667" height="64" transform="translate(0.333374)" fill="#F7F7F9"/>
<path d="M45.428 19.5H56.4523C60.3207 19.5 63.4349 22.6143 63.4349 26.4827V37.5173C63.4349 41.3857 60.3207 44.5 56.4523 44.5H45.428C41.5596 44.5 38.4453 41.3857 38.4453 37.5173V26.4827C38.4453 22.6143 41.5596 19.5 45.428 19.5Z" fill="url(#paint0_linear_127_4410)"/>
<path d="M56.9701 36.7381C56.5654 36.7018 56.4998 36.8832 55.9038 36.8729C55.1352 36.8604 54.1147 36.7618 53.4071 36.3974C52.6996 36.0331 52.0151 35.2875 50.782 33.867C50.5321 32.8737 49.8159 32.4384 49.265 31.8089C47.8738 29.6019 46.4066 28.8982 45.422 28.8097C44.7088 28.1865 44.2614 28.2869 44.9816 27.4246C45.4472 27.4663 44.9364 27.101 45.5007 27.1218C46.1227 27.1446 47.3523 27.0586 48.2677 27.5474C49.1831 28.0362 49.8671 28.658 51.1002 30.0784C51.4422 30.9475 51.9307 31.5241 52.6163 32.1364C54.0075 34.3434 55.4756 35.0472 56.4602 35.1358C57.3052 35.6681 57.6643 35.5256 56.9443 36.4453L56.9701 36.7381Z" fill="white" fill-opacity="0.496124"/>
<path d="M45.2415 27.11C44.5932 27.11 43.853 27.1147 43.214 27.3057C42.6626 27.4697 41.8422 27.785 41.2961 28.5949C40.6847 29.5016 40.6968 30.7755 40.7553 32.4551V33.7678C40.7553 34.7333 41.1005 35.5858 41.7908 36.1106C41.7917 36.111 41.7936 36.1102 41.7945 36.1106C42.4822 36.6358 43.4277 36.8408 44.6039 36.8408C45.7632 36.8408 46.7775 36.7393 47.5645 36.4195C48.5279 36.0281 49.574 35.2055 50.9292 33.901C51.6076 33.1668 52.0494 32.6551 52.6242 31.9867C54.2072 29.913 55.7314 29.3434 56.72 29.3432C57.7086 29.343 58.0565 29.4082 58.2528 29.4736C58.4439 29.5372 58.5183 29.6054 58.5717 29.691L58.5749 29.6942L58.578 29.6973C58.6299 29.7783 58.6857 29.9418 58.6857 30.2218V30.7147H57.5859C56.6337 30.7147 55.8503 30.7988 55.2123 30.9928C54.5708 31.1878 54.0353 31.5268 53.6912 32.0247C53.3499 32.5185 53.2056 33.1349 53.2056 33.8266C53.2056 34.7374 53.5175 35.5522 54.1433 36.1023L54.1464 36.1055C54.7748 36.6511 55.6345 36.8899 56.6378 36.89H56.6387C57.287 36.89 58.0272 36.8853 58.6662 36.6943C59.2176 36.5304 60.038 36.215 60.5841 35.4052C61.1955 34.4984 61.1834 33.2246 61.1249 31.5449V30.2322C61.1249 29.2668 60.7797 28.4143 60.0894 27.8895C60.0885 27.8891 60.0863 27.8899 60.0847 27.8895C59.3971 27.3643 58.4515 27.1593 57.2754 27.1593C56.1161 27.1593 55.1018 27.2607 54.3148 27.5805C53.3514 27.972 52.3052 28.7946 50.9501 30.099C50.3117 30.8091 49.8383 31.344 49.256 32.0133C47.673 34.0871 46.1479 34.6567 45.1593 34.6569C44.1706 34.657 43.8227 34.5918 43.6264 34.5265C43.4353 34.4628 43.3609 34.3946 43.3075 34.309L43.3046 34.3059L43.3018 34.3028C43.2499 34.2218 43.194 34.0581 43.194 33.7781V33.2853H44.2938C45.246 33.2853 46.0295 33.2012 46.6674 33.0072C47.3089 32.8122 47.8444 32.4732 48.1885 31.9753C48.5298 31.4815 48.6741 30.865 48.6741 30.1734C48.6741 29.2626 48.3622 28.4477 47.7364 27.8976L47.7327 27.8945C47.1043 27.3489 46.2446 27.1101 45.2413 27.11L45.2415 27.11ZM44.9426 29.2943C45.4482 29.2943 45.7569 29.4044 45.9409 29.5516C46.1229 29.702 46.2009 29.8576 46.2009 30.1993C46.2009 30.4948 46.1409 30.658 46.0696 30.7547C45.9993 30.8499 45.8661 30.9517 45.593 31.0292H45.5902C45.3094 31.1119 44.8716 31.1669 44.3038 31.1669H43.1895V30.3606C43.1895 29.9803 43.2813 29.8033 43.5501 29.6123C43.8109 29.428 44.2638 29.2943 44.9425 29.2943L44.9426 29.2943ZM57.5769 32.8329H58.6912V33.6392C58.6912 34.0195 58.5994 34.1966 58.3306 34.3875C58.0698 34.5718 57.6169 34.7055 56.9382 34.7055C56.4326 34.7055 56.1238 34.5954 55.9398 34.4482C55.7578 34.2978 55.6798 34.1422 55.6798 33.8005C55.6798 33.505 55.7399 33.3418 55.8112 33.2451C55.8816 33.1499 56.0146 33.0481 56.2877 32.9706H56.2908C56.5717 32.8879 57.0095 32.8328 57.5773 32.8328L57.5769 32.8329Z" fill="white"/>
<path d="M65.9705 34.9492H68.0088V36.8698H65.9705V34.9492Z" fill="black"/>
<path d="M77.6571 36.6886H76.262V28.6348H72.8375V36.6886H71.4514V28.6348H69.8026V27.5295H71.4514V26.4061C71.4514 25.8807 71.4846 25.458 71.551 25.1379C71.6174 24.8117 71.708 24.561 71.8228 24.3859C71.9436 24.2108 72.0946 24.0658 72.2758 23.951C72.4751 23.8242 72.7166 23.7306 73.0005 23.6702C73.2904 23.6038 73.6739 23.5707 74.151 23.5707C74.3926 23.5707 74.5859 23.5797 74.7308 23.5978C74.8818 23.6159 75.054 23.6401 75.2472 23.6704V24.7937C75.1929 24.7879 75.0751 24.7758 74.8939 24.7575C74.7188 24.7333 74.4711 24.7212 74.151 24.7212C73.68 24.7212 73.3599 24.7846 73.1908 24.9114C73.0639 25.0081 72.9733 25.1259 72.919 25.2648C72.8707 25.3976 72.8466 25.5939 72.8466 25.8536V27.5296H77.6571L77.6571 36.6886ZM76.9505 25.9532C76.6425 25.9532 76.425 25.8958 76.2982 25.781C76.1774 25.6663 76.117 25.464 76.117 25.1741C76.117 24.8661 76.1774 24.6396 76.2982 24.4946C76.419 24.3497 76.6364 24.2772 76.9505 24.2772C77.2948 24.2772 77.5273 24.3527 77.6481 24.5037C77.7508 24.6365 77.8022 24.86 77.8022 25.1741C77.8022 25.3734 77.778 25.5304 77.7298 25.6451C77.6815 25.7538 77.5969 25.8324 77.4761 25.8807C77.3553 25.929 77.1802 25.9531 76.9507 25.9531L76.9505 25.9532Z" fill="black"/>
<path d="M80.7102 27.5295H81.8516L81.9603 28.825C82.2623 28.2694 82.6609 27.8768 83.1562 27.6473C83.6514 27.4118 84.3279 27.294 85.1855 27.294C85.9707 27.294 86.5988 27.4208 87.0699 27.6745C87.547 27.9281 87.8943 28.3328 88.1117 28.8885C88.3291 29.4441 88.4378 30.1809 88.4378 31.099V36.6886H87.0427V31.099C87.0427 30.4588 86.9672 29.9484 86.8162 29.5679C86.6652 29.1813 86.4236 28.9005 86.0914 28.7253C85.7653 28.5502 85.3274 28.4627 84.7778 28.4627C84.1316 28.4627 83.6122 28.5532 83.2196 28.7344C82.8331 28.9156 82.5492 29.2025 82.368 29.595C82.1929 29.9876 82.1053 30.5131 82.1053 31.1714V36.6886H80.7101L80.7102 27.5295Z" fill="black"/>
<path d="M98.5843 36.906C98.1434 36.906 97.7871 36.7883 97.5153 36.5527C97.2496 36.3172 97.1167 36.0061 97.1167 35.6196C96.8147 36.0303 96.3889 36.3474 95.8393 36.5709C95.2957 36.7883 94.6676 36.897 93.955 36.897C92.9343 36.897 92.1491 36.6584 91.5995 36.1813C91.0499 35.6981 90.7751 35.0156 90.7751 34.1338C90.7751 33.4514 90.917 32.9048 91.2009 32.4941C91.4848 32.0834 91.9347 31.7844 92.5507 31.5972C93.1668 31.41 93.9882 31.3164 95.0149 31.3164H96.9174V30.0934C96.9174 29.6947 96.8419 29.3777 96.6909 29.1421C96.5399 28.9005 96.3014 28.7253 95.9752 28.6166C95.6491 28.5079 95.2142 28.4536 94.6707 28.4536C94.109 28.4536 93.659 28.505 93.3208 28.6077C92.9826 28.7104 92.735 28.8766 92.5779 29.106C92.4209 29.3295 92.3424 29.6284 92.3424 30.0029H91.0831C91.0831 29.0909 91.376 28.4175 91.9619 27.9826C92.5477 27.5478 93.4507 27.3304 94.6707 27.3304C95.9088 27.3304 96.8238 27.5569 97.4156 28.0098C98.0136 28.4628 98.3125 29.1603 98.3125 30.1025V34.7772C98.3125 35.1456 98.3578 35.3963 98.4484 35.5291C98.5451 35.662 98.7262 35.7284 98.992 35.7284C99.0886 35.7284 99.1641 35.7255 99.2185 35.7197V36.8249C99.1098 36.8612 99.0131 36.8823 98.9285 36.8884C98.85 36.9004 98.7353 36.9065 98.5843 36.9065L98.5843 36.906ZM94.2902 35.7917C95.1357 35.7917 95.785 35.6317 96.2379 35.3116C96.6969 34.9855 96.9264 34.5234 96.9264 33.9255V32.3492H95.0058C94.3294 32.3492 93.7859 32.4095 93.3752 32.5303C92.9705 32.6451 92.6746 32.8293 92.4873 33.083C92.3001 33.3366 92.2065 33.6779 92.2065 34.1067C92.2065 34.6442 92.3877 35.0609 92.75 35.3569C93.1124 35.6468 93.6258 35.7917 94.2902 35.7917Z" fill="black"/>
<path d="M101.402 27.5295H102.543L102.652 28.825C102.954 28.2694 103.353 27.8768 103.848 27.6473C104.343 27.4118 105.02 27.294 105.877 27.294C106.662 27.294 107.29 27.4208 107.762 27.6745C108.239 27.9281 108.586 28.3328 108.803 28.8885C109.021 29.4441 109.13 30.1809 109.13 31.099V36.6886H107.734V31.099C107.734 30.4588 107.659 29.9484 107.508 29.5679C107.357 29.1813 107.115 28.9005 106.783 28.7253C106.457 28.5502 106.019 28.4627 105.47 28.4627C104.823 28.4627 104.304 28.5532 103.911 28.7344C103.525 28.9156 103.241 29.2025 103.06 29.595C102.885 29.9876 102.797 30.5131 102.797 31.1714V36.6886H101.402L101.402 27.5295Z" fill="black"/>
<path d="M115.806 36.897C114.78 36.897 113.958 36.7369 113.342 36.4168C112.732 36.0907 112.285 35.5773 112.001 34.8767C111.724 34.1761 111.585 33.243 111.585 32.0773C111.585 30.9238 111.727 29.9997 112.01 29.3052C112.294 28.6106 112.741 28.1063 113.351 27.7922C113.967 27.4721 114.789 27.3121 115.815 27.3121C117.011 27.3121 117.899 27.5597 118.479 28.055C119.065 28.5442 119.367 29.3021 119.385 30.3289H117.963C117.926 29.8699 117.83 29.5045 117.673 29.2327C117.522 28.9609 117.292 28.7616 116.984 28.6348C116.676 28.5079 116.274 28.4445 115.779 28.4445C115.06 28.4445 114.502 28.5563 114.103 28.7798C113.711 29.0032 113.427 29.3777 113.252 29.9031C113.082 30.4225 112.998 31.1533 112.998 32.0955C112.998 33.1162 113.076 33.8862 113.233 34.4056C113.391 34.925 113.668 35.2905 114.067 35.5018C114.466 35.7072 115.051 35.8099 115.824 35.8099C116.332 35.8099 116.739 35.7464 117.048 35.6196C117.356 35.4867 117.582 35.2814 117.727 35.0035C117.872 34.7197 117.95 34.3452 117.963 33.8802H119.385C119.379 34.611 119.255 35.1968 119.013 35.6377C118.772 36.0725 118.391 36.3927 117.872 36.598C117.352 36.7973 116.664 36.897 115.806 36.897Z" fill="black"/>
<path d="M125.047 36.897C124.05 36.897 123.253 36.7369 122.655 36.4168C122.057 36.0967 121.62 35.5894 121.342 34.8948C121.07 34.2003 120.934 33.2732 120.934 32.1136C120.934 31.0265 121.07 30.1326 121.342 29.432C121.613 28.7254 122.048 28.1969 122.646 27.8466C123.244 27.4963 124.032 27.3212 125.011 27.3212C125.947 27.3212 126.696 27.4601 127.258 27.7379C127.825 28.0157 128.239 28.4566 128.499 29.0606C128.758 29.6585 128.888 30.4587 128.888 31.4613L128.879 32.3401H122.348C122.348 33.1796 122.438 33.853 122.619 34.3604C122.807 34.8616 123.096 35.23 123.489 35.4656C123.888 35.6951 124.419 35.8098 125.084 35.8098C125.621 35.8098 126.053 35.7555 126.379 35.6468C126.711 35.5381 126.956 35.366 127.113 35.1304C127.276 34.8888 127.367 34.5687 127.385 34.1701H128.807C128.807 35.1002 128.499 35.7887 127.883 36.2357C127.273 36.6766 126.328 36.897 125.047 36.897H125.047ZM127.466 31.3073C127.484 30.6127 127.412 30.0571 127.248 29.6404C127.085 29.2236 126.82 28.9186 126.451 28.7253C126.083 28.5321 125.591 28.4355 124.975 28.4355C124.328 28.4355 123.821 28.5231 123.453 28.6982C123.09 28.8734 122.824 29.1663 122.655 29.577C122.486 29.9877 122.39 30.5644 122.365 31.3073H127.466Z" fill="black"/>
<defs>
<linearGradient id="paint0_linear_127_4410" x1="38.4453" y1="19.5" x2="69.4401" y2="52.073" gradientUnits="userSpaceOnUse">
<stop stop-color="#001486"/>
<stop offset="1" stop-color="#7E00E6"/>
</linearGradient>
</defs>
</svg>
