<svg width="167" height="64" viewBox="0 0 167 64" fill="none" xmlns="http://www.w3.org/2000/svg">
<rect width="166.667" height="64" fill="#F7F7F9"/>
<g clip-path="url(#clip0_127_4326)">
<mask id="mask0_127_4326" style="mask-type:alpha" maskUnits="userSpaceOnUse" x="43" y="35" width="20" height="8">
<path d="M43.1595 35.4442H62.7048V42.8572H43.1595V35.4442Z" fill="white"/>
</mask>
<g mask="url(#mask0_127_4326)">
<path fill-rule="evenodd" clip-rule="evenodd" d="M52.9132 39.2172C52.2245 39.2172 51.5845 39.0738 51.0621 38.8024L45.4369 35.8806L43.7514 36.8869C42.9502 37.365 42.9641 38.0981 43.7826 38.5233L51.5627 42.5647C51.9405 42.7608 52.4236 42.8574 52.9132 42.8574C53.4848 42.8574 54.0648 42.7259 54.4965 42.4684L62.1129 37.9211C62.9141 37.4427 62.9001 36.7097 62.0817 36.2848L60.4642 35.4442L55.0528 38.6752C54.4671 39.0246 53.7074 39.2172 52.9132 39.2172Z" fill="url(#paint0_linear_127_4326)"/>
</g>
<path fill-rule="evenodd" clip-rule="evenodd" d="M62.1317 31.4464L60.7812 30.7345L57.6361 32.6396L57.0962 32.9666L56.5565 33.2936L55.0842 34.1855C54.4971 34.5415 53.735 34.7372 52.939 34.7372C52.2485 34.7372 51.6068 34.5913 51.083 34.3155L49.3962 33.4263L48.8379 33.1323L48.2796 32.838L45.1716 31.1996L43.753 32.059C42.9497 32.5457 42.9634 33.2912 43.784 33.7237L45.406 34.5786L45.9644 34.8728L46.5224 35.1671L51.5849 37.8352C51.9635 38.0347 52.4481 38.1327 52.939 38.1327C53.5119 38.1327 54.0936 37.9993 54.5262 37.7373L59.3934 34.7889L59.9333 34.4619L60.473 34.1349L62.163 33.1112C62.9663 32.6247 62.9523 31.879 62.1317 31.4464Z" fill="url(#paint1_linear_127_4326)"/>
<path fill-rule="evenodd" clip-rule="evenodd" d="M62.1317 27.0845L54.3308 23.0448C53.9522 22.8485 53.4679 22.7522 52.9768 22.7522C52.4039 22.7522 51.8221 22.8836 51.3895 23.1411L43.753 27.6867C42.9497 28.1647 42.9634 28.8972 43.784 29.3223L45.1346 30.0218L45.6929 30.3109L46.2512 30.6L49.3592 32.2098L49.9176 32.4986L50.4759 32.788L51.5849 33.3626C51.9635 33.5586 52.4481 33.6549 52.939 33.6549C53.5119 33.6549 54.0936 33.5235 54.5262 33.266L55.4399 32.7221L55.9798 32.4008L56.5195 32.0794L59.6645 30.2075L60.2045 29.8861L60.7442 29.5648L62.163 28.7203C62.9663 28.2424 62.9523 27.5096 62.1317 27.0845Z" fill="url(#paint2_linear_127_4326)"/>
<mask id="mask1_127_4326" style="mask-type:alpha" maskUnits="userSpaceOnUse" x="68" y="21" width="12" height="22">
<path d="M68.3795 21.1515H79.5366V42.1613H68.3795V21.1515Z" fill="white"/>
</mask>
<g mask="url(#mask1_127_4326)">
<path fill-rule="evenodd" clip-rule="evenodd" d="M76.5068 24.4058C75.4825 24.3657 74.6193 25.1497 74.5785 26.1576C74.5785 26.1611 74.5782 26.1641 74.5782 26.1675V27.9295H78.7104V30.9117H74.5782V42.1612H70.8587V30.9117H68.3795V27.9295H70.8587V25.8942C70.8587 23.048 73.3382 21.1525 76.093 21.1525C77.3548 21.126 78.5817 21.5607 79.5366 22.3724L78.1592 24.9474C77.6635 24.6323 77.0949 24.4454 76.5062 24.405" fill="#1E1E1E"/>
</g>
<path fill-rule="evenodd" clip-rule="evenodd" d="M94.1117 27.8142V42.0849H91.2595L90.7156 40.4544H90.31C89.7664 41.1338 88.5443 42.2212 86.0991 42.2212C82.2957 42.2212 80.3938 39.5028 80.3938 35.5611V27.8142H84.3345V34.6095C84.3345 36.3764 84.47 38.8229 86.9158 38.8229C88.1384 38.8229 90.1761 38.1432 90.1761 34.4743V27.8142H94.1117Z" fill="#1E1E1E"/>
<path fill-rule="evenodd" clip-rule="evenodd" d="M102.186 30.6799C100.947 30.6799 100.397 31.2257 100.397 31.9084C100.397 32.8639 101.636 33.1367 102.599 33.4092C105.215 33.9552 107.83 34.7738 107.83 37.7756C107.83 40.7777 105.352 42.4159 102.324 42.4159C99.0202 42.4159 96.4052 40.3688 96.2674 37.3665H99.8458C99.9812 38.5988 101.077 39.5033 102.323 39.4133C103.837 39.4133 104.113 38.5947 104.113 38.0489C104.113 36.957 103.149 36.684 102.048 36.4112C100.396 36.0034 96.6795 35.3194 96.6795 32.0442C96.679 29.1788 99.4337 27.8142 102.186 27.8142C105.49 27.8142 107.555 29.7249 107.692 32.1806H104.114C104.114 31.4984 103.703 30.6799 102.186 30.6799Z" fill="#1E1E1E"/>
<path fill-rule="evenodd" clip-rule="evenodd" d="M123.455 36.0019H112.949C113.356 38.165 115.132 38.9764 116.769 38.9764C117.823 39.0269 118.837 38.5746 119.498 37.7594H123.182C122.173 40.4706 119.549 42.2583 116.633 42.2207C112.626 42.2094 109.386 38.9818 109.397 35.0112C109.398 34.9359 109.399 34.8609 109.402 34.7853C109.268 30.9622 112.288 27.7556 116.147 27.6234C116.263 27.6195 116.38 27.6186 116.497 27.6202C120.181 27.6202 124.001 30.1892 123.455 36.0024V36.0019ZM113.222 33.163H119.635C119.349 31.7649 118.071 30.7862 116.633 30.8648C115.098 30.7652 113.692 31.7125 113.222 33.163Z" fill="#1E1E1E"/>
</g>
<defs>
<linearGradient id="paint0_linear_127_4326" x1="52.9321" y1="23.3987" x2="52.9321" y2="42.8574" gradientUnits="userSpaceOnUse">
<stop stop-color="#B3F9BA"/>
<stop offset="1" stop-color="#F6FB8C"/>
</linearGradient>
<linearGradient id="paint1_linear_127_4326" x1="52.9579" y1="23.4139" x2="52.9579" y2="42.4098" gradientUnits="userSpaceOnUse">
<stop stop-color="#B1FFBF"/>
<stop offset="1" stop-color="#FFF16D"/>
</linearGradient>
<linearGradient id="paint2_linear_127_4326" x1="52.9579" y1="22.7522" x2="52.9579" y2="42.4646" gradientUnits="userSpaceOnUse">
<stop stop-color="#B3F9BA"/>
<stop offset="1" stop-color="#F6FB8C"/>
</linearGradient>
<clipPath id="clip0_127_4326">
<rect width="80.3478" height="22" fill="white" transform="translate(43.1594 21)"/>
</clipPath>
</defs>
</svg>
