<svg width="167" height="64" viewBox="0 0 167 64" fill="none" xmlns="http://www.w3.org/2000/svg">
<rect width="166.667" height="64" transform="translate(0.333374)" fill="#F7F7F9"/>
<path d="M63.0596 35.7822C62.5903 35.3145 62.2181 34.7592 61.9641 34.148C61.7102 33.5367 61.5795 32.8816 61.5795 32.22C61.5795 31.5584 61.7102 30.9032 61.9641 30.292C62.2181 29.6808 62.5903 29.1255 63.0596 28.6578C64.0531 27.7316 65.3623 27.2164 66.7223 27.2164C68.0823 27.2164 69.3915 27.7316 70.385 28.6578C70.8542 29.1255 71.2265 29.6808 71.4804 30.292C71.7344 30.9032 71.8651 31.5584 71.8651 32.22C71.8651 32.8816 71.7344 33.5367 71.4804 34.148C71.2265 34.7592 70.8542 35.3145 70.385 35.7822C69.3915 36.7084 68.0823 37.2236 66.7223 37.2236C65.3623 37.2236 64.0531 36.7084 63.0596 35.7822ZM64.1579 29.6553C63.5453 30.2495 63.1589 31.0376 63.0649 31.8846C62.9708 32.7317 63.175 33.585 63.6424 34.2984C64.1099 35.0118 64.8115 35.5409 65.6271 35.7952C66.4427 36.0494 67.3216 36.0129 68.1132 35.6919C68.9047 35.3709 69.5598 34.7854 69.9661 34.0357C70.3725 33.286 70.5048 32.4187 70.3405 31.5824C70.1761 30.7461 69.7253 29.9928 69.0653 29.4515C68.4053 28.9102 67.5771 28.6146 66.7226 28.6154C66.2464 28.6039 65.773 28.6903 65.3318 28.8692C64.8906 29.0481 64.491 29.3157 64.1579 29.6553Z" fill="#0F0F0F"/>
<path d="M75.4934 37.0722V27.3684H79.6493C80.1601 27.3385 80.6717 27.4122 81.1531 27.585C81.6345 27.7578 82.0758 28.0261 82.4503 28.3738C83.0984 29.0483 83.4597 29.9467 83.4585 30.881C83.4572 31.8152 83.0936 32.7127 82.4437 33.3855C82.0712 33.7344 81.6314 34.0042 81.1512 34.1786C80.6709 34.3529 80.1602 34.4282 79.65 34.3998H76.9675V37.0751H75.4934V37.0722ZM76.9657 33.0108H79.2988C80.005 33.0665 80.7077 32.8673 81.2789 32.4494C81.6931 32.0311 81.9253 31.4669 81.9253 30.879C81.9253 30.2912 81.6931 29.727 81.2789 29.3087C80.7096 28.8864 80.0061 28.6844 79.2988 28.7401H76.9657V33.0108Z" fill="#0F0F0F"/>
<path d="M94.1045 27.3684H95.578V32.9828C95.5984 33.5427 95.5061 34.1011 95.3067 34.6249C95.1073 35.1487 94.8047 35.6275 94.4168 36.0328C93.5196 36.8022 92.3756 37.2253 91.1923 37.2253C90.0091 37.2253 88.865 36.8022 87.9678 36.0328C87.58 35.6274 87.2775 35.1487 87.0782 34.6249C86.8789 34.101 86.7868 33.5427 86.8072 32.9828V27.3684H88.2807V32.8575C88.2568 33.2538 88.3121 33.651 88.4433 34.0258C88.5746 34.4007 88.7792 34.7458 89.0452 35.0412C89.6459 35.5471 90.4067 35.8247 91.1929 35.8247C91.9791 35.8247 92.74 35.5471 93.3406 35.0412C93.6066 34.7458 93.811 34.4006 93.9421 34.0258C94.0733 33.6509 94.1285 33.2538 94.1045 32.8575V27.3684Z" fill="#0F0F0F"/>
<path d="M99.6782 37.0721V27.3684H101.152V35.6718H106.587V37.0715L99.6782 37.0721Z" fill="#0F0F0F"/>
<path d="M110.107 35.7822C109.638 35.3145 109.266 34.7592 109.012 34.148C108.758 33.5367 108.627 32.8816 108.627 32.22C108.627 31.5584 108.758 30.9032 109.012 30.292C109.266 29.6808 109.638 29.1255 110.107 28.6578C111.101 27.7316 112.41 27.2164 113.77 27.2164C115.13 27.2164 116.439 27.7316 117.433 28.6578C117.902 29.1255 118.274 29.6808 118.528 30.292C118.782 30.9032 118.913 31.5584 118.913 32.22C118.913 32.8816 118.782 33.5367 118.528 34.148C118.274 34.7592 117.902 35.3145 117.433 35.7822C116.439 36.7084 115.13 37.2236 113.77 37.2236C112.41 37.2236 111.101 36.7084 110.107 35.7822ZM111.206 29.6553C110.593 30.2495 110.207 31.0376 110.113 31.8846C110.019 32.7317 110.223 33.585 110.69 34.2984C111.158 35.0118 111.859 35.5409 112.675 35.7952C113.49 36.0494 114.369 36.0129 115.161 35.6919C115.953 35.3709 116.608 34.7854 117.014 34.0357C117.42 33.286 117.553 32.4187 117.388 31.5824C117.224 30.7461 116.773 29.9928 116.113 29.4515C115.453 28.9102 114.625 28.6146 113.77 28.6154C113.295 28.6042 112.822 28.6908 112.381 28.8697C111.94 29.0486 111.541 29.316 111.208 29.6553H111.206Z" fill="#0F0F0F"/>
<path d="M129.687 27.3684H131.161V32.9828C131.181 33.5427 131.089 34.1011 130.889 34.6249C130.69 35.1488 130.387 35.6275 129.999 36.0328C129.102 36.8022 127.958 37.2253 126.775 37.2253C125.592 37.2253 124.448 36.8022 123.55 36.0328C123.163 35.6274 122.86 35.1487 122.661 34.6249C122.462 34.101 122.369 33.5427 122.39 32.9828V27.3684H123.863V32.8575C123.839 33.2538 123.895 33.651 124.026 34.0258C124.157 34.4007 124.362 34.7458 124.628 35.0412C125.229 35.5471 125.989 35.8247 126.776 35.8247C127.562 35.8247 128.323 35.5471 128.923 35.0412C129.189 34.7458 129.394 34.4007 129.525 34.0258C129.656 33.651 129.712 33.2538 129.688 32.8575L129.687 27.3684Z" fill="#0F0F0F"/>
<path d="M134.649 34.6045L136.109 34.1868C136.138 34.4506 136.228 34.704 136.373 34.9267C136.518 35.1493 136.713 35.3351 136.943 35.469C137.514 35.7746 138.157 35.9206 138.805 35.8914C139.402 35.9246 139.997 35.7977 140.529 35.5239C140.714 35.4287 140.869 35.2845 140.977 35.1071C141.085 34.9297 141.141 34.726 141.14 34.5185C141.145 34.3705 141.114 34.2236 141.048 34.0907C140.983 33.9577 140.886 33.8428 140.765 33.756C140.641 33.6583 140.509 33.5723 140.369 33.4995C140.197 33.4151 140.018 33.3455 139.834 33.2913C139.611 33.222 139.414 33.1642 139.243 33.1176C139.071 33.0717 138.847 33.0162 138.569 32.9518C138.467 32.9237 138.389 32.9058 138.332 32.8969C137.875 32.7949 137.424 32.6631 136.984 32.5025C136.595 32.3555 136.223 32.1696 135.872 31.9476C135.526 31.7375 135.241 31.4412 135.045 31.0879C134.85 30.7235 134.752 30.3157 134.76 29.903C134.749 29.5187 134.835 29.138 135.01 28.7953C135.185 28.4527 135.442 28.1591 135.76 27.9412C136.558 27.4186 137.503 27.1638 138.456 27.2139C139.455 27.1722 140.443 27.4385 141.285 27.9764C141.641 28.2141 141.929 28.5392 142.123 28.9204C142.316 29.3016 142.408 29.7261 142.389 30.1529V30.3188H140.918V30.2496C140.93 29.9991 140.874 29.75 140.757 29.5282C140.64 29.3065 140.465 29.12 140.251 28.9883C139.702 28.6756 139.075 28.5265 138.444 28.5587C137.889 28.5266 137.336 28.6541 136.852 28.9263C136.68 29.025 136.537 29.1675 136.439 29.3392C136.34 29.5108 136.288 29.7056 136.289 29.9036C136.286 30.0866 136.334 30.2668 136.429 30.4238C136.515 30.5688 136.625 30.6978 136.755 30.8051C136.929 30.9327 137.121 31.0333 137.325 31.1034C137.58 31.2008 137.798 31.2748 137.979 31.3253C138.159 31.3759 138.421 31.4427 138.764 31.5258C139.283 31.6555 139.693 31.7643 139.995 31.8522C140.348 31.9597 140.693 32.0892 141.03 32.24C141.354 32.3711 141.654 32.5537 141.92 32.7805C142.138 32.9897 142.317 33.236 142.448 33.5078C142.601 33.8239 142.677 34.1713 142.671 34.5221C142.685 34.9172 142.596 35.3091 142.412 35.6593C142.228 36.0094 141.955 36.3055 141.621 36.5185C140.766 37.0313 139.776 37.2775 138.779 37.2255C137.792 37.2636 136.814 37.031 135.95 36.5531C135.596 36.3522 135.293 36.0714 135.067 35.733C134.841 35.3946 134.698 35.0081 134.649 34.6045Z" fill="#0F0F0F"/>
<path d="M24.673 31.9787C24.673 29.4316 24.6808 26.8852 24.6676 24.3381C24.6528 24.0373 24.7257 23.7386 24.8775 23.4782C25.0294 23.2178 25.2536 23.0069 25.5231 22.871C28.3249 21.2644 31.1252 19.6557 33.9242 18.0448C35.5292 17.1224 37.1385 16.2077 38.7376 15.2752C39.0107 15.0971 39.3297 15.0019 39.656 15.0009C39.9823 15 40.3018 15.0934 40.576 15.2698C44.9774 17.8071 49.3826 20.3386 53.7916 22.8644C53.9989 22.9686 54.181 23.1167 54.325 23.2982C54.469 23.4798 54.5716 23.6905 54.6256 23.9157C54.6497 24.0306 54.6611 24.1479 54.6597 24.2653C54.6597 29.4175 54.6597 34.5699 54.6597 39.7224C54.6673 39.9997 54.5968 40.2736 54.4563 40.5129C54.3158 40.7523 54.1108 40.9477 53.8646 41.0768C52.9798 41.5917 52.0897 42.0988 51.2013 42.609C47.6916 44.6248 44.1819 46.6402 40.6723 48.6553C40.488 48.7688 40.2921 48.8622 40.0878 48.9339C39.8747 48.9979 39.6502 49.015 39.4298 48.9841C39.2094 48.9532 38.9983 48.875 38.8112 48.7549C37.6259 48.0708 36.4392 47.389 35.2511 46.7096C34.5511 46.3075 33.8548 45.8976 33.15 45.5038C32.8711 45.3631 32.6391 45.1448 32.4818 44.8753C32.3246 44.6059 32.249 44.2968 32.2641 43.9854C32.2676 42.5111 32.2641 41.0356 32.2641 39.5607C32.2447 39.1774 32.3686 38.8006 32.6117 38.503C32.8548 38.2055 33.1999 38.0084 33.5802 37.9498C33.9642 37.8913 34.3564 37.9744 34.6833 38.1837C35.7661 38.8086 36.8503 39.4317 37.9359 40.053C38.4056 40.3232 38.8812 40.5834 39.3412 40.868C39.432 40.933 39.5411 40.968 39.6529 40.968C39.7647 40.968 39.8737 40.933 39.9646 40.868C41.9152 39.7363 43.8695 38.6117 45.8273 37.494C46.3059 37.2195 46.7803 36.9385 47.2631 36.673C47.3476 36.6357 47.4185 36.5731 47.466 36.4939C47.5134 36.4148 47.5351 36.3229 47.5281 36.2309C47.5221 33.4088 47.5221 30.5867 47.5281 27.7646C47.5362 27.673 47.5161 27.581 47.4705 27.5011C47.4248 27.4211 47.3558 27.3569 47.2726 27.3171C44.8191 25.9146 42.3685 24.507 39.9209 23.0941C39.8402 23.0402 39.7449 23.0121 39.6478 23.0135C39.5506 23.0149 39.4563 23.0457 39.3771 23.1019C36.9383 24.5095 34.4959 25.9115 32.0499 27.3076C31.9552 27.3566 31.8781 27.4336 31.829 27.528C31.78 27.6224 31.7614 27.7296 31.7759 27.835C31.7803 32.5051 31.7803 37.1758 31.7759 41.847C31.7826 42.014 31.7718 42.1812 31.7436 42.3458C31.6951 42.5828 31.5915 42.8052 31.4412 42.995C31.2908 43.1848 31.0979 43.3367 30.8779 43.4386C30.6579 43.5404 30.417 43.5894 30.1746 43.5814C29.9322 43.5735 29.6951 43.509 29.4823 43.3929C29.1084 43.1937 28.747 42.9753 28.3797 42.7617C27.4149 42.2076 26.45 41.6537 25.4848 41.1C25.2145 40.9541 24.9904 40.7359 24.8375 40.47C24.7155 40.2445 24.6549 39.9911 24.6616 39.7349C24.672 37.1495 24.6758 34.5641 24.673 31.9787ZM30.2318 42.0308V41.6102C30.2318 36.9882 30.2307 32.3665 30.2283 27.7449C30.2114 27.3848 30.2988 27.0274 30.4801 26.7155C30.6614 26.4036 30.9289 26.1504 31.2506 25.986C33.7234 24.5752 36.1911 23.1578 38.6538 21.7338C38.9548 21.5426 39.3042 21.441 39.661 21.441C40.0178 21.441 40.3672 21.5426 40.6681 21.7338C43.1332 23.1558 45.601 24.573 48.0713 25.9854C48.3974 26.1535 48.668 26.4117 48.8508 26.7291C49.0336 27.0465 49.1208 27.4098 49.102 27.7753C49.0961 30.5879 49.0961 33.4002 49.102 36.2124C49.1202 36.5827 49.0308 36.9503 48.8446 37.2711C48.6583 37.5919 48.3832 37.8522 48.0521 38.0208C45.579 39.4295 43.1149 40.853 40.6472 42.2689C40.5209 42.3453 40.3872 42.4088 40.2481 42.4586C39.9906 42.5459 39.7169 42.5751 39.4467 42.5442C39.1765 42.5132 38.9165 42.4229 38.6855 42.2796C37.1764 41.4081 35.6654 40.5394 34.1527 39.6735C34.0618 39.6216 33.9702 39.5727 33.8368 39.4993V39.8388C33.8368 41.1657 33.8422 42.4938 33.832 43.8213C33.8234 43.9116 33.8435 44.0023 33.8896 44.0806C33.9357 44.1588 34.0054 44.2205 34.0887 44.2569C35.8603 45.2648 37.6274 46.2805 39.3903 47.3039C39.4673 47.3602 39.5601 47.3911 39.6556 47.392C39.7511 47.393 39.8445 47.364 39.9227 47.3093C44.23 44.8253 48.5421 42.3482 52.859 39.8781C52.9457 39.8375 53.0175 39.7709 53.0644 39.6875C53.1113 39.6042 53.1309 39.5083 53.1204 39.4134C53.1136 34.4672 53.1136 29.5211 53.1204 24.575C53.1286 24.4799 53.1069 24.3846 53.0584 24.3024C53.0098 24.2202 52.9368 24.1551 52.8494 24.1162C48.5517 21.654 44.2557 19.1879 39.9616 16.7178C39.8605 16.6582 39.7588 16.6045 39.6553 16.5478C35.1665 19.1269 30.6905 21.6982 26.2272 24.2617V39.7355C27.5511 40.4921 28.8631 41.245 30.2318 42.0308Z" fill="#0F0F0F"/>
<path d="M34.7252 31.9858C34.7252 31.249 34.7354 30.5115 34.7211 29.7747C34.7077 29.583 34.7522 29.3918 34.8488 29.2256C34.9454 29.0594 35.0897 28.9258 35.2631 28.8421C36.5564 28.1103 37.8453 27.37 39.1295 26.6215C39.2863 26.5186 39.4698 26.4634 39.6575 26.4628C39.8452 26.4622 40.029 26.5161 40.1866 26.6179C41.4891 27.3736 42.7949 28.1242 44.1038 28.8696C44.2626 28.9505 44.3947 29.0754 44.4841 29.2293C44.5736 29.3831 44.6166 29.5594 44.6081 29.7371C44.6053 31.2414 44.6053 32.7453 44.6081 34.2489C44.6163 34.4312 44.5714 34.612 44.4787 34.7693C44.386 34.9267 44.2496 35.0539 44.0859 35.1355C42.7857 35.8757 41.4883 36.6213 40.1937 37.3723C40.037 37.4753 39.8535 37.5305 39.6658 37.5312C39.4781 37.532 39.2942 37.4782 39.1367 37.3765C37.8425 36.6251 36.5449 35.8797 35.2439 35.1402C35.0757 35.057 34.9361 34.9258 34.8428 34.7633C34.7495 34.6007 34.7067 34.4142 34.7199 34.2274C34.7348 33.4798 34.7252 32.7328 34.7252 31.9858ZM39.6685 27.3124C39.6379 27.3233 39.6079 27.3361 39.5787 27.3505C38.2979 28.085 37.0195 28.8219 35.7363 29.551C35.6767 29.5832 35.6287 29.6332 35.599 29.6939C35.5693 29.7547 35.5594 29.8232 35.5706 29.8898C35.5741 31.2949 35.5753 32.7 35.5706 34.1051C35.5646 34.1814 35.5826 34.2576 35.6222 34.3232C35.6618 34.3888 35.7209 34.4404 35.7913 34.4708C36.6145 34.935 37.4311 35.4093 38.2506 35.8795L39.6589 36.6885C39.7558 36.636 39.8414 36.5901 39.9263 36.5418C41.1228 35.8556 42.3133 35.1665 43.5128 34.4881C43.5915 34.4523 43.657 34.3927 43.6999 34.3178C43.7429 34.2428 43.7611 34.1563 43.7521 34.0705C43.7429 32.6847 43.7429 31.2993 43.7521 29.9143C43.7603 29.8287 43.7412 29.7426 43.6976 29.6684C43.654 29.5942 43.5881 29.5355 43.5092 29.5008C42.2929 28.8123 41.0839 28.1136 39.8713 27.418C39.8031 27.3816 39.7361 27.347 39.6685 27.3112V27.3124Z" fill="#0F0F0F"/>
</svg>
