<svg width="137" height="35" viewBox="0 0 137 35" fill="none" xmlns="http://www.w3.org/2000/svg">
<rect width="137" height="35" fill="white"/>
<path d="M23.9684 12.054C23.6654 11.8794 23.3218 11.7874 22.9721 11.7874C22.6224 11.7874 22.2789 11.8794 21.9759 12.054L17.4049 14.7769L14.2991 16.5528L9.7281 19.2759C9.42512 19.4505 9.08157 19.5424 8.73189 19.5424C8.3822 19.5424 8.03866 19.4505 7.73568 19.2759L4.10238 17.1448C3.80423 16.9668 3.55633 16.7158 3.38203 16.4154C3.20774 16.1151 3.11279 15.7753 3.10615 15.4281V11.2252C3.10035 10.8755 3.19006 10.5309 3.3656 10.2284C3.54115 9.92586 3.79589 9.67698 4.10238 9.50852L7.67708 7.43665C7.98007 7.26205 8.32362 7.17014 8.67332 7.17014C9.02302 7.17014 9.36657 7.26205 9.66956 7.43665L13.2443 9.50852C13.5424 9.68656 13.7903 9.93757 13.9646 10.2379C14.1388 10.5383 14.2338 10.878 14.2404 11.2252V13.9482L17.3463 12.1131V9.39009C17.3521 9.0404 17.2624 8.69575 17.0869 8.39325C16.9114 8.09075 16.6566 7.84187 16.3501 7.6734L9.7281 3.7665C9.42512 3.5919 9.08158 3.5 8.73189 3.5C8.3822 3.5 8.03866 3.5919 7.73568 3.7665L0.996479 7.67345C0.689995 7.84192 0.435267 8.09079 0.259725 8.39328C0.0841834 8.69576 -0.00552342 9.0404 0.000263785 9.39009V17.2632C-0.00552877 17.6129 0.0841772 17.9575 0.259723 18.26C0.435269 18.5625 0.690003 18.8114 0.996496 18.9798L7.73569 22.8868C8.03866 23.0614 8.38221 23.1533 8.73191 23.1533C9.0816 23.1533 9.42515 23.0614 9.72812 22.8868L14.2991 20.2229L17.405 18.3879L21.9759 15.7241C22.2789 15.5495 22.6225 15.4576 22.9721 15.4576C23.3218 15.4576 23.6654 15.5495 23.9684 15.7241L27.5431 17.796C27.8412 17.974 28.0891 18.225 28.2634 18.5253C28.4377 18.8257 28.5326 19.1654 28.5393 19.5126V23.7156C28.5451 24.0653 28.4554 24.4099 28.2798 24.7124C28.1043 25.0149 27.8496 25.2638 27.5431 25.4322L23.9684 27.5634C23.6654 27.7379 23.3218 27.8298 22.9721 27.8298C22.6225 27.8298 22.2789 27.7379 21.9759 27.5634L18.4012 25.4915C18.1031 25.3134 17.8551 25.0624 17.6808 24.7621C17.5065 24.4617 17.4116 24.1219 17.405 23.7747V21.0517L14.2991 22.8868V25.6098C14.2933 25.9595 14.383 26.3042 14.5585 26.6067C14.7341 26.9091 14.9888 27.158 15.2953 27.3265L22.0345 31.2335C22.3374 31.4081 22.681 31.5 23.0307 31.5C23.3804 31.5 23.7239 31.4081 24.0269 31.2335L30.7661 27.3265C31.0643 27.1485 31.3122 26.8975 31.4865 26.5971C31.6608 26.2968 31.7557 25.957 31.7624 25.6098V17.7367C31.7682 17.387 31.6784 17.0424 31.5029 16.7399C31.3273 16.4374 31.0726 16.1885 30.7661 16.0201L23.9684 12.054Z" fill="#7B3FE4"/>
<path d="M44.1382 28.9788V22.4426C44.5863 22.9194 45.1342 23.2914 45.7427 23.5319C46.3513 23.7724 47.0054 23.8755 47.6585 23.8338C51.4964 23.8338 54.0903 21.1301 54.0903 17.0089C54.0903 12.8876 51.7082 10.1839 47.9761 10.1839C47.2519 10.1429 46.5282 10.271 45.862 10.558C45.1959 10.845 44.6057 11.2831 44.1382 11.8377V10.3939H40.4591V28.9788H44.1382ZM47.2085 20.6838C45.2234 20.6838 43.9264 19.2138 43.9264 17.0089C43.9264 14.7776 45.2234 13.3076 47.2085 13.3076C49.1407 13.3076 50.4641 14.7776 50.4641 17.0089C50.4641 19.2138 49.1407 20.6838 47.2085 20.6838Z" fill="black"/>
<path d="M62.4443 23.8339C63.7851 23.7922 65.084 23.3565 66.1787 22.5811C67.2733 21.8058 68.1154 20.7251 68.5997 19.4741C69.084 18.2232 69.1891 16.8572 68.9018 15.5469C68.6146 14.2365 67.9478 13.0398 66.9846 12.1062C66.0214 11.1725 64.8045 10.5432 63.4859 10.2968C62.1672 10.0505 60.8052 10.198 59.5699 10.721C58.3346 11.244 57.2807 12.1192 56.5398 13.2375C55.7988 14.3558 55.4037 15.6675 55.4037 17.009C55.386 17.9285 55.5577 18.8419 55.9081 19.6922C56.2585 20.5426 56.7801 21.3117 57.4405 21.9519C58.1008 22.592 58.8859 23.0895 59.7467 23.4132C60.6075 23.737 61.5258 23.8802 62.4443 23.8339ZM62.4443 20.6839C60.4592 20.6839 59.1093 19.1877 59.1093 17.009C59.1093 14.804 60.4592 13.3078 62.4443 13.3078C64.4294 13.3078 65.7793 14.804 65.7793 17.009C65.7793 19.1877 64.4294 20.6839 62.4443 20.6839Z" fill="black"/>
<path d="M75.3875 23.6239V4.64531H71.7084V23.6239H75.3875Z" fill="black"/>
<path d="M86.4475 10.3938L83.6684 18.9249L80.8627 10.3938H77.1042L81.9479 23.5187L79.9893 28.9786H83.5095L85.3889 23.5712L90.2324 10.3938H86.4475Z" fill="black"/>
<path d="M100.565 11.7063C100.102 11.1965 99.5321 10.7955 98.896 10.5323C98.2598 10.269 97.5732 10.15 96.8855 10.1838C92.9944 10.1838 90.6389 12.8875 90.6389 17.0087C90.6389 21.1299 92.9944 23.8337 96.9389 23.8337C97.6259 23.8752 98.3132 23.757 98.9469 23.4883C99.5806 23.2196 100.143 22.8077 100.591 22.2849V24.0174C100.612 24.2843 100.577 24.5526 100.49 24.8055C100.402 25.0585 100.263 25.2907 100.082 25.4877C99.9007 25.6847 99.6808 25.8423 99.4361 25.9506C99.1913 26.059 98.9268 26.1157 98.6591 26.1174H92.5184V28.9786H99.241C102.259 28.9786 104.27 27.1674 104.27 24.4112V10.3938H100.565V11.7063ZM97.5207 20.6837C95.5625 20.6837 94.2649 19.24 94.2649 17.0087C94.2649 14.7775 95.5625 13.3075 97.5207 13.3075C99.5061 13.3075 100.803 14.7775 100.803 17.0087C100.803 19.24 99.5061 20.6837 97.5207 20.6837V20.6837Z" fill="black"/>
<path d="M113.546 23.8339C114.887 23.7923 116.186 23.3566 117.28 22.5813C118.375 21.806 119.217 20.7254 119.702 19.4744C120.186 18.2235 120.291 16.8575 120.004 15.5471C119.717 14.2368 119.05 13.04 118.087 12.1063C117.124 11.1726 115.907 10.5432 114.588 10.2969C113.269 10.0505 111.907 10.198 110.672 10.721C109.437 11.2439 108.383 12.1192 107.642 13.2375C106.901 14.3557 106.506 15.6675 106.506 17.009C106.488 17.9285 106.66 18.8418 107.01 19.6921C107.361 20.5424 107.882 21.3115 108.542 21.9516C109.203 22.5917 109.988 23.0892 110.848 23.413C111.709 23.7368 112.627 23.8801 113.546 23.8339V23.8339ZM113.546 20.6839C111.561 20.6839 110.211 19.1877 110.211 17.009C110.211 14.804 111.561 13.3077 113.546 13.3077C115.531 13.3077 116.881 14.804 116.881 17.009C116.881 19.1877 115.531 20.6839 113.546 20.6839Z" fill="black"/>
<path d="M126.304 23.6237V16.3788C126.277 16.0016 126.328 15.6229 126.455 15.2665C126.581 14.91 126.78 14.5836 127.038 14.3075C127.296 14.0315 127.609 13.8118 127.957 13.6623C128.304 13.5128 128.678 13.4367 129.057 13.4388C129.411 13.4351 129.762 13.5054 130.088 13.6452C130.414 13.7849 130.707 13.991 130.949 14.2504C131.19 14.5097 131.375 14.8166 131.492 15.1515C131.608 15.4863 131.653 15.8417 131.625 16.195V23.6237H135.33V15.3813C135.33 12.3363 133.371 10.1838 130.354 10.1838C129.558 10.134 128.763 10.2974 128.051 10.6573C127.339 11.0173 126.736 11.5606 126.304 12.2313V10.3938H122.599V23.6237H126.304Z" fill="black"/>
</svg>
