<svg width="168" height="64" viewBox="0 0 168 64" fill="none" xmlns="http://www.w3.org/2000/svg">
<rect width="166.667" height="64" transform="translate(0.666626)" fill="#F7F7F9"/>
<rect x="39.0654" y="25" width="16" height="13" fill="#BC423E"/>
<path fill-rule="evenodd" clip-rule="evenodd" d="M40.0654 17V38H61.0654V17H40.0654ZM39.0654 15C38.5131 15 38.0654 15.4477 38.0654 16V39C38.0654 39.5523 38.5131 40 39.0654 40H62.0654C62.6177 40 63.0654 39.5523 63.0654 39V16C63.0654 15.4477 62.6177 15 62.0654 15H39.0654Z" fill="#3E3E42"/>
<path fill-rule="evenodd" clip-rule="evenodd" d="M33.0654 26V47H54.0654V26H33.0654ZM32.0654 24C31.5131 24 31.0654 24.4477 31.0654 25V48C31.0654 48.5523 31.5131 49 32.0654 49H55.0654C55.6177 49 56.0654 48.5523 56.0654 48V25C56.0654 24.4477 55.6177 24 55.0654 24H32.0654Z" fill="#3E3E42"/>
<path d="M77.9999 38.7139C78.9939 38.7139 79.8578 38.5512 80.5914 38.2258C81.3251 37.9004 81.8901 37.4419 82.2866 36.8502C82.6889 36.2526 82.89 35.5485 82.89 34.7379V34.7291C82.89 33.7765 82.5942 33.0162 82.0026 32.4482C81.4109 31.8802 80.4435 31.4542 79.1004 31.1702L77.7071 30.8596C76.8787 30.688 76.2841 30.4454 75.9232 30.1318C75.5623 29.8123 75.3818 29.4129 75.3818 28.9337V28.9248C75.3818 28.5284 75.4942 28.1882 75.7191 27.9042C75.9439 27.6202 76.2516 27.4042 76.6421 27.2563C77.0326 27.1025 77.4793 27.0256 77.9822 27.0256C78.4969 27.0196 78.9466 27.0966 79.3312 27.2563C79.7217 27.4101 80.0323 27.6231 80.2631 27.8953C80.4997 28.1675 80.6447 28.4811 80.6979 28.8361L80.7157 28.9426H82.6504L82.6416 28.8272C82.5942 28.1527 82.3753 27.5521 81.9848 27.0256C81.5943 26.4931 81.0588 26.07 80.3784 25.7564C79.7039 25.4429 78.9141 25.2861 78.0088 25.2861C77.1036 25.2861 76.3018 25.4458 75.6037 25.7653C74.9055 26.0789 74.3582 26.5167 73.9618 27.0788C73.5654 27.6409 73.3642 28.2917 73.3583 29.0313V29.0402C73.3583 29.9809 73.6541 30.7531 74.2458 31.3566C74.8434 31.9601 75.7901 32.4038 77.0858 32.6878L78.4792 32.9807C79.3312 33.1641 79.9436 33.4185 80.3163 33.7439C80.6891 34.0634 80.8754 34.4687 80.8754 34.9598V34.9687C80.8754 35.3651 80.7541 35.7142 80.5116 36.0159C80.2749 36.3177 79.9465 36.5544 79.5264 36.7259C79.1063 36.8916 78.6241 36.9744 78.0798 36.9744C77.5118 36.9744 77.003 36.8975 76.5533 36.7437C76.1096 36.5839 75.7546 36.3621 75.4883 36.0781C75.2221 35.7881 75.0682 35.4509 75.0268 35.0663L75.0179 34.9687H73.0654L73.0743 35.0841C73.1335 35.8059 73.3701 36.439 73.7843 36.9833C74.1985 37.5217 74.7635 37.9448 75.4794 38.2524C76.1953 38.5601 77.0355 38.7139 77.9999 38.7139Z" fill="#3E3E42"/>
<path d="M86.5544 38.4033H88.498V29.1023H89.5009L88.0986 28.3391L95.2075 38.4033H97.0091V25.5967H95.0655V34.9066H94.0715L95.4737 35.6698L88.3649 25.5967H86.5544V38.4033Z" fill="#3E3E42"/>
<path d="M100.283 38.4033H102.377L105.91 27.8421H106.513V25.5967H104.907L100.283 38.4033ZM102.511 34.9421H109.46L108.901 33.3446H103.07L102.511 34.9421ZM109.584 38.4033H111.678L107.063 25.5967H106.052V27.8421L109.584 38.4033Z" fill="#3E3E42"/>
<path d="M114.952 38.4033H116.949V33.0428H122.452V31.3654H116.949V27.3184H122.949V25.5967H114.952V38.4033Z" fill="#3E3E42"/>
<path d="M131.752 38.7139C132.822 38.7139 133.745 38.5157 134.521 38.1193C135.296 37.7229 135.89 37.1697 136.304 36.4597C136.724 35.7497 136.935 34.9273 136.935 33.9924V25.5967H134.938V33.8327C134.938 34.7616 134.663 35.513 134.112 36.0869C133.562 36.6609 132.775 36.9478 131.752 36.9478C130.734 36.9478 129.944 36.6609 129.382 36.0869C128.826 35.513 128.548 34.7616 128.548 33.8327V25.5967H126.56V33.9924C126.56 34.9273 126.767 35.7497 127.181 36.4597C127.601 37.1697 128.199 37.7229 128.974 38.1193C129.755 38.5157 130.681 38.7139 131.752 38.7139Z" fill="#3E3E42"/>
</svg>
