<svg width="168" height="64" viewBox="0 0 168 64" fill="none" xmlns="http://www.w3.org/2000/svg">
<rect width="166.667" height="64" transform="translate(0.666687)" fill="#F7F7F9"/>
<g clip-path="url(#clip0_127_4390)">
<path fill-rule="evenodd" clip-rule="evenodd" d="M41.4674 28.3854C41.4674 25.6585 43.6869 23.439 46.4137 23.439C49.1406 23.439 51.3601 25.6585 51.3601 28.3854C51.3601 28.7024 51.2967 29.0829 51.2333 29.4C50.2186 29.0195 48.8235 28.7024 46.5406 28.7024C44.0674 28.7024 42.6089 29.0829 41.5308 29.4634C41.5308 29.1463 41.4674 28.7659 41.4674 28.3854ZM40.7698 30.2878C41.7211 31.6829 43.1796 32.6976 44.8918 33.078C43.4333 32.5707 42.2284 31.4293 41.7211 29.9073C42.9894 29.4634 44.5747 29.2098 46.3503 29.2098C46.2869 38.0878 44.9552 44.8732 39.4381 44.8732V45H53.8333V44.8098C48.3162 44.8098 46.9845 38.0878 46.9211 29.2098C48.5698 29.2098 49.965 29.4634 51.1698 29.7805C50.7259 31.3024 49.5211 32.5073 47.9991 33.0146C49.7113 32.6341 51.2333 31.5561 52.1845 30.0976C54.9113 31.239 56.3064 33.3951 56.3064 36.1854H56.4967V29.0195H56.3064C56.3064 29.7805 55.7991 30.3512 54.6576 30.3512C53.7698 30.3512 53.1357 30.0976 52.3747 29.7805C52.9454 28.7659 53.3259 27.561 53.3259 26.2927C53.3259 22.4878 50.2186 19.3805 46.4137 19.3805C42.6089 19.3805 39.5015 22.4878 39.5015 26.2927C39.5015 27.6244 39.882 28.8293 40.5162 29.9073C39.8186 30.161 39.2479 30.3512 38.3601 30.3512C37.282 30.3512 36.9015 29.7805 36.9015 29.0195H36.7113V36.2488H36.9015C36.9015 33.5854 38.2333 31.4927 40.7698 30.2878Z" fill="#232322"/>
</g>
<path d="M71.0878 38.4033H73.0758V27.3184H77.0961V25.5967H67.0674V27.3184H71.0878V38.4033Z" fill="#222222"/>
<path d="M80.5741 38.4033H82.5709V32.7322H89.1384V38.4033H91.1353V25.5967H89.1384V31.0104H82.5709V25.5967H80.5741V38.4033Z" fill="#222222"/>
<path d="M95.3854 38.4033H103.524V36.6816H97.3822V32.7056H103.195V31.0548H97.3822V27.3184H103.524V25.5967H95.3854V38.4033Z" fill="#222222"/>
<path d="M112.912 38.7139C114.143 38.7139 115.205 38.4388 116.099 37.8886C116.998 37.3383 117.687 36.5632 118.166 35.5633C118.646 34.5575 118.885 33.3712 118.885 32.0044V31.9867C118.885 30.614 118.643 29.4277 118.158 28.4278C117.678 27.422 116.992 26.6469 116.099 26.1026C115.205 25.5582 114.143 25.2861 112.912 25.2861C111.688 25.2861 110.626 25.5582 109.726 26.1026C108.833 26.6469 108.144 27.422 107.658 28.4278C107.173 29.4277 106.931 30.614 106.931 31.9867V32.0044C106.931 33.3712 107.17 34.5575 107.65 35.5633C108.129 36.5691 108.815 37.3472 109.709 37.8974C110.602 38.4418 111.67 38.7139 112.912 38.7139ZM112.912 36.9478C112.09 36.9478 111.383 36.7437 110.791 36.3354C110.206 35.9272 109.753 35.3533 109.433 34.6137C109.12 33.8682 108.963 32.9984 108.963 32.0044V31.9867C108.963 30.9809 109.123 30.1111 109.442 29.3774C109.768 28.6379 110.226 28.0669 110.818 27.6646C111.41 27.2563 112.108 27.0522 112.912 27.0522C113.717 27.0522 114.415 27.2563 115.007 27.6646C115.599 28.0669 116.054 28.6379 116.374 29.3774C116.693 30.1111 116.853 30.9809 116.853 31.9867V32.0044C116.853 32.9984 116.693 33.8682 116.374 34.6137C116.054 35.3533 115.599 35.9272 115.007 36.3354C114.421 36.7437 113.723 36.9478 112.912 36.9478Z" fill="#222222"/>
<path d="M126.969 38.7139C127.963 38.7139 128.827 38.5512 129.561 38.2258C130.295 37.9004 130.86 37.4419 131.256 36.8502C131.658 36.2526 131.859 35.5485 131.859 34.7379V34.7291C131.859 33.7765 131.564 33.0162 130.972 32.4482C130.38 31.8802 129.413 31.4542 128.07 31.1702L126.676 30.8596C125.848 30.688 125.254 30.4454 124.893 30.1318C124.532 29.8123 124.351 29.4129 124.351 28.9337V28.9248C124.351 28.5284 124.464 28.1882 124.688 27.9042C124.913 27.6202 125.221 27.4042 125.611 27.2563C126.002 27.1025 126.449 27.0256 126.952 27.0256C127.466 27.0196 127.916 27.0966 128.301 27.2563C128.691 27.4101 129.002 27.6231 129.232 27.8953C129.469 28.1675 129.614 28.4811 129.667 28.8361L129.685 28.9426H131.62L131.611 28.8272C131.564 28.1527 131.345 27.5521 130.954 27.0256C130.564 26.4931 130.028 26.07 129.348 25.7564C128.673 25.4429 127.883 25.2861 126.978 25.2861C126.073 25.2861 125.271 25.4458 124.573 25.7653C123.875 26.0789 123.328 26.5167 122.931 27.0788C122.535 27.6409 122.334 28.2917 122.328 29.0313V29.0402C122.328 29.9809 122.624 30.7531 123.215 31.3566C123.813 31.9601 124.759 32.4038 126.055 32.6878L127.449 32.9807C128.301 33.1641 128.913 33.4185 129.286 33.7439C129.658 34.0634 129.845 34.4687 129.845 34.9598V34.9687C129.845 35.3651 129.724 35.7142 129.481 36.0159C129.244 36.3177 128.916 36.5544 128.496 36.7259C128.076 36.8916 127.594 36.9744 127.049 36.9744C126.481 36.9744 125.972 36.8975 125.523 36.7437C125.079 36.5839 124.724 36.3621 124.458 36.0781C124.191 35.7881 124.038 35.4509 123.996 35.0663L123.987 34.9687H122.035L122.044 35.0841C122.103 35.8059 122.34 36.439 122.754 36.9833C123.168 37.5217 123.733 37.9448 124.449 38.2524C125.165 38.5601 126.005 38.7139 126.969 38.7139Z" fill="#222222"/>
<defs>
<clipPath id="clip0_127_4390">
<rect width="20.9268" height="26" fill="white" transform="translate(36.1406 19)"/>
</clipPath>
</defs>
</svg>
