<svg width="80" height="80" viewBox="0 0 80 80" fill="none" xmlns="http://www.w3.org/2000/svg">
<rect width="80" height="80" rx="20" fill="#282829"/>
<circle cx="40" cy="40" r="6" fill="#E22440"/>
<path fill-rule="evenodd" clip-rule="evenodd" d="M40 50.1064C45.5816 50.1064 50.1064 45.5816 50.1064 40C50.1064 34.4184 45.5816 29.8936 40 29.8936C34.4184 29.8936 29.8936 34.4184 29.8936 40C29.8936 45.5816 34.4184 50.1064 40 50.1064ZM40 59C50.4934 59 59 50.4934 59 40C59 29.5066 50.4934 21 40 21C29.5066 21 21 29.5066 21 40C21 50.4934 29.5066 59 40 59Z" fill="white"/>
</svg>
