<svg width="81" height="23" viewBox="0 0 81 23" fill="none" xmlns="http://www.w3.org/2000/svg">
<g clip-path="url(#clip0_727_15328)">
<mask id="mask0_727_15328" style="mask-type:alpha" maskUnits="userSpaceOnUse" x="0" y="14" width="20" height="9">
<path d="M6.10352e-05 14.9442H19.5454V22.3572H6.10352e-05V14.9442Z" fill="white"/>
</mask>
<g mask="url(#mask0_727_15328)">
<path fill-rule="evenodd" clip-rule="evenodd" d="M9.75374 18.7172C9.06503 18.7172 8.42504 18.5738 7.90265 18.3024L2.27751 15.3806L0.591934 16.3869C-0.209273 16.865 -0.195278 17.5981 0.623154 18.0233L8.40324 22.0647C8.7811 22.2608 9.26419 22.3574 9.75374 22.3574C10.3254 22.3574 10.9054 22.2259 11.337 21.9684L18.9535 17.4211C19.7547 16.9427 19.7407 16.2097 18.9223 15.7848L17.3048 14.9442L11.8933 18.1752C11.3077 18.5246 10.548 18.7172 9.75374 18.7172Z" fill="url(#paint0_linear_727_15328)"/>
</g>
<path fill-rule="evenodd" clip-rule="evenodd" d="M18.9723 10.9464L17.6217 10.2345L14.4767 12.1396L13.9368 12.4666L13.3971 12.7936L11.9248 13.6855C11.3376 14.0415 10.5756 14.2372 9.77956 14.2372C9.08903 14.2372 8.44734 14.0913 7.92358 13.8155L6.23679 12.9263L5.67849 12.6323L5.12018 12.338L2.01213 10.6996L0.593568 11.559C-0.209754 12.0457 -0.195992 12.7912 0.6246 13.2237L2.24662 14.0786L2.80493 14.3728L3.36296 14.6671L8.42548 17.3352C8.80407 17.5347 9.28871 17.6327 9.77956 17.6327C10.3524 17.6327 10.9342 17.4993 11.3668 17.2373L16.2339 14.2889L16.7739 13.9619L17.3136 13.6349L19.0036 12.6112C19.8069 12.1247 19.7929 11.379 18.9723 10.9464Z" fill="url(#paint1_linear_727_15328)"/>
<path fill-rule="evenodd" clip-rule="evenodd" d="M18.9723 6.58455L11.1714 2.54479C10.7928 2.3485 10.3084 2.25221 9.81733 2.25221C9.24446 2.25221 8.66268 2.38361 8.23012 2.64108L0.593568 7.18673C-0.209754 7.66471 -0.195992 8.39722 0.6246 8.82227L1.97516 9.5218L2.53347 9.81093L3.09177 10.1L6.19982 11.7098L6.75813 11.9986L7.31643 12.288L8.42548 12.8626C8.80407 13.0586 9.28871 13.1549 9.77956 13.1549C10.3524 13.1549 10.9342 13.0235 11.3668 12.766L12.2805 12.2221L12.8204 11.9008L13.3601 11.5794L16.5051 9.70746L17.0451 9.38615L17.5848 9.06484L19.0036 8.22035C19.8069 7.74237 19.7929 7.00959 18.9723 6.58455Z" fill="url(#paint2_linear_727_15328)"/>
<mask id="mask1_727_15328" style="mask-type:alpha" maskUnits="userSpaceOnUse" x="25" y="0" width="12" height="22">
<path d="M25.22 0.65152H36.3772V21.6613H25.22V0.65152Z" fill="white"/>
</mask>
<g mask="url(#mask1_727_15328)">
<path fill-rule="evenodd" clip-rule="evenodd" d="M33.3473 3.90581C32.3231 3.86566 31.4598 4.64975 31.419 5.65764C31.419 5.66112 31.4188 5.66406 31.4188 5.66754V7.42954H35.551V10.4117H31.4188V21.6612H27.6993V10.4117H25.22V7.42954H27.6993V5.39422C27.6993 2.54804 30.1787 0.652465 32.9336 0.652465C34.1953 0.625963 35.4223 1.06071 36.3772 1.87237L34.9998 4.44737C34.5041 4.13229 33.9355 3.94543 33.3468 3.90501" fill="#1E1E1E"/>
</g>
<path fill-rule="evenodd" clip-rule="evenodd" d="M50.9523 7.31416V21.5849H48.1L47.5562 19.9544H47.1506C46.607 20.6338 45.3849 21.7212 42.9397 21.7212C39.1363 21.7212 37.2344 19.0028 37.2344 15.0611V7.31416H41.1751V14.1095C41.1751 15.8764 41.3106 18.3229 43.7564 18.3229C44.979 18.3229 47.0167 17.6432 47.0167 13.9743V7.31416H50.9523Z" fill="#1E1E1E"/>
<path fill-rule="evenodd" clip-rule="evenodd" d="M59.0271 10.1799C57.7879 10.1799 57.2377 10.7257 57.2377 11.4084C57.2377 12.3639 58.4768 12.6367 59.44 12.9092C62.0553 13.4552 64.6702 14.2738 64.6702 17.2756C64.6702 20.2777 62.1928 21.9159 59.1643 21.9159C55.8608 21.9159 53.2458 19.8688 53.108 16.8665H56.6864C56.8218 18.0988 57.9171 19.0033 59.1638 18.9133C60.6778 18.9133 60.9532 18.0947 60.9532 17.5489C60.9532 16.457 59.9897 16.184 58.8884 15.9112C57.2366 15.5034 53.5201 14.8194 53.5201 11.5442C53.5196 8.67882 56.2743 7.31416 59.0271 7.31416C62.3306 7.31416 64.3954 9.22489 64.5327 11.6806H60.9542C60.9542 10.9984 60.5432 10.1799 59.0271 10.1799Z" fill="#1E1E1E"/>
<path fill-rule="evenodd" clip-rule="evenodd" d="M80.2955 15.5019H69.7894C70.1969 17.665 71.9722 18.4764 73.6095 18.4764C74.6634 18.5269 75.678 18.0746 76.3385 17.2594H80.0225C79.0136 19.9706 76.3897 21.7583 73.4734 21.7207C69.4663 21.7094 66.2267 18.4818 66.238 14.5112C66.2383 14.4359 66.2397 14.3609 66.2423 14.2853C66.109 10.4622 69.129 7.25562 72.9876 7.12345C73.104 7.11947 73.2207 7.11864 73.3374 7.12024C77.0214 7.12024 80.8414 9.6892 80.2955 15.5024V15.5019ZM70.0624 12.663H76.4754C76.1892 11.2649 74.9114 10.2862 73.4734 10.3648C71.939 10.2652 70.5329 11.2125 70.0624 12.663Z" fill="#1E1E1E"/>
</g>
<defs>
<linearGradient id="paint0_linear_727_15328" x1="9.77272" y1="2.89865" x2="9.77272" y2="22.3574" gradientUnits="userSpaceOnUse">
<stop stop-color="#B3F9BA"/>
<stop offset="1" stop-color="#F6FB8C"/>
</linearGradient>
<linearGradient id="paint1_linear_727_15328" x1="9.79851" y1="2.91386" x2="9.79851" y2="21.9098" gradientUnits="userSpaceOnUse">
<stop stop-color="#B1FFBF"/>
<stop offset="1" stop-color="#FFF16D"/>
</linearGradient>
<linearGradient id="paint2_linear_727_15328" x1="9.79851" y1="2.25221" x2="9.79851" y2="21.9646" gradientUnits="userSpaceOnUse">
<stop stop-color="#B3F9BA"/>
<stop offset="1" stop-color="#F6FB8C"/>
</linearGradient>
<clipPath id="clip0_727_15328">
<rect width="80.3478" height="22" fill="white" transform="translate(0 0.5)"/>
</clipPath>
</defs>
</svg>
