<svg width="142" height="64" viewBox="0 0 142 64" fill="none" xmlns="http://www.w3.org/2000/svg">
<g clip-path="url(#clip0_127_4326)">
<mask id="mask0_127_4326" style="mask-type:alpha" maskUnits="userSpaceOnUse" x="30" y="35" width="21" height="8">
<path d="M30.8262 35.4442H50.3715V42.8572H30.8262V35.4442Z" fill="white"/>
</mask>
<g mask="url(#mask0_127_4326)">
<path fill-rule="evenodd" clip-rule="evenodd" d="M40.5799 39.2172C39.8911 39.2172 39.2511 39.0738 38.7288 38.8024L33.1036 35.8806L31.418 36.8869C30.6168 37.365 30.6308 38.0981 31.4493 38.5233L39.2293 42.5647C39.6072 42.7608 40.0903 42.8574 40.5799 42.8574C41.1515 42.8574 41.7315 42.7259 42.1632 42.4684L49.7796 37.9211C50.5808 37.4427 50.5668 36.7097 49.7484 36.2848L48.1309 35.4442L42.7195 38.6752C42.1338 39.0246 41.3741 39.2172 40.5799 39.2172Z" fill="url(#paint0_linear_127_4326)"/>
</g>
<path fill-rule="evenodd" clip-rule="evenodd" d="M49.7984 31.4464L48.4478 30.7345L45.3028 32.6396L44.7629 32.9666L44.2232 33.2936L42.7509 34.1855C42.1637 34.5415 41.4017 34.7372 40.6057 34.7372C39.9151 34.7372 39.2735 34.5913 38.7497 34.3155L37.0629 33.4263L36.5046 33.1323L35.9463 32.838L32.8382 31.1996L31.4197 32.059C30.6164 32.5457 30.6301 33.2912 31.4507 33.7237L33.0727 34.5786L33.631 34.8728L34.1891 35.1671L39.2516 37.8352C39.6302 38.0347 40.1148 38.1327 40.6057 38.1327C41.1785 38.1327 41.7603 37.9993 42.1929 37.7373L47.06 34.7889L47.6 34.4619L48.1397 34.1349L49.8297 33.1112C50.633 32.6247 50.619 31.879 49.7984 31.4464Z" fill="url(#paint1_linear_127_4326)"/>
<path fill-rule="evenodd" clip-rule="evenodd" d="M49.7984 27.0845L41.9975 23.0448C41.6189 22.8485 41.1346 22.7522 40.6434 22.7522C40.0706 22.7522 39.4888 22.8836 39.0562 23.1411L31.4197 27.6867C30.6164 28.1647 30.6301 28.8972 31.4507 29.3223L32.8013 30.0218L33.3596 30.3109L33.9179 30.6L37.0259 32.2098L37.5842 32.4986L38.1425 32.788L39.2516 33.3626C39.6302 33.5586 40.1148 33.6549 40.6057 33.6549C41.1785 33.6549 41.7603 33.5235 42.1929 33.266L43.1066 32.7221L43.6465 32.4008L44.1862 32.0794L47.3312 30.2075L47.8712 29.8861L48.4109 29.5648L49.8297 28.7203C50.633 28.2424 50.619 27.5096 49.7984 27.0845Z" fill="url(#paint2_linear_127_4326)"/>
<mask id="mask1_127_4326" style="mask-type:alpha" maskUnits="userSpaceOnUse" x="56" y="21" width="12" height="22">
<path d="M56.0461 21.1515H67.2033V42.1613H56.0461V21.1515Z" fill="white"/>
</mask>
<g mask="url(#mask1_127_4326)">
<path fill-rule="evenodd" clip-rule="evenodd" d="M64.1735 24.4058C63.1492 24.3657 62.286 25.1497 62.2451 26.1576C62.2451 26.1611 62.2449 26.1641 62.2449 26.1675V27.9295H66.3771V30.9117H62.2449V42.1612H58.5254V30.9117H56.0461V27.9295H58.5254V25.8942C58.5254 23.048 61.0049 21.1525 63.7597 21.1525C65.0214 21.126 66.2484 21.5607 67.2033 22.3724L65.8259 24.9474C65.3302 24.6323 64.7616 24.4454 64.1729 24.405" fill="#1E1E1E"/>
</g>
<path fill-rule="evenodd" clip-rule="evenodd" d="M81.7784 27.8142V42.0849H78.9262L78.3823 40.4544H77.9767C77.4331 41.1338 76.211 42.2212 73.7658 42.2212C69.9624 42.2212 68.0605 39.5028 68.0605 35.5611V27.8142H72.0012V34.6095C72.0012 36.3764 72.1367 38.8229 74.5825 38.8229C75.8051 38.8229 77.8428 38.1432 77.8428 34.4743V27.8142H81.7784Z" fill="#1E1E1E"/>
<path fill-rule="evenodd" clip-rule="evenodd" d="M89.8532 30.6799C88.6141 30.6799 88.0638 31.2257 88.0638 31.9084C88.0638 32.8639 89.3029 33.1367 90.2661 33.4092C92.8814 33.9552 95.4963 34.7738 95.4963 37.7756C95.4963 40.7777 93.0189 42.4159 89.9905 42.4159C86.6869 42.4159 84.0719 40.3688 83.9341 37.3665H87.5125C87.6479 38.5988 88.7432 39.5033 89.9899 39.4133C91.5039 39.4133 91.7793 38.5947 91.7793 38.0489C91.7793 36.957 90.8158 36.684 89.7145 36.4112C88.0627 36.0034 84.3462 35.3194 84.3462 32.0442C84.3457 29.1788 87.1004 27.8142 89.8532 27.8142C93.1567 27.8142 95.2215 29.7249 95.3588 32.1806H91.7804C91.7804 31.4984 91.3693 30.6799 89.8532 30.6799Z" fill="#1E1E1E"/>
<path fill-rule="evenodd" clip-rule="evenodd" d="M111.122 36.0019H100.616C101.023 38.165 102.798 38.9764 104.436 38.9764C105.49 39.0269 106.504 38.5746 107.165 37.7594H110.849C109.84 40.4706 107.216 42.2583 104.3 42.2207C100.292 42.2094 97.0528 38.9818 97.0641 35.0112C97.0644 34.9359 97.0658 34.8609 97.0685 34.7853C96.9351 30.9622 99.9551 27.7556 103.814 27.6234C103.93 27.6195 104.047 27.6186 104.163 27.6202C107.847 27.6202 111.668 30.1892 111.122 36.0024V36.0019ZM100.889 33.163H107.302C107.015 31.7649 105.737 30.7862 104.3 30.8648C102.765 30.7652 101.359 31.7125 100.889 33.163Z" fill="#1E1E1E"/>
</g>
<defs>
<linearGradient id="paint0_linear_127_4326" x1="40.5988" y1="23.3987" x2="40.5988" y2="42.8574" gradientUnits="userSpaceOnUse">
<stop stop-color="#B3F9BA"/>
<stop offset="1" stop-color="#F6FB8C"/>
</linearGradient>
<linearGradient id="paint1_linear_127_4326" x1="40.6246" y1="23.4139" x2="40.6246" y2="42.4098" gradientUnits="userSpaceOnUse">
<stop stop-color="#B1FFBF"/>
<stop offset="1" stop-color="#FFF16D"/>
</linearGradient>
<linearGradient id="paint2_linear_127_4326" x1="40.6246" y1="22.7522" x2="40.6246" y2="42.4646" gradientUnits="userSpaceOnUse">
<stop stop-color="#B3F9BA"/>
<stop offset="1" stop-color="#F6FB8C"/>
</linearGradient>
<clipPath id="clip0_127_4326">
<rect width="80.3478" height="22" fill="white" transform="translate(30.8261 21)"/>
</clipPath>
</defs>
</svg>
