<svg width="141" height="64" viewBox="0 0 141 64" fill="none" xmlns="http://www.w3.org/2000/svg">
<g filter="url(#filter0_d_127_4311)">
<g clip-path="url(#clip0_127_4311)">
<path d="M49.8916 35.7803C49.4224 35.3126 49.0501 34.7573 48.7962 34.1461C48.5422 33.5348 48.4115 32.8797 48.4115 32.2181C48.4115 31.5564 48.5422 30.9013 48.7962 30.2901C49.0501 29.6789 49.4224 29.1235 49.8916 28.6558C50.8851 27.7297 52.1943 27.2145 53.5543 27.2145C54.9143 27.2145 56.2235 27.7297 57.217 28.6558C57.6863 29.1235 58.0585 29.6789 58.3125 30.2901C58.5664 30.9013 58.6971 31.5564 58.6971 32.2181C58.6971 32.8797 58.5664 33.5348 58.3125 34.1461C58.0585 34.7573 57.6863 35.3126 57.217 35.7803C56.2235 36.7065 54.9143 37.2217 53.5543 37.2217C52.1943 37.2217 50.8851 36.7065 49.8916 35.7803ZM50.99 29.6534C50.3774 30.2476 49.9909 31.0357 49.8969 31.8827C49.8029 32.7297 50.007 33.5831 50.4745 34.2965C50.9419 35.0099 51.6435 35.539 52.4591 35.7932C53.2747 36.0475 54.1536 36.011 54.9452 35.69C55.7368 35.369 56.3918 34.7835 56.7981 34.0338C57.2045 33.2841 57.3368 32.4168 57.1725 31.5805C57.0081 30.7442 56.5573 29.9909 55.8973 29.4496C55.2373 28.9083 54.4091 28.6127 53.5546 28.6135C53.0785 28.602 52.605 28.6884 52.1638 28.8673C51.7226 29.0462 51.323 29.3138 50.99 29.6534Z" fill="#0F0F0F"/>
<path d="M62.3254 37.0702V27.3665H66.4814C66.9921 27.3366 67.5037 27.4102 67.9851 27.583C68.4665 27.7558 68.9078 28.0242 69.2823 28.3718C69.9304 29.0464 70.2917 29.9448 70.2905 30.879C70.2893 31.8133 69.9256 32.7108 69.2758 33.3836C68.9032 33.7325 68.4634 34.0023 67.9832 34.1767C67.503 34.351 66.9923 34.4263 66.482 34.3979H63.7995V37.0732H62.3254V37.0702ZM63.7977 33.0089H66.1308C66.837 33.0646 67.5398 32.8654 68.111 32.4475C68.5251 32.0292 68.7573 31.465 68.7573 30.8771C68.7573 30.2893 68.5251 29.7251 68.111 29.3068C67.5417 28.8845 66.8381 28.6825 66.1308 28.7382H63.7977V33.0089Z" fill="#0F0F0F"/>
<path d="M80.9366 27.3665H82.41V32.9809C82.4304 33.5408 82.3381 34.0992 82.1387 34.623C81.9393 35.1468 81.6367 35.6255 81.2488 36.0309C80.3517 36.8003 79.2076 37.2234 78.0244 37.2234C76.8411 37.2234 75.697 36.8003 74.7999 36.0309C74.4121 35.6255 74.1096 35.1468 73.9102 34.623C73.7109 34.0991 73.6188 33.5408 73.6393 32.9809V27.3665H75.1127V32.8556C75.0888 33.2519 75.1441 33.6491 75.2753 34.0239C75.4066 34.3988 75.6112 34.7439 75.8773 35.0393C76.4779 35.5452 77.2388 35.8227 78.025 35.8227C78.8112 35.8227 79.572 35.5452 80.1726 35.0393C80.4386 34.7439 80.643 34.3987 80.7742 34.0238C80.9053 33.649 80.9605 33.2519 80.9366 32.8556V27.3665Z" fill="#0F0F0F"/>
<path d="M86.5103 37.0702V27.3665H87.9837V35.6699H93.4188V37.0696L86.5103 37.0702Z" fill="#0F0F0F"/>
<path d="M96.9394 35.7803C96.4702 35.3126 96.098 34.7573 95.844 34.1461C95.59 33.5348 95.4593 32.8797 95.4593 32.2181C95.4593 31.5564 95.59 30.9013 95.844 30.2901C96.098 29.6789 96.4702 29.1235 96.9394 28.6558C97.9329 27.7297 99.2422 27.2145 100.602 27.2145C101.962 27.2145 103.271 27.7297 104.265 28.6558C104.734 29.1235 105.106 29.6789 105.36 30.2901C105.614 30.9013 105.745 31.5564 105.745 32.2181C105.745 32.8797 105.614 33.5348 105.36 34.1461C105.106 34.7573 104.734 35.3126 104.265 35.7803C103.271 36.7065 101.962 37.2217 100.602 37.2217C99.2422 37.2217 97.9329 36.7065 96.9394 35.7803ZM98.0378 29.6534C97.4252 30.2476 97.0388 31.0357 96.9447 31.8827C96.8507 32.7297 97.0549 33.5831 97.5223 34.2965C97.9897 35.0099 98.6914 35.539 99.507 35.7932C100.323 36.0475 101.201 36.011 101.993 35.69C102.785 35.369 103.44 34.7835 103.846 34.0338C104.252 33.2841 104.385 32.4168 104.22 31.5805C104.056 30.7442 103.605 29.9909 102.945 29.4496C102.285 28.9083 101.457 28.6127 100.602 28.6135C100.127 28.6023 99.6537 28.6889 99.2129 28.8678C98.7721 29.0467 98.373 29.3141 98.0402 29.6534H98.0378Z" fill="#0F0F0F"/>
<path d="M116.519 27.3665H117.993V32.9809C118.013 33.5408 117.921 34.0992 117.721 34.623C117.522 35.1469 117.219 35.6256 116.831 36.0309C115.934 36.8003 114.79 37.2234 113.607 37.2234C112.424 37.2234 111.28 36.8003 110.382 36.0309C109.995 35.6255 109.692 35.1468 109.493 34.6229C109.294 34.0991 109.201 33.5408 109.222 32.9809V27.3665H110.695V32.8556C110.671 33.2519 110.727 33.649 110.858 34.0239C110.989 34.3988 111.194 34.7439 111.46 35.0393C112.06 35.5452 112.821 35.8227 113.607 35.8227C114.394 35.8227 115.155 35.5452 115.755 35.0393C116.021 34.7439 116.226 34.3988 116.357 34.0239C116.488 33.6491 116.544 33.2519 116.52 32.8556L116.519 27.3665Z" fill="#0F0F0F"/>
<path d="M121.481 34.6025L122.941 34.1849C122.97 34.4487 123.06 34.7021 123.205 34.9248C123.35 35.1474 123.545 35.3332 123.775 35.4671C124.346 35.7727 124.989 35.9187 125.637 35.8895C126.234 35.9227 126.83 35.7958 127.361 35.522C127.546 35.4268 127.701 35.2826 127.809 35.1052C127.917 34.9278 127.973 34.7241 127.972 34.5166C127.977 34.3686 127.946 34.2217 127.88 34.0888C127.815 33.9558 127.718 33.8409 127.597 33.7541C127.474 33.6563 127.341 33.5704 127.201 33.4976C127.029 33.4132 126.85 33.3436 126.666 33.2893C126.443 33.2201 126.246 33.1623 126.075 33.1157C125.903 33.0698 125.679 33.0143 125.401 32.9498C125.299 32.9218 125.221 32.9039 125.164 32.895C124.707 32.793 124.256 32.6612 123.816 32.5006C123.427 32.3536 123.055 32.1677 122.704 31.9457C122.358 31.7356 122.073 31.4393 121.877 31.086C121.682 30.7216 121.584 30.3138 121.592 29.901C121.581 29.5168 121.667 29.1361 121.842 28.7934C122.017 28.4508 122.274 28.1572 122.592 27.9393C123.39 27.4167 124.335 27.1619 125.288 27.212C126.287 27.1703 127.275 27.4366 128.117 27.9745C128.473 28.2122 128.761 28.5373 128.955 28.9185C129.148 29.2997 129.24 29.7242 129.222 30.151V30.3169H127.75V30.2477C127.762 29.9972 127.706 29.7481 127.589 29.5263C127.472 29.3045 127.297 29.1181 127.083 28.9864C126.534 28.6737 125.907 28.5246 125.276 28.5568C124.721 28.5246 124.168 28.6522 123.684 28.9243C123.512 29.0231 123.37 29.1656 123.271 29.3372C123.172 29.5089 123.12 29.7037 123.121 29.9016C123.118 30.0847 123.166 30.2649 123.261 30.4219C123.347 30.5669 123.457 30.6959 123.587 30.8032C123.761 30.9308 123.953 31.0314 124.157 31.1015C124.412 31.1989 124.63 31.2729 124.811 31.3234C124.991 31.3739 125.253 31.4408 125.596 31.5239C126.115 31.6536 126.525 31.7623 126.827 31.8503C127.18 31.9578 127.525 32.0873 127.862 32.2381C128.186 32.3692 128.486 32.5518 128.752 32.7786C128.97 32.9878 129.149 33.2341 129.28 33.5059C129.433 33.822 129.509 34.1694 129.503 34.5202C129.517 34.9153 129.428 35.3072 129.244 35.6574C129.06 36.0075 128.787 36.3036 128.453 36.5165C127.598 37.0294 126.608 37.2756 125.611 37.2236C124.624 37.2617 123.646 37.0291 122.782 36.5512C122.428 36.3503 122.125 36.0695 121.899 35.7311C121.673 35.3927 121.53 35.0062 121.481 34.6025Z" fill="#0F0F0F"/>
<path d="M11.505 31.9767C11.505 29.4297 11.5128 26.8832 11.4997 24.3362C11.4848 24.0354 11.5578 23.7367 11.7096 23.4763C11.8614 23.2159 12.0856 23.005 12.3551 22.8691C15.1569 21.2625 17.9572 19.6538 20.7562 18.0429C22.3613 17.1205 23.9705 16.2058 25.5696 15.2733C25.8427 15.0952 26.1617 15 26.488 14.999C26.8143 14.9981 27.1339 15.0915 27.408 15.2679C31.8094 17.8052 36.2146 20.3367 40.6237 22.8625C40.831 22.9667 41.013 23.1148 41.157 23.2963C41.301 23.4779 41.4036 23.6886 41.4576 23.9138C41.4817 24.0287 41.4931 24.146 41.4917 24.2634C41.4917 29.4156 41.4917 34.5679 41.4917 39.7205C41.4993 39.9978 41.4288 40.2716 41.2883 40.511C41.1478 40.7504 40.9428 40.9457 40.6966 41.0749C39.8119 41.5898 38.9217 42.0969 38.0333 42.607C34.5236 44.6229 31.014 46.6383 27.5043 48.6534C27.3201 48.7669 27.1241 48.8603 26.9198 48.932C26.7067 48.996 26.4822 49.0131 26.2618 48.9822C26.0414 48.9513 25.8304 48.8731 25.6432 48.753C24.4579 48.0689 23.2712 47.3871 22.0831 46.7077C21.3832 46.3056 20.6868 45.8957 19.9821 45.5019C19.7032 45.3612 19.4711 45.1429 19.3139 44.8734C19.1566 44.6039 19.081 44.2949 19.0961 43.9835C19.0997 42.5092 19.0961 41.0337 19.0961 39.5588C19.0768 39.1755 19.2006 38.7986 19.4437 38.5011C19.6868 38.2036 20.0319 38.0064 20.4122 37.9479C20.7962 37.8894 21.1884 37.9725 21.5154 38.1818C22.5982 38.8066 23.6824 39.4297 24.768 40.051C25.2376 40.3213 25.7132 40.5815 26.1732 40.8661C26.2641 40.9311 26.3731 40.9661 26.4849 40.9661C26.5968 40.9661 26.7058 40.9311 26.7966 40.8661C28.7473 39.7344 30.7015 38.6098 32.6593 37.4921C33.1379 37.2176 33.6123 36.9366 34.0951 36.6711C34.1797 36.6337 34.2506 36.5712 34.298 36.492C34.3455 36.4128 34.3672 36.321 34.3601 36.229C34.3541 33.4069 34.3541 30.5848 34.3601 27.7627C34.3682 27.671 34.3481 27.5791 34.3025 27.4991C34.2568 27.4192 34.1878 27.355 34.1047 27.3152C31.6511 25.9127 29.2005 24.505 26.7529 23.0922C26.6722 23.0383 26.5769 23.0102 26.4798 23.0116C26.3827 23.013 26.2883 23.0438 26.2091 23.1C23.7703 24.5076 21.3279 25.9095 18.8819 27.3057C18.7873 27.3547 18.7101 27.4316 18.6611 27.5261C18.612 27.6205 18.5935 27.7277 18.6079 27.8331C18.6123 32.5032 18.6123 37.1739 18.6079 41.8451C18.6147 42.0121 18.6038 42.1792 18.5756 42.3439C18.5271 42.5809 18.4236 42.8033 18.2732 42.9931C18.1228 43.1829 17.9299 43.3348 17.7099 43.4367C17.4899 43.5385 17.2491 43.5875 17.0067 43.5795C16.7642 43.5716 16.5271 43.507 16.3143 43.391C15.9404 43.1917 15.579 42.9734 15.2117 42.7598C14.247 42.2057 13.282 41.6518 12.3169 41.0981C12.0466 40.9522 11.8224 40.734 11.6696 40.4681C11.5476 40.2426 11.4869 39.9892 11.4937 39.733C11.504 37.1476 11.5078 34.5622 11.505 31.9767ZM17.0639 42.0289V41.6083C17.0639 36.9863 17.0627 32.3645 17.0603 27.743C17.0434 27.3829 17.1308 27.0255 17.3121 26.7136C17.4934 26.4017 17.7609 26.1484 18.0827 25.9841C20.5554 24.5733 23.0231 23.1559 25.4859 21.7319C25.7868 21.5407 26.1362 21.4391 26.493 21.4391C26.8498 21.4391 27.1992 21.5407 27.5001 21.7319C29.9653 23.1539 32.433 24.5711 34.9033 25.9835C35.2294 26.1516 35.5 26.4098 35.6828 26.7272C35.8656 27.0446 35.9529 27.4079 35.9341 27.7734C35.9281 30.586 35.9281 33.3983 35.9341 36.2105C35.9523 36.5807 35.8629 36.9484 35.6766 37.2692C35.4904 37.59 35.2152 37.8503 34.8842 38.0189C32.4111 39.4276 29.9469 40.8511 27.4792 42.267C27.3529 42.3434 27.2192 42.4069 27.0802 42.4567C26.8227 42.544 26.5489 42.5732 26.2787 42.5423C26.0085 42.5113 25.7485 42.421 25.5176 42.2777C24.0084 41.4062 22.4975 40.5375 20.9847 39.6716C20.8938 39.6197 20.8023 39.5707 20.6688 39.4974V39.8368C20.6688 41.1638 20.6742 42.4919 20.6641 43.8194C20.6554 43.9097 20.6756 44.0004 20.7216 44.0786C20.7677 44.1569 20.8374 44.2185 20.9207 44.255C22.6923 45.2629 24.4595 46.2785 26.2223 47.302C26.2993 47.3583 26.3921 47.3891 26.4876 47.3901C26.5832 47.3911 26.6766 47.3621 26.7547 47.3073C31.062 44.8233 35.3741 42.3463 39.691 39.8762C39.7777 39.8356 39.8496 39.769 39.8964 39.6856C39.9433 39.6023 39.9629 39.5064 39.9524 39.4114C39.9457 34.4653 39.9457 29.5192 39.9524 24.5731C39.9607 24.478 39.939 24.3827 39.8904 24.3005C39.8418 24.2183 39.7688 24.1532 39.6814 24.1143C35.3837 21.6521 31.0878 19.186 26.7936 16.7159C26.6925 16.6563 26.5908 16.6026 26.4873 16.5459C21.9985 19.125 17.5225 21.6963 13.0593 24.2598V39.7336C14.3832 40.4902 15.6951 41.2431 17.0639 42.0289Z" fill="#0F0F0F"/>
<path d="M21.5573 31.9839C21.5573 31.2471 21.5674 30.5096 21.5531 29.7728C21.5397 29.5811 21.5842 29.3899 21.6808 29.2237C21.7774 29.0575 21.9217 28.9239 22.0951 28.8402C23.3885 28.1083 24.6773 27.3681 25.9615 26.6195C26.1183 26.5167 26.3018 26.4615 26.4895 26.4609C26.6772 26.4603 26.8611 26.5141 27.0186 26.616C28.3212 27.3717 29.6269 28.1223 30.9359 28.8677C31.0947 28.9486 31.2267 29.0735 31.3161 29.2273C31.4056 29.3812 31.4486 29.5575 31.4402 29.7352C31.4374 31.2395 31.4374 32.7434 31.4402 34.247C31.4484 34.4293 31.4034 34.6101 31.3107 34.7674C31.218 34.9248 31.0816 35.052 30.9179 35.1336C29.6177 35.8738 28.3204 36.6194 27.0258 37.3704C26.869 37.4733 26.6856 37.5286 26.4979 37.5293C26.3101 37.53 26.1263 37.4763 25.9687 37.3745C24.6745 36.6232 23.3769 35.8778 22.0759 35.1383C21.9077 35.0551 21.7681 34.9239 21.6748 34.7614C21.5815 34.5988 21.5387 34.4123 21.5519 34.2255C21.5669 33.4779 21.5573 32.7309 21.5573 31.9839ZM26.5005 27.3104C26.4699 27.3214 26.4399 27.3342 26.4108 27.3486C25.1299 28.0831 23.8515 28.8199 22.5683 29.549C22.5087 29.5813 22.4607 29.6313 22.431 29.692C22.4013 29.7528 22.3914 29.8213 22.4026 29.8879C22.4062 31.293 22.4074 32.6981 22.4026 34.1032C22.3966 34.1795 22.4147 34.2557 22.4543 34.3213C22.4938 34.3868 22.5529 34.4385 22.6233 34.4689C23.4465 34.9331 24.2631 35.4074 25.0827 35.8776L26.4909 36.6866C26.5878 36.6341 26.6734 36.5882 26.7584 36.5398C27.9548 35.8537 29.1453 35.1646 30.3448 34.4862C30.4235 34.4504 30.489 34.3908 30.532 34.3159C30.5749 34.2409 30.5931 34.1544 30.5841 34.0686C30.5749 32.6828 30.5749 31.2974 30.5841 29.9124C30.5923 29.8268 30.5733 29.7407 30.5297 29.6665C30.4861 29.5923 30.4201 29.5336 30.3412 29.4989C29.125 28.8104 27.9159 28.1117 26.7033 27.416C26.6351 27.3797 26.5681 27.3451 26.5005 27.3093V27.3104Z" fill="#0F0F0F"/>
</g>
</g>
<defs>
<filter id="filter0_d_127_4311" x="-4" y="0" width="149" height="72" filterUnits="userSpaceOnUse" color-interpolation-filters="sRGB">
<feFlood flood-opacity="0" result="BackgroundImageFix"/>
<feColorMatrix in="SourceAlpha" type="matrix" values="0 0 0 0 0 0 0 0 0 0 0 0 0 0 0 0 0 0 127 0" result="hardAlpha"/>
<feOffset dy="4"/>
<feGaussianBlur stdDeviation="2"/>
<feComposite in2="hardAlpha" operator="out"/>
<feColorMatrix type="matrix" values="0 0 0 0 0 0 0 0 0 0 0 0 0 0 0 0 0 0 0.25 0"/>
<feBlend mode="normal" in2="BackgroundImageFix" result="effect1_dropShadow_127_4311"/>
<feBlend mode="normal" in="SourceGraphic" in2="effect1_dropShadow_127_4311" result="shape"/>
</filter>
<clipPath id="clip0_127_4311">
<rect width="118" height="34" fill="white" transform="translate(11.5 15)"/>
</clipPath>
</defs>
</svg>
