<svg width="142" height="64" viewBox="0 0 142 64" fill="none" xmlns="http://www.w3.org/2000/svg">
<g clip-path="url(#clip0_127_4390)">
<path fill-rule="evenodd" clip-rule="evenodd" d="M27.4326 28.3854C27.4326 25.6585 29.6521 23.439 32.379 23.439C35.1058 23.439 37.3253 25.6585 37.3253 28.3854C37.3253 28.7024 37.2619 29.0829 37.1985 29.4C36.1838 29.0195 34.7887 28.7024 32.5058 28.7024C30.0326 28.7024 28.5741 29.0829 27.496 29.4634C27.496 29.1463 27.4326 28.7659 27.4326 28.3854ZM26.735 30.2878C27.6863 31.6829 29.1448 32.6976 30.857 33.078C29.3985 32.5707 28.1936 31.4293 27.6863 29.9073C28.9546 29.4634 30.5399 29.2098 32.3155 29.2098C32.2521 38.0878 30.9204 44.8732 25.4033 44.8732V45H39.7985V44.8098C34.2814 44.8098 32.9497 38.0878 32.8863 29.2098C34.535 29.2098 35.9302 29.4634 37.135 29.7805C36.6911 31.3024 35.4863 32.5073 33.9643 33.0146C35.6765 32.6341 37.1985 31.5561 38.1497 30.0976C40.8765 31.239 42.2716 33.3951 42.2716 36.1854H42.4619V29.0195H42.2716C42.2716 29.7805 41.7643 30.3512 40.6229 30.3512C39.735 30.3512 39.1009 30.0976 38.3399 29.7805C38.9107 28.7659 39.2911 27.561 39.2911 26.2927C39.2911 22.4878 36.1838 19.3805 32.379 19.3805C28.5741 19.3805 25.4668 22.4878 25.4668 26.2927C25.4668 27.6244 25.8472 28.8293 26.4814 29.9073C25.7838 30.161 25.2131 30.3512 24.3253 30.3512C23.2472 30.3512 22.8668 29.7805 22.8668 29.0195H22.6765V36.2488H22.8668C22.8668 33.5854 24.1985 31.4927 26.735 30.2878Z" fill="#232322"/>
</g>
<path d="M57.8606 38.3943H59.8486V27.3094H63.869V25.5877H53.8402V27.3094H57.8606V38.3943ZM67.3469 38.3943H69.3438V32.7232H75.9113V38.3943H77.9081V25.5877H75.9113V31.0014H69.3438V25.5877H67.3469V38.3943ZM82.1582 38.3943H90.2966V36.6725H84.1551V32.6965H89.9682V31.0458H84.1551V27.3094H90.2966V25.5877H82.1582V38.3943ZM99.6853 38.7049C100.916 38.7049 101.978 38.4298 102.871 37.8795C103.771 37.3293 104.46 36.5542 104.939 35.5543C105.418 34.5485 105.658 33.3622 105.658 31.9954V31.9777C105.658 30.605 105.416 29.4187 104.93 28.4188C104.451 27.413 103.765 26.6379 102.871 26.0936C101.978 25.5492 100.916 25.2771 99.6853 25.2771C98.4605 25.2771 97.3985 25.5492 96.4991 26.0936C95.6057 26.6379 94.9164 27.413 94.4313 28.4188C93.9461 29.4187 93.7035 30.605 93.7035 31.9777V31.9954C93.7035 33.3622 93.9431 34.5485 94.4224 35.5543C94.9016 36.5601 95.588 37.3382 96.4814 37.8884C97.3748 38.4328 98.4428 38.7049 99.6853 38.7049ZM99.6853 36.9388C98.8628 36.9388 98.1558 36.7347 97.5641 36.3264C96.9784 35.9182 96.5258 35.3443 96.2063 34.6047C95.8927 33.8592 95.7359 32.9894 95.7359 31.9954V31.9777C95.7359 30.9718 95.8956 30.1021 96.2151 29.3684C96.5405 28.6288 96.9991 28.0579 97.5908 27.6556C98.1824 27.2473 98.8806 27.0432 99.6853 27.0432C100.49 27.0432 101.188 27.2473 101.78 27.6556C102.371 28.0579 102.827 28.6288 103.146 29.3684C103.466 30.1021 103.626 30.9718 103.626 31.9777V31.9954C103.626 32.9894 103.466 33.8592 103.146 34.6047C102.827 35.3443 102.371 35.9182 101.78 36.3264C101.194 36.7347 100.496 36.9388 99.6853 36.9388ZM113.742 38.7049C114.736 38.7049 115.6 38.5422 116.334 38.2168C117.067 37.8914 117.632 37.4328 118.029 36.8412C118.431 36.2436 118.632 35.5395 118.632 34.7289V34.72C118.632 33.7675 118.336 33.0072 117.745 32.4392C117.153 31.8712 116.186 31.4452 114.843 31.1612L113.449 30.8505C112.621 30.679 112.026 30.4364 111.665 30.1228C111.305 29.8033 111.124 29.4039 111.124 28.9247V28.9158C111.124 28.5194 111.236 28.1792 111.461 27.8952C111.686 27.6112 111.994 27.3952 112.384 27.2473C112.775 27.0935 113.222 27.0166 113.724 27.0166C114.239 27.0106 114.689 27.0876 115.073 27.2473C115.464 27.4011 115.775 27.6141 116.005 27.8863C116.242 28.1585 116.387 28.472 116.44 28.827L116.458 28.9335H118.393L118.384 28.8182C118.336 28.1437 118.118 27.5431 117.727 27.0166C117.337 26.4841 116.801 26.061 116.121 25.7474C115.446 25.4338 114.656 25.2771 113.751 25.2771C112.846 25.2771 112.044 25.4368 111.346 25.7563C110.648 26.0699 110.1 26.5077 109.704 27.0698C109.308 27.6319 109.106 28.2827 109.101 29.0223V29.0312C109.101 29.9719 109.396 30.744 109.988 31.3475C110.586 31.951 111.532 32.3948 112.828 32.6788L114.221 32.9717C115.073 33.1551 115.686 33.4095 116.059 33.7349C116.431 34.0544 116.618 34.4597 116.618 34.9508V34.9597C116.618 35.3561 116.496 35.7052 116.254 36.0069C116.017 36.3087 115.689 36.5453 115.269 36.7169C114.849 36.8826 114.366 36.9654 113.822 36.9654C113.254 36.9654 112.745 36.8885 112.296 36.7347C111.852 36.5749 111.497 36.353 111.231 36.069C110.964 35.7791 110.81 35.4419 110.769 35.0573L110.76 34.9597H108.808L108.817 35.075C108.876 35.7969 109.112 36.43 109.527 36.9743C109.941 37.5127 110.506 37.9358 111.222 38.2434C111.938 38.5511 112.778 38.7049 113.742 38.7049Z" fill="#222222"/>
<defs>
<clipPath id="clip0_127_4390">
<rect width="20.9268" height="26" fill="white" transform="translate(22.1058 19)"/>
</clipPath>
</defs>
</svg>
