<svg width="149" height="64" viewBox="0 0 149 64" fill="none" xmlns="http://www.w3.org/2000/svg">
<g clip-path="url(#clip0_127_4247)">
<path fill-rule="evenodd" clip-rule="evenodd" d="M80.5173 44.5325C80.5173 44.8878 80.846 45.1539 81.191 45.0632C86.8058 43.5856 90.9476 38.4604 90.9476 32.3648C90.9476 25.1149 85.0885 19.2377 77.8611 19.2377C70.6337 19.2377 64.7747 25.1149 64.7747 32.3648C64.7747 38.6006 69.1092 43.8209 74.9208 45.1593C75.2621 45.2377 75.579 44.9732 75.579 44.6244V41.5146C75.579 41.2634 75.4104 41.0444 75.1704 40.9668C73.3298 40.372 71.8411 39.3186 70.7044 37.8068C69.4931 36.1846 68.8875 34.3049 68.8875 32.1678C68.8875 29.344 69.9454 27.0309 72.0606 25.2284C73.8176 23.735 75.8177 22.9883 78.061 22.9883C80.9524 22.9883 83.2851 24.0397 85.0593 26.1425C86.4923 27.842 87.2085 29.8032 87.2085 32.0262C87.2085 34.2062 86.5734 36.1588 85.3024 37.884C84.2364 39.3408 82.7774 40.3684 80.9251 40.9668C80.6856 41.0442 80.5173 41.263 80.5173 41.5139V44.5325ZM80.3509 34.1443C80.3509 33.8348 80.0991 33.584 79.7881 33.584H76.3209C76.0099 33.584 75.758 33.8348 75.758 34.1443V34.3569C75.758 34.8321 75.2168 35.0672 74.9467 34.6755C74.464 33.9757 74.2228 33.1484 74.2228 32.1935C74.2228 31.1035 74.6022 30.1594 75.3615 29.3611C76.1205 28.5629 77.0202 28.1638 78.061 28.1638C79.093 28.1638 79.9885 28.5629 80.7478 29.3611C81.5068 30.1594 81.8864 31.1035 81.8864 32.1935C81.8864 33.1193 81.6478 33.9351 81.1708 34.6409C80.9014 35.0394 80.3509 34.8061 80.3509 34.3258V34.1443Z" fill="#00BFFF"/>
<path d="M28.259 27.4075C28.259 27.0981 28.511 26.8472 28.8219 26.8472H33.3903C33.7011 26.8472 33.9531 27.0981 33.9531 27.4075V34.9513C33.9531 35.3044 34.0313 35.5832 34.1875 35.7879C34.3438 35.9874 34.5354 36.0872 34.7622 36.0872C34.9941 36.0872 35.226 35.9797 35.4579 35.7648C35.6949 35.5448 35.8133 35.2737 35.8133 34.9513V27.4075C35.8133 27.0981 36.0653 26.8472 36.3762 26.8472H41.0126C41.3235 26.8472 41.5755 27.0981 41.5755 27.4075V35.1739C41.5755 36.4581 41.2503 37.5709 40.6 38.5123C39.9547 39.4536 39.1078 40.1648 38.0592 40.6457C37.0157 41.1267 35.9167 41.3671 34.7622 41.3671C33.9405 41.3671 33.139 41.2367 32.3575 40.9757C31.5762 40.7097 30.8754 40.3157 30.2554 39.7939C29.6403 39.2669 29.1539 38.6146 28.7959 37.8369C28.438 37.0592 28.259 36.1716 28.259 35.1739V27.4075Z" fill="#040B1D"/>
<path d="M43.4797 40.5545C43.1689 40.5545 42.9169 40.3036 42.9169 39.9942V31.5908C42.9169 30.4601 43.2269 29.4931 43.847 28.6899C44.4721 27.8815 45.2963 27.2727 46.3197 26.8634C47.3431 26.4541 48.4269 26.2494 49.5713 26.2494C50.7409 26.2494 51.8525 26.4643 52.906 26.8941C53.9647 27.3187 54.8191 27.9557 55.4695 28.805C56.125 29.6543 56.4526 30.6571 56.4526 31.8134V39.9942C56.4526 40.3036 56.2007 40.5545 55.8897 40.5545H51.034C50.7232 40.5545 50.4711 40.3036 50.4711 39.9942V32.1894C50.4711 31.8824 50.3854 31.6548 50.2141 31.5064C50.0477 31.3529 49.8561 31.2762 49.6394 31.2762C49.3974 31.2762 49.1655 31.3683 48.9437 31.5524C48.7218 31.7315 48.6109 31.9438 48.6109 32.1894V39.9942C48.6109 40.3036 48.3589 40.5545 48.0481 40.5545H43.4797Z" fill="#040B1D"/>
<path d="M58.3495 40.5545C58.0385 40.5545 57.7866 40.3036 57.7866 39.9942V26.9709C57.7866 26.6615 58.0385 26.4106 58.3495 26.4106H63.1448C63.4555 26.4106 63.7076 26.6615 63.7076 26.9709V39.9942C63.7076 40.3036 63.4555 40.5545 63.1448 40.5545H58.3495Z" fill="#040B1D"/>
<path d="M91.9823 27.4075C91.9823 27.0981 92.2345 26.8472 92.5452 26.8472H97.1136C97.4243 26.8472 97.6765 27.0981 97.6765 27.4075V34.9513C97.6765 35.3044 97.7544 35.5832 97.9109 35.7879C98.0671 35.9874 98.2588 36.0872 98.4856 36.0872C98.7175 36.0872 98.9494 35.9797 99.1813 35.7648C99.4182 35.5448 99.5367 35.2737 99.5367 34.9513V27.4075C99.5367 27.0981 99.7886 26.8472 100.1 26.8472H104.736C105.047 26.8472 105.299 27.0981 105.299 27.4075V35.1739C105.299 36.4581 104.974 37.5709 104.323 38.5123C103.678 39.4536 102.831 40.1648 101.783 40.6457C100.739 41.1267 99.64 41.3671 98.4856 41.3671C97.6638 41.3671 96.8623 41.2367 96.0808 40.9757C95.2995 40.7097 94.5988 40.3157 93.9788 39.7939C93.3636 39.2669 92.8772 38.6146 92.5193 37.8369C92.1613 37.0592 91.9823 36.1716 91.9823 35.1739V27.4075Z" fill="#040B1D"/>
<path d="M120.885 31.1357C120.997 31.3927 120.888 31.6901 120.643 31.8263L114.503 35.2265C114.234 35.3758 113.894 35.2812 113.741 35.0143L112.838 33.4371C112.682 33.1651 112.78 32.8187 113.056 32.6682L114.784 31.7258C115.112 31.5474 115.163 31.101 114.807 30.9911C114.635 30.9383 114.45 30.9119 114.253 30.9119C113.629 30.9119 113.006 31.1957 112.382 31.7414C112.253 31.8506 111.672 32.2871 111.5 32.7456C111.393 33.0075 111.414 33.2476 111.436 33.4004C111.457 33.5969 112.038 35.1904 112.533 35.758C113.049 36.3474 113.629 36.6312 114.318 36.6312C115.317 36.6312 116.403 36.0734 117.528 34.9578C117.754 34.7334 118.121 34.7205 118.35 34.9428L120.739 37.2675C120.932 37.4556 120.966 37.7555 120.8 37.9683C120.343 38.5574 119.773 39.0868 119.114 39.5563C118.297 40.1239 117.437 40.5386 116.512 40.8443C115.587 41.128 114.662 41.2809 113.737 41.2809C112.812 41.2809 111.952 41.128 111.113 40.8443C110.274 40.5605 109.521 40.1239 108.833 39.5127C108.145 38.9233 107.607 38.1592 107.177 37.2424C106.768 36.3256 106.467 35.2778 106.402 34.0772C106.402 34.0117 106.402 33.9898 106.402 33.8807C106.402 33.7715 106.402 33.706 106.402 33.706C106.402 32.1125 106.768 30.7372 107.478 29.6021C108.188 28.467 109.112 27.5938 110.209 27.0263C111.328 26.4587 112.446 26.1531 113.587 26.1531C117.005 26.1531 119.438 27.8139 120.885 31.1357Z" fill="#040B1D"/>
</g>
<defs>
<clipPath id="clip0_127_4247">
<rect width="92.8571" height="26" fill="white" transform="translate(28.0714 19)"/>
</clipPath>
</defs>
</svg>
