<svg width="134" height="36" viewBox="0 0 134 36" fill="none" xmlns="http://www.w3.org/2000/svg">
<path d="M37.6875 4.33683H43.7932C45.3446 4.33683 46.479 4.75388 47.213 5.47121C47.9303 6.08845 48.2473 6.92256 48.2473 7.73998C48.2473 8.05694 48.2473 8.45732 48.1472 8.77428C47.947 9.29142 47.63 9.80856 47.213 10.2256C47.0128 10.4258 46.7959 10.5426 46.5957 10.6427C47.3131 10.8429 47.947 11.2599 48.4641 11.7771C48.8812 12.2942 49.0814 12.9114 49.0814 13.8456C49.0814 14.3628 48.9813 14.98 48.7644 15.3971C48.5642 15.8141 48.1472 16.2312 47.7301 16.5315C47.213 16.8484 46.6958 17.0486 46.1787 17.2488C45.5615 17.449 44.8274 17.449 44.1101 17.449H37.7876V4.30347H37.6875V4.33683ZM43.276 9.70847C43.7932 9.70847 44.3103 9.60838 44.8274 9.39151C45.2445 9.19133 45.4447 8.77428 45.4447 8.35722C45.4447 7.94017 45.2445 7.52312 44.9275 7.32293C44.5105 7.00597 43.9933 6.90588 43.4762 7.00597H40.5735V9.79188H43.2593V9.70847H43.276ZM43.9933 14.9967C44.5105 14.9967 45.0276 14.8966 45.5448 14.6797C45.9618 14.4796 46.162 14.0625 46.0619 13.5454C46.0619 13.1283 45.8617 12.7113 45.5448 12.5111C45.2278 12.3109 44.6106 12.094 43.8932 12.094H40.4734V14.9967H43.9933Z" fill="#F3BA2F"/>
<path d="M52.6875 4.33765H55.5902V17.5832H52.6875V4.33765Z" fill="#F3BA2F"/>
<path d="M60.043 4.33765H62.7288L68.9345 12.5119V4.33765H71.8205V17.5832H69.3516L62.8289 9.19214V17.5832H60.043V4.33765Z" fill="#F3BA2F"/>
<path d="M80.63 4.2373H83.3158L89.0044 17.583H86.0016L84.7672 14.5802H79.1787L77.9442 17.583H74.9414L80.63 4.2373ZM83.7329 12.0946L81.9813 7.75723L80.2296 12.0946H83.7329Z" fill="#F3BA2F"/>
<path d="M92.1055 4.33765H94.7913L100.997 12.5119V4.33765H103.9V17.5832H101.414L94.9915 9.19214V17.5832H92.1055V4.33765Z" fill="#F3BA2F"/>
<path d="M114.44 17.7829C113.506 17.7829 112.572 17.5827 111.754 17.2658C110.103 16.5485 108.852 15.2973 108.134 13.6458C107.817 12.8117 107.617 11.8941 107.617 10.9599C107.617 9.20832 108.335 7.44002 109.586 6.10546C110.203 5.48822 110.937 4.97107 111.754 4.65411C112.689 4.23706 113.623 4.13696 114.54 4.13696C115.057 4.13696 115.675 4.13696 116.192 4.23706C116.709 4.33715 117.126 4.43724 117.543 4.65411C117.96 4.85429 118.377 5.07116 118.677 5.27135C118.994 5.47153 119.395 5.7885 119.712 6.10546L117.96 8.27413C117.443 7.85708 116.926 7.44002 116.409 7.13974C115.892 6.83947 115.274 6.72269 114.657 6.72269C114.14 6.72269 113.623 6.82278 113.106 7.03965C112.588 7.23983 112.171 7.5568 111.871 7.97385C111.571 8.3909 111.254 8.80796 111.037 9.3251C110.837 9.84225 110.72 10.3594 110.72 10.8765C110.72 11.3937 110.82 12.0109 111.037 12.5281C111.254 13.0452 111.454 13.4623 111.871 13.8793C112.588 14.7134 113.623 15.1138 114.657 15.1138C115.274 15.1138 116.008 15.0137 116.626 14.6967C117.143 14.3798 117.76 13.9794 118.177 13.5624L120.029 15.4141C119.712 15.731 119.311 16.1314 118.994 16.4484C118.577 16.7653 118.16 16.9655 117.76 17.1657C117.343 17.3659 116.826 17.5827 116.309 17.6828C115.575 17.7829 114.957 17.7829 114.44 17.7829Z" fill="#F3BA2F"/>
<path d="M123.352 4.33765H133.277V6.92337H126.137V9.60919H132.443V12.1949H126.137V14.9975H133.378V17.5832H123.352V4.33765Z" fill="#F3BA2F"/>
<path d="M41.4057 30.6117C40.6884 30.6117 39.9544 30.5116 39.3371 30.1946C38.7199 29.9944 38.1027 29.5774 37.4688 29.0602L38.503 27.9258C38.9201 28.3429 39.3371 28.5431 39.8543 28.86C40.3714 29.0602 40.8886 29.177 41.4057 29.177C41.8228 29.177 42.2398 29.0769 42.6402 28.86C42.9572 28.6599 43.0573 28.3429 43.0573 28.0259C43.0573 27.9258 43.0573 27.709 42.9572 27.6089C42.8571 27.5088 42.757 27.2919 42.6402 27.1918C42.44 27.0917 42.2232 26.9917 42.023 26.8749C41.706 26.7748 41.3056 26.6747 40.9887 26.5579C40.5716 26.4578 40.0545 26.3577 39.6374 26.1409C39.3205 26.0408 38.9201 25.8239 38.7032 25.6237C38.503 25.4235 38.2862 25.2067 38.086 24.9064C37.8858 24.4893 37.8858 24.0723 37.8858 23.772C37.8858 23.3549 37.9859 23.0547 38.086 22.6376C38.1861 22.3207 38.503 22.0204 38.7032 21.8035C39.0202 21.6033 39.3205 21.3865 39.7375 21.2864C40.1546 21.1863 40.5716 21.0862 40.972 21.0862C41.5892 21.0862 42.2065 21.1863 42.8404 21.4031C43.3575 21.6033 43.8747 21.9203 44.3918 22.2372L43.5577 23.4717C43.1407 23.1548 42.7236 22.9546 42.3232 22.7544C41.9062 22.5542 41.4891 22.5542 41.0888 22.5542C40.6717 22.5542 40.2547 22.6543 39.9544 22.8712C39.7542 23.0714 39.5373 23.3883 39.5373 23.7053C39.5373 23.9055 39.5373 24.0222 39.6374 24.2224C39.7375 24.3225 39.8376 24.5394 39.9544 24.6395C40.1546 24.7396 40.3714 24.8397 40.6717 24.9564C40.9887 25.0565 41.289 25.1566 41.8061 25.2734C42.2232 25.3735 42.6402 25.4736 43.1574 25.6904C43.4743 25.7905 43.7746 26.0074 44.0915 26.2076C44.2917 26.4078 44.5086 26.7247 44.6087 26.9249C44.7088 27.2419 44.8089 27.5422 44.8089 27.9592C44.8089 28.3763 44.7088 28.7933 44.6087 29.0936C44.4085 29.4106 44.1916 29.7108 43.8914 30.0278C43.5744 30.228 43.2741 30.4448 42.8571 30.5449C42.3399 30.5116 41.8228 30.6117 41.4057 30.6117Z" fill="#F3BA2F"/>
<path d="M46.5781 21.2035H48.3464L51.1323 25.5408L54.035 21.2035H55.7866V30.5121H54.1351V23.7892L51.2324 28.1266H51.1323L48.2463 23.7892V30.5121H46.5781V21.2035Z" fill="#F3BA2F"/>
<path d="M61.3759 21.1031H62.9273L66.9644 30.4118H65.2127L64.2785 28.143H59.9412L59.007 30.4118H57.3555L61.3759 21.1031ZM63.7614 26.7918L62.1099 23.0716L60.5584 26.7918H63.7614Z" fill="#F3BA2F"/>
<path d="M68.6196 21.2035H72.7568C73.2739 21.2035 73.7911 21.3036 74.3082 21.4037C74.7253 21.5038 75.1423 21.8207 75.4426 22.121C75.6428 22.3212 75.8597 22.6381 76.0598 23.0552C76.1599 23.3722 76.26 23.7725 76.26 24.1896C76.26 24.5065 76.1599 24.9069 76.0598 25.2239C75.9598 25.5408 75.7429 25.741 75.6428 26.058C75.4426 26.2582 75.2257 26.475 74.9255 26.6752C74.6085 26.8754 74.3082 26.9922 73.9913 27.0923L76.4769 30.6122H74.5084L72.2396 27.4092H70.1711V30.6122H68.5195L68.6196 21.2035ZM72.6567 25.7577C73.1738 25.7577 73.691 25.6576 74.0079 25.3407C74.3249 25.0237 74.5251 24.6233 74.5251 24.2063C74.5251 23.7892 74.3249 23.3722 74.0079 23.0719C73.5909 22.7549 73.0737 22.6548 72.5566 22.6548H70.1711V25.7577H72.6567Z" fill="#F3BA2F"/>
<path d="M80.5106 22.6548H77.5078V21.2035H85.0648V22.6548H82.062V30.5121H80.4105L80.5106 22.6548Z" fill="#F3BA2F"/>
<path d="M95.1064 30.612C94.4891 30.612 93.8719 30.5119 93.238 30.1949C92.1036 29.6778 91.1694 28.8437 90.7523 27.7093C90.5522 27.0921 90.3353 26.4748 90.4354 25.8409C90.4354 25.2237 90.5355 24.6064 90.7523 23.9725C91.1694 22.8381 92.1036 21.9039 93.238 21.3868C93.8552 21.1866 94.4725 20.9697 95.2065 20.9697C95.6235 20.9697 96.0406 20.9697 96.3408 21.0698C96.6578 21.1699 96.9581 21.27 97.275 21.3868C97.592 21.4869 97.7922 21.7037 98.1091 21.8038C98.3093 22.004 98.6263 22.2209 98.8265 22.4211L97.7922 23.6555C97.4752 23.3386 97.0749 23.0383 96.6578 22.8214C96.2408 22.6213 95.7236 22.5045 95.2065 22.5045C94.7894 22.5045 94.3724 22.6046 93.972 22.7047C93.5549 22.9049 93.2547 23.1217 92.9377 23.422C92.6207 23.739 92.4206 24.0392 92.3205 24.4563C92.2204 24.8733 92.1203 25.2904 92.1203 25.6908C92.1203 26.1078 92.2204 26.5249 92.3205 26.9252C92.4206 27.3256 92.6374 27.6426 92.9377 27.9595C93.2547 28.2765 93.5549 28.4767 93.972 28.6769C94.389 28.8771 94.8061 28.9938 95.2065 28.8771C95.7236 28.8771 96.2408 28.777 96.6578 28.5601C97.0749 28.3599 97.4919 28.0429 97.8923 27.6259L98.9266 28.6602C98.7264 28.8604 98.4094 29.1773 98.2092 29.3775C97.8923 29.5777 97.6921 29.7946 97.3751 29.8947C97.0582 29.9948 96.7579 30.2116 96.3408 30.2116C95.9238 30.612 95.5067 30.612 95.1064 30.612Z" fill="#F3BA2F"/>
<path d="M100.578 21.2035H102.13V25.0237H106.584V21.2035H108.235V30.5121H106.584V26.5751H102.13V30.5121H100.578V21.2035Z" fill="#F3BA2F"/>
<path d="M113.923 21.1031H115.474L119.511 30.4118H117.76L116.825 28.143H112.488L111.554 30.4118H109.902L113.923 21.1031ZM116.208 26.7918L114.657 23.0716L113.105 26.7918H116.208Z" fill="#F3BA2F"/>
<path d="M121.16 21.2035H122.828V30.5121H121.16V21.2035Z" fill="#F3BA2F"/>
<path d="M125.301 21.2035H126.752L131.723 27.6094V21.2035H133.375V30.5121H132.024L126.969 23.8893V30.5121H125.301V21.2035Z" fill="#F3BA2F"/>
<path d="M19.4864 29.8943V33.9314L15.9665 36L12.5467 33.9314V29.8943L15.9665 31.9629L19.4864 29.8943ZM0.652344 15.9314L4.07218 18V24.9231L9.96096 28.443V32.4801L0.652344 26.9917V15.9314V15.9314ZM31.2807 15.9314V27.0083L21.872 32.4968V28.4597L27.7608 24.9398V18.0167L31.2807 15.9314ZM21.8553 10.443L25.3752 12.5116V16.5487L19.4864 20.0686V27.0917L16.0666 29.1603L12.6635 27.0917V20.0519L6.55781 16.532V12.4949L10.0777 10.4263L15.9665 13.9462L21.8553 10.443ZM6.55781 19.4347L9.97765 21.5032V25.5403L6.55781 23.4717V19.4347ZM25.3752 19.4347V23.4717L21.9554 25.5403V21.5032L25.3752 19.4347ZM4.07218 6.92308L7.5921 8.99166L4.07218 11.0602V15.0973L0.652344 13.0287V8.99166L4.07218 6.92308ZM27.8609 6.92308L31.3808 8.99166V13.0287L27.8609 15.0973V11.0602L24.441 8.99166L27.8609 6.92308ZM15.9665 6.92308L19.4864 8.99166L15.9665 11.0602L12.5467 8.99166L15.9665 6.92308ZM15.9665 0L25.3752 5.48841L21.9554 7.55699L16.0666 4.03707L10.0611 7.55699L6.64122 5.48841L15.9665 0Z" fill="#F3BA2F"/>
</svg>
