<svg width="163" height="40" viewBox="0 0 163 40" fill="none" xmlns="http://www.w3.org/2000/svg">
<path d="M48.2948 20.953C48.2948 21.2297 48.0627 21.455 47.7855 21.455H37.9742C38.2191 23.8748 40.0435 26.0823 42.6091 26.0823C44.3625 26.0823 45.6647 25.413 46.6445 24.0164C46.7863 23.8233 46.9991 23.701 47.2698 23.8169C47.4181 23.8812 47.5212 24.0164 47.547 24.1709C47.5728 24.3317 47.5277 24.4218 47.4826 24.5119C46.4963 26.2303 44.5301 27.0734 42.6027 27.0734C39.3021 27.0734 36.9492 24.1258 36.9492 20.9723C36.9492 17.8187 39.3021 14.8712 42.6027 14.8712C45.9032 14.8647 48.2883 17.8059 48.2948 20.953ZM47.244 20.4767C47.0313 18.0569 45.1748 15.8494 42.6091 15.8494C40.0435 15.8494 38.2191 18.0569 37.9742 20.4767H47.244ZM60.2012 15.1093C60.4848 15.1093 60.6911 15.3539 60.6911 15.5984C60.6911 15.8816 60.4784 16.0875 60.2012 16.0875H57.5711V26.3912C57.5711 26.6357 57.3584 26.8803 57.0812 26.8803C56.7975 26.8803 56.5912 26.6357 56.5912 26.3912V16.0875H54.0643C53.7806 16.0875 53.5744 15.8751 53.5744 15.5984C53.5744 15.3539 53.7871 15.1093 54.0643 15.1093H56.5912V11.3379C56.5912 11.0998 56.7524 10.881 56.9845 10.8424C57.3132 10.7909 57.5711 11.0162 57.5711 11.3251V15.1093H60.2012ZM76.2462 20.0906V26.3333C76.2462 26.6164 76.0012 26.8224 75.7562 26.8224C75.4726 26.8224 75.2663 26.61 75.2663 26.3333V20.0906C75.2663 17.9861 74.0737 15.8816 71.7208 15.8816C68.7039 15.8816 67.4018 18.5138 67.5758 21.2104C67.5758 21.2812 67.6081 21.5965 67.6081 21.6287V26.314C67.6081 26.5521 67.4469 26.7709 67.2148 26.8095C66.8861 26.861 66.6282 26.6357 66.6282 26.3268V5.82249C66.6282 5.57793 66.8409 5.33337 67.1181 5.33337C67.4018 5.33337 67.6081 5.57793 67.6081 5.82249V17.4262C68.4525 15.9202 69.961 14.9034 71.7144 14.9034C74.5959 14.9034 76.2462 17.4262 76.2462 20.0906ZM93.8382 20.953C93.8382 21.2297 93.6062 21.455 93.329 21.455H83.5112C83.7562 23.8748 85.5805 26.0823 88.1461 26.0823C89.8995 26.0823 91.2017 25.413 92.1815 24.0164C92.3234 23.8233 92.5361 23.701 92.8068 23.8169C92.9551 23.8812 93.0582 24.0164 93.084 24.1709C93.1098 24.3317 93.0647 24.4218 93.0196 24.5119C92.0333 26.2303 90.0671 27.0734 88.1397 27.0734C84.8391 27.0734 82.4862 24.1258 82.4862 20.9723C82.4862 17.8187 84.8391 14.8712 88.1397 14.8712C91.4466 14.8647 93.8318 17.8059 93.8382 20.953ZM92.781 20.4767C92.5683 18.0569 90.7118 15.8494 88.1461 15.8494C85.5805 15.8494 83.7562 18.0569 83.5112 20.4767H92.781ZM105.88 15.5662C105.88 15.8816 105.706 16.0554 105.422 16.094C102.541 16.5123 101.245 18.8613 101.245 21.5965V26.2818C101.245 26.5199 101.084 26.7387 100.852 26.7773C100.523 26.8288 100.265 26.6036 100.265 26.2947V15.6177C100.265 15.3796 100.426 15.1608 100.658 15.1222C100.987 15.0707 101.245 15.2959 101.245 15.6049V17.7801C102.051 16.4158 103.669 15.1157 105.351 15.1157C105.596 15.1093 105.88 15.2895 105.88 15.5662ZM121.996 20.953C121.996 21.2297 121.764 21.455 121.487 21.455H111.675C111.92 23.8748 113.745 26.0823 116.31 26.0823C118.064 26.0823 119.366 25.413 120.346 24.0164C120.487 23.8233 120.7 23.701 120.971 23.8169C121.119 23.8812 121.222 24.0164 121.248 24.1709C121.274 24.3317 121.229 24.4218 121.184 24.5119C120.197 26.2303 118.231 27.0734 116.304 27.0734C113.003 27.0734 110.65 24.1258 110.65 20.9723C110.65 17.8187 113.003 14.8712 116.304 14.8712C119.604 14.8647 121.989 17.8059 121.996 20.953ZM120.945 20.4767C120.732 18.0569 118.876 15.8494 116.31 15.8494C113.745 15.8494 111.92 18.0569 111.675 20.4767H120.945ZM137.835 15.6885V26.3912C137.835 26.6744 137.59 26.8803 137.345 26.8803C137.061 26.8803 136.855 26.6679 136.855 26.3912V24.3575C136.049 25.9729 134.605 27.1249 132.781 27.1249C129.867 27.1249 128.249 24.602 128.249 21.9376V15.6628C128.249 15.4182 128.462 15.1737 128.739 15.1737C129.022 15.1737 129.229 15.4182 129.229 15.6628V21.9376C129.229 24.0421 130.421 26.1466 132.774 26.1466C136.075 26.1466 136.848 23.0639 136.848 19.6594V15.6628C136.848 15.3796 137.132 15.09 137.48 15.193C137.693 15.2638 137.835 15.4697 137.835 15.6885ZM162.653 20.052V26.3268C162.653 26.61 162.408 26.8159 162.163 26.8159C161.879 26.8159 161.673 26.6036 161.673 26.3268V20.052C161.673 17.9475 160.481 15.8816 158.128 15.8816C155.175 15.8816 154.054 19.0351 154.054 21.4871V26.3268C154.054 26.61 153.809 26.8159 153.564 26.8159C153.28 26.8159 153.074 26.6036 153.074 26.3268V20.052C153.074 17.9475 151.881 15.8816 149.528 15.8816C146.544 15.8816 145.312 18.2306 145.422 21.352C145.422 21.4228 145.454 21.5644 145.422 21.5965V26.314C145.422 26.5521 145.261 26.7709 145.022 26.8095C144.693 26.861 144.436 26.6357 144.436 26.3268V15.6177C144.436 15.3796 144.597 15.1608 144.829 15.1222C145.158 15.0707 145.415 15.2959 145.415 15.6049V17.394C146.26 15.888 147.768 14.9034 149.522 14.9034C151.52 14.9034 153.067 16.1648 153.699 18.0247C154.505 16.2034 156.084 14.9034 158.121 14.9034C161.003 14.9034 162.653 17.3876 162.653 20.052Z" fill="#3C3C3B"/>
<g opacity="0.6">
<path opacity="0.6" d="M12.2998 14.7892L0 20.3739L12.2998 27.6287L24.5947 20.3739L12.2998 14.7892Z" fill="#010101"/>
</g>
<g opacity="0.45">
<path opacity="0.45" d="M0 20.3742L12.2998 27.629V0L0 20.3742Z" fill="#010101"/>
</g>
<g opacity="0.8">
<path opacity="0.8" d="M12.3047 0V27.629L24.5996 20.3742L12.3047 0Z" fill="#010101"/>
</g>
<g opacity="0.45">
<path opacity="0.45" d="M0 22.7003L12.2998 39.9998V29.9551L0 22.7003Z" fill="#010101"/>
</g>
<g opacity="0.8">
<path opacity="0.8" d="M12.3047 29.9554V40.0001L24.6093 22.7006L12.3047 29.9554Z" fill="#010101"/>
</g>
</svg>
