<svg width="142" height="40" viewBox="0 0 142 40" fill="none" xmlns="http://www.w3.org/2000/svg">
<path d="M10.626 24.936H4.862L3.938 27.664H0L5.588 12.22H9.944L15.532 27.664H11.55L10.626 24.936ZM9.658 22.032L7.744 16.378L5.852 22.032H9.658Z" fill="url(#paint0_linear_3787_2385)"/>
<path d="M29.0027 17.192C29.0027 18.0867 28.7974 18.908 28.3867 19.656C27.976 20.3893 27.3454 20.9833 26.4947 21.438C25.644 21.8927 24.588 22.12 23.3267 22.12H20.9947V27.664H17.2327V12.22H23.3267C24.5587 12.22 25.6 12.4327 26.4507 12.858C27.3014 13.2833 27.9394 13.87 28.3647 14.618C28.79 15.366 29.0027 16.224 29.0027 17.192ZM23.0407 19.128C23.7594 19.128 24.2947 18.9593 24.6467 18.622C24.9987 18.2847 25.1747 17.808 25.1747 17.192C25.1747 16.576 24.9987 16.0993 24.6467 15.762C24.2947 15.4247 23.7594 15.256 23.0407 15.256H20.9947V19.128H23.0407Z" fill="url(#paint1_linear_3787_2385)"/>
<path d="M34.7232 15.234V18.358H39.7612V21.262H34.7232V24.65H40.4212V27.664H30.9612V12.22H40.4212V15.234H34.7232Z" fill="url(#paint2_linear_3787_2385)"/>
<path d="M48.4516 27.818C47.3222 27.818 46.3102 27.6347 45.4156 27.268C44.5209 26.9013 43.8022 26.3587 43.2596 25.64C42.7316 24.9213 42.4529 24.056 42.4236 23.044H46.4276C46.4862 23.616 46.6842 24.056 47.0216 24.364C47.3589 24.6573 47.7989 24.804 48.3416 24.804C48.8989 24.804 49.3389 24.6793 49.6616 24.43C49.9842 24.166 50.1456 23.8067 50.1456 23.352C50.1456 22.9707 50.0136 22.6553 49.7496 22.406C49.5002 22.1567 49.1849 21.9513 48.8036 21.79C48.4369 21.6287 47.9089 21.4453 47.2196 21.24C46.2222 20.932 45.4082 20.624 44.7776 20.316C44.1469 20.008 43.6042 19.5533 43.1496 18.952C42.6949 18.3507 42.4676 17.566 42.4676 16.598C42.4676 15.1607 42.9882 14.0387 44.0296 13.232C45.0709 12.4107 46.4276 12 48.0996 12C49.8009 12 51.1722 12.4107 52.2136 13.232C53.2549 14.0387 53.8122 15.168 53.8856 16.62H49.8156C49.7862 16.1213 49.6029 15.7327 49.2656 15.454C48.9282 15.1607 48.4956 15.014 47.9676 15.014C47.5129 15.014 47.1462 15.1387 46.8676 15.388C46.5889 15.6227 46.4496 15.9673 46.4496 16.422C46.4496 16.9207 46.6842 17.3093 47.1536 17.588C47.6229 17.8667 48.3562 18.1673 49.3536 18.49C50.3509 18.8273 51.1576 19.15 51.7736 19.458C52.4042 19.766 52.9469 20.2133 53.4016 20.8C53.8562 21.3867 54.0836 22.142 54.0836 23.066C54.0836 23.946 53.8562 24.7453 53.4016 25.464C52.9616 26.1827 52.3162 26.7547 51.4656 27.18C50.6149 27.6053 49.6102 27.818 48.4516 27.818Z" fill="url(#paint3_linear_3787_2385)"/>
<path d="M72.8308 17.192C72.8308 18.0867 72.6255 18.908 72.2148 19.656C71.8042 20.3893 71.1735 20.9833 70.3228 21.438C69.4722 21.8927 68.4162 22.12 67.1548 22.12H64.8228V27.664H61.0608V12.22H67.1548C68.3868 12.22 69.4282 12.4327 70.2788 12.858C71.1295 13.2833 71.7675 13.87 72.1928 14.618C72.6182 15.366 72.8308 16.224 72.8308 17.192ZM66.8688 19.128C67.5875 19.128 68.1228 18.9593 68.4748 18.622C68.8268 18.2847 69.0028 17.808 69.0028 17.192C69.0028 16.576 68.8268 16.0993 68.4748 15.762C68.1228 15.4247 67.5875 15.256 66.8688 15.256H64.8228V19.128H66.8688Z" fill="url(#paint4_linear_3787_2385)"/>
<path d="M78.5513 24.76H83.4793V27.664H74.7893V12.22H78.5513V24.76Z" fill="url(#paint5_linear_3787_2385)"/>
<path d="M94.8877 24.936H89.1237L88.1997 27.664H84.2617L89.8497 12.22H94.2057L99.7937 27.664H95.8117L94.8877 24.936ZM93.9197 22.032L92.0057 16.378L90.1137 22.032H93.9197Z" fill="url(#paint6_linear_3787_2385)"/>
<path d="M115.31 27.664H111.548L105.256 18.138V27.664H101.494V12.22H105.256L111.548 21.79V12.22H115.31V27.664Z" fill="url(#paint7_linear_3787_2385)"/>
<path d="M121.799 15.234V18.358H126.837V21.262H121.799V24.65H127.497V27.664H118.037V12.22H127.497V15.234H121.799Z" fill="url(#paint8_linear_3787_2385)"/>
<path d="M141.05 12.22V15.234H136.958V27.664H133.196V15.234H129.104V12.22H141.05Z" fill="url(#paint9_linear_3787_2385)"/>
<defs>
<linearGradient id="paint0_linear_3787_2385" x1="112.109" y1="16.1641" x2="-0.297791" y2="5.6697" gradientUnits="userSpaceOnUse">
<stop stop-color="#53B00F"/>
<stop offset="1" stop-color="#FB9218"/>
</linearGradient>
<linearGradient id="paint1_linear_3787_2385" x1="112.109" y1="16.1641" x2="-0.297791" y2="5.6697" gradientUnits="userSpaceOnUse">
<stop stop-color="#53B00F"/>
<stop offset="1" stop-color="#FB9218"/>
</linearGradient>
<linearGradient id="paint2_linear_3787_2385" x1="112.109" y1="16.1641" x2="-0.297791" y2="5.6697" gradientUnits="userSpaceOnUse">
<stop stop-color="#53B00F"/>
<stop offset="1" stop-color="#FB9218"/>
</linearGradient>
<linearGradient id="paint3_linear_3787_2385" x1="112.109" y1="16.1641" x2="-0.297791" y2="5.6697" gradientUnits="userSpaceOnUse">
<stop stop-color="#53B00F"/>
<stop offset="1" stop-color="#FB9218"/>
</linearGradient>
<linearGradient id="paint4_linear_3787_2385" x1="112.109" y1="16.1641" x2="-0.297791" y2="5.6697" gradientUnits="userSpaceOnUse">
<stop stop-color="#53B00F"/>
<stop offset="1" stop-color="#FB9218"/>
</linearGradient>
<linearGradient id="paint5_linear_3787_2385" x1="112.109" y1="16.1641" x2="-0.297791" y2="5.6697" gradientUnits="userSpaceOnUse">
<stop stop-color="#53B00F"/>
<stop offset="1" stop-color="#FB9218"/>
</linearGradient>
<linearGradient id="paint6_linear_3787_2385" x1="112.109" y1="16.1641" x2="-0.297791" y2="5.6697" gradientUnits="userSpaceOnUse">
<stop stop-color="#53B00F"/>
<stop offset="1" stop-color="#FB9218"/>
</linearGradient>
<linearGradient id="paint7_linear_3787_2385" x1="112.109" y1="16.1641" x2="-0.297791" y2="5.6697" gradientUnits="userSpaceOnUse">
<stop stop-color="#53B00F"/>
<stop offset="1" stop-color="#FB9218"/>
</linearGradient>
<linearGradient id="paint8_linear_3787_2385" x1="112.109" y1="16.1641" x2="-0.297791" y2="5.6697" gradientUnits="userSpaceOnUse">
<stop stop-color="#53B00F"/>
<stop offset="1" stop-color="#FB9218"/>
</linearGradient>
<linearGradient id="paint9_linear_3787_2385" x1="112.109" y1="16.1641" x2="-0.297791" y2="5.6697" gradientUnits="userSpaceOnUse">
<stop stop-color="#53B00F"/>
<stop offset="1" stop-color="#FB9218"/>
</linearGradient>
</defs>
</svg>
