<svg width="305" height="42" viewBox="0 0 305 42" fill="none" xmlns="http://www.w3.org/2000/svg">
<g opacity="0.7">
<path d="M1.01929 16.2249H0L2.29029 9.86053H3.3997L5.68999 16.2249H4.6707L2.87141 11.0166H2.82169L1.01929 16.2249ZM1.1902 13.7326H4.49668V14.5406H1.1902V13.7326Z" fill="white"/>
<path d="M9.77281 14.2453V11.4516H10.7051V16.2249H9.79145V15.3983H9.74173C9.63193 15.6531 9.45583 15.8654 9.21344 16.0353C8.97312 16.2031 8.67376 16.287 8.31535 16.287C8.00873 16.287 7.73734 16.2197 7.50116 16.085C7.26706 15.9483 7.08267 15.7463 6.94801 15.479C6.81542 15.2118 6.74913 14.8814 6.74913 14.4877V11.4516H7.67829V14.3759C7.67829 14.7011 7.76841 14.9601 7.94865 15.1528C8.12889 15.3454 8.363 15.4418 8.65097 15.4418C8.82499 15.4418 8.99798 15.3983 9.16993 15.3112C9.34396 15.2242 9.48794 15.0927 9.60189 14.9166C9.7179 14.7405 9.77488 14.5167 9.77281 14.2453Z" fill="white"/>
<path d="M13.9551 16.3181C13.5697 16.3181 13.2258 16.2197 12.9233 16.0229C12.6229 15.824 12.3868 15.5412 12.2148 15.1745C12.0449 14.8057 11.96 14.3634 11.96 13.8476C11.96 13.3317 12.046 12.8904 12.2179 12.5237C12.392 12.157 12.6302 11.8763 12.9327 11.6816C13.2351 11.4868 13.578 11.3895 13.9613 11.3895C14.2575 11.3895 14.4958 11.4392 14.676 11.5386C14.8583 11.636 14.9992 11.7499 15.0987 11.8805C15.2002 12.011 15.2789 12.126 15.3348 12.2254H15.3908V9.86053H16.3199V16.2249H15.4125V15.4822H15.3348C15.2789 15.5837 15.1981 15.6997 15.0924 15.8302C14.9889 15.9607 14.8459 16.0747 14.6636 16.172C14.4813 16.2694 14.2451 16.3181 13.9551 16.3181ZM14.1602 15.5257C14.4274 15.5257 14.6532 15.4552 14.8376 15.3143C15.0241 15.1714 15.165 14.9735 15.2603 14.7208C15.3576 14.468 15.4063 14.1739 15.4063 13.8382C15.4063 13.5068 15.3587 13.2167 15.2634 12.9681C15.1681 12.7195 15.0282 12.5258 14.8438 12.387C14.6595 12.2482 14.4316 12.1788 14.1602 12.1788C13.8805 12.1788 13.6474 12.2513 13.461 12.3963C13.2745 12.5413 13.1336 12.7392 13.0383 12.9899C12.9451 13.2406 12.8985 13.5233 12.8985 13.8382C12.8985 14.1573 12.9461 14.4442 13.0414 14.699C13.1367 14.9539 13.2776 15.1559 13.4641 15.305C13.6526 15.4521 13.8846 15.5257 14.1602 15.5257Z" fill="white"/>
<path d="M17.8608 16.2249V11.4516H18.7899V16.2249H17.8608ZM18.33 10.7151C18.1684 10.7151 18.0296 10.6613 17.9136 10.5535C17.7996 10.4437 17.7427 10.3132 17.7427 10.162C17.7427 10.0087 17.7996 9.87814 17.9136 9.77041C18.0296 9.66061 18.1684 9.60571 18.33 9.60571C18.4916 9.60571 18.6294 9.66061 18.7433 9.77041C18.8593 9.87814 18.9173 10.0087 18.9173 10.162C18.9173 10.3132 18.8593 10.4437 18.7433 10.5535C18.6294 10.6613 18.4916 10.7151 18.33 10.7151Z" fill="white"/>
<path d="M22.4827 11.4516V12.1974H19.8755V11.4516H22.4827ZM20.5747 10.308H21.5038V14.8233C21.5038 15.0036 21.5308 15.1393 21.5846 15.2304C21.6385 15.3195 21.7079 15.3806 21.7929 15.4138C21.8799 15.4449 21.9741 15.4604 22.0756 15.4604C22.1502 15.4604 22.2155 15.4552 22.2714 15.4449C22.3274 15.4345 22.3709 15.4262 22.4019 15.42L22.5697 16.1876C22.5159 16.2083 22.4392 16.229 22.3398 16.2497C22.2403 16.2725 22.116 16.2849 21.9669 16.287C21.7224 16.2912 21.4945 16.2477 21.2832 16.1565C21.0719 16.0653 20.901 15.9245 20.7705 15.7339C20.6399 15.5433 20.5747 15.304 20.5747 15.016V10.308Z" fill="white"/>
<path d="M25.7312 16.3212C25.2609 16.3212 24.8559 16.2207 24.5161 16.0198C24.1784 15.8167 23.9174 15.5319 23.733 15.1652C23.5507 14.7964 23.4595 14.3645 23.4595 13.8693C23.4595 13.3804 23.5507 12.9495 23.733 12.5766C23.9174 12.2037 24.1743 11.9126 24.5037 11.7033C24.8351 11.4941 25.2226 11.3895 25.6659 11.3895C25.9352 11.3895 26.1963 11.434 26.449 11.5231C26.7018 11.6122 26.9286 11.752 27.1296 11.9426C27.3305 12.1332 27.489 12.3808 27.605 12.6853C27.7211 12.9878 27.7791 13.3555 27.7791 13.7885V14.1179H23.9847V13.4218H26.8685C26.8685 13.1774 26.8188 12.9609 26.7194 12.7723C26.6199 12.5817 26.4801 12.4315 26.2999 12.3217C26.1217 12.2119 25.9124 12.157 25.6721 12.157C25.4111 12.157 25.1832 12.2213 24.9885 12.3497C24.7958 12.4761 24.6466 12.6418 24.541 12.8469C24.4374 13.05 24.3856 13.2706 24.3856 13.5088V14.0527C24.3856 14.3717 24.4415 14.6431 24.5534 14.8669C24.6673 15.0906 24.8258 15.2615 25.0289 15.3796C25.2319 15.4956 25.4691 15.5536 25.7405 15.5536C25.9166 15.5536 26.0771 15.5288 26.2222 15.479C26.3672 15.4273 26.4925 15.3506 26.5982 15.2491C26.7038 15.1476 26.7846 15.0222 26.8406 14.8731L27.72 15.0316C27.6496 15.2905 27.5232 15.5174 27.3409 15.7121C27.1607 15.9048 26.9338 16.055 26.6603 16.1627C26.3889 16.2684 26.0792 16.3212 25.7312 16.3212Z" fill="white"/>
<path d="M30.8115 16.3181C30.4262 16.3181 30.0823 16.2197 29.7798 16.0229C29.4794 15.824 29.2432 15.5412 29.0713 15.1745C28.9014 14.8057 28.8165 14.3634 28.8165 13.8476C28.8165 13.3317 28.9024 12.8904 29.0744 12.5237C29.2484 12.157 29.4867 11.8763 29.7891 11.6816C30.0916 11.4868 30.4345 11.3895 30.8177 11.3895C31.114 11.3895 31.3522 11.4392 31.5325 11.5386C31.7148 11.636 31.8557 11.7499 31.9551 11.8805C32.0566 12.011 32.1354 12.126 32.1913 12.2254H32.2472V9.86053H33.1764V16.2249H32.269V15.4822H32.1913C32.1354 15.5837 32.0546 15.6997 31.9489 15.8302C31.8453 15.9607 31.7024 16.0747 31.5201 16.172C31.3377 16.2694 31.1016 16.3181 30.8115 16.3181ZM31.0166 15.5257C31.2839 15.5257 31.5097 15.4552 31.6941 15.3143C31.8805 15.1714 32.0214 14.9735 32.1167 14.7208C32.2141 14.468 32.2628 14.1739 32.2628 13.8382C32.2628 13.5068 32.2151 13.2167 32.1198 12.9681C32.0245 12.7195 31.8847 12.5258 31.7003 12.387C31.5159 12.2482 31.288 12.1788 31.0166 12.1788C30.7369 12.1788 30.5039 12.2513 30.3174 12.3963C30.131 12.5413 29.9901 12.7392 29.8948 12.9899C29.8016 13.2406 29.7549 13.5233 29.7549 13.8382C29.7549 14.1573 29.8026 14.4442 29.8979 14.699C29.9932 14.9539 30.1341 15.1559 30.3205 15.305C30.509 15.4521 30.7411 15.5257 31.0166 15.5257Z" fill="white"/>
<path d="M37.3224 16.2249V9.86053H38.2515V12.2254H38.3075C38.3613 12.126 38.439 12.011 38.5405 11.8805C38.6421 11.7499 38.7829 11.636 38.9632 11.5386C39.1434 11.4392 39.3817 11.3895 39.6779 11.3895C40.0633 11.3895 40.4072 11.4868 40.7096 11.6816C41.0121 11.8763 41.2493 12.157 41.4213 12.5237C41.5953 12.8904 41.6823 13.3317 41.6823 13.8476C41.6823 14.3634 41.5963 14.8057 41.4244 15.1745C41.2524 15.5412 41.0163 15.824 40.7159 16.0229C40.4155 16.2197 40.0726 16.3181 39.6872 16.3181C39.3972 16.3181 39.16 16.2694 38.9756 16.172C38.7933 16.0747 38.6503 15.9607 38.5468 15.8302C38.4432 15.6997 38.3634 15.5837 38.3075 15.4822H38.2298V16.2249H37.3224ZM38.2329 13.8382C38.2329 14.1739 38.2816 14.468 38.379 14.7208C38.4763 14.9735 38.6172 15.1714 38.8016 15.3143C38.986 15.4552 39.2118 15.5257 39.479 15.5257C39.7566 15.5257 39.9887 15.4521 40.1751 15.305C40.3616 15.1559 40.5025 14.9539 40.5978 14.699C40.6951 14.4442 40.7438 14.1573 40.7438 13.8382C40.7438 13.5233 40.6962 13.2406 40.6009 12.9899C40.5076 12.7392 40.3668 12.5413 40.1782 12.3963C39.9918 12.2513 39.7587 12.1788 39.479 12.1788C39.2097 12.1788 38.9818 12.2482 38.7954 12.387C38.611 12.5258 38.4711 12.7195 38.3758 12.9681C38.2805 13.2167 38.2329 13.5068 38.2329 13.8382Z" fill="white"/>
<path d="M43.3653 18.0148C43.2265 18.0148 43.1001 18.0034 42.9862 17.9807C42.8722 17.9599 42.7873 17.9371 42.7313 17.9123L42.9551 17.1509C43.125 17.1965 43.2762 17.2162 43.4088 17.21C43.5414 17.2038 43.6584 17.154 43.76 17.0608C43.8635 16.9676 43.9547 16.8153 44.0334 16.604L44.1484 16.287L42.4019 11.4516H43.3964L44.6052 15.1559H44.6549L45.8638 11.4516H46.8613L44.8942 16.8619C44.8031 17.1105 44.6871 17.3208 44.5462 17.4928C44.4053 17.6668 44.2375 17.7973 44.0427 17.8843C43.848 17.9713 43.6222 18.0148 43.3653 18.0148Z" fill="white"/>
<path d="M48.5614 16.2839C48.3915 16.2839 48.2455 16.2238 48.1232 16.1037C48.001 15.9814 47.9399 15.8343 47.9399 15.6624C47.9399 15.4925 48.001 15.3475 48.1232 15.2273C48.2455 15.1051 48.3915 15.044 48.5614 15.044C48.7313 15.044 48.8773 15.1051 48.9996 15.2273C49.1218 15.3475 49.1829 15.4925 49.1829 15.6624C49.1829 15.7763 49.1539 15.881 49.0959 15.9763C49.04 16.0695 48.9654 16.1441 48.8722 16.2C48.7789 16.2559 48.6754 16.2839 48.5614 16.2839ZM48.5614 12.8096C48.3915 12.8096 48.2455 12.7485 48.1232 12.6263C48.001 12.5041 47.9399 12.358 47.9399 12.1881C47.9399 12.0182 48.001 11.8732 48.1232 11.7531C48.2455 11.6308 48.3915 11.5697 48.5614 11.5697C48.7313 11.5697 48.8773 11.6308 48.9996 11.7531C49.1218 11.8732 49.1829 12.0182 49.1829 12.1881C49.1829 12.3021 49.1539 12.4067 49.0959 12.502C49.04 12.5952 48.9654 12.6698 48.8722 12.7257C48.7789 12.7817 48.6754 12.8096 48.5614 12.8096Z" fill="white"/>
<path d="M82.391 28.9447V33.0387L78.2544 28.9447H75.3545V38.085H78.2544V33.9484L82.4194 38.085H85.2909V28.9447H82.391Z" fill="white"/>
<path d="M32.6522 38.085H40.3283V35.5405H32.6522V31.5319H40.3426V28.9447H32.6522H30.0934H29.7949V38.085H30.0934H32.6522Z" fill="white"/>
<path d="M63.3568 38.085H70.4359V35.5405H63.3568V34.7871H70.4359V32.2284H63.3568V31.5034H70.4359V28.9447H63.3568H60.727H60.4854V38.085H60.7839H63.3568Z" fill="white"/>
<path d="M17.7264 36.0381H21.9909V38.085H24.8482V28.9447H24.4217H21.9909H17.7264H15.4662H14.8691V33.4935V36.0381V38.085H17.7264V36.0381ZM17.7264 31.4892H21.9909V33.4935H17.7264V31.4892Z" fill="white"/>
<path d="M2.87146 34.8439H7.0507V38.085H9.92216V28.9446H7.0507V32.1288H2.87146V28.9446H0V38.085H2.87146V34.8439Z" fill="white"/>
<path d="M48.1605 34.8156H52.5956L55.4387 32.1005H55.4671V28.9447H52.5956V32.1005H48.1605V28.9447H45.2891V38.085H48.1605V34.8156Z" fill="white"/>
<path d="M55.4672 34.8156H52.5957V38.085H55.4672V34.8156Z" fill="white"/>
<g clip-path="url(#clip0_4442_38366)">
<path d="M175.3 26.2011H173.354V36.8905L174.991 38.4786L178.429 38.5604V36.4323H175.3V30.6281H177.693V28.7912H175.3V26.2011Z" fill="white"/>
<path d="M166.151 30.5697L167.898 28.7385H171.226V30.5697H167.898V38.5604H166.151V30.5697Z" fill="white"/>
<path d="M140.614 38.5604H138.323V30.5392L140.205 28.7385H144.298L145.362 29.7207L146.344 28.7385H149.945L151.5 30.5392V38.5604H149.372V30.5392H146.016V38.5604H143.888V30.5392H140.614V38.5604Z" fill="white"/>
<path d="M128.337 30.7847H133.739L134.443 31.3577L135.622 30.1299L134.148 28.8203H128.081L126.291 30.5392V32.7491L128.081 34.6316H134.148V36.6779H128.828L127.846 35.8594L126.618 37.169L128.081 38.3967H134.443L136.194 36.7597V34.6316L134.443 32.7491H128.337V30.7847Z" fill="white"/>
<path fill-rule="evenodd" clip-rule="evenodd" d="M154.038 30.1299L155.348 31.5214L156.002 30.8666H160.995V32.6673H155.348L153.547 34.3043V36.596L155.511 38.5604H160.013L161.568 37.4964L162.387 38.3967H164.105V36.6779H163.123V30.621L161.486 28.7385H155.348L154.038 30.1299ZM155.757 34.6317H160.995V36.0231L160.013 36.596H155.757V34.6317Z" fill="white"/>
<path d="M198.094 26.2011H196.149V36.8905L197.786 38.4786L201.224 38.5604V36.4323H198.094V30.6282H200.487V28.7912H198.094V26.2011Z" fill="white"/>
<path d="M217.411 26.2011H215.466V36.8905L217.103 38.4786L220.541 38.5604V36.4323H217.411V30.6282H219.804V28.7912H217.411V26.2011Z" fill="white"/>
<path d="M186.409 30.9484H191.811L192.515 31.5213L193.694 30.2936L192.22 28.984H186.153L184.363 30.7029V32.9128L186.153 34.7953H192.22V36.8416H186.9L185.918 36.0231L184.69 37.3327L186.153 38.5604H192.515L194.266 36.9234V34.7953L192.515 32.9128H186.409V30.9484Z" fill="white"/>
<path fill-rule="evenodd" clip-rule="evenodd" d="M232 37.3327L230.608 35.9412L229.79 36.7597H224.47V34.7135H230.035L231.836 33.0765V30.7847L229.872 28.8203H224.47L222.342 30.9484V36.7597L224.142 38.6423H230.608L232 37.3327ZM229.79 30.9484H224.551V33.0765H229.79V30.9484Z" fill="white"/>
<path fill-rule="evenodd" clip-rule="evenodd" d="M203.516 30.2118L204.825 31.6032L205.48 30.9484H210.473V32.7491H204.825L203.025 34.3861V36.6779L204.989 38.6423H209.491L211.046 37.5782L211.864 38.4786H213.583V36.7597H212.601V30.7029L210.964 28.8203H204.825L203.516 30.2118ZM205.235 34.7135H210.473V36.1049L209.491 36.6779H205.235V34.7135Z" fill="white"/>
<path d="M121.312 35.7392L121.314 32.8269L119.093 31.5875L116.47 33.0368L114.27 36.978L114.374 40.0431L116.595 41.2826L119.252 39.4295L121.312 35.7392Z" fill="white"/>
<path d="M106.533 35.7392L106.531 32.8269L108.752 31.5875L111.375 33.0368L113.575 36.978L113.471 40.0431L111.25 41.2826L108.592 39.4295L106.533 35.7392Z" fill="white"/>
<path d="M111.644 32.3051L109.1 30.8876V28.3443L111.644 26.7599H116.158L118.784 28.3443V30.8876L115.871 32.3051H111.644Z" fill="white"/>
</g>
</g>
<defs>
<clipPath id="clip0_4442_38366">
<rect width="127" height="15" fill="white" transform="translate(105.291 26.0148)"/>
</clipPath>
</defs>
</svg>
