<svg width="60" height="60" viewBox="0 0 60 60" fill="none" xmlns="http://www.w3.org/2000/svg">
<rect width="60" height="60" rx="10" fill="#4ADDA5"/>
<g opacity="0.57">
<path opacity="0.57" d="M54.1602 40.5283C54.1602 40.5148 54.1602 40.5023 54.1668 40.5002C54.1734 40.4981 54.1776 40.5075 54.1794 40.521C54.1812 40.5346 54.1794 40.5471 54.1728 40.5492C54.1662 40.5513 54.162 40.5419 54.1602 40.5283Z" fill="white"/>
</g>
<path d="M13.5093 45.541H15.3939V14.3926H13.5093V45.541Z" fill="black"/>
<path d="M44.6504 45.541H46.5351V14.3926H44.6504V45.541Z" fill="black"/>
<path d="M42.7658 45.541H40.8296V30.957H14.4517V29.0208H42.7658V45.541Z" fill="black"/>
<path d="M38.9891 45.541H37.1045V34.7779H14.9229V32.7975H38.9891V45.541Z" fill="black"/>
<path d="M35.2124 45.5411H33.2836V38.9374H14.9229V37.0527H35.2124V45.5411Z" fill="black"/>
<path d="M25.3032 45.541H27.1879V37.9877H25.3032V45.541Z" fill="black"/>
<path d="M21.0552 45.5411H22.9398V38.4589H21.0552V45.5411Z" fill="black"/>
<path d="M17.2859 45.541H19.1706V37.9877H17.2859V45.541Z" fill="black"/>
<path d="M17.2859 14.3926V30.9128H45.6V28.9766H19.2221V14.3926H17.2859Z" fill="black"/>
<path d="M21.5264 14.3926V27.1361H45.5926V25.1558H23.4184V14.3926H21.5264Z" fill="black"/>
<path d="M45.1287 22.8883H24.8391V14.3926H26.7753V20.9963H45.136V22.8883H45.1287Z" fill="black"/>
<path d="M32.8564 21.946H34.7411V14.3926H32.8564V21.946Z" fill="black"/>
<path d="M37.1045 21.4748H38.9892V14.3926H37.1045V21.4748Z" fill="black"/>
<path d="M40.8809 21.946H42.7655V14.3926H40.8809V21.946Z" fill="black"/>
</svg>
