<svg width="59" height="59" viewBox="0 0 59 59" fill="none" xmlns="http://www.w3.org/2000/svg">
<ellipse cx="29.2623" cy="29.5" rx="29.2623" ry="29.5" fill="#E22440" fill-opacity="0.8"/>
<path d="M35.606 27.4634L26.4743 22.3779C26.1761 22.2097 25.8381 22.1225 25.4946 22.1251C25.1511 22.1276 24.8145 22.22 24.5189 22.3927C24.2309 22.5553 23.9917 22.7902 23.8255 23.0736C23.6592 23.357 23.572 23.6787 23.5725 24.0062V34.1771C23.572 34.5046 23.6592 34.8264 23.8255 35.1097C23.9917 35.3931 24.2309 35.628 24.5189 35.7906C24.8145 35.9632 25.1511 36.0555 25.4946 36.0581C25.838 36.0607 26.1761 35.9735 26.4743 35.8054L35.606 30.7199C35.9005 30.5589 36.146 30.3229 36.3169 30.0366C36.4878 29.7503 36.578 29.424 36.578 29.0917C36.578 28.7593 36.4878 28.433 36.3169 28.1467C36.146 27.8604 35.9005 27.6245 35.606 27.4634Z" fill="white"/>
</svg>
