<svg width="60" height="60" viewBox="0 0 60 60" fill="none" xmlns="http://www.w3.org/2000/svg">
<rect width="60" height="60" rx="10" fill="#181623"/>
<g opacity="0.57">
<path opacity="0.57" d="M54.1602 40.5283C54.1602 40.5148 54.1602 40.5023 54.1668 40.5002C54.1734 40.4981 54.1776 40.5075 54.1794 40.521C54.1812 40.5346 54.1794 40.5471 54.1728 40.5492C54.1662 40.5513 54.162 40.5419 54.1602 40.5283Z" fill="white"/>
</g>
<path d="M14.2148 27.5369L18.8378 24.8689L25.3911 28.6803L30.0017 36.7459V44.332L25.3788 47L18.8378 43.1885L14.2148 35.1229V27.5369Z" fill="#A183FC"/>
<path d="M31.6985 36.7459L36.3214 28.6803L42.8624 24.8689L47.4853 27.5369V35.1229L42.8624 43.1885L36.3214 47L31.6985 44.332V36.7459Z" fill="#A183FC"/>
<path d="M42.014 23.1844L35.473 26.9836H26.2271L19.6862 23.1844V17.7992L26.2271 14H35.473L42.014 17.7992V23.1844Z" fill="#A183FC"/>
</svg>
