<svg width="106" height="106" viewBox="0 0 106 106" fill="none" xmlns="http://www.w3.org/2000/svg">
<rect width="106" height="106" fill="white"/>
<path d="M40.0624 38.1674C42.8525 36.5567 55.5548 47.5723 58.3449 49.183L94.8962 55.084C95.48 56.8341 95.48 73.7507 94.3134 74.334L58.3449 95.043C55.5548 96.6537 51.0312 96.6537 48.2411 95.043C48.2411 95.043 22.4868 80.583 14.3956 75.5007C12.6462 74.334 12.2993 73.9871 12.0629 73.7507C10.3129 72.0007 10.8956 58.0007 11.4789 55.0841C12.0623 52.1674 40.0624 38.1674 40.0624 38.1674Z" fill="#E22440"/>
<path d="M47.8446 49.2505C50.6347 47.6397 55.1583 47.6397 57.9484 49.2505L92.6158 69.2639C95.4059 70.8747 95.4059 73.4862 92.6158 75.0969L57.9484 95.1104C55.1583 96.7211 50.6347 96.7211 47.8446 95.1104L13.1772 75.0969C10.3871 73.4862 10.3871 70.8747 13.1772 69.2639L47.8446 49.2505Z" fill="url(#paint0_linear_2154_4024)" fill-opacity="0.2"/>
<path d="M48.1728 31.9486C50.9862 30.2511 55.6837 30.2511 58.4971 31.9486L93.2748 52.932C95.9602 54.5523 95.9112 57.1143 93.1645 58.6999L58.3869 78.777C55.5968 80.3878 51.0731 80.3878 48.283 78.777L13.5054 58.6999C10.7587 57.1142 10.7098 54.5523 13.3951 52.932L48.1728 31.9486Z" fill="url(#paint1_linear_2154_4024)"/>
<path d="M48.7882 33.2081C51.2993 31.7585 55.3706 31.7585 57.8817 33.2081L92.5491 53.2216C95.0602 54.6713 95.0602 57.0216 92.5491 58.4713L57.8817 78.4847C55.3706 79.9344 51.2993 79.9344 48.7882 78.4847L14.1208 58.4713C11.6097 57.0216 11.6098 54.6713 14.1208 53.2216L48.7882 33.2081Z" stroke="url(#paint2_linear_2154_4024)" stroke-width="1.16667"/>
<path d="M48.7882 49.5421C51.2993 48.0925 55.3706 48.0925 57.8817 49.5421L92.5491 69.5556C95.0602 71.0052 95.0602 73.3556 92.5491 74.8052L57.8817 94.8187C55.3706 96.2684 51.2993 96.2684 48.7882 94.8187L14.1208 74.8052C11.6097 73.3556 11.6098 71.0052 14.1208 69.5556L48.7882 49.5421Z" stroke="url(#paint3_linear_2154_4024)" stroke-width="1.16667"/>
<path d="M49.1283 17.4962C51.9184 15.8854 56.442 15.8854 59.2321 17.4962L94.9615 32.9172C97.7516 34.5279 96.6896 41.7319 93.8995 43.3426L59.2321 63.3561C56.442 64.9668 51.9184 64.9668 49.1283 63.3561L14.4609 43.3426C11.6708 41.7319 12.128 35.8339 12.9084 34.413L49.1283 17.4962Z" fill="#E22440"/>
<path d="M49.5777 17.8168L49.6069 17.8032L49.6335 17.7878C52.1446 16.3382 56.2159 16.3382 58.727 17.7878L58.7632 17.8088L58.8043 17.8265L94.4891 33.2283C95.001 33.5397 95.419 34.1695 95.659 35.0624C95.898 35.9514 95.9405 37.0213 95.8104 38.1013C95.6803 39.1806 95.3798 40.2542 94.9468 41.1497C94.5048 42.0636 93.9547 42.7274 93.3943 43.0509L58.727 63.0644C56.2159 64.5141 52.1446 64.5141 49.6335 63.0644L14.9661 43.0509C14.41 42.7299 13.9539 42.1501 13.6258 41.3703C13.3032 40.6036 13.1268 39.6997 13.0595 38.789C12.9924 37.8801 13.0347 36.9763 13.1415 36.2144C13.2375 35.5294 13.3825 34.9822 13.5325 34.652L49.5777 17.8168Z" fill="#E22440" stroke="url(#paint4_linear_2154_4024)" stroke-width="1.16667"/>
<path d="M49.45 11.9165C52.2401 10.3057 56.7638 10.3058 59.5539 11.9165L94.2213 31.93C97.0114 33.5407 97.0114 36.1522 94.2213 37.7629L59.5539 57.7764C56.7638 59.3871 52.2401 59.3871 49.45 57.7764L14.7826 37.7629C11.9925 36.1522 11.9925 33.5407 14.7826 31.93L49.45 11.9165Z" fill="#282829"/>
<path d="M49.9552 12.2081C52.4663 10.7585 56.5376 10.7585 59.0487 12.2081L93.7161 32.2216C96.2272 33.6713 96.2272 36.0216 93.7161 37.4713L59.0487 57.4847C56.5376 58.9344 52.4663 58.9344 49.9552 57.4847L15.2878 37.4713C12.7767 36.0216 12.7767 33.6713 15.2878 32.2216L49.9552 12.2081Z" fill="#282829" stroke="url(#paint5_linear_2154_4024)" stroke-width="1.16667"/>
<path d="M56.3068 15.66C55.5177 15.2045 54.2374 15.2063 53.4521 15.664L43.8679 21.2511C43.088 21.7057 43.0911 22.4387 43.8748 22.8912C44.6639 23.3467 45.9443 23.3449 46.7296 22.8871L56.3138 17.3001C57.0936 16.8454 57.0905 16.1125 56.3068 15.66Z" fill="url(#paint6_linear_2154_4024)"/>
<rect width="32.8837" height="3.28837" rx="1.64418" transform="matrix(-0.866044 0.499967 0.866044 0.499967 73.0977 31.543)" fill="url(#paint7_linear_2154_4024)"/>
<rect width="32.8837" height="3.28837" rx="1.64418" transform="matrix(-0.866044 0.499967 0.866044 0.499967 86.1982 32.5293)" fill="url(#paint8_linear_2154_4024)"/>
<rect width="18.4149" height="3.28837" rx="1.64418" transform="matrix(-0.866044 0.499967 0.866044 0.499967 59.4287 22.3359)" fill="#E22440"/>
<rect width="13.1535" height="3.28837" rx="1.64418" transform="matrix(-0.866044 0.499967 0.866044 0.499967 41.2021 32.8594)" fill="url(#paint9_linear_2154_4024)"/>
<rect width="7.89209" height="3.28837" rx="1.64418" transform="matrix(-0.866044 0.499967 0.866044 0.499967 61.1377 29.9004)" fill="#E22440"/>
<rect width="7.89209" height="3.28837" rx="1.64418" transform="matrix(-0.866044 0.499967 0.866044 0.499967 52.0234 35.1602)" fill="white"/>
<rect width="7.89209" height="3.28837" rx="1.64418" transform="matrix(-0.866044 0.499967 0.866044 0.499967 42.9102 40.4219)" fill="#E22440"/>
<path d="M35.6055 31.5517C35.3851 31.8845 34.6439 31.9757 34.2075 31.7238C33.9585 31.58 33.8884 31.3626 34.0312 31.1768L36.369 28.1329C36.4449 28.044 36.2819 27.9492 36.1294 27.9945L30.8288 29.3306C30.5068 29.4117 30.1316 29.3708 29.8832 29.2274C29.4459 28.9749 29.6039 28.5462 30.1814 28.4184L36.6878 26.9784C37.0895 26.8895 37.5442 26.9454 37.8484 27.121C38.1524 27.2965 38.2492 27.5587 38.0958 27.7904L35.6055 31.5517Z" fill="url(#paint10_linear_2154_4024)"/>
<path d="M31.5558 33.2765C31.9832 33.5232 31.8342 33.9419 31.2728 34.0713L24.4732 35.639C24.0751 35.7308 23.6205 35.6768 23.3174 35.5018C23.014 35.3267 22.9207 35.064 23.0802 34.834L25.804 30.9076C26.0272 30.5858 26.7474 30.5006 27.1719 30.7456C27.4192 30.8884 27.4865 31.1049 27.3407 31.2884L24.7963 34.4897C24.7135 34.5818 24.8859 34.6826 25.0428 34.632L30.6138 33.1773C30.9329 33.094 31.3081 33.1335 31.5558 33.2765Z" fill="url(#paint11_linear_2154_4024)"/>
<defs>
<linearGradient id="paint0_linear_2154_4024" x1="46.0412" y1="93.584" x2="-18.4253" y2="67.8102" gradientUnits="userSpaceOnUse">
<stop stop-color="#282829"/>
<stop offset="1" stop-color="#282829" stop-opacity="0"/>
</linearGradient>
<linearGradient id="paint1_linear_2154_4024" x1="46.4797" y1="77.2506" x2="-17.9868" y2="51.4768" gradientUnits="userSpaceOnUse">
<stop stop-color="#282829"/>
<stop offset="1" stop-color="#282829" stop-opacity="0"/>
</linearGradient>
<linearGradient id="paint2_linear_2154_4024" x1="52.8963" y1="76.6667" x2="44.2522" y2="49.5749" gradientUnits="userSpaceOnUse">
<stop stop-color="#1E1B1B"/>
<stop offset="1" stop-color="#1E1B1B" stop-opacity="0"/>
</linearGradient>
<linearGradient id="paint3_linear_2154_4024" x1="51.7297" y1="98.834" x2="53.3191" y2="76.3328" gradientUnits="userSpaceOnUse">
<stop stop-color="#FF7488"/>
<stop offset="1" stop-color="#FF7488" stop-opacity="0"/>
</linearGradient>
<linearGradient id="paint4_linear_2154_4024" x1="52.3132" y1="66.1672" x2="50.952" y2="28.4533" gradientUnits="userSpaceOnUse">
<stop stop-color="#FF4A65"/>
<stop offset="1" stop-color="#FF4A65" stop-opacity="0"/>
</linearGradient>
<linearGradient id="paint5_linear_2154_4024" x1="62.8127" y1="91.8333" x2="22.0988" y2="39.5103" gradientUnits="userSpaceOnUse">
<stop stop-color="#2D2D2D"/>
<stop offset="1" stop-opacity="0"/>
</linearGradient>
<linearGradient id="paint6_linear_2154_4024" x1="44.6237" y1="20.7527" x2="30.6235" y2="31.7759" gradientUnits="userSpaceOnUse">
<stop stop-color="white"/>
<stop offset="1" stop-color="white" stop-opacity="0"/>
</linearGradient>
<linearGradient id="paint7_linear_2154_4024" x1="16.4418" y1="-1.27009e-06" x2="36.1114" y2="-10.2446" gradientUnits="userSpaceOnUse">
<stop stop-color="white"/>
<stop offset="1" stop-color="white" stop-opacity="0"/>
</linearGradient>
<linearGradient id="paint8_linear_2154_4024" x1="16.4418" y1="-3.67504e-06" x2="42.7488" y2="-5.2614" gradientUnits="userSpaceOnUse">
<stop stop-color="#E22440"/>
<stop offset="1" stop-color="#E22440" stop-opacity="0"/>
</linearGradient>
<linearGradient id="paint9_linear_2154_4024" x1="6.57674" y1="-1.27009e-06" x2="16.1628" y2="-1.9971" gradientUnits="userSpaceOnUse">
<stop stop-color="white"/>
<stop offset="1" stop-color="white" stop-opacity="0"/>
</linearGradient>
<linearGradient id="paint10_linear_2154_4024" x1="27.4909" y1="29.5264" x2="20.55" y2="38.9309" gradientUnits="userSpaceOnUse">
<stop stop-color="white"/>
<stop offset="1" stop-color="white" stop-opacity="0"/>
</linearGradient>
<linearGradient id="paint11_linear_2154_4024" x1="27.4909" y1="29.5264" x2="20.55" y2="38.9309" gradientUnits="userSpaceOnUse">
<stop stop-color="white"/>
<stop offset="1" stop-color="white" stop-opacity="0"/>
</linearGradient>
</defs>
</svg>
