<svg width="152" height="44" viewBox="0 0 152 44" fill="none" xmlns="http://www.w3.org/2000/svg">
<path d="M11.7353 0.992188H30.2628C36.7642 0.992188 41.998 6.22611 41.998 12.7274V31.2724C41.998 37.7737 36.7642 43.0077 30.2628 43.0077H11.7353C5.23392 43.0077 0 37.7737 0 31.2724V12.7274C0 6.22611 5.23392 0.992188 11.7353 0.992188Z" fill="url(#paint0_linear_2645_9309)"/>
<path d="M31.1332 29.9633C30.4531 29.9023 30.3429 30.2072 29.3411 30.1899C28.0494 30.1688 26.3344 30.0033 25.1453 29.3908C23.9562 28.7785 22.8057 27.5254 20.7334 25.1382C20.3133 23.4687 19.1097 22.7372 18.1838 21.6792C15.8458 17.9701 13.38 16.7875 11.7253 16.6387C10.5266 15.5914 9.77478 15.7601 10.9851 14.3109C11.7676 14.381 10.9091 13.7671 11.8575 13.802C12.9029 13.8403 14.9693 13.6958 16.5078 14.5173C18.0462 15.3388 19.1958 16.3837 21.2681 18.7709C21.843 20.2316 22.664 21.2005 23.8162 22.2297C26.1542 25.9388 28.6215 27.1215 30.2763 27.2704C31.6963 28.1651 32.2999 27.9256 31.0898 29.4713L31.1332 29.9633Z" fill="white" fill-opacity="0.496124"/>
<path d="M11.422 13.7821C10.3325 13.7821 9.08844 13.7899 8.01455 14.1109C7.08781 14.3865 5.70906 14.9164 4.7913 16.2775C3.76378 17.8014 3.784 19.9422 3.88234 22.7651V24.9713C3.88234 26.5938 4.46253 28.0266 5.62262 28.9086C5.62418 28.9093 5.62734 28.9079 5.62891 28.9086C6.78456 29.7913 8.3737 30.1358 10.3503 30.1358C12.2987 30.1358 14.0034 29.9652 15.326 29.4278C16.9451 28.7699 18.7033 27.3874 20.9808 25.1951C22.121 23.9612 22.8634 23.1011 23.8295 21.9779C26.4898 18.4928 29.0515 17.5354 30.7129 17.5352C32.3744 17.5349 32.9591 17.6445 33.2891 17.7543C33.6102 17.8613 33.7351 17.9759 33.825 18.1198L33.8303 18.125L33.8355 18.1303C33.9228 18.2664 34.0166 18.5412 34.0166 19.0118V19.8401H32.1682C30.5679 19.8401 29.2512 19.9815 28.1791 20.3075C27.101 20.6351 26.201 21.205 25.6227 22.0417C25.0491 22.8716 24.8066 23.9076 24.8066 25.0701C24.8066 26.6008 25.3308 27.9702 26.3825 28.8947L26.3877 28.8999C27.4438 29.8169 28.8886 30.2182 30.5747 30.2185H30.5763C31.6658 30.2185 32.9099 30.2106 33.9838 29.8896C34.9105 29.614 36.2892 29.0841 37.207 27.723C38.2345 26.199 38.2143 24.0583 38.116 21.2354V19.0293C38.116 17.4068 37.5358 15.974 36.3757 15.092C36.3741 15.0913 36.3704 15.0927 36.3678 15.092C35.2121 14.2093 33.623 13.8648 31.6464 13.8648C29.698 13.8648 27.9934 14.0353 26.6707 14.5728C25.0516 15.2307 23.2933 16.6131 21.0159 18.8054C19.9431 19.9987 19.1475 20.8977 18.1687 22.0226C15.5084 25.5078 12.9452 26.4651 11.2838 26.4654C9.62222 26.4657 9.03752 26.3561 8.70752 26.2462C8.38636 26.1393 8.26147 26.0247 8.17158 25.8808L8.16685 25.8756L8.16212 25.8703C8.07482 25.7342 7.98094 25.4592 7.98094 24.9886V24.1603H9.82932C11.4296 24.1603 12.7462 24.0189 13.8184 23.6929C14.8965 23.3653 15.7964 22.7954 16.3748 21.9587C16.9484 21.1288 17.1909 20.0928 17.1909 18.9304C17.1909 17.3996 16.6667 16.0302 15.615 15.1057L15.6087 15.1004C14.5526 14.1836 13.1078 13.7822 11.4217 13.782L11.422 13.7821ZM10.9196 17.4529C11.7693 17.4529 12.2882 17.6379 12.5974 17.8853C12.9033 18.1381 13.0344 18.3997 13.0344 18.974C13.0344 19.4705 12.9335 19.7448 12.8136 19.9073C12.6955 20.0673 12.4717 20.2384 12.0128 20.3686H12.008C11.5361 20.5076 10.8004 20.6001 9.84608 20.6001H7.97334V19.245C7.97334 18.6059 8.12768 18.3084 8.57932 17.9875C9.01765 17.6777 9.77878 17.453 10.9195 17.453L10.9196 17.4529ZM32.153 23.4H34.0258V24.7551C34.0258 25.3942 33.8715 25.6918 33.4198 26.0127C32.9815 26.3224 32.2203 26.5471 31.0796 26.5471C30.2299 26.5471 29.711 26.3621 29.4018 26.1147C29.0959 25.8619 28.9648 25.6004 28.9648 25.0261C28.9648 24.5296 29.0658 24.2552 29.1856 24.0927C29.3039 23.9327 29.5275 23.7616 29.9864 23.6314H29.9917C30.4637 23.4924 31.1994 23.3999 32.1537 23.3999L32.153 23.4Z" fill="white"/>
<path d="M46.2593 26.9561H49.685V30.1839H46.2593V26.9561Z" fill="black"/>
<path d="M65.9004 29.8795H63.5557V16.3441H57.8005V29.8795H55.471V16.3441H52.7V14.4866H55.471V12.5986C55.471 11.7156 55.5268 11.0051 55.6383 10.4671C55.7499 9.919 55.9021 9.49772 56.0951 9.20337C56.2981 8.90901 56.5519 8.66541 56.8564 8.47254C57.1913 8.25939 57.5973 8.10207 58.0744 8.00058C58.5616 7.88902 59.2061 7.83325 60.008 7.83325C60.414 7.83325 60.7388 7.84848 60.9824 7.87893C61.2362 7.90937 61.5255 7.94998 61.8503 8.00085V9.88878C61.759 9.87896 61.561 9.85866 61.2565 9.82782C60.9622 9.78716 60.546 9.76686 60.008 9.76686C59.2163 9.76686 58.6783 9.87344 58.3941 10.0866C58.181 10.249 58.0287 10.447 57.9374 10.6804C57.8562 10.9037 57.8157 11.2335 57.8157 11.67V14.4867H65.9004L65.9004 29.8795ZM64.7128 11.8374C64.1952 11.8374 63.8297 11.7409 63.6166 11.5481C63.4136 11.3552 63.3121 11.0152 63.3121 10.528C63.3121 10.0103 63.4136 9.62967 63.6166 9.38607C63.8196 9.14247 64.185 9.02066 64.7128 9.02066C65.2914 9.02066 65.6822 9.14751 65.8852 9.40127C66.0578 9.62458 66.1442 10.0002 66.1442 10.528C66.1442 10.8629 66.1036 11.1268 66.0225 11.3197C65.9414 11.5024 65.7993 11.6343 65.5962 11.7156C65.3932 11.7967 65.0988 11.8372 64.7131 11.8372L64.7128 11.8374Z" fill="black"/>
<path d="M71.0313 14.4866H72.9497L73.1323 16.6639C73.6399 15.7301 74.3098 15.0703 75.1421 14.6846C75.9744 14.2888 77.1113 14.0908 78.5526 14.0908C79.8722 14.0908 80.9278 14.304 81.7195 14.7303C82.5214 15.1566 83.105 15.8367 83.4704 16.7705C83.8358 17.7044 84.0185 18.9427 84.0185 20.4855V29.8796H81.6738V20.4855C81.6738 19.4096 81.547 18.5518 81.2932 17.9124C81.0394 17.2627 80.6334 16.7907 80.0752 16.4964C79.527 16.202 78.7911 16.0549 77.8675 16.0549C76.7814 16.0549 75.9084 16.2072 75.2487 16.5117C74.5991 16.8162 74.122 17.2983 73.8175 17.958C73.5231 18.6178 73.3759 19.5009 73.3759 20.6073V29.8796H71.0312L71.0313 14.4866Z" fill="black"/>
<path d="M101.071 30.2451C100.33 30.2451 99.731 30.0472 99.2743 29.6514C98.8277 29.2555 98.6043 28.7328 98.6043 28.0832C98.0968 28.7734 97.3812 29.3063 96.4576 29.6818C95.544 30.0472 94.4884 30.23 93.2907 30.23C91.5753 30.23 90.2558 29.8289 89.3321 29.0271C88.4084 28.2151 87.9465 27.0681 87.9465 25.5861C87.9465 24.4392 88.1851 23.5206 88.6622 22.8304C89.1392 22.1402 89.8954 21.6377 90.9307 21.323C91.9661 21.0084 93.3465 20.8511 95.0721 20.8511H98.2694V18.7956C98.2694 18.1257 98.1425 17.5928 97.8888 17.197C97.635 16.791 97.2341 16.4965 96.686 16.3138C96.1379 16.1311 95.407 16.0399 94.4935 16.0399C93.5495 16.0399 92.7933 16.1262 92.2249 16.2988C91.6565 16.4715 91.2403 16.7507 90.9764 17.1363C90.7125 17.5118 90.5806 18.0143 90.5806 18.6436H88.4642C88.4642 17.1109 88.9565 15.9792 89.9411 15.2483C90.9257 14.5175 92.4432 14.1521 94.4935 14.1521C96.5743 14.1521 98.1121 14.5327 99.1068 15.294C100.112 16.0553 100.614 17.2276 100.614 18.811V26.6674C100.614 27.2865 100.69 27.7078 100.842 27.9311C101.005 28.1544 101.309 28.266 101.756 28.266C101.918 28.266 102.045 28.2611 102.137 28.2513V30.1088C101.954 30.1697 101.792 30.2053 101.649 30.2155C101.517 30.2357 101.325 30.2459 101.071 30.2459L101.071 30.2451ZM93.854 28.3724C95.2751 28.3724 96.3662 28.1035 97.1275 27.5655C97.8989 27.0174 98.2846 26.2409 98.2846 25.236V22.5868H95.0568C93.92 22.5868 93.0065 22.6882 92.3163 22.8912C91.6362 23.0841 91.1388 23.3938 90.8242 23.82C90.5095 24.2464 90.3521 24.8198 90.3521 25.5405C90.3521 26.4438 90.6567 27.1442 91.2657 27.6416C91.8747 28.1288 92.7375 28.3724 93.854 28.3724Z" fill="black"/>
<path d="M105.806 14.4866H107.724L107.907 16.6639C108.415 15.7301 109.084 15.0703 109.917 14.6846C110.749 14.2888 111.886 14.0908 113.327 14.0908C114.647 14.0908 115.702 14.304 116.494 14.7303C117.296 15.1566 117.88 15.8367 118.245 16.7705C118.611 17.7044 118.793 18.9427 118.793 20.4855V29.8796H116.449V20.4855C116.449 19.4096 116.322 18.5518 116.068 17.9124C115.814 17.2627 115.408 16.7907 114.85 16.4964C114.302 16.202 113.566 16.0549 112.642 16.0549C111.556 16.0549 110.683 16.2072 110.023 16.5117C109.374 16.8162 108.897 17.2983 108.592 17.958C108.298 18.6178 108.151 19.5009 108.151 20.6073V29.8796H105.806L105.806 14.4866Z" fill="black"/>
<path d="M130.014 30.2299C128.289 30.2299 126.909 29.9609 125.873 29.423C124.848 28.8748 124.097 28.012 123.62 26.8346C123.153 25.6572 122.919 24.0889 122.919 22.1299C122.919 20.1912 123.158 18.6383 123.635 17.471C124.112 16.3037 124.863 15.4561 125.888 14.9283C126.924 14.3903 128.304 14.1213 130.03 14.1213C132.039 14.1213 133.532 14.5376 134.506 15.3699C135.491 16.1921 135.998 17.4659 136.029 19.1914H133.638C133.577 18.42 133.415 17.8059 133.151 17.3492C132.897 16.8924 132.511 16.5574 131.994 16.3443C131.476 16.1311 130.801 16.0246 129.969 16.0246C128.761 16.0246 127.822 16.2124 127.152 16.588C126.492 16.9635 126.015 17.5928 125.721 18.4759C125.437 19.3488 125.295 20.577 125.295 22.1604C125.295 23.8758 125.427 25.17 125.691 26.0429C125.954 26.9158 126.421 27.53 127.091 27.8852C127.761 28.2304 128.746 28.4029 130.045 28.4029C130.898 28.4029 131.583 28.2963 132.1 28.0831C132.618 27.8598 132.999 27.5147 133.242 27.0478C133.486 26.5707 133.618 25.9414 133.638 25.1599H136.029C136.019 26.388 135.811 27.3726 135.404 28.1135C134.998 28.8444 134.359 29.3824 133.486 29.7275C132.613 30.0625 131.456 30.2299 130.014 30.2299Z" fill="black"/>
<path d="M145.545 30.2298C143.87 30.2298 142.53 29.9608 141.525 29.4228C140.52 28.8848 139.784 28.0322 139.317 26.8649C138.861 25.6976 138.632 24.1396 138.632 22.1907C138.632 20.3637 138.861 18.8615 139.317 17.684C139.774 16.4964 140.505 15.6082 141.51 15.0195C142.515 14.4308 143.839 14.1365 145.484 14.1365C147.057 14.1365 148.316 14.3699 149.26 14.8368C150.214 15.3037 150.909 16.0447 151.346 17.0598C151.782 18.0647 152 19.4096 152 21.0945L151.986 22.5713H141.008C141.008 23.9822 141.16 25.114 141.465 25.9667C141.779 26.8092 142.267 27.4283 142.926 27.8241C143.596 28.2098 144.49 28.4027 145.606 28.4027C146.509 28.4027 147.235 28.3113 147.783 28.1287C148.342 27.946 148.753 27.6567 149.017 27.2608C149.291 26.8548 149.443 26.3169 149.473 25.6469H151.864C151.864 27.2101 151.346 28.3672 150.311 29.1184C149.286 29.8593 147.697 30.2298 145.545 30.2298H145.545ZM149.61 20.8356C149.64 19.6683 149.519 18.7345 149.244 18.0342C148.97 17.3338 148.524 16.8212 147.905 16.4964C147.285 16.1716 146.458 16.0092 145.423 16.0092C144.337 16.0092 143.484 16.1564 142.865 16.4508C142.256 16.7451 141.809 17.2374 141.525 17.9276C141.241 18.6178 141.079 19.5871 141.038 20.8356H149.61Z" fill="black"/>
<defs>
<linearGradient id="paint0_linear_2645_9309" x1="2.10165e-05" y1="0.992203" x2="52.0905" y2="55.7349" gradientUnits="userSpaceOnUse">
<stop stop-color="#001486"/>
<stop offset="1" stop-color="#7E00E6"/>
</linearGradient>
</defs>
</svg>
