<svg width="146" height="42" viewBox="0 0 146 42" fill="none" xmlns="http://www.w3.org/2000/svg">
<path d="M47.4359 25.6725C46.8562 25.0947 46.3964 24.4087 46.0826 23.6536C45.7689 22.8985 45.6074 22.0892 45.6074 21.2718C45.6074 20.4545 45.7689 19.6452 46.0826 18.8901C46.3964 18.135 46.8562 17.449 47.4359 16.8712C48.6633 15.727 50.2806 15.0906 51.9607 15.0906C53.6407 15.0906 55.2581 15.727 56.4854 16.8712C57.0651 17.449 57.525 18.135 57.8387 18.8901C58.1524 19.6452 58.3139 20.4545 58.3139 21.2718C58.3139 22.0892 58.1524 22.8985 57.8387 23.6536C57.525 24.4087 57.0651 25.0947 56.4854 25.6725C55.2581 26.8167 53.6407 27.4531 51.9607 27.4531C50.2806 27.4531 48.6633 26.8167 47.4359 25.6725ZM48.7928 18.1036C48.036 18.8376 47.5586 19.8111 47.4424 20.8575C47.3263 21.904 47.5785 22.9581 48.1559 23.8394C48.7334 24.7207 49.6001 25.3744 50.6077 25.6885C51.6153 26.0025 52.701 25.9574 53.6789 25.5609C54.6568 25.1644 55.466 24.4411 55.968 23.5149C56.4699 22.5888 56.6334 21.5174 56.4304 20.4842C56.2274 19.4511 55.6705 18.5205 54.8551 17.8518C54.0398 17.1831 53.0167 16.8179 51.961 16.8189C51.3728 16.8047 50.788 16.9114 50.2429 17.1324C49.6978 17.3535 49.2042 17.684 48.7928 18.1036Z" fill="#0F0F0F"/>
<path d="M62.7961 27.2659V15.2783H67.9302C68.5612 15.2413 69.1932 15.3323 69.7879 15.5458C70.3826 15.7592 70.9278 16.0907 71.3904 16.5202C72.1911 17.3535 72.6374 18.4634 72.6359 19.6175C72.6344 20.7716 72.1851 21.8804 71.3823 22.7116C70.922 23.1426 70.3788 23.4759 69.7855 23.6913C69.1923 23.9067 68.5614 23.9997 67.931 23.9646H64.6171V27.2696H62.7961V27.2659ZM64.6149 22.2487H67.4971C68.3696 22.3175 69.2377 22.0714 69.9434 21.5551C70.455 21.0384 70.7419 20.3414 70.7419 19.6152C70.7419 18.889 70.455 18.192 69.9434 17.6752C69.2401 17.1536 68.3709 16.904 67.4971 16.9728H64.6149V22.2487Z" fill="#0F0F0F"/>
<path d="M85.7873 15.2783H87.6076V22.2141C87.6327 22.9058 87.5187 23.5956 87.2724 24.2427C87.026 24.8898 86.6522 25.4812 86.1731 25.982C85.0647 26.9325 83.6514 27.4551 82.1897 27.4551C80.7279 27.4551 79.3146 26.9325 78.2062 25.982C77.7272 25.4812 77.3535 24.8898 77.1072 24.2427C76.861 23.5955 76.7472 22.9058 76.7725 22.2141V15.2783H78.5928V22.0593C78.5632 22.5489 78.6315 23.0395 78.7936 23.5026C78.9558 23.9657 79.2085 24.3921 79.5372 24.757C80.2792 25.382 81.2192 25.7248 82.1904 25.7248C83.1616 25.7248 84.1015 25.382 84.8436 24.757C85.1721 24.392 85.4247 23.9656 85.5867 23.5025C85.7487 23.0394 85.8169 22.5489 85.7873 22.0593V15.2783Z" fill="#0F0F0F"/>
<path d="M92.6731 27.2659V15.2783H94.4934V25.536H101.208V27.2652L92.6731 27.2659Z" fill="#0F0F0F"/>
<path d="M105.557 25.6725C104.977 25.0947 104.518 24.4087 104.204 23.6536C103.89 22.8985 103.729 22.0892 103.729 21.2718C103.729 20.4545 103.89 19.6452 104.204 18.8901C104.518 18.135 104.977 17.449 105.557 16.8712C106.784 15.727 108.402 15.0906 110.082 15.0906C111.762 15.0906 113.379 15.727 114.607 16.8712C115.186 17.449 115.646 18.135 115.96 18.8901C116.274 19.6452 116.435 20.4545 116.435 21.2718C116.435 22.0892 116.274 22.8985 115.96 23.6536C115.646 24.4087 115.186 25.0947 114.607 25.6725C113.379 26.8167 111.762 27.4531 110.082 27.4531C108.402 27.4531 106.784 26.8167 105.557 25.6725ZM106.914 18.1036C106.157 18.8376 105.68 19.8111 105.564 20.8575C105.447 21.904 105.7 22.9581 106.277 23.8394C106.855 24.7207 107.721 25.3744 108.729 25.6885C109.736 26.0025 110.822 25.9574 111.8 25.5609C112.778 25.1644 113.587 24.4411 114.089 23.5149C114.591 22.5888 114.755 21.5174 114.551 20.4842C114.348 19.4511 113.792 18.5205 112.976 17.8518C112.161 17.1831 111.138 16.8179 110.082 16.8189C109.494 16.8051 108.91 16.912 108.366 17.133C107.821 17.3541 107.328 17.6844 106.917 18.1036H106.914Z" fill="#0F0F0F"/>
<path d="M129.745 15.2783H131.565V22.2141C131.59 22.9058 131.476 23.5956 131.23 24.2427C130.984 24.8898 130.61 25.4812 130.131 25.982C129.022 26.9325 127.609 27.4551 126.147 27.4551C124.685 27.4551 123.272 26.9325 122.164 25.982C121.685 25.4811 121.311 24.8897 121.065 24.2426C120.819 23.5955 120.705 22.9058 120.73 22.2141V15.2783H122.55V22.0593C122.521 22.5489 122.589 23.0395 122.751 23.5026C122.913 23.9657 123.166 24.3921 123.495 24.757C124.237 25.382 125.177 25.7248 126.148 25.7248C127.119 25.7248 128.059 25.382 128.801 24.757C129.13 24.3921 129.382 23.9657 129.545 23.5026C129.707 23.0395 129.775 22.5489 129.746 22.0593L129.745 15.2783Z" fill="#0F0F0F"/>
<path d="M135.875 24.2175L137.678 23.7016C137.714 24.0275 137.825 24.3405 138.004 24.6156C138.183 24.8906 138.424 25.1201 138.708 25.2855C139.414 25.6631 140.209 25.8434 141.009 25.8073C141.747 25.8484 142.482 25.6916 143.139 25.3533C143.367 25.2357 143.558 25.0576 143.692 24.8384C143.825 24.6193 143.895 24.3677 143.894 24.1114C143.9 23.9285 143.861 23.747 143.78 23.5828C143.699 23.4186 143.579 23.2766 143.43 23.1694C143.277 23.0486 143.113 22.9425 142.94 22.8524C142.728 22.7483 142.507 22.6622 142.28 22.5952C142.005 22.5097 141.761 22.4382 141.55 22.3807C141.337 22.324 141.061 22.2554 140.717 22.1758C140.591 22.1412 140.495 22.1191 140.425 22.108C139.859 21.982 139.303 21.8192 138.759 21.6208C138.279 21.4392 137.819 21.2095 137.386 20.9354C136.959 20.6758 136.606 20.3098 136.364 19.8732C136.123 19.4231 136.002 18.9193 136.011 18.4094C135.998 17.9348 136.105 17.4644 136.32 17.0411C136.536 16.6179 136.855 16.2552 137.247 15.986C138.233 15.3404 139.4 15.0256 140.578 15.0875C141.812 15.036 143.032 15.3649 144.072 16.0295C144.512 16.3231 144.868 16.7247 145.107 17.1957C145.346 17.6666 145.46 18.1909 145.437 18.7183V18.9232H143.62V18.8377C143.634 18.5282 143.565 18.2205 143.42 17.9465C143.275 17.6725 143.059 17.4422 142.795 17.2795C142.117 16.8932 141.342 16.709 140.562 16.7488C139.877 16.7091 139.194 16.8667 138.596 17.2029C138.384 17.3249 138.208 17.5009 138.085 17.713C137.963 17.925 137.9 18.1656 137.901 18.4102C137.897 18.6363 137.957 18.8589 138.073 19.0529C138.179 19.232 138.316 19.3914 138.477 19.5239C138.691 19.6816 138.929 19.8059 139.181 19.8924C139.496 20.0128 139.765 20.1042 139.988 20.1666C140.211 20.229 140.535 20.3116 140.958 20.4143C141.599 20.5744 142.106 20.7088 142.479 20.8174C142.914 20.9503 143.341 21.1103 143.757 21.2965C144.157 21.4585 144.529 21.684 144.857 21.9643C145.126 22.2227 145.347 22.527 145.509 22.8628C145.698 23.2532 145.792 23.6824 145.784 24.1158C145.802 24.6038 145.692 25.088 145.465 25.5206C145.237 25.9531 144.901 26.319 144.488 26.582C143.431 27.2155 142.208 27.5197 140.977 27.4554C139.758 27.5025 138.549 27.2152 137.482 26.6247C137.044 26.3766 136.671 26.0297 136.391 25.6116C136.112 25.1936 135.935 24.7161 135.875 24.2175Z" fill="#0F0F0F"/>
<path d="M0.0146808 20.9736C0.0146808 17.8271 0.0242863 14.6813 0.00802742 11.5348C-0.0102778 11.1631 0.0797911 10.7942 0.26735 10.4725C0.454909 10.1509 0.731915 9.89031 1.06485 9.72237C4.52602 7.7377 7.98546 5.75032 11.4432 3.76025C13.426 2.62075 15.4141 1.49083 17.3895 0.338804C17.7269 0.118865 18.121 0.00118625 18.5241 8.92141e-06C18.9271 -0.00116841 19.3219 0.114204 19.6606 0.332169C25.0979 3.46665 30.54 6.59402 35.9867 9.71425C36.2428 9.84298 36.4676 10.0259 36.6456 10.2502C36.8235 10.4745 36.9502 10.7348 37.0169 11.013C37.0467 11.155 37.0608 11.2998 37.0591 11.4449C37.0591 17.8097 37.0591 24.1747 37.0591 30.54C37.0684 30.8825 36.9814 31.2208 36.8078 31.5166C36.6342 31.8123 36.381 32.0536 36.0769 32.2131C34.9838 32.8492 33.8841 33.4757 32.7867 34.1059C28.451 36.5962 24.1153 39.086 19.7796 41.5753C19.5519 41.7155 19.3099 41.8309 19.0575 41.9195C18.7942 41.9985 18.5169 42.0197 18.2446 41.9815C17.9724 41.9434 17.7116 41.8468 17.4804 41.6984C16.0161 40.8532 14.5501 40.011 13.0824 39.1717C12.2177 38.6749 11.3575 38.1686 10.4869 37.6821C10.1423 37.5082 9.85562 37.2385 9.6614 36.9057C9.46717 36.5728 9.37372 36.191 9.39235 35.8063C9.39679 33.985 9.39235 32.1623 9.39235 30.3402C9.3685 29.8667 9.52152 29.4011 9.82182 29.0336C10.1221 28.666 10.5484 28.4225 11.0183 28.3502C11.4926 28.2779 11.9772 28.3806 12.381 28.6391C13.7187 29.411 15.0581 30.1808 16.3992 30.9483C16.9793 31.2822 17.5669 31.6036 18.1352 31.9551C18.2474 32.0355 18.3821 32.0788 18.5202 32.0788C18.6584 32.0788 18.7931 32.0355 18.9053 31.9551C21.315 30.5572 23.7292 29.1678 26.1479 27.7871C26.7391 27.448 27.3251 27.1008 27.9216 26.7729C28.026 26.7267 28.1136 26.6494 28.1722 26.5516C28.2309 26.4538 28.2577 26.3403 28.249 26.2267C28.2416 22.7404 28.2416 19.2541 28.249 15.7678C28.259 15.6545 28.2341 15.541 28.1778 15.4422C28.1214 15.3434 28.0361 15.2642 27.9334 15.215C24.9023 13.4824 21.875 11.7434 18.8513 9.99803C18.7516 9.93144 18.6339 9.89669 18.5139 9.8984C18.3939 9.90012 18.2773 9.9382 18.1795 10.0076C15.1667 11.7466 12.1495 13.4784 9.12778 15.2032C9.01086 15.2637 8.91556 15.3588 8.85497 15.4754C8.79437 15.5921 8.77143 15.7246 8.78929 15.8547C8.79471 21.624 8.79471 27.3939 8.78929 33.1647C8.79761 33.3709 8.78425 33.5774 8.74939 33.7808C8.68951 34.0736 8.56154 34.3483 8.37579 34.5828C8.19004 34.8172 7.9517 35.005 7.67994 35.1308C7.40818 35.2566 7.11061 35.3171 6.81115 35.3073C6.51169 35.2975 6.21873 35.2177 5.95582 35.0744C5.49392 34.8282 5.04753 34.5584 4.59376 34.2946C3.40193 33.6101 2.20987 32.9258 1.01755 32.2418C0.683656 32.0616 0.406748 31.792 0.217912 31.4635C0.0671916 31.1849 -0.0077262 30.8719 0.000629802 30.5555C0.0134398 27.3615 0.0181296 24.1676 0.0146808 20.9736ZM6.88183 33.3917V32.872C6.88183 27.1623 6.88037 21.4527 6.87741 15.7434C6.85655 15.2985 6.96455 14.8571 7.18852 14.4718C7.41249 14.0864 7.74295 13.7736 8.14042 13.5706C11.1951 11.8277 14.2437 10.0766 17.286 8.31752C17.6578 8.0813 18.0894 7.95581 18.5302 7.95581C18.971 7.95581 19.4026 8.0813 19.7744 8.31752C22.8197 10.0742 25.8683 11.825 28.92 13.5698C29.3228 13.7774 29.6572 14.0964 29.883 14.4885C30.1088 14.8807 30.2166 15.3294 30.1934 15.781C30.186 19.2555 30.186 22.7298 30.1934 26.2038C30.2158 26.6612 30.1054 27.1154 29.8753 27.5117C29.6452 27.908 29.3053 28.2296 28.8963 28.4379C25.8412 30.1781 22.7971 31.9367 19.7485 33.6858C19.5925 33.7802 19.4274 33.8587 19.2556 33.9201C18.9375 34.028 18.5993 34.0641 18.2655 34.0259C17.9317 33.9877 17.6105 33.876 17.3252 33.699C15.4609 32.6224 13.5943 31.5493 11.7255 30.4795C11.6132 30.4154 11.5001 30.355 11.3353 30.2643V30.6837C11.3353 32.3229 11.3419 33.9636 11.3294 35.6036C11.3187 35.7152 11.3436 35.8272 11.4005 35.9239C11.4574 36.0205 11.5435 36.0967 11.6464 36.1417C13.835 37.3868 16.0181 38.6415 18.1958 39.9058C18.2909 39.9754 18.4056 40.0135 18.5236 40.0147C18.6416 40.0159 18.757 39.9801 18.8535 39.9125C24.1746 36.8438 29.5016 33.7838 34.8345 30.7324C34.9417 30.6822 35.0304 30.5999 35.0883 30.4969C35.1462 30.3939 35.1704 30.2755 35.1575 30.1582C35.1491 24.0479 35.1491 17.9377 35.1575 11.8274C35.1676 11.71 35.1408 11.5923 35.0808 11.4907C35.0208 11.3891 34.9306 11.3087 34.8227 11.2606C29.5135 8.21901 24.2064 5.17246 18.9016 2.12102C18.7767 2.04732 18.6511 1.98098 18.5232 1.91096C12.9779 5.09704 7.44843 8.27355 1.9347 11.4405V30.5562C3.5702 31.4908 5.19091 32.421 6.88183 33.3917Z" fill="#0F0F0F"/>
<path d="M12.4326 20.9823C12.4326 20.0721 12.4452 19.1611 12.4274 18.2508C12.4109 18.014 12.4659 17.7778 12.5852 17.5724C12.7045 17.3671 12.8828 17.2021 13.097 17.0988C14.6948 16.1946 16.287 15.2802 17.8734 14.3554C18.0672 14.2283 18.2938 14.1602 18.5257 14.1594C18.7576 14.1586 18.9847 14.2252 19.1793 14.351C20.7885 15.2846 22.4015 16.2118 24.0186 17.1327C24.2147 17.2326 24.3779 17.3869 24.4884 17.577C24.5989 17.7671 24.652 17.9849 24.6416 18.2043C24.6381 20.0627 24.6381 21.9206 24.6416 23.778C24.6517 24.0033 24.5962 24.2266 24.4817 24.421C24.3671 24.6154 24.1986 24.7725 23.9964 24.8733C22.3902 25.7877 20.7875 26.7088 19.1882 27.6366C18.9945 27.7638 18.7679 27.832 18.536 27.8329C18.3041 27.8338 18.077 27.7674 17.8823 27.6417C16.2835 26.7135 14.6805 25.7927 13.0734 24.8792C12.8656 24.7764 12.6931 24.6143 12.5778 24.4135C12.4625 24.2127 12.4097 23.9823 12.426 23.7515C12.4445 22.8279 12.4326 21.9052 12.4326 20.9823ZM18.5393 15.2089C18.5015 15.2225 18.4644 15.2382 18.4284 15.2561C16.8462 16.1634 15.2669 17.0737 13.6816 17.9744C13.608 18.0142 13.5487 18.076 13.512 18.151C13.4753 18.2261 13.4631 18.3107 13.4769 18.393C13.4813 20.1288 13.4828 21.8646 13.4769 23.6004C13.4695 23.6947 13.4918 23.7889 13.5407 23.8698C13.5896 23.9508 13.6626 24.0146 13.7496 24.0522C14.7665 24.6257 15.7753 25.2116 16.7878 25.7924L18.5275 26.7919C18.6472 26.727 18.7529 26.6703 18.8578 26.6106C20.3359 25.763 21.8066 24.9116 23.2884 24.0736C23.3857 24.0294 23.4666 23.9558 23.5196 23.8632C23.5727 23.7706 23.5952 23.6637 23.584 23.5576C23.5727 21.8457 23.5727 20.1342 23.584 18.4233C23.5941 18.3175 23.5706 18.2112 23.5168 18.1195C23.4629 18.0278 23.3814 17.9554 23.2839 17.9125C21.7815 17.0619 20.2879 16.1988 18.7898 15.3394C18.7056 15.2944 18.6228 15.2517 18.5393 15.2075V15.2089Z" fill="#0F0F0F"/>
</svg>
