<svg width="110" height="30" viewBox="0 0 110 30" fill="none" xmlns="http://www.w3.org/2000/svg">
<mask id="mask0_2645_9260" style="mask-type:alpha" maskUnits="userSpaceOnUse" x="0" y="19" width="27" height="11">
<path d="M0 19.6965H26.6527V29.8052H0V19.6965Z" fill="white"/>
</mask>
<g mask="url(#mask0_2645_9260)">
<path fill-rule="evenodd" clip-rule="evenodd" d="M13.3005 24.8415C12.3613 24.8415 11.4886 24.6459 10.7763 24.2758L3.10561 20.2916L0.8071 21.6638C-0.285455 22.3158 -0.266372 23.3154 0.849672 23.8952L11.4589 29.4063C11.9741 29.6737 12.6329 29.8054 13.3005 29.8054C14.08 29.8054 14.8709 29.6262 15.4595 29.2749L25.8456 23.0741C26.9382 22.4218 26.9191 21.4222 25.803 20.8427L23.5974 19.6965L16.2181 24.1024C15.4195 24.5788 14.3835 24.8415 13.3005 24.8415Z" fill="url(#paint0_linear_2645_9260)"/>
</g>
<path fill-rule="evenodd" clip-rule="evenodd" d="M25.8713 14.245L24.0296 13.2742L19.741 15.8721L19.0047 16.318L18.2687 16.7639L16.2611 17.9801C15.4604 18.4655 14.4213 18.7324 13.3358 18.7324C12.3941 18.7324 11.5191 18.5334 10.8049 18.1573L8.50471 16.9447L7.74339 16.5439L6.98206 16.1426L2.74381 13.9083L0.80941 15.0803C-0.286029 15.744 -0.267262 16.7605 0.851727 17.3504L3.06358 18.5161L3.8249 18.9173L4.58586 19.3186L11.4893 22.957C12.0056 23.229 12.6664 23.3627 13.3358 23.3627C14.117 23.3627 14.9103 23.1807 15.5001 22.8234L22.1372 18.8029L22.8735 18.357L23.6094 17.9111L25.914 16.5151C27.0094 15.8518 26.9903 14.8348 25.8713 14.245Z" fill="url(#paint1_linear_2645_9260)"/>
<path fill-rule="evenodd" clip-rule="evenodd" d="M25.8713 8.29713L15.2337 2.78838C14.7175 2.5207 14.057 2.3894 13.3873 2.3894C12.6061 2.3894 11.8127 2.56858 11.2229 2.91968L0.80941 9.1183C-0.286029 9.77008 -0.267262 10.769 0.851727 11.3486L2.6934 12.3025L3.45473 12.6967L4.21605 13.091L8.4543 15.2861L9.21563 15.68L9.97695 16.0746L11.4893 16.858C12.0056 17.1254 12.6664 17.2567 13.3358 17.2567C14.117 17.2567 14.9103 17.0775 15.5001 16.7264L16.7461 15.9847L17.4824 15.5465L18.2183 15.1084L22.507 12.5556L23.2433 12.1175L23.9792 11.6794L25.914 10.5278C27.0094 9.87599 26.9903 8.87674 25.8713 8.29713Z" fill="url(#paint2_linear_2645_9260)"/>
<mask id="mask1_2645_9260" style="mask-type:alpha" maskUnits="userSpaceOnUse" x="34" y="0" width="16" height="29">
<path d="M34.3909 0.206543H49.6052V28.8563H34.3909V0.206543Z" fill="white"/>
</mask>
<g mask="url(#mask1_2645_9260)">
<path fill-rule="evenodd" clip-rule="evenodd" d="M45.4736 4.64424C44.0768 4.58949 42.8997 5.6587 42.8441 7.03309C42.8441 7.03784 42.8437 7.04185 42.8437 7.0466V9.44932H48.4785V13.5159H42.8437V28.8562H37.7716V13.5159H34.3909V9.44932H37.7716V6.67389C37.7716 2.79274 41.1528 0.207859 44.9093 0.207859C46.6299 0.17172 48.303 0.764551 49.6052 1.87137L47.7269 5.38273C47.051 4.95307 46.2756 4.69827 45.4728 4.64315" fill="#1E1E1E"/>
</g>
<path fill-rule="evenodd" clip-rule="evenodd" d="M69.4804 9.29199V28.7521H65.591L64.8494 26.5287H64.2962C63.555 27.4552 61.8885 28.938 58.5541 28.938C53.3677 28.938 50.7742 25.2311 50.7742 19.8561V9.29199H56.1479V18.5584C56.1479 20.9677 56.3326 24.3039 59.6678 24.3039C61.335 24.3039 64.1137 23.377 64.1137 18.3739V9.29199H69.4804Z" fill="#1E1E1E"/>
<path fill-rule="evenodd" clip-rule="evenodd" d="M80.4914 13.1998C78.8017 13.1998 78.0514 13.944 78.0514 14.875C78.0514 16.178 79.7411 16.5499 81.0545 16.9215C84.6208 17.6662 88.1866 18.7824 88.1866 22.8758C88.1866 26.9695 84.8083 29.2035 80.6786 29.2035C76.1737 29.2035 72.6079 26.412 72.4199 22.3179H77.2996C77.4842 23.9983 78.9778 25.2318 80.6779 25.109C82.7424 25.109 83.1179 23.9928 83.1179 23.2485C83.1179 21.7596 81.8041 21.3872 80.3023 21.0153C78.0499 20.4592 72.9819 19.5263 72.9819 15.0603C72.9812 11.1529 76.7376 9.29199 80.4914 9.29199C84.9963 9.29199 87.8118 11.8975 87.9991 15.2463H83.1194C83.1194 14.316 82.5589 13.1998 80.4914 13.1998Z" fill="#1E1E1E"/>
<path fill-rule="evenodd" clip-rule="evenodd" d="M109.494 20.4569H95.1674C95.723 23.4066 98.1439 24.5131 100.377 24.5131C101.814 24.5819 103.197 23.9651 104.098 22.8535H109.122C107.746 26.5507 104.168 28.9884 100.191 28.9371C94.7268 28.9218 90.3091 24.5204 90.3245 19.106C90.3249 19.0034 90.3267 18.901 90.3304 18.798C90.1485 13.5846 94.2667 9.21202 99.5285 9.03178C99.6872 9.02636 99.8463 9.02523 100.005 9.02741C105.029 9.02741 110.238 12.5305 109.494 20.4576V20.4569ZM95.5396 16.5857H104.285C103.894 14.6792 102.152 13.3447 100.191 13.4517C98.0987 13.3159 96.1812 14.6078 95.5396 16.5857Z" fill="#1E1E1E"/>
<defs>
<linearGradient id="paint0_linear_2645_9260" x1="13.3263" y1="3.27075" x2="13.3263" y2="29.8054" gradientUnits="userSpaceOnUse">
<stop stop-color="#B3F9BA"/>
<stop offset="1" stop-color="#F6FB8C"/>
</linearGradient>
<linearGradient id="paint1_linear_2645_9260" x1="13.3616" y1="3.29146" x2="13.3616" y2="29.1951" gradientUnits="userSpaceOnUse">
<stop stop-color="#B1FFBF"/>
<stop offset="1" stop-color="#FFF16D"/>
</linearGradient>
<linearGradient id="paint2_linear_2645_9260" x1="13.3616" y1="2.3894" x2="13.3616" y2="29.2699" gradientUnits="userSpaceOnUse">
<stop stop-color="#B3F9BA"/>
<stop offset="1" stop-color="#F6FB8C"/>
</linearGradient>
</defs>
</svg>
