<svg width="135" height="28" viewBox="0 0 135 28" fill="none" xmlns="http://www.w3.org/2000/svg">
<path d="M57.1726 5.03372L51.7385 19.1338L46.3616 5.03372V5.00512H42.1287L42.1573 5.03372L49.8794 23.9101V23.9387H53.6833V23.9101L61.4055 5.03372L61.4341 5.00512L57.1726 5.03372ZM53.6261 23.9387H49.8508L45.6179 13.6139L49.8508 23.9387H53.6261ZM134.709 18.2758C134.709 19.62 134.337 20.7927 133.565 21.7365C132.821 22.6517 131.82 23.3667 130.705 23.7385C129.475 24.1675 128.159 24.3677 126.844 24.3391C122.697 24.3391 119.951 22.7661 118.721 19.6772L118.664 19.5628V19.5342H118.693L121.81 17.904H121.839V17.9326L121.896 18.0756C122.239 18.9908 122.925 19.7344 123.783 20.192C124.756 20.6783 125.814 20.9357 126.872 20.9071C128.045 20.9071 129.017 20.6783 129.79 20.2492C130.533 19.8202 130.905 19.191 130.905 18.3044C130.905 16.903 129.532 16.045 126.815 15.759C125.9 15.6731 124.956 15.5015 124.069 15.2727C123.269 15.0725 122.525 14.7579 121.781 14.3575C121.038 13.9571 120.437 13.3565 120.065 12.6129C119.665 11.8979 119.493 11.0112 119.493 9.98162C119.493 8.7518 119.865 7.69358 120.637 6.80696C121.352 5.94894 122.296 5.31972 123.354 4.97652C124.441 4.63331 125.585 4.43311 126.758 4.43311C130.419 4.43311 132.878 5.69153 134.108 8.20839L134.165 8.32279V8.35139H134.137L131.162 9.89582H131.134V9.86722L131.077 9.75282C130.762 9.20941 130.219 8.7518 129.446 8.35139C128.646 7.95098 127.788 7.75078 126.901 7.75078C125.7 7.75078 124.784 7.97958 124.184 8.40859C123.583 8.8376 123.297 9.38101 123.297 10.0388C123.297 10.2676 123.326 10.4678 123.44 10.668C123.526 10.8682 123.669 11.0398 123.841 11.1543C124.241 11.4689 124.699 11.6977 125.185 11.8121C125.871 11.9837 126.529 12.0981 127.215 12.1839C128.074 12.2983 128.817 12.4127 129.475 12.5557C130.161 12.6987 130.848 12.9275 131.477 13.2135C132.106 13.4709 132.678 13.8141 133.193 14.2717C133.679 14.7293 134.051 15.3013 134.28 15.902C134.566 16.7028 134.709 17.5036 134.709 18.2758ZM79.1379 5.03372L79.1665 8.7518H68.8988V12.6701H78.7947V16.2452H68.8988V20.0776H79.1665V23.8529H65.1522V5.00512H79.1379V5.03372ZM109.798 5.06232L105.994 5.03372V5.06232L98.2717 23.9387L98.2431 23.9673H102.476V23.9387L107.91 9.83862L113.287 23.9387V23.9673H117.52L117.491 23.9387L109.798 5.06232ZM109.769 5.06232L114.002 15.3871L109.769 5.06232ZM86.6884 20.1062H96.098V20.335V23.8815H82.9131V5.03372H86.6884V20.1062V20.1062Z" fill="#1D1D1B"/>
<path d="M21.8509 10.525L15.9019 21.0215L9.95301 10.525H21.8509ZM27.7998 7.00715H3.97549L15.9019 28L27.7998 7.00715ZM0 0L1.97344 3.48927H29.7732L31.7467 0H0Z" fill="#0037C1"/>
</svg>
