<svg width="126" height="40" viewBox="0 0 126 40" fill="none" xmlns="http://www.w3.org/2000/svg">
<path d="M40.2211 20.8278C40.2211 21.0353 40.0471 21.2042 39.8392 21.2042H32.4806C32.6644 23.0191 34.0326 24.6747 35.9568 24.6747C37.2719 24.6747 38.2485 24.1728 38.9834 23.1253C39.0898 22.9805 39.2493 22.8888 39.4524 22.9757C39.5636 23.024 39.6409 23.1253 39.6603 23.2412C39.6796 23.3618 39.6458 23.4294 39.6119 23.497C38.8722 24.7858 37.3976 25.4181 35.952 25.4181C33.4766 25.4181 31.7119 23.2074 31.7119 20.8422C31.7119 18.4771 33.4766 16.2664 35.952 16.2664C38.4274 16.2616 40.2163 18.4674 40.2211 20.8278ZM39.433 20.4706C39.2735 18.6557 37.8811 17.0001 35.9568 17.0001C34.0326 17.0001 32.6644 18.6557 32.4806 20.4706H39.433ZM49.1509 16.445C49.3637 16.445 49.5184 16.6284 49.5184 16.8118C49.5184 17.0242 49.3588 17.1787 49.1509 17.1787H47.1783V24.9064C47.1783 25.0898 47.0188 25.2733 46.8109 25.2733C46.5982 25.2733 46.4435 25.0898 46.4435 24.9064V17.1787H44.5482C44.3355 17.1787 44.1808 17.0194 44.1808 16.8118C44.1808 16.6284 44.3403 16.445 44.5482 16.445H46.4435V13.6165C46.4435 13.4379 46.5643 13.2738 46.7384 13.2448C46.985 13.2062 47.1783 13.3751 47.1783 13.6068V16.445H49.1509ZM61.1847 20.181V24.863C61.1847 25.0754 61.001 25.2298 60.8172 25.2298C60.6045 25.2298 60.4498 25.0705 60.4498 24.863V20.181C60.4498 18.6026 59.5554 17.0242 57.7907 17.0242C55.528 17.0242 54.5514 18.9984 54.6819 21.0208C54.6819 21.0739 54.7061 21.3104 54.7061 21.3346V24.8485C54.7061 25.0271 54.5852 25.1912 54.4112 25.2202C54.1646 25.2588 53.9712 25.0898 53.9712 24.8582V9.47988C53.9712 9.29646 54.1307 9.11304 54.3386 9.11304C54.5514 9.11304 54.7061 9.29646 54.7061 9.47988V18.1827C55.3394 17.0532 56.4708 16.2905 57.7858 16.2905C59.947 16.2905 61.1847 18.1827 61.1847 20.181ZM74.3788 20.8278C74.3788 21.0353 74.2047 21.2042 73.9968 21.2042H66.6335C66.8172 23.0191 68.1854 24.6747 70.1097 24.6747C71.4247 24.6747 72.4013 24.1728 73.1362 23.1253C73.2426 22.9805 73.4021 22.8888 73.6052 22.9757C73.7164 23.024 73.7938 23.1253 73.8131 23.2412C73.8324 23.3618 73.7986 23.4294 73.7648 23.497C73.025 24.7858 71.5504 25.4181 70.1048 25.4181C67.6294 25.4181 65.8647 23.2074 65.8647 20.8422C65.8647 18.4771 67.6294 16.2664 70.1048 16.2664C72.5851 16.2616 74.3739 18.4674 74.3788 20.8278ZM73.5859 20.4706C73.4263 18.6557 72.0339 17.0001 70.1097 17.0001C68.1854 17.0001 66.8172 18.6557 66.6335 20.4706H73.5859ZM83.4101 16.7877C83.4101 17.0242 83.2796 17.1545 83.0669 17.1835C80.9057 17.4972 79.9339 19.259 79.9339 21.3104V24.8244C79.9339 25.003 79.8131 25.1671 79.639 25.196C79.3924 25.2347 79.199 25.0657 79.199 24.834V16.8263C79.199 16.6477 79.3199 16.4836 79.494 16.4546C79.7405 16.416 79.9339 16.585 79.9339 16.8167V18.4481C80.5383 17.4248 81.7518 16.4498 83.0137 16.4498C83.1974 16.445 83.4101 16.5801 83.4101 16.7877ZM95.497 20.8278C95.497 21.0353 95.323 21.2042 95.1151 21.2042H87.7566C87.9403 23.0191 89.3085 24.6747 91.2328 24.6747C92.5478 24.6747 93.5245 24.1728 94.2593 23.1253C94.3657 22.9805 94.5253 22.8888 94.7283 22.9757C94.8395 23.024 94.9169 23.1253 94.9362 23.2412C94.9556 23.3618 94.9217 23.4294 94.8879 23.497C94.1481 24.7858 92.6735 25.4181 91.2279 25.4181C88.7525 25.4181 86.9879 23.2074 86.9879 20.8422C86.9879 18.4771 88.7525 16.2664 91.2279 16.2664C93.7034 16.2616 95.4922 18.4674 95.497 20.8278ZM94.709 20.4706C94.5494 18.6557 93.157 17.0001 91.2328 17.0001C89.3085 17.0001 87.9403 18.6557 87.7566 20.4706H94.709ZM107.376 16.8794V24.9064C107.376 25.1188 107.192 25.2733 107.009 25.2733C106.796 25.2733 106.641 25.114 106.641 24.9064V23.3812C106.037 24.5927 104.954 25.4567 103.586 25.4567C101.4 25.4567 100.187 23.5646 100.187 21.5663V16.8601C100.187 16.6767 100.346 16.4933 100.554 16.4933C100.767 16.4933 100.922 16.6767 100.922 16.8601V21.5663C100.922 23.1446 101.816 24.723 103.581 24.723C106.056 24.723 106.636 22.411 106.636 19.8576V16.8601C106.636 16.6477 106.849 16.4305 107.11 16.5077C107.27 16.5608 107.376 16.7153 107.376 16.8794ZM125.99 20.152V24.8582C125.99 25.0705 125.806 25.225 125.623 25.225C125.41 25.225 125.255 25.0657 125.255 24.8582V20.152C125.255 18.5736 124.361 17.0242 122.596 17.0242C120.382 17.0242 119.54 19.3894 119.54 21.2284V24.8582C119.54 25.0705 119.357 25.225 119.173 25.225C118.96 25.225 118.805 25.0657 118.805 24.8582V20.152C118.805 18.5736 117.911 17.0242 116.146 17.0242C113.908 17.0242 112.984 18.786 113.067 21.127C113.067 21.1801 113.091 21.2863 113.067 21.3104V24.8485C113.067 25.0271 112.946 25.1912 112.767 25.2202C112.52 25.2588 112.327 25.0898 112.327 24.8582V16.8263C112.327 16.6477 112.448 16.4836 112.622 16.4546C112.868 16.416 113.062 16.585 113.062 16.8167V18.1585C113.695 17.029 114.826 16.2905 116.142 16.2905C117.64 16.2905 118.801 17.2366 119.274 18.6315C119.879 17.2656 121.063 16.2905 122.591 16.2905C124.752 16.2905 125.99 18.1537 125.99 20.152Z" fill="#3C3C3B"/>
<g opacity="0.6">
<path opacity="0.6" d="M12.2997 14.7896L0 20.3742L12.2997 27.6289L24.5945 20.3742L12.2997 14.7896Z" fill="#010101"/>
</g>
<g opacity="0.45">
<path opacity="0.45" d="M0 20.3741L12.2997 27.6288V0L0 20.3741Z" fill="#010101"/>
</g>
<g opacity="0.8">
<path opacity="0.8" d="M12.2998 0V27.6288L24.5946 20.3741L12.2998 0Z" fill="#010101"/>
</g>
<g opacity="0.45">
<path opacity="0.45" d="M0 22.7007L12.2997 40.0001V29.9554L0 22.7007Z" fill="#010101"/>
</g>
<g opacity="0.8">
<path opacity="0.8" d="M12.2998 29.9554V40.0001L24.6043 22.7007L12.2998 29.9554Z" fill="#010101"/>
</g>
</svg>
