<svg width="137" height="30" viewBox="0 0 137 30" fill="none" xmlns="http://www.w3.org/2000/svg">
<path d="M41.3367 20.6605C43.202 20.6605 45.0334 20.0331 46.1357 19.1852V13.7758H41.0823V16.1159H43.4225V17.5404C42.7272 17.9135 42.0828 18.066 41.3367 18.066C39.2848 18.066 38.0808 16.472 38.0808 14.522C38.0808 12.2836 39.5053 10.9778 41.218 10.9778C42.5068 10.9778 43.4563 11.5374 44.1008 12.1649L46.1017 10.4691C44.8638 9.0447 42.9646 8.31552 41.218 8.31552C37.3686 8.31552 35.1133 11.0287 35.1133 14.522C35.1133 18.4391 37.8604 20.6605 41.3367 20.6605ZM47.8874 20.5249H50.5328V16.3533C50.5328 15.0646 51.1433 14.4371 52.059 14.4371C52.9238 14.4371 53.3817 14.8272 53.3817 16.2007V20.5249H56.0269V15.5563C56.0269 12.928 54.7719 12.0801 53.0595 12.0801C52.0929 12.0801 51.2111 12.4531 50.5667 13.1992H50.5328V12.2327H47.8874V20.5249ZM61.8439 20.6775C64.4552 20.6775 66.321 18.9309 66.321 16.3873C66.321 13.8267 64.4552 12.0801 61.8439 12.0801C59.1646 12.0801 57.3504 13.8606 57.3504 16.3873C57.3504 18.897 59.1646 20.6775 61.8439 20.6775ZM61.8439 18.3374C60.7923 18.3374 60.0298 17.4895 60.0298 16.3873C60.0298 15.2511 60.7759 14.4371 61.8439 14.4371C62.8785 14.4371 63.6417 15.2341 63.6417 16.3873C63.6417 17.5234 62.8445 18.3374 61.8439 18.3374ZM70.4732 20.6775C72.7452 20.6775 73.8477 19.5583 73.8477 18.0152C73.8477 16.3873 72.8472 15.9124 71.016 15.285C70.1848 14.9967 69.8794 14.8102 69.8794 14.5558C69.8794 14.2337 70.2358 14.098 70.5412 14.098C71.1004 14.098 71.8126 14.3863 72.3894 14.9629L73.6443 13.1145C72.6778 12.4022 71.7616 12.0801 70.5072 12.0801C68.7775 12.0801 67.4035 13.0467 67.4035 14.7254C67.4035 16.3195 68.6245 16.9978 70.0154 17.4217C71.0494 17.7439 71.3038 17.9135 71.3038 18.1848C71.3038 18.49 71.0324 18.6765 70.5072 18.6765C69.744 18.6765 69.0319 18.3713 68.3367 17.7439L67.0987 19.4566C68.0143 20.2706 69.1673 20.6775 70.4732 20.6775ZM76.6187 11.1983C77.5349 11.1983 78.2131 10.5369 78.2131 9.67212C78.2131 8.84118 77.5349 8.17989 76.6187 8.17989C75.7032 8.17989 75.042 8.85818 75.042 9.67212C75.042 10.5369 75.7032 11.1983 76.6187 11.1983ZM75.2964 20.5249H77.9417V12.2327H75.2964V20.5249ZM82.5948 20.6775C84.8674 20.6775 85.9693 19.5583 85.9693 18.0152C85.9693 16.3873 84.9694 15.9124 83.1376 15.285C82.307 14.9967 82.0017 14.8102 82.0017 14.5558C82.0017 14.2337 82.3574 14.098 82.6628 14.098C83.2226 14.098 83.9348 14.3863 84.511 14.9629L85.7659 13.1145C84.7994 12.4022 83.8838 12.0801 82.6288 12.0801C80.8991 12.0801 79.5257 13.0467 79.5257 14.7254C79.5257 16.3195 80.7467 16.9978 82.1371 17.4217C83.1716 17.7439 83.426 17.9135 83.426 18.1848C83.426 18.49 83.1546 18.6765 82.6288 18.6765C81.8657 18.6765 81.1535 18.3713 80.4583 17.7439L79.2203 19.4566C80.1365 20.2706 81.2895 20.6775 82.5948 20.6775ZM97.3927 20.6775C99.5293 20.6775 101.208 19.6601 102.243 18.3882L100.173 16.6077C99.4783 17.4386 98.5117 17.9643 97.3927 17.9643C95.4256 17.9643 94.1536 16.4551 94.1536 14.522C94.1536 12.3175 95.629 11.0287 97.3757 11.0287C98.5457 11.0287 99.5123 11.6561 100.156 12.4192L102.226 10.6387C100.903 9.02776 99.0715 8.31552 97.3757 8.31552C93.4074 8.31552 91.1689 11.0796 91.1689 14.522C91.1689 18.5239 93.9332 20.6775 97.3927 20.6775ZM103.546 20.5249H106.191V16.3364C106.191 15.0476 106.802 14.4371 107.734 14.4371C108.667 14.4371 109.125 14.8442 109.125 16.1838V20.5249H111.77V15.5224C111.77 12.911 110.499 12.0801 108.786 12.0801C107.768 12.0801 106.87 12.4531 106.225 13.1823L106.191 13.1654V8.04419H103.546V20.5249ZM116.975 20.6775C117.975 20.6775 118.721 20.3384 119.264 19.6431L119.298 19.6601V20.5249H121.825V12.2327H119.162V13.0975L119.128 13.1145C118.552 12.4362 117.721 12.0801 116.839 12.0801C114.702 12.0801 113.058 13.8437 113.058 16.3873C113.058 18.9478 114.702 20.6775 116.975 20.6775ZM117.534 18.3374C116.483 18.3374 115.754 17.5573 115.754 16.3873C115.754 15.2003 116.517 14.4202 117.534 14.4202C118.518 14.4202 119.281 15.2511 119.281 16.3873C119.281 17.5743 118.484 18.3374 117.534 18.3374ZM125.007 11.1983C125.923 11.1983 126.602 10.5369 126.602 9.67212C126.602 8.84118 125.923 8.17989 125.007 8.17989C124.092 8.17989 123.431 8.85818 123.431 9.67212C123.431 10.5369 124.092 11.1983 125.007 11.1983ZM123.685 20.5249H126.33V12.2327H123.685V20.5249ZM128.253 20.5249H130.899V16.3533C130.899 15.0646 131.509 14.4371 132.425 14.4371C133.29 14.4371 133.748 14.8272 133.748 16.2007V20.5249H136.393V15.5563C136.393 12.928 135.138 12.0801 133.425 12.0801C132.459 12.0801 131.577 12.4531 130.933 13.1992H130.899V12.2327H128.253V20.5249Z" fill="#04795B"/>
<path d="M9.24978 16.9855C10.1122 16.9855 10.9083 16.6982 11.5496 16.2008L6.28656 10.9397C5.789 11.5697 5.50152 12.3655 5.50152 13.2387C5.49047 15.3055 7.1711 16.9855 9.24978 16.9855Z" fill="#04795B"/>
<path d="M24.9061 13.2274C24.9061 12.3653 24.6186 11.5695 24.121 10.9285L18.858 16.1895C19.4883 16.6869 20.2844 16.9743 21.1578 16.9743C23.2255 16.9853 24.9061 15.3054 24.9061 13.2274Z" fill="#04795B"/>
<path d="M27.5598 7.51318L25.2268 9.84534C26.0008 10.7737 26.4652 11.9453 26.4652 13.2496C26.4652 16.1785 24.088 18.5549 21.1579 18.5549C19.8642 18.5549 18.6812 18.0906 17.7524 17.317L15.1983 19.8701L12.6442 17.317C11.7154 18.0906 10.5434 18.5549 9.23869 18.5549C6.30862 18.5549 3.93141 16.1785 3.93141 13.2496C3.93141 11.9564 4.39582 10.7737 5.1698 9.84534L3.97567 8.65164L2.8368 7.51318C1.51001 9.70163 0.74707 12.2548 0.74707 14.9959C0.74707 22.976 7.21527 29.4307 15.1872 29.4307C23.1591 29.4307 29.6273 22.9649 29.6273 14.9959C29.6495 12.2438 28.8866 9.69058 27.5598 7.51318Z" fill="#04795B"/>
<path d="M25.6469 5.02639C23.0265 2.27427 19.3114 0.550049 15.1983 0.550049C11.0852 0.550049 7.38117 2.27427 4.74963 5.02639C4.39585 5.40221 4.05311 5.80013 3.73242 6.20904L15.1873 17.6596L26.642 6.19799C26.3546 5.80007 26.0118 5.39116 25.6469 5.02639ZM15.1983 2.42901C18.5817 2.42901 21.7218 3.73323 24.0769 6.10959L15.1983 14.9849L6.3197 6.10959C8.68586 3.73323 11.8149 2.42901 15.1983 2.42901Z" fill="#04795B"/>
</svg>
