<svg width="36" height="36" viewBox="0 0 36 36" fill="none" xmlns="http://www.w3.org/2000/svg">
<path fill-rule="evenodd" clip-rule="evenodd" d="M20.3402 1.88277C20.7056 1.99768 21.0248 2.22617 21.2515 2.53501C21.4781 2.84384 21.6002 3.21692 21.6002 3.59997V12.6H28.8002C29.1295 12.5998 29.4525 12.69 29.734 12.8607C30.0156 13.0313 30.245 13.2759 30.3972 13.5679C30.5494 13.8599 30.6186 14.188 30.5972 14.5165C30.5759 14.8451 30.4649 15.1615 30.2762 15.4314L17.6762 33.4314C17.4569 33.7455 17.1431 33.9815 16.7804 34.105C16.4177 34.2285 16.0251 34.2331 15.6597 34.118C15.2942 34.003 14.975 33.7743 14.7485 33.4653C14.522 33.1563 14.4 32.7831 14.4002 32.4V23.4H7.20021C6.87096 23.4001 6.54798 23.3099 6.26641 23.1393C5.98484 22.9686 5.75547 22.724 5.60327 22.432C5.45107 22.1401 5.38187 21.812 5.40319 21.4834C5.42452 21.1548 5.53555 20.8384 5.72422 20.5686L18.3242 2.56857C18.5438 2.25498 18.8577 2.01959 19.2203 1.89659C19.5828 1.77358 19.9751 1.76937 20.3402 1.88457V1.88277Z" fill="white"/>
</svg>
