<svg width="146" height="28" viewBox="0 0 146 28" fill="none" xmlns="http://www.w3.org/2000/svg">
<path d="M10.6851 6.76808C10.6319 7.36724 10.5919 7.94644 10.5653 8.50566C10.552 9.06488 10.5453 9.49761 10.5453 9.80385C10.5453 10.0968 10.552 10.3764 10.5653 10.6427C10.5786 10.909 10.5919 11.1353 10.6052 11.3217H10.1459C9.97278 10.2832 9.73312 9.47098 9.42688 8.88513C9.12063 8.28596 8.74116 7.85989 8.28846 7.60691C7.84907 7.35393 7.32314 7.22744 6.71066 7.22744H6.05157C5.66545 7.22744 5.37252 7.26072 5.1728 7.3273C4.97308 7.39387 4.83993 7.52702 4.77335 7.72674C4.70678 7.92646 4.67349 8.2327 4.67349 8.64546V18.6715C4.67349 19.1908 4.72675 19.5769 4.83327 19.8299C4.93979 20.0829 5.14617 20.2493 5.45241 20.3292C5.75865 20.4091 6.21135 20.4557 6.81052 20.469V20.9084C6.39776 20.8951 5.86517 20.8818 5.21274 20.8684C4.56032 20.8551 3.87461 20.8485 3.15561 20.8485C2.58307 20.8485 2.02385 20.8551 1.47794 20.8684C0.932035 20.8818 0.439388 20.8951 0 20.9084V20.5089C0.426073 20.4823 0.745629 20.4291 0.958665 20.3492C1.1717 20.2693 1.31151 20.1095 1.37808 19.8698C1.45797 19.6302 1.49791 19.2707 1.49791 18.7913V8.88513C1.49791 8.39248 1.45797 8.03298 1.37808 7.80663C1.31151 7.56696 1.16504 7.40719 0.938693 7.3273C0.725656 7.23409 0.412759 7.18083 0 7.16752V6.76808C0.545907 6.78139 1.1251 6.79471 1.73758 6.80802C2.35006 6.80802 2.95588 6.81468 3.55505 6.82799C4.15422 6.82799 4.71344 6.82799 5.23271 6.82799C5.75199 6.82799 6.17807 6.82799 6.51094 6.82799C7.12342 6.82799 7.81578 6.82799 8.58804 6.82799C9.37362 6.81468 10.0726 6.79471 10.6851 6.76808ZM7.70927 13.6785C7.70927 13.6785 7.70927 13.745 7.70927 13.8782C7.70927 14.0113 7.70927 14.0779 7.70927 14.0779H4.07433C4.07433 14.0779 4.07433 14.0113 4.07433 13.8782C4.07433 13.745 4.07433 13.6785 4.07433 13.6785H7.70927ZM8.20857 11.0421C8.15531 11.8011 8.12868 12.3803 8.12868 12.7797C8.142 13.1791 8.14865 13.5453 8.14865 13.8782C8.14865 14.211 8.15531 14.5772 8.16863 14.9766C8.18194 15.3761 8.21523 15.9553 8.26849 16.7142H7.80913C7.72924 16.2482 7.60275 15.8155 7.42966 15.416C7.25656 15.0166 7.00358 14.697 6.67071 14.4574C6.33784 14.2044 5.90511 14.0779 5.37252 14.0779V13.6785C5.77196 13.6785 6.10483 13.5986 6.37113 13.4388C6.65074 13.2657 6.88375 13.046 7.07016 12.7797C7.25656 12.5001 7.40303 12.2072 7.50954 11.9009C7.61606 11.5947 7.69595 11.3084 7.74921 11.0421H8.20857Z" fill="white"/>
<path d="M16.2655 10.3032C17.2375 10.3032 18.0896 10.4829 18.8219 10.8424C19.5542 11.2019 20.1268 11.7811 20.5395 12.58C20.9523 13.3789 21.1587 14.4374 21.1587 15.7556C21.1587 17.0737 20.9523 18.1323 20.5395 18.9311C20.1268 19.7167 19.5542 20.2893 18.8219 20.6488C18.0896 21.0082 17.2375 21.188 16.2655 21.188C15.3201 21.188 14.4746 21.0082 13.729 20.6488C12.9967 20.2893 12.4175 19.7167 11.9914 18.9311C11.5787 18.1323 11.3723 17.0737 11.3723 15.7556C11.3723 14.4374 11.5787 13.3789 11.9914 12.58C12.4175 11.7811 12.9967 11.2019 13.729 10.8424C14.4746 10.4829 15.3201 10.3032 16.2655 10.3032ZM16.2655 10.7026C15.7329 10.7026 15.2868 11.102 14.9273 11.9009C14.5678 12.6865 14.3881 13.9714 14.3881 15.7556C14.3881 17.5397 14.5678 18.8246 14.9273 19.6102C15.2868 20.3958 15.7329 20.7886 16.2655 20.7886C16.8114 20.7886 17.2574 20.3958 17.6036 19.6102C17.9631 18.8246 18.1429 17.5397 18.1429 15.7556C18.1429 13.9714 17.9631 12.6865 17.6036 11.9009C17.2574 11.102 16.8114 10.7026 16.2655 10.7026Z" fill="white"/>
<path d="M29.276 10.3032C29.702 10.3032 30.0482 10.3964 30.3145 10.5828C30.5808 10.7559 30.7739 10.9822 30.8937 11.2618C31.0269 11.5414 31.0934 11.8344 31.0934 12.1406C31.0934 12.6332 30.947 13.0393 30.654 13.3589C30.3744 13.6651 30.0016 13.8183 29.5356 13.8183C29.0696 13.8183 28.7034 13.7051 28.4371 13.4787C28.1841 13.2391 28.0577 12.9262 28.0577 12.54C28.0577 12.1672 28.1375 11.861 28.2973 11.6213C28.4704 11.3683 28.6834 11.1553 28.9364 10.9822C28.75 10.9289 28.5636 10.9356 28.3772 11.0022C28.1242 11.0421 27.8846 11.1486 27.6582 11.3217C27.4319 11.4815 27.2388 11.6879 27.079 11.9409C26.9192 12.1805 26.7927 12.4468 26.6995 12.7398C26.6063 13.0194 26.5597 13.2923 26.5597 13.5586V18.8513C26.5597 19.4904 26.7129 19.9231 27.0191 20.1494C27.3387 20.3758 27.8113 20.489 28.4371 20.489V20.9084C28.1309 20.8951 27.6848 20.8818 27.099 20.8684C26.5131 20.8418 25.9007 20.8285 25.2615 20.8285C24.729 20.8285 24.1897 20.8418 23.6438 20.8684C23.0979 20.8818 22.6851 20.8951 22.4055 20.9084V20.489C22.8715 20.489 23.1978 20.3891 23.3842 20.1894C23.5839 19.9897 23.6837 19.6102 23.6837 19.051V12.7597C23.6837 12.1606 23.5905 11.7212 23.4041 11.4416C23.231 11.1486 22.8982 11.0022 22.4055 11.0022V10.5828C22.8316 10.6227 23.2444 10.6427 23.6438 10.6427C24.203 10.6427 24.7223 10.6227 25.2016 10.5828C25.6943 10.5295 26.147 10.4563 26.5597 10.3631V12.2205C26.7195 11.861 26.9326 11.5348 27.1988 11.2418C27.4651 10.9489 27.7714 10.7226 28.1176 10.5628C28.4638 10.3897 28.8499 10.3032 29.276 10.3032Z" fill="white"/>
<path d="M36.6083 10.3032C37.78 10.3032 38.6987 10.6493 39.3644 11.3417C40.0302 12.0341 40.363 13.1658 40.363 14.737H33.7922L33.7522 14.3575H37.8465C37.8598 13.7051 37.8199 13.1059 37.7267 12.56C37.6335 12.0008 37.487 11.5547 37.2873 11.2219C37.0876 10.889 36.8213 10.7226 36.4884 10.7226C36.0224 10.7226 35.623 11.0155 35.2901 11.6013C34.9705 12.1872 34.7775 13.1592 34.7109 14.5173L34.7708 14.6371C34.7575 14.7969 34.7442 14.9633 34.7309 15.1364C34.7309 15.3095 34.7309 15.4893 34.7309 15.6757C34.7309 16.5944 34.8574 17.34 35.1103 17.9126C35.3766 18.4851 35.7095 18.9045 36.1089 19.1708C36.5084 19.4238 36.9145 19.5503 37.3272 19.5503C37.6069 19.5503 37.8931 19.5103 38.1861 19.4304C38.4923 19.3372 38.7985 19.1775 39.1048 18.9511C39.411 18.7114 39.6973 18.3786 39.9636 17.9525L40.3231 18.0723C40.1633 18.5783 39.9103 19.0709 39.5641 19.5503C39.2179 20.0296 38.7786 20.4224 38.246 20.7286C37.7134 21.0349 37.0743 21.188 36.3286 21.188C35.4232 21.188 34.6243 20.9949 33.932 20.6088C33.2396 20.2227 32.6937 19.6368 32.2943 18.8513C31.9081 18.0657 31.7151 17.0671 31.7151 15.8554C31.7151 14.6171 31.9214 13.5853 32.3342 12.7597C32.7603 11.9342 33.3395 11.3217 34.0718 10.9223C34.8174 10.5095 35.6629 10.3032 36.6083 10.3032Z" fill="white"/>
<path d="M45.474 10.3032C46.0333 10.3032 46.5192 10.3764 46.932 10.5228C47.3581 10.656 47.6643 10.7891 47.8507 10.9223C48.3034 11.2285 48.583 11.0288 48.6896 10.3231H49.109C49.0823 10.6959 49.0624 11.1553 49.0491 11.7012C49.0357 12.2338 49.0291 12.9461 49.0291 13.8382H48.6097C48.5431 13.3456 48.4166 12.8596 48.2302 12.3803C48.0438 11.9009 47.7708 11.5081 47.4113 11.2019C47.0651 10.8957 46.6124 10.7425 46.0532 10.7425C45.6671 10.7425 45.3409 10.8557 45.0746 11.0821C44.8083 11.2951 44.6751 11.608 44.6751 12.0208C44.6751 12.4202 44.795 12.773 45.0346 13.0793C45.2743 13.3722 45.5806 13.6585 45.9534 13.9381C46.3395 14.2044 46.7389 14.4907 47.1517 14.7969C47.5911 15.1298 47.9905 15.4626 48.35 15.7955C48.7095 16.1151 48.9958 16.4679 49.2088 16.854C49.4219 17.2402 49.5284 17.6995 49.5284 18.2321C49.5284 18.8313 49.3553 19.3572 49.0091 19.8099C48.6629 20.2493 48.2036 20.5888 47.631 20.8285C47.0718 21.0682 46.446 21.188 45.7536 21.188C45.3542 21.188 44.9947 21.1481 44.6751 21.0682C44.3689 20.9883 44.1026 20.8884 43.8763 20.7686C43.7032 20.6887 43.5367 20.6155 43.377 20.5489C43.2305 20.469 43.0907 20.4024 42.9575 20.3492C42.8244 20.3092 42.7046 20.3558 42.598 20.489C42.5048 20.6221 42.4316 20.8085 42.3783 21.0482H41.9589C41.9856 20.6221 42.0055 20.1028 42.0188 19.4904C42.0322 18.8779 42.0388 18.0657 42.0388 17.0538H42.4582C42.5381 17.7728 42.6846 18.4119 42.8976 18.9711C43.1107 19.517 43.3969 19.9497 43.7564 20.2693C44.1292 20.5755 44.5953 20.7286 45.1545 20.7286C45.3808 20.7286 45.6005 20.682 45.8136 20.5888C46.0266 20.4956 46.1997 20.3425 46.3328 20.1295C46.4793 19.9164 46.5525 19.6435 46.5525 19.3106C46.5525 18.7248 46.3595 18.2388 45.9733 17.8526C45.6005 17.4665 45.1212 17.0471 44.5353 16.5944C44.1093 16.2482 43.7032 15.9087 43.317 15.5758C42.9442 15.2296 42.638 14.8568 42.3983 14.4574C42.1586 14.0446 42.0388 13.5786 42.0388 13.0593C42.0388 12.4602 42.1986 11.9542 42.5181 11.5414C42.8377 11.1287 43.2571 10.8224 43.7764 10.6227C44.309 10.4097 44.8749 10.3032 45.474 10.3032Z" fill="white"/>
<path d="M54.7993 7.30732V10.5828H57.156V10.9822H54.7993V19.051C54.7993 19.4504 54.8726 19.7367 55.019 19.9098C55.1655 20.0696 55.3852 20.1494 55.6781 20.1494C55.9178 20.1494 56.1574 20.0629 56.3971 19.8898C56.6368 19.7034 56.8498 19.3905 57.0362 18.9511L57.3757 19.1309C57.1627 19.73 56.8365 20.2227 56.3971 20.6088C55.971 20.9949 55.3852 21.188 54.6396 21.188C54.2002 21.188 53.814 21.1281 53.4812 21.0082C53.1483 20.9017 52.8687 20.7353 52.6423 20.5089C52.3494 20.216 52.1563 19.8565 52.0631 19.4304C51.9699 18.9911 51.9233 18.4252 51.9233 17.7328V10.9822H50.2457V10.5828H51.9233V7.94643C52.4826 7.94643 52.9952 7.89983 53.4612 7.80663C53.9405 7.70011 54.3866 7.53368 54.7993 7.30732Z" fill="white"/>
<path d="M66.7626 6.38316L71.0747 18.6105H71.2449L75.5571 6.38316H77.4012L72.0677 20.9084H70.252L64.9185 6.38316H66.7626ZM71.1598 27.2915C69.6515 27.2915 68.2141 27.0622 66.8477 26.6036C65.4859 26.1449 64.2353 25.4972 63.0958 24.6603C61.961 23.8281 60.9752 22.8422 60.1383 21.7027C59.3061 20.568 58.6607 19.3197 58.202 17.958C57.7434 16.5915 57.5141 15.1541 57.5141 13.6458C57.5141 12.1375 57.7434 10.7024 58.202 9.34069C58.6607 7.97422 59.3061 6.72359 60.1383 5.58881C60.9752 4.4493 61.961 3.46345 63.0958 2.63128C64.2353 1.79438 65.4859 1.1466 66.8477 0.687962C68.2141 0.229321 69.6515 0 71.1598 0C72.6682 0 74.1032 0.229321 75.4649 0.687962C76.8314 1.1466 78.082 1.79438 79.2168 2.63128C80.3563 3.46345 81.3422 4.4493 82.1743 5.58881C83.0112 6.72359 83.659 7.97422 84.1176 9.34069C84.5763 10.7024 84.8056 12.1375 84.8056 13.6458C84.8056 15.1541 84.5763 16.5915 84.1176 17.958C83.659 19.3197 83.0112 20.568 82.1743 21.7027C81.3422 22.8422 80.3563 23.8281 79.2168 24.6603C78.082 25.4972 76.8314 26.1449 75.4649 26.6036C74.1032 27.0622 72.6682 27.2915 71.1598 27.2915ZM71.1598 25.6461C72.4885 25.6461 73.7509 25.4428 74.9472 25.0362C76.1482 24.6343 77.2475 24.0645 78.2452 23.3269C79.2475 22.594 80.1152 21.7287 80.8481 20.7311C81.5857 19.7287 82.1554 18.6294 82.5573 17.4331C82.9592 16.2321 83.1602 14.9697 83.1602 13.6458C83.1602 12.3171 82.9592 11.0547 82.5573 9.85843C82.1554 8.65745 81.5857 7.55813 80.8481 6.56047C80.1152 5.55808 79.2475 4.69044 78.2452 3.95756C77.2475 3.21995 76.1482 2.65019 74.9472 2.24829C73.7509 1.84639 72.4885 1.64544 71.1598 1.64544C69.8312 1.64544 68.5664 1.84639 67.3654 2.24829C66.1692 2.65019 65.0698 3.21995 64.0674 3.95756C63.0698 4.69044 62.2021 5.55808 61.4645 6.56047C60.7317 7.55813 60.1643 8.65745 59.7624 9.85843C59.3605 11.0547 59.1595 12.3171 59.1595 13.6458C59.1595 14.9697 59.3605 16.2321 59.7624 17.4331C60.1643 18.6294 60.7317 19.7287 61.4645 20.7311C62.2021 21.7287 63.0698 22.594 64.0674 23.3269C65.0698 24.0645 66.1692 24.6343 67.3654 25.0362C68.5664 25.4428 69.8312 25.6461 71.1598 25.6461Z" fill="white"/>
<path d="M98.8822 6.76808V7.16752C98.4561 7.22078 98.1365 7.33395 97.9235 7.50705C97.7105 7.66682 97.564 7.92646 97.4841 8.28596C97.4175 8.64546 97.3843 9.15142 97.3843 9.80385V20.9483C97.2245 20.935 97.058 20.9284 96.8849 20.9284C96.7252 20.9284 96.5521 20.935 96.3657 20.9483L87.6977 9.96363V17.6329C87.6977 18.3653 87.7377 18.9311 87.8176 19.3306C87.8975 19.7167 88.0706 19.9963 88.3368 20.1694C88.6165 20.3292 89.0492 20.4424 89.635 20.5089V20.9084C89.3821 20.8818 89.0492 20.8684 88.6364 20.8684C88.2237 20.8551 87.8375 20.8485 87.478 20.8485C87.1718 20.8485 86.8589 20.8551 86.5394 20.8684C86.2198 20.8684 85.9535 20.8818 85.7405 20.9084V20.5089C86.1665 20.4424 86.4861 20.3292 86.6991 20.1694C86.9122 20.0096 87.052 19.75 87.1185 19.3905C87.1984 19.0177 87.2384 18.5117 87.2384 17.8726V8.88513C87.2384 8.39248 87.1984 8.03298 87.1185 7.80663C87.052 7.56696 86.9055 7.40719 86.6792 7.3273C86.4661 7.23409 86.1532 7.18083 85.7405 7.16752V6.76808C85.9535 6.78139 86.2198 6.79471 86.5394 6.80802C86.8589 6.82133 87.1718 6.82799 87.478 6.82799C87.7976 6.82799 88.1038 6.82133 88.3968 6.80802C88.6897 6.79471 88.956 6.78139 89.1957 6.76808L96.9249 16.2948V10.0435C96.9249 9.3112 96.885 8.75198 96.8051 8.36585C96.7252 7.96641 96.5454 7.68014 96.2658 7.50705C95.9995 7.33395 95.5734 7.22078 94.9876 7.16752V6.76808C95.2406 6.78139 95.5734 6.79471 95.9862 6.80802C96.399 6.82133 96.7851 6.82799 97.1446 6.82799C97.4641 6.82799 97.777 6.82133 98.0833 6.80802C98.4028 6.79471 98.6691 6.78139 98.8822 6.76808Z" fill="white"/>
<path d="M102.281 21.0482C101.682 21.0482 101.182 20.935 100.783 20.7087C100.384 20.4823 100.091 20.1827 99.9042 19.8099C99.7178 19.4238 99.6246 19.0044 99.6246 18.5517C99.6246 17.9791 99.7511 17.5131 100.004 17.1536C100.27 16.7941 100.61 16.5012 101.023 16.2748C101.435 16.0485 101.868 15.8621 102.321 15.7156C102.787 15.5692 103.226 15.4294 103.639 15.2962C104.065 15.1497 104.405 14.9833 104.658 14.7969C104.924 14.5972 105.057 14.3442 105.057 14.038V12.4801C105.057 12.1339 104.997 11.8277 104.877 11.5614C104.771 11.2818 104.598 11.0688 104.358 10.9223C104.132 10.7758 103.832 10.7026 103.459 10.7026C103.193 10.7026 102.927 10.7425 102.66 10.8224C102.394 10.889 102.174 11.0088 102.001 11.1819C102.374 11.3151 102.66 11.5215 102.86 11.8011C103.073 12.0674 103.18 12.3736 103.18 12.7198C103.18 13.1725 103.02 13.532 102.7 13.7983C102.394 14.0646 102.028 14.1977 101.602 14.1977C101.122 14.1977 100.756 14.0513 100.503 13.7583C100.264 13.4521 100.144 13.0859 100.144 12.6599C100.144 12.2737 100.237 11.9542 100.423 11.7012C100.623 11.4482 100.896 11.2086 101.242 10.9822C101.615 10.7692 102.061 10.6027 102.58 10.4829C103.113 10.3631 103.686 10.3032 104.298 10.3032C104.911 10.3032 105.463 10.3697 105.956 10.5029C106.448 10.6227 106.861 10.8491 107.194 11.1819C107.5 11.4882 107.7 11.8676 107.793 12.3203C107.886 12.7597 107.933 13.319 107.933 13.998V19.4304C107.933 19.7633 107.966 19.9963 108.033 20.1295C108.099 20.2493 108.213 20.3092 108.372 20.3092C108.492 20.3092 108.605 20.2759 108.712 20.2094C108.832 20.1428 108.958 20.0629 109.091 19.9697L109.291 20.3092C109.012 20.5489 108.685 20.7353 108.312 20.8684C107.953 20.9883 107.547 21.0482 107.094 21.0482C106.602 21.0482 106.209 20.9816 105.916 20.8485C105.623 20.702 105.41 20.5089 105.277 20.2693C105.157 20.0296 105.097 19.75 105.097 19.4304C104.777 19.9364 104.391 20.3359 103.939 20.6288C103.486 20.9084 102.933 21.0482 102.281 21.0482ZM103.699 19.77C103.965 19.77 104.205 19.7101 104.418 19.5902C104.644 19.4571 104.857 19.244 105.057 18.9511V14.8568C104.937 15.0565 104.771 15.2363 104.558 15.3961C104.345 15.5558 104.118 15.7223 103.879 15.8954C103.639 16.0551 103.406 16.2349 103.18 16.4346C102.967 16.6343 102.793 16.8807 102.66 17.1736C102.527 17.4665 102.461 17.8194 102.461 18.2321C102.461 18.7514 102.574 19.1375 102.8 19.3905C103.026 19.6435 103.326 19.77 103.699 19.77Z" fill="white"/>
<path d="M113.916 7.30732V10.5828H116.273V10.9822H113.916V19.051C113.916 19.4504 113.989 19.7367 114.136 19.9098C114.282 20.0696 114.502 20.1494 114.795 20.1494C115.035 20.1494 115.274 20.0629 115.514 19.8898C115.754 19.7034 115.967 19.3905 116.153 18.9511L116.493 19.1309C116.28 19.73 115.953 20.2227 115.514 20.6088C115.088 20.9949 114.502 21.188 113.756 21.188C113.317 21.188 112.931 21.1281 112.598 21.0082C112.265 20.9017 111.986 20.7353 111.759 20.5089C111.466 20.216 111.273 19.8565 111.18 19.4304C111.087 18.9911 111.04 18.4252 111.04 17.7328V10.9822H109.363V10.5828H111.04V7.94643C111.599 7.94643 112.112 7.89983 112.578 7.80663C113.057 7.70011 113.503 7.53368 113.916 7.30732Z" fill="white"/>
<path d="M119.48 5.42994C120.039 5.42994 120.478 5.56974 120.798 5.84936C121.131 6.11565 121.297 6.48847 121.297 6.9678C121.297 7.44713 121.131 7.8266 120.798 8.10621C120.478 8.37251 120.039 8.50566 119.48 8.50566C118.921 8.50566 118.474 8.37251 118.142 8.10621C117.822 7.8266 117.662 7.44713 117.662 6.9678C117.662 6.48847 117.822 6.11565 118.142 5.84936C118.474 5.56974 118.921 5.42994 119.48 5.42994ZM121.038 10.3631V19.051C121.038 19.6102 121.131 19.9897 121.317 20.1894C121.517 20.3891 121.85 20.489 122.316 20.489V20.9084C122.076 20.8951 121.703 20.8818 121.197 20.8684C120.691 20.8418 120.179 20.8285 119.659 20.8285C119.14 20.8285 118.614 20.8418 118.082 20.8684C117.549 20.8818 117.15 20.8951 116.883 20.9084V20.489C117.349 20.489 117.676 20.3891 117.862 20.1894C118.062 19.9897 118.162 19.6102 118.162 19.051V12.7597C118.162 12.1606 118.068 11.7212 117.882 11.4416C117.709 11.1486 117.376 11.0022 116.883 11.0022V10.5828C117.309 10.6227 117.722 10.6427 118.122 10.6427C118.681 10.6427 119.2 10.6227 119.679 10.5828C120.172 10.5295 120.625 10.4563 121.038 10.3631Z" fill="white"/>
<path d="M128.336 10.3032C129.308 10.3032 130.16 10.4829 130.892 10.8424C131.625 11.2019 132.197 11.7811 132.61 12.58C133.023 13.3789 133.229 14.4374 133.229 15.7556C133.229 17.0737 133.023 18.1323 132.61 18.9311C132.197 19.7167 131.625 20.2893 130.892 20.6488C130.16 21.0082 129.308 21.188 128.336 21.188C127.391 21.188 126.545 21.0082 125.8 20.6488C125.067 20.2893 124.488 19.7167 124.062 18.9311C123.649 18.1323 123.443 17.0737 123.443 15.7556C123.443 14.4374 123.649 13.3789 124.062 12.58C124.488 11.7811 125.067 11.2019 125.8 10.8424C126.545 10.4829 127.391 10.3032 128.336 10.3032ZM128.336 10.7026C127.803 10.7026 127.357 11.102 126.998 11.9009C126.638 12.6865 126.459 13.9714 126.459 15.7556C126.459 17.5397 126.638 18.8246 126.998 19.6102C127.357 20.3958 127.803 20.7886 128.336 20.7886C128.882 20.7886 129.328 20.3958 129.674 19.6102C130.034 18.8246 130.213 17.5397 130.213 15.7556C130.213 13.9714 130.034 12.6865 129.674 11.9009C129.328 11.102 128.882 10.7026 128.336 10.7026Z" fill="white"/>
<path d="M141.906 10.3032C142.465 10.3032 142.918 10.3764 143.264 10.5228C143.623 10.656 143.903 10.8424 144.103 11.0821C144.316 11.3351 144.469 11.6613 144.562 12.0607C144.669 12.4602 144.722 12.9994 144.722 13.6785V19.051C144.722 19.6102 144.815 19.9897 145.001 20.1894C145.201 20.3891 145.534 20.489 146 20.489V20.9084C145.747 20.8951 145.368 20.8818 144.862 20.8684C144.356 20.8418 143.856 20.8285 143.364 20.8285C142.858 20.8285 142.358 20.8418 141.866 20.8684C141.386 20.8818 141.02 20.8951 140.767 20.9084V20.489C141.167 20.489 141.446 20.3891 141.606 20.1894C141.766 19.9897 141.846 19.6102 141.846 19.051V12.8396C141.846 12.5068 141.812 12.2205 141.746 11.9808C141.679 11.7278 141.56 11.5348 141.386 11.4016C141.213 11.2552 140.954 11.1819 140.608 11.1819C140.248 11.1819 139.915 11.2818 139.609 11.4815C139.316 11.6812 139.076 11.9608 138.89 12.3203C138.717 12.6665 138.63 13.0593 138.63 13.4987V19.051C138.63 19.6102 138.71 19.9897 138.87 20.1894C139.043 20.3891 139.323 20.489 139.709 20.489V20.9084C139.469 20.8951 139.116 20.8818 138.65 20.8684C138.198 20.8418 137.725 20.8285 137.232 20.8285C136.726 20.8285 136.207 20.8418 135.674 20.8684C135.142 20.8818 134.742 20.8951 134.476 20.9084V20.489C134.942 20.489 135.268 20.3891 135.455 20.1894C135.654 19.9897 135.754 19.6102 135.754 19.051V12.7597C135.754 12.1606 135.661 11.7212 135.475 11.4416C135.302 11.1486 134.969 11.0022 134.476 11.0022V10.5828C134.902 10.6227 135.315 10.6427 135.714 10.6427C136.274 10.6427 136.793 10.6227 137.272 10.5828C137.765 10.5295 138.218 10.4563 138.63 10.3631V12.1606C138.963 11.4815 139.416 11.0022 139.988 10.7226C140.561 10.443 141.2 10.3032 141.906 10.3032Z" fill="white"/>
</svg>
