<svg width="159" height="67" viewBox="0 0 159 67" fill="none" xmlns="http://www.w3.org/2000/svg">
<path d="M79.1689 28.138C79.2058 28.138 79.2412 28.1527 79.2672 28.1787C79.2933 28.2048 79.3079 28.2401 79.3079 28.2769V34.038C79.3079 36.7686 77.5968 38.1144 75.3409 38.1144C73.0849 38.1144 71.3738 36.7686 71.3738 34.038V28.2741C71.3738 28.2373 71.3884 28.202 71.4145 28.1759C71.4406 28.1499 71.4759 28.1353 71.5128 28.1353H72.8527C72.8896 28.1353 72.925 28.1499 72.951 28.1759C72.9771 28.202 72.9917 28.2373 72.9917 28.2741V33.9366C72.9917 35.8422 73.987 36.5978 75.3478 36.5978C76.7086 36.5978 77.6927 35.8422 77.6927 33.9366V28.2741C77.6927 28.2373 77.7074 28.202 77.7335 28.1759C77.7595 28.1499 77.7949 28.1353 77.8318 28.1353L79.1689 28.138Z" fill="#EFF4FD"/>
<path d="M102.656 33.042C102.642 35.9267 100.44 38.1129 97.5673 38.1129C94.6942 38.1129 92.4785 35.9267 92.4785 33.042C92.4785 30.1573 94.6942 27.9712 97.5673 27.9712C100.44 27.9712 102.642 30.1573 102.656 33.042ZM94.077 33.042C94.077 35.0865 95.5768 36.599 97.5673 36.599C99.5578 36.599 101.042 35.0865 101.042 33.042C101.042 30.9976 99.5425 29.4851 97.5673 29.4851C95.5921 29.4851 94.077 30.9976 94.077 33.042Z" fill="#EFF4FD"/>
<path d="M116.581 37.944H115.191C115.169 37.9433 115.148 37.9375 115.129 37.9269C115.109 37.9163 115.093 37.9014 115.081 37.8832C115.068 37.865 115.06 37.8442 115.058 37.8224C115.055 37.8007 115.057 37.7785 115.065 37.7579L118.736 28.2829C118.751 28.2445 118.777 28.2115 118.811 28.1882C118.845 28.1649 118.885 28.1524 118.926 28.1523H120.662C120.704 28.1522 120.744 28.1646 120.778 28.1879C120.812 28.2112 120.838 28.2444 120.853 28.2829L124.527 37.7634C124.534 37.7841 124.537 37.8062 124.534 37.828C124.531 37.8498 124.523 37.8706 124.511 37.8888C124.499 37.9069 124.482 37.9219 124.463 37.9325C124.444 37.943 124.422 37.9489 124.4 37.9496H123.007C122.98 37.9492 122.953 37.9405 122.93 37.9247C122.907 37.9089 122.89 37.8866 122.88 37.8607L119.919 30.0593C119.908 30.0346 119.89 30.0137 119.868 29.999C119.845 29.9843 119.819 29.9764 119.792 29.9764C119.765 29.9764 119.738 29.9843 119.716 29.999C119.693 30.0137 119.675 30.0346 119.664 30.0593L116.704 37.8607C116.693 37.8847 116.676 37.9052 116.655 37.92C116.633 37.9347 116.608 37.943 116.581 37.944V37.944Z" fill="#EFF4FD"/>
<path d="M61.0126 37.944H59.6226C59.6006 37.9433 59.5791 37.9375 59.5599 37.9269C59.5406 37.9163 59.5241 37.9014 59.5118 37.8832C59.4995 37.865 59.4916 37.8442 59.4889 37.8224C59.4861 37.8007 59.4886 37.7785 59.4961 37.7579L63.1671 28.2829C63.1818 28.2444 63.2079 28.2112 63.2419 28.1879C63.2759 28.1646 63.3163 28.1522 63.3575 28.1523H65.0937C65.1349 28.1524 65.1751 28.1649 65.2091 28.1882C65.2431 28.2115 65.2692 28.2445 65.2841 28.2829L68.9523 37.7634C68.9598 37.7841 68.9623 37.8062 68.9595 37.828C68.9568 37.8498 68.949 37.8706 68.9366 37.8888C68.9243 37.9069 68.9078 37.9219 68.8885 37.9325C68.8693 37.943 68.8478 37.9489 68.8258 37.9496H67.4358C67.4081 37.9492 67.381 37.9405 67.3582 37.9247C67.3355 37.9089 67.3179 37.8866 67.3079 37.8607L64.3486 30.0537C64.3377 30.0291 64.3199 30.0081 64.2973 29.9934C64.2748 29.9787 64.2484 29.9709 64.2214 29.9709C64.1945 29.9709 64.1681 29.9787 64.1455 29.9934C64.1229 30.0081 64.1051 30.0291 64.0942 30.0537L61.1335 37.8551C61.124 37.8799 61.1075 37.9015 61.0861 37.9173C61.0647 37.933 61.0392 37.9423 61.0126 37.944Z" fill="#EFF4FD"/>
<path d="M112.502 37.7232L109.748 34.2093C111.302 33.9148 112.211 32.8662 112.211 31.2579C112.211 29.4107 111.008 28.1523 108.875 28.1523H105.039C104.985 28.1523 104.933 28.1739 104.895 28.2121C104.856 28.2504 104.835 28.3024 104.835 28.3565V28.3565C104.835 28.7031 104.973 29.0356 105.218 29.2807C105.463 29.5258 105.796 29.6635 106.143 29.6635H108.713C110 29.6635 110.616 30.3204 110.616 31.2718C110.616 32.2232 110.014 32.894 108.713 32.894H105.039C104.985 32.894 104.933 32.9155 104.895 32.9538C104.856 32.9921 104.835 33.044 104.835 33.0982V37.8079C104.835 37.8447 104.849 37.8801 104.875 37.9061C104.901 37.9322 104.937 37.9468 104.974 37.9468H106.283C106.32 37.9468 106.355 37.9322 106.381 37.9061C106.407 37.8801 106.422 37.8447 106.422 37.8079V34.2912H107.934L110.325 37.4093C110.452 37.5751 110.616 37.7095 110.803 37.802C110.99 37.8945 111.196 37.9426 111.405 37.9426H112.401C112.425 37.9406 112.449 37.9321 112.469 37.918C112.489 37.9039 112.505 37.8848 112.515 37.8625C112.526 37.8401 112.53 37.8155 112.527 37.791C112.525 37.7666 112.516 37.7431 112.502 37.7232Z" fill="#EFF4FD"/>
<path d="M90.2708 37.7232L87.5172 34.2093C89.0712 33.9148 89.9817 32.8662 89.9817 31.2579C89.9817 29.4107 88.7779 28.1523 86.6457 28.1523H82.8078C82.7537 28.1523 82.7017 28.1739 82.6634 28.2121C82.625 28.2504 82.6035 28.3024 82.6035 28.3565V28.3565C82.6039 28.703 82.7418 29.0352 82.987 29.2803C83.2322 29.5253 83.5647 29.6631 83.9115 29.6635H86.4816C87.7702 29.6635 88.3859 30.3204 88.3859 31.2718C88.3859 32.2232 87.7841 32.894 86.4816 32.894H82.8078C82.7537 32.894 82.7017 32.9155 82.6634 32.9538C82.625 32.9921 82.6035 33.044 82.6035 33.0982V37.8079C82.6035 37.8447 82.6182 37.8801 82.6442 37.9061C82.6703 37.9322 82.7057 37.9468 82.7425 37.9468H84.0533C84.0902 37.9468 84.1255 37.9322 84.1516 37.9061C84.1776 37.8801 84.1923 37.8447 84.1923 37.8079V34.2912H85.7032L88.094 37.4093C88.2212 37.5749 88.3846 37.7091 88.5719 37.8016C88.7592 37.8941 88.9652 37.9423 89.1741 37.9426H90.1693C90.1938 37.9406 90.2174 37.9321 90.2375 37.918C90.2577 37.9039 90.2738 37.8848 90.2841 37.8625C90.2944 37.8401 90.2986 37.8155 90.2963 37.791C90.2939 37.7666 90.2851 37.7431 90.2708 37.7232Z" fill="#EFF4FD"/>
<path d="M44.4714 24.5693C44.8846 24.568 45.2899 24.6823 45.6414 24.8993C45.993 25.1163 46.2767 25.4273 46.4605 25.7971L52.7155 38.2971C52.8852 38.6359 52.9653 39.0124 52.9484 39.3909C52.9314 39.7694 52.8179 40.1373 52.6186 40.4596C52.4193 40.7819 52.1408 41.0479 51.8096 41.2324C51.4785 41.4169 51.1056 41.5138 50.7264 41.5137H38.2163C37.8372 41.5138 37.4643 41.4169 37.1331 41.2324C36.8019 41.0479 36.5235 40.7819 36.3241 40.4596C36.1248 40.1373 36.0113 39.7694 35.9944 39.3909C35.9774 39.0124 36.0576 38.6359 36.2272 38.2971L42.4823 25.7971C42.666 25.4273 42.9497 25.1163 43.3013 24.8993C43.6528 24.6823 44.0582 24.568 44.4714 24.5693ZM44.4714 23.0415C43.7745 23.0414 43.0913 23.2352 42.4984 23.6012C41.9055 23.9672 41.4263 24.491 41.1145 25.1137L34.8595 37.6137C34.5732 38.1855 34.438 38.8209 34.4667 39.4596C34.4953 40.0982 34.6869 40.719 35.0233 41.2628C35.3597 41.8067 35.8296 42.2556 36.3884 42.5669C36.9473 42.8782 37.5765 43.0416 38.2163 43.0415H50.7264C51.3662 43.0416 51.9955 42.8782 52.5543 42.5669C53.1132 42.2556 53.5831 41.8067 53.9194 41.2628C54.2558 40.719 54.4474 40.0982 54.4761 39.4596C54.5047 38.8209 54.3695 38.1855 54.0833 37.6137L47.8282 25.1137C47.5164 24.491 47.0372 23.9672 46.4443 23.6012C45.8515 23.2352 45.1683 23.0414 44.4714 23.0415V23.0415Z" fill="#70D44B"/>
</svg>
