<svg width="159" height="67" viewBox="0 0 159 67" fill="none" xmlns="http://www.w3.org/2000/svg">
<path d="M138.457 29.1892C138.655 29.1892 138.794 29.2684 138.873 29.4071C138.913 29.4863 138.972 29.6447 138.814 29.8625L136.576 33.2882V35.6248C136.576 35.9417 136.378 36.1397 136.081 36.1397H135.764C135.448 36.1397 135.269 35.9417 135.269 35.6248V33.2882L133.012 29.8625C132.873 29.6249 132.913 29.4665 132.953 29.3873C133.012 29.2486 133.17 29.1694 133.368 29.1694H133.784C134.042 29.1694 134.2 29.2684 134.319 29.4863L135.923 32.0803L137.547 29.4863C137.665 29.2882 137.844 29.1892 138.081 29.1892H138.457V29.1892ZM83.9826 29.1892H80.4579C80.141 29.1892 79.9628 29.3873 79.9628 29.7041V35.6446C79.9628 35.9615 80.1608 36.1595 80.4579 36.1595H80.7747C81.0915 36.1595 81.2697 35.9615 81.2697 35.6446V33.308H83.5668C83.8836 33.308 84.0618 33.0902 84.0618 32.7932V32.6546C84.0618 32.3377 83.8638 32.1397 83.5668 32.1397H81.2697V30.3179H83.9826C84.2994 30.3179 84.4776 30.1199 84.4776 29.8031V29.6645C84.4974 29.3675 84.2994 29.1892 83.9826 29.1892ZM70.3391 29.1892H68.5372C68.2203 29.1892 68.0421 29.3873 68.0421 29.7041V35.6446C68.0421 35.9615 68.2401 36.1595 68.5372 36.1595H70.3589C72.4579 36.1595 73.9035 34.7338 73.9035 32.6942C73.8837 30.615 72.4381 29.1892 70.3391 29.1892ZM72.5371 32.6546C72.5371 34.0209 71.6262 34.9714 70.3193 34.9714H69.349V30.3179H70.3193C71.6262 30.3377 72.5371 31.2882 72.5371 32.6546ZM92.4578 29.1892H92.7746C93.0914 29.1892 93.2697 29.3873 93.2697 29.7041V35.6446C93.2697 35.9615 93.0716 36.1595 92.7746 36.1595H92.4578C92.141 36.1595 91.9627 35.9615 91.9627 35.6446V29.7041C91.9429 29.3675 92.141 29.1892 92.4578 29.1892ZM105.725 29.1892H105.408C105.091 29.1892 104.913 29.3873 104.913 29.7041V33.6645L101.844 29.4863C101.705 29.2882 101.527 29.209 101.309 29.209H101.171C100.854 29.209 100.676 29.4071 100.676 29.7239V35.6644C100.676 35.9813 100.874 36.1793 101.171 36.1793H101.487C101.804 36.1793 101.982 35.9813 101.982 35.6644V31.6843L105.052 35.8823C105.19 36.0803 105.369 36.1595 105.586 36.1595H105.725C106.042 36.1595 106.22 35.9615 106.22 35.6446V29.7041C106.22 29.3675 106.022 29.1892 105.725 29.1892ZM114.101 29.1892H114.418C114.715 29.1892 114.913 29.3873 114.913 29.7041V35.6446C114.913 35.9615 114.715 36.1595 114.418 36.1595H114.101C113.784 36.1595 113.606 35.9615 113.606 35.6446V29.7041C113.606 29.3675 113.784 29.1892 114.101 29.1892ZM126.933 29.1892H122.279C121.982 29.1892 121.784 29.3873 121.784 29.7041V29.8427C121.784 30.1397 121.982 30.3575 122.279 30.3575H123.943V35.6446C123.943 35.9615 124.141 36.1595 124.438 36.1595H124.755C125.071 36.1595 125.25 35.9615 125.25 35.6446V30.3575H126.913C127.23 30.3575 127.408 30.1595 127.408 29.8427V29.7041C127.448 29.3675 127.25 29.1892 126.933 29.1892Z" fill="#DFE0E2"/>
<path d="M49.4285 23.5464C47.2701 23.5464 44.9137 24.6949 42.4186 26.9721C41.2305 28.0414 40.2008 29.1899 39.4484 30.1206C39.4484 30.1206 40.6563 31.4869 41.983 32.9523C42.6959 32.0612 43.7454 30.8533 44.9335 29.7642C47.1513 27.7444 48.5968 27.3285 49.4285 27.3285C52.5374 27.3285 55.072 29.883 55.072 33.0513C55.072 36.18 52.5572 38.7344 49.4285 38.774C49.2899 38.774 49.0919 38.7542 48.8938 38.7146C49.8047 39.1304 50.775 39.4275 51.7057 39.4275C57.4086 39.4275 58.5175 35.5661 58.5967 35.2889C58.7552 34.576 58.8542 33.8433 58.8542 33.0711C58.8146 27.8038 54.6166 23.5464 49.4285 23.5464Z" fill="url(#paint0_linear_2585_2588)"/>
<path d="M29.5078 42.5359C31.6662 42.5359 34.0227 41.3874 36.5177 39.1101C37.7058 38.0408 38.7355 36.8923 39.488 35.9617C39.488 35.9617 38.28 34.5953 36.9533 33.13C36.2405 34.0211 35.191 35.229 34.0028 36.3181C31.785 38.3379 30.3395 38.7537 29.5078 38.7537C26.3989 38.7537 23.8643 36.1993 23.8643 33.031C23.8643 29.9023 26.3791 27.3478 29.5078 27.3082C29.6464 27.3082 29.8445 27.328 30.0425 27.3677C29.1316 26.9518 28.1613 26.6548 27.2306 26.6548C21.5277 26.6548 20.4188 30.5161 20.3396 30.7934C20.1812 31.5062 20.0822 32.2389 20.0822 33.0112C20.102 38.2587 24.3197 42.5359 29.5078 42.5359Z" fill="url(#paint1_linear_2585_2588)"/>
<path d="M33.8444 29.8434C33.2305 29.2493 30.1811 26.8335 27.2504 26.7543C22.0425 26.6355 20.5178 30.3186 20.399 30.8137C21.389 26.6553 25.1118 23.5662 29.5276 23.5464C33.1315 23.5464 36.7553 26.9919 39.4483 30.1206C39.4483 30.1206 39.4483 30.1008 39.4681 30.1008C39.4681 30.1008 40.676 31.4671 42.0028 32.9325C42.0028 32.9325 43.5077 34.675 45.1116 36.2196C45.7255 36.8136 48.775 39.2096 51.6859 39.2888C57.0324 39.4275 58.4977 35.5265 58.5967 35.2295C57.6066 39.4077 53.8839 42.5165 49.4681 42.5364C45.8641 42.5364 42.2404 39.071 39.5275 35.9621L39.5077 35.9819C39.5077 35.9819 38.2998 34.6156 36.9731 33.1503C36.9533 33.1305 35.4484 31.3879 33.8444 29.8434ZM20.3792 30.8335C20.3792 30.8335 20.3792 30.8137 20.3792 30.7939C20.399 30.8137 20.399 30.8335 20.3792 30.8335Z" fill="#29ABE2"/>
<defs>
<linearGradient id="paint0_linear_2585_2588" x1="44.4727" y1="24.9455" x2="57.494" y2="38.3607" gradientUnits="userSpaceOnUse">
<stop offset="0.21" stop-color="#F15A24"/>
<stop offset="0.6841" stop-color="#FBB03B"/>
</linearGradient>
<linearGradient id="paint1_linear_2585_2588" x1="34.4619" y1="41.1319" x2="21.4405" y2="27.7167" gradientUnits="userSpaceOnUse">
<stop offset="0.21" stop-color="#ED1E79"/>
<stop offset="0.8929" stop-color="#522785"/>
</linearGradient>
</defs>
</svg>
