<svg width="159" height="67" viewBox="0 0 159 67" fill="none" xmlns="http://www.w3.org/2000/svg">
<path d="M46.7838 28.9692L41.5435 31.7203V34.9106L43.3459 33.952V35.8019L38.2671 38.7317L34.1853 36.3771C33.8819 36.2021 33.63 35.9504 33.4549 35.6474C33.2798 35.3443 33.1877 35.0005 33.1878 34.6506V29.9424L37.4003 27.5124C37.6637 27.3605 37.9625 27.2806 38.2666 27.2806C38.5707 27.2806 38.8695 27.3605 39.1328 27.5124L43.3454 29.9424L45.9241 28.4547L39.3616 24.6693C39.0284 24.4775 38.6506 24.3765 38.266 24.3765C37.8815 24.3765 37.5037 24.4775 37.1705 24.6693L30.6091 28.4553V36.135C30.6091 36.8498 30.9908 37.5095 31.6098 37.8669L38.2671 41.7065L44.9147 37.8723C45.2218 37.6952 45.4768 37.4405 45.6541 37.1337C45.8314 36.8269 45.9247 36.4789 45.9246 36.1247V32.5819L46.7833 32.1259V28.9692H46.7838Z" fill="#C45F5A"/>
<path d="M58.604 38.9746C57.8137 38.9746 57.0755 38.8342 56.3892 38.5535C55.7029 38.2623 55.0998 37.862 54.5799 37.3525C54.0704 36.8326 53.6701 36.2347 53.379 35.5589C53.0878 34.883 52.9423 34.1499 52.9423 33.3597C52.9423 32.5694 53.0878 31.8364 53.379 31.1605C53.6701 30.4846 54.0704 29.892 54.5799 29.3825C55.0998 28.8626 55.7029 28.4622 56.3892 28.1815C57.0755 27.8903 57.8137 27.7448 58.604 27.7448C59.1135 27.7448 59.6074 27.802 60.0857 27.9163C60.564 28.0307 60.9955 28.1971 61.3802 28.4154C61.5154 28.4882 61.6142 28.587 61.6766 28.7118C61.739 28.8262 61.7702 28.9405 61.7702 29.0549C61.7702 29.2733 61.6974 29.4656 61.5518 29.632C61.4166 29.788 61.2451 29.866 61.0371 29.866C60.9643 29.866 60.8863 29.8556 60.8032 29.8348C60.7304 29.814 60.6628 29.788 60.6004 29.7568C60.3092 29.6112 59.9973 29.502 59.6646 29.4292C59.3318 29.3461 58.9783 29.3045 58.604 29.3045C57.8553 29.3045 57.1794 29.4864 56.5764 29.8504C55.9733 30.2039 55.495 30.6874 55.1414 31.3009C54.7983 31.9144 54.6267 32.6006 54.6267 33.3597C54.6267 34.1083 54.7983 34.7946 55.1414 35.4185C55.495 36.032 55.9733 36.5207 56.5764 36.8846C57.1794 37.2381 57.8553 37.4149 58.604 37.4149C58.9679 37.4149 59.3526 37.3733 59.7582 37.2901C60.1637 37.1965 60.5068 37.077 60.7876 36.9314L60.6628 37.3525V34.3891L60.9123 34.6074H58.8691C58.6404 34.6074 58.448 34.5347 58.292 34.3891C58.1465 34.2435 58.0737 34.0564 58.0737 33.8276C58.0737 33.5988 58.1465 33.4117 58.292 33.2661C58.448 33.1205 58.6404 33.0477 58.8691 33.0477H61.5674C61.7858 33.0477 61.9677 33.1257 62.1133 33.2817C62.2693 33.4273 62.3473 33.6144 62.3473 33.8432V37.3057C62.3473 37.4721 62.3057 37.6125 62.2225 37.7268C62.1393 37.8412 62.0457 37.9348 61.9417 38.0076C61.4738 38.2987 60.9539 38.5327 60.382 38.7095C59.8205 38.8862 59.2279 38.9746 58.604 38.9746Z" fill="#F7F7F9"/>
<path d="M71.1589 30.4898C71.3877 30.4898 71.5749 30.5678 71.7204 30.7238C71.866 30.8694 71.9388 31.0565 71.9388 31.2853V38.0232C71.9388 38.2519 71.866 38.4443 71.7204 38.6003C71.5749 38.7459 71.3877 38.8186 71.1589 38.8186C70.9406 38.8186 70.7534 38.7459 70.5975 38.6003C70.4519 38.4443 70.3791 38.2519 70.3791 38.0232V36.9002L70.7066 36.947C70.7066 37.1342 70.6287 37.3421 70.4727 37.5709C70.3271 37.7996 70.1243 38.0232 69.8644 38.2415C69.6044 38.4495 69.2977 38.6263 68.9442 38.7718C68.5906 38.907 68.2111 38.9746 67.8056 38.9746C67.0881 38.9746 66.4435 38.7926 65.8716 38.4287C65.2997 38.0544 64.8474 37.5449 64.5146 36.9002C64.1819 36.2555 64.0155 35.5225 64.0155 34.701C64.0155 33.8588 64.1819 33.1205 64.5146 32.4863C64.8474 31.8416 65.2945 31.3373 65.856 30.9733C66.4279 30.6094 67.0621 30.4274 67.7588 30.4274C68.2059 30.4274 68.6166 30.5002 68.991 30.6458C69.3757 30.7914 69.7084 30.9785 69.9892 31.2073C70.2699 31.4361 70.4831 31.6804 70.6287 31.9404C70.7846 32.1899 70.8626 32.4291 70.8626 32.6578L70.3791 32.7046V31.2853C70.3791 31.0669 70.4519 30.8798 70.5975 30.7238C70.7534 30.5678 70.9406 30.4898 71.1589 30.4898ZM67.9772 37.5397C68.4659 37.5397 68.8974 37.4149 69.2717 37.1654C69.646 36.9158 69.9372 36.5779 70.1451 36.1515C70.3531 35.7148 70.4571 35.2313 70.4571 34.701C70.4571 34.1603 70.3531 33.6768 70.1451 33.2505C69.9372 32.8242 69.646 32.4863 69.2717 32.2367C68.8974 31.9871 68.4659 31.8624 67.9772 31.8624C67.4989 31.8624 67.0725 31.9871 66.6982 32.2367C66.3343 32.4863 66.0431 32.8242 65.8248 33.2505C65.6168 33.6768 65.5128 34.1603 65.5128 34.701C65.5128 35.2313 65.6168 35.7148 65.8248 36.1515C66.0431 36.5779 66.3343 36.9158 66.6982 37.1654C67.0725 37.4149 67.4989 37.5397 67.9772 37.5397Z" fill="#F7F7F9"/>
<path d="M74.0147 30.7082H77.68C77.8879 30.7082 78.0595 30.781 78.1947 30.9266C78.3402 31.0617 78.413 31.2333 78.413 31.4413C78.413 31.6388 78.3402 31.8052 78.1947 31.9404C78.0595 32.0755 77.8879 32.1431 77.68 32.1431H74.0147C73.8067 32.1431 73.6299 32.0755 73.4844 31.9404C73.3492 31.7948 73.2816 31.6232 73.2816 31.4257C73.2816 31.2177 73.3492 31.0461 73.4844 30.911C73.6299 30.7758 73.8067 30.7082 74.0147 30.7082ZM75.6523 28.6806C75.8811 28.6806 76.0683 28.7586 76.2138 28.9145C76.3594 29.0601 76.4322 29.2473 76.4322 29.476V36.713C76.4322 36.9002 76.4634 37.051 76.5258 37.1654C76.5882 37.2797 76.6714 37.3577 76.7753 37.3993C76.8897 37.4409 77.0041 37.4617 77.1185 37.4617C77.2328 37.4617 77.3316 37.4409 77.4148 37.3993C77.5084 37.3577 77.6176 37.3369 77.7423 37.3369C77.8671 37.3369 77.9815 37.3941 78.0855 37.5085C78.1895 37.6229 78.2414 37.7788 78.2414 37.9764C78.2414 38.226 78.1063 38.4287 77.8359 38.5847C77.5656 38.7407 77.2744 38.8186 76.9625 38.8186C76.7857 38.8186 76.5778 38.803 76.3386 38.7718C76.0995 38.7407 75.8655 38.6627 75.6368 38.5379C75.4184 38.4131 75.2364 38.2156 75.0909 37.9452C74.9453 37.6645 74.8725 37.2745 74.8725 36.7754V29.476C74.8725 29.2473 74.9453 29.0601 75.0909 28.9145C75.2468 28.7586 75.434 28.6806 75.6523 28.6806Z" fill="#F7F7F9"/>
<path d="M83.8854 38.9746C83.0223 38.9746 82.2737 38.7978 81.6394 38.4443C81.0051 38.0804 80.5112 37.5865 80.1577 36.9626C79.8146 36.3283 79.643 35.6057 79.643 34.7946C79.643 33.8796 79.825 33.0997 80.1889 32.4551C80.5632 31.8 81.0467 31.3009 81.6394 30.9577C82.2321 30.6042 82.8612 30.4274 83.5266 30.4274C84.0361 30.4274 84.5197 30.5314 84.9772 30.7394C85.4347 30.937 85.8402 31.2177 86.1937 31.5816C86.5577 31.9352 86.8436 32.3563 87.0516 32.845C87.2595 33.3233 87.3687 33.8484 87.3791 34.4203C87.3687 34.6282 87.2855 34.7998 87.1295 34.935C86.9736 35.0702 86.7916 35.1377 86.5837 35.1377H80.5164L80.1421 33.812H86.0066L85.7102 34.0927V33.7028C85.6894 33.3389 85.5698 33.0218 85.3515 32.7514C85.1331 32.4707 84.8628 32.2575 84.5404 32.1119C84.2181 31.956 83.8802 31.878 83.5266 31.878C83.2147 31.878 82.9132 31.93 82.622 32.0339C82.3413 32.1275 82.0865 32.2835 81.8578 32.5019C81.6394 32.7202 81.4626 33.0114 81.3275 33.3753C81.2027 33.7288 81.1403 34.1707 81.1403 34.701C81.1403 35.2729 81.2599 35.772 81.499 36.1983C81.7382 36.6247 82.0605 36.9574 82.466 37.1965C82.8716 37.4253 83.3187 37.5397 83.8074 37.5397C84.1921 37.5397 84.5093 37.5033 84.7588 37.4305C85.0084 37.3473 85.2163 37.2485 85.3827 37.1342C85.5491 37.0198 85.6946 36.9106 85.8194 36.8066C85.9754 36.713 86.1313 36.6663 86.2873 36.6663C86.4745 36.6663 86.6304 36.7338 86.7552 36.869C86.88 36.9938 86.9424 37.1446 86.9424 37.3213C86.9424 37.5501 86.828 37.758 86.5993 37.9452C86.3185 38.2156 85.9286 38.4547 85.4295 38.6627C84.9408 38.8706 84.4261 38.9746 83.8854 38.9746Z" fill="#F7F7F9"/>
<path d="M97.0653 28.5246C97.2941 28.639 97.4241 28.8158 97.4553 29.0549C97.4968 29.2941 97.4397 29.5124 97.2837 29.71C97.1693 29.866 97.0185 29.9543 96.8314 29.9751C96.6546 29.9959 96.4778 29.9595 96.3011 29.866C95.9995 29.71 95.6824 29.5852 95.3497 29.4916C95.0169 29.398 94.6634 29.3513 94.2891 29.3513C93.6964 29.3513 93.1609 29.45 92.6826 29.6476C92.2147 29.8348 91.8091 30.1103 91.466 30.4742C91.1229 30.8278 90.8577 31.2489 90.6706 31.7376C90.4938 32.2263 90.4054 32.767 90.4054 33.3597C90.4054 34.0148 90.5042 34.597 90.7018 35.1066C90.8993 35.6057 91.1697 36.032 91.5128 36.3855C91.8663 36.7286 92.277 36.9886 92.745 37.1654C93.2233 37.3317 93.738 37.4149 94.2891 37.4149C94.6426 37.4149 94.9857 37.3733 95.3185 37.2901C95.6616 37.2069 95.9839 37.0822 96.2855 36.9158C96.4726 36.8222 96.6546 36.791 96.8314 36.8222C97.0185 36.843 97.1693 36.9314 97.2837 37.0874C97.4605 37.3057 97.5228 37.5293 97.4708 37.758C97.4293 37.9764 97.2993 38.1428 97.0809 38.2571C96.821 38.4027 96.535 38.5275 96.2231 38.6315C95.9111 38.7355 95.594 38.8186 95.2717 38.881C94.9493 38.9434 94.6218 38.9746 94.2891 38.9746C93.5404 38.9746 92.8333 38.8498 92.1679 38.6003C91.5024 38.3507 90.9097 37.9868 90.3898 37.5085C89.8699 37.0302 89.4592 36.4427 89.1576 35.746C88.8665 35.0494 88.7209 34.2539 88.7209 33.3597C88.7209 32.559 88.8561 31.8208 89.1265 31.1449C89.4072 30.4586 89.7971 29.8712 90.2962 29.3825C90.8057 28.8833 91.3984 28.4986 92.0743 28.2283C92.7502 27.9475 93.4884 27.8072 94.2891 27.8072C94.7882 27.8072 95.2717 27.8695 95.7396 27.9943C96.2179 28.1191 96.6598 28.2959 97.0653 28.5246Z" fill="#F7F7F9"/>
<path d="M103.191 30.4742C103.908 30.4742 104.465 30.6302 104.86 30.9422C105.255 31.2437 105.53 31.6544 105.686 32.1743C105.853 32.6942 105.936 33.2661 105.936 33.89V38.0232C105.936 38.2519 105.858 38.4443 105.702 38.6003C105.556 38.7459 105.375 38.8186 105.156 38.8186C104.927 38.8186 104.74 38.7459 104.595 38.6003C104.449 38.4443 104.376 38.2519 104.376 38.0232V33.89C104.376 33.5261 104.324 33.1933 104.22 32.8918C104.127 32.5902 103.955 32.3511 103.706 32.1743C103.466 31.9975 103.129 31.9092 102.692 31.9092C102.286 31.9092 101.922 31.9975 101.6 32.1743C101.288 32.3511 101.044 32.5902 100.867 32.8918C100.701 33.1933 100.617 33.5261 100.617 33.89V38.0232C100.617 38.2519 100.539 38.4443 100.383 38.6003C100.238 38.7459 100.056 38.8186 99.8376 38.8186C99.6088 38.8186 99.4216 38.7459 99.2761 38.6003C99.1305 38.4443 99.0577 38.2519 99.0577 38.0232V28.0723C99.0577 27.8435 99.1305 27.6564 99.2761 27.5108C99.4216 27.3548 99.6088 27.2769 99.8376 27.2769C100.056 27.2769 100.238 27.3548 100.383 27.5108C100.539 27.6564 100.617 27.8435 100.617 28.0723V32.3303L100.337 32.4863C100.409 32.2575 100.529 32.0235 100.695 31.7844C100.872 31.5452 101.085 31.3269 101.335 31.1293C101.595 30.9318 101.881 30.7758 102.193 30.6614C102.505 30.5366 102.837 30.4742 103.191 30.4742Z" fill="#F7F7F9"/>
<path d="M114.828 30.4898C115.056 30.4898 115.243 30.5678 115.389 30.7238C115.535 30.8694 115.607 31.0565 115.607 31.2853V38.0232C115.607 38.2519 115.535 38.4443 115.389 38.6003C115.243 38.7459 115.056 38.8186 114.828 38.8186C114.609 38.8186 114.422 38.7459 114.266 38.6003C114.12 38.4443 114.048 38.2519 114.048 38.0232V36.9002L114.375 36.947C114.375 37.1342 114.297 37.3421 114.141 37.5709C113.996 37.7996 113.793 38.0232 113.533 38.2415C113.273 38.4495 112.966 38.6263 112.613 38.7718C112.259 38.907 111.88 38.9746 111.474 38.9746C110.757 38.9746 110.112 38.7926 109.54 38.4287C108.968 38.0544 108.516 37.5449 108.183 36.9002C107.85 36.2555 107.684 35.5225 107.684 34.701C107.684 33.8588 107.85 33.1205 108.183 32.4863C108.516 31.8416 108.963 31.3373 109.525 30.9733C110.096 30.6094 110.731 30.4274 111.427 30.4274C111.874 30.4274 112.285 30.5002 112.66 30.6458C113.044 30.7914 113.377 30.9785 113.658 31.2073C113.938 31.4361 114.152 31.6804 114.297 31.9404C114.453 32.1899 114.531 32.4291 114.531 32.6578L114.048 32.7046V31.2853C114.048 31.0669 114.12 30.8798 114.266 30.7238C114.422 30.5678 114.609 30.4898 114.828 30.4898ZM111.646 37.5397C112.134 37.5397 112.566 37.4149 112.94 37.1654C113.315 36.9158 113.606 36.5779 113.814 36.1515C114.022 35.7148 114.126 35.2313 114.126 34.701C114.126 34.1603 114.022 33.6768 113.814 33.2505C113.606 32.8242 113.315 32.4863 112.94 32.2367C112.566 31.9871 112.134 31.8624 111.646 31.8624C111.167 31.8624 110.741 31.9871 110.367 32.2367C110.003 32.4863 109.712 32.8242 109.493 33.2505C109.285 33.6768 109.181 34.1603 109.181 34.701C109.181 35.2313 109.285 35.7148 109.493 36.1515C109.712 36.5779 110.003 36.9158 110.367 37.1654C110.741 37.4149 111.167 37.5397 111.646 37.5397Z" fill="#F7F7F9"/>
<path d="M119.259 38.0232C119.259 38.2519 119.186 38.4443 119.04 38.6003C118.895 38.7459 118.707 38.8186 118.479 38.8186C118.26 38.8186 118.073 38.7459 117.917 38.6003C117.772 38.4443 117.699 38.2519 117.699 38.0232V31.3477C117.699 31.1189 117.772 30.9318 117.917 30.7862C118.073 30.6302 118.26 30.5522 118.479 30.5522C118.707 30.5522 118.895 30.6302 119.04 30.7862C119.186 30.9318 119.259 31.1189 119.259 31.3477V38.0232ZM118.463 29.5228C118.162 29.5228 117.943 29.4708 117.808 29.3669C117.673 29.2525 117.605 29.0653 117.605 28.8054V28.5558C117.605 28.2959 117.678 28.1139 117.824 28.0099C117.969 27.9059 118.188 27.8539 118.479 27.8539C118.791 27.8539 119.014 27.9111 119.149 28.0255C119.285 28.1295 119.352 28.3063 119.352 28.5558V28.8054C119.352 29.0757 119.279 29.2629 119.134 29.3669C118.999 29.4708 118.775 29.5228 118.463 29.5228Z" fill="#F7F7F9"/>
<path d="M125.583 30.4274C126.322 30.4274 126.893 30.5834 127.299 30.8954C127.705 31.1969 127.985 31.6076 128.141 32.1275C128.308 32.637 128.391 33.2089 128.391 33.8432V38.0232C128.391 38.2519 128.313 38.4443 128.157 38.6003C128.011 38.7459 127.829 38.8186 127.611 38.8186C127.382 38.8186 127.195 38.7459 127.049 38.6003C126.904 38.4443 126.831 38.2519 126.831 38.0232V33.8588C126.831 33.4845 126.779 33.1517 126.675 32.8606C126.571 32.559 126.389 32.3199 126.129 32.1431C125.88 31.956 125.526 31.8624 125.069 31.8624C124.642 31.8624 124.268 31.956 123.946 32.1431C123.623 32.3199 123.369 32.559 123.181 32.8606C123.005 33.1517 122.916 33.4845 122.916 33.8588V38.0232C122.916 38.2519 122.838 38.4443 122.682 38.6003C122.537 38.7459 122.355 38.8186 122.136 38.8186C121.908 38.8186 121.72 38.7459 121.575 38.6003C121.429 38.4443 121.357 38.2519 121.357 38.0232V31.4101C121.357 31.1813 121.429 30.9941 121.575 30.8486C121.72 30.6926 121.908 30.6146 122.136 30.6146C122.355 30.6146 122.537 30.6926 122.682 30.8486C122.838 30.9941 122.916 31.1813 122.916 31.4101V32.2835L122.636 32.4395C122.708 32.2107 122.833 31.982 123.01 31.7532C123.197 31.514 123.421 31.2957 123.681 31.0981C123.94 30.8902 124.232 30.729 124.554 30.6146C124.876 30.4898 125.219 30.4274 125.583 30.4274Z" fill="#F7F7F9"/>
</svg>
