<svg width="159" height="67" viewBox="0 0 159 67" fill="none" xmlns="http://www.w3.org/2000/svg">
<path d="M46.0463 23.5415C43.8327 23.5415 41.9881 25.3861 41.8959 27.5996V32.1189C41.527 32.1189 41.0658 32.2111 40.6047 32.2111C40.1435 32.2111 39.6824 32.2111 39.3135 32.3034V27.5996C39.3135 25.3861 37.4689 23.5415 35.1631 23.5415C32.9496 23.5415 31.1972 25.3861 31.105 27.5996V38.4828C31.1972 40.6963 32.9496 42.5409 35.2553 42.5409C37.4689 42.4487 39.3135 40.6963 39.3135 38.4828V33.9635C39.6824 33.9635 40.1435 33.8713 40.6047 33.8713C41.0658 33.8713 41.527 33.8713 41.8959 33.779V38.3905C41.9881 40.6041 43.7405 42.4487 46.0463 42.4487C48.2598 42.3564 50.1044 40.6041 50.1044 38.3905V27.5996C50.1044 25.3861 48.2598 23.5415 46.0463 23.5415ZM35.2553 25.2016C36.6388 25.2016 37.6533 26.3084 37.6533 27.5996V32.3956C36.4543 32.5801 35.2553 32.949 34.1486 33.4101C33.6874 33.6868 33.2263 33.8713 32.7651 34.2402V27.5996C32.8574 26.3084 33.8719 25.2016 35.2553 25.2016ZM37.6533 38.4828C37.6533 39.8662 36.5466 40.8808 35.2553 40.8808C33.9641 40.8808 32.8574 39.774 32.8574 38.4828V37.376C32.8574 36.4537 33.5952 35.5314 34.8864 34.978C35.8087 34.6091 36.731 34.3324 37.7455 34.148L37.6533 38.4828ZM46.0463 40.8808C44.6628 40.8808 43.6483 39.774 43.6483 38.4828V33.6868C44.8473 33.5024 46.0463 33.1334 47.153 32.6723C47.6142 32.3956 48.0753 32.2111 48.5365 31.8422V38.4828C48.4442 39.8662 47.3375 40.8808 46.0463 40.8808ZM46.4152 31.1044C45.4929 31.4733 44.5706 31.75 43.556 31.9344V27.5996C43.556 26.2162 44.6628 25.2016 45.954 25.2016C47.2452 25.2016 48.352 26.3084 48.352 27.5996V28.7064C48.4442 29.6287 47.7064 30.551 46.4152 31.1044Z" fill="#00E8A2"/>
<path d="M105.073 30.0908C102.491 30.0908 100.369 32.1199 100.462 34.7946C100.462 37.377 102.491 39.4983 105.165 39.4061C107.748 39.4061 109.777 37.377 109.777 34.7023C109.685 32.2121 107.655 30.0908 105.073 30.0908ZM108.209 34.7946C108.209 36.5469 106.825 37.9304 105.073 37.9304C103.321 37.9304 101.937 36.5469 101.937 34.7946C101.937 33.0422 103.321 31.6587 105.073 31.6587C106.825 31.6587 108.209 33.0422 108.209 34.7946Z" fill="white"/>
<path d="M77.22 30.182C76.8511 30.182 76.4822 30.551 76.4822 30.9199V31.2888C74.6376 29.5364 71.594 29.7209 69.9338 31.5655C68.1815 33.4101 68.3659 36.4537 70.2105 38.1138C71.9629 39.774 74.7298 39.774 76.4822 38.1138V38.4828C76.4822 38.8517 76.7589 39.2206 77.22 39.2206C77.5889 39.2206 77.9579 38.9439 77.9579 38.4828V38.3905V30.7354C77.9579 30.4587 77.5889 30.182 77.22 30.182ZM76.3899 34.7936C76.3899 36.5459 75.0065 37.9294 73.2541 37.9294C71.5017 37.9294 70.1183 36.5459 70.1183 34.7936C70.1183 33.0412 71.5017 31.6577 73.2541 31.6577C75.0065 31.6577 76.3899 33.0412 76.3899 34.7936Z" fill="white"/>
<path d="M85.2437 30.8287C85.2437 31.1976 84.8748 31.5665 84.5059 31.5665H84.4136C82.6613 31.5665 81.2778 32.95 81.2778 34.7023C81.1856 34.8868 81.2778 37.2848 81.2778 38.6682C81.1856 39.0371 80.9089 39.4061 80.4477 39.3138C80.0788 39.2216 79.8021 38.9449 79.8021 38.576V30.9209C79.8021 30.552 80.171 30.183 80.54 30.183H80.6322C81.0011 30.2753 81.37 30.552 81.37 30.9209V31.2898C82.2001 30.552 83.3069 30.0908 84.5059 30.0908H84.5981C84.8748 30.0908 85.2437 30.4597 85.2437 30.8287Z" fill="white"/>
<path d="M118.631 33.9628V38.5743C118.631 38.9432 118.262 39.3121 117.893 39.3121C117.524 39.3121 117.156 38.9432 117.156 38.5743V37.8364V33.9628C117.156 32.6716 116.049 31.5648 114.758 31.5648C114.665 31.5648 114.665 31.5648 114.573 31.5648C113.374 31.657 112.36 32.7638 112.36 33.9628V34.8851V37.7442V38.4821C112.36 38.851 111.991 39.2199 111.622 39.2199C111.253 39.2199 110.884 38.851 110.884 38.4821V30.827C110.884 30.458 111.253 30.0891 111.622 30.0891C111.991 30.0891 112.36 30.458 112.36 30.827V30.9192C112.913 30.458 113.743 30.1813 114.573 30.0891C116.694 29.9969 118.539 31.657 118.631 33.7783C118.631 33.8705 118.631 33.9628 118.631 33.9628Z" fill="white"/>
<path d="M67.167 27.4146V38.6667C67.167 39.0356 66.7981 39.4045 66.4292 39.4045C66.0602 39.4045 65.6913 39.0356 65.6913 38.6667V33.594H58.0362V38.6667C58.0362 39.0356 57.6673 39.4045 57.2984 39.4045C56.9295 39.4045 56.5605 39.0356 56.5605 38.6667V27.4146C56.5605 27.0457 56.9295 26.6768 57.2984 26.6768C57.6673 26.6768 58.0362 27.0457 58.0362 27.4146V32.3028H65.7836V27.4146C65.7836 27.0457 66.1525 26.6768 66.5214 26.6768C66.7981 26.6768 67.167 27.0457 67.167 27.4146Z" fill="white"/>
<path d="M99.3557 34.3319V38.5745C99.3557 38.9434 98.9868 39.3123 98.6178 39.3123C98.2489 39.3123 97.88 38.9434 97.88 38.5745V34.7008V33.6863C97.88 32.4873 96.9577 31.565 95.8509 31.565C94.7442 31.565 93.7297 32.4873 93.7297 33.594C93.7297 33.6863 93.7297 33.6863 93.7297 33.6863V38.5745C93.7297 38.9434 93.453 39.3123 92.9918 39.3123C92.6229 39.3123 92.254 39.0356 92.254 38.5745V38.4822V34.5163V33.5018C92.254 32.3028 91.3317 31.3805 90.2249 31.3805C89.1181 31.3805 88.1036 32.3028 88.1036 33.4096C88.1036 33.5018 88.1036 33.5018 88.1036 33.5018V38.39C88.1036 38.7589 87.8269 39.1279 87.3658 39.1279C86.9969 39.1279 86.6279 38.8512 86.6279 38.39V38.2978V30.6427C86.6279 30.2738 86.9969 29.9048 87.3658 29.9048C87.7347 29.9048 88.1036 30.1815 88.1036 30.5505C89.6715 29.4437 91.885 29.7204 93.084 31.2883C94.283 29.7204 96.5888 29.4437 98.0645 30.6427C98.9868 31.3805 99.4479 32.3951 99.4479 33.5018L99.3557 34.3319Z" fill="white"/>
<path d="M127.854 31.1975L122.781 42.1729C122.505 42.5418 122.043 42.634 121.675 42.4496C121.398 42.2651 121.213 41.8962 121.306 41.5273L122.689 38.5759L119.277 31.1975C119 30.8286 119.184 30.3674 119.553 30.0907C119.922 29.8141 120.383 29.9985 120.66 30.3674C120.66 30.4597 120.752 30.4597 120.752 30.4597L123.611 36.6391L126.47 30.4597C126.563 30.0907 127.024 29.9063 127.393 29.9985C127.762 30.0907 127.946 30.5519 127.854 30.9208C127.946 31.1053 127.854 31.1975 127.854 31.1975Z" fill="white"/>
</svg>
