<svg width="159" height="67" viewBox="0 0 159 67" fill="none" xmlns="http://www.w3.org/2000/svg">
<path d="M30.2944 24.7764V41.3064H34.5528V32.2993H37.8173L30.2944 24.7764Z" fill="white"/>
<path d="M42.6748 24.7764V33.7835H39.4104L46.9332 41.3064V24.7764H42.6748Z" fill="white"/>
<path d="M63.6761 27.1826V33.8094L54.7988 27.1826V38.5211H57.2293V31.8945L66.1064 38.5211V27.1826H63.6761Z" fill="white"/>
<path d="M68.3448 38.5211V27.1826H78.1917V29.2633H70.8859V31.6448H78.1917V33.7255H70.8859V36.4405H78.1917V38.5211H68.3448Z" fill="white"/>
<path d="M95.8974 38.5211L91.0221 27.1826H93.864L97.4053 36.011L100.963 27.1826H103.709L98.8338 38.5211H95.8974Z" fill="white"/>
<path d="M125.958 30.374C125.773 29.8784 125.419 29.4644 124.958 29.2059C124.512 28.9684 123.892 28.8497 123.1 28.8497C122.199 28.8497 121.51 28.9609 121.035 29.1832C120.559 29.4043 120.32 29.7281 120.32 30.1511C120.308 30.3248 120.342 30.4987 120.419 30.6549C120.495 30.8112 120.612 30.9443 120.757 31.0409C121.048 31.2313 121.58 31.3847 122.353 31.5013L124.687 31.8673C126.073 32.0886 127.09 32.4774 127.736 33.0337C128.382 33.5902 128.705 34.3553 128.706 35.3291C128.706 36.4304 128.237 37.285 127.3 37.8928C126.363 38.5012 125.026 38.8054 123.29 38.8054C122.029 38.8054 120.984 38.6573 120.154 38.3612C119.322 38.0653 118.687 37.6153 118.247 37.0112C117.808 36.4075 117.546 35.6402 117.461 34.7092H120.019C120.124 35.4511 120.437 35.994 120.956 36.3377C121.474 36.6809 122.253 36.8528 123.29 36.8533C124.221 36.8533 124.923 36.728 125.394 36.4794C125.865 36.2319 126.101 35.8626 126.101 35.3762C126.107 35.1956 126.068 35.0163 125.986 34.8553C125.904 34.6942 125.782 34.5566 125.632 34.4554C125.32 34.2327 124.824 34.0732 124.147 33.9788L122.241 33.7089C120.695 33.4974 119.565 33.1135 118.851 32.5571C118.137 32.0022 117.779 31.2213 117.779 30.2146C117.768 29.5692 117.994 28.9424 118.415 28.4528C118.838 27.9549 119.454 27.5709 120.264 27.3009C121.203 27.0123 122.181 26.8756 123.163 26.896C124.709 26.896 125.905 27.153 126.752 27.6669C127.598 28.1795 128.154 28.9864 128.419 30.0876L125.958 30.374Z" fill="white"/>
<path d="M116.557 32.8515C116.557 34.0472 116.295 35.0927 115.771 35.9879C115.238 36.8916 114.447 37.616 113.5 38.0687C112.511 38.5597 111.333 38.8053 109.967 38.8053C108.654 38.8053 107.508 38.57 106.53 38.0993C105.582 37.6574 104.786 36.9448 104.242 36.0513C103.697 35.1565 103.424 34.0899 103.424 32.8515C103.424 31.6541 103.686 30.6087 104.211 29.7151C104.745 28.8114 105.535 28.087 106.482 27.6343C107.472 27.1417 108.649 26.8955 110.016 26.896C111.327 26.896 112.473 27.1319 113.453 27.6036C114.401 28.046 115.196 28.7585 115.74 29.6517C116.285 30.5465 116.557 31.6131 116.557 32.8515V32.8515ZM113.921 32.8515C113.921 31.6232 113.577 30.6705 112.889 29.9932C112.2 29.3148 111.232 28.9759 109.983 28.9766C108.745 28.9766 107.782 29.3182 107.092 30.0013C106.404 30.683 106.061 31.6331 106.061 32.8515C106.061 34.0798 106.405 35.0325 107.092 35.7098C107.78 36.3864 108.75 36.7253 109.999 36.7263C111.237 36.7263 112.2 36.3847 112.889 35.7014C113.577 35.0183 113.921 34.0683 113.921 32.8515" fill="white"/>
<path d="M88.4878 38.5211L86.0102 34.2802H82.6915V38.5211H80.2465V27.1826H85.8199C88.9856 27.1826 90.5685 28.3631 90.5684 30.724C90.5684 31.4853 90.3911 32.1203 90.0364 32.6291C89.6818 33.1381 89.139 33.535 88.4079 33.8199L91.2662 38.5211H88.4878ZM85.6295 32.3279C86.4656 32.3279 87.0822 32.1978 87.4792 31.9376C87.8761 31.6789 88.0745 31.2689 88.0745 30.7077C88.0745 30.1466 87.8869 29.7442 87.5117 29.5007C87.1358 29.2567 86.5192 29.1352 85.662 29.1363H82.6915V32.3279H85.6295Z" fill="white"/>
</svg>
