<svg width="159" height="67" viewBox="0 0 159 67" fill="none" xmlns="http://www.w3.org/2000/svg">
<path d="M61.6554 21.6972C58.632 18.6607 54.6097 17.0044 50.3244 17.0044C41.491 17.0044 34.3007 24.1947 34.3007 33.0413C34.3007 41.8879 41.491 49.0782 50.3244 49.0782C54.6097 49.0782 58.632 47.4088 61.6554 44.3723C64.6787 41.3358 66.3481 37.3134 66.3481 33.0281C66.3481 28.7429 64.6787 24.7336 61.6554 21.6972ZM50.3244 47.974C42.0956 47.974 35.4048 41.27 35.4048 33.0413C35.4048 24.8125 42.0956 18.1086 50.3244 18.1086C58.5532 18.1086 65.244 24.8125 65.244 33.0413C65.244 41.27 58.5532 47.974 50.3244 47.974Z" fill="#EFF4FD"/>
<path d="M55.5817 33.4232C54.5564 32.503 53.2156 31.8983 51.9142 31.2937H51.9011C49.6007 30.2421 47.6158 29.3351 47.7604 27.1924C47.8261 26.3774 48.4177 25.8779 48.904 25.615C49.4561 25.3127 50.1791 25.1287 50.8495 25.1287C50.9284 25.1287 51.0072 25.1287 51.0861 25.1287C53.0447 25.2601 54.5958 26.0883 56.1075 27.8102L56.1995 27.9154L56.3047 27.8234L56.8962 27.3107L57.0013 27.2187L56.9093 27.1136C55.2268 25.1812 53.3996 24.2085 51.165 24.0639C51.0729 24.0508 50.9678 24.0508 50.8495 24.0508C50.7838 24.0508 50.7049 24.0508 50.626 24.0508H50.534C49.0618 24.0508 47.4581 24.5371 46.2356 25.339C44.7765 26.2986 43.9615 27.6262 43.9352 29.0853C43.8826 32.6082 46.7482 33.7912 49.2984 34.8428L49.3247 34.856C51.5725 35.7893 53.5048 36.5911 53.4653 38.7337C53.4522 40.1534 51.4147 40.9289 50.0213 40.9289H49.9688H49.8373C47.7604 40.8632 45.907 39.9694 44.3296 38.2737L44.2376 38.1685L44.1324 38.2605L43.554 38.7995L43.4489 38.8915L43.5409 38.9966C45.3417 40.9289 47.5501 41.9674 49.9556 41.9937H50.0608C51.6119 41.9937 53.2945 41.573 54.5695 40.8764C56.1601 40.0088 57.0934 38.7337 57.1854 37.3141C57.2905 35.763 56.7647 34.4748 55.5817 33.4232ZM48.1416 30.3604C49.0618 31.1491 50.2974 31.7012 51.4936 32.2401L51.5199 32.2533C52.7818 32.8316 53.9911 33.3837 54.8587 34.1593C55.8183 35.0006 56.2258 35.9864 56.1469 37.2483C56.068 38.4971 55.1347 39.3253 54.2935 39.8379C54.4512 39.5093 54.5432 39.1412 54.5564 38.76C54.5695 37.4587 54.0831 36.4334 53.0315 35.5921C52.1114 34.856 50.9021 34.3564 49.7322 33.8701C47.2872 32.8711 44.9868 31.9115 45.0263 29.1116C45.0394 28.0337 45.6835 27.0084 46.8534 26.246C46.8928 26.2197 46.9323 26.1934 46.9717 26.1671C46.8403 26.4695 46.7614 26.7849 46.7351 27.1136C46.6299 28.4018 47.09 29.4665 48.1416 30.3604Z" fill="#EFF4FD"/>
<path d="M76.3913 31.2805C75.8129 31.2805 75.2345 31.1885 74.6693 31.0045C74.1172 30.8205 73.6308 30.5444 73.2365 30.2026L73.9068 29.0853C74.3275 29.3876 74.7481 29.6111 75.1556 29.7689C75.5631 29.9134 75.9575 30.0055 76.365 30.0055C76.7199 30.0055 76.9959 29.9397 77.2062 29.8083C77.4166 29.6768 77.5086 29.4928 77.5086 29.2299C77.5086 28.9802 77.3903 28.7961 77.1537 28.691C76.9171 28.5858 76.5227 28.4412 75.9838 28.2835C75.5237 28.152 75.1425 28.0337 74.827 27.9286C74.5115 27.8102 74.2486 27.6788 74.0514 27.5342C73.8543 27.3896 73.7097 27.2187 73.6308 27.0347C73.5388 26.8375 73.4994 26.6141 73.4994 26.3512C73.4994 25.9962 73.5651 25.6808 73.7097 25.3916C73.8411 25.1155 74.0383 24.8658 74.2881 24.6686C74.5378 24.4714 74.827 24.3137 75.1556 24.2085C75.4843 24.1034 75.8523 24.0508 76.2467 24.0508C76.7725 24.0508 77.2588 24.1165 77.7189 24.2742C78.179 24.4188 78.5996 24.6686 78.9677 25.0104L78.2184 26.0751C77.8635 25.8122 77.5217 25.615 77.1931 25.4967C76.8513 25.3653 76.5227 25.3127 76.2072 25.3127C75.9049 25.3127 75.6551 25.3784 75.4448 25.4967C75.2345 25.6282 75.1425 25.8254 75.1425 26.1014C75.1425 26.2328 75.1688 26.3249 75.2082 26.4037C75.2608 26.4826 75.3397 26.5483 75.4448 26.6141C75.55 26.6798 75.6946 26.7324 75.8655 26.7849C76.0363 26.8375 76.2598 26.9032 76.5096 26.9558C76.9828 27.0873 77.4034 27.2056 77.7452 27.337C78.087 27.4685 78.363 27.5999 78.5865 27.7577C78.7968 27.9154 78.9677 28.0994 79.0597 28.3098C79.1649 28.5201 79.2043 28.7698 79.2043 29.059C79.2043 29.7426 78.9414 30.2815 78.4419 30.6759C77.9424 31.0965 77.2588 31.2805 76.3913 31.2805Z" fill="white"/>
<path d="M87.8143 28.1392H82.2408C82.3328 28.665 82.5957 29.0725 83.0032 29.3879C83.4239 29.6903 83.9365 29.848 84.5412 29.848C85.3299 29.848 85.9609 29.5851 86.4604 29.0725L87.3543 30.0978C87.0388 30.479 86.6313 30.7682 86.1449 30.9653C85.6585 31.1625 85.1065 31.2545 84.5018 31.2545C83.7131 31.2545 83.0295 31.1099 82.438 30.7945C81.8465 30.479 81.3864 30.0452 81.0578 29.4931C80.7292 28.941 80.5714 28.3101 80.5714 27.6134C80.5714 26.9167 80.7292 26.2989 81.0446 25.7468C81.3601 25.1947 81.7939 24.7609 82.3591 24.4454C82.9112 24.1299 83.5553 23.9854 84.2389 23.9854C84.9356 23.9854 85.5534 24.1299 86.0923 24.4454C86.6313 24.7478 87.0519 25.1815 87.3674 25.7336C87.6697 26.2857 87.8275 26.9298 87.8275 27.6528C87.8406 27.758 87.8275 27.9157 87.8143 28.1392ZM82.8981 25.7731C82.53 26.0885 82.3066 26.5092 82.2277 27.0218H86.2501C86.1843 26.5092 85.9609 26.0885 85.5928 25.7731C85.2248 25.4576 84.7778 25.2867 84.2389 25.2867C83.7131 25.2998 83.2661 25.4576 82.8981 25.7731Z" fill="white"/>
<path d="M91.2324 30.7808C90.6541 30.4653 90.194 30.0315 89.8654 29.4794C89.5367 28.9273 89.3658 28.2964 89.3658 27.5997C89.3658 26.903 89.5367 26.2721 89.8654 25.72C90.194 25.1679 90.6541 24.7341 91.2324 24.4318C91.8108 24.1163 92.4812 23.9717 93.2173 23.9717C93.914 23.9717 94.5318 24.1163 95.0576 24.3923C95.5834 24.6815 95.9909 25.089 96.2538 25.6148L94.9788 26.3641C94.7684 26.0354 94.5187 25.7857 94.2163 25.6279C93.914 25.4571 93.5722 25.3782 93.2042 25.3782C92.5864 25.3782 92.0737 25.5754 91.6662 25.9829C91.2587 26.3904 91.0484 26.9293 91.0484 27.5997C91.0484 28.2701 91.2456 28.809 91.6531 29.2165C92.0606 29.624 92.5732 29.8212 93.2042 29.8212C93.5591 29.8212 93.9009 29.7423 94.2163 29.5714C94.5187 29.4006 94.7684 29.164 94.9788 28.8353L96.2538 29.5846C95.9778 30.1235 95.5703 30.531 95.0445 30.8202C94.5187 31.1094 93.914 31.254 93.2173 31.254C92.4681 31.2409 91.824 31.0963 91.2324 30.7808Z" fill="white"/>
<path d="M102.313 23.9717V25.5491C102.169 25.5228 102.037 25.5096 101.932 25.5096C101.288 25.5096 100.775 25.7068 100.42 26.0749C100.052 26.4561 99.8813 26.995 99.8813 27.7049V31.1488H98.1987V24.0374H99.7761V25.0759C100.263 24.3397 101.104 23.9717 102.313 23.9717Z" fill="white"/>
<path d="M110.713 28.1392H105.14C105.232 28.665 105.494 29.0725 105.902 29.3879C106.323 29.6903 106.835 29.848 107.44 29.848C108.229 29.848 108.86 29.5851 109.359 29.0725L110.253 30.0978C109.937 30.479 109.53 30.7682 109.044 30.9653C108.557 31.1625 108.005 31.2545 107.4 31.2545C106.612 31.2545 105.928 31.1099 105.337 30.7945C104.745 30.479 104.285 30.0452 103.956 29.4931C103.628 28.941 103.47 28.3101 103.47 27.6134C103.47 26.9167 103.628 26.2989 103.943 25.7468C104.259 25.1947 104.693 24.7609 105.258 24.4454C105.81 24.1299 106.454 23.9854 107.138 23.9854C107.834 23.9854 108.452 24.1299 108.991 24.4454C109.53 24.7478 109.951 25.1815 110.266 25.7336C110.568 26.2857 110.726 26.9298 110.726 27.6528C110.752 27.758 110.739 27.9157 110.713 28.1392ZM105.81 25.7731C105.442 26.0885 105.218 26.5092 105.14 27.0218H109.162C109.096 26.5092 108.873 26.0885 108.505 25.7731C108.137 25.4576 107.69 25.2867 107.151 25.2867C106.625 25.2998 106.178 25.4576 105.81 25.7731Z" fill="white"/>
<path d="M117.128 30.7682C116.93 30.9259 116.694 31.0442 116.418 31.1231C116.142 31.2019 115.839 31.2414 115.524 31.2414C114.735 31.2414 114.144 31.0311 113.723 30.6236C113.302 30.2161 113.079 29.6245 113.079 28.8358V25.4182H111.909V24.1037H113.079V22.4868H114.735V24.1037H116.641V25.4313H114.735V28.8096C114.735 29.1513 114.827 29.4142 114.998 29.5983C115.169 29.7823 115.419 29.8743 115.734 29.8743C116.115 29.8743 116.418 29.7823 116.668 29.5851L117.128 30.7682Z" fill="white"/>
<path d="M79.0993 35.7502C79.6251 36.2628 79.8749 36.9989 79.8749 37.9848V42.0466H78.9284V38.0768C78.9284 37.3538 78.7444 36.8018 78.3895 36.4074C78.0214 36.0262 77.5088 35.829 76.8252 35.829C76.076 35.829 75.4713 36.0525 75.0375 36.4994C74.6037 36.9464 74.3803 37.5642 74.3803 38.3529V42.0203H73.4338V35.0272H74.3408V36.3154C74.6037 35.8948 74.9587 35.553 75.4187 35.3295C75.8788 35.0929 76.4046 34.9746 77.0093 34.9746C77.8768 34.9878 78.5735 35.2375 79.0993 35.7502Z" fill="white"/>
<path d="M88.4582 38.8256H82.6087C82.6613 39.5485 82.9505 40.1401 83.45 40.587C83.9495 41.0339 84.5936 41.2574 85.3692 41.2574C85.8029 41.2574 86.1973 41.1785 86.5654 41.0208C86.9203 40.8762 87.2489 40.6396 87.5118 40.3372L88.0507 40.9551C87.7353 41.3363 87.3541 41.6123 86.8808 41.8095C86.4208 42.0067 85.9081 42.0987 85.3429 42.0987C84.6199 42.0987 83.9889 41.9541 83.4368 41.6386C82.8848 41.3363 82.451 40.9156 82.1355 40.3635C81.82 39.8246 81.6754 39.2068 81.6754 38.5232C81.6754 37.8397 81.82 37.2219 82.1223 36.6829C82.4115 36.144 82.819 35.7233 83.3448 35.421C83.8706 35.1187 84.449 34.9609 85.0931 34.9609C85.7372 34.9609 86.3287 35.1055 86.8414 35.421C87.3541 35.7233 87.7615 36.144 88.0507 36.6698C88.3399 37.2087 88.4845 37.8265 88.4845 38.5101L88.4582 38.8256ZM83.3843 36.4463C82.9242 36.8801 82.6613 37.4322 82.6087 38.1289H87.5775C87.5118 37.4322 87.262 36.8801 86.802 36.4463C86.3419 36.0125 85.7767 35.8022 85.0931 35.8022C84.3964 35.7891 83.8312 36.0125 83.3843 36.4463Z" fill="white"/>
<path d="M93.7692 41.6139C93.5983 41.7717 93.3617 41.89 93.1119 41.982C92.849 42.074 92.573 42.1134 92.2969 42.1134C91.6397 42.1134 91.1402 41.9425 90.7853 41.5745C90.4304 41.2196 90.2463 40.7201 90.2463 40.0759V35.8433H88.9976V35.0414H90.2463V33.5166H91.1928V35.0414H93.3223V35.8433H91.1928V40.0234C91.1928 40.444 91.2979 40.7595 91.5083 40.9698C91.7186 41.1801 92.0209 41.2984 92.4021 41.2984C92.5993 41.2984 92.7833 41.2721 92.9673 41.2064C93.1514 41.1407 93.3091 41.0618 93.4406 40.9435L93.7692 41.6139Z" fill="white"/>
<path d="M103.602 35.0923H104.732L101.788 42.046H100.828L99.4348 38.6546L98.0545 42.046H97.0949L94.1373 35.0923H95.2546L97.647 40.8761L98.8169 37.9842L97.6207 35.0923H98.5803L99.4348 37.3138L100.289 35.0923H101.249L100.053 37.9842L101.222 40.8761L103.602 35.0923Z" fill="white"/>
<path d="M108.518 42.1381C108.018 42.1381 107.558 42.0461 107.138 41.8489C106.717 41.6517 106.362 41.402 106.047 41.0734C105.744 40.7447 105.508 40.3635 105.337 39.9297C105.166 39.496 105.074 39.0359 105.074 38.5627C105.074 38.0763 105.166 37.6162 105.337 37.1824C105.508 36.7487 105.758 36.3674 106.06 36.0388C106.362 35.7102 106.73 35.4473 107.151 35.2501C107.572 35.0529 108.018 34.9609 108.518 34.9609C109.017 34.9609 109.478 35.0529 109.885 35.2501C110.306 35.4473 110.674 35.7102 110.976 36.0388C111.278 36.3674 111.515 36.7487 111.699 37.1824C111.87 37.6162 111.962 38.0763 111.962 38.5627C111.962 39.049 111.87 39.496 111.699 39.9297C111.528 40.3635 111.292 40.7447 110.989 41.0734C110.687 41.402 110.319 41.6649 109.898 41.8489C109.478 42.0329 109.017 42.1381 108.518 42.1381ZM105.994 38.5627C105.994 38.957 106.06 39.3119 106.191 39.6537C106.323 39.9955 106.507 40.2715 106.73 40.5344C106.954 40.7973 107.23 40.9813 107.532 41.1259C107.834 41.2705 108.163 41.3363 108.505 41.3363C108.847 41.3363 109.175 41.2705 109.478 41.1259C109.78 40.9813 110.056 40.7842 110.279 40.5213C110.516 40.2584 110.7 39.9823 110.818 39.6274C110.95 39.2856 111.016 38.9307 111.016 38.5364C111.016 38.1552 110.95 37.7871 110.818 37.4453C110.687 37.1036 110.503 36.8012 110.279 36.5515C110.043 36.2886 109.78 36.0914 109.478 35.9468C109.175 35.8022 108.847 35.7365 108.505 35.7365C108.163 35.7365 107.834 35.8022 107.545 35.9468C107.243 36.0914 106.98 36.3017 106.743 36.5515C106.507 36.8144 106.323 37.1167 106.204 37.4453C106.073 37.8134 105.994 38.1815 105.994 38.5627Z" fill="white"/>
<path d="M116.931 35.9082C116.313 35.9213 115.787 36.0922 115.327 36.4077C114.867 36.7232 114.552 37.1701 114.368 37.7222V42.0338H113.461V35.1063H114.315V36.7757C114.578 36.2368 114.92 35.8293 115.354 35.527C115.787 35.2246 116.261 35.0669 116.747 35.0669C116.813 35.0669 116.879 35.08 116.918 35.08L116.931 35.9082Z" fill="white"/>
<path d="M123.713 42.0467L121.163 38.4975L119.665 39.8777V42.0467H118.758V32.3325H119.665V38.9313L123.556 35.1324H124.581L121.755 37.9586L124.699 42.0467H123.713Z" fill="white"/>
</svg>
