<svg width="159" height="67" viewBox="0 0 159 67" fill="none" xmlns="http://www.w3.org/2000/svg">
<circle cx="58.3271" cy="33.0416" r="11.065" fill="#1E96C8"/>
<path fill-rule="evenodd" clip-rule="evenodd" d="M59.416 38.9217C58.9321 39.7599 57.7223 39.7599 57.2384 38.9217L52.2609 30.3005C51.777 29.4623 52.3819 28.4146 53.3497 28.4146H63.3047C64.2726 28.4146 64.8775 29.4623 64.3935 30.3005L59.416 38.9217ZM57.7881 37.7185V29.4922H53.3497C53.2115 29.4922 53.125 29.6419 53.1942 29.7616L57.7881 37.7185ZM58.8657 37.7196L63.4603 29.7616C63.5294 29.6419 63.443 29.4922 63.3047 29.4922H58.8657V37.7196Z" fill="white"/>
<path d="M77.5596 39.2926H79.8815V28.7546H84.0253V26.7899H73.4159V28.7546H77.5596V39.2926Z" fill="white"/>
<path d="M91.4339 39.4712C95.3098 39.4712 98.1675 36.7563 98.1675 33.0413C98.1675 29.3262 95.3098 26.6113 91.4339 26.6113C87.5581 26.6113 84.7004 29.344 84.7004 33.0413C84.7004 36.7385 87.5581 39.4712 91.4339 39.4712ZM91.4339 37.435C88.9155 37.435 87.0401 35.5954 87.0401 33.0413C87.0401 30.4871 88.9155 28.6475 91.4339 28.6475C93.9523 28.6475 95.8277 30.4871 95.8277 33.0413C95.8277 35.5954 93.9523 37.435 91.4339 37.435Z" fill="white"/>
<path d="M109.434 26.7899V35.256L102.54 26.7899H100.629V39.2926H102.933V30.8265L109.827 39.2926H111.738V26.7899H109.434Z" fill="white"/>
</svg>
