<svg width="159" height="67" viewBox="0 0 159 67" fill="none" xmlns="http://www.w3.org/2000/svg">
<g clip-path="url(#clip0_2308_3137)">
<path d="M74.2889 35.805C73.4353 37.9336 71.2947 39.4003 68.8611 39.1926C66.2618 38.959 64.1722 36.7785 64.0066 34.1307C63.8155 30.9768 66.2746 28.342 69.3325 28.342C71.575 28.342 73.499 29.7567 74.2889 31.7555C74.3781 31.9762 74.2635 32.2228 74.0341 32.3007L73.7283 32.4045C73.5245 32.4694 73.3206 32.3655 73.2314 32.1709C72.5688 30.5095 70.8997 29.3674 69.0012 29.5101C67.0136 29.6659 65.3699 31.2753 65.1406 33.3C64.8603 35.8829 66.8479 38.0764 69.3198 38.0764C71.0781 38.0764 72.5816 36.9732 73.2187 35.4157C73.2951 35.221 73.5117 35.1171 73.7156 35.182L74.0214 35.2859C74.2635 35.3378 74.3781 35.5844 74.2889 35.805ZM99.7846 30.4446C98.727 29.0559 97.0197 28.1992 95.1212 28.355C92.4965 28.5627 90.3941 30.7172 90.1903 33.3779C89.9482 36.5838 92.4455 39.2705 95.5417 39.2705C97.2618 39.2705 98.7907 38.4398 99.7718 37.1549V38.8811C99.7718 39.0758 99.9247 39.2185 100.103 39.2185H100.562C100.753 39.2185 100.893 39.0628 100.893 38.8811V29.8735C100.893 29.6789 100.74 29.5361 100.562 29.5361H100.103C99.912 29.5361 99.7718 29.6918 99.7718 29.8735V30.4446H99.7846ZM95.5544 38.1153C93.2227 38.1153 91.3243 36.1814 91.3243 33.8062C91.3243 31.4311 93.2227 29.4972 95.5544 29.4972C97.8861 29.4972 99.7846 31.4311 99.7846 33.8062C99.7846 36.1814 97.8861 38.1153 95.5544 38.1153ZM106.665 39.2185H107.124C107.315 39.2185 107.455 39.0628 107.455 38.8811V29.8735C107.455 29.6789 107.302 29.5361 107.124 29.5361H106.665C106.474 29.5361 106.334 29.6918 106.334 29.8735V38.8811C106.334 39.0758 106.487 39.2185 106.665 39.2185ZM82.2778 28.7833C80.7488 28.7444 79.3728 29.4452 78.4681 30.5485V27.1739C78.4681 26.9792 78.3152 26.8364 78.1369 26.8364H77.6782C77.487 26.8364 77.3469 26.9922 77.3469 27.1739V38.8811C77.3469 39.0758 77.4998 39.2185 77.6782 39.2185H78.1369C78.328 39.2185 78.4681 39.0628 78.4681 38.8811V33.7933C78.4681 31.6777 80.1627 29.8995 82.2396 29.9384C84.2528 29.9774 85.8837 31.6517 85.8837 33.7154V38.8811C85.8837 39.0758 86.0366 39.2185 86.2149 39.2185H86.6736C86.8647 39.2185 87.0049 39.0628 87.0049 38.8811V33.8062C87.0176 31.1066 84.928 28.8352 82.2778 28.7833ZM106.665 28.3031H107.124C107.315 28.3031 107.455 28.1473 107.455 27.9656V27.1869C107.455 26.9922 107.302 26.8494 107.124 26.8494H106.665C106.474 26.8494 106.334 27.0052 106.334 27.1869V27.9656C106.334 28.1473 106.487 28.3031 106.665 28.3031ZM117.61 28.7963C116.081 28.7573 114.705 29.4582 113.8 30.5614V29.8735C113.8 29.6789 113.647 29.5361 113.469 29.5361H113.01C112.819 29.5361 112.679 29.6918 112.679 29.8735V38.8811C112.679 39.0758 112.832 39.2185 113.01 39.2185H113.469C113.66 39.2185 113.8 39.0628 113.8 38.8811V33.8062C113.8 31.6906 115.495 29.9125 117.572 29.9514C119.585 29.9904 121.216 31.6647 121.216 33.7284V38.8811C121.216 39.0758 121.369 39.2185 121.547 39.2185H122.006C122.197 39.2185 122.337 39.0628 122.337 38.8811V33.8192C122.35 31.1195 120.26 28.8482 117.61 28.7963ZM60.6428 35.7531C60.7193 35.5584 60.6174 35.3248 60.4135 35.2729L60.0185 35.1431C59.8401 35.0912 59.649 35.182 59.5853 35.3637C58.9482 36.9991 57.4193 38.0764 55.6737 38.0764C53.3547 38.0764 51.4563 36.1555 51.4563 33.7803C51.4563 33.4947 51.4817 33.1962 51.5454 32.9107C51.9404 30.9249 53.686 29.4842 55.6737 29.4842C57.3046 29.4842 58.7698 30.4576 59.4706 31.8983C59.5726 32.1189 59.4579 32.3785 59.2285 32.4175L55.8648 33.1313C55.6737 33.1703 55.5463 33.3649 55.5845 33.5596L55.6737 33.975C55.7119 34.1697 55.903 34.2994 56.0941 34.2605L60.6683 33.3C60.8594 33.2611 60.9869 33.0664 60.9486 32.8717L60.9104 32.6641C60.4008 30.1591 58.1965 28.342 55.6737 28.342C53.1509 28.342 50.9466 30.1721 50.4369 32.69C50.3605 33.0534 50.3223 33.4169 50.3223 33.7803C50.3223 36.7785 52.7177 39.2185 55.6609 39.2185C57.9034 39.2185 59.8529 37.8428 60.6428 35.7531Z" fill="#15BDFF"/>
<path d="M41.7279 38.7435L36.7144 28.3414C36.633 28.1754 36.7555 27.979 36.936 27.979H38.6732C38.7664 27.979 38.8537 28.0327 38.8947 28.1157L42.5561 35.6622C42.8825 36.3392 43.8267 36.3392 44.1532 35.6622L47.8028 28.1217C47.8438 28.0387 47.9311 27.985 48.0243 27.985H48.24C48.3684 27.985 48.4498 28.1217 48.3918 28.2345L43.3256 38.7435C42.9991 39.4199 42.0544 39.4199 41.7279 38.7435Z" fill="url(#paint0_linear_2308_3137)"/>
<path opacity="0.1" d="M41.7275 38.7429L38.8943 28.1211C38.8533 28.0321 38.7601 27.9844 38.6845 27.9844H36.9414C36.7492 27.9844 36.6384 28.1802 36.714 28.3468L41.7275 38.7429Z" fill="white"/>
<path opacity="0.1" d="M42.5564 35.6676L36.7148 28.3414C36.6451 28.1695 36.75 27.9969 36.9129 27.979H38.6794C38.7784 27.985 38.854 28.0501 38.8892 28.1157L42.5564 35.6676Z" fill="white"/>
<g style="mix-blend-mode:multiply" opacity="0.69">
<path d="M74.2889 35.805C73.4353 37.9336 71.2947 39.4003 68.8611 39.1926C66.2618 38.959 64.1722 36.7785 64.0066 34.1307C63.8155 30.9768 66.2746 28.342 69.3325 28.342C71.575 28.342 73.499 29.7567 74.2889 31.7555C74.3781 31.9762 74.2635 32.2228 74.0341 32.3007L73.7283 32.4045C73.5245 32.4694 73.3206 32.3655 73.2314 32.1709C72.5688 30.5095 70.8997 29.3674 69.0012 29.5101C67.0136 29.6659 65.3699 31.2753 65.1406 33.3C64.8603 35.8829 66.8479 38.0764 69.3198 38.0764C71.0781 38.0764 72.5816 36.9732 73.2187 35.4157C73.2951 35.221 73.5117 35.1171 73.7156 35.182L74.0214 35.2859C74.2635 35.3378 74.3781 35.5844 74.2889 35.805ZM99.7846 30.4446C98.727 29.0559 97.0197 28.1992 95.1212 28.355C92.4965 28.5627 90.3941 30.7172 90.1903 33.3779C89.9482 36.5838 92.4455 39.2705 95.5417 39.2705C97.2618 39.2705 98.7907 38.4398 99.7718 37.1549V38.8811C99.7718 39.0758 99.9247 39.2185 100.103 39.2185H100.562C100.753 39.2185 100.893 39.0628 100.893 38.8811V29.8735C100.893 29.6789 100.74 29.5361 100.562 29.5361H100.103C99.912 29.5361 99.7718 29.6918 99.7718 29.8735V30.4446H99.7846ZM95.5544 38.1153C93.2227 38.1153 91.3243 36.1814 91.3243 33.8062C91.3243 31.4311 93.2227 29.4972 95.5544 29.4972C97.8861 29.4972 99.7846 31.4311 99.7846 33.8062C99.7846 36.1814 97.8861 38.1153 95.5544 38.1153ZM106.665 39.2185H107.124C107.315 39.2185 107.455 39.0628 107.455 38.8811V29.8735C107.455 29.6789 107.302 29.5361 107.124 29.5361H106.665C106.474 29.5361 106.334 29.6918 106.334 29.8735V38.8811C106.334 39.0758 106.487 39.2185 106.665 39.2185ZM82.2778 28.7833C80.7488 28.7444 79.3728 29.4452 78.4681 30.5485V27.1739C78.4681 26.9792 78.3152 26.8364 78.1369 26.8364H77.6782C77.487 26.8364 77.3469 26.9922 77.3469 27.1739V38.8811C77.3469 39.0758 77.4998 39.2185 77.6782 39.2185H78.1369C78.328 39.2185 78.4681 39.0628 78.4681 38.8811V33.7933C78.4681 31.6777 80.1627 29.8995 82.2396 29.9384C84.2528 29.9774 85.8837 31.6517 85.8837 33.7154V38.8811C85.8837 39.0758 86.0366 39.2185 86.2149 39.2185H86.6736C86.8647 39.2185 87.0049 39.0628 87.0049 38.8811V33.8062C87.0176 31.1066 84.928 28.8352 82.2778 28.7833ZM106.665 28.3031H107.124C107.315 28.3031 107.455 28.1473 107.455 27.9656V27.1869C107.455 26.9922 107.302 26.8494 107.124 26.8494H106.665C106.474 26.8494 106.334 27.0052 106.334 27.1869V27.9656C106.334 28.1473 106.487 28.3031 106.665 28.3031ZM117.61 28.7963C116.081 28.7573 114.705 29.4582 113.8 30.5614V29.8735C113.8 29.6789 113.647 29.5361 113.469 29.5361H113.01C112.819 29.5361 112.679 29.6918 112.679 29.8735V38.8811C112.679 39.0758 112.832 39.2185 113.01 39.2185H113.469C113.66 39.2185 113.8 39.0628 113.8 38.8811V33.8062C113.8 31.6906 115.495 29.9125 117.572 29.9514C119.585 29.9904 121.216 31.6647 121.216 33.7284V38.8811C121.216 39.0758 121.369 39.2185 121.547 39.2185H122.006C122.197 39.2185 122.337 39.0628 122.337 38.8811V33.8192C122.35 31.1195 120.26 28.8482 117.61 28.7963ZM60.6428 35.7531C60.7193 35.5584 60.6174 35.3248 60.4135 35.2729L60.0185 35.1431C59.8401 35.0912 59.649 35.182 59.5853 35.3637C58.9482 36.9991 57.4193 38.0764 55.6737 38.0764C53.3547 38.0764 51.4563 36.1555 51.4563 33.7803C51.4563 33.4947 51.4817 33.1962 51.5454 32.9107C51.9404 30.9249 53.686 29.4842 55.6737 29.4842C57.3046 29.4842 58.7698 30.4576 59.4706 31.8983C59.5726 32.1189 59.4579 32.3785 59.2285 32.4175L55.8648 33.1313C55.6737 33.1703 55.5463 33.3649 55.5845 33.5596L55.6737 33.975C55.7119 34.1697 55.903 34.2994 56.0941 34.2605L60.6683 33.3C60.8594 33.2611 60.9869 33.0664 60.9486 32.8717L60.9104 32.6641C60.4008 30.1591 58.1965 28.342 55.6737 28.342C53.1509 28.342 50.9466 30.1721 50.4369 32.69C50.3605 33.0534 50.3223 33.4169 50.3223 33.7803C50.3223 36.7785 52.7177 39.2185 55.6609 39.2185C57.9034 39.2185 59.8529 37.8428 60.6428 35.7531Z" fill="#15BDFF"/>
<path d="M41.7279 38.7435L36.7144 28.3414C36.633 28.1754 36.7555 27.979 36.936 27.979H38.6732C38.7664 27.979 38.8537 28.0327 38.8947 28.1157L42.5561 35.6622C42.8825 36.3392 43.8267 36.3392 44.1532 35.6622L47.8028 28.1217C47.8438 28.0387 47.9311 27.985 48.0243 27.985H48.24C48.3684 27.985 48.4498 28.1217 48.3918 28.2345L43.3256 38.7435C42.9991 39.4199 42.0544 39.4199 41.7279 38.7435Z" fill="url(#paint1_linear_2308_3137)"/>
<path opacity="0.1" d="M41.7275 38.7429L38.8943 28.1211C38.8533 28.0321 38.7601 27.9844 38.6845 27.9844H36.9414C36.7492 27.9844 36.6384 28.1802 36.714 28.3468L41.7275 38.7429Z" fill="white"/>
<path opacity="0.1" d="M42.5564 35.6676L36.7148 28.3414C36.6451 28.1695 36.75 27.9969 36.9129 27.979H38.6794C38.7784 27.985 38.854 28.0501 38.8892 28.1157L42.5564 35.6676Z" fill="white"/>
</g>
</g>
<defs>
<linearGradient id="paint0_linear_2308_3137" x1="36.6887" y1="33.6149" x2="48.4109" y2="33.6149" gradientUnits="userSpaceOnUse">
<stop stop-color="#9D4ABE"/>
<stop offset="0.03" stop-color="#9055C4"/>
<stop offset="0.15" stop-color="#6B74D6"/>
<stop offset="0.26" stop-color="#4C8FE5"/>
<stop offset="0.39" stop-color="#34A3F0"/>
<stop offset="0.52" stop-color="#22B2F9"/>
<stop offset="0.66" stop-color="#18BAFD"/>
<stop offset="0.83" stop-color="#15BDFF"/>
<stop offset="1" stop-color="#28BAD5"/>
</linearGradient>
<linearGradient id="paint1_linear_2308_3137" x1="36.6887" y1="33.6149" x2="48.4109" y2="33.6149" gradientUnits="userSpaceOnUse">
<stop stop-color="#9D4ABE"/>
<stop offset="0.03" stop-color="#9055C4"/>
<stop offset="0.15" stop-color="#6B74D6"/>
<stop offset="0.26" stop-color="#4C8FE5"/>
<stop offset="0.39" stop-color="#34A3F0"/>
<stop offset="0.52" stop-color="#22B2F9"/>
<stop offset="0.66" stop-color="#18BAFD"/>
<stop offset="0.83" stop-color="#15BDFF"/>
<stop offset="1" stop-color="#28BAD5"/>
</linearGradient>
<clipPath id="clip0_2308_3137">
<rect width="85.6226" height="12.46" fill="white" transform="translate(36.6887 26.8115)"/>
</clipPath>
</defs>
</svg>
