<svg width="159" height="67" viewBox="0 0 159 67" fill="none" xmlns="http://www.w3.org/2000/svg">
<path d="M72.5911 26.9574L68.9036 36.5253L65.255 26.9574V26.938H62.3827L62.4021 26.9574L67.6421 39.7664V39.7858H70.2233V39.7664L75.4634 26.9574L75.4828 26.938L72.5911 26.9574ZM125.205 35.9431C125.205 36.8552 124.953 37.6509 124.429 38.2914C123.924 38.9124 123.245 39.3976 122.488 39.6499C121.653 39.941 120.761 40.0769 119.868 40.0575C117.054 40.0575 115.191 38.9901 114.356 36.894L114.317 36.8164V36.797H114.337L116.452 35.6908H116.472V35.7102L116.51 35.8072C116.743 36.4283 117.209 36.9328 117.791 37.2434C118.451 37.5733 119.169 37.748 119.887 37.7286C120.683 37.7286 121.343 37.5733 121.867 37.2822C122.371 36.9911 122.624 36.5641 122.624 35.9625C122.624 35.0115 121.692 34.4293 119.848 34.2352C119.227 34.177 118.587 34.0605 117.985 33.9053C117.442 33.7694 116.937 33.5559 116.433 33.2842C115.928 33.0125 115.521 32.605 115.268 32.1004C114.997 31.6152 114.88 31.0135 114.88 30.3149C114.88 29.4803 115.132 28.7623 115.656 28.1606C116.142 27.5784 116.782 27.1514 117.5 26.9185C118.238 26.6857 119.014 26.5498 119.81 26.5498C122.294 26.5498 123.963 27.4037 124.797 29.1116L124.836 29.1892V29.2086H124.817L122.798 30.2566H122.779V30.2372L122.74 30.1596C122.527 29.7909 122.158 29.4803 121.634 29.2086C121.091 28.9369 120.508 28.8011 119.907 28.8011C119.092 28.8011 118.471 28.9563 118.063 29.2475C117.655 29.5386 117.461 29.9073 117.461 30.3537C117.461 30.5089 117.481 30.6448 117.558 30.7807C117.617 30.9165 117.714 31.033 117.83 31.1106C118.102 31.3241 118.412 31.4793 118.742 31.557C119.208 31.6734 119.654 31.751 120.12 31.8093C120.702 31.8869 121.207 31.9645 121.653 32.0615C122.119 32.1586 122.585 32.3138 123.012 32.5079C123.439 32.6826 123.827 32.9155 124.176 33.226C124.506 33.5365 124.759 33.9247 124.914 34.3322C125.108 34.8756 125.205 35.4191 125.205 35.9431ZM87.4961 26.9574L87.5155 29.4803H80.5482V32.1392H87.2632V34.5651H80.5482V37.1657H87.5155V39.7275H78.0058V26.938H87.4961V26.9574ZM108.301 26.9768L105.72 26.9574V26.9768L100.48 39.7858L100.46 39.8052H103.333V39.7858L107.02 30.2178L110.669 39.7858V39.8052H113.541L113.522 39.7858L108.301 26.9768ZM92.6197 37.1851H99.0047V37.3404V39.7469H90.0579V26.9574H92.6197V37.1851Z" fill="white"/>
<path d="M48.6224 30.6835L44.5856 37.8061L40.5489 30.6835H48.6224ZM52.6592 28.2964H36.4927L44.5856 42.5415L52.6592 28.2964ZM33.795 23.5415L35.1342 25.9092H53.9983L55.3374 23.5415H33.795Z" fill="#1D22FF"/>
</svg>
