<svg width="190" height="66" viewBox="0 0 190 66" fill="none" xmlns="http://www.w3.org/2000/svg">
<path d="M0 10C0 4.47715 4.47715 0 10 0H180C185.523 0 190 4.47715 190 10V56C190 61.5229 185.523 66 180 66H10C4.47715 66 0 61.5228 0 56V10Z" fill="white"/>
<path d="M124.223 45.6388L127.223 44.6944V19.9722L124.223 20.9166V45.6388ZM89.7503 30.6388C91.6392 30.6388 93.3614 31.4722 94.4725 32.8611L95.6948 30.0555C94.0837 28.5277 91.9725 27.8055 89.7503 27.8055C84.6114 27.8055 81.0559 31.8611 81.0837 36.3611C81.1114 41.2222 84.9448 45.1944 89.7503 45.1944C92.1948 45.1944 94.0281 44.4722 95.417 43.4444V39.9722C93.9448 41.4444 91.8337 42.3055 90.0003 42.3055C87.2225 42.3055 84.0837 40.0555 84.0837 36.3333C84.0837 32.8888 86.7781 30.6388 89.7503 30.6388ZM109.639 27.7777C104.5 27.7777 101.5 31.8333 101.5 36.3333C101.5 41.1944 105.361 45.1666 110.167 45.1666C112.611 45.1666 114.445 44.4444 115.834 43.4166V39.9722C114.361 41.4444 112.25 42.3055 110.417 42.3055C107.945 42.3055 105.25 40.7777 104.695 37.5555H117.806V36.4166C117.75 31.6111 114.611 27.7777 109.639 27.7777ZM141.917 27.7777C137.111 27.7777 133.223 31.6666 133.223 36.4722C133.223 41.2777 137.111 45.1666 141.917 45.1666C146.723 45.1666 150.611 41.2777 150.611 36.4722C150.611 31.6666 146.723 27.7777 141.917 27.7777ZM109.667 30.6388C112 30.6388 114.473 32.1111 114.667 34.9166H104.667C104.861 32.0833 107.334 30.6388 109.667 30.6388ZM141.917 42.3055C138.695 42.3055 136.084 39.6944 136.084 36.4722C136.084 33.2499 138.695 30.6388 141.917 30.6388C145.139 30.6388 147.75 33.2499 147.75 36.4722C147.75 39.6944 145.167 42.3055 141.917 42.3055Z" fill="#1D1D1B"/>
<path d="M59.3613 39.0833C64.6391 39.0833 68.9168 34.8056 68.9168 29.5278C68.9168 24.25 64.6391 19.9722 59.3613 19.9722C54.0835 19.9722 49.8057 24.25 49.8057 29.5278C49.8057 34.8056 54.0835 39.0833 59.3613 39.0833ZM59.3613 42.5556C52.1668 42.5556 46.3335 36.7222 46.3335 29.5278C46.3335 22.3333 52.1668 16.5 59.3613 16.5C66.5557 16.5 72.3891 22.3333 72.3891 29.5278C72.3891 36.7222 66.5557 42.5556 59.3613 42.5556Z" fill="#35D07F"/>
<path d="M52.4169 46.0277C57.6947 46.0277 61.9725 41.7499 61.9725 36.4721C61.9725 31.1943 57.6947 26.9166 52.4169 26.9166C47.1392 26.9166 42.8614 31.1943 42.8614 36.4721C42.8614 41.7499 47.1392 46.0277 52.4169 46.0277ZM52.4169 49.4999C45.2225 49.4999 39.3892 43.6666 39.3892 36.4721C39.3892 29.2777 45.2225 23.4443 52.4169 23.4443C59.6114 23.4443 65.4447 29.2777 65.4447 36.4721C65.4447 43.6666 59.6114 49.4999 52.4169 49.4999Z" fill="#FBCC5C"/>
<path d="M59.7779 42.5554C60.6946 41.4721 61.3335 40.1666 61.6668 38.8054C63.0557 38.4721 64.3335 37.8054 65.4168 36.9166C65.3613 38.4999 65.0279 40.0832 64.4168 41.5554C62.9446 42.1666 61.3891 42.4999 59.7779 42.5554ZM50.0835 27.1943C48.6946 27.5277 47.4168 28.1943 46.3335 29.0832C46.3891 27.4999 46.7224 25.9166 47.3335 24.4443C48.8057 23.8332 50.3613 23.4721 51.9724 23.4443C51.0835 24.5277 50.4446 25.8332 50.0835 27.1943Z" fill="#ECFF8F"/>
</svg>
