<svg width="191" height="66" viewBox="0 0 191 66" fill="none" xmlns="http://www.w3.org/2000/svg">
<rect width="191" height="66" rx="10" fill="white"/>
<g clip-path="url(#clip0_1_177)">
<path d="M61.5089 27.7698H63.1189L67.6239 38.2273H65.497L64.5221 35.8345H59.9875L59.0421 38.2273H56.9595L61.5089 27.7698ZM63.8722 34.2393L62.2622 29.9854L60.6226 34.2393H63.8722Z" fill="black"/>
<path d="M69.6201 27.7698H71.7619L74.6125 35.672L77.5518 27.7698H79.5609L75.3363 38.2273H73.7265L69.6201 27.7698Z" fill="black"/>
<path d="M86.212 27.7698H87.8224L92.327 38.2273H90.2001L89.2254 35.8345H84.6907L83.7452 38.2273H81.6628L86.212 27.7698ZM88.5754 34.2393L86.9655 29.9854L85.3259 34.2393H88.5754Z" fill="black"/>
<path d="M96.4436 27.7698H98.3048V36.5435H102.751V38.2273H96.4436V27.7698Z" fill="black"/>
<path d="M110.439 27.7698H112.049L116.554 38.2273H114.427L113.452 35.8345H108.918L107.972 38.2273H105.89L110.439 27.7698ZM112.802 34.2393L111.193 29.9854L109.553 34.2393H112.802Z" fill="black"/>
<path d="M120.671 27.7698H123.137L128.204 35.5391H128.233V27.7698H130.094V38.2273H127.731L122.561 30.2069H122.532V38.2273H120.671V27.7698Z" fill="black"/>
<path d="M142.559 30.2217C142.175 29.8081 141.801 29.5324 141.436 29.3945C141.082 29.2567 140.722 29.1878 140.358 29.1878C139.817 29.1878 139.324 29.2862 138.881 29.4832C138.448 29.6703 138.074 29.9361 137.759 30.2808C137.443 30.6156 137.198 31.0095 137.02 31.4624C136.853 31.9154 136.769 32.4028 136.769 32.9247C136.769 33.486 136.853 34.003 137.02 34.4756C137.198 34.9483 137.443 35.3569 137.759 35.7016C138.074 36.0462 138.448 36.317 138.881 36.514C139.324 36.7109 139.817 36.8094 140.358 36.8094C140.782 36.8094 141.19 36.7109 141.584 36.514C141.988 36.3072 142.362 35.9822 142.707 35.5391L144.243 36.6321C143.77 37.282 143.194 37.7547 142.515 38.0501C141.835 38.3455 141.111 38.4932 140.344 38.4932C139.536 38.4932 138.793 38.3652 138.113 38.1092C137.443 37.8433 136.862 37.4741 136.37 37.0014C135.888 36.5189 135.508 35.9428 135.233 35.2732C134.957 34.6036 134.819 33.8602 134.819 33.0429C134.819 32.2059 134.957 31.4476 135.233 30.7682C135.508 30.0789 135.888 29.493 136.37 29.0105C136.862 28.528 137.443 28.1587 138.113 27.9027C138.793 27.6368 139.536 27.5039 140.344 27.5039C141.053 27.5039 141.707 27.6319 142.308 27.8879C142.918 28.1341 143.485 28.5575 144.007 29.1582L142.559 30.2217Z" fill="black"/>
<path d="M148.447 27.7698H150.307V31.935H155.196V27.7698H157.058V38.2273H155.196V33.6189H150.307V38.2273H148.447V27.7698Z" fill="black"/>
<path d="M162.348 27.7698H169.276V29.4536H164.21V32.0237H169.01V33.7075H164.21V36.5435H169.542V38.2273H162.348V27.7698Z" fill="black"/>
<path fill-rule="evenodd" clip-rule="evenodd" d="M51.4504 33C51.4504 41.2843 44.7347 48 36.4504 48C28.1662 48 21.4504 41.2843 21.4504 33C21.4504 24.7157 28.1662 18 36.4504 18C44.7347 18 51.4504 24.7157 51.4504 33ZM32.1999 38.9689H29.2888C28.6771 38.9689 28.375 38.9689 28.1907 38.851C27.9917 38.722 27.8701 38.5083 27.8554 38.2725C27.8443 38.0551 27.9954 37.7898 28.2976 37.2591L35.4854 24.5896C35.7912 24.0516 35.946 23.7826 36.1413 23.6831C36.3514 23.5763 36.6019 23.5763 36.812 23.6831C37.0073 23.7826 37.162 24.0516 37.4679 24.5896L38.9455 27.1691L38.9531 27.1822C39.2834 27.7594 39.4509 28.0521 39.5241 28.3593C39.6051 28.6946 39.6051 29.0483 39.5241 29.3837C39.4504 29.6932 39.2845 29.988 38.9492 30.5739L35.1737 37.2481L35.1639 37.2652C34.8313 37.8471 34.6628 38.142 34.4293 38.3646C34.175 38.6078 33.8692 38.7847 33.5339 38.8842C33.228 38.9689 32.8853 38.9689 32.1999 38.9689ZM39.5513 38.9693H43.7227C44.3381 38.9693 44.6476 38.9693 44.8318 38.8477C45.0308 38.7187 45.1561 38.5013 45.1672 38.2654C45.1778 38.0552 45.03 37.8001 44.7404 37.3004C44.7305 37.2833 44.7204 37.266 44.7102 37.2484L42.6209 33.674L42.5971 33.6338C42.3035 33.1373 42.1552 32.8866 41.965 32.7897C41.7549 32.6828 41.5081 32.6828 41.298 32.7897C41.1064 32.8891 40.9516 33.1508 40.6458 33.6777L38.5638 37.2521L38.5567 37.2644C38.2519 37.7905 38.0996 38.0534 38.1105 38.2691C38.1253 38.505 38.2469 38.7224 38.4459 38.8513C38.6264 38.9693 38.9359 38.9693 39.5513 38.9693Z" fill="#E84142"/>
</g>
<defs>
<clipPath id="clip0_1_177">
<rect width="148.099" height="30" fill="white" transform="translate(21.4504 18)"/>
</clipPath>
</defs>
</svg>
