<svg width="190" height="66" viewBox="0 0 190 66" fill="none" xmlns="http://www.w3.org/2000/svg">
<rect width="190" height="66" rx="10" fill="white"/>
<path d="M57.5458 28.332C57.2861 28.1823 56.9916 28.1035 56.6919 28.1035C56.3921 28.1035 56.0977 28.1823 55.838 28.332L51.92 30.6659L49.2578 32.1881L45.3398 34.5222C45.0801 34.6718 44.7857 34.7506 44.4859 34.7506C44.1862 34.7506 43.8917 34.6718 43.632 34.5222L40.5178 32.6956C40.2622 32.543 40.0497 32.3278 39.9003 32.0704C39.751 31.8129 39.6696 31.5217 39.6639 31.2241V27.6216C39.6589 27.3219 39.7358 27.0264 39.8863 26.7672C40.0367 26.5079 40.2551 26.2946 40.5178 26.1502L43.5818 24.3743C43.8415 24.2246 44.136 24.1458 44.4357 24.1458C44.7355 24.1458 45.03 24.2246 45.2897 24.3743L48.3537 26.1502C48.6092 26.3028 48.8217 26.5179 48.9711 26.7754C49.1205 27.0328 49.2019 27.324 49.2076 27.6216V29.9556L51.8697 28.3827V26.0486C51.8747 25.7489 51.7978 25.4535 51.6474 25.1942C51.4969 24.9349 51.2786 24.7216 51.0159 24.5772L45.3398 21.2284C45.0801 21.0788 44.7857 21 44.4859 21C44.1862 21 43.8917 21.0788 43.632 21.2284L37.8556 24.5772C37.5929 24.7216 37.3746 24.935 37.2241 25.1942C37.0736 25.4535 36.9967 25.7489 37.0017 26.0486V32.797C36.9967 33.0968 37.0736 33.3922 37.2241 33.6514C37.3746 33.9107 37.5929 34.124 37.8556 34.2684L43.6321 37.6172C43.8917 37.7669 44.1862 37.8457 44.486 37.8457C44.7857 37.8457 45.0802 37.7669 45.3399 37.6172L49.2578 35.334L51.92 33.7611L55.838 31.4778C56.0977 31.3281 56.3921 31.2494 56.6919 31.2494C56.9916 31.2494 57.2861 31.3281 57.5458 31.4778L60.6098 33.2537C60.8654 33.4063 61.0778 33.6214 61.2272 33.8789C61.3766 34.1363 61.458 34.4275 61.4637 34.7251V38.3276C61.4687 38.6274 61.3918 38.9228 61.2413 39.182C61.0909 39.4413 60.8725 39.6546 60.6098 39.799L57.5458 41.6257C57.2861 41.7754 56.9916 41.8541 56.6919 41.8541C56.3921 41.8541 56.0977 41.7754 55.838 41.6257L52.7739 39.8498C52.5184 39.6972 52.3059 39.4821 52.1565 39.2246C52.0071 38.9672 51.9257 38.6759 51.92 38.3783V36.0443L49.2578 37.6172V39.9513C49.2528 40.251 49.3297 40.5464 49.4802 40.8057C49.6307 41.065 49.849 41.2783 50.1117 41.4227L55.8881 44.7716C56.1479 44.9212 56.4423 45 56.7421 45C57.0418 45 57.3363 44.9212 57.596 44.7716L63.3724 41.4227C63.628 41.2701 63.8405 41.055 63.9899 40.7975C64.1393 40.5401 64.2207 40.2489 64.2264 39.9513V33.2029C64.2313 32.9032 64.1544 32.6078 64.004 32.3485C63.8535 32.0892 63.6351 31.8759 63.3724 31.7315L57.5458 28.332Z" fill="#7B3FE4"/>
<path d="M74.8342 42.8389V37.2365C75.2182 37.6452 75.6879 37.9641 76.2095 38.1702C76.7311 38.3764 77.2918 38.4647 77.8515 38.429C81.1412 38.429 83.3645 36.1115 83.3645 32.579C83.3645 29.0465 81.3227 26.7291 78.1238 26.7291C77.5031 26.6939 76.8827 26.8037 76.3117 27.0497C75.7408 27.2957 75.2349 27.6713 74.8342 28.1466V26.9091H71.6807V42.8389H74.8342ZM77.4659 35.729C75.7643 35.729 74.6527 34.469 74.6527 32.579C74.6527 30.6665 75.7643 29.4065 77.4659 29.4065C79.122 29.4065 80.2564 30.6665 80.2564 32.579C80.2564 34.469 79.122 35.729 77.4659 35.729Z" fill="black"/>
<path d="M90.5252 38.4291C91.6744 38.3933 92.7877 38.0198 93.726 37.3552C94.6643 36.6906 95.386 35.7644 95.8012 34.6921C96.2163 33.6198 96.3064 32.4491 96.0602 31.3259C95.814 30.2028 95.2424 29.177 94.4168 28.3767C93.5912 27.5764 92.5482 27.037 91.4179 26.8259C90.2876 26.6147 89.1202 26.7412 88.0614 27.1894C87.0025 27.6377 86.0992 28.3879 85.4641 29.3464C84.829 30.3049 84.4903 31.4293 84.4903 32.5791C84.4752 33.3673 84.6223 34.1502 84.9227 34.879C85.223 35.6079 85.6701 36.2672 86.2361 36.8159C86.8022 37.3646 87.475 37.791 88.2129 38.0685C88.9508 38.346 89.7378 38.4687 90.5252 38.4291ZM90.5252 35.7291C88.8236 35.7291 87.6665 34.4466 87.6665 32.5791C87.6665 30.6891 88.8236 29.4066 90.5252 29.4066C92.2267 29.4066 93.3837 30.6891 93.3837 32.5791C93.3837 34.4466 92.2267 35.7291 90.5252 35.7291Z" fill="black"/>
<path d="M101.619 38.2491V21.9817H98.4658V38.2491H101.619Z" fill="black"/>
<path d="M111.099 26.9089L108.717 34.2214L106.312 26.9089H103.091L107.243 38.1589L105.564 42.8388H108.581L110.192 38.2039L114.344 26.9089H111.099Z" fill="black"/>
<path d="M123.2 28.0339C122.803 27.5969 122.315 27.2533 121.769 27.0276C121.224 26.802 120.636 26.7 120.046 26.7289C116.711 26.7289 114.692 29.0464 114.692 32.5789C114.692 36.1114 116.711 38.4288 120.092 38.4288C120.681 38.4645 121.27 38.3632 121.813 38.1328C122.356 37.9025 122.839 37.5494 123.222 37.1014V38.5863C123.24 38.8151 123.21 39.0451 123.135 39.2619C123.06 39.4787 122.941 39.6777 122.786 39.8466C122.631 40.0155 122.442 40.1505 122.232 40.2434C122.022 40.3362 121.796 40.3849 121.566 40.3863H116.303V42.8388H122.065C124.652 42.8388 126.376 41.2863 126.376 38.9238V26.9089H123.2V28.0339ZM120.591 35.7289C118.912 35.7289 117.8 34.4914 117.8 32.5789C117.8 30.6664 118.912 29.4064 120.591 29.4064C122.292 29.4064 123.404 30.6664 123.404 32.5789C123.404 34.4914 122.292 35.7289 120.591 35.7289V35.7289Z" fill="black"/>
<path d="M134.327 38.4291C135.476 38.3934 136.589 38.0199 137.527 37.3554C138.466 36.6909 139.188 35.7646 139.603 34.6924C140.018 33.6201 140.108 32.4493 139.862 31.3261C139.616 30.2029 139.044 29.1772 138.219 28.3768C137.393 27.5765 136.35 27.0371 135.22 26.8259C134.089 26.6147 132.922 26.7411 131.863 27.1894C130.804 27.6376 129.901 28.3879 129.266 29.3464C128.631 30.3049 128.292 31.4293 128.292 32.5791C128.277 33.3672 128.424 34.1501 128.724 34.8789C129.025 35.6077 129.472 36.267 130.038 36.8157C130.604 37.3644 131.277 37.7907 132.014 38.0683C132.752 38.3458 133.539 38.4687 134.327 38.4291ZM134.327 35.7291C132.625 35.7291 131.468 34.4466 131.468 32.5791C131.468 30.6891 132.625 29.4066 134.327 29.4066C136.028 29.4066 137.186 30.6891 137.186 32.5791C137.186 34.4466 136.028 35.7291 134.327 35.7291Z" fill="black"/>
<path d="M145.262 38.2489V32.0389C145.239 31.7156 145.283 31.391 145.391 31.0855C145.499 30.78 145.67 30.5001 145.891 30.2635C146.113 30.0269 146.381 29.8386 146.679 29.7105C146.976 29.5824 147.297 29.5172 147.621 29.5189C147.925 29.5158 148.226 29.576 148.506 29.6958C148.785 29.8156 149.036 29.9923 149.243 30.2146C149.45 30.4369 149.609 30.6999 149.709 30.9869C149.808 31.2739 149.847 31.5786 149.823 31.8814V38.2489H152.999V31.1839C152.999 28.5739 151.32 26.7289 148.734 26.7289C148.051 26.6862 147.37 26.8263 146.759 27.1348C146.149 27.4433 145.632 27.909 145.262 28.4839V26.9089H142.086V38.2489H145.262Z" fill="black"/>
</svg>
