<svg width="191" height="66" viewBox="0 0 191 66" fill="none" xmlns="http://www.w3.org/2000/svg">
<rect width="191" height="66" rx="10" fill="white"/>
<path d="M70.3833 21.2991H75.6123C76.941 21.2991 77.9125 21.6563 78.5412 22.2706C79.1555 22.7992 79.4269 23.5136 79.4269 24.2136C79.4269 24.4851 79.4269 24.828 79.3412 25.0994C79.1698 25.5423 78.8983 25.9852 78.5412 26.3424C78.3697 26.5138 78.184 26.6138 78.0125 26.6996C78.6269 26.871 79.1698 27.2282 79.6127 27.6711C79.9698 28.114 80.1413 28.6426 80.1413 29.4426C80.1413 29.8855 80.0556 30.4142 79.8698 30.7713C79.6984 31.1285 79.3412 31.4857 78.984 31.7428C78.5412 32.0143 78.0983 32.1857 77.6554 32.3572C77.1267 32.5286 76.4981 32.5286 75.8838 32.5286H70.469V21.2705H70.3833V21.2991ZM75.1694 25.8995C75.6123 25.8995 76.0552 25.8138 76.4981 25.628C76.8553 25.4566 77.0267 25.0994 77.0267 24.7422C77.0267 24.3851 76.8553 24.0279 76.5838 23.8564C76.2267 23.585 75.7838 23.4993 75.3409 23.585H72.8549V25.9709H75.1551V25.8995H75.1694ZM75.7838 30.4284C76.2267 30.4284 76.6696 30.3427 77.1125 30.157C77.4696 29.9856 77.6411 29.6284 77.5554 29.1855C77.5554 28.8283 77.3839 28.4711 77.1125 28.2997C76.841 28.1282 76.3124 27.9425 75.698 27.9425H72.7692V30.4284H75.7838Z" fill="#F3BA2F"/>
<path d="M83.2275 21.2991H85.7135V32.6429H83.2275V21.2991Z" fill="#F3BA2F"/>
<path d="M89.5278 21.2991H91.828L97.1428 28.2997V21.2991H99.6144V32.6429H97.5L91.9137 25.4566V32.6429H89.5278V21.2991Z" fill="#F3BA2F"/>
<path d="M107.158 21.2134H109.458L114.33 32.6429H111.758L110.701 30.0713H105.915L104.858 32.6429H102.286L107.158 21.2134ZM109.815 27.9425L108.315 24.2279L106.815 27.9425H109.815Z" fill="#F3BA2F"/>
<path d="M116.988 21.2991H119.288L124.603 28.2997V21.2991H127.089V32.6429H124.96L119.459 25.4566V32.6429H116.988V21.2991Z" fill="#F3BA2F"/>
<path d="M136.118 32.8144C135.318 32.8144 134.518 32.643 133.818 32.3715C132.403 31.7572 131.332 30.6857 130.717 29.2712C130.446 28.5569 130.274 27.7711 130.274 26.971C130.274 25.4709 130.889 23.9565 131.96 22.8135C132.489 22.2849 133.118 21.842 133.818 21.5706C134.618 21.2134 135.418 21.1277 136.203 21.1277C136.646 21.1277 137.175 21.1277 137.618 21.2134C138.061 21.2991 138.418 21.3849 138.775 21.5706C139.132 21.742 139.49 21.9278 139.747 22.0992C140.018 22.2706 140.361 22.5421 140.632 22.8135L139.132 24.6709C138.689 24.3137 138.247 23.9565 137.804 23.6993C137.361 23.4422 136.832 23.3422 136.304 23.3422C135.861 23.3422 135.418 23.4279 134.975 23.6136C134.532 23.7851 134.175 24.0565 133.918 24.4137C133.66 24.7709 133.389 25.128 133.203 25.5709C133.032 26.0138 132.932 26.4567 132.932 26.8996C132.932 27.3425 133.018 27.8711 133.203 28.314C133.389 28.7569 133.56 29.1141 133.918 29.4713C134.532 30.1856 135.418 30.5285 136.304 30.5285C136.832 30.5285 137.461 30.4428 137.989 30.1713C138.432 29.8999 138.961 29.557 139.318 29.1998L140.904 30.7857C140.632 31.0571 140.29 31.4 140.018 31.6715C139.661 31.9429 139.304 32.1144 138.961 32.2858C138.604 32.4572 138.161 32.643 137.718 32.7287C137.089 32.8144 136.561 32.8144 136.118 32.8144Z" fill="#F3BA2F"/>
<path d="M143.747 21.2991H152.248V23.5135H146.133V25.8137H151.533V28.0282H146.133V30.4284H152.334V32.6429H143.747V21.2991Z" fill="#F3BA2F"/>
<path d="M73.5695 43.8009C72.9551 43.8009 72.3265 43.7152 71.7979 43.4437C71.2693 43.2723 70.7407 42.9151 70.1978 42.4722L71.0835 41.5007C71.4407 41.8579 71.7979 42.0293 72.2408 42.3008C72.6837 42.4722 73.1266 42.5722 73.5695 42.5722C73.9266 42.5722 74.2838 42.4865 74.6267 42.3008C74.8982 42.1293 74.9839 41.8579 74.9839 41.5864C74.9839 41.5007 74.9839 41.315 74.8982 41.2293C74.8124 41.1435 74.7267 40.9578 74.6267 40.8721C74.4553 40.7864 74.2695 40.7006 74.0981 40.6006C73.8266 40.5149 73.4838 40.4292 73.2123 40.3292C72.8551 40.2435 72.4122 40.1577 72.0551 39.972C71.7836 39.8863 71.4407 39.7006 71.255 39.5291C71.0835 39.3577 70.8978 39.1719 70.7264 38.9148C70.5549 38.5576 70.5549 38.2004 70.5549 37.9433C70.5549 37.5861 70.6406 37.3289 70.7264 36.9718C70.8121 36.7003 71.0835 36.4431 71.255 36.2574C71.5264 36.086 71.7836 35.9002 72.1408 35.8145C72.498 35.7288 72.8551 35.6431 73.198 35.6431C73.7266 35.6431 74.2552 35.7288 74.7982 35.9145C75.241 36.086 75.6839 36.3574 76.1268 36.6289L75.4125 37.6861C75.0553 37.4146 74.6981 37.2432 74.3553 37.0718C73.9981 36.9003 73.6409 36.9003 73.298 36.9003C72.9408 36.9003 72.5837 36.986 72.3265 37.1718C72.1551 37.3432 71.9693 37.6147 71.9693 37.8861C71.9693 38.0576 71.9693 38.1576 72.0551 38.329C72.1408 38.4147 72.2265 38.6005 72.3265 38.6862C72.498 38.7719 72.6837 38.8576 72.9408 38.9576C73.2123 39.0434 73.4695 39.1291 73.9124 39.2291C74.2695 39.3148 74.6267 39.4005 75.0696 39.5863C75.3411 39.672 75.5982 39.8577 75.8697 40.0292C76.0411 40.2006 76.2268 40.4721 76.3126 40.6435C76.3983 40.915 76.484 41.1721 76.484 41.5293C76.484 41.8865 76.3983 42.2436 76.3126 42.5008C76.1411 42.7723 75.9554 43.0294 75.6982 43.3009C75.4268 43.4723 75.1696 43.658 74.8124 43.7438C74.3695 43.7152 73.9266 43.8009 73.5695 43.8009Z" fill="#F3BA2F"/>
<path d="M77.9985 35.7432H79.5129L81.8989 39.4578L84.3848 35.7432H85.8849V43.7153H84.4705V37.9576L81.9846 41.6722H81.8989L79.4272 37.9576V43.7153H77.9985V35.7432Z" fill="#F3BA2F"/>
<path d="M90.6712 35.6575H91.9999L95.4573 43.6296H93.9572L93.1571 41.6866H89.4425L88.6424 43.6296H87.228L90.6712 35.6575ZM92.7142 40.5293L91.2998 37.3433L89.9711 40.5293H92.7142Z" fill="#F3BA2F"/>
<path d="M96.8719 35.7432H100.415C100.858 35.7432 101.301 35.8289 101.744 35.9146C102.101 36.0003 102.458 36.2718 102.715 36.5289C102.887 36.7004 103.072 36.9718 103.244 37.329C103.33 37.6005 103.415 37.9434 103.415 38.3005C103.415 38.572 103.33 38.9149 103.244 39.1863C103.158 39.4578 102.972 39.6292 102.887 39.9007C102.715 40.0721 102.529 40.2578 102.272 40.4293C102.001 40.6007 101.744 40.7007 101.472 40.7865L103.601 43.801H101.915L99.9721 41.0579H98.2005V43.801H96.7861L96.8719 35.7432ZM100.329 39.6435C100.772 39.6435 101.215 39.5578 101.487 39.2863C101.758 39.0149 101.929 38.672 101.929 38.3148C101.929 37.9576 101.758 37.6005 101.487 37.3433C101.129 37.0718 100.686 36.9861 100.244 36.9861H98.2005V39.6435H100.329Z" fill="#F3BA2F"/>
<path d="M107.058 36.9861H104.486V35.7432H110.958V36.9861H108.387V43.7153H106.972L107.058 36.9861Z" fill="#F3BA2F"/>
<path d="M119.559 43.8011C119.03 43.8011 118.502 43.7154 117.959 43.4439C116.987 43.001 116.187 42.2867 115.83 41.3151C115.659 40.7865 115.473 40.2579 115.559 39.715C115.559 39.1864 115.644 38.6578 115.83 38.1149C116.187 37.1434 116.987 36.3433 117.959 35.9004C118.488 35.7289 119.016 35.5432 119.645 35.5432C120.002 35.5432 120.359 35.5432 120.616 35.6289C120.888 35.7147 121.145 35.8004 121.416 35.9004C121.688 35.9861 121.859 36.1718 122.131 36.2576C122.302 36.429 122.574 36.6147 122.745 36.7862L121.859 37.8434C121.588 37.572 121.245 37.3148 120.888 37.1291C120.531 36.9576 120.088 36.8576 119.645 36.8576C119.288 36.8576 118.93 36.9433 118.588 37.0291C118.23 37.2005 117.973 37.3862 117.702 37.6434C117.43 37.9148 117.259 38.172 117.173 38.5292C117.087 38.8864 117.002 39.2435 117.002 39.5864C117.002 39.9436 117.087 40.3008 117.173 40.6437C117.259 40.9865 117.445 41.258 117.702 41.5294C117.973 41.8009 118.23 41.9723 118.588 42.1438C118.945 42.3152 119.302 42.4152 119.645 42.3152C120.088 42.3152 120.531 42.2295 120.888 42.0438C121.245 41.8723 121.602 41.6009 121.945 41.2437L122.831 42.1295C122.659 42.3009 122.388 42.5724 122.216 42.7438C121.945 42.9153 121.774 43.101 121.502 43.1867C121.231 43.2725 120.973 43.4582 120.616 43.4582C120.259 43.8011 119.902 43.8011 119.559 43.8011Z" fill="#F3BA2F"/>
<path d="M124.245 35.7432H125.574V39.0149H129.388V35.7432H130.803V43.7153H129.388V40.3436H125.574V43.7153H124.245V35.7432Z" fill="#F3BA2F"/>
<path d="M135.675 35.6575H137.004L140.461 43.6296H138.961L138.161 41.6866H134.446L133.646 43.6296H132.232L135.675 35.6575ZM137.632 40.5293L136.304 37.3433L134.975 40.5293H137.632Z" fill="#F3BA2F"/>
<path d="M141.875 35.7432H143.304V43.7153H141.875V35.7432Z" fill="#F3BA2F"/>
<path d="M145.418 35.7432H146.661L150.919 41.2294V35.7432H152.333V43.7153H151.176L146.847 38.0434V43.7153H145.418V35.7432Z" fill="#F3BA2F"/>
<path d="M54.7965 43.1867V46.6441L51.7819 48.4157L48.8531 46.6441V43.1867L51.7819 44.9583L54.7965 43.1867ZM38.6665 31.2285L41.5953 33.0001V38.9292L46.6386 41.9437V45.4012L38.6665 40.7008V31.2285ZM64.8974 31.2285V40.715L56.8395 45.4155V41.958L61.8828 38.9435V33.0144L64.8974 31.2285ZM56.8252 26.5281L59.8398 28.2997V31.7571L54.7965 34.7717V40.7865L51.8677 42.5581L48.9531 40.7865V34.7574L43.7241 31.7428V28.2854L46.7386 26.5138L51.7819 29.5284L56.8252 26.5281ZM43.7241 34.2288L46.6529 36.0004V39.4578L43.7241 37.6862V34.2288ZM59.8398 34.2288V37.6862L56.9109 39.4578V36.0004L59.8398 34.2288ZM41.5953 23.5136L44.6099 25.2851L41.5953 27.0567V30.5142L38.6665 28.7426V25.2851L41.5953 23.5136ZM61.9685 23.5136L64.9831 25.2851V28.7426L61.9685 30.5142V27.0567L59.0397 25.2851L61.9685 23.5136ZM51.7819 23.5136L54.7965 25.2851L51.7819 27.0567L48.8531 25.2851L51.7819 23.5136ZM51.7819 17.5845L59.8398 22.2849L56.9109 24.0565L51.8677 21.0419L46.7243 24.0565L43.7955 22.2849L51.7819 17.5845Z" fill="#F3BA2F"/>
</svg>
