<svg width="190" height="66" viewBox="0 0 190 66" fill="none" xmlns="http://www.w3.org/2000/svg">
<path d="M0 10C0 4.47715 4.47715 0 10 0H180C185.523 0 190 4.47715 190 10V56C190 61.5229 185.523 66 180 66H10C4.47715 66 0 61.5228 0 56V10Z" fill="white"/>
<path d="M142.581 25.8137L135.256 42.4881H132.814L140.907 24.2091C141.186 23.5114 141.884 23.0928 142.581 23.0928C143.349 23.0928 143.977 23.5114 144.256 24.2091L152.349 42.4881H149.907L142.581 25.8137Z" fill="#1B1C1B"/>
<path d="M122.209 25.1858H115.651V23.0928H130.93V25.1858H124.372V42.4881H122.139L122.209 25.1858Z" fill="#1B1C1B"/>
<path d="M90.9531 32.9999C90.9531 27.558 95.5578 22.9534 100.93 22.9534C106.372 22.9534 110.837 27.4883 110.837 32.9999C110.837 38.5115 106.302 43.0464 100.93 43.0464C95.5578 43.0464 90.9531 38.5115 90.9531 32.9999ZM108.604 32.9999C108.604 28.6743 105.116 25.0464 100.93 25.0464C96.7438 25.0464 93.1857 28.6743 93.1857 32.9999C93.1857 37.3255 96.7438 41.0231 100.93 41.0231C105.116 41.0231 108.604 37.3255 108.604 32.9999Z" fill="#1B1C1B"/>
<path d="M81.6045 23.4417H83.837V42.837H81.6045V23.4417Z" fill="#1B1C1B"/>
<path d="M60.4648 21.6279C61.4416 21.6279 62.2788 20.7907 62.2788 19.814C62.2788 18.8372 61.4416 18 60.4648 18C59.4881 18 58.6509 18.8372 58.6509 19.814C58.6509 20.7907 59.4183 21.6279 60.4648 21.6279Z" fill="#1B1C1B"/>
<path d="M62.4883 47.0232C63.465 47.0232 64.3022 46.186 64.3022 45.2092C64.3022 44.2325 63.465 43.3953 62.4883 43.3953C61.5115 43.3953 60.6743 44.2325 60.6743 45.2092C60.6743 46.186 61.4418 47.0232 62.4883 47.0232Z" fill="#1B1C1B"/>
<path d="M60.9533 26.093C61.7906 26.093 62.4882 25.3953 62.4882 24.5581C62.4882 23.7209 61.7906 23.0232 60.9533 23.0232C60.1161 23.0232 59.4185 23.7209 59.4185 24.5581C59.4185 25.3953 60.1161 26.093 60.9533 26.093Z" fill="#1B1C1B"/>
<path d="M64.9997 26.7209C65.8369 26.7209 66.5346 26.0232 66.5346 25.186C66.5346 24.3488 65.8369 23.6511 64.9997 23.6511C64.1625 23.6511 63.4648 24.3488 63.4648 25.186C63.4648 26.0232 64.1625 26.7209 64.9997 26.7209Z" fill="#1B1C1B"/>
<path d="M60.4648 29.9303C61.1625 29.9303 61.7206 29.3722 61.7206 28.6745C61.7206 27.9768 61.1625 27.4187 60.4648 27.4187C59.7672 27.4187 59.209 27.9768 59.209 28.6745C59.1392 29.3722 59.6974 29.9303 60.4648 29.9303Z" fill="#1B1C1B"/>
<path d="M64.4418 30.4884C65.1395 30.4884 65.6977 29.9303 65.6977 29.2326C65.6977 28.5349 65.1395 27.9768 64.4418 27.9768C63.7442 27.9768 63.186 28.5349 63.186 29.2326C63.186 29.9303 63.7442 30.4884 64.4418 30.4884Z" fill="#1B1C1B"/>
<path d="M67.6508 31.744C68.3485 31.744 68.9066 31.1859 68.9066 30.4882C68.9066 29.7906 68.3485 29.2324 67.6508 29.2324C66.9532 29.2324 66.395 29.7906 66.395 30.4882C66.395 31.1859 66.9532 31.744 67.6508 31.744Z" fill="#1B1C1B"/>
<path d="M63.2554 33.5582C63.8833 33.5582 64.3717 33.0699 64.3717 32.442C64.3717 31.8141 63.8833 31.3257 63.2554 31.3257C62.6275 31.3257 62.1392 31.8141 62.1392 32.442C62.1392 33.0699 62.6275 33.5582 63.2554 33.5582Z" fill="#1B1C1B"/>
<path d="M59.2091 33.0001C59.837 33.0001 60.3253 32.5118 60.3253 31.8839C60.3253 31.2559 59.837 30.7676 59.2091 30.7676C58.5811 30.7676 58.0928 31.2559 58.0928 31.8839C58.0928 32.5118 58.6509 33.0001 59.2091 33.0001Z" fill="#1B1C1B"/>
<path d="M66.5347 34.8141C67.1626 34.8141 67.651 34.3257 67.651 33.6978C67.651 33.0699 67.1626 32.5815 66.5347 32.5815C65.9068 32.5815 65.4185 33.0699 65.4185 33.6978C65.4185 34.3257 65.9068 34.8141 66.5347 34.8141Z" fill="#1B1C1B"/>
<path d="M61.6511 35.9303C62.2092 35.9303 62.6278 35.5117 62.6278 34.9535C62.6278 34.3954 62.2092 33.9768 61.6511 33.9768C61.0929 33.9768 60.6743 34.3954 60.6743 34.9535C60.6743 35.5117 61.0929 35.9303 61.6511 35.9303Z" fill="#1B1C1B"/>
<path d="M64.9299 37.1163C65.488 37.1163 65.9066 36.6977 65.9066 36.1396C65.9066 35.5814 65.488 35.1628 64.9299 35.1628C64.3717 35.1628 63.9531 35.5814 63.9531 36.1396C63.9531 36.6977 64.3717 37.1163 64.9299 37.1163Z" fill="#1B1C1B"/>
<path d="M57.674 35.3024C58.2321 35.3024 58.6508 34.8838 58.6508 34.3256C58.6508 33.7675 58.2321 33.3489 57.674 33.3489C57.1159 33.3489 56.6973 33.7675 56.6973 34.3256C56.6973 34.8838 57.1159 35.3024 57.674 35.3024Z" fill="#1B1C1B"/>
<path d="M59.9065 37.4649C60.3252 37.4649 60.7438 37.1161 60.7438 36.6277C60.7438 36.2091 60.3949 35.7905 59.9065 35.7905C59.4879 35.7905 59.0693 36.1394 59.0693 36.6277C59.0693 37.1161 59.4182 37.4649 59.9065 37.4649Z" fill="#1B1C1B"/>
<path d="M61.3018 39.6976C61.7204 39.6976 61.9995 39.3488 61.9995 38.9999C61.9995 38.5813 61.6507 38.3022 61.3018 38.3022C60.8832 38.3022 60.6041 38.6511 60.6041 38.9999C60.5344 39.3488 60.8832 39.6976 61.3018 39.6976Z" fill="#1B1C1B"/>
<path d="M59.5581 40.1163C59.907 40.1163 60.1163 39.8372 60.1163 39.5581C60.1163 39.2093 59.8372 39 59.5581 39C59.2093 39 59 39.2791 59 39.5581C59 39.907 59.2093 40.1163 59.5581 40.1163Z" fill="#1B1C1B"/>
<path d="M58.0229 38.5116C58.4415 38.5116 58.7205 38.1627 58.7205 37.8139C58.7205 37.3953 58.3717 37.1162 58.0229 37.1162C57.6043 37.1162 57.3252 37.465 57.3252 37.8139C57.3252 38.1627 57.674 38.5116 58.0229 38.5116Z" fill="#1B1C1B"/>
<path d="M55.8602 36.9068C56.2788 36.9068 56.6974 36.558 56.6974 36.0696C56.6974 35.5813 56.3485 35.2324 55.8602 35.2324C55.4416 35.2324 55.0229 35.5813 55.0229 36.0696C55.0229 36.558 55.4416 36.9068 55.8602 36.9068Z" fill="#1B1C1B"/>
<path d="M55.8602 30.9068C56.2788 30.9068 56.6974 30.558 56.6974 30.0696C56.6974 29.5813 56.3485 29.2324 55.8602 29.2324C55.4416 29.2324 55.0229 29.5813 55.0229 30.0696C55.0229 30.558 55.3718 30.9068 55.8602 30.9068Z" fill="#1B1C1B"/>
<path d="M56.209 28.0465C56.6277 28.0465 56.9067 27.6976 56.9067 27.3488C56.9067 26.9302 56.5579 26.6511 56.209 26.6511C55.7904 26.6511 55.5114 27 55.5114 27.3488C55.4416 27.7674 55.7904 28.0465 56.209 28.0465Z" fill="#1B1C1B"/>
<path d="M56.9766 25.7442C57.3255 25.7442 57.5348 25.4651 57.5348 25.1861C57.5348 24.8372 57.2557 24.6279 56.9766 24.6279C56.6278 24.6279 56.4185 24.907 56.4185 25.1861C56.3487 25.5349 56.6278 25.7442 56.9766 25.7442Z" fill="#1B1C1B"/>
<path d="M55.581 24.6976C55.9996 24.6976 56.2786 24.3488 56.2786 23.9999C56.2786 23.5813 55.9298 23.3022 55.581 23.3022C55.1624 23.3022 54.8833 23.6511 54.8833 23.9999C54.8833 24.3488 55.2321 24.6976 55.581 24.6976Z" fill="#1B1C1B"/>
<path d="M63.116 38.7211C63.5346 38.7211 63.9532 38.3722 63.9532 37.8838C63.9532 37.3955 63.6044 37.0466 63.116 37.0466C62.6974 37.0466 62.2788 37.3955 62.2788 37.8838C62.2788 38.3722 62.6276 38.7211 63.116 38.7211Z" fill="#1B1C1B"/>
<path d="M53.7669 23.721C54.1855 23.721 54.6041 23.3722 54.6041 22.8838C54.6041 22.4652 54.2553 22.0466 53.7669 22.0466C53.3483 22.0466 52.9297 22.3955 52.9297 22.8838C52.9297 23.3722 53.3483 23.721 53.7669 23.721Z" fill="#1B1C1B"/>
<path d="M54.3255 27.1395C54.7441 27.1395 55.1627 26.7907 55.1627 26.3023C55.1627 25.8837 54.8139 25.4651 54.3255 25.4651C53.9069 25.4651 53.4883 25.8139 53.4883 26.3023C53.4883 26.7907 53.8371 27.1395 54.3255 27.1395Z" fill="#1B1C1B"/>
<path d="M53.4182 30.4186C53.9763 30.4186 54.3949 30 54.3949 29.4418C54.3949 28.8837 53.9763 28.4651 53.4182 28.4651C52.86 28.4651 52.4414 28.8837 52.4414 29.4418C52.4414 30 52.86 30.4186 53.4182 30.4186Z" fill="#1B1C1B"/>
<path d="M50.4883 30.4186C51.1163 30.4186 51.6046 29.9302 51.6046 29.3023C51.6046 28.6744 51.1163 28.186 50.4883 28.186C49.8604 28.186 49.3721 28.6744 49.3721 29.3023C49.3721 29.8605 49.8604 30.4186 50.4883 30.4186Z" fill="#1B1C1B"/>
<path d="M47.0693 31.1862C47.767 31.1862 48.3251 30.628 48.3251 29.9304C48.3251 29.2327 47.767 28.6746 47.0693 28.6746C46.3716 28.6746 45.8135 29.2327 45.8135 29.9304C45.8135 30.5583 46.3716 31.1862 47.0693 31.1862Z" fill="#1B1C1B"/>
<path d="M43.302 32.9999C44.1392 32.9999 44.8369 32.3023 44.8369 31.4651C44.8369 30.6279 44.1392 29.9302 43.302 29.9302C42.4648 29.9302 41.7671 30.6279 41.7671 31.4651C41.7671 32.3023 42.4648 32.9999 43.302 32.9999Z" fill="#1B1C1B"/>
<path d="M39.4648 36.0698C40.4416 36.0698 41.2788 35.2326 41.2788 34.2558C41.2788 33.2791 40.4416 32.4419 39.4648 32.4419C38.4881 32.4419 37.6509 33.2791 37.6509 34.2558C37.6509 35.2326 38.4881 36.0698 39.4648 36.0698Z" fill="#1B1C1B"/>
<path d="M41.8371 29.2326C42.6743 29.2326 43.372 28.5349 43.372 27.6977C43.372 26.8605 42.6743 26.1628 41.8371 26.1628C40.9999 26.1628 40.3022 26.8605 40.3022 27.6977C40.3022 28.5349 40.9999 29.2326 41.8371 29.2326Z" fill="#1B1C1B"/>
<path d="M45.5346 27.4186C46.2323 27.4186 46.7904 26.8605 46.7904 26.1628C46.7904 25.4651 46.2323 24.907 45.5346 24.907C44.8369 24.907 44.2788 25.4651 44.2788 26.1628C44.2788 26.7907 44.8369 27.4186 45.5346 27.4186Z" fill="#1B1C1B"/>
<path d="M44.9765 23.9999C45.6742 23.9999 46.2323 23.4418 46.2323 22.7441C46.2323 22.0464 45.6742 21.4883 44.9765 21.4883C44.2788 21.4883 43.7207 22.0464 43.7207 22.7441C43.7207 23.4418 44.2788 23.9999 44.9765 23.9999Z" fill="#1B1C1B"/>
<path d="M48.3951 23.2326C49.023 23.2326 49.5114 22.7442 49.5114 22.1163C49.5114 21.4884 49.023 21 48.3951 21C47.7672 21 47.2788 21.4884 47.2788 22.1163C47.2788 22.7442 47.7672 23.2326 48.3951 23.2326Z" fill="#1B1C1B"/>
<path d="M51.3254 23.2325C51.8835 23.2325 52.3021 22.8139 52.3021 22.2558C52.3021 21.6977 51.8835 21.2791 51.3254 21.2791C50.7672 21.2791 50.3486 21.6977 50.3486 22.2558C50.4184 22.8139 50.837 23.2325 51.3254 23.2325Z" fill="#1B1C1B"/>
<path d="M51.8835 26.6512C52.4416 26.6512 52.8602 26.2326 52.8602 25.6745C52.8602 25.1164 52.4416 24.6978 51.8835 24.6978C51.3253 24.6978 50.9067 25.1164 50.9067 25.6745C50.9067 26.1629 51.3951 26.6512 51.8835 26.6512Z" fill="#1B1C1B"/>
<path d="M48.9532 26.651C49.5811 26.651 50.0695 26.1626 50.0695 25.5347C50.0695 24.9068 49.5811 24.4185 48.9532 24.4185C48.3253 24.4185 47.8369 24.9068 47.8369 25.5347C47.8369 26.1626 48.3253 26.651 48.9532 26.651Z" fill="#1B1C1B"/>
<path d="M45.8135 35.2325C46.1624 35.2325 46.3717 34.9534 46.3717 34.6744C46.3717 34.3255 46.0926 34.1162 45.8135 34.1162C45.4647 34.1162 45.2554 34.3953 45.2554 34.6744C45.1856 34.9534 45.4647 35.2325 45.8135 35.2325Z" fill="#1B1C1B"/>
<path d="M48.1156 34.8836C48.5342 34.8836 48.8133 34.5348 48.8133 34.186C48.8133 33.7674 48.4645 33.4883 48.1156 33.4883C47.697 33.4883 47.418 33.8371 47.418 34.186C47.418 34.6046 47.697 34.8836 48.1156 34.8836Z" fill="#1B1C1B"/>
<path d="M50.6277 33.9767C51.0463 33.9767 51.4649 33.6278 51.4649 33.1395C51.4649 32.7208 51.1161 32.3022 50.6277 32.3022C50.2091 32.3022 49.7905 32.6511 49.7905 33.1395C49.8603 33.5581 50.2091 33.9767 50.6277 33.9767Z" fill="#1B1C1B"/>
<path d="M51.2556 36.4884C51.8137 36.4884 52.2323 36.0698 52.2323 35.5117C52.2323 34.9535 51.8137 34.5349 51.2556 34.5349C50.6974 34.5349 50.2788 34.9535 50.2788 35.5117C50.2788 36.0698 50.6974 36.4884 51.2556 36.4884Z" fill="#1B1C1B"/>
<path d="M48.1858 37.1163C48.6044 37.1163 49.0231 36.7675 49.0231 36.2791C49.0231 35.8605 48.6742 35.4419 48.1858 35.4419C47.7672 35.4419 47.3486 35.7907 47.3486 36.2791C47.3486 36.7675 47.6975 37.1163 48.1858 37.1163Z" fill="#1B1C1B"/>
<path d="M45.3949 37.1163C45.8135 37.1163 46.0926 36.7675 46.0926 36.4186C46.0926 36 45.7438 35.7209 45.3949 35.7209C44.9763 35.7209 44.6973 36.0698 44.6973 36.4186C44.6973 36.7675 45.0461 37.1163 45.3949 37.1163Z" fill="#1B1C1B"/>
<path d="M45.4647 39.2792C45.8833 39.2792 46.3019 38.9303 46.3019 38.4419C46.3019 38.0233 45.953 37.6047 45.4647 37.6047C45.046 37.6047 44.6274 37.9536 44.6274 38.4419C44.6274 38.9303 45.046 39.2792 45.4647 39.2792Z" fill="#1B1C1B"/>
<path d="M48.7438 39.6976C49.302 39.6976 49.7206 39.279 49.7206 38.7209C49.7206 38.1627 49.302 37.7441 48.7438 37.7441C48.1857 37.7441 47.7671 38.1627 47.7671 38.7209C47.7671 39.279 48.1857 39.6976 48.7438 39.6976Z" fill="#1B1C1B"/>
<path d="M52.5811 39.2792C53.209 39.2792 53.6974 38.7908 53.6974 38.1629C53.6974 37.535 53.209 37.0466 52.5811 37.0466C51.9532 37.0466 51.4648 37.535 51.4648 38.1629C51.4648 38.7908 51.9532 39.2792 52.5811 39.2792Z" fill="#1B1C1B"/>
<path d="M54.8139 42.1396C55.5116 42.1396 56.0697 41.5814 56.0697 40.8837C56.0697 40.1861 55.5116 39.6279 54.8139 39.6279C54.1162 39.6279 53.5581 40.1861 53.5581 40.8837C53.5581 41.5116 54.1162 42.1396 54.8139 42.1396Z" fill="#1B1C1B"/>
<path d="M50.0694 42.4884C50.6973 42.4884 51.1857 42 51.1857 41.3721C51.1857 40.7442 50.6973 40.2559 50.0694 40.2559C49.4415 40.2559 48.9531 40.7442 48.9531 41.3721C48.9531 42 49.4415 42.4884 50.0694 42.4884Z" fill="#1B1C1B"/>
<path d="M47.418 44.6513C48.0459 44.6513 48.5343 44.1629 48.5343 43.535C48.5343 42.9071 48.0459 42.4187 47.418 42.4187C46.7901 42.4187 46.3018 42.9071 46.3018 43.535C46.3018 44.1629 46.7901 44.6513 47.418 44.6513Z" fill="#1B1C1B"/>
<path d="M49.6508 47.5116C50.3485 47.5116 50.9066 46.9535 50.9066 46.2558C50.9066 45.5581 50.3485 45 49.6508 45C48.9531 45 48.395 45.5581 48.395 46.2558C48.3252 46.9535 48.9531 47.5116 49.6508 47.5116Z" fill="#1B1C1B"/>
<path d="M55.5813 47.9999C56.4185 47.9999 57.1162 47.3023 57.1162 46.4651C57.1162 45.6278 56.4185 44.9302 55.5813 44.9302C54.7441 44.9302 54.0464 45.6278 54.0464 46.4651C54.0464 47.372 54.7441 47.9999 55.5813 47.9999Z" fill="#1B1C1B"/>
<path d="M52.3022 45.3488C52.9999 45.3488 53.558 44.7906 53.558 44.093C53.558 43.3953 52.9999 42.8372 52.3022 42.8372C51.6045 42.8372 51.0464 43.3953 51.0464 44.093C51.0464 44.7209 51.6045 45.3488 52.3022 45.3488Z" fill="#1B1C1B"/>
<path d="M58.0232 44.7907C58.8604 44.7907 59.558 44.093 59.558 43.2558C59.558 42.4186 58.8604 41.7209 58.0232 41.7209C57.186 41.7209 56.4883 42.4186 56.4883 43.2558C56.558 44.1628 57.186 44.7907 58.0232 44.7907Z" fill="#1B1C1B"/>
<path d="M46.0925 41.9303C46.6506 41.9303 47.0692 41.5117 47.0692 40.9536C47.0692 40.3954 46.6506 39.9768 46.0925 39.9768C45.5343 39.9768 45.1157 40.3954 45.1157 40.9536C45.1157 41.5117 45.5343 41.9303 46.0925 41.9303Z" fill="#1B1C1B"/>
</svg>
