<svg width="190" height="66" viewBox="0 0 190 66" fill="none" xmlns="http://www.w3.org/2000/svg">
<path d="M0 10C0 4.47715 4.47715 0 10 0H180C185.523 0 190 4.47715 190 10V56C190 61.5229 185.523 66 180 66H10C4.47715 66 0 61.5228 0 56V10Z" fill="white"/>
<g clip-path="url(#clip0_279_2837)">
<path d="M58.5827 28.2143L41.9644 20.2527V24.6047L53.4013 30.0941L41.9644 35.6625V40.0225L58.5827 47.9999V43.6242L47.3669 38.2453L58.5827 32.5822V28.2143Z" fill="#4EBDBE"/>
<path d="M58.5825 28.238L62.8951 26.3108V30.6312L58.5825 32.5585V28.238Z" fill="#038D98"/>
<path d="M58.5825 48.0001L62.8951 46.0808V32.7324L58.5825 34.6517V48.0001Z" fill="#038D98"/>
<path d="M46.3163 18.3572L41.9722 20.2528L42.0275 20.2765L58.5826 28.2381L62.8951 26.3109L46.3163 18.3572Z" fill="#007891"/>
<path d="M83.909 27.0601V30.236L77.8503 36.6367C77.5327 36.9788 77.0441 37.3941 76.36 37.9071H84.1533V40.6922H72.4268V37.4674L78.5588 31.0422C78.8764 30.7002 79.3161 30.3093 79.8536 29.8695H72.7444V27.0601H83.909Z" fill="#007891"/>
<path d="M88.7949 20.2686C89.3812 20.2686 89.8942 20.4884 90.2851 20.8793C90.7004 21.2946 90.8959 21.7832 90.8959 22.3696C90.8959 22.9559 90.7004 23.4689 90.2851 23.8598C89.8698 24.2751 89.3812 24.4706 88.7949 24.4706C88.2085 24.4706 87.6955 24.2751 87.3046 23.8598C86.8893 23.4445 86.6938 22.9559 86.6938 22.3696C86.6938 21.7832 86.8893 21.2946 87.3046 20.8793C87.6955 20.4884 88.2085 20.2686 88.7949 20.2686ZM90.505 27.0602V40.6923H87.1092V27.0602H90.505Z" fill="#007891"/>
<path d="M97.8343 19.2424V40.6923H94.4141V19.2424H97.8343Z" fill="#007891"/>
<path d="M105.212 19.2424V40.6923H101.792V19.2424H105.212Z" fill="#007891"/>
<path d="M110.905 20.2686C111.491 20.2686 112.004 20.4884 112.395 20.8793C112.81 21.2946 113.006 21.7832 113.006 22.3696C113.006 22.9559 112.81 23.4689 112.395 23.8598C111.98 24.2751 111.491 24.4706 110.905 24.4706C110.318 24.4706 109.805 24.2751 109.414 23.8598C108.999 23.4445 108.804 22.9559 108.804 22.3696C108.804 21.7832 108.999 21.2946 109.414 20.8793C109.805 20.4884 110.318 20.2686 110.905 20.2686ZM112.615 27.0602V40.6923H109.219V27.0602H112.615Z" fill="#007891"/>
<path d="M130.424 27.0603V47.2397H127.028V38.9578C126.686 39.4953 126.125 39.9839 125.367 40.3992C124.61 40.8145 123.657 41.0344 122.533 41.0344C120.212 41.0344 118.429 40.1305 117.183 38.3471C116.255 37.0278 115.791 35.5132 115.791 33.8519C115.791 32.5815 116.059 31.3844 116.621 30.2606C117.159 29.1368 117.965 28.2818 119.015 27.671C120.066 27.0603 121.238 26.7671 122.533 26.7671C123.657 26.7671 124.683 27.0114 125.563 27.5244C126.173 27.8665 126.711 28.3551 127.2 28.9903V27.0603H130.424ZM119.309 33.6564C119.309 34.9757 119.675 36.0018 120.432 36.7835C121.19 37.5653 122.142 37.9562 123.34 37.9562C124.463 37.9562 125.416 37.5897 126.149 36.8324C126.882 36.075 127.248 35.0978 127.248 33.8763C127.248 32.6548 126.882 31.6776 126.125 30.9202C125.367 30.1629 124.439 29.772 123.266 29.772C122.509 29.772 121.825 29.9675 121.19 30.3095C120.554 30.6759 120.09 31.1645 119.773 31.7753C119.455 32.3616 119.309 32.9968 119.309 33.6564Z" fill="#007891"/>
<path d="M142.639 32.0928C142.615 31.0911 142.371 30.3582 141.906 29.894C141.442 29.4299 140.709 29.1855 139.732 29.1855C139.073 29.1855 138.462 29.3077 137.875 29.552C137.289 29.7963 136.727 30.1872 136.141 30.7247L134.235 28.7458C135.774 27.3288 137.704 26.6204 140.05 26.6204C141.198 26.6204 142.151 26.7914 142.933 27.1334C143.69 27.4754 144.301 27.964 144.789 28.5992C145.253 29.2344 145.571 29.9185 145.718 30.6514C145.84 31.1888 145.889 32.0928 145.864 33.3387V36.4658C145.864 38.3469 145.889 39.7639 145.937 40.6922H142.859C142.835 40.0815 142.81 39.4707 142.81 38.7867C141.809 40.3013 140.318 41.0342 138.315 41.0342C136.849 41.0342 135.677 40.6434 134.822 39.8372C133.967 39.031 133.551 38.0293 133.551 36.7834C133.551 35.6596 133.918 34.7312 134.651 33.9739C135.384 33.2166 136.483 32.6791 137.973 32.4103C139.024 32.2149 140.587 32.0928 142.639 32.0928ZM142.664 34.4136C141.345 34.4381 140.514 34.4625 140.221 34.4869C139.341 34.5602 138.657 34.7068 138.193 34.9267C137.704 35.1465 137.362 35.4153 137.167 35.7084C136.972 36.0016 136.874 36.3436 136.874 36.6857C136.874 37.1987 137.094 37.6384 137.509 37.9805C137.924 38.3469 138.535 38.5179 139.317 38.5179C140.025 38.5179 140.66 38.3713 141.198 38.0537C141.735 37.7362 142.126 37.3208 142.346 36.7589C142.566 36.2215 142.664 35.4397 142.664 34.4136Z" fill="#007891"/>
</g>
<defs>
<clipPath id="clip0_279_2837">
<rect width="109.643" height="30" fill="white" transform="translate(40.1787 18)"/>
</clipPath>
</defs>
</svg>
