<svg width="190" height="66" viewBox="0 0 190 66" fill="none" xmlns="http://www.w3.org/2000/svg">
<rect width="190" height="66" rx="10" fill="white"/>
<path d="M72.4093 25.1348V40.713H69.2532V25.1348H72.4093Z" fill="black"/>
<path d="M85.272 30.2042V40.7347C85.272 43.9983 82.7428 46 79.6514 46C76.6682 46 74.4415 44.1288 74.2253 41.4962L77.3599 41.518C77.4896 42.6276 78.4624 43.128 79.7595 43.128C80.9701 43.128 82.1159 42.4753 82.1159 40.7565V39.4293C81.316 39.9514 80.2783 40.256 79.1326 40.256C76.2574 40.256 73.9443 37.9063 73.9443 35.2084C73.9443 32.0753 76.2574 29.9648 79.1326 29.9648C80.2783 29.9648 81.316 30.2694 82.1159 30.7916V30.2259L85.272 30.2042ZM82.1159 36.405V33.8376C81.4673 32.9021 80.5809 32.5757 79.6946 32.5757C78.1382 32.5757 77.0789 33.6201 77.0789 35.2084C77.0789 36.3832 78.1598 37.6452 79.6946 37.6452C80.5809 37.6669 81.4889 37.3406 82.1159 36.405Z" fill="black"/>
<path d="M97.8537 35.339C97.8537 38.5808 95.4758 40.8871 92.2763 40.8871C89.0553 40.8871 86.6772 38.5808 86.6772 35.339C86.6772 32.1189 89.0553 29.769 92.2763 29.769C95.4758 29.769 97.8537 32.1189 97.8537 35.339ZM94.8056 35.339C94.8056 33.8159 93.8111 32.5758 92.2763 32.5758C90.7198 32.5758 89.7254 33.8159 89.7254 35.339C89.7254 36.9055 90.7198 38.0804 92.2763 38.0804C93.8111 38.0586 94.8056 36.9055 94.8056 35.339Z" fill="black"/>
<path d="M117.439 30.2259V40.6912L114.348 40.7129V40.1255C113.548 40.6476 112.511 40.974 111.365 40.974C108.49 40.974 106.177 38.5154 106.177 35.4912C106.177 32.4451 108.49 29.9866 111.365 29.9866C112.511 29.9866 113.548 30.3129 114.348 30.8351V30.2477L117.439 30.2259ZM114.326 37.0795V33.8811C113.678 32.9456 112.77 32.6845 111.862 32.6845C110.284 32.6845 109.181 33.9682 109.181 35.4912C109.181 36.9924 110.284 38.2761 111.862 38.2761C112.77 38.2761 113.678 38.015 114.326 37.0795Z" fill="black"/>
<path d="M130.151 35.0343V40.7129H127.103V35.4041C127.103 33.6853 126.26 32.7933 124.746 32.7933C123.968 32.7933 123.082 33.2502 122.347 34.1205V40.7129H119.234V30.2477H122.347V31.0309C123.19 30.3564 124.184 29.9866 125.352 29.9866C128.119 29.9866 130.151 31.9447 130.151 35.0343Z" fill="black"/>
<path d="M67.8048 40.6912H64.6055L62.5085 32.8803L58.012 40.6912H54.4234L61.3628 28.5941L60.2386 24.3732L50.8781 40.6912H47.2896L59.1578 20H62.3139L63.6759 25.1565H66.9185L64.7135 29.0293L67.8048 40.6912Z" fill="black"/>
<path d="M142.711 25.1348V40.713H139.554V40.1255C138.754 40.6477 137.717 40.9741 136.571 40.9741C133.696 40.9741 131.383 38.5155 131.383 35.4695C131.383 32.4452 133.696 29.9866 136.571 29.9866C137.717 29.9866 138.754 30.313 139.554 30.8352V25.1348H142.711ZM139.554 37.0795V33.8594C138.906 32.9239 137.976 32.6628 137.068 32.6628C135.469 32.6628 134.366 33.9465 134.366 35.4695C134.366 37.0142 135.469 38.2979 137.068 38.2979C137.976 38.2979 138.884 38.0368 139.554 37.0795Z" fill="black"/>
<path d="M105.593 32.8803C104.901 32.9673 103.301 33.0543 102.35 34.3598V40.7129H99.2373V30.2694H102.35V31.0527C103.064 30.4435 104.123 30.0736 105.593 30.2259" fill="black"/>
</svg>
