<svg width="190" height="66" viewBox="0 0 190 66" fill="none" xmlns="http://www.w3.org/2000/svg">
<path d="M0 10C0 4.47715 4.47715 0 10 0H180C185.523 0 190 4.47715 190 10V56C190 61.5229 185.523 66 180 66H10C4.47715 66 0 61.5228 0 56V10Z" fill="white"/>
<path d="M86.2727 25.3146L81.6149 37.4004L77.0061 25.3146V25.2901H73.3779L73.4024 25.3146L80.0214 41.4944V41.5189H83.2819V41.4944L89.9009 25.3146L89.9254 25.2901L86.2727 25.3146ZM83.2329 41.5189H79.9969L76.3687 32.6691L79.9969 41.5189H83.2329ZM152.732 36.665C152.732 37.8172 152.414 38.8223 151.752 39.6313C151.114 40.4157 150.256 41.0286 149.3 41.3473C148.246 41.715 147.118 41.8866 145.991 41.8621C142.436 41.8621 140.083 40.5138 139.029 37.8662L138.98 37.7681V37.7436H139.004L141.676 36.3463H141.701V36.3708L141.75 36.4934C142.044 37.2778 142.632 37.9152 143.368 38.3075C144.201 38.7242 145.108 38.9449 146.015 38.9203C147.02 38.9203 147.854 38.7242 148.516 38.3565C149.153 37.9888 149.472 37.4494 149.472 36.6895C149.472 35.4883 148.295 34.7528 145.966 34.5077C145.182 34.4341 144.373 34.287 143.613 34.0909C142.926 33.9193 142.289 33.6497 141.652 33.3064C141.014 32.9632 140.499 32.4484 140.181 31.811C139.838 31.1982 139.69 30.4382 139.69 29.5557C139.69 28.5015 140.009 27.5945 140.671 26.8345C141.284 26.0991 142.093 25.5598 143 25.2656C143.932 24.9714 144.912 24.7998 145.917 24.7998C149.055 24.7998 151.163 25.8785 152.218 28.0358L152.267 28.1338V28.1583H152.242L149.693 29.4821H149.668V29.4576L149.619 29.3596C149.349 28.8938 148.884 28.5015 148.222 28.1583C147.535 27.8151 146.8 27.6435 146.04 27.6435C145.01 27.6435 144.226 27.8396 143.711 28.2074C143.196 28.5751 142.951 29.0409 142.951 29.6047C142.951 29.8008 142.975 29.9724 143.074 30.144C143.147 30.3156 143.27 30.4627 143.417 30.5608C143.76 30.8304 144.152 31.0266 144.569 31.1246C145.157 31.2717 145.721 31.3698 146.309 31.4433C147.045 31.5414 147.682 31.6394 148.246 31.762C148.835 31.8846 149.423 32.0807 149.962 32.3259C150.502 32.5465 150.992 32.8407 151.433 33.2329C151.85 33.6251 152.169 34.1154 152.365 34.6302C152.61 35.3167 152.732 36.0031 152.732 36.665ZM105.1 25.3146L105.125 28.5015H96.3238V31.8601H104.806V34.9244H96.3238V38.2094H105.125V41.4454H93.1123V25.2901H105.1V25.3146ZM131.38 25.3391L128.12 25.3146V25.3391L121.501 41.5189L121.476 41.5434H125.104V41.5189L129.762 29.4331L134.371 41.5189V41.5434H137.999L137.974 41.5189L131.38 25.3391ZM131.355 25.3391L134.984 34.189L131.355 25.3391ZM111.572 38.2339H119.637V38.43V41.4699H108.336V25.3146H111.572V38.2339Z" fill="#1D1D1B"/>
<path d="M55.9969 30.0215L50.8978 39.0184L45.7987 30.0215H55.9969ZM61.096 27.0061H40.6751L50.8978 45L61.096 27.0061ZM37.2676 21L38.9591 23.9908H62.7875L64.479 21H37.2676Z" fill="#0037C1"/>
</svg>
