<svg width="190" height="66" viewBox="0 0 190 66" fill="none" xmlns="http://www.w3.org/2000/svg">
<rect width="190" height="66" rx="10" fill="white"/>
<path d="M72.2262 33.8278C72.2262 34.0353 72.0522 34.2042 71.8443 34.2042H64.4858C64.6695 36.0191 66.0377 37.6747 67.962 37.6747C69.277 37.6747 70.2537 37.1728 70.9885 36.1253C71.0949 35.9805 71.2544 35.8888 71.4575 35.9757C71.5687 36.024 71.6461 36.1253 71.6654 36.2412C71.6847 36.3618 71.6509 36.4294 71.6171 36.497C70.8773 37.7858 69.4027 38.4181 67.9571 38.4181C65.4817 38.4181 63.717 36.2074 63.717 33.8422C63.717 31.4771 65.4817 29.2664 67.9571 29.2664C70.4325 29.2616 72.2214 31.4674 72.2262 33.8278ZM71.4382 33.4706C71.2786 31.6557 69.8862 30.0001 67.962 30.0001C66.0377 30.0001 64.6695 31.6557 64.4858 33.4706H71.4382ZM81.1561 29.445C81.3688 29.445 81.5235 29.6284 81.5235 29.8118C81.5235 30.0242 81.364 30.1787 81.1561 30.1787H79.1835V37.9064C79.1835 38.0898 79.0239 38.2733 78.816 38.2733C78.6033 38.2733 78.4486 38.0898 78.4486 37.9064V30.1787H76.5534C76.3406 30.1787 76.1859 30.0194 76.1859 29.8118C76.1859 29.6284 76.3455 29.445 76.5534 29.445H78.4486V26.6165C78.4486 26.4379 78.5695 26.2738 78.7435 26.2448C78.9901 26.2062 79.1835 26.3751 79.1835 26.6068V29.445H81.1561ZM93.1898 33.181V37.863C93.1898 38.0754 93.0061 38.2298 92.8224 38.2298C92.6096 38.2298 92.4549 38.0705 92.4549 37.863V33.181C92.4549 31.6026 91.5605 30.0242 89.7958 30.0242C87.5331 30.0242 86.5565 31.9984 86.687 34.0208C86.687 34.0739 86.7112 34.3104 86.7112 34.3346V37.8485C86.7112 38.0271 86.5903 38.1912 86.4163 38.2202C86.1697 38.2588 85.9763 38.0898 85.9763 37.8582V22.4799C85.9763 22.2965 86.1359 22.113 86.3438 22.113C86.5565 22.113 86.7112 22.2965 86.7112 22.4799V31.1827C87.3446 30.0532 88.4759 29.2905 89.791 29.2905C91.9521 29.2905 93.1898 31.1827 93.1898 33.181ZM106.384 33.8278C106.384 34.0353 106.21 34.2042 106.002 34.2042H98.6386C98.8223 36.0191 100.191 37.6747 102.115 37.6747C103.43 37.6747 104.406 37.1728 105.141 36.1253C105.248 35.9805 105.407 35.8888 105.61 35.9757C105.722 36.024 105.799 36.1253 105.818 36.2412C105.838 36.3618 105.804 36.4294 105.77 36.497C105.03 37.7858 103.556 38.4181 102.11 38.4181C99.6346 38.4181 97.8699 36.2074 97.8699 33.8422C97.8699 31.4771 99.6346 29.2664 102.11 29.2664C104.59 29.2616 106.379 31.4674 106.384 33.8278ZM105.591 33.4706C105.431 31.6557 104.039 30.0001 102.115 30.0001C100.191 30.0001 98.8223 31.6557 98.6386 33.4706H105.591ZM115.415 29.7877C115.415 30.0242 115.285 30.1545 115.072 30.1835C112.911 30.4972 111.939 32.259 111.939 34.3104V37.8244C111.939 38.003 111.818 38.1671 111.644 38.196C111.398 38.2347 111.204 38.0657 111.204 37.834V29.8263C111.204 29.6477 111.325 29.4836 111.499 29.4546C111.746 29.416 111.939 29.585 111.939 29.8167V31.4481C112.543 30.4248 113.757 29.4498 115.019 29.4498C115.203 29.445 115.415 29.5801 115.415 29.7877ZM127.502 33.8278C127.502 34.0353 127.328 34.2042 127.12 34.2042H119.762C119.945 36.0191 121.314 37.6747 123.238 37.6747C124.553 37.6747 125.53 37.1728 126.264 36.1253C126.371 35.9805 126.53 35.8888 126.733 35.9757C126.845 36.024 126.922 36.1253 126.941 36.2412C126.961 36.3618 126.927 36.4294 126.893 36.497C126.153 37.7858 124.679 38.4181 123.233 38.4181C120.758 38.4181 118.993 36.2074 118.993 33.8422C118.993 31.4771 120.758 29.2664 123.233 29.2664C125.708 29.2616 127.497 31.4674 127.502 33.8278ZM126.714 33.4706C126.555 31.6557 125.162 30.0001 123.238 30.0001C121.314 30.0001 119.945 31.6557 119.762 33.4706H126.714ZM139.381 29.8794V37.9064C139.381 38.1188 139.197 38.2733 139.014 38.2733C138.801 38.2733 138.646 38.114 138.646 37.9064V36.3812C138.042 37.5927 136.959 38.4567 135.591 38.4567C133.405 38.4567 132.192 36.5646 132.192 34.5663V29.8601C132.192 29.6767 132.351 29.4933 132.559 29.4933C132.772 29.4933 132.927 29.6767 132.927 29.8601V34.5663C132.927 36.1446 133.821 37.723 135.586 37.723C138.061 37.723 138.641 35.411 138.641 32.8576V29.8601C138.641 29.6477 138.854 29.4305 139.115 29.5077C139.275 29.5608 139.381 29.7153 139.381 29.8794ZM157.995 33.152V37.8582C157.995 38.0705 157.811 38.225 157.628 38.225C157.415 38.225 157.26 38.0657 157.26 37.8582V33.152C157.26 31.5736 156.366 30.0242 154.601 30.0242C152.387 30.0242 151.545 32.3894 151.545 34.2284V37.8582C151.545 38.0705 151.362 38.225 151.178 38.225C150.965 38.225 150.811 38.0657 150.811 37.8582V33.152C150.811 31.5736 149.916 30.0242 148.151 30.0242C145.913 30.0242 144.99 31.786 145.072 34.127C145.072 34.1801 145.096 34.2863 145.072 34.3104V37.8485C145.072 38.0271 144.951 38.1912 144.772 38.2202C144.525 38.2588 144.332 38.0898 144.332 37.8582V29.8263C144.332 29.6477 144.453 29.4836 144.627 29.4546C144.874 29.416 145.067 29.585 145.067 29.8167V31.1585C145.7 30.029 146.832 29.2905 148.147 29.2905C149.645 29.2905 150.806 30.2366 151.28 31.6315C151.884 30.2656 153.068 29.2905 154.596 29.2905C156.757 29.2905 157.995 31.1537 157.995 33.152Z" fill="#3C3C3B"/>
<g opacity="0.6">
<path opacity="0.6" d="M44.3048 27.7896L32.0051 33.3742L44.3048 40.6289L56.5996 33.3742L44.3048 27.7896Z" fill="#010101"/>
</g>
<g opacity="0.45">
<path opacity="0.45" d="M32.0051 33.3741L44.3048 40.6288V13L32.0051 33.3741Z" fill="#010101"/>
</g>
<g opacity="0.8">
<path opacity="0.8" d="M44.3049 13V40.6288L56.5998 33.3741L44.3049 13Z" fill="#010101"/>
</g>
<g opacity="0.45">
<path opacity="0.45" d="M32.0051 35.7007L44.3048 53.0001V42.9554L32.0051 35.7007Z" fill="#010101"/>
</g>
<g opacity="0.8">
<path opacity="0.8" d="M44.3049 42.9554V53.0001L56.6094 35.7007L44.3049 42.9554Z" fill="#010101"/>
</g>
</svg>
