<svg width="190" height="66" viewBox="0 0 190 66" fill="none" xmlns="http://www.w3.org/2000/svg">
<path d="M0 10C0 4.47715 4.47715 0 10 0H180C185.523 0 190 4.47715 190 10V56C190 61.5229 185.523 66 180 66H10C4.47715 66 0 61.5228 0 56V10Z" fill="white"/>
<g clip-path="url(#clip0_279_2980)">
<path d="M86.479 37.4376C85.0832 40.8542 81.5832 43.2084 77.604 42.8751C73.354 42.5001 69.9373 39.0001 69.6665 34.7501C69.354 29.6876 73.3748 25.4584 78.3748 25.4584C82.0415 25.4584 85.1873 27.7292 86.479 30.9376C86.6248 31.2917 86.4373 31.6876 86.0623 31.8126L85.5623 31.9792C85.229 32.0834 84.8957 31.9167 84.7498 31.6042C83.6665 28.9376 80.9373 27.1042 77.8332 27.3334C74.5832 27.5834 71.8957 30.1667 71.5207 33.4167C71.0623 37.5626 74.3123 41.0834 78.354 41.0834C81.229 41.0834 83.6873 39.3126 84.729 36.8126C84.854 36.5001 85.2082 36.3334 85.5415 36.4376L86.0415 36.6042C86.4373 36.6876 86.6248 37.0834 86.479 37.4376ZM128.167 28.8334C126.437 26.6042 123.646 25.2293 120.542 25.4793C116.25 25.8126 112.812 29.2709 112.479 33.5417C112.083 38.6876 116.167 43.0001 121.229 43.0001C124.042 43.0001 126.542 41.6667 128.146 39.6042V42.3751C128.146 42.6876 128.396 42.9167 128.687 42.9167H129.437C129.75 42.9167 129.979 42.6667 129.979 42.3751V27.9167C129.979 27.6042 129.729 27.3751 129.437 27.3751H128.687C128.375 27.3751 128.146 27.6251 128.146 27.9167V28.8334H128.167ZM121.25 41.1459C117.437 41.1459 114.333 38.0417 114.333 34.2292C114.333 30.4168 117.437 27.3126 121.25 27.3126C125.062 27.3126 128.167 30.4168 128.167 34.2292C128.167 38.0417 125.062 41.1459 121.25 41.1459ZM139.417 42.9167H140.167C140.479 42.9167 140.708 42.6667 140.708 42.3751V27.9167C140.708 27.6042 140.458 27.3751 140.167 27.3751H139.417C139.104 27.3751 138.875 27.6251 138.875 27.9167V42.3751C138.875 42.6876 139.125 42.9167 139.417 42.9167ZM99.5415 26.1667C97.0415 26.1042 94.7915 27.2292 93.3123 29.0001V23.5834C93.3123 23.2709 93.0623 23.0417 92.7707 23.0417H92.0207C91.7082 23.0417 91.479 23.2917 91.479 23.5834V42.3751C91.479 42.6876 91.729 42.9167 92.0207 42.9167H92.7707C93.0832 42.9167 93.3123 42.6667 93.3123 42.3751V34.2084C93.3123 30.8126 96.0832 27.9584 99.479 28.0209C102.771 28.0834 105.437 30.7709 105.437 34.0834V42.3751C105.437 42.6876 105.687 42.9167 105.979 42.9167H106.729C107.042 42.9167 107.271 42.6667 107.271 42.3751V34.2292C107.292 29.8959 103.875 26.2501 99.5415 26.1667ZM139.417 25.3959H140.167C140.479 25.3959 140.708 25.1459 140.708 24.8543V23.6043C140.708 23.2918 140.458 23.0626 140.167 23.0626H139.417C139.104 23.0626 138.875 23.3126 138.875 23.6043V24.8543C138.875 25.1459 139.125 25.3959 139.417 25.3959ZM157.312 26.1876C154.812 26.1251 152.562 27.2501 151.083 29.0209V27.9167C151.083 27.6042 150.833 27.3751 150.542 27.3751H149.792C149.479 27.3751 149.25 27.6251 149.25 27.9167V42.3751C149.25 42.6876 149.5 42.9167 149.792 42.9167H150.542C150.854 42.9167 151.083 42.6667 151.083 42.3751V34.2292C151.083 30.8334 153.854 27.9792 157.25 28.0417C160.542 28.1042 163.208 30.7917 163.208 34.1042V42.3751C163.208 42.6876 163.458 42.9167 163.75 42.9167H164.5C164.812 42.9167 165.042 42.6667 165.042 42.3751V34.2501C165.062 29.9167 161.646 26.2709 157.312 26.1876ZM64.1665 37.3542C64.2915 37.0417 64.1248 36.6667 63.7915 36.5834L63.1457 36.3751C62.854 36.2917 62.5415 36.4376 62.4373 36.7292C61.3957 39.3542 58.8957 41.0834 56.0415 41.0834C52.2498 41.0834 49.1457 38.0001 49.1457 34.1876C49.1457 33.7292 49.1873 33.2501 49.2915 32.7917C49.9373 29.6042 52.7915 27.2917 56.0415 27.2917C58.7082 27.2917 61.104 28.8542 62.2498 31.1667C62.4165 31.5209 62.229 31.9376 61.854 32.0001L56.354 33.1459C56.0415 33.2084 55.8332 33.5209 55.8957 33.8334L56.0415 34.5001C56.104 34.8126 56.4165 35.0209 56.729 34.9584L64.2082 33.4167C64.5207 33.3542 64.729 33.0417 64.6665 32.7292L64.604 32.3959C63.7707 28.3751 60.1665 25.4584 56.0415 25.4584C51.9165 25.4584 48.3123 28.3959 47.479 32.4376C47.354 33.0209 47.2915 33.6042 47.2915 34.1876C47.2915 39.0001 51.2082 42.9167 56.0207 42.9167C59.6873 42.9167 62.8748 40.7084 64.1665 37.3542Z" fill="#15BDFF"/>
<path d="M33.2395 42.1535L25.042 25.4567C24.9088 25.1903 25.1091 24.875 25.4043 24.875H28.2447C28.3971 24.875 28.5399 24.9612 28.607 25.0945L34.5936 37.2076C35.1274 38.2943 36.6712 38.2943 37.205 37.2076L43.1724 25.104C43.2395 24.9708 43.3823 24.8846 43.5347 24.8846H43.8873C44.0972 24.8846 44.2304 25.104 44.1355 25.2852L35.8519 42.1535C35.3181 43.2392 33.7733 43.2392 33.2395 42.1535Z" fill="url(#paint0_linear_279_2980)"/>
<path opacity="0.1" d="M33.2395 42.1534L28.607 25.104C28.54 24.9612 28.3876 24.8845 28.264 24.8845H25.4139C25.0996 24.8845 24.9185 25.1988 25.0421 25.4662L33.2395 42.1534Z" fill="white"/>
<path opacity="0.1" d="M34.5937 37.2162L25.0422 25.4567C24.9282 25.1807 25.0997 24.9037 25.3661 24.875H28.2545C28.4164 24.8846 28.5401 24.989 28.5976 25.0945L34.5937 37.2162Z" fill="white"/>
</g>
<defs>
<linearGradient id="paint0_linear_279_2980" x1="25" y1="33.9214" x2="44.1667" y2="33.9214" gradientUnits="userSpaceOnUse">
<stop stop-color="#9D4ABE"/>
<stop offset="0.03" stop-color="#9055C4"/>
<stop offset="0.15" stop-color="#6B74D6"/>
<stop offset="0.26" stop-color="#4C8FE5"/>
<stop offset="0.39" stop-color="#34A3F0"/>
<stop offset="0.52" stop-color="#22B2F9"/>
<stop offset="0.66" stop-color="#18BAFD"/>
<stop offset="0.83" stop-color="#15BDFF"/>
<stop offset="1" stop-color="#28BAD5"/>
</linearGradient>
<clipPath id="clip0_279_2980">
<rect width="140" height="20" fill="white" transform="translate(25 23)"/>
</clipPath>
</defs>
</svg>
