<svg width="190" height="66" viewBox="0 0 190 66" fill="none" xmlns="http://www.w3.org/2000/svg">
<path d="M0 10C0 4.47715 4.47715 0 10 0H180C185.523 0 190 4.47715 190 10V56C190 61.5229 185.523 66 180 66H10C4.47715 66 0 61.5228 0 56V10Z" fill="white"/>
<path d="M67.8464 38.6606C69.7118 38.6606 71.5432 38.0332 72.6454 37.1854V31.776H67.5921V34.1161H69.9322V35.5405C69.237 35.9136 68.5926 36.0661 67.8464 36.0661C65.7946 36.0661 64.5906 34.4722 64.5906 32.5221C64.5906 30.2837 66.0151 28.978 67.7277 28.978C69.0165 28.978 69.9661 29.5376 70.6105 30.165L72.6115 28.4692C71.3736 27.0448 69.4744 26.3156 67.7277 26.3156C63.8784 26.3156 61.623 29.0288 61.623 32.5221C61.623 36.4392 64.3701 38.6606 67.8464 38.6606ZM74.3972 38.525H77.0426V34.3535C77.0426 33.0647 77.653 32.4373 78.5688 32.4373C79.4336 32.4373 79.8914 32.8273 79.8914 34.2008V38.525H82.5366V33.5565C82.5366 30.9281 81.2817 30.0802 79.5692 30.0802C78.6026 30.0802 77.7209 30.4532 77.0765 31.1994H77.0426V30.2328H74.3972V38.525ZM88.3537 38.6776C90.965 38.6776 92.8307 36.931 92.8307 34.3874C92.8307 31.8268 90.965 30.0802 88.3537 30.0802C85.6743 30.0802 83.8602 31.8607 83.8602 34.3874C83.8602 36.8971 85.6743 38.6776 88.3537 38.6776ZM88.3537 36.3375C87.3021 36.3375 86.5395 35.4896 86.5395 34.3874C86.5395 33.2513 87.2857 32.4373 88.3537 32.4373C89.3882 32.4373 90.1514 33.2343 90.1514 34.3874C90.1514 35.5235 89.3542 36.3375 88.3537 36.3375ZM96.983 38.6776C99.2549 38.6776 100.357 37.5584 100.357 36.0153C100.357 34.3874 99.3569 33.9126 97.5258 33.2851C96.6946 32.9969 96.3892 32.8104 96.3892 32.556C96.3892 32.2338 96.7456 32.0981 97.051 32.0981C97.6102 32.0981 98.3223 32.3864 98.8991 32.963L100.154 31.1146C99.1875 30.4024 98.2713 30.0802 97.017 30.0802C95.2872 30.0802 93.9133 31.0468 93.9133 32.7255C93.9133 34.3196 95.1342 34.9979 96.5252 35.4218C97.5592 35.744 97.8136 35.9136 97.8136 36.1849C97.8136 36.4901 97.5422 36.6766 97.017 36.6766C96.2538 36.6766 95.5416 36.3714 94.8465 35.744L93.6085 37.4567C94.5241 38.2707 95.677 38.6776 96.983 38.6776ZM103.128 29.1984C104.045 29.1984 104.723 28.5371 104.723 27.6722C104.723 26.8413 104.045 26.18 103.128 26.18C102.213 26.18 101.552 26.8583 101.552 27.6722C101.552 28.5371 102.213 29.1984 103.128 29.1984ZM101.806 38.525H104.451V30.2328H101.806V38.525ZM109.105 38.6776C111.377 38.6776 112.479 37.5584 112.479 36.0153C112.479 34.3874 111.479 33.9126 109.647 33.2851C108.817 32.9969 108.511 32.8104 108.511 32.556C108.511 32.2338 108.867 32.0981 109.173 32.0981C109.732 32.0981 110.445 32.3864 111.021 32.963L112.276 31.1146C111.309 30.4024 110.394 30.0802 109.139 30.0802C107.409 30.0802 106.035 31.0468 106.035 32.7255C106.035 34.3196 107.256 34.9979 108.647 35.4218C109.681 35.744 109.936 35.9136 109.936 36.1849C109.936 36.4901 109.664 36.6766 109.139 36.6766C108.375 36.6766 107.663 36.3714 106.968 35.744L105.73 37.4567C106.646 38.2707 107.799 38.6776 109.105 38.6776ZM123.902 38.6776C126.039 38.6776 127.718 37.6602 128.752 36.3884L126.683 34.6079C125.988 35.4387 125.021 35.9645 123.902 35.9645C121.935 35.9645 120.663 34.4552 120.663 32.5221C120.663 30.3176 122.139 29.0288 123.885 29.0288C125.055 29.0288 126.022 29.6563 126.666 30.4194L128.735 28.6388C127.412 27.0279 125.581 26.3156 123.885 26.3156C119.917 26.3156 117.679 29.0797 117.679 32.5221C117.679 36.5241 120.443 38.6776 123.902 38.6776ZM130.055 38.525H132.701V34.3365C132.701 33.0477 133.311 32.4373 134.244 32.4373C135.177 32.4373 135.634 32.8443 135.634 34.1839V38.525H138.28V33.5225C138.28 30.9111 137.008 30.0802 135.296 30.0802C134.278 30.0802 133.379 30.4533 132.735 31.1824L132.701 31.1655V26.0443H130.055V38.525ZM143.485 38.6776C144.485 38.6776 145.231 38.3385 145.774 37.6432L145.808 37.6602V38.525H148.335V30.2328H145.672V31.0977L145.638 31.1146C145.061 30.4363 144.231 30.0802 143.349 30.0802C141.212 30.0802 139.567 31.8438 139.567 34.3874C139.567 36.948 141.212 38.6776 143.485 38.6776ZM144.044 36.3375C142.993 36.3375 142.264 35.5574 142.264 34.3874C142.264 33.2004 143.027 32.4203 144.044 32.4203C145.027 32.4203 145.791 33.2513 145.791 34.3874C145.791 35.5744 144.993 36.3375 144.044 36.3375ZM151.517 29.1984C152.433 29.1984 153.112 28.5371 153.112 27.6722C153.112 26.8413 152.433 26.18 151.517 26.18C150.602 26.18 149.94 26.8583 149.94 27.6722C149.94 28.5371 150.602 29.1984 151.517 29.1984ZM150.195 38.525H152.84V30.2328H150.195V38.525ZM154.763 38.525H157.408V34.3535C157.408 33.0647 158.019 32.4373 158.935 32.4373C159.8 32.4373 160.258 32.8273 160.258 34.2008V38.525H162.903V33.5565C162.903 30.9281 161.648 30.0802 159.935 30.0802C158.969 30.0802 158.087 30.4532 157.442 31.1994H157.408V30.2328H154.763V38.525Z" fill="#04795B"/>
<path d="M35.7595 34.9854C36.6219 34.9854 37.418 34.6981 38.0593 34.2007L32.7963 28.9396C32.2988 29.5696 32.0113 30.3654 32.0113 31.2386C32.0002 33.3054 33.6809 34.9854 35.7595 34.9854Z" fill="#04795B"/>
<path d="M51.4157 31.2275C51.4157 30.3655 51.1282 29.5697 50.6307 28.9286L45.3677 34.1897C45.998 34.687 46.794 34.9744 47.6675 34.9744C49.7351 34.9855 51.4157 33.3055 51.4157 31.2275Z" fill="#04795B"/>
<path d="M54.0695 25.5133L51.7365 27.8455C52.5105 28.7738 52.9749 29.9454 52.9749 31.2497C52.9749 34.1786 50.5977 36.555 47.6676 36.555C46.374 36.555 45.1909 36.0908 44.2622 35.3171L41.7081 37.8702L39.1539 35.3171C38.2252 36.0908 37.0531 36.555 35.7485 36.555C32.8184 36.555 30.4412 34.1786 30.4412 31.2497C30.4412 29.9565 30.9056 28.7738 31.6796 27.8455L30.4854 26.6518L29.3466 25.5133C28.0198 27.7018 27.2568 30.255 27.2568 32.996C27.2568 40.9761 33.725 47.4309 41.697 47.4309C49.6689 47.4309 56.1371 40.965 56.1371 32.996C56.1593 30.2439 55.3963 27.6907 54.0695 25.5133Z" fill="#04795B"/>
<path d="M52.1567 23.0264C49.5363 20.2743 45.8212 18.55 41.7081 18.55C37.5949 18.55 33.8909 20.2743 31.2594 23.0264C30.9056 23.4022 30.5629 23.8001 30.2422 24.209L41.697 35.6596L53.1518 24.198C52.8643 23.8001 52.5216 23.3912 52.1567 23.0264ZM41.7081 20.429C45.0914 20.429 48.2316 21.7332 50.5866 24.1096L41.7081 32.9849L32.8295 24.1096C35.1956 21.7332 38.3247 20.429 41.7081 20.429Z" fill="#04795B"/>
</svg>
