<svg width="190" height="66" viewBox="0 0 190 66" fill="none" xmlns="http://www.w3.org/2000/svg">
<path d="M0 10C0 4.47715 4.47715 0 10 0H180C185.523 0 190 4.47715 190 10V56C190 61.5229 185.523 66 180 66H10C4.47715 66 0 61.5228 0 56V10Z" fill="white"/>
<path d="M64.8311 33.1591C64.7781 33.187 64.7753 33.2455 64.7502 33.2902C64.5884 33.5887 64.2676 33.7309 63.9467 33.6473C63.6287 33.5636 63.4111 33.2706 63.4223 32.9387C63.4334 32.6151 63.665 32.3333 63.9774 32.272C64.3094 32.205 64.633 32.3724 64.7725 32.682C64.792 32.7239 64.7892 32.7769 64.8311 32.8076C64.8311 32.9247 64.8311 33.0419 64.8311 33.1591Z" fill="#0033AC"/>
<path d="M32.3652 32.8744C32.3848 32.8326 32.4071 32.788 32.4266 32.7461C32.5689 32.442 32.8841 32.2774 33.2105 32.3444C33.5341 32.4114 33.7712 32.6903 33.7796 33.0167C33.7852 33.3431 33.5592 33.6444 33.2496 33.7225C32.926 33.8034 32.6051 33.6555 32.4461 33.3571C32.421 33.3124 32.4182 33.2538 32.368 33.2231C32.3652 33.106 32.3652 32.9888 32.3652 32.8744Z" fill="#0033AC"/>
<path d="M41.2642 33.0168C41.267 31.7949 42.2405 30.8213 43.4624 30.8213C44.6731 30.8241 45.6439 31.8033 45.6383 33.0195C45.6328 34.247 44.662 35.1955 43.4094 35.1955C42.235 35.1927 41.2614 34.2052 41.2642 33.0168Z" fill="#0033AC"/>
<path d="M43.8418 37.4552C43.8446 36.2529 44.8321 35.2765 46.0429 35.2793C47.2508 35.2821 48.2216 36.2641 48.2188 37.4776C48.216 38.6855 47.234 39.6591 46.0205 39.6535C44.8126 39.6507 43.8362 38.6659 43.8418 37.4552Z" fill="#0033AC"/>
<path d="M48.1966 28.5448C48.1939 29.7583 47.2203 30.7291 46.0068 30.7235C44.7988 30.7207 43.8169 29.7332 43.8252 28.5281C43.8336 27.3229 44.8212 26.3382 46.0207 26.3438C47.2286 26.3466 48.2022 27.3313 48.1966 28.5448Z" fill="#0033AC"/>
<path d="M48.9942 37.4494C48.9997 36.2387 49.9845 35.2679 51.1952 35.2735C52.4031 35.279 53.3823 36.2694 53.3711 37.4745C53.36 38.6741 52.3808 39.6476 51.1785 39.6448C49.9761 39.6448 48.9886 38.6517 48.9942 37.4494Z" fill="#0033AC"/>
<path d="M53.7398 35.1675C52.5625 35.1815 51.5834 34.2135 51.5666 33.0195C51.5499 31.8088 52.5012 30.824 53.7063 30.8045C54.9226 30.785 55.9129 31.7335 55.9269 32.933C55.9436 34.18 54.9923 35.1508 53.7398 35.1675Z" fill="#0033AC"/>
<path d="M48.9775 28.5282C48.9775 27.3231 49.9623 26.3439 51.1702 26.3467C52.367 26.3495 53.3461 27.3342 53.3434 28.531C53.3406 29.7333 52.3642 30.7125 51.1646 30.7125C49.9567 30.7125 48.9775 29.7361 48.9775 28.5282Z" fill="#0033AC"/>
<path d="M40.949 27.323C41.6604 27.3258 42.2294 27.8977 42.2294 28.6063C42.2267 29.3232 41.6492 29.8979 40.935 29.8923C40.232 29.8839 39.6574 29.3037 39.6602 28.6007C39.663 27.8921 40.2404 27.3202 40.949 27.323Z" fill="#0033AC"/>
<path d="M56.245 38.677C55.5336 38.6715 54.9645 38.0996 54.9673 37.391C54.9701 36.6741 55.5503 36.0994 56.2645 36.1078C56.9675 36.1161 57.5421 36.6992 57.5366 37.4022C57.531 38.1107 56.9535 38.6826 56.245 38.677Z" fill="#0033AC"/>
<path d="M49.8092 41.8238C49.8092 42.5436 49.2401 43.1126 48.5231 43.1126C47.8174 43.1126 47.2399 42.5352 47.2427 41.8322C47.2455 41.1152 47.809 40.5462 48.5148 40.5462C49.2373 40.5434 49.8092 41.1069 49.8092 41.8238Z" fill="#0033AC"/>
<path d="M48.5757 25.4539C47.856 25.4512 47.2925 24.8849 47.2925 24.1651C47.2925 23.4538 47.8644 22.8847 48.5729 22.8875C49.2871 22.8903 49.8562 23.4566 49.859 24.1623C49.8562 24.8849 49.2899 25.4567 48.5757 25.4539Z" fill="#0033AC"/>
<path d="M40.9659 38.7133C40.2573 38.7105 39.6854 38.1414 39.6826 37.4356C39.6826 36.7243 40.2684 36.1384 40.9742 36.1468C41.6772 36.1552 42.2575 36.7382 42.2519 37.4384C42.2463 38.1414 41.6716 38.7161 40.9659 38.7133Z" fill="#0033AC"/>
<path d="M57.5112 28.5616C57.5112 29.2674 56.9393 29.8477 56.2391 29.8532C55.5333 29.8588 54.9419 29.2702 54.9419 28.5672C54.9447 27.8614 55.5166 27.2896 56.2251 27.2896C56.9393 27.2896 57.5112 27.8559 57.5112 28.5616Z" fill="#0033AC"/>
<path d="M53.2568 42.9146C53.2541 42.312 53.7367 41.8183 54.3364 41.8155C54.9474 41.8099 55.4439 42.2981 55.4467 42.9007C55.4495 43.5088 54.9585 44.0026 54.3504 44.0026C53.7534 43.9998 53.2624 43.5116 53.2568 42.9146Z" fill="#0033AC"/>
<path d="M42.9019 41.8404C43.5045 41.846 43.9899 42.3369 43.9843 42.9339C43.9788 43.5365 43.4766 44.0303 42.874 44.0247C42.2715 44.0191 41.7917 43.5281 41.7944 42.9256C41.7972 42.3174 42.2882 41.8348 42.9019 41.8404Z" fill="#0033AC"/>
<path d="M54.3058 24.1594C53.7033 24.1594 53.2123 23.6768 53.2095 23.077C53.2067 22.4745 53.7033 21.9779 54.3058 21.9751C54.9112 21.9723 55.4021 22.4689 55.3966 23.077C55.3966 23.6796 54.914 24.1594 54.3058 24.1594Z" fill="#0033AC"/>
<path d="M37.1381 34.1185C36.5328 34.1157 36.0502 33.6359 36.0474 33.0334C36.0474 32.4252 36.5356 31.9342 37.1437 31.937C37.7546 31.9398 38.2372 32.428 38.2317 33.0389C38.2289 33.6471 37.7463 34.1213 37.1381 34.1185Z" fill="#0033AC"/>
<path d="M60.0634 31.887C60.666 31.8926 61.1514 32.3808 61.1458 32.9806C61.1403 33.5831 60.6353 34.0825 60.0383 34.0713C59.4274 34.0602 58.9532 33.5692 58.9615 32.9582C58.9727 32.3557 59.4581 31.8814 60.0634 31.887Z" fill="#0033AC"/>
<path d="M43.9396 23.0995C43.9368 23.7048 43.4514 24.1874 42.8489 24.1846C42.2463 24.1818 41.7609 23.6909 41.7637 23.0911C41.7665 22.4885 42.2575 22.0003 42.8572 22.0059C43.4598 22.0087 43.9424 22.4969 43.9396 23.0995Z" fill="#0033AC"/>
<path d="M36.3963 39.179C36.8956 39.1762 37.3029 39.5695 37.3085 40.0633C37.3141 40.5654 36.9124 40.9783 36.4102 40.9783C35.9164 40.9811 35.5092 40.5766 35.5064 40.0856C35.5036 39.589 35.9025 39.1818 36.3963 39.179Z" fill="#0033AC"/>
<path d="M61.7237 40.0244C61.7237 40.5154 61.322 40.9199 60.8282 40.9255C60.3289 40.931 59.9188 40.521 59.9244 40.0216C59.9272 39.5306 60.3345 39.1289 60.8282 39.1289C61.322 39.1289 61.7237 39.5306 61.7237 40.0244Z" fill="#0033AC"/>
<path d="M35.4727 25.9702C35.4727 25.4792 35.8772 25.0775 36.3709 25.0747C36.8647 25.0719 37.2664 25.4736 37.272 25.9674C37.2748 26.464 36.8647 26.874 36.3654 26.8713C35.8688 26.8685 35.4699 26.4668 35.4727 25.9702Z" fill="#0033AC"/>
<path d="M48.5425 48.0001C48.0488 48.0029 47.6387 47.5984 47.6387 47.1102C47.6387 46.6109 48.0488 46.198 48.5425 46.198C49.0279 46.2008 49.4352 46.6109 49.438 47.1018C49.4436 47.59 49.0363 47.9973 48.5425 48.0001Z" fill="#0033AC"/>
<path d="M49.4633 18.8899C49.4633 19.3893 49.0532 19.8021 48.5595 19.8021C48.0741 19.8021 47.6668 19.3893 47.6612 18.8983C47.6556 18.4101 48.0629 18.0028 48.5567 18C49.0532 18 49.4633 18.4017 49.4633 18.8899Z" fill="#0033AC"/>
<path d="M60.7863 26.8208C60.287 26.818 59.8853 26.4218 59.8853 25.9309C59.8853 25.4259 60.287 25.027 60.7919 25.0298C61.2912 25.0326 61.6902 25.4343 61.6874 25.9281C61.6818 26.4246 61.2829 26.8236 60.7863 26.8208Z" fill="#0033AC"/>
<path d="M57.0339 19.5315C57.0367 19.9192 56.7187 20.24 56.3309 20.2456C55.9404 20.2484 55.6252 19.9248 55.6279 19.5203C55.6307 19.1325 55.9348 18.8285 56.3254 18.8257C56.7075 18.8257 57.0311 19.1465 57.0339 19.5315Z" fill="#0033AC"/>
<path d="M41.5094 19.5593C41.5122 19.9527 41.2026 20.2707 40.8148 20.2763C40.4326 20.2819 40.1062 19.961 40.1007 19.5733C40.0951 19.1799 40.4047 18.8619 40.7981 18.8591C41.1914 18.8591 41.5066 19.166 41.5094 19.5593Z" fill="#0033AC"/>
<path d="M57.0956 46.449C57.09 46.8395 56.7664 47.1492 56.3759 47.138C55.9797 47.1269 55.6757 46.8088 55.6868 46.4155C55.698 46.0222 56.0188 45.7125 56.4066 45.7209C56.7915 45.732 57.1012 46.0584 57.0956 46.449Z" fill="#0033AC"/>
<path d="M41.5655 46.4658C41.5627 46.848 41.2391 47.166 40.8541 47.166C40.4664 47.1632 40.1567 46.848 40.1567 46.4546C40.1595 46.0669 40.4775 45.7516 40.8653 45.7544C41.2531 45.7572 41.5655 46.078 41.5655 46.4658Z" fill="#0033AC"/>
<path fill-rule="evenodd" clip-rule="evenodd" d="M111.206 36.7938L109.017 36.7742L109.025 29.3175L110.927 29.3203C113.006 29.3231 114.283 29.9452 114.819 31.9119C115.592 34.7434 113.734 36.7938 111.206 36.7938ZM106.271 39.1706L109.767 39.1817C111.53 39.1873 113.265 39.0534 114.501 38.4703C116.367 37.5916 117.821 35.7309 117.804 32.9468C117.787 28.2128 114.225 26.8849 110.456 26.8765L106.302 26.8682L106.271 39.1706Z" fill="#0033AC"/>
<path fill-rule="evenodd" clip-rule="evenodd" d="M97.3947 33.2734L97.3975 29.1698L99.7911 29.1503C101.133 29.1391 102.232 29.7473 102.271 31.1505C102.302 32.2524 101.775 32.9191 100.829 33.1618C100.608 33.2176 100.19 33.2818 99.7157 33.279L97.3947 33.2734ZM102.823 34.9779C105.122 33.8146 105.831 29.8003 103.683 28.0121C102.631 27.1361 101.451 26.9269 99.6767 26.9297L94.6553 26.9771L94.6915 39.0257L97.3919 38.981L97.4003 35.547L100.254 35.5386L102.076 39.0313L105.183 38.9894L102.823 34.9779Z" fill="#0033AC"/>
<path fill-rule="evenodd" clip-rule="evenodd" d="M85.0756 34.484L86.8247 30.1294L88.5822 34.4896C87.4106 34.4896 86.2417 34.4952 85.0756 34.484ZM84.102 36.7186L89.5502 36.7214L90.535 39.0284L93.4613 39.0145C93.4279 38.61 91.2882 33.6918 90.9534 32.9525L88.4232 26.9241L85.4383 26.9436C84.8274 28.5337 80.3332 38.3979 80.3081 39.0312L83.0922 39.0172L84.102 36.7186Z" fill="#0033AC"/>
<path fill-rule="evenodd" clip-rule="evenodd" d="M78.6064 30.6957L80.0543 28.7932C79.4099 27.7136 77.061 26.7734 75.5657 26.7734C66.1701 26.7734 67.2999 39.1539 74.8237 39.1679C78.2549 39.1735 78.9217 37.9907 80.0738 37.1621L78.5339 35.3042C77.9899 35.4604 76.2966 37.3044 73.9979 36.4033C69.5791 34.6682 72.0647 27.5824 76.729 29.485C77.658 29.8616 78.1155 30.1963 78.6064 30.6957Z" fill="#0033AC"/>
<path fill-rule="evenodd" clip-rule="evenodd" d="M122.649 34.537L124.396 30.1824L126.153 34.5426C124.984 34.5426 123.818 34.5482 122.649 34.537ZM121.676 36.7715L127.124 36.7743L128.109 39.0814L131.035 39.0674C131.002 38.6629 128.862 33.7448 128.527 33.0055L125.997 26.9771L123.012 26.9966C122.401 28.5867 117.907 38.4509 117.882 39.0842L120.669 39.0702L121.676 36.7715Z" fill="#0033AC"/>
<path fill-rule="evenodd" clip-rule="evenodd" d="M132.374 26.9214H134.896L140.71 34.6515L140.749 26.9214H143.27L143.24 38.9309L140.737 38.9281L134.921 31.2426L134.835 38.9058H132.466L132.374 26.9214Z" fill="#0033AC"/>
<path fill-rule="evenodd" clip-rule="evenodd" d="M151.202 26.8823C154.753 26.8823 157.635 29.6469 157.635 33.0531C157.635 36.462 154.756 39.2266 151.202 39.2266C147.65 39.2266 144.769 36.462 144.769 33.0531C144.769 29.6469 147.648 26.8823 151.202 26.8823ZM151.202 29.2201C153.252 29.2201 154.912 30.9357 154.912 33.0558C154.912 35.1732 153.249 36.8916 151.202 36.8916C149.151 36.8916 147.491 35.176 147.491 33.0558C147.491 30.9385 149.151 29.2201 151.202 29.2201Z" fill="#0033AC"/>
</svg>
