<svg width="190" height="66" viewBox="0 0 190 66" fill="none" xmlns="http://www.w3.org/2000/svg">
<path d="M0 10C0 4.47715 4.47715 0 10 0H180C185.523 0 190 4.47715 190 10V56C190 61.5229 185.523 66 180 66H10C4.47715 66 0 61.5228 0 56V10Z" fill="white"/>
<path d="M95.0594 25.4311V40.5977C95.0594 40.7133 94.9727 40.8288 94.8283 40.8288H93.2394C92.5172 40.8288 91.8238 40.4533 91.4194 39.8466L84.255 28.7822L84.4861 34.3V40.6266C84.4861 40.7422 84.3994 40.8577 84.255 40.8577H82.175C82.0594 40.8577 81.9438 40.7711 81.9438 40.6266V25.4311C81.9438 25.3155 82.0305 25.2 82.175 25.2H83.735C84.4572 25.2 85.1505 25.5755 85.555 26.1822L92.7194 37.2177L92.4883 31.7V25.4311C92.4883 25.3155 92.575 25.2 92.7194 25.2H94.7994C94.9727 25.2 95.0594 25.2866 95.0594 25.4311Z" fill="black"/>
<path d="M116.379 40.8H114.184C114.039 40.8 113.924 40.6555 113.982 40.5111L119.817 25.4022C119.875 25.2866 119.99 25.2 120.106 25.2H122.879C123.024 25.2 123.139 25.2866 123.168 25.4022L129.033 40.5111C129.09 40.6555 128.975 40.8 128.83 40.8H126.635C126.548 40.8 126.461 40.7422 126.433 40.6555L121.724 28.2333C121.666 28.06 121.377 28.06 121.319 28.2333L116.61 40.6555C116.553 40.7422 116.466 40.8 116.379 40.8Z" fill="black"/>
<path d="M144.344 40.4533L139.952 34.8488C142.437 34.3866 143.881 32.7111 143.881 30.14C143.881 27.1933 141.975 25.2 138.566 25.2H132.441C132.268 25.2 132.124 25.3444 132.124 25.5177C132.124 26.6733 133.048 27.5977 134.204 27.5977H138.335C140.386 27.5977 141.368 28.6377 141.368 30.1688C141.368 31.7 140.415 32.74 138.335 32.74H132.499C132.326 32.74 132.181 32.8844 132.181 33.0577V40.5688C132.181 40.6844 132.268 40.8 132.412 40.8H134.492C134.608 40.8 134.724 40.7133 134.724 40.5688V34.9933H137.121L140.935 39.9622C141.339 40.5111 141.975 40.8 142.668 40.8H144.257C144.372 40.8 144.459 40.5977 144.344 40.4533Z" fill="black"/>
<path d="M109.793 25.2H100.115C99.9417 25.2 99.8262 25.3155 99.8262 25.4888C99.8262 26.6444 100.78 27.5977 101.935 27.5977H109.793C109.908 27.5977 110.024 27.5111 110.024 27.3666V25.4022C109.995 25.2866 109.908 25.2 109.793 25.2ZM109.793 38.4022H102.571C102.455 38.4022 102.34 38.3155 102.34 38.1711V34.2711C102.34 34.1555 102.426 34.04 102.571 34.04H109.244C109.36 34.04 109.475 33.9533 109.475 33.8088V31.8444C109.475 31.7288 109.388 31.6133 109.244 31.6133H100.144C99.9706 31.6133 99.8262 31.7577 99.8262 31.9311V40.4533C99.8262 40.6266 99.9706 40.7711 100.144 40.7711H109.793C109.908 40.7711 110.024 40.6844 110.024 40.54V38.5755C109.995 38.4888 109.908 38.4022 109.793 38.4022Z" fill="black"/>
<path d="M66.4593 21.3289L61.0282 29.3889C60.6527 29.9378 61.3749 30.6022 61.8949 30.14L67.2393 25.4889C67.3838 25.3733 67.586 25.46 67.586 25.6622V40.1933C67.586 40.3956 67.326 40.4822 67.2105 40.3378L51.0327 20.9822C50.5127 20.3467 49.7616 20 48.9238 20H48.346C46.8438 20 45.6016 21.2422 45.6016 22.7733V43.2267C45.6016 44.7578 46.8438 46 48.3749 46C49.3282 46 50.2238 45.5089 50.7438 44.6711L56.1749 36.6111C56.5505 36.0622 55.8282 35.3978 55.3082 35.86L49.9638 40.4822C49.8193 40.5978 49.6171 40.5111 49.6171 40.3089V25.8067C49.6171 25.6044 49.8771 25.5178 49.9927 25.6622L66.1705 45.0178C66.6905 45.6533 67.4705 46 68.2793 46H68.8571C70.3882 46 71.6305 44.7578 71.6305 43.2267V22.7733C71.6016 21.2422 70.3593 20 68.8282 20C67.8749 20 66.9793 20.4911 66.4593 21.3289Z" fill="black"/>
</svg>
