<svg width="190" height="66" viewBox="0 0 190 66" fill="none" xmlns="http://www.w3.org/2000/svg">
<path d="M0 10C0 4.47715 4.47715 0 10 0H180C185.523 0 190 4.47715 190 10V56C190 61.5229 185.523 66 180 66H10C4.47715 66 0 61.5228 0 56V10Z" fill="white"/>
<g clip-path="url(#clip0_279_3010)">
<mask id="mask0_279_3010" style="mask-type:alpha" maskUnits="userSpaceOnUse" x="47" y="37" width="24" height="9">
<path d="M47.522 37.0704H70.621V45.8313H47.522V37.0704Z" fill="white"/>
</mask>
<g mask="url(#mask0_279_3010)">
<path fill-rule="evenodd" clip-rule="evenodd" d="M59.0491 41.5294C58.2351 41.5294 57.4788 41.3599 56.8614 41.0392L50.2135 37.5861L48.2215 38.7754C47.2746 39.3405 47.2911 40.2068 48.2584 40.7093L57.453 45.4855C57.8996 45.7173 58.4705 45.8314 59.0491 45.8314C59.7246 45.8314 60.4101 45.6761 60.9202 45.3717L69.9215 39.9977C70.8684 39.4323 70.8518 38.566 69.8846 38.0638L67.973 37.0704L61.5777 40.8889C60.8856 41.3017 59.9877 41.5294 59.0491 41.5294Z" fill="url(#paint0_linear_279_3010)"/>
</g>
<path fill-rule="evenodd" clip-rule="evenodd" d="M69.9438 32.3457L68.3477 31.5044L64.6308 33.7559L63.9927 34.1423L63.3549 34.5288L61.6149 35.5829C60.921 36.0036 60.0204 36.2348 59.0796 36.2348C58.2636 36.2348 57.5052 36.0624 56.8862 35.7364L54.8927 34.6855L54.2329 34.3381L53.5731 33.9904L49.8999 32.054L48.2235 33.0697C47.2741 33.6449 47.2903 34.5259 48.2601 35.0371L50.1771 36.0474L50.8369 36.3951L51.4964 36.7429L57.4794 39.8962C57.9268 40.1319 58.4995 40.2478 59.0796 40.2478C59.7567 40.2478 60.4442 40.09 60.9554 39.7804L66.7075 36.296L67.3457 35.9095L67.9835 35.5231L69.9808 34.3132C70.9301 33.7383 70.9136 32.857 69.9438 32.3457Z" fill="url(#paint1_linear_279_3010)"/>
<path fill-rule="evenodd" clip-rule="evenodd" d="M69.9438 27.1907L60.7245 22.4165C60.2771 22.1845 59.7047 22.0707 59.1243 22.0707C58.4472 22.0707 57.7597 22.226 57.2485 22.5302L48.2235 27.9024C47.2741 28.4673 47.2903 29.333 48.2601 29.8353L49.8563 30.662L50.5161 31.0037L51.1759 31.3454L54.849 33.2478L55.5088 33.5892L56.1687 33.9312L57.4794 34.6102C57.9268 34.8418 58.4995 34.9556 59.0796 34.9556C59.7567 34.9556 60.4442 34.8003 60.9554 34.4961L62.0352 33.8532L62.6734 33.4735L63.3112 33.0938L67.028 30.8814L67.6662 30.5017L68.304 30.122L69.9808 29.1239C70.9301 28.5591 70.9136 27.693 69.9438 27.1907Z" fill="url(#paint2_linear_279_3010)"/>
<mask id="mask1_279_3010" style="mask-type:alpha" maskUnits="userSpaceOnUse" x="77" y="20" width="14" height="26">
<path d="M77.3276 20.1791H90.5134V45.0088H77.3276V20.1791Z" fill="white"/>
</mask>
<g mask="url(#mask1_279_3010)">
<path fill-rule="evenodd" clip-rule="evenodd" d="M86.9326 24.0251C85.7221 23.9776 84.702 24.9042 84.6537 26.0954C84.6537 26.0995 84.6534 26.103 84.6534 26.1071V28.1895H89.5369V31.7138H84.6534V45.0087H80.2576V31.7138H77.3276V28.1895H80.2576V25.7841C80.2576 22.4204 83.1879 20.1802 86.4436 20.1802C87.9348 20.1489 89.3849 20.6627 90.5134 21.6219L88.8855 24.6651C88.2997 24.2927 87.6278 24.0719 86.932 24.0241" fill="#1E1E1E"/>
</g>
<path fill-rule="evenodd" clip-rule="evenodd" d="M107.738 28.0531V44.9185H104.368L103.725 42.9916H103.245C102.603 43.7945 101.159 45.0796 98.269 45.0796C93.7741 45.0796 91.5264 41.867 91.5264 37.2086V28.0531H96.1836V36.084C96.1836 38.1721 96.3437 41.0634 99.2342 41.0634C100.679 41.0634 103.087 40.2601 103.087 35.9241V28.0531H107.738Z" fill="#1E1E1E"/>
<path fill-rule="evenodd" clip-rule="evenodd" d="M117.281 31.4398C115.817 31.4398 115.167 32.0849 115.167 32.8917C115.167 34.021 116.631 34.3433 117.769 34.6654C120.86 35.3107 123.951 36.2781 123.951 39.8257C123.951 43.3736 121.023 45.3097 117.444 45.3097C113.539 45.3097 110.449 42.8904 110.286 39.3422H114.515C114.675 40.7986 115.97 41.8676 117.443 41.7612C119.232 41.7612 119.558 40.7938 119.558 40.1487C119.558 38.8583 118.419 38.5356 117.118 38.2133C115.165 37.7313 110.773 36.9229 110.773 33.0523C110.773 29.6659 114.028 28.0531 117.281 28.0531C121.186 28.0531 123.626 30.3112 123.788 33.2135H119.559C119.559 32.4072 119.073 31.4398 117.281 31.4398Z" fill="#1E1E1E"/>
<path fill-rule="evenodd" clip-rule="evenodd" d="M142.417 37.7296H130C130.482 40.286 132.58 41.245 134.515 41.245C135.761 41.3046 136.96 40.77 137.74 39.8066H142.094C140.902 43.0109 137.801 45.1236 134.354 45.0791C129.619 45.0658 125.79 41.2513 125.803 36.5588C125.804 36.4698 125.805 36.3812 125.808 36.2919C125.651 31.7736 129.22 27.984 133.78 27.8278C133.918 27.8231 134.056 27.8221 134.193 27.824C138.547 27.824 143.062 30.8601 142.417 37.7302V37.7296ZM130.323 34.3745H137.902C137.564 32.7222 136.054 31.5657 134.354 31.6584C132.541 31.5407 130.879 32.6604 130.323 34.3745Z" fill="#1E1E1E"/>
</g>
<defs>
<linearGradient id="paint0_linear_279_3010" x1="59.0715" y1="22.8348" x2="59.0715" y2="45.8314" gradientUnits="userSpaceOnUse">
<stop stop-color="#B3F9BA"/>
<stop offset="1" stop-color="#F6FB8C"/>
</linearGradient>
<linearGradient id="paint1_linear_279_3010" x1="59.102" y1="22.8527" x2="59.102" y2="45.3025" gradientUnits="userSpaceOnUse">
<stop stop-color="#B1FFBF"/>
<stop offset="1" stop-color="#FFF16D"/>
</linearGradient>
<linearGradient id="paint2_linear_279_3010" x1="59.102" y1="22.0707" x2="59.102" y2="45.3671" gradientUnits="userSpaceOnUse">
<stop stop-color="#B3F9BA"/>
<stop offset="1" stop-color="#F6FB8C"/>
</linearGradient>
<clipPath id="clip0_279_3010">
<rect width="94.9565" height="26" fill="white" transform="translate(47.522 20)"/>
</clipPath>
</defs>
</svg>
