<svg width="191" height="66" viewBox="0 0 191 66" fill="none" xmlns="http://www.w3.org/2000/svg">
<rect width="191" height="66" rx="10" fill="white"/>
<path d="M85.7576 29.8713H84.0859V40.7862H85.7576V29.8713Z" fill="#262729"/>
<path d="M93.2464 25.2478H79.6206V26.9195H93.2464V25.2478Z" fill="#262729"/>
<path d="M88.7772 29.8716H87.1055V40.7865H88.7772V29.8716Z" fill="#262729"/>
<path d="M134.959 40.7969H136.646V34.2231L134.959 32.3481V40.7969Z" fill="#262729"/>
<path d="M143.842 25.2476V37.4351L131.91 24.1746V40.7973H133.593V28.606L145.532 41.8703V25.2476H143.842Z" fill="#262729"/>
<path d="M120.987 25.24C116.699 25.24 113.212 28.7264 113.212 33.0148C113.212 37.3032 116.699 40.7897 120.987 40.7897C125.276 40.7897 128.762 37.3032 128.762 33.0148C128.762 28.7302 125.276 25.24 120.987 25.24ZM120.987 39.1142C117.625 39.1142 114.888 36.3808 114.888 33.0148C114.888 29.6489 117.621 26.9154 120.987 26.9154C124.349 26.9154 127.087 29.6489 127.087 33.0148C127.087 36.377 124.349 39.1142 120.987 39.1142Z" fill="#262729"/>
<path d="M120.987 31.8967C120.37 31.8967 119.869 32.3975 119.869 33.015C119.869 33.6324 120.37 34.1332 120.987 34.1332C121.605 34.1332 122.106 33.6324 122.106 33.015C122.106 32.3975 121.605 31.8967 120.987 31.8967Z" fill="#262729"/>
<path d="M110.287 30.018C110.287 27.39 108.163 25.2515 105.554 25.2515H96.6611V40.8012H98.3215V26.9382H105.554C107.23 26.9382 108.593 28.32 108.593 30.018C108.593 31.7085 107.248 33.0828 105.588 33.1016L99.6882 33.0978V40.8012H101.349V34.7846H105.238L108.416 40.7974H110.347L107.03 34.5474C108.947 33.9111 110.287 32.0587 110.287 30.018Z" fill="#262729"/>
<path d="M68.1259 22.1679L45.4678 18L57.3917 48L74.0032 27.759L68.1259 22.1679ZM67.7645 24.0053L71.2321 27.2997L61.7517 29.0166L67.7645 24.0053ZM59.6922 28.6739L49.6997 20.387L66.0288 23.3916L59.6922 28.6739ZM58.9768 30.1423L57.3503 43.6099L48.5664 21.5015L58.9768 30.1423ZM60.4828 30.8539L70.9798 28.9526L58.9429 43.6212L60.4828 30.8539Z" fill="#EB0029"/>
</svg>
