<svg width="190" height="66" viewBox="0 0 190 66" fill="none" xmlns="http://www.w3.org/2000/svg">
<path d="M0 10C0 4.47715 4.47715 0 10 0H180C185.523 0 190 4.47715 190 10V56C190 61.5229 185.523 66 180 66H10C4.47715 66 0 61.5228 0 56V10Z" fill="white"/>
<path fill-rule="evenodd" clip-rule="evenodd" d="M43.0301 38.541L41.2163 36.683C40.5748 37.3023 39.867 37.8111 39.1149 38.2314C38.3186 38.6295 37.4338 38.8286 36.549 38.8065C35.8191 38.8065 35.0891 38.6516 34.4034 38.342C33.7619 38.0323 33.1647 37.612 32.7002 37.1033C32.2136 36.5724 31.8375 35.9309 31.5942 35.2452C31.3288 34.5152 31.196 33.741 31.196 32.9669C31.196 32.1927 31.3288 31.4406 31.5942 30.7106C31.8596 30.047 32.2357 29.4277 32.7002 28.8747C33.1868 28.3438 33.7619 27.9235 34.4034 27.636C35.067 27.3263 35.797 27.1715 36.549 27.1715C37.4117 27.1493 38.2744 27.3484 39.0265 27.7466C39.7785 28.1447 40.4642 28.6314 41.0836 29.2065L42.9195 27.083C42.5435 26.7069 42.1232 26.3751 41.703 26.0655C41.2606 25.7558 40.796 25.4904 40.2873 25.2692C39.7564 25.0258 39.1813 24.8489 38.6062 24.7383C37.9426 24.6056 37.2569 24.5392 36.5712 24.5613C35.3988 24.5392 34.2486 24.7825 33.1868 25.2249C32.1914 25.6452 31.2845 26.2645 30.5324 27.0387C29.8025 27.8129 29.2274 28.6977 28.8292 29.6931C28.4311 30.7328 28.2099 31.8609 28.232 32.989C28.232 34.1171 28.4311 35.2452 28.8513 36.2848C29.2495 37.2802 29.8467 38.1871 30.5767 38.9613C31.3288 39.7134 32.2136 40.3328 33.1868 40.753C34.2265 41.1954 35.3546 41.4166 36.4827 41.4166C37.1905 41.4166 37.8762 41.3503 38.5619 41.2175C39.1592 41.0848 39.7343 40.9079 40.2652 40.6424C40.7739 40.377 41.2827 40.0894 41.7472 39.7355C42.1675 39.4037 42.6099 38.9834 43.0301 38.541Z" fill="#1E1E1E"/>
<path fill-rule="evenodd" clip-rule="evenodd" d="M79.8154 29.1843C79.8154 28.6313 80.0809 28.1226 80.5012 27.7908C80.9657 27.4147 81.6071 27.2378 82.4477 27.2378C83.1998 27.2378 83.9297 27.3926 84.6376 27.6802C85.4118 28.012 86.1638 28.4322 86.8274 28.9189L88.3537 26.7511C87.5574 26.1096 86.6505 25.5788 85.6993 25.2249C84.6818 24.8488 83.5979 24.6719 82.5141 24.694C81.762 24.694 81.0099 24.8046 80.3021 25.0258C79.6606 25.2249 79.0634 25.5567 78.5767 25.999C78.0901 26.4193 77.7141 26.9281 77.4486 27.5032C77.1611 28.1004 77.0062 28.764 77.0283 29.4497C77.0062 30.1133 77.1389 30.7769 77.3823 31.3742C77.6256 31.905 77.9795 32.3474 78.4219 32.7235C78.9306 33.1216 79.5058 33.4313 80.103 33.6525C80.8551 33.9179 81.6293 34.1391 82.4035 34.3161C83.0228 34.4709 83.6422 34.6479 84.2394 34.847C84.6376 34.9797 84.9915 35.1567 85.3454 35.4C85.5887 35.5548 85.7878 35.776 85.8984 36.0414C86.009 36.2848 86.0532 36.5502 86.0532 36.8378C86.0753 37.435 85.7878 38.0101 85.279 38.3419C84.6597 38.7401 83.9297 38.9391 83.1998 38.917C82.2707 38.9391 81.3196 38.7401 80.4569 38.364C79.5942 37.9437 78.7979 37.435 78.0901 36.7935L76.3647 38.8285C78.1786 40.5318 80.5896 41.4608 83.0892 41.4387C83.8855 41.4387 84.6818 41.3281 85.4339 41.1069C86.0975 40.9078 86.7168 40.576 87.2477 40.1557C87.7565 39.7355 88.1546 39.2267 88.42 38.6295C88.7076 37.9659 88.8403 37.2802 88.8403 36.5502C88.8403 35.9309 88.7297 35.3336 88.5085 34.7585C88.2873 34.2497 87.9555 33.7852 87.5353 33.4313C87.0486 33.011 86.4956 32.6792 85.8984 32.458C85.1684 32.1705 84.4164 31.9272 83.6422 31.7281C82.868 31.5511 82.2265 31.352 81.7399 31.1972C81.3196 31.0645 80.9435 30.8875 80.5675 30.6442C80.3021 30.4894 80.103 30.2461 79.9703 29.9806C79.8597 29.7373 79.8154 29.4719 79.8154 29.1843Z" fill="#1E1E1E"/>
<path fill-rule="evenodd" clip-rule="evenodd" d="M111.402 29.4055V41.0405H114.212V24.8267H111.181L106.271 32.5022L101.36 24.8267H98.3296V41.0405H101.139V29.4497L106.204 37.0589H106.293L111.402 29.4055Z" fill="#1E1E1E"/>
<path fill-rule="evenodd" clip-rule="evenodd" d="M137.88 33.0331C137.88 33.8073 137.747 34.5594 137.482 35.2893C137.238 35.9751 136.84 36.5944 136.354 37.1253C135.336 38.2092 133.92 38.8285 132.438 38.8064C131.686 38.8064 130.912 38.6515 130.226 38.3419C129.563 38.0322 128.966 37.6119 128.479 37.081C127.992 36.5502 127.594 35.9087 127.351 35.223C126.798 33.7631 126.798 32.1704 127.351 30.7105C127.594 30.0248 127.97 29.4055 128.457 28.8746C129.474 27.7907 130.89 27.1714 132.372 27.1935C133.124 27.1935 133.898 27.3483 134.584 27.658C135.248 27.9677 135.845 28.388 136.331 28.9188C136.818 29.4497 137.216 30.0912 137.482 30.7769C137.747 31.4847 137.88 32.2589 137.88 33.0331ZM140.866 32.9668C140.866 31.8386 140.667 30.7327 140.247 29.693C139.848 28.6976 139.273 27.7907 138.521 27.0165C137.769 26.2423 136.862 25.623 135.867 25.2027C134.783 24.7382 133.611 24.517 132.438 24.5391C130.138 24.517 127.926 25.4239 126.311 27.0608C125.537 27.835 124.94 28.7419 124.542 29.7594C123.701 31.8608 123.701 34.1833 124.542 36.2847C124.94 37.2801 125.537 38.187 126.267 38.9612C127.019 39.7354 127.926 40.3548 128.921 40.775C130.005 41.2396 131.178 41.4608 132.35 41.4386C133.522 41.4608 134.695 41.2175 135.778 40.7529C136.796 40.3327 137.703 39.6912 138.455 38.917C139.229 38.1428 139.826 37.2359 140.225 36.2184C140.667 35.2009 140.866 34.0949 140.866 32.9668Z" fill="#1E1E1E"/>
<path fill-rule="evenodd" clip-rule="evenodd" d="M152.7 29.1843C152.7 28.6313 152.966 28.1226 153.386 27.7908C153.851 27.4147 154.492 27.2378 155.333 27.2378C156.085 27.2378 156.815 27.3926 157.523 27.6802C158.297 28.012 159.049 28.4322 159.712 28.9189L161.239 26.7511C160.442 26.1096 159.535 25.6009 158.584 25.2249C157.567 24.8488 156.483 24.6719 155.399 24.694C154.647 24.694 153.895 24.8046 153.187 25.0258C152.546 25.2249 151.948 25.5567 151.462 25.999C150.975 26.4193 150.599 26.9281 150.334 27.5032C150.046 28.1004 149.891 28.764 149.913 29.4497C149.891 30.1133 150.024 30.7769 150.267 31.3742C150.511 31.905 150.864 32.3474 151.307 32.7235C151.816 33.1216 152.391 33.4313 152.988 33.6525C153.74 33.9179 154.514 34.1391 155.288 34.3161C155.908 34.4709 156.527 34.6479 157.124 34.847C157.523 34.9797 157.876 35.1567 158.23 35.4C158.474 35.5548 158.673 35.776 158.783 36.0414C158.894 36.2848 158.938 36.5502 158.938 36.8378C158.96 37.435 158.673 38.0101 158.164 38.3419C157.545 38.7401 156.815 38.9391 156.085 38.917C155.156 38.9391 154.205 38.7401 153.364 38.364C152.501 37.9437 151.705 37.435 150.997 36.7935L149.294 38.8507C151.108 40.5539 153.519 41.4829 156.018 41.4608C156.815 41.4608 157.611 41.3502 158.363 41.129C159.027 40.9299 159.646 40.5981 160.177 40.1779C160.686 39.7576 161.084 39.2488 161.349 38.6516C161.637 37.988 161.77 37.2802 161.77 36.5723C161.77 35.953 161.659 35.3557 161.438 34.7806C161.217 34.2719 160.885 33.8073 160.464 33.4534C159.978 33.0332 159.425 32.7014 158.828 32.4802C158.098 32.1926 157.346 31.9493 156.571 31.7502C155.797 31.5732 155.156 31.3742 154.669 31.2193C154.249 31.0866 153.873 30.8875 153.497 30.6442C153.231 30.4894 153.032 30.2461 152.899 29.9806C152.745 29.7373 152.7 29.4719 152.7 29.1843Z" fill="#1E1E1E"/>
<path fill-rule="evenodd" clip-rule="evenodd" d="M62.3629 28.0783L54.6431 35.8203C54.5325 35.6212 54.444 35.4221 54.3555 35.223C53.8247 33.7853 53.8247 32.1926 54.3555 30.7327C54.621 30.047 54.997 29.4277 55.4836 28.8968C55.9703 28.3659 56.5454 27.9456 57.1869 27.6581C57.8726 27.3484 58.6468 27.1935 59.3989 27.1935C60.1509 27.1935 60.903 27.3484 61.6108 27.6581C61.8984 27.7908 62.1196 27.9235 62.3629 28.0783ZM61.6772 38.3198C60.9915 38.6295 60.2173 38.7843 59.4652 38.7843C58.4256 38.8064 57.4081 38.4968 56.5454 37.9217L64.2431 30.1797C64.3537 30.3788 64.4422 30.5779 64.5085 30.777C65.0394 32.2147 65.0394 33.8074 64.5085 35.2673C64.2652 35.953 63.8892 36.5724 63.4025 37.1032C62.9159 37.6341 62.3408 38.0323 61.6772 38.3198ZM62.8495 40.753C63.8449 40.3106 64.774 39.6912 65.5482 38.9171C66.3002 38.1429 66.8975 37.2359 67.3177 36.2406C68.1583 34.1613 68.1583 31.8166 67.3177 29.7373C67.0744 29.1401 66.7869 28.5871 66.4108 28.0562L71.432 23.0129L69.4412 21L64.3979 26.0654C63.9334 25.7336 63.4247 25.4682 62.9159 25.2691C61.832 24.8267 60.6597 24.5834 59.4873 24.6055C57.209 24.5834 54.997 25.4903 53.4044 27.1051C52.6523 27.8793 52.033 28.7862 51.6348 29.7816C50.5288 32.4802 50.8606 35.577 52.5638 37.9659L47.5205 42.9871L49.5113 45L54.5546 39.9346C55.0191 40.2442 55.5058 40.5097 56.0145 40.7309C57.0984 41.1733 58.2707 41.4166 59.4431 41.3945C60.5933 41.4387 61.7657 41.1954 62.8495 40.753Z" fill="#1E1E1E"/>
</svg>
