<svg width="191" height="66" viewBox="0 0 191 66" fill="none" xmlns="http://www.w3.org/2000/svg">
<rect width="191" height="66" rx="10" fill="white"/>
<g clip-path="url(#clip0_1_255)">
<path d="M95.1414 24.7819H89.7945V39.2526H88.4814V24.7819H83.1479V23.6719H95.1414V24.7819Z" fill="#0E61FF"/>
<path d="M100.082 39.4827C98.1696 39.5112 96.4099 38.4377 95.5611 36.7226C95.109 35.8197 94.8816 34.8221 94.8978 33.8122V33.352C94.8816 32.3137 95.1049 31.2863 95.5476 30.3468C95.9415 29.494 96.5655 28.7671 97.3479 28.2486C98.0884 27.7505 98.9602 27.4825 99.8522 27.4771C101.26 27.4771 102.37 27.9508 103.196 28.9119C104.022 29.873 104.428 31.1861 104.428 32.8511V33.5686H96.1567V33.8122C96.1567 35.1253 96.5357 36.2217 97.2803 37.0881C97.9774 37.9368 99.0251 38.4215 100.123 38.4012C100.748 38.416 101.37 38.2861 101.937 38.0221C102.505 37.7419 102.997 37.3277 103.372 36.8174L104.17 37.4265C103.25 38.7924 101.883 39.4827 100.082 39.4827ZM99.8522 28.5586C98.9263 28.5437 98.0383 28.9282 97.4156 29.6145C96.7523 30.3184 96.3598 31.266 96.2109 32.4572H103.155V32.3218C103.115 31.2118 102.803 30.3049 102.208 29.601C101.612 28.897 100.827 28.5586 99.8522 28.5586Z" fill="#0E61FF"/>
<path d="M108.218 38.1832H115.744V39.2661H106.634V38.3185L113.66 28.7887H106.851V27.6787H115.27V28.6398L108.218 38.1832Z" fill="#0E61FF"/>
<path d="M117.585 33.2963C117.569 32.2581 117.792 31.2306 118.235 30.2912C118.636 29.437 119.269 28.7155 120.063 28.2065C120.865 27.703 121.797 27.4444 122.743 27.462C124.286 27.462 125.531 28.0035 126.492 29.0864C127.454 30.1694 127.927 31.6043 127.927 33.3911V33.6618C127.945 34.7042 127.722 35.737 127.278 36.6805C126.881 37.5333 126.246 38.2535 125.45 38.753C124.645 39.2457 123.715 39.5002 122.77 39.484C121.24 39.484 119.981 38.9425 119.02 37.8596C118.059 36.7766 117.585 35.3417 117.585 33.5549V33.2963ZM118.871 33.6483C118.871 35.029 119.237 36.1661 119.941 37.0595C120.645 37.953 121.592 38.3861 122.756 38.3861C123.851 38.4119 124.895 37.9205 125.572 37.0595C126.289 36.1661 126.641 35.002 126.641 33.54V33.2963C126.649 32.4598 126.484 31.6286 126.154 30.8597C125.864 30.1721 125.385 29.5805 124.773 29.1541C124.175 28.7467 123.466 28.5341 122.743 28.545C121.649 28.5247 120.611 29.0215 119.941 29.8851C119.223 30.7785 118.858 31.9562 118.858 33.4046L118.871 33.6483Z" fill="#0E61FF"/>
<path d="M137.511 36.3165C137.527 35.7101 137.238 35.1348 136.74 34.7869C136.225 34.4078 135.467 34.0965 134.425 33.8799C133.601 33.7256 132.796 33.4765 132.029 33.1354C131.46 32.8511 131.041 32.5127 130.77 32.1066C130.484 31.668 130.338 31.1536 130.35 30.6311C130.35 29.7106 130.729 28.9661 131.501 28.3705C132.273 27.7749 133.247 27.4771 134.438 27.4771C135.724 27.4771 136.767 27.8019 137.552 28.4382C138.319 29.0392 138.757 29.9678 138.73 30.9424H137.444C137.449 30.2737 137.131 29.6443 136.591 29.2504C136.022 28.8036 135.305 28.5735 134.438 28.5735C133.599 28.5735 132.922 28.763 132.408 29.1285C131.921 29.4548 131.631 30.0043 131.636 30.5905C131.611 31.1157 131.85 31.6179 132.273 31.9306C132.692 32.242 133.477 32.5398 134.601 32.8105C135.724 33.0812 136.564 33.352 137.132 33.6498C137.632 33.8989 138.061 34.2725 138.378 34.7327C139.136 36.0322 138.804 37.6945 137.606 38.6042C136.821 39.1863 135.792 39.4841 134.52 39.4841C133.166 39.4841 132.07 39.1592 131.244 38.5094C130.418 37.8597 129.985 37.034 129.985 36.0322H131.271C131.298 36.7307 131.647 37.3764 132.218 37.7785C132.8 38.1981 133.572 38.4012 134.533 38.4012C135.427 38.4012 136.144 38.1981 136.699 37.8191C137.241 37.4116 137.511 36.9108 137.511 36.3165Z" fill="#0E61FF"/>
<path d="M73.6857 40.1325C73.3744 34.623 66.4436 32.1188 65.7803 31.8616C65.7532 31.848 65.7532 31.821 65.7668 31.7939L72.9141 24.6194V23.8478C72.9101 23.722 72.8099 23.6218 72.684 23.6177H59.5128V19.2995V18L54.6532 19.0153V19.7462H54.9239C54.9239 19.7462 56.1151 19.7462 56.1151 20.9375V23.6042H52.3519C52.2788 23.6096 52.222 23.6665 52.2166 23.7396V25.4316H56.1287V34.623C56.1287 37.5064 57.9832 39.5098 61.232 39.2391C61.9007 39.1727 62.5437 38.9399 63.1 38.5622C63.3451 38.4052 63.4926 38.1358 63.4926 37.8448V36.9378C62.4368 37.6417 61.5433 37.6011 61.5433 37.6011C59.4858 37.6011 59.5264 34.9885 59.5264 34.9885V25.4316H69.002L62.1796 32.3083C62.166 33.2152 62.1525 33.9191 62.1525 33.9327C62.1498 33.953 62.1647 33.9706 62.185 33.9733C62.1877 33.9733 62.1904 33.9733 62.1931 33.9733C68.447 35.0291 70.1391 39.0766 70.1391 40.2543C70.1391 40.2543 70.816 45.9803 65.0899 46.3729C65.0899 46.3729 61.3403 46.5353 60.677 45.0328C60.6526 44.984 60.6743 44.9245 60.723 44.9015C60.7257 44.9001 60.7284 44.8987 60.7311 44.8974C61.3687 44.6307 61.7816 44.0053 61.7735 43.3136C61.7735 42.2036 61.0966 41.2966 59.6753 41.2966C58.5246 41.2966 57.5771 42.2036 57.5771 43.3136C57.5771 43.3136 57.0356 48.1327 65.0764 47.9973C74.2543 47.8349 73.6857 40.1325 73.6857 40.1325Z" fill="#0E61FF"/>
</g>
<defs>
<clipPath id="clip0_1_255">
<rect width="86.5671" height="30" fill="white" transform="translate(52.2166 18)"/>
</clipPath>
</defs>
</svg>
