<svg width="190" height="66" viewBox="0 0 190 66" fill="none" xmlns="http://www.w3.org/2000/svg">
<path d="M0 10C0 4.47715 4.47715 0 10 0H180C185.523 0 190 4.47715 190 10V56C190 61.5229 185.523 66 180 66H10C4.47715 66 0 61.5228 0 56V10Z" fill="white"/>
<path d="M72.7461 18.8525C68.9756 15.0656 63.9592 13 58.615 13C47.5986 13 38.6313 21.9672 38.6313 33C38.6313 44.0328 47.5986 53 58.615 53C63.9592 53 68.9756 50.918 72.7461 47.1311C76.5166 43.3443 78.5986 38.3279 78.5986 32.9836C78.5986 27.6393 76.5166 22.6393 72.7461 18.8525ZM58.615 51.623C48.3527 51.623 40.0084 43.2623 40.0084 33C40.0084 22.7377 48.3527 14.377 58.615 14.377C68.8772 14.377 77.2215 22.7377 77.2215 33C77.2215 43.2623 68.8772 51.623 58.615 51.623Z" fill="#1D1D1B"/>
<path d="M65.1722 33.4754C63.8935 32.3278 62.2213 31.5738 60.5984 30.8197H60.582C57.7131 29.5082 55.2377 28.377 55.4181 25.7049C55.5 24.6885 56.2377 24.0656 56.8443 23.7377C57.5328 23.3606 58.4345 23.1311 59.2705 23.1311C59.3689 23.1311 59.4672 23.1311 59.5656 23.1311C62.0082 23.2951 63.9427 24.3278 65.8279 26.4754L65.9427 26.6065L66.0738 26.4918L66.8115 25.8524L66.9427 25.7377L66.8279 25.6065C64.7295 23.1967 62.4509 21.9836 59.664 21.8033C59.5492 21.7869 59.4181 21.7869 59.2705 21.7869C59.1886 21.7869 59.0902 21.7869 58.9918 21.7869H58.8771C57.041 21.7869 55.041 22.3934 53.5164 23.3934C51.6968 24.5901 50.6804 26.2459 50.6476 28.0656C50.582 32.459 54.1558 33.9344 57.3361 35.2459L57.3689 35.2623C60.1722 36.4262 62.582 37.4262 62.5328 40.0983C62.5164 41.8688 59.9754 42.836 58.2377 42.836H58.1722H58.0082C55.4181 42.7541 53.1066 41.6393 51.1394 39.5246L51.0246 39.3934L50.8935 39.5082L50.1722 40.1803L50.041 40.2951L50.1558 40.4262C52.4017 42.836 55.1558 44.1311 58.1558 44.1639H58.2869C60.2213 44.1639 62.3197 43.6393 63.9099 42.7705C65.8935 41.6885 67.0574 40.0983 67.1722 38.3278C67.3033 36.3934 66.6476 34.7869 65.1722 33.4754ZM55.8935 29.6557C57.041 30.6393 58.582 31.3278 60.0738 32L60.1066 32.0164C61.6804 32.7377 63.1886 33.4262 64.2705 34.3934C65.4672 35.4426 65.9754 36.6721 65.8771 38.2459C65.7787 39.8033 64.6148 40.836 63.5656 41.4754C63.7623 41.0656 63.8771 40.6065 63.8935 40.1311C63.9099 38.5082 63.3033 37.2295 61.9918 36.1803C60.8443 35.2623 59.3361 34.6393 57.8771 34.0328C54.8279 32.7869 51.959 31.5901 52.0082 28.0983C52.0246 26.7541 52.8279 25.4754 54.2869 24.5246C54.3361 24.4918 54.3853 24.459 54.4345 24.4262C54.2705 24.8033 54.1722 25.1967 54.1394 25.6065C54.0082 27.2131 54.582 28.541 55.8935 29.6557Z" fill="#1D1D1B"/>
<path d="M91.1229 30.8033C90.4016 30.8033 89.6803 30.6885 88.9754 30.459C88.2868 30.2295 87.6803 29.8852 87.1885 29.459L88.0245 28.0656C88.5491 28.4426 89.0737 28.7213 89.5819 28.918C90.0901 29.0983 90.5819 29.2131 91.0901 29.2131C91.5327 29.2131 91.877 29.1311 92.1393 28.9672C92.4016 28.8033 92.5163 28.5737 92.5163 28.2459C92.5163 27.9344 92.3688 27.7049 92.0737 27.5737C91.7786 27.4426 91.2868 27.2623 90.6147 27.0656C90.0409 26.9016 89.5655 26.7541 89.1721 26.6229C88.7786 26.4754 88.4508 26.3115 88.2049 26.1311C87.959 25.9508 87.7786 25.7377 87.6803 25.5082C87.5655 25.2623 87.5163 24.9836 87.5163 24.6557C87.5163 24.2131 87.5983 23.8197 87.7786 23.459C87.9426 23.1147 88.1885 22.8033 88.5 22.5574C88.8114 22.3115 89.1721 22.1147 89.5819 21.9836C89.9918 21.8524 90.4508 21.7869 90.9426 21.7869C91.5983 21.7869 92.2049 21.8688 92.7786 22.0656C93.3524 22.2459 93.877 22.5574 94.336 22.9836L93.4016 24.3115C92.959 23.9836 92.5327 23.7377 92.1229 23.5901C91.6967 23.4262 91.2868 23.3606 90.8934 23.3606C90.5163 23.3606 90.2049 23.4426 89.9426 23.5901C89.6803 23.7541 89.5655 24 89.5655 24.3442C89.5655 24.5082 89.5983 24.6229 89.6475 24.7213C89.7131 24.8197 89.8114 24.9016 89.9426 24.9836C90.0737 25.0656 90.2541 25.1311 90.4672 25.1967C90.6803 25.2623 90.959 25.3442 91.2704 25.4098C91.8606 25.5737 92.3852 25.7213 92.8114 25.8852C93.2377 26.0492 93.5819 26.2131 93.8606 26.4098C94.1229 26.6065 94.336 26.836 94.4508 27.0983C94.5819 27.3606 94.6311 27.6721 94.6311 28.0328C94.6311 28.8852 94.3032 29.5574 93.6803 30.0492C93.0573 30.5737 92.2049 30.8033 91.1229 30.8033Z" fill="#1D1D1B"/>
<path d="M105.369 26.8854H98.4179C98.5327 27.5411 98.8605 28.0493 99.3687 28.4428C99.8933 28.8198 100.533 29.0166 101.287 29.0166C102.27 29.0166 103.057 28.6887 103.68 28.0493L104.795 29.328C104.402 29.8034 103.893 30.1641 103.287 30.41C102.68 30.6559 101.992 30.7706 101.238 30.7706C100.254 30.7706 99.4015 30.5903 98.6638 30.1969C97.9261 29.8034 97.3523 29.2625 96.9425 28.5739C96.5327 27.8854 96.3359 27.0985 96.3359 26.2297C96.3359 25.3608 96.5327 24.5903 96.9261 23.9018C97.3195 23.2133 97.8605 22.6723 98.5654 22.2788C99.254 21.8854 100.057 21.7051 100.91 21.7051C101.779 21.7051 102.549 21.8854 103.221 22.2788C103.893 22.6559 104.418 23.1969 104.811 23.8854C105.188 24.5739 105.385 25.3772 105.385 26.2788C105.402 26.41 105.385 26.6067 105.369 26.8854ZM99.2376 23.9346C98.7786 24.328 98.4999 24.8526 98.4015 25.492H103.418C103.336 24.8526 103.057 24.328 102.598 23.9346C102.139 23.5411 101.582 23.328 100.91 23.328C100.254 23.3444 99.6966 23.5411 99.2376 23.9346Z" fill="#1D1D1B"/>
<path d="M109.631 30.1805C108.91 29.7871 108.336 29.2461 107.926 28.5576C107.516 27.869 107.303 27.0822 107.303 26.2133C107.303 25.3445 107.516 24.5576 107.926 23.869C108.336 23.1805 108.91 22.6395 109.631 22.2625C110.352 21.869 111.188 21.6887 112.107 21.6887C112.975 21.6887 113.746 21.869 114.402 22.2133C115.057 22.574 115.566 23.0822 115.893 23.7379L114.303 24.6723C114.041 24.2625 113.729 23.951 113.352 23.7543C112.975 23.5412 112.549 23.4428 112.09 23.4428C111.32 23.4428 110.68 23.6887 110.172 24.1969C109.664 24.7051 109.402 25.3772 109.402 26.2133C109.402 27.0494 109.647 27.7215 110.156 28.2297C110.664 28.7379 111.303 28.9838 112.09 28.9838C112.533 28.9838 112.959 28.8854 113.352 28.6723C113.729 28.4592 114.041 28.1641 114.303 27.7543L115.893 28.6887C115.549 29.3609 115.041 29.869 114.385 30.2297C113.729 30.5904 112.975 30.7707 112.107 30.7707C111.172 30.7543 110.369 30.574 109.631 30.1805Z" fill="#1D1D1B"/>
<path d="M123.45 21.6887V23.6559C123.27 23.6231 123.106 23.6068 122.975 23.6068C122.172 23.6068 121.532 23.8527 121.09 24.3117C120.631 24.7871 120.418 25.4592 120.418 26.3445V30.6395H118.319V21.7707H120.287V23.0658C120.893 22.1477 121.942 21.6887 123.45 21.6887Z" fill="#1D1D1B"/>
<path d="M133.926 26.8854H126.976C127.09 27.5411 127.418 28.0493 127.926 28.4428C128.451 28.8198 129.09 29.0166 129.844 29.0166C130.828 29.0166 131.615 28.6887 132.238 28.0493L133.353 29.328C132.959 29.8034 132.451 30.1641 131.844 30.41C131.238 30.6559 130.549 30.7706 129.795 30.7706C128.812 30.7706 127.959 30.5903 127.221 30.1969C126.484 29.8034 125.91 29.2625 125.5 28.5739C125.09 27.8854 124.894 27.0985 124.894 26.2297C124.894 25.3608 125.09 24.5903 125.484 23.9018C125.877 23.2133 126.418 22.6723 127.123 22.2788C127.812 21.8854 128.615 21.7051 129.467 21.7051C130.336 21.7051 131.107 21.8854 131.779 22.2788C132.451 22.6559 132.976 23.1969 133.369 23.8854C133.746 24.5739 133.943 25.3772 133.943 26.2788C133.976 26.41 133.959 26.6067 133.926 26.8854ZM127.812 23.9346C127.353 24.328 127.074 24.8526 126.976 25.492H131.992C131.91 24.8526 131.631 24.328 131.172 23.9346C130.713 23.5411 130.156 23.328 129.484 23.328C128.828 23.3444 128.271 23.5411 127.812 23.9346Z" fill="#1D1D1B"/>
<path d="M141.926 30.1641C141.68 30.3608 141.385 30.5083 141.041 30.6067C140.697 30.705 140.32 30.7542 139.926 30.7542C138.943 30.7542 138.205 30.4919 137.68 29.9837C137.156 29.4755 136.877 28.7378 136.877 27.7542V23.4919H135.418V21.8526H136.877V19.8362H138.943V21.8526H141.32V23.5083H138.943V27.7214C138.943 28.1477 139.057 28.4755 139.27 28.705C139.484 28.9345 139.795 29.0493 140.188 29.0493C140.664 29.0493 141.041 28.9345 141.352 28.6886L141.926 30.1641Z" fill="#1D1D1B"/>
<path d="M94.5001 36.377C95.1559 37.0163 95.4674 37.9344 95.4674 39.1639V44.2295H94.287V39.2786C94.287 38.377 94.0575 37.6885 93.6149 37.1967C93.1559 36.7213 92.5165 36.4754 91.6641 36.4754C90.7297 36.4754 89.9756 36.754 89.4346 37.3114C88.8936 37.8688 88.6149 38.6393 88.6149 39.6229V44.1967H87.4346V35.4754H88.5657V37.0819C88.8936 36.5573 89.3362 36.1311 89.91 35.8524C90.4838 35.5573 91.1395 35.4098 91.8936 35.4098C92.9756 35.4262 93.8444 35.7377 94.5001 36.377Z" fill="#1D1D1B"/>
<path d="M106.172 40.2131H98.8768C98.9424 41.1147 99.3031 41.8524 99.926 42.4098C100.549 42.9672 101.352 43.2459 102.319 43.2459C102.86 43.2459 103.352 43.1475 103.811 42.9508C104.254 42.7705 104.664 42.4754 104.992 42.0983L105.664 42.8688C105.27 43.3443 104.795 43.6885 104.205 43.9344C103.631 44.1803 102.992 44.2951 102.287 44.2951C101.385 44.2951 100.598 44.1147 99.9096 43.7213C99.2211 43.3443 98.6801 42.8197 98.2867 42.1311C97.8932 41.459 97.7129 40.6885 97.7129 39.8361C97.7129 38.9836 97.8932 38.2131 98.2703 37.541C98.6309 36.8688 99.1391 36.3443 99.7949 35.9672C100.451 35.5902 101.172 35.3934 101.975 35.3934C102.778 35.3934 103.516 35.5738 104.156 35.9672C104.795 36.3443 105.303 36.8688 105.664 37.5246C106.024 38.1967 106.205 38.9672 106.205 39.8197L106.172 40.2131ZM99.844 37.2459C99.2703 37.7869 98.9424 38.4754 98.8768 39.3443H105.074C104.992 38.4754 104.68 37.7869 104.106 37.2459C103.533 36.7049 102.828 36.4426 101.975 36.4426C101.106 36.4262 100.401 36.7049 99.844 37.2459Z" fill="#1D1D1B"/>
<path d="M112.795 43.6884C112.582 43.8852 112.287 44.0327 111.975 44.1475C111.648 44.2622 111.303 44.3114 110.959 44.3114C110.139 44.3114 109.516 44.0983 109.074 43.6393C108.631 43.1966 108.402 42.5737 108.402 41.7704V36.4917H106.844V35.4917H108.402V33.5901H109.582V35.4917H112.238V36.4917H109.582V41.7048C109.582 42.2294 109.713 42.6229 109.975 42.8852C110.238 43.1475 110.615 43.295 111.09 43.295C111.336 43.295 111.566 43.2622 111.795 43.1803C112.025 43.0983 112.221 42.9999 112.385 42.8524L112.795 43.6884Z" fill="#1D1D1B"/>
<path d="M125.057 35.5574H126.467L122.795 44.2295H121.598L119.86 40L118.139 44.2295H116.942L113.254 35.5574H114.647L117.631 42.7705L119.09 39.1639L117.598 35.5574H118.795L119.86 38.3279L120.926 35.5574H122.123L120.631 39.1639L122.09 42.7705L125.057 35.5574Z" fill="#1D1D1B"/>
<path d="M131.189 44.3443C130.566 44.3443 129.992 44.2295 129.467 43.9836C128.943 43.7377 128.5 43.4262 128.107 43.0164C127.73 42.6065 127.435 42.1311 127.221 41.5902C127.008 41.0492 126.894 40.4754 126.894 39.8852C126.894 39.2787 127.008 38.7049 127.221 38.1639C127.435 37.6229 127.746 37.1475 128.123 36.7377C128.5 36.3279 128.959 36 129.484 35.7541C130.008 35.5082 130.566 35.3934 131.189 35.3934C131.812 35.3934 132.385 35.5082 132.894 35.7541C133.418 36 133.877 36.3279 134.254 36.7377C134.631 37.1475 134.926 37.6229 135.156 38.1639C135.369 38.7049 135.484 39.2787 135.484 39.8852C135.484 40.4918 135.369 41.0492 135.156 41.5902C134.943 42.1311 134.648 42.6065 134.271 43.0164C133.894 43.4262 133.435 43.7541 132.91 43.9836C132.385 44.2131 131.812 44.3443 131.189 44.3443ZM128.041 39.8852C128.041 40.377 128.123 40.8197 128.287 41.2459C128.451 41.6721 128.68 42.0164 128.959 42.3443C129.238 42.6721 129.582 42.9016 129.959 43.082C130.336 43.2623 130.746 43.3443 131.172 43.3443C131.598 43.3443 132.008 43.2623 132.385 43.082C132.762 42.9016 133.107 42.6557 133.385 42.3279C133.68 42 133.91 41.6557 134.057 41.2131C134.221 40.7869 134.303 40.3442 134.303 39.8524C134.303 39.377 134.221 38.918 134.057 38.4918C133.894 38.0656 133.664 37.6885 133.385 37.377C133.09 37.0492 132.762 36.8033 132.385 36.6229C132.008 36.4426 131.598 36.3606 131.172 36.3606C130.746 36.3606 130.336 36.4426 129.976 36.6229C129.598 36.8033 129.271 37.0656 128.976 37.377C128.68 37.7049 128.451 38.082 128.303 38.4918C128.139 38.9508 128.041 39.4098 128.041 39.8852Z" fill="#1D1D1B"/>
<path d="M141.68 36.5737C140.91 36.5901 140.254 36.8032 139.68 37.1967C139.107 37.5901 138.713 38.1475 138.484 38.836V44.2131H137.353V35.5737H138.418V37.6557C138.746 36.9836 139.172 36.4754 139.713 36.0983C140.254 35.7213 140.844 35.5245 141.451 35.5245C141.533 35.5245 141.615 35.5409 141.664 35.5409L141.68 36.5737Z" fill="#1D1D1B"/>
<path d="M150.139 44.2295L146.959 39.8033L145.09 41.5246V44.2295H143.959V32.1147H145.09V40.3443L149.943 35.6065H151.221L147.697 39.1311L151.369 44.2295H150.139Z" fill="#1D1D1B"/>
</svg>
