<svg width="190" height="66" viewBox="0 0 190 66" fill="none" xmlns="http://www.w3.org/2000/svg">
<rect width="190" height="66" rx="10" fill="white"/>
<path d="M33.0153 37.214C33.1402 37.0891 33.3096 37.019 33.4862 37.019H49.7806C50.0774 37.019 50.226 37.3779 50.016 37.5878L46.7963 40.8049C46.6714 40.9298 46.502 40.9999 46.3254 40.9999H30.031C29.7342 40.9999 29.5856 40.6409 29.7956 40.4311L33.0153 37.214Z" fill="url(#paint0_linear_1_189)"/>
<path d="M33.0153 25.1949C33.1402 25.0701 33.3096 25 33.4862 25H49.7806C50.0774 25 50.226 25.3589 50.016 25.5688L46.7963 28.7859C46.6714 28.9107 46.502 28.9808 46.3254 28.9808H30.031C29.7342 28.9808 29.5856 28.6219 29.7956 28.4121L33.0153 25.1949Z" fill="url(#paint1_linear_1_189)"/>
<path d="M46.7963 31.1664C46.6714 31.0416 46.502 30.9714 46.3254 30.9714H30.031C29.7342 30.9714 29.5856 31.3304 29.7956 31.5402L33.0153 34.7574C33.1402 34.8822 33.3096 34.9523 33.4862 34.9523H49.7806C50.0774 34.9523 50.226 34.5933 50.016 34.3835L46.7963 31.1664Z" fill="url(#paint2_linear_1_189)"/>
<path d="M60.6404 34.5741H66.3182C67.1158 34.5741 67.7621 35.2295 67.7621 36.0382C67.7621 36.8466 67.1158 37.502 66.3182 37.502H59.4698C59.3629 37.502 59.2597 37.5407 59.1784 37.6113L57.1106 39.4047C56.7941 39.6791 56.9856 40.2047 57.4022 40.2047H65.9753C65.9787 40.2047 65.9815 40.2019 65.9815 40.1985C65.9815 40.1945 65.9847 40.1917 65.9886 40.1919C66.0963 40.2005 66.2055 40.2047 66.3155 40.2047C68.5896 40.2047 70.4332 38.3394 70.4332 36.0382C70.4332 33.853 68.7707 32.0606 66.6558 31.8855C66.6522 31.8852 66.6493 31.8821 66.6493 31.8784C66.6493 31.8745 66.6462 31.8714 66.6425 31.8714H60.5257C59.7283 31.8714 59.0817 31.2162 59.0817 30.4075C59.0817 29.5989 59.7283 28.9437 60.5257 28.9437H67.3646C67.4773 28.9437 67.5857 28.9005 67.6683 28.8232L69.5885 27.0297C69.8888 26.7493 69.6931 26.241 69.2846 26.241H60.6404C60.6402 26.241 60.6397 26.2412 60.6397 26.2415C60.6397 26.242 60.6394 26.2423 60.6389 26.2423C60.6023 26.2412 60.5654 26.241 60.5283 26.241C58.2543 26.241 56.4106 28.1063 56.4106 30.4075C56.4106 32.7088 58.2543 34.5741 60.5283 34.5741C60.5654 34.5741 60.6023 34.5738 60.6389 34.5728C60.6394 34.5728 60.6397 34.573 60.6397 34.5735C60.6397 34.5738 60.6402 34.5741 60.6404 34.5741Z" fill="black"/>
<path d="M93.7098 26.241C93.4615 26.241 93.2603 26.4443 93.2603 26.6955V39.7502C93.2603 40.0014 93.4615 40.2047 93.7098 40.2047H104.106C104.23 40.2047 104.349 40.1527 104.434 40.0612L105.735 38.657C106.005 38.3666 105.801 37.8915 105.408 37.8915H96.3302C96.0819 37.8915 95.8806 37.6879 95.8806 37.4367V26.6955C95.8806 26.4443 95.6794 26.241 95.4313 26.241H93.7098Z" fill="black"/>
<path fill-rule="evenodd" clip-rule="evenodd" d="M77.0577 26.241C77.0569 26.241 77.0564 26.2415 77.0564 26.242C77.0564 26.2428 77.0558 26.2433 77.0553 26.2433C75.7263 26.3013 74.6595 27.3771 74.602 28.7171C74.602 28.7178 74.6014 28.7184 74.6007 28.7184C74.6004 28.7184 74.6001 28.7186 74.5999 28.7186C74.5996 28.7189 74.5996 28.7191 74.5996 28.7197V37.501C74.5996 37.5015 74.6001 37.502 74.6007 37.502C74.6014 37.502 74.602 37.5026 74.602 37.5033C74.6004 37.5402 74.5996 37.5773 74.5996 37.6147C74.5996 39.0072 75.6889 40.1428 77.0553 40.2024C77.0558 40.2024 77.0564 40.2029 77.0564 40.2037L77.0566 40.2042L77.0569 40.2045C77.0571 40.2047 77.0574 40.2047 77.0577 40.2047H86.4913C86.4919 40.2047 86.4926 40.2042 86.4926 40.2037V40.2029L86.4932 40.2024H86.4937C87.8598 40.1428 88.9494 39.0072 88.9494 37.6147C88.9494 37.5773 88.9486 37.5402 88.947 37.5033C88.947 37.5026 88.9476 37.502 88.9483 37.502C88.9489 37.502 88.9494 37.5015 88.9494 37.501V28.7197C88.9494 28.7189 88.9489 28.7184 88.9481 28.7184C88.9476 28.7184 88.947 28.7178 88.947 28.7171C88.8895 27.3771 87.8224 26.3013 86.4937 26.2433C86.4932 26.2433 86.4926 26.2428 86.4926 26.242C86.4926 26.2415 86.4919 26.241 86.4913 26.241H77.0577ZM78.8161 28.7184L78.8155 28.7186L78.8153 28.7192C78.8153 28.7194 78.815 28.7199 78.8145 28.7199C77.9842 28.7563 77.3172 29.4332 77.2814 30.276C77.2814 30.2763 77.2809 30.2768 77.2806 30.2768C77.2801 30.2768 77.2798 30.2771 77.2798 30.2776V35.8014C77.2798 35.8017 77.2801 35.8019 77.2806 35.8019C77.2809 35.8019 77.2811 35.8024 77.2811 35.8027C77.2803 35.826 77.2798 35.8495 77.2798 35.8727C77.2798 36.7488 77.9607 37.4631 78.8145 37.5005C78.815 37.5005 78.8153 37.501 78.8153 37.5013L78.8155 37.5018L78.8158 37.502H78.8161H84.7329H84.7332L84.7334 37.5018L84.7337 37.5013C84.7337 37.501 84.734 37.5005 84.7342 37.5005C85.5883 37.4631 86.2692 36.7488 86.2692 35.8727C86.2692 35.8495 86.2687 35.826 86.2676 35.8027L86.2679 35.8024L86.2684 35.8019C86.2689 35.8019 86.2692 35.8017 86.2692 35.8014V30.2776C86.2692 30.2771 86.2689 30.2768 86.2684 30.2768C86.2681 30.2768 86.2676 30.2763 86.2676 30.276C86.2318 29.4332 85.5648 28.7563 84.7342 28.7199C84.734 28.7199 84.7337 28.7194 84.7337 28.7192L84.7334 28.7186L84.7332 28.7184H84.7329H78.8161Z" fill="black"/>
<path fill-rule="evenodd" clip-rule="evenodd" d="M120.853 39.7502C120.853 40.0014 121.053 40.2047 121.299 40.2047H123.062C123.308 40.2047 123.508 40.0014 123.508 39.7502V28.9447C123.508 28.9442 123.508 28.9437 123.507 28.9437L123.506 28.9434L123.506 28.9431C123.506 28.9431 123.506 28.9426 123.506 28.9423C123.507 28.9055 123.508 28.8684 123.508 28.831C123.508 27.4385 122.429 26.3029 121.076 26.2433C121.075 26.2433 121.075 26.2428 121.075 26.242C121.075 26.2415 121.074 26.241 121.073 26.241H112.017C112.016 26.241 112.015 26.2415 112.015 26.242C112.015 26.2428 112.015 26.2433 112.014 26.2433C111.978 26.2418 111.941 26.241 111.905 26.241C110.5 26.241 109.361 27.4006 109.361 28.831C109.361 28.8684 109.362 28.9055 109.363 28.9423C109.363 28.9429 109.363 28.9437 109.362 28.9437C109.361 28.9437 109.361 28.9442 109.361 28.9447V39.7502C109.361 40.0014 109.56 40.2047 109.806 40.2047H111.57C111.816 40.2047 112.015 40.0014 112.015 39.7502V35.2541C112.015 35.0029 112.215 34.7993 112.461 34.7993H120.408C120.654 34.7993 120.853 35.0029 120.853 35.2541V39.7502ZM112.015 32.3178V30.0696C112.015 29.199 112.709 28.4931 113.564 28.4931H119.305C120.16 28.4931 120.853 29.199 120.853 30.0696V32.3178C120.853 32.5689 120.654 32.7723 120.408 32.7723H112.461C112.215 32.7723 112.015 32.5689 112.015 32.3178Z" fill="black"/>
<path fill-rule="evenodd" clip-rule="evenodd" d="M158.072 40.2047C157.824 40.2047 157.622 40.0014 157.622 39.7502V35.2541C157.622 35.0029 157.421 34.7993 157.172 34.7993H149.138C148.89 34.7993 148.688 35.0029 148.688 35.2541V39.7502C148.688 40.0014 148.487 40.2047 148.238 40.2047H146.458C146.209 40.2047 146.008 40.0014 146.008 39.7502V28.9447V28.9444L146.008 28.9439C146.008 28.9437 146.009 28.9437 146.009 28.9437C146.01 28.9437 146.01 28.9429 146.01 28.9423C146.009 28.9055 146.008 28.8684 146.008 28.831C146.008 27.4006 147.158 26.241 148.576 26.241C148.614 26.241 148.65 26.2418 148.687 26.2433C148.688 26.2433 148.688 26.2428 148.688 26.242C148.688 26.2415 148.689 26.241 148.689 26.241H157.844C157.845 26.241 157.846 26.2415 157.846 26.242C157.846 26.2428 157.846 26.2433 157.847 26.2433C159.213 26.3029 160.302 27.4385 160.302 28.831C160.302 28.8684 160.302 28.9055 160.3 28.9423C160.3 28.9429 160.301 28.9437 160.301 28.9437C160.302 28.9437 160.302 28.9437 160.302 28.9439C160.302 28.9442 160.302 28.9444 160.302 28.9447V39.7502C160.302 40.0014 160.101 40.2047 159.853 40.2047H158.072ZM148.688 30.0696V32.3178C148.688 32.5689 148.89 32.7723 149.138 32.7723H157.172C157.421 32.7723 157.622 32.5689 157.622 32.3178V30.0696C157.622 29.199 156.922 28.4931 156.059 28.4931H150.252C149.388 28.4931 148.688 29.199 148.688 30.0696Z" fill="black"/>
<path d="M130.145 26.241C130.275 26.241 130.399 26.2992 130.484 26.4004L138.392 35.8861C138.661 36.2075 139.177 36.0136 139.177 35.591V26.6955C139.177 26.4443 139.376 26.241 139.622 26.241H141.386C141.632 26.241 141.831 26.4443 141.831 26.6955V39.7502C141.831 40.0014 141.632 40.2047 141.386 40.2047H139.193C139.184 40.2047 139.177 40.1971 139.177 40.1877C139.177 40.1838 139.175 40.1796 139.173 40.1768L131.132 30.7575C130.861 30.441 130.35 30.6365 130.35 31.0565V39.7502C130.35 40.0014 130.151 40.2047 129.905 40.2047H128.13C127.884 40.2047 127.685 40.0014 127.685 39.7502V26.6955C127.685 26.4443 127.884 26.241 128.13 26.241H130.145Z" fill="black"/>
<defs>
<linearGradient id="paint0_linear_1_189" x1="43.5004" y1="20.611" x2="32.2233" y2="42.2112" gradientUnits="userSpaceOnUse">
<stop stop-color="#00FFA3"/>
<stop offset="1" stop-color="#DC1FFF"/>
</linearGradient>
<linearGradient id="paint1_linear_1_189" x1="43.5004" y1="20.6111" x2="32.2233" y2="42.2113" gradientUnits="userSpaceOnUse">
<stop stop-color="#00FFA3"/>
<stop offset="1" stop-color="#DC1FFF"/>
</linearGradient>
<linearGradient id="paint2_linear_1_189" x1="43.5004" y1="20.6113" x2="32.2233" y2="42.2114" gradientUnits="userSpaceOnUse">
<stop stop-color="#00FFA3"/>
<stop offset="1" stop-color="#DC1FFF"/>
</linearGradient>
</defs>
</svg>
