<svg width="125" height="33" viewBox="0 0 125 33" fill="none" xmlns="http://www.w3.org/2000/svg">
<path fill-rule="evenodd" clip-rule="evenodd" d="M54.2552 5.56246C52.7081 5.50218 51.4222 6.62736 51.3619 8.07402C51.3619 8.07402 51.3619 8.07402 51.3619 8.09411V10.6258H57.5705V14.8854H51.3619V30.9995H45.7762V14.8854H42.0591V10.6057H45.7762V7.69226C45.7762 3.61349 49.4933 0.901 53.6323 0.901C55.521 0.860815 57.3696 1.48368 58.8162 2.64905L56.7467 6.32597C56.0033 5.88393 55.1393 5.62273 54.2552 5.56246Z" fill="white"/>
<path fill-rule="evenodd" clip-rule="evenodd" d="M81.6011 10.2241V30.7184H77.3013L76.4775 28.3676H75.8748C75.051 29.3522 73.2025 30.8993 69.5255 30.8993C63.7791 30.8993 60.926 27.0013 60.926 21.3353V10.2241H66.8733V19.9891C66.8733 22.5207 67.0743 26.0369 70.7713 26.0369C72.6198 26.0369 75.6939 25.0524 75.6939 19.7881V10.2241H81.6011Z" fill="white"/>
<path fill-rule="evenodd" clip-rule="evenodd" d="M92.7522 14.5641C90.8836 14.5641 90.0397 15.3477 90.0397 16.3322C90.0397 17.7186 91.9083 18.1004 93.3751 18.5022C97.3333 19.2858 101.292 20.4713 101.292 24.8113C101.292 29.1512 97.5543 31.5222 92.9733 31.5222C87.9702 31.5222 84.0321 28.5686 83.8111 24.2286H89.216C89.4169 26.0168 91.0846 27.3228 92.9532 27.1822C95.2437 27.1822 95.6656 25.9967 95.6656 25.2131C95.6656 23.6258 94.219 23.2441 92.5513 22.8422C90.0598 22.2595 84.4339 21.2549 84.4339 16.5332C84.4339 12.3941 88.5931 10.425 92.7522 10.425C97.7553 10.425 100.87 13.1777 101.071 16.7341H95.6656C95.6656 15.7496 95.0428 14.5641 92.7522 14.5641Z" fill="white"/>
<path fill-rule="evenodd" clip-rule="evenodd" d="M124.92 22.018H109.067C109.69 25.1123 112.362 26.2777 114.834 26.2777C116.421 26.358 117.948 25.695 118.953 24.5296H124.518C122.991 28.4075 119.033 30.9592 114.633 30.919C108.585 30.8989 103.703 26.2777 103.703 20.6116C103.703 20.5111 103.703 20.3906 103.703 20.2901C103.502 14.8249 108.063 10.2238 113.89 10.0429C114.07 10.0429 114.251 10.0429 114.412 10.0429C119.978 10.0228 125.744 13.6998 124.92 22.018ZM109.469 17.9594H119.154C118.712 15.9501 116.803 14.5637 114.613 14.6642C112.302 14.5236 110.193 15.8898 109.469 17.9594Z" fill="white"/>
<path fill-rule="evenodd" clip-rule="evenodd" d="M16.561 26.6402C15.3916 26.6402 14.3051 26.4081 13.418 25.969L3.86726 21.2415L1.00535 22.8697C-0.354997 23.6433 -0.331235 24.8294 1.05837 25.5173L14.268 32.0564C14.9096 32.3737 15.7298 32.5299 16.561 32.5299C17.5316 32.5299 18.5163 32.3172 19.2492 31.9005L32.1811 24.5431C33.5414 23.7691 33.5177 22.583 32.128 21.8955L29.3818 20.5355L20.1938 25.7632C19.1994 26.3284 17.9095 26.6402 16.561 26.6402Z" fill="#B3F9BA"/>
<path fill-rule="evenodd" clip-rule="evenodd" d="M32.2126 14.0663L29.9196 12.9144L24.5797 15.9969L23.6629 16.526L22.7466 17.0551L20.2469 18.4981C19.25 19.0741 17.9561 19.3907 16.6045 19.3907C15.4321 19.3907 14.3426 19.1547 13.4533 18.7084L10.5893 17.2697L9.64138 16.794L8.69345 16.3179L3.41635 13.6669L1.00781 15.0574C-0.356137 15.8449 -0.332771 17.0511 1.06049 17.751L3.8145 19.1341L4.76243 19.6101L5.70991 20.0862L14.3054 24.4033C14.9483 24.7261 15.7711 24.8847 16.6045 24.8847C17.5772 24.8847 18.565 24.6688 19.2994 24.2447L27.5633 19.4744L28.48 18.9453L29.3963 18.4163L32.2658 16.7599C33.6298 15.9728 33.6059 14.7662 32.2126 14.0663Z" fill="#B1FFBF"/>
<path fill-rule="evenodd" clip-rule="evenodd" d="M32.2126 7.00965L18.9677 0.473393C18.3249 0.155789 17.5025 0 16.6686 0C15.696 0 14.7082 0.212596 13.9738 0.629182L1.00781 7.98398C-0.356137 8.75734 -0.332771 9.94253 1.06049 10.6302L3.35359 11.7621L4.30152 12.2299L5.24945 12.6977L10.5265 15.3022L11.4745 15.7695L12.4224 16.2378L14.3054 17.1674C14.9483 17.4845 15.7711 17.6403 16.6045 17.6403C17.5772 17.6403 18.565 17.4278 19.2994 17.0111L20.8508 16.1311L21.7675 15.6112L22.6838 15.0914L28.0236 12.0625L28.9405 11.5426L29.8568 11.0227L32.2658 9.65635C33.6298 8.883 33.6059 7.69736 32.2126 7.00965Z" fill="url(#paint0_linear_2674_1919)"/>
<defs>
<linearGradient id="paint0_linear_2674_1919" x1="16.6367" y1="0" x2="16.6367" y2="31.8943" gradientUnits="userSpaceOnUse">
<stop stop-color="#B3F9BA"/>
<stop offset="1" stop-color="#F6FB8C"/>
</linearGradient>
</defs>
</svg>
