<svg width="297" height="29" viewBox="0 0 297 29" fill="none" xmlns="http://www.w3.org/2000/svg">
<path d="M40.4916 0.74147C40.3928 0.865048 31.1738 13.8161 30.4077 14.8294L29.7403 15.7439C28.208 17.8941 26.7497 19.9208 23.7591 19.9208C20.8427 19.9208 18.3711 17.4987 18.297 14.5328C18.2475 13.124 18.8407 11.6905 19.9035 10.6277C20.9416 9.56496 22.3503 8.97179 23.7591 8.99651C25.0444 9.02122 27.3923 9.46611 28.7764 12.1848L29.0236 12.7039L34.634 4.84427C32.1625 2.49628 27.6889 0 23.7591 0C15.8007 0 9.3252 6.4755 9.3252 14.4587C9.3252 22.4418 15.8007 28.9173 23.7591 28.9173C32.3108 28.9173 39.0334 22.9856 43.3587 18.5368C46.7447 15.0271 56.3838 3.90508 56.3838 3.90508C57.2241 2.86702 57.0017 2.02669 56.8781 1.70538C56.631 1.11221 56.0378 0.766186 55.3458 0.74147H55.321H40.4916Z" fill="#FFDC00"/>
<path d="M14.0952 0.716835L2.08341 0.692117C2.08341 0.692117 0.748761 0.617973 0.229732 1.53245C0.229732 1.53245 -0.388157 2.49636 0.402744 3.80629L6.95239 15.3238C6.97711 15.3238 6.06263 6.37672 14.0952 0.716835Z" fill="#FFDC00"/>
<path d="M14.0952 0.716835L2.08341 0.692117C2.08341 0.692117 0.748761 0.617973 0.229732 1.53245C0.229732 1.53245 -0.388157 2.49636 0.402744 3.80629L6.95239 15.3238C6.97711 15.3238 6.06263 6.37672 14.0952 0.716835Z" fill="#FFDC00"/>
<path fill-rule="evenodd" clip-rule="evenodd" d="M2.02287 1.99076C2.02131 1.99073 2.01924 1.99071 2.01668 1.99069C2.00259 1.9906 1.97525 1.99082 1.93825 1.99285C1.86127 1.99709 1.75918 2.00832 1.65496 2.03337C1.41398 2.09128 1.3638 2.16802 1.36032 2.17414L1.35094 2.19067C1.35007 2.19265 1.34905 2.19505 1.34789 2.19787C1.33713 2.22404 1.31806 2.27863 1.30755 2.35511C1.28947 2.48667 1.28476 2.75198 1.51563 3.13436L1.52441 3.1489L5.98967 11.001C6.06491 10.6194 6.1554 10.2213 6.26405 9.81044C6.8978 7.41377 8.15369 4.57091 10.6016 2.00965L2.04599 1.99204L2.02287 1.99076ZM14.0952 0.716835C13.5047 1.13291 12.9626 1.56674 12.4649 2.01348C8.43388 5.63157 7.31669 10.096 7.02694 12.8251C6.97899 13.2767 6.9537 13.6808 6.94161 14.0256C6.91942 14.6589 6.94175 15.0924 6.95006 15.2538C6.95109 15.2737 6.9519 15.2895 6.95239 15.301C6.953 15.3153 6.95311 15.323 6.9525 15.3237C6.95246 15.3238 6.95253 15.3237 6.9525 15.3237L0.402744 3.80629C-0.388157 2.49636 0.229732 1.53245 0.229732 1.53245C0.748761 0.617973 2.08341 0.692117 2.08341 0.692117L14.0952 0.716835Z" fill="#0E1220"/>
<path d="M40.4916 0.74147C40.3928 0.865048 31.1738 13.8161 30.4076 14.8294L29.7403 15.7439C28.208 17.8941 26.7497 19.9208 23.7591 19.9208C20.8427 19.9208 18.3711 17.4987 18.297 14.5328C18.2475 13.124 18.8407 11.6905 19.9035 10.6277C20.9416 9.56496 22.3503 8.97179 23.7591 8.99651C25.0444 9.02122 27.3923 9.46611 28.7764 12.1848L29.0236 12.7039L34.634 4.84427C32.1625 2.49628 27.6889 0 23.7591 0C15.8007 0 9.3252 6.47551 9.3252 14.4587C9.3252 22.4418 15.8007 28.9173 23.7591 28.9173C32.3108 28.9173 39.0334 22.9856 43.3587 18.5368C46.7447 15.0271 56.3838 3.90508 56.3838 3.90508C57.2241 2.86702 57.0017 2.02669 56.8781 1.70538C56.631 1.11221 56.0378 0.766186 55.3458 0.74147H55.321H40.4916ZM42.4442 17.647C35.7462 24.5427 30.0122 27.6321 23.7839 27.6321C16.5175 27.6321 10.6351 21.7251 10.6351 14.4587C10.6351 7.19226 16.5422 1.28522 23.7839 1.28522C26.9722 1.28522 30.5807 3.13889 32.9286 5.06671L29.1472 10.3559C27.3676 8.10674 25.1679 7.73601 23.8086 7.71129C22.0538 7.68658 20.2989 8.40333 19.0137 9.71326C17.7038 11.0232 16.987 12.8027 17.0365 14.5575C17.1353 18.2154 20.1754 21.206 23.7839 21.206C27.4418 21.206 29.2213 18.685 30.8031 16.4854L31.4457 15.5956C32.113 14.6811 39.3794 4.52297 41.159 2.02669H55.321C55.5188 2.02669 55.6918 2.15026 55.7165 2.37271C55.7412 2.57043 55.7412 2.71873 55.2469 3.26247C55.2716 3.26247 45.5583 14.4092 42.4442 17.647Z" fill="#0E1220"/>
<path d="M69.0314 20.4587H67.0001L72.8751 4.45874H74.8751L80.7501 20.4587H78.7189L73.9376 6.98999H73.8126L69.0314 20.4587ZM69.7814 14.2087H77.9689V15.9275H69.7814V14.2087Z" fill="#0E1220"/>
<path d="M90.5548 15.5525V8.45874H92.3986V20.4587H90.5548V18.4275H90.4298C90.1486 19.0369 89.7111 19.5551 89.1173 19.9822C88.5236 20.4041 87.7736 20.615 86.8673 20.615C86.1173 20.615 85.4506 20.4509 84.8673 20.1228C84.284 19.7895 83.8256 19.2895 83.4923 18.6228C83.159 17.9509 82.9923 17.1046 82.9923 16.0837V8.45874H84.8361V15.9587C84.8361 16.8337 85.0809 17.5317 85.5704 18.0525C86.0652 18.5733 86.6954 18.8337 87.4611 18.8337C87.9194 18.8337 88.3855 18.7166 88.8595 18.4822C89.3387 18.2478 89.7397 17.8884 90.0626 17.4041C90.3907 16.9197 90.5548 16.3025 90.5548 15.5525Z" fill="#0E1220"/>
<path d="M104.276 11.1462L102.619 11.615C102.515 11.3389 102.361 11.0707 102.158 10.8103C101.96 10.5447 101.69 10.3259 101.346 10.1541C101.002 9.98218 100.562 9.89624 100.026 9.89624C99.2911 9.89624 98.6792 10.0655 98.1896 10.4041C97.7052 10.7374 97.463 11.1619 97.463 11.6775C97.463 12.1358 97.6297 12.4978 97.963 12.7634C98.2963 13.0291 98.8172 13.2504 99.5255 13.4275L101.307 13.865C102.38 14.1254 103.179 14.5238 103.705 15.0603C104.231 15.5916 104.494 16.2764 104.494 17.115C104.494 17.8025 104.296 18.4171 103.901 18.9587C103.51 19.5004 102.963 19.9275 102.26 20.24C101.557 20.5525 100.739 20.7087 99.8068 20.7087C98.5828 20.7087 97.5698 20.4431 96.7677 19.9119C95.9656 19.3806 95.4578 18.6046 95.2443 17.5837L96.9943 17.1462C97.1609 17.7921 97.476 18.2764 97.9396 18.5994C98.4083 18.9223 99.0203 19.0837 99.7755 19.0837C100.635 19.0837 101.317 18.9014 101.822 18.5369C102.333 18.1671 102.588 17.7244 102.588 17.2087C102.588 16.7921 102.442 16.4431 102.151 16.1619C101.859 15.8754 101.411 15.6619 100.807 15.5212L98.8068 15.0525C97.7078 14.7921 96.9005 14.3884 96.3849 13.8416C95.8745 13.2895 95.6193 12.5994 95.6193 11.7712C95.6193 11.0942 95.8094 10.4952 96.1896 9.97437C96.575 9.45353 97.0984 9.04468 97.7599 8.7478C98.4266 8.45093 99.1818 8.30249 100.026 8.30249C101.213 8.30249 102.145 8.56291 102.822 9.08374C103.505 9.60457 103.989 10.2921 104.276 11.1462Z" fill="#0E1220"/>
<path d="M112.488 8.45874V10.0212H106.27V8.45874H112.488ZM108.082 5.58374H109.926V17.0212C109.926 17.5421 110.001 17.9327 110.152 18.1931C110.309 18.4483 110.507 18.6202 110.746 18.7087C110.991 18.7921 111.249 18.8337 111.52 18.8337C111.723 18.8337 111.889 18.8233 112.02 18.8025C112.15 18.7764 112.254 18.7556 112.332 18.74L112.707 20.3962C112.582 20.4431 112.408 20.49 112.184 20.5369C111.96 20.5889 111.676 20.615 111.332 20.615C110.811 20.615 110.301 20.503 109.801 20.2791C109.306 20.0551 108.895 19.7139 108.567 19.2556C108.244 18.7973 108.082 18.2192 108.082 17.5212V5.58374Z" fill="#0E1220"/>
<path d="M115.262 20.4587V8.45874H117.043V10.2712H117.168C117.387 9.67749 117.783 9.19572 118.356 8.82593C118.929 8.45614 119.574 8.27124 120.293 8.27124C120.429 8.27124 120.598 8.27384 120.801 8.27905C121.004 8.28426 121.158 8.29207 121.262 8.30249V10.1775C121.199 10.1619 121.056 10.1384 120.832 10.1072C120.613 10.0707 120.382 10.0525 120.137 10.0525C119.554 10.0525 119.033 10.1749 118.574 10.4197C118.121 10.6593 117.762 10.9926 117.496 11.4197C117.236 11.8416 117.106 12.3233 117.106 12.865V20.4587H115.262Z" fill="#0E1220"/>
<path d="M123.447 20.4587V8.45874H125.291V20.4587H123.447ZM124.385 6.45874C124.026 6.45874 123.716 6.33634 123.455 6.09155C123.2 5.84676 123.072 5.55249 123.072 5.20874C123.072 4.86499 123.2 4.57072 123.455 4.32593C123.716 4.08114 124.026 3.95874 124.385 3.95874C124.744 3.95874 125.052 4.08114 125.307 4.32593C125.567 4.57072 125.697 4.86499 125.697 5.20874C125.697 5.55249 125.567 5.84676 125.307 6.09155C125.052 6.33634 124.744 6.45874 124.385 6.45874Z" fill="#0E1220"/>
<path d="M132.199 20.74C131.439 20.74 130.749 20.5968 130.129 20.3103C129.509 20.0186 129.017 19.5994 128.652 19.0525C128.288 18.5004 128.106 17.8337 128.106 17.0525C128.106 16.365 128.241 15.8077 128.512 15.3806C128.783 14.9483 129.145 14.6098 129.598 14.365C130.051 14.1202 130.551 13.9379 131.098 13.8181C131.65 13.6931 132.205 13.5942 132.762 13.5212C133.491 13.4275 134.082 13.3572 134.535 13.3103C134.994 13.2582 135.327 13.1723 135.535 13.0525C135.749 12.9327 135.856 12.7244 135.856 12.4275V12.365C135.856 11.5942 135.645 10.9952 135.223 10.5681C134.806 10.141 134.173 9.92749 133.324 9.92749C132.444 9.92749 131.754 10.1202 131.254 10.5056C130.754 10.891 130.402 11.3025 130.199 11.74L128.449 11.115C128.762 10.3858 129.179 9.81811 129.699 9.41187C130.225 9.00041 130.798 8.71395 131.418 8.55249C132.043 8.38582 132.658 8.30249 133.262 8.30249C133.647 8.30249 134.09 8.34936 134.59 8.44311C135.095 8.53166 135.582 8.71655 136.051 8.9978C136.525 9.27905 136.918 9.70353 137.231 10.2712C137.543 10.8389 137.699 11.5994 137.699 12.5525V20.4587H135.856V18.8337H135.762C135.637 19.0942 135.429 19.3728 135.137 19.6697C134.845 19.9666 134.457 20.2192 133.973 20.4275C133.488 20.6358 132.897 20.74 132.199 20.74ZM132.481 19.0837C133.21 19.0837 133.824 18.9405 134.324 18.6541C134.83 18.3676 135.21 17.9978 135.465 17.5447C135.725 17.0916 135.856 16.615 135.856 16.115V14.4275C135.777 14.5212 135.606 14.6072 135.34 14.6853C135.08 14.7582 134.777 14.8233 134.434 14.8806C134.095 14.9327 133.764 14.9796 133.442 15.0212C133.124 15.0577 132.866 15.0889 132.668 15.115C132.189 15.1775 131.741 15.2791 131.324 15.4197C130.913 15.5551 130.58 15.7608 130.324 16.0369C130.074 16.3077 129.949 16.6775 129.949 17.1462C129.949 17.7869 130.186 18.2712 130.66 18.5994C131.139 18.9223 131.746 19.0837 132.481 19.0837Z" fill="#0E1220"/>
<path d="M142.908 13.24V20.4587H141.065V8.45874H142.846V10.3337H143.002C143.283 9.72437 143.71 9.23478 144.283 8.86499C144.856 8.48999 145.596 8.30249 146.502 8.30249C147.315 8.30249 148.026 8.46916 148.635 8.80249C149.244 9.13062 149.718 9.63062 150.057 10.3025C150.395 10.9692 150.565 11.8129 150.565 12.8337V20.4587H148.721V12.9587C148.721 12.016 148.476 11.2817 147.986 10.7556C147.497 10.2244 146.825 9.95874 145.971 9.95874C145.382 9.95874 144.856 10.0863 144.393 10.3416C143.934 10.5968 143.572 10.9692 143.307 11.4587C143.041 11.9483 142.908 12.5421 142.908 13.24Z" fill="#0E1220"/>
<path d="M160.121 24.9587V8.45874H161.902V10.365H162.121C162.257 10.1567 162.444 9.89103 162.684 9.56811C162.929 9.23999 163.277 8.94832 163.731 8.69312C164.189 8.4327 164.809 8.30249 165.59 8.30249C166.6 8.30249 167.491 8.55509 168.262 9.0603C169.033 9.56551 169.634 10.2817 170.067 11.2087C170.499 12.1358 170.715 13.2296 170.715 14.49C170.715 15.7608 170.499 16.8624 170.067 17.7947C169.634 18.7218 169.035 19.4405 168.27 19.9509C167.504 20.4561 166.621 20.7087 165.621 20.7087C164.85 20.7087 164.233 20.5811 163.77 20.3259C163.306 20.0655 162.949 19.7712 162.699 19.4431C162.449 19.1098 162.257 18.8337 162.121 18.615H161.965V24.9587H160.121ZM161.934 14.4587C161.934 15.365 162.067 16.1645 162.332 16.8572C162.598 17.5447 162.986 18.0837 163.496 18.4744C164.007 18.8598 164.632 19.0525 165.371 19.0525C166.142 19.0525 166.785 18.8494 167.301 18.4431C167.822 18.0317 168.212 17.4796 168.473 16.7869C168.738 16.0889 168.871 15.3129 168.871 14.4587C168.871 13.615 168.741 12.8546 168.481 12.1775C168.225 11.4952 167.837 10.9561 167.317 10.5603C166.801 10.1593 166.152 9.95874 165.371 9.95874C164.621 9.95874 163.991 10.1488 163.481 10.5291C162.97 10.9041 162.585 11.4301 162.324 12.1072C162.064 12.7791 161.934 13.5629 161.934 14.4587Z" fill="#0E1220"/>
<path d="M178.402 20.7087C177.319 20.7087 176.369 20.4509 175.551 19.9353C174.738 19.4197 174.103 18.6983 173.645 17.7712C173.192 16.8442 172.965 15.7608 172.965 14.5212C172.965 13.2712 173.192 12.1801 173.645 11.2478C174.103 10.3155 174.738 9.59155 175.551 9.07593C176.369 8.5603 177.319 8.30249 178.402 8.30249C179.486 8.30249 180.434 8.5603 181.246 9.07593C182.064 9.59155 182.699 10.3155 183.152 11.2478C183.611 12.1801 183.84 13.2712 183.84 14.5212C183.84 15.7608 183.611 16.8442 183.152 17.7712C182.699 18.6983 182.064 19.4197 181.246 19.9353C180.434 20.4509 179.486 20.7087 178.402 20.7087ZM178.402 19.0525C179.225 19.0525 179.902 18.8416 180.434 18.4197C180.965 17.9978 181.358 17.4431 181.613 16.7556C181.869 16.0681 181.996 15.3233 181.996 14.5212C181.996 13.7192 181.869 12.9718 181.613 12.2791C181.358 11.5863 180.965 11.0264 180.434 10.5994C179.902 10.1723 179.225 9.95874 178.402 9.95874C177.58 9.95874 176.902 10.1723 176.371 10.5994C175.84 11.0264 175.447 11.5863 175.192 12.2791C174.936 12.9718 174.809 13.7192 174.809 14.5212C174.809 15.3233 174.936 16.0681 175.192 16.7556C175.447 17.4431 175.84 17.9978 176.371 18.4197C176.902 18.8416 177.58 19.0525 178.402 19.0525Z" fill="#0E1220"/>
<path d="M195.154 11.1462L193.498 11.615C193.394 11.3389 193.24 11.0707 193.037 10.8103C192.839 10.5447 192.568 10.3259 192.225 10.1541C191.881 9.98218 191.441 9.89624 190.904 9.89624C190.17 9.89624 189.558 10.0655 189.068 10.4041C188.584 10.7374 188.342 11.1619 188.342 11.6775C188.342 12.1358 188.509 12.4978 188.842 12.7634C189.175 13.0291 189.696 13.2504 190.404 13.4275L192.186 13.865C193.259 14.1254 194.058 14.5238 194.584 15.0603C195.11 15.5916 195.373 16.2764 195.373 17.115C195.373 17.8025 195.175 18.4171 194.779 18.9587C194.389 19.5004 193.842 19.9275 193.139 20.24C192.436 20.5525 191.618 20.7087 190.686 20.7087C189.462 20.7087 188.449 20.4431 187.647 19.9119C186.845 19.3806 186.337 18.6046 186.123 17.5837L187.873 17.1462C188.04 17.7921 188.355 18.2764 188.818 18.5994C189.287 18.9223 189.899 19.0837 190.654 19.0837C191.514 19.0837 192.196 18.9014 192.701 18.5369C193.212 18.1671 193.467 17.7244 193.467 17.2087C193.467 16.7921 193.321 16.4431 193.029 16.1619C192.738 15.8754 192.29 15.6619 191.686 15.5212L189.686 15.0525C188.587 14.7921 187.779 14.3884 187.264 13.8416C186.753 13.2895 186.498 12.5994 186.498 11.7712C186.498 11.0942 186.688 10.4952 187.068 9.97437C187.454 9.45353 187.977 9.04468 188.639 8.7478C189.305 8.45093 190.061 8.30249 190.904 8.30249C192.092 8.30249 193.024 8.56291 193.701 9.08374C194.384 9.60457 194.868 10.2921 195.154 11.1462Z" fill="#0E1220"/>
<path d="M203.367 8.45874V10.0212H197.149V8.45874H203.367ZM198.961 5.58374H200.805V17.0212C200.805 17.5421 200.88 17.9327 201.031 18.1931C201.188 18.4483 201.386 18.6202 201.625 18.7087C201.87 18.7921 202.128 18.8337 202.399 18.8337C202.602 18.8337 202.768 18.8233 202.899 18.8025C203.029 18.7764 203.133 18.7556 203.211 18.74L203.586 20.3962C203.461 20.4431 203.287 20.49 203.063 20.5369C202.839 20.5889 202.555 20.615 202.211 20.615C201.69 20.615 201.18 20.503 200.68 20.2791C200.185 20.0551 199.774 19.7139 199.445 19.2556C199.123 18.7973 198.961 18.2192 198.961 17.5212V5.58374Z" fill="#0E1220"/>
</svg>
