<svg width="206" height="33" viewBox="0 0 206 33" fill="none" xmlns="http://www.w3.org/2000/svg">
<path d="M40.4916 2.78273C40.3928 2.90631 31.1738 15.8573 30.4076 16.8707L29.7403 17.7851C28.208 19.9354 26.7497 21.9621 23.7591 21.9621C20.8427 21.9621 18.3711 19.54 18.297 16.5741C18.2475 15.1653 18.8407 13.7318 19.9035 12.669C20.9416 11.6062 22.3503 11.0131 23.7591 11.0378C25.0444 11.0625 27.3923 11.5074 28.7764 14.2261L29.0236 14.7451L34.634 6.88553C32.1625 4.53754 27.6889 2.04126 23.7591 2.04126C15.8007 2.04126 9.3252 8.51676 9.3252 16.4999C9.3252 24.4831 15.8007 30.9586 23.7591 30.9586C32.3108 30.9586 39.0334 25.0268 43.3587 20.578C46.7447 17.0684 56.3838 5.94634 56.3838 5.94634C57.2241 4.90828 57.0017 4.06795 56.8781 3.74664C56.631 3.15347 56.0378 2.80745 55.3458 2.78273H55.321H40.4916Z" fill="#FFDC00"/>
<path fill-rule="evenodd" clip-rule="evenodd" d="M38.0172 6.2458C39.4191 4.28094 40.4588 2.82379 40.4916 2.78273H55.321H55.3458C56.0378 2.80745 56.631 3.15347 56.8781 3.74664C57.0017 4.06795 57.2241 4.90828 56.3838 5.94634C56.3838 5.94634 46.7447 17.0684 43.3587 20.578C39.0334 25.0268 32.3108 30.9586 23.7591 30.9586C15.8007 30.9586 9.3252 24.4831 9.3252 16.4999C9.3252 8.51676 15.8007 2.04126 23.7591 2.04126C27.6889 2.04126 32.1625 4.53754 34.634 6.88553L29.0236 14.7451L28.7764 14.2261C27.3923 11.5074 25.0444 11.0625 23.7591 11.0378C22.3503 11.0131 20.9416 11.6062 19.9035 12.669C18.8407 13.7318 18.2475 15.1653 18.297 16.5741C18.3711 19.54 20.8427 21.9621 23.7591 21.9621C26.7497 21.9621 28.208 19.9354 29.7403 17.7851L30.4076 16.8707C30.9193 16.194 35.1998 10.1946 38.0172 6.2458ZM23.7839 29.6734C30.0122 29.6734 35.7462 26.5839 42.4442 19.6882C45.5583 16.4505 55.2716 5.30373 55.2469 5.30373C55.7412 4.75999 55.7412 4.61169 55.7165 4.41397C55.6918 4.19152 55.5188 4.06795 55.321 4.06795H41.159C39.3794 6.56423 32.113 16.7224 31.4457 17.6368L30.8031 18.5266L30.7606 18.5857C29.1893 20.7712 27.4091 23.2473 23.7839 23.2473C20.1754 23.2473 17.1353 20.2567 17.0365 16.5988C16.987 14.844 17.7038 13.0645 19.0137 11.7545C20.2989 10.4446 22.0538 9.72784 23.8086 9.75255C25.1679 9.77727 27.3676 10.148 29.1472 12.3971L32.9286 7.10797C30.5807 5.18015 26.9722 3.32648 23.7839 3.32648C16.5422 3.32648 10.6351 9.23352 10.6351 16.4999C10.6351 23.7663 16.5175 29.6734 23.7839 29.6734ZM2.08341 2.7333L14.0952 2.75801C6.47771 8.12543 6.90649 16.4491 6.95006 17.295C6.95244 17.3411 6.95367 17.365 6.95239 17.365L0.402744 5.84747C-0.388157 4.53754 0.229732 3.57363 0.229732 3.57363C0.748761 2.65915 2.08341 2.7333 2.08341 2.7333Z" fill="#FFDC00"/>
<path fill-rule="evenodd" clip-rule="evenodd" d="M38.0172 6.2458C39.4191 4.28094 40.4588 2.82379 40.4916 2.78273H55.321H55.3458C56.0378 2.80745 56.631 3.15347 56.8781 3.74664C57.0017 4.06795 57.2241 4.90828 56.3838 5.94634C56.3838 5.94634 46.7447 17.0684 43.3587 20.578C39.0334 25.0268 32.3108 30.9586 23.7591 30.9586C15.8007 30.9586 9.3252 24.4831 9.3252 16.4999C9.3252 8.51676 15.8007 2.04126 23.7591 2.04126C27.6889 2.04126 32.1625 4.53754 34.634 6.88553L29.0236 14.7451L28.7764 14.2261C27.3923 11.5074 25.0444 11.0625 23.7591 11.0378C22.3503 11.0131 20.9416 11.6062 19.9035 12.669C18.8407 13.7318 18.2475 15.1653 18.297 16.5741C18.3711 19.54 20.8427 21.9621 23.7591 21.9621C26.7497 21.9621 28.208 19.9354 29.7403 17.7851L30.4076 16.8707C30.9193 16.194 35.1998 10.1946 38.0172 6.2458ZM23.7839 29.6734C30.0122 29.6734 35.7462 26.5839 42.4442 19.6882C45.5583 16.4505 55.2716 5.30373 55.2469 5.30373C55.7412 4.75999 55.7412 4.61169 55.7165 4.41397C55.6918 4.19152 55.5188 4.06795 55.321 4.06795H41.159C39.3794 6.56423 32.113 16.7224 31.4457 17.6368L30.8031 18.5266L30.7606 18.5857C29.1893 20.7712 27.4091 23.2473 23.7839 23.2473C20.1754 23.2473 17.1353 20.2567 17.0365 16.5988C16.987 14.844 17.7038 13.0645 19.0137 11.7545C20.2989 10.4446 22.0538 9.72784 23.8086 9.75255C25.1679 9.77727 27.3676 10.148 29.1472 12.3971L32.9286 7.10797C30.5807 5.18015 26.9722 3.32648 23.7839 3.32648C16.5422 3.32648 10.6351 9.23352 10.6351 16.4999C10.6351 23.7663 16.5175 29.6734 23.7839 29.6734ZM2.08341 2.7333L14.0952 2.75801C6.47771 8.12543 6.90649 16.4491 6.95006 17.295C6.95244 17.3411 6.95367 17.365 6.95239 17.365L0.402744 5.84747C-0.388157 4.53754 0.229732 3.57363 0.229732 3.57363C0.748761 2.65915 2.08341 2.7333 2.08341 2.7333Z" fill="#FFDC00"/>
<path d="M69.5938 25H67.5625L73.4375 9H75.4375L81.3125 25H79.2812L74.5 11.5312H74.375L69.5938 25ZM70.3438 18.75H78.5313V20.4687H70.3438V18.75ZM91.1172 20.0937V13H92.9609V25H91.1172V22.9687H90.9922C90.7109 23.5781 90.2734 24.0964 89.6797 24.5234C89.0859 24.9453 88.3359 25.1563 87.4297 25.1563C86.6797 25.1563 86.013 24.9922 85.4297 24.6641C84.8464 24.3307 84.388 23.8307 84.0547 23.1641C83.7214 22.4922 83.5547 21.6458 83.5547 20.625V13H85.3984V20.5C85.3984 21.375 85.6432 22.0729 86.1328 22.5938C86.6276 23.1146 87.2578 23.375 88.0234 23.375C88.4818 23.375 88.9479 23.2578 89.4219 23.0234C89.901 22.7891 90.3021 22.4297 90.625 21.9453C90.9531 21.4609 91.1172 20.8437 91.1172 20.0937ZM104.838 15.6875L103.182 16.1562C103.077 15.8802 102.924 15.612 102.721 15.3516C102.523 15.0859 102.252 14.8672 101.908 14.6953C101.564 14.5234 101.124 14.4375 100.588 14.4375C99.8535 14.4375 99.2415 14.6068 98.752 14.9453C98.2676 15.2786 98.0254 15.7031 98.0254 16.2187C98.0254 16.6771 98.1921 17.0391 98.5254 17.3047C98.8587 17.5703 99.3796 17.7917 100.088 17.9687L101.869 18.4063C102.942 18.6667 103.742 19.0651 104.268 19.6016C104.794 20.1328 105.057 20.8177 105.057 21.6562C105.057 22.3437 104.859 22.9583 104.463 23.5C104.072 24.0417 103.525 24.4688 102.822 24.7813C102.119 25.0938 101.301 25.25 100.369 25.25C99.1452 25.25 98.1322 24.9844 97.3301 24.4531C96.528 23.9219 96.0202 23.1458 95.8066 22.125L97.5566 21.6875C97.7233 22.3333 98.0384 22.8177 98.502 23.1406C98.9707 23.4635 99.5827 23.625 100.338 23.625C101.197 23.625 101.88 23.4427 102.385 23.0781C102.895 22.7083 103.15 22.2656 103.15 21.75C103.15 21.3333 103.005 20.9844 102.713 20.7031C102.421 20.4167 101.973 20.2031 101.369 20.0625L99.3691 19.5937C98.2702 19.3333 97.4629 18.9297 96.9473 18.3828C96.4368 17.8307 96.1816 17.1406 96.1816 16.3125C96.1816 15.6354 96.3717 15.0365 96.752 14.5156C97.1374 13.9948 97.6608 13.5859 98.3223 13.2891C98.9889 12.9922 99.7441 12.8438 100.588 12.8438C101.775 12.8438 102.708 13.1042 103.385 13.625C104.067 14.1458 104.551 14.8333 104.838 15.6875ZM113.051 13V14.5625H106.832V13H113.051ZM108.645 10.125H110.488V21.5625C110.488 22.0833 110.564 22.474 110.715 22.7344C110.871 22.9896 111.069 23.1615 111.309 23.25C111.553 23.3333 111.811 23.375 112.082 23.375C112.285 23.375 112.452 23.3646 112.582 23.3437C112.712 23.3177 112.816 23.2969 112.895 23.2812L113.27 24.9375C113.145 24.9844 112.97 25.0313 112.746 25.0781C112.522 25.1302 112.238 25.1563 111.895 25.1563C111.374 25.1563 110.863 25.0443 110.363 24.8203C109.868 24.5964 109.457 24.2552 109.129 23.7969C108.806 23.3385 108.645 22.7604 108.645 22.0625V10.125ZM115.824 25V13H117.605V14.8125H117.73C117.949 14.2188 118.345 13.737 118.918 13.3672C119.491 12.9974 120.137 12.8125 120.855 12.8125C120.991 12.8125 121.16 12.8151 121.363 12.8203C121.566 12.8255 121.72 12.8333 121.824 12.8438V14.7187C121.762 14.7031 121.618 14.6797 121.395 14.6484C121.176 14.612 120.944 14.5937 120.699 14.5937C120.116 14.5937 119.595 14.7161 119.137 14.9609C118.684 15.2005 118.324 15.5339 118.059 15.9609C117.798 16.3828 117.668 16.8646 117.668 17.4062V25H115.824ZM124.01 25V13H125.854V25H124.01ZM124.947 11C124.588 11 124.278 10.8776 124.018 10.6328C123.762 10.388 123.635 10.0938 123.635 9.75C123.635 9.40625 123.762 9.11198 124.018 8.86719C124.278 8.6224 124.588 8.5 124.947 8.5C125.307 8.5 125.614 8.6224 125.869 8.86719C126.13 9.11198 126.26 9.40625 126.26 9.75C126.26 10.0938 126.13 10.388 125.869 10.6328C125.614 10.8776 125.307 11 124.947 11ZM132.762 25.2813C132.001 25.2813 131.311 25.138 130.691 24.8516C130.072 24.5599 129.579 24.1406 129.215 23.5938C128.85 23.0417 128.668 22.375 128.668 21.5937C128.668 20.9062 128.803 20.349 129.074 19.9219C129.345 19.4896 129.707 19.151 130.16 18.9062C130.613 18.6615 131.113 18.4792 131.66 18.3594C132.212 18.2344 132.767 18.1354 133.324 18.0625C134.053 17.9687 134.645 17.8984 135.098 17.8516C135.556 17.7995 135.889 17.7135 136.098 17.5937C136.311 17.474 136.418 17.2656 136.418 16.9687V16.9062C136.418 16.1354 136.207 15.5365 135.785 15.1094C135.368 14.6823 134.736 14.4687 133.887 14.4687C133.007 14.4687 132.316 14.6615 131.816 15.0469C131.316 15.4323 130.965 15.8437 130.762 16.2812L129.012 15.6562C129.324 14.9271 129.741 14.3594 130.262 13.9531C130.788 13.5417 131.361 13.2552 131.98 13.0937C132.605 12.9271 133.22 12.8438 133.824 12.8438C134.21 12.8438 134.652 12.8906 135.152 12.9844C135.658 13.0729 136.145 13.2578 136.613 13.5391C137.087 13.8203 137.48 14.2448 137.793 14.8125C138.105 15.3802 138.262 16.1406 138.262 17.0938V25H136.418V23.375H136.324C136.199 23.6354 135.991 23.9141 135.699 24.2109C135.408 24.5078 135.02 24.7604 134.535 24.9687C134.051 25.1771 133.46 25.2813 132.762 25.2813ZM133.043 23.625C133.772 23.625 134.387 23.4818 134.887 23.1953C135.392 22.9089 135.772 22.5391 136.027 22.0859C136.288 21.6328 136.418 21.1562 136.418 20.6562V18.9687C136.34 19.0625 136.168 19.1484 135.902 19.2266C135.642 19.2995 135.34 19.3646 134.996 19.4219C134.658 19.474 134.327 19.5208 134.004 19.5625C133.686 19.599 133.428 19.6302 133.23 19.6562C132.751 19.7187 132.303 19.8203 131.887 19.9609C131.475 20.0964 131.142 20.3021 130.887 20.5781C130.637 20.849 130.512 21.2187 130.512 21.6875C130.512 22.3281 130.749 22.8125 131.223 23.1406C131.702 23.4635 132.309 23.625 133.043 23.625ZM143.471 17.7812V25H141.627V13H143.408V14.875H143.564C143.846 14.2656 144.273 13.776 144.846 13.4063C145.419 13.0313 146.158 12.8438 147.064 12.8438C147.877 12.8438 148.588 13.0104 149.197 13.3437C149.807 13.6719 150.281 14.1719 150.619 14.8437C150.958 15.5104 151.127 16.3542 151.127 17.375V25H149.283V17.5C149.283 16.5573 149.038 15.8229 148.549 15.2969C148.059 14.7656 147.387 14.5 146.533 14.5C145.945 14.5 145.419 14.6276 144.955 14.8828C144.497 15.138 144.135 15.5104 143.869 16C143.604 16.4896 143.471 17.0833 143.471 17.7812ZM160.684 29.5V13H162.465V14.9062H162.684C162.819 14.6979 163.007 14.4323 163.246 14.1094C163.491 13.7812 163.84 13.4896 164.293 13.2344C164.751 12.974 165.371 12.8438 166.152 12.8438C167.163 12.8438 168.053 13.0964 168.824 13.6016C169.595 14.1068 170.197 14.8229 170.629 15.75C171.061 16.6771 171.277 17.7708 171.277 19.0313C171.277 20.3021 171.061 21.4036 170.629 22.3359C170.197 23.263 169.598 23.9818 168.832 24.4922C168.066 24.9974 167.184 25.25 166.184 25.25C165.413 25.25 164.796 25.1224 164.332 24.8672C163.868 24.6068 163.512 24.3125 163.262 23.9844C163.012 23.651 162.819 23.375 162.684 23.1562H162.527V29.5H160.684ZM162.496 19C162.496 19.9062 162.629 20.7057 162.895 21.3984C163.16 22.0859 163.548 22.625 164.059 23.0156C164.569 23.401 165.194 23.5938 165.934 23.5938C166.704 23.5938 167.348 23.3906 167.863 22.9844C168.384 22.5729 168.775 22.0208 169.035 21.3281C169.301 20.6302 169.434 19.8542 169.434 19C169.434 18.1562 169.303 17.3958 169.043 16.7187C168.788 16.0365 168.4 15.4974 167.879 15.1016C167.363 14.7005 166.715 14.5 165.934 14.5C165.184 14.5 164.553 14.6901 164.043 15.0703C163.533 15.4453 163.147 15.9714 162.887 16.6484C162.626 17.3203 162.496 18.1042 162.496 19ZM178.965 25.25C177.882 25.25 176.931 24.9922 176.113 24.4766C175.301 23.9609 174.665 23.2396 174.207 22.3125C173.754 21.3854 173.527 20.3021 173.527 19.0625C173.527 17.8125 173.754 16.7214 174.207 15.7891C174.665 14.8568 175.301 14.1328 176.113 13.6172C176.931 13.1016 177.882 12.8438 178.965 12.8438C180.048 12.8438 180.996 13.1016 181.809 13.6172C182.626 14.1328 183.262 14.8568 183.715 15.7891C184.173 16.7214 184.402 17.8125 184.402 19.0625C184.402 20.3021 184.173 21.3854 183.715 22.3125C183.262 23.2396 182.626 23.9609 181.809 24.4766C180.996 24.9922 180.048 25.25 178.965 25.25ZM178.965 23.5938C179.788 23.5938 180.465 23.3828 180.996 22.9609C181.527 22.5391 181.921 21.9844 182.176 21.2969C182.431 20.6094 182.559 19.8646 182.559 19.0625C182.559 18.2604 182.431 17.513 182.176 16.8203C181.921 16.1276 181.527 15.5677 180.996 15.1406C180.465 14.7135 179.788 14.5 178.965 14.5C178.142 14.5 177.465 14.7135 176.934 15.1406C176.402 15.5677 176.009 16.1276 175.754 16.8203C175.499 17.513 175.371 18.2604 175.371 19.0625C175.371 19.8646 175.499 20.6094 175.754 21.2969C176.009 21.9844 176.402 22.5391 176.934 22.9609C177.465 23.3828 178.142 23.5938 178.965 23.5938ZM195.717 15.6875L194.061 16.1562C193.956 15.8802 193.803 15.612 193.6 15.3516C193.402 15.0859 193.131 14.8672 192.787 14.6953C192.443 14.5234 192.003 14.4375 191.467 14.4375C190.732 14.4375 190.12 14.6068 189.631 14.9453C189.146 15.2786 188.904 15.7031 188.904 16.2187C188.904 16.6771 189.071 17.0391 189.404 17.3047C189.738 17.5703 190.258 17.7917 190.967 17.9687L192.748 18.4063C193.821 18.6667 194.62 19.0651 195.146 19.6016C195.673 20.1328 195.936 20.8177 195.936 21.6562C195.936 22.3437 195.738 22.9583 195.342 23.5C194.951 24.0417 194.404 24.4688 193.701 24.7813C192.998 25.0938 192.18 25.25 191.248 25.25C190.024 25.25 189.011 24.9844 188.209 24.4531C187.407 23.9219 186.899 23.1458 186.686 22.125L188.436 21.6875C188.602 22.3333 188.917 22.8177 189.381 23.1406C189.85 23.4635 190.462 23.625 191.217 23.625C192.076 23.625 192.758 23.4427 193.264 23.0781C193.774 22.7083 194.029 22.2656 194.029 21.75C194.029 21.3333 193.883 20.9844 193.592 20.7031C193.3 20.4167 192.852 20.2031 192.248 20.0625L190.248 19.5937C189.149 19.3333 188.342 18.9297 187.826 18.3828C187.316 17.8307 187.061 17.1406 187.061 16.3125C187.061 15.6354 187.251 15.0365 187.631 14.5156C188.016 13.9948 188.54 13.5859 189.201 13.2891C189.868 12.9922 190.623 12.8438 191.467 12.8438C192.654 12.8438 193.587 13.1042 194.264 13.625C194.946 14.1458 195.43 14.8333 195.717 15.6875ZM203.93 13V14.5625H197.711V13H203.93ZM199.523 10.125H201.367V21.5625C201.367 22.0833 201.443 22.474 201.594 22.7344C201.75 22.9896 201.948 23.1615 202.188 23.25C202.432 23.3333 202.69 23.375 202.961 23.375C203.164 23.375 203.331 23.3646 203.461 23.3437C203.591 23.3177 203.695 23.2969 203.773 23.2812L204.148 24.9375C204.023 24.9844 203.849 25.0313 203.625 25.0781C203.401 25.1302 203.117 25.1563 202.773 25.1563C202.253 25.1563 201.742 25.0443 201.242 24.8203C200.747 24.5964 200.336 24.2552 200.008 23.7969C199.685 23.3385 199.523 22.7604 199.523 22.0625V10.125Z" fill="#0E1220"/>
</svg>
