<svg width="115" height="35" viewBox="0 0 115 35" fill="none" xmlns="http://www.w3.org/2000/svg">
<path d="M27.4658 6.9647C27.3317 6.82813 27.255 6.67206 27.255 6.49648C27.255 6.3209 27.3317 6.16483 27.4658 6.02827C27.7533 5.77465 28.175 5.77465 28.4433 6.02827C28.5775 6.16483 28.6542 6.3209 28.6542 6.49648C28.6542 6.67206 28.5775 6.82813 28.4433 6.9647C28.3092 7.08175 28.1175 7.14028 27.945 7.14028C27.7725 7.17929 27.6 7.10126 27.4658 6.9647ZM25.7408 8.81805C25.6258 8.68149 25.5683 8.52542 25.5683 8.34983C25.5683 8.17425 25.645 8.01818 25.7408 7.88162C25.99 7.628 26.4117 7.628 26.6608 7.88162C26.7758 8.01818 26.8333 8.17425 26.8333 8.34983C26.8333 8.52542 26.7567 8.68149 26.6608 8.81805C26.5267 8.9351 26.3733 8.99363 26.2008 8.99363C26.0283 8.99363 25.875 8.9351 25.7408 8.81805ZM23.8625 10.6519C23.7475 10.5348 23.69 10.3593 23.69 10.1837C23.69 10.0081 23.7667 9.85202 23.8625 9.71546C24.1117 9.46185 24.5333 9.46185 24.7825 9.71546C24.8975 9.83252 24.955 10.0081 24.955 10.1837C24.955 10.3593 24.8783 10.5153 24.7825 10.6519C24.6483 10.7885 24.495 10.8275 24.3225 10.8275C24.15 10.8275 23.9775 10.7689 23.8625 10.6519ZM22.08 12.4857C21.9458 12.3687 21.8692 12.1931 21.8692 12.0175C21.8692 11.8419 21.9458 11.6859 22.08 11.5493C22.3675 11.2957 22.7892 11.2957 23.0575 11.5493C23.1917 11.6664 23.2683 11.8419 23.2683 12.0175C23.2683 12.1931 23.1917 12.3687 23.0575 12.4857C22.9233 12.6223 22.7317 12.6613 22.5592 12.6613C22.3867 12.6613 22.2142 12.6223 22.08 12.4857ZM20.355 14.3001C20.2208 14.183 20.1825 14.0074 20.1825 13.8319C20.1825 13.6563 20.2592 13.5002 20.355 13.3636C20.6042 13.11 21.0258 13.11 21.275 13.3636C21.4092 13.4807 21.4475 13.6563 21.4475 13.8319C21.4475 14.0074 21.3708 14.183 21.275 14.3001C21.16 14.4366 20.9875 14.4756 20.815 14.4756C20.6233 14.5147 20.4508 14.4561 20.355 14.3001ZM18.2658 15.6657C18.2658 15.4901 18.3425 15.334 18.4383 15.1975C18.6875 14.9439 19.1092 14.9439 19.3583 15.1975C19.4925 15.334 19.5308 15.4901 19.5308 15.6657C19.5308 15.8413 19.4542 15.9973 19.3583 16.1339C19.2433 16.251 19.0708 16.3095 18.8983 16.3095C18.7258 16.3095 18.5725 16.2315 18.4383 16.1339C18.3425 16.0364 18.2658 15.8413 18.2658 15.6657ZM14.9308 19.7236C14.8158 19.6065 14.7583 19.4309 14.7583 19.2553C14.7583 19.0798 14.835 18.9237 14.9308 18.7871C15.18 18.5335 15.6017 18.5335 15.8508 18.7871C15.985 18.9237 16.0233 19.0798 16.0233 19.2553C16.0233 19.4309 15.9467 19.587 15.8508 19.7236C15.7358 19.8601 15.5633 19.8991 15.3908 19.8991C15.1992 19.9382 15.065 19.8601 14.9308 19.7236ZM13.0525 21.5574C12.9183 21.4403 12.8417 21.2648 12.8417 21.0892C12.8417 20.9136 12.9183 20.7575 13.0525 20.621C13.34 20.3674 13.7617 20.3674 14.03 20.621C14.1642 20.7575 14.2408 20.9136 14.2408 21.0892C14.2408 21.2648 14.1642 21.4208 14.03 21.5574C13.8958 21.694 13.7042 21.733 13.5317 21.733C13.3783 21.772 13.2058 21.694 13.0525 21.5574ZM11.3275 23.4108C11.2125 23.2937 11.155 23.1181 11.155 22.9425C11.155 22.767 11.2317 22.5914 11.3275 22.4743C11.5767 22.2207 11.9983 22.2207 12.2475 22.4743C12.3625 22.5914 12.42 22.767 12.42 22.9425C12.42 23.1181 12.3433 23.2742 12.2475 23.4108C12.1133 23.5473 11.96 23.5863 11.7875 23.5863C11.615 23.5863 11.4808 23.5278 11.3275 23.4108ZM9.545 25.2446C9.41083 25.1275 9.3725 24.952 9.3725 24.7764C9.3725 24.6008 9.44917 24.4447 9.545 24.3082C9.79417 24.0545 10.2158 24.0545 10.465 24.3082C10.58 24.4447 10.6375 24.6008 10.6375 24.7764C10.6375 24.952 10.5608 25.1275 10.465 25.2446C10.3308 25.3812 10.1775 25.4202 10.005 25.4202C9.81333 25.4202 9.64083 25.3812 9.545 25.2446ZM7.66667 27.0784C7.5325 26.9614 7.45583 26.7858 7.45583 26.6102C7.45583 26.4346 7.5325 26.2786 7.66667 26.142C7.95417 25.8884 8.37583 25.8884 8.625 26.142C8.75917 26.2786 8.83583 26.4346 8.83583 26.6102C8.83583 26.7858 8.75917 26.9614 8.625 27.0784C8.49083 27.1955 8.29917 27.254 8.12667 27.254C7.95417 27.254 7.78167 27.215 7.66667 27.0784ZM5.90333 28.8928C5.76917 28.7562 5.73083 28.6001 5.73083 28.4246C5.73083 28.249 5.8075 28.0929 5.90333 27.9563C6.1525 27.7027 6.57417 27.7027 6.82333 27.9563C6.9575 28.0929 6.99583 28.249 6.99583 28.4246C6.99583 28.6001 6.91917 28.7562 6.82333 28.8928C6.70833 29.0098 6.53583 29.0683 6.36333 29.0683C6.22917 29.1074 6.05667 29.0488 5.90333 28.8928ZM6.82333 6.9647C6.93833 6.82813 6.99583 6.67206 6.99583 6.49648C6.99583 6.3209 6.91917 6.16483 6.82333 6.02827C6.57417 5.77465 6.1525 5.77465 5.90333 6.02827C5.76917 6.16483 5.73083 6.3209 5.73083 6.49648C5.73083 6.67206 5.8075 6.82813 5.90333 6.9647C6.01833 7.08175 6.19083 7.14028 6.36333 7.14028C6.53583 7.17929 6.70833 7.10126 6.82333 6.9647ZM8.625 8.81805C8.75917 8.68149 8.83583 8.52542 8.83583 8.34983C8.83583 8.17425 8.75917 8.01818 8.625 7.88162C8.3375 7.628 7.91583 7.628 7.6475 7.88162C7.51333 8.01818 7.43667 8.17425 7.43667 8.34983C7.43667 8.52542 7.51333 8.68149 7.6475 8.81805C7.78167 8.9351 7.97333 8.99363 8.14583 8.99363C8.29917 8.99363 8.47167 8.9351 8.625 8.81805ZM10.4458 10.6519C10.5608 10.5348 10.6183 10.3593 10.6183 10.1837C10.6183 10.0081 10.5417 9.85202 10.4458 9.71546C10.1967 9.46185 9.775 9.46185 9.52583 9.71546C9.41083 9.83252 9.35333 10.0081 9.35333 10.1837C9.35333 10.3593 9.43 10.5153 9.52583 10.6519C9.66 10.7885 9.81333 10.8275 9.98583 10.8275C10.1392 10.8275 10.3117 10.7689 10.4458 10.6519ZM12.2475 12.4857C12.3625 12.3687 12.42 12.1931 12.42 12.0175C12.42 11.8419 12.3433 11.6859 12.2475 11.5493C11.9983 11.2957 11.5767 11.2957 11.3275 11.5493C11.2125 11.6664 11.155 11.8419 11.155 12.0175C11.155 12.1931 11.2317 12.3687 11.3275 12.4857C11.4617 12.6223 11.615 12.6613 11.7875 12.6613C11.9217 12.6613 12.1133 12.6223 12.2475 12.4857ZM14.0108 14.3001C14.145 14.183 14.2217 14.0074 14.2217 13.8319C14.2217 13.6563 14.145 13.5002 14.0108 13.3636C13.7617 13.11 13.3017 13.11 13.0525 13.3636C12.9183 13.4807 12.8417 13.6563 12.8417 13.8319C12.8417 14.0074 12.9183 14.183 13.0525 14.3001C13.1867 14.4366 13.3783 14.4756 13.5508 14.4756C13.7233 14.5147 13.8958 14.4561 14.0108 14.3001ZM16.0233 15.6657C16.0233 15.4901 15.9467 15.334 15.8508 15.1975C15.6017 14.9439 15.18 14.9439 14.9308 15.1975C14.7967 15.334 14.7583 15.4901 14.7583 15.6657C14.7583 15.8413 14.835 15.9973 14.9308 16.1339C15.0458 16.251 15.2183 16.3095 15.3908 16.3095C15.5633 16.3095 15.7167 16.2315 15.8508 16.1339C15.985 16.0364 16.0233 15.8413 16.0233 15.6657ZM17.6333 18.0068C17.7675 17.8702 17.8058 17.7141 17.8058 17.5386C17.8058 17.363 17.7292 17.2069 17.6333 17.0703C17.3842 16.8167 16.9625 16.8167 16.7133 17.0703C16.5792 17.2069 16.5408 17.363 16.5408 17.5386C16.5408 17.7141 16.6175 17.8702 16.7133 18.0068C16.8283 18.1238 17.0008 18.1823 17.1733 18.1823C17.3458 18.1823 17.5375 18.1043 17.6333 18.0068ZM19.435 19.7236C19.5692 19.6065 19.6458 19.4309 19.6458 19.2553C19.6458 19.0798 19.5692 18.9237 19.435 18.7871C19.1475 18.5335 18.7258 18.5335 18.4767 18.7871C18.3425 18.9237 18.2658 19.0798 18.2658 19.2553C18.2658 19.4309 18.3425 19.587 18.4767 19.7236C18.6108 19.8601 18.8025 19.8991 18.975 19.8991C19.1092 19.9382 19.3008 19.8601 19.435 19.7236ZM21.2558 21.5574C21.3708 21.4403 21.4283 21.2648 21.4283 21.0892C21.4283 20.9136 21.3517 20.7575 21.2558 20.621C21.0067 20.3674 20.585 20.3674 20.3358 20.621C20.2208 20.7575 20.1633 20.9136 20.1633 21.0892C20.1633 21.2648 20.24 21.4208 20.3358 21.5574C20.47 21.694 20.6233 21.733 20.7958 21.733C20.9492 21.772 21.1217 21.694 21.2558 21.5574ZM23.0575 23.4108C23.1725 23.2937 23.23 23.1181 23.23 22.9425C23.23 22.767 23.1533 22.5914 23.0575 22.4743C22.8083 22.2207 22.3867 22.2207 22.1375 22.4743C22.0225 22.5914 21.965 22.767 21.965 22.9425C21.965 23.1181 22.0417 23.2742 22.1375 23.4108C22.2717 23.5473 22.425 23.5863 22.5975 23.5863C22.77 23.5863 22.9233 23.5278 23.0575 23.4108ZM24.7442 25.2446C24.8783 25.1275 24.9167 24.952 24.9167 24.7764C24.9167 24.6008 24.84 24.4447 24.7442 24.3082C24.495 24.0545 24.0733 24.0545 23.8242 24.3082C23.7092 24.4447 23.6517 24.6008 23.6517 24.7764C23.6517 24.952 23.7283 25.1275 23.8242 25.2446C23.9583 25.3812 24.1117 25.4202 24.2842 25.4202C24.4567 25.4202 24.6483 25.3812 24.7442 25.2446ZM26.6608 27.0784C26.795 26.9614 26.8333 26.7858 26.8333 26.6102C26.8333 26.4346 26.7567 26.2786 26.6608 26.142C26.4117 25.8884 25.99 25.8884 25.7408 26.142C25.6067 26.2786 25.5683 26.4346 25.5683 26.6102C25.5683 26.7858 25.645 26.9614 25.7408 27.0784C25.8558 27.1955 26.0283 27.254 26.2008 27.254C26.3733 27.254 26.5458 27.215 26.6608 27.0784ZM28.4433 28.8928C28.5775 28.7562 28.6542 28.6001 28.6542 28.4246C28.6542 28.249 28.5775 28.0929 28.4433 27.9563C28.1558 27.7027 27.7342 27.7027 27.485 27.9563C27.3508 28.0929 27.2742 28.249 27.2742 28.4246C27.2742 28.6001 27.3508 28.7562 27.485 28.8928C27.6192 29.0098 27.8108 29.0683 27.9833 29.0683C28.1367 29.1074 28.3092 29.0488 28.4433 28.8928ZM11.0783 7.45242C12.9183 6.24287 14.9117 5.6576 17.135 5.61858C19.32 5.61858 21.3325 6.22336 23.1917 7.45242L27.0633 3.51161C24.035 1.19005 20.7575 0 17.135 0C13.5125 0 10.1967 1.19005 7.245 3.51161L11.0783 7.45242ZM7.20667 23.6253C5.98 21.733 5.36667 19.6845 5.36667 17.4995C5.36667 15.2755 5.96083 13.2271 7.20667 11.3737L3.37333 7.47193C1.11167 10.4763 0 13.8123 0 17.5386C0 21.1867 1.13083 24.5618 3.41167 27.6052L7.20667 23.6253ZM23.2108 27.5466C21.3708 28.7952 19.3775 29.439 17.1925 29.478C14.9692 29.478 12.9375 28.8733 11.0975 27.5857L7.22583 31.4875C10.2158 33.848 13.5317 35.0381 17.1925 34.9991C20.815 34.9601 24.0925 33.7895 27.0633 31.4875L23.2108 27.5466ZM26.9675 11.3347C28.1942 13.2271 28.8267 15.3145 28.8075 17.5776C28.7692 19.7626 28.175 21.772 26.9675 23.6058L30.8392 27.5076C33.12 24.5033 34.2892 21.1672 34.2892 17.4995C34.3275 13.7733 33.1583 10.3983 30.8392 7.35488L26.9675 11.3347ZM31.0117 28.7562C32.4875 28.7562 33.7333 29.9658 33.7333 31.5265C33.7333 33.0287 32.545 34.2967 31.0117 34.2967C29.5358 34.2967 28.29 33.0872 28.29 31.5265C28.3092 29.9853 29.4975 28.7562 31.0117 28.7562ZM3.335 28.7562C4.81083 28.7562 6.01833 29.9658 6.01833 31.5265C6.01833 33.0287 4.83 34.2967 3.335 34.2967C1.84 34.2967 0.651667 33.0872 0.651667 31.5265C0.651667 29.9853 1.85917 28.7562 3.335 28.7562ZM31.05 0.604779C32.5258 0.604779 33.7333 1.81433 33.7333 3.37505C33.7333 4.91626 32.545 6.14532 31.05 6.14532C29.555 6.14532 28.3667 4.93577 28.3667 3.37505C28.3858 1.83384 29.5742 0.604779 31.05 0.604779ZM3.29667 0.604779C4.7725 0.604779 6.01833 1.81433 6.01833 3.33603C6.01833 4.83822 4.83 6.06728 3.29667 6.06728C1.82083 6.06728 0.575 4.85773 0.575 3.33603C0.594167 1.83384 1.7825 0.604779 3.29667 0.604779ZM54.3375 22.6889L52.9958 21.4794C52.1908 22.4548 50.5617 23.0206 49.2008 23.0206C46.92 23.0206 45.08 21.6159 44.8692 19.3724H55.0083C55.4683 14.5342 52.6892 12.2321 49.0283 12.2321C45.4442 12.2321 42.8375 14.8463 42.8375 18.5335C42.8375 22.3963 45.4058 24.8739 49.1433 24.8739C51.0217 24.8544 53.1108 24.1326 54.3375 22.6889ZM53.1683 17.6361H44.8883C45.2333 15.3145 47.035 14.0074 49.1242 14.0074C51.4433 14.0074 53.0342 15.256 53.1683 17.5581V17.6361ZM59.9342 7.3939H57.96V24.6398H59.9342V7.3939ZM65.5308 12.4857H63.6908V24.6398H65.665V17.8702C65.665 15.6462 67.2558 14.2415 69.1917 14.222C69.9967 14.222 70.6292 14.4366 71.2617 14.9048L72.1433 13.1881C71.3958 12.6223 70.4183 12.2516 69.3642 12.2906C67.9842 12.2906 66.5083 12.7198 65.7033 14.3001L65.5308 12.4857ZM73.2933 18.5725C73.2933 22.2597 75.9 24.8544 79.4842 24.8544C83.0683 24.8544 85.675 22.2792 85.675 18.5725C85.675 14.8073 83.1067 12.1931 79.4842 12.1931C75.9383 12.1931 73.2933 14.8073 73.2933 18.5725ZM83.72 18.5725C83.6817 21.1087 81.9183 22.9425 79.465 22.9425C77.0308 22.9425 75.2675 21.1087 75.2675 18.5725C75.2675 15.8413 77.0692 14.0465 79.5033 14.0465C81.88 14.066 83.72 15.8803 83.72 18.5725ZM88.5308 12.4467V24.6398H90.505V18.1043C90.505 15.9193 92.0192 14.1635 94.1658 14.1245C96.4467 14.1245 97.7883 15.5877 97.7883 17.9287V24.6398H99.7625V17.9287C99.7625 14.3391 97.5392 12.2906 94.5108 12.2906C92.92 12.2906 91.4442 12.9735 90.4283 14.3976L90.3133 12.4662L88.5308 12.4467ZM114.962 7.3939H112.987V14.6707C112.144 13.0125 110.208 12.2321 108.522 12.2321C105.148 12.2321 102.503 14.4561 102.503 18.5335C102.503 22.5524 105.148 24.8349 108.56 24.8349C110.323 24.8349 112.087 24.0545 113.026 22.3573L113.141 24.5813H115L114.962 7.3939ZM108.694 14.1245C111.052 14.1245 112.93 15.9193 112.93 18.4945C112.93 21.1477 111.071 22.9425 108.694 22.9425C106.375 22.9425 104.497 21.3233 104.497 18.5335C104.497 15.7047 106.337 14.1635 108.618 14.1245H108.694Z" fill="black"/>
</svg>
