<svg width="140" height="37" viewBox="0 0 140 37" fill="none" xmlns="http://www.w3.org/2000/svg">
<path d="M29.5722 7.36268C29.4278 7.21831 29.3452 7.05333 29.3452 6.86771C29.3452 6.6821 29.4278 6.51711 29.5722 6.37274C29.8818 6.10463 30.3358 6.10463 30.6247 6.37274C30.7691 6.51711 30.8517 6.6821 30.8517 6.86771C30.8517 7.05333 30.7691 7.21831 30.6247 7.36268C30.4802 7.48642 30.2739 7.54829 30.0881 7.54829C29.9024 7.58954 29.7167 7.50705 29.5722 7.36268ZM27.7149 9.32194C27.5911 9.17757 27.5292 9.01258 27.5292 8.82697C27.5292 8.64135 27.6117 8.47637 27.7149 8.332C27.9832 8.06389 28.4372 8.06389 28.7055 8.332C28.8293 8.47637 28.8912 8.64135 28.8912 8.82697C28.8912 9.01258 28.8087 9.17757 28.7055 9.32194C28.561 9.44568 28.3959 9.50755 28.2102 9.50755C28.0245 9.50755 27.8594 9.44568 27.7149 9.32194ZM25.6925 11.2606C25.5687 11.1368 25.5068 10.9512 25.5068 10.7656C25.5068 10.58 25.5894 10.415 25.6925 10.2706C25.9608 10.0025 26.4148 10.0025 26.6831 10.2706C26.8069 10.3944 26.8688 10.58 26.8688 10.7656C26.8688 10.9512 26.7863 11.1162 26.6831 11.2606C26.5386 11.4049 26.3735 11.4462 26.1878 11.4462C26.0021 11.4462 25.8164 11.3843 25.6925 11.2606ZM23.7733 13.1992C23.6289 13.0755 23.5463 12.8898 23.5463 12.7042C23.5463 12.5186 23.6289 12.3536 23.7733 12.2093C24.0829 11.9412 24.5369 11.9412 24.8258 12.2093C24.9703 12.333 25.0528 12.5186 25.0528 12.7042C25.0528 12.8898 24.9703 13.0755 24.8258 13.1992C24.6813 13.3436 24.475 13.3848 24.2893 13.3848C24.1035 13.3848 23.9178 13.3436 23.7733 13.1992ZM21.916 15.1172C21.7716 14.9935 21.7303 14.8079 21.7303 14.6222C21.7303 14.4366 21.8129 14.2716 21.916 14.1273C22.1843 13.8592 22.6383 13.8592 22.9066 14.1273C23.0511 14.251 23.0923 14.4366 23.0923 14.6222C23.0923 14.8079 23.0098 14.9935 22.9066 15.1172C22.7828 15.2616 22.5971 15.3028 22.4113 15.3028C22.205 15.3441 22.0192 15.2822 21.916 15.1172ZM19.6667 16.5609C19.6667 16.3753 19.7492 16.2103 19.8524 16.0659C20.1207 15.7978 20.5747 15.7978 20.8429 16.0659C20.9874 16.2103 21.0287 16.3753 21.0287 16.5609C21.0287 16.7465 20.9461 16.9115 20.8429 17.0558C20.7191 17.1796 20.5334 17.2415 20.3477 17.2415C20.1619 17.2415 19.9968 17.159 19.8524 17.0558C19.7492 16.9527 19.6667 16.7465 19.6667 16.5609ZM16.0759 20.8506C15.9521 20.7269 15.8902 20.5413 15.8902 20.3556C15.8902 20.17 15.9727 20.005 16.0759 19.8607C16.3442 19.5926 16.7982 19.5926 17.0665 19.8607C17.2109 20.005 17.2522 20.17 17.2522 20.3556C17.2522 20.5413 17.1696 20.7062 17.0665 20.8506C16.9426 20.995 16.7569 21.0362 16.5712 21.0362C16.3648 21.0775 16.2204 20.995 16.0759 20.8506ZM14.0535 22.7893C13.9091 22.6655 13.8265 22.4799 13.8265 22.2943C13.8265 22.1087 13.9091 21.9437 14.0535 21.7993C14.3631 21.5312 14.8171 21.5312 15.106 21.7993C15.2504 21.9437 15.333 22.1087 15.333 22.2943C15.333 22.4799 15.2504 22.6449 15.106 22.7893C14.9615 22.9336 14.7552 22.9749 14.5694 22.9749C14.4043 23.0161 14.2186 22.9336 14.0535 22.7893ZM12.1962 24.7485C12.0724 24.6248 12.0105 24.4391 12.0105 24.2535C12.0105 24.0679 12.093 23.8823 12.1962 23.7586C12.4645 23.4905 12.9185 23.4905 13.1868 23.7586C13.3106 23.8823 13.3725 24.0679 13.3725 24.2535C13.3725 24.4391 13.29 24.6041 13.1868 24.7485C13.0423 24.8929 12.8772 24.9341 12.6915 24.9341C12.5058 24.9341 12.3613 24.8723 12.1962 24.7485ZM10.277 26.6871C10.1326 26.5634 10.0913 26.3778 10.0913 26.1922C10.0913 26.0066 10.1738 25.8416 10.277 25.6972C10.5453 25.4291 10.9993 25.4291 11.2676 25.6972C11.3914 25.8416 11.4533 26.0066 11.4533 26.1922C11.4533 26.3778 11.3708 26.5634 11.2676 26.6871C11.1231 26.8315 10.958 26.8728 10.7723 26.8728C10.5659 26.8728 10.3802 26.8315 10.277 26.6871ZM8.25463 28.6258C8.11018 28.502 8.02763 28.3164 8.02763 28.1308C8.02763 27.9452 8.11018 27.7802 8.25463 27.6358C8.56418 27.3677 9.01818 27.3677 9.28646 27.6358C9.43092 27.7802 9.51346 27.9452 9.51346 28.1308C9.51346 28.3164 9.43092 28.502 9.28646 28.6258C9.142 28.7495 8.93564 28.8114 8.74991 28.8114C8.56418 28.8114 8.37845 28.7701 8.25463 28.6258ZM6.35607 30.5438C6.21161 30.3994 6.17034 30.2344 6.17034 30.0488C6.17034 29.8632 6.25288 29.6982 6.35607 29.5538C6.62434 29.2857 7.07835 29.2857 7.34662 29.5538C7.49108 29.6982 7.53235 29.8632 7.53235 30.0488C7.53235 30.2344 7.4498 30.3994 7.34662 30.5438C7.2228 30.6675 7.03707 30.7294 6.85134 30.7294C6.70689 30.7706 6.52116 30.7088 6.35607 30.5438ZM7.34662 7.36268C7.47044 7.21831 7.53235 7.05333 7.53235 6.86771C7.53235 6.6821 7.4498 6.51711 7.34662 6.37274C7.07835 6.10463 6.62434 6.10463 6.35607 6.37274C6.21161 6.51711 6.17034 6.6821 6.17034 6.86771C6.17034 7.05333 6.25288 7.21831 6.35607 7.36268C6.47989 7.48642 6.66561 7.54829 6.85134 7.54829C7.03707 7.58954 7.2228 7.50705 7.34662 7.36268ZM9.28646 9.32194C9.43092 9.17757 9.51346 9.01258 9.51346 8.82697C9.51346 8.64135 9.43092 8.47637 9.28646 8.332C8.97691 8.06389 8.52291 8.06389 8.23399 8.332C8.08954 8.47637 8.00699 8.64135 8.00699 8.82697C8.00699 9.01258 8.08954 9.17757 8.23399 9.32194C8.37845 9.44568 8.58482 9.50755 8.77055 9.50755C8.93564 9.50755 9.12137 9.44568 9.28646 9.32194ZM11.2469 11.2606C11.3708 11.1368 11.4327 10.9512 11.4327 10.7656C11.4327 10.58 11.3501 10.415 11.2469 10.2706C10.9787 10.0025 10.5247 10.0025 10.2564 10.2706C10.1326 10.3944 10.0707 10.58 10.0707 10.7656C10.0707 10.9512 10.1532 11.1162 10.2564 11.2606C10.4008 11.4049 10.5659 11.4462 10.7517 11.4462C10.9167 11.4462 11.1025 11.3843 11.2469 11.2606ZM13.1868 13.1992C13.3106 13.0755 13.3725 12.8898 13.3725 12.7042C13.3725 12.5186 13.29 12.3536 13.1868 12.2093C12.9185 11.9412 12.4645 11.9412 12.1962 12.2093C12.0724 12.333 12.0105 12.5186 12.0105 12.7042C12.0105 12.8898 12.093 13.0755 12.1962 13.1992C12.3407 13.3436 12.5058 13.3848 12.6915 13.3848C12.836 13.3848 13.0423 13.3436 13.1868 13.1992ZM15.0853 15.1172C15.2298 14.9935 15.3123 14.8079 15.3123 14.6222C15.3123 14.4366 15.2298 14.2716 15.0853 14.1273C14.8171 13.8592 14.3218 13.8592 14.0535 14.1273C13.9091 14.251 13.8265 14.4366 13.8265 14.6222C13.8265 14.8079 13.9091 14.9935 14.0535 15.1172C14.198 15.2616 14.4043 15.3028 14.5901 15.3028C14.7758 15.3441 14.9615 15.2822 15.0853 15.1172ZM17.2522 16.5609C17.2522 16.3753 17.1696 16.2103 17.0665 16.0659C16.7982 15.7978 16.3442 15.7978 16.0759 16.0659C15.9314 16.2103 15.8902 16.3753 15.8902 16.5609C15.8902 16.7465 15.9727 16.9115 16.0759 17.0558C16.1997 17.1796 16.3854 17.2415 16.5712 17.2415C16.7569 17.2415 16.922 17.159 17.0665 17.0558C17.2109 16.9527 17.2522 16.7465 17.2522 16.5609ZM18.9857 19.0357C19.1301 18.8914 19.1714 18.7264 19.1714 18.5408C19.1714 18.3551 19.0888 18.1902 18.9857 18.0458C18.7174 17.7777 18.2634 17.7777 17.9951 18.0458C17.8506 18.1902 17.8094 18.3551 17.8094 18.5408C17.8094 18.7264 17.8919 18.8914 17.9951 19.0357C18.1189 19.1595 18.3046 19.2213 18.4904 19.2213C18.6761 19.2213 18.8825 19.1388 18.9857 19.0357ZM20.9255 20.8506C21.0699 20.7269 21.1525 20.5413 21.1525 20.3556C21.1525 20.17 21.0699 20.005 20.9255 19.8607C20.6159 19.5926 20.1619 19.5926 19.8937 19.8607C19.7492 20.005 19.6667 20.17 19.6667 20.3556C19.6667 20.5413 19.7492 20.7062 19.8937 20.8506C20.0381 20.995 20.2445 21.0362 20.4302 21.0362C20.5747 21.0775 20.781 20.995 20.9255 20.8506ZM22.886 22.7893C23.0098 22.6655 23.0717 22.4799 23.0717 22.2943C23.0717 22.1087 22.9891 21.9437 22.886 21.7993C22.6177 21.5312 22.1637 21.5312 21.8954 21.7993C21.7716 21.9437 21.7097 22.1087 21.7097 22.2943C21.7097 22.4799 21.7922 22.6449 21.8954 22.7893C22.0399 22.9336 22.205 22.9749 22.3907 22.9749C22.5558 23.0161 22.7415 22.9336 22.886 22.7893ZM24.8258 24.7485C24.9496 24.6248 25.0115 24.4391 25.0115 24.2535C25.0115 24.0679 24.929 23.8823 24.8258 23.7586C24.5575 23.4905 24.1035 23.4905 23.8352 23.7586C23.7114 23.8823 23.6495 24.0679 23.6495 24.2535C23.6495 24.4391 23.7321 24.6041 23.8352 24.7485C23.9797 24.8929 24.1448 24.9341 24.3305 24.9341C24.5163 24.9341 24.6813 24.8723 24.8258 24.7485ZM26.6418 26.6871C26.7863 26.5634 26.8276 26.3778 26.8276 26.1922C26.8276 26.0066 26.745 25.8416 26.6418 25.6972C26.3735 25.4291 25.9195 25.4291 25.6513 25.6972C25.5274 25.8416 25.4655 26.0066 25.4655 26.1922C25.4655 26.3778 25.5481 26.5634 25.6513 26.6871C25.7957 26.8315 25.9608 26.8728 26.1465 26.8728C26.3323 26.8728 26.5386 26.8315 26.6418 26.6871ZM28.7055 28.6258C28.8499 28.502 28.8912 28.3164 28.8912 28.1308C28.8912 27.9452 28.8087 27.7802 28.7055 27.6358C28.4372 27.3677 27.9832 27.3677 27.7149 27.6358C27.5705 27.7802 27.5292 27.9452 27.5292 28.1308C27.5292 28.3164 27.6117 28.502 27.7149 28.6258C27.8387 28.7495 28.0245 28.8114 28.2102 28.8114C28.3959 28.8114 28.5817 28.7701 28.7055 28.6258ZM30.6247 30.5438C30.7691 30.3994 30.8517 30.2344 30.8517 30.0488C30.8517 29.8632 30.7691 29.6982 30.6247 29.5538C30.3151 29.2857 29.8611 29.2857 29.5929 29.5538C29.4484 29.6982 29.3659 29.8632 29.3659 30.0488C29.3659 30.2344 29.4484 30.3994 29.5929 30.5438C29.7373 30.6675 29.9437 30.7294 30.1294 30.7294C30.2945 30.7706 30.4802 30.7088 30.6247 30.5438ZM11.9279 7.87827C13.9091 6.5996 16.0553 5.98089 18.4491 5.93964C20.8017 5.93964 22.9685 6.57898 24.9703 7.87827L29.1388 3.71228C25.8783 1.25805 22.3494 0 18.4491 0C14.5488 0 10.9787 1.25805 7.80063 3.71228L11.9279 7.87827ZM7.75935 24.9754C6.43861 22.9749 5.77824 20.8094 5.77824 18.4995C5.77824 16.1484 6.41798 13.9829 7.75935 12.0237L3.63204 7.8989C1.19692 11.075 0 14.6016 0 18.5408C0 22.3974 1.21756 25.9653 3.67331 29.1826L7.75935 24.9754ZM24.9909 29.1207C23.0098 30.4407 20.8636 31.1212 18.511 31.1625C16.1172 31.1625 13.9297 30.5232 11.9486 29.162L7.77999 33.2867C10.9993 35.7822 14.5694 37.0403 18.511 36.999C22.4113 36.9578 25.9402 35.7203 29.1388 33.2867L24.9909 29.1207ZM29.0357 11.9824C30.3564 13.9829 31.0374 16.1896 31.0168 18.582C30.9755 20.8919 30.3358 23.0161 29.0357 24.9547L33.2043 29.0795C35.66 25.9034 36.9188 22.3768 36.9188 18.4995C36.9601 14.5604 35.7013 10.9925 33.2043 7.77516L29.0357 11.9824ZM33.39 30.3994C34.979 30.3994 36.3204 31.6781 36.3204 33.328C36.3204 34.916 35.0409 36.2566 33.39 36.2566C31.801 36.2566 30.4596 34.9779 30.4596 33.328C30.4802 31.6987 31.7597 30.3994 33.39 30.3994ZM3.59076 30.3994C5.17978 30.3994 6.47989 31.6781 6.47989 33.328C6.47989 34.916 5.20042 36.2566 3.59076 36.2566C1.98111 36.2566 0.701644 34.9779 0.701644 33.328C0.701644 31.6987 2.00175 30.3994 3.59076 30.3994ZM33.4313 0.639338C35.0203 0.639338 36.3204 1.91801 36.3204 3.56791C36.3204 5.19719 35.0409 6.49649 33.4313 6.49649C31.8216 6.49649 30.5421 5.21781 30.5421 3.56791C30.5628 1.93863 31.8422 0.639338 33.4313 0.639338ZM3.54949 0.639338C5.13851 0.639338 6.47989 1.91801 6.47989 3.52666C6.47989 5.11469 5.20042 6.41399 3.54949 6.41399C1.96048 6.41399 0.619097 5.13532 0.619097 3.52666C0.639734 1.93863 1.9192 0.639338 3.54949 0.639338ZM58.5047 23.9854L57.0601 22.7068C56.1934 23.7379 54.4393 24.336 52.9741 24.336C50.5183 24.336 48.5372 22.8511 48.3102 20.4794H59.227C59.7223 15.3647 56.7299 12.9311 52.7884 12.9311C48.9293 12.9311 46.1228 15.6947 46.1228 19.5926C46.1228 23.6761 48.8881 26.2953 52.9122 26.2953C54.9346 26.2747 57.184 25.5116 58.5047 23.9854ZM57.2459 18.6439H48.3309C48.7023 16.1896 50.6422 14.8079 52.8915 14.8079C55.3886 14.8079 57.1014 16.1278 57.2459 18.5614V18.6439ZM64.5306 7.81641H62.405V26.0478H64.5306V7.81641ZM70.5565 13.1992H68.5753V26.0478H70.7009V18.8914C70.7009 16.5403 72.4137 15.0553 74.498 15.0347C75.3648 15.0347 76.0458 15.2616 76.7268 15.7566L77.6761 13.9417C76.8713 13.3436 75.8188 12.9517 74.6838 12.993C73.1979 12.993 71.6089 13.4467 70.7422 15.1172L70.5565 13.1992ZM78.9143 19.6338C78.9143 23.5317 81.7208 26.2747 85.5799 26.2747C89.4389 26.2747 92.2455 23.5523 92.2455 19.6338C92.2455 15.6534 89.4802 12.8899 85.5799 12.8899C81.7621 12.8899 78.9143 15.6534 78.9143 19.6338ZM90.1406 19.6338C90.0993 22.3149 88.2007 24.2535 85.5592 24.2535C82.9384 24.2535 81.0398 22.3149 81.0398 19.6338C81.0398 16.7465 82.9797 14.8491 85.6005 14.8491C88.1595 14.8697 90.1406 16.7877 90.1406 19.6338ZM95.3204 13.158V26.0478H97.4459V19.1388C97.4459 16.829 99.0762 14.9728 101.388 14.9316C103.843 14.9316 105.288 16.4784 105.288 18.9532V26.0478H107.413V18.9532C107.413 15.1585 105.02 12.993 101.759 12.993C100.046 12.993 98.4571 13.7148 97.3634 15.2203L97.2396 13.1786L95.3204 13.158ZM123.778 7.81641H121.653V15.5091C120.745 13.756 118.66 12.9311 116.844 12.9311C113.212 12.9311 110.364 15.2822 110.364 19.5926C110.364 23.8411 113.212 26.254 116.886 26.254C118.784 26.254 120.683 25.4291 121.694 23.6348L121.818 25.9859H123.819L123.778 7.81641ZM117.03 14.9316C119.568 14.9316 121.591 16.829 121.591 19.5513C121.591 22.3562 119.589 24.2535 117.03 24.2535C114.533 24.2535 112.511 22.5418 112.511 19.5926C112.511 16.6021 114.492 14.9728 116.947 14.9316H117.03Z" fill="white"/>
</svg>
