<svg width="140" height="37" viewBox="0 0 140 37" fill="none" xmlns="http://www.w3.org/2000/svg">
<path d="M29.7528 7.36268C29.6083 7.21831 29.5258 7.05333 29.5258 6.86771C29.5258 6.6821 29.6083 6.51711 29.7528 6.37274C30.0623 6.10463 30.5163 6.10463 30.8052 6.37274C30.9497 6.51711 31.0322 6.6821 31.0322 6.86771C31.0322 7.05333 30.9497 7.21831 30.8052 7.36268C30.6608 7.48642 30.4544 7.54829 30.2687 7.54829C30.0829 7.58954 29.8972 7.50705 29.7528 7.36268ZM27.8955 9.32194C27.7716 9.17757 27.7097 9.01258 27.7097 8.82697C27.7097 8.64135 27.7923 8.47637 27.8955 8.332C28.1637 8.06389 28.6177 8.06389 28.886 8.332C29.0098 8.47637 29.0718 8.64135 29.0718 8.82697C29.0718 9.01258 28.9892 9.17757 28.886 9.32194C28.7416 9.44568 28.5765 9.50755 28.3907 9.50755C28.205 9.50755 28.0399 9.44568 27.8955 9.32194ZM25.8731 11.2606C25.7493 11.1368 25.6874 10.9512 25.6874 10.7656C25.6874 10.58 25.7699 10.415 25.8731 10.2706C26.1414 10.0025 26.5954 10.0025 26.8636 10.2706C26.9875 10.3944 27.0494 10.58 27.0494 10.7656C27.0494 10.9512 26.9668 11.1162 26.8636 11.2606C26.7192 11.4049 26.5541 11.4462 26.3684 11.4462C26.1826 11.4462 25.9969 11.3843 25.8731 11.2606ZM23.9539 13.1992C23.8094 13.0755 23.7269 12.8898 23.7269 12.7042C23.7269 12.5186 23.8094 12.3536 23.9539 12.2093C24.2634 11.9412 24.7174 11.9412 25.0063 12.2093C25.1508 12.333 25.2333 12.5186 25.2333 12.7042C25.2333 12.8898 25.1508 13.0755 25.0063 13.1992C24.8619 13.3436 24.6555 13.3848 24.4698 13.3848C24.2841 13.3848 24.0983 13.3436 23.9539 13.1992ZM22.0966 15.1172C21.9521 14.9935 21.9109 14.8079 21.9109 14.6222C21.9109 14.4366 21.9934 14.2716 22.0966 14.1273C22.3649 13.8592 22.8189 13.8592 23.0871 14.1273C23.2316 14.251 23.2729 14.4366 23.2729 14.6222C23.2729 14.8079 23.1903 14.9935 23.0871 15.1172C22.9633 15.2616 22.7776 15.3028 22.5919 15.3028C22.3855 15.3441 22.1998 15.2822 22.0966 15.1172ZM19.8472 16.5609C19.8472 16.3753 19.9297 16.2103 20.0329 16.0659C20.3012 15.7978 20.7552 15.7978 21.0235 16.0659C21.1679 16.2103 21.2092 16.3753 21.2092 16.5609C21.2092 16.7465 21.1267 16.9115 21.0235 17.0558C20.8997 17.1796 20.7139 17.2415 20.5282 17.2415C20.3425 17.2415 20.1774 17.159 20.0329 17.0558C19.9297 16.9527 19.8472 16.7465 19.8472 16.5609ZM16.2564 20.8506C16.1326 20.7269 16.0707 20.5413 16.0707 20.3556C16.0707 20.17 16.1533 20.005 16.2564 19.8607C16.5247 19.5926 16.9787 19.5926 17.247 19.8607C17.3914 20.005 17.4327 20.17 17.4327 20.3556C17.4327 20.5413 17.3502 20.7062 17.247 20.8506C17.1232 20.995 16.9374 21.0362 16.7517 21.0362C16.5453 21.0775 16.4009 20.995 16.2564 20.8506ZM14.2341 22.7893C14.0896 22.6655 14.007 22.4799 14.007 22.2943C14.007 22.1087 14.0896 21.9437 14.2341 21.7993C14.5436 21.5312 14.9976 21.5312 15.2865 21.7993C15.431 21.9437 15.5135 22.1087 15.5135 22.2943C15.5135 22.4799 15.431 22.6449 15.2865 22.7893C15.1421 22.9336 14.9357 22.9749 14.75 22.9749C14.5849 23.0161 14.3991 22.9336 14.2341 22.7893ZM12.3768 24.7485C12.2529 24.6248 12.191 24.4391 12.191 24.2535C12.191 24.0679 12.2736 23.8823 12.3768 23.7586C12.645 23.4905 13.099 23.4905 13.3673 23.7586C13.4911 23.8823 13.553 24.0679 13.553 24.2535C13.553 24.4391 13.4705 24.6041 13.3673 24.7485C13.2229 24.8929 13.0578 24.9341 12.872 24.9341C12.6863 24.9341 12.5419 24.8723 12.3768 24.7485ZM10.4576 26.6871C10.3131 26.5634 10.2718 26.3778 10.2718 26.1922C10.2718 26.0066 10.3544 25.8416 10.4576 25.6972C10.7258 25.4291 11.1798 25.4291 11.4481 25.6972C11.5719 25.8416 11.6338 26.0066 11.6338 26.1922C11.6338 26.3778 11.5513 26.5634 11.4481 26.6871C11.3037 26.8315 11.1386 26.8728 10.9528 26.8728C10.7465 26.8728 10.5607 26.8315 10.4576 26.6871ZM8.43517 28.6258C8.29072 28.502 8.20817 28.3164 8.20817 28.1308C8.20817 27.9452 8.29072 27.7802 8.43517 27.6358C8.74472 27.3677 9.19873 27.3677 9.467 27.6358C9.61146 27.7802 9.694 27.9452 9.694 28.1308C9.694 28.3164 9.61146 28.502 9.467 28.6258C9.32255 28.7495 9.11618 28.8114 8.93045 28.8114C8.74472 28.8114 8.55899 28.7701 8.43517 28.6258ZM6.53661 30.5438C6.39215 30.3994 6.35088 30.2344 6.35088 30.0488C6.35088 29.8632 6.43342 29.6982 6.53661 29.5538C6.80488 29.2857 7.25889 29.2857 7.52716 29.5538C7.67162 29.6982 7.71289 29.8632 7.71289 30.0488C7.71289 30.2344 7.63035 30.3994 7.52716 30.5438C7.40334 30.6675 7.21762 30.7294 7.03189 30.7294C6.88743 30.7706 6.7017 30.7088 6.53661 30.5438ZM7.52716 7.36268C7.65098 7.21831 7.71289 7.05333 7.71289 6.86771C7.71289 6.6821 7.63035 6.51711 7.52716 6.37274C7.25889 6.10463 6.80488 6.10463 6.53661 6.37274C6.39215 6.51711 6.35088 6.6821 6.35088 6.86771C6.35088 7.05333 6.43342 7.21831 6.53661 7.36268C6.66043 7.48642 6.84616 7.54829 7.03189 7.54829C7.21762 7.58954 7.40334 7.50705 7.52716 7.36268ZM9.467 9.32194C9.61146 9.17757 9.694 9.01258 9.694 8.82697C9.694 8.64135 9.61146 8.47637 9.467 8.332C9.15745 8.06389 8.70345 8.06389 8.41454 8.332C8.27008 8.47637 8.18754 8.64135 8.18754 8.82697C8.18754 9.01258 8.27008 9.17757 8.41454 9.32194C8.55899 9.44568 8.76536 9.50755 8.95109 9.50755C9.11618 9.50755 9.30191 9.44568 9.467 9.32194ZM11.4275 11.2606C11.5513 11.1368 11.6132 10.9512 11.6132 10.7656C11.6132 10.58 11.5307 10.415 11.4275 10.2706C11.1592 10.0025 10.7052 10.0025 10.4369 10.2706C10.3131 10.3944 10.2512 10.58 10.2512 10.7656C10.2512 10.9512 10.3337 11.1162 10.4369 11.2606C10.5814 11.4049 10.7465 11.4462 10.9322 11.4462C11.0973 11.4462 11.283 11.3843 11.4275 11.2606ZM13.3673 13.1992C13.4911 13.0755 13.553 12.8898 13.553 12.7042C13.553 12.5186 13.4705 12.3536 13.3673 12.2093C13.099 11.9412 12.645 11.9412 12.3768 12.2093C12.2529 12.333 12.191 12.5186 12.191 12.7042C12.191 12.8898 12.2736 13.0755 12.3768 13.1992C12.5212 13.3436 12.6863 13.3848 12.872 13.3848C13.0165 13.3848 13.2229 13.3436 13.3673 13.1992ZM15.2659 15.1172C15.4103 14.9935 15.4929 14.8079 15.4929 14.6222C15.4929 14.4366 15.4103 14.2716 15.2659 14.1273C14.9976 13.8592 14.5023 13.8592 14.2341 14.1273C14.0896 14.251 14.007 14.4366 14.007 14.6222C14.007 14.8079 14.0896 14.9935 14.2341 15.1172C14.3785 15.2616 14.5849 15.3028 14.7706 15.3028C14.9563 15.3441 15.1421 15.2822 15.2659 15.1172ZM17.4327 16.5609C17.4327 16.3753 17.3502 16.2103 17.247 16.0659C16.9787 15.7978 16.5247 15.7978 16.2564 16.0659C16.112 16.2103 16.0707 16.3753 16.0707 16.5609C16.0707 16.7465 16.1533 16.9115 16.2564 17.0558C16.3803 17.1796 16.566 17.2415 16.7517 17.2415C16.9374 17.2415 17.1025 17.159 17.247 17.0558C17.3914 16.9527 17.4327 16.7465 17.4327 16.5609ZM19.1662 19.0357C19.3106 18.8914 19.3519 18.7264 19.3519 18.5408C19.3519 18.3551 19.2694 18.1902 19.1662 18.0458C18.8979 17.7777 18.4439 17.7777 18.1756 18.0458C18.0312 18.1902 17.9899 18.3551 17.9899 18.5408C17.9899 18.7264 18.0725 18.8914 18.1756 19.0357C18.2995 19.1595 18.4852 19.2213 18.6709 19.2213C18.8566 19.2213 19.063 19.1388 19.1662 19.0357ZM21.106 20.8506C21.2505 20.7269 21.333 20.5413 21.333 20.3556C21.333 20.17 21.2505 20.005 21.106 19.8607C20.7965 19.5926 20.3425 19.5926 20.0742 19.8607C19.9297 20.005 19.8472 20.17 19.8472 20.3556C19.8472 20.5413 19.9297 20.7062 20.0742 20.8506C20.2187 20.995 20.425 21.0362 20.6108 21.0362C20.7552 21.0775 20.9616 20.995 21.106 20.8506ZM23.0665 22.7893C23.1903 22.6655 23.2522 22.4799 23.2522 22.2943C23.2522 22.1087 23.1697 21.9437 23.0665 21.7993C22.7982 21.5312 22.3442 21.5312 22.076 21.7993C21.9521 21.9437 21.8902 22.1087 21.8902 22.2943C21.8902 22.4799 21.9728 22.6449 22.076 22.7893C22.2204 22.9336 22.3855 22.9749 22.5712 22.9749C22.7363 23.0161 22.9221 22.9336 23.0665 22.7893ZM25.0063 24.7485C25.1302 24.6248 25.1921 24.4391 25.1921 24.2535C25.1921 24.0679 25.1095 23.8823 25.0063 23.7586C24.7381 23.4905 24.2841 23.4905 24.0158 23.7586C23.892 23.8823 23.8301 24.0679 23.8301 24.2535C23.8301 24.4391 23.9126 24.6041 24.0158 24.7485C24.1602 24.8929 24.3253 24.9341 24.5111 24.9341C24.6968 24.9341 24.8619 24.8723 25.0063 24.7485ZM26.8224 26.6871C26.9668 26.5634 27.0081 26.3778 27.0081 26.1922C27.0081 26.0066 26.9255 25.8416 26.8224 25.6972C26.5541 25.4291 26.1001 25.4291 25.8318 25.6972C25.708 25.8416 25.6461 26.0066 25.6461 26.1922C25.6461 26.3778 25.7286 26.5634 25.8318 26.6871C25.9763 26.8315 26.1414 26.8728 26.3271 26.8728C26.5128 26.8728 26.7192 26.8315 26.8224 26.6871ZM28.886 28.6258C29.0305 28.502 29.0718 28.3164 29.0718 28.1308C29.0718 27.9452 28.9892 27.7802 28.886 27.6358C28.6177 27.3677 28.1637 27.3677 27.8955 27.6358C27.751 27.7802 27.7097 27.9452 27.7097 28.1308C27.7097 28.3164 27.7923 28.502 27.8955 28.6258C28.0193 28.7495 28.205 28.8114 28.3907 28.8114C28.5765 28.8114 28.7622 28.7701 28.886 28.6258ZM30.8052 30.5438C30.9497 30.3994 31.0322 30.2344 31.0322 30.0488C31.0322 29.8632 30.9497 29.6982 30.8052 29.5538C30.4957 29.2857 30.0417 29.2857 29.7734 29.5538C29.6289 29.6982 29.5464 29.8632 29.5464 30.0488C29.5464 30.2344 29.6289 30.3994 29.7734 30.5438C29.9178 30.6675 30.1242 30.7294 30.3099 30.7294C30.475 30.7706 30.6608 30.7088 30.8052 30.5438ZM12.1085 7.87827C14.0896 6.5996 16.2358 5.98089 18.6296 5.93964C20.9822 5.93964 23.1491 6.57898 25.1508 7.87827L29.3194 3.71228C26.0588 1.25805 22.53 0 18.6296 0C14.7293 0 11.1592 1.25805 7.98117 3.71228L12.1085 7.87827ZM7.9399 24.9754C6.61915 22.9749 5.95878 20.8094 5.95878 18.4995C5.95878 16.1484 6.59852 13.9829 7.9399 12.0237L3.81258 7.8989C1.37746 11.075 0.180542 14.6016 0.180542 18.5408C0.180542 22.3974 1.3981 25.9653 3.85385 29.1826L7.9399 24.9754ZM25.1714 29.1207C23.1903 30.4407 21.0441 31.1212 18.6916 31.1625C16.2977 31.1625 14.1102 30.5232 12.1291 29.162L7.96053 33.2867C11.1798 35.7822 14.75 37.0403 18.6916 36.999C22.5919 36.9578 26.1207 35.7203 29.3194 33.2867L25.1714 29.1207ZM29.2162 11.9824C30.5369 13.9829 31.218 16.1896 31.1973 18.582C31.156 20.8919 30.5163 23.0161 29.2162 24.9547L33.3848 29.0795C35.8405 25.9034 37.0994 22.3768 37.0994 18.4995C37.1407 14.5604 35.8818 10.9925 33.3848 7.77516L29.2162 11.9824ZM33.5705 30.3994C35.1595 30.3994 36.5009 31.6781 36.5009 33.328C36.5009 34.916 35.2215 36.2566 33.5705 36.2566C31.9815 36.2566 30.6401 34.9779 30.6401 33.328C30.6608 31.6987 31.9402 30.3994 33.5705 30.3994ZM3.77131 30.3994C5.36032 30.3994 6.66043 31.6781 6.66043 33.328C6.66043 34.916 5.38096 36.2566 3.77131 36.2566C2.16165 36.2566 0.882186 34.9779 0.882186 33.328C0.882186 31.6987 2.18229 30.3994 3.77131 30.3994ZM33.6118 0.639338C35.2008 0.639338 36.5009 1.91801 36.5009 3.56791C36.5009 5.19719 35.2215 6.49649 33.6118 6.49649C32.0021 6.49649 30.7227 5.21781 30.7227 3.56791C30.7433 1.93863 32.0228 0.639338 33.6118 0.639338ZM3.73003 0.639338C5.31905 0.639338 6.66043 1.91801 6.66043 3.52666C6.66043 5.11469 5.38096 6.41399 3.73003 6.41399C2.14102 6.41399 0.799639 5.13532 0.799639 3.52666C0.820276 1.93863 2.09974 0.639338 3.73003 0.639338ZM58.6852 23.9854L57.2407 22.7068C56.3739 23.7379 54.6198 24.336 53.1546 24.336C50.6989 24.336 48.7178 22.8511 48.4908 20.4794H59.4075C59.9028 15.3647 56.9105 12.9311 52.9689 12.9311C49.1099 12.9311 46.3033 15.6947 46.3033 19.5926C46.3033 23.6761 49.0686 26.2953 53.0927 26.2953C55.1151 26.2747 57.3645 25.5116 58.6852 23.9854ZM57.4264 18.6439H48.5114C48.8829 16.1896 50.8227 14.8079 53.0721 14.8079C55.5691 14.8079 57.282 16.1278 57.4264 18.5614V18.6439ZM64.7111 7.81641H62.5856V26.0478H64.7111V7.81641ZM70.737 13.1992H68.7559V26.0478H70.8815V18.8914C70.8815 16.5403 72.5943 15.0553 74.6786 15.0347C75.5453 15.0347 76.2263 15.2616 76.9073 15.7566L77.8566 13.9417C77.0518 13.3436 75.9993 12.9517 74.8643 12.993C73.3785 12.993 71.7895 13.4467 70.9227 15.1172L70.737 13.1992ZM79.0948 19.6338C79.0948 23.5317 81.9014 26.2747 85.7604 26.2747C89.6195 26.2747 92.426 23.5523 92.426 19.6338C92.426 15.6534 89.6607 12.8899 85.7604 12.8899C81.9427 12.8899 79.0948 15.6534 79.0948 19.6338ZM90.3211 19.6338C90.2798 22.3149 88.3813 24.2535 85.7398 24.2535C83.1189 24.2535 81.2204 22.3149 81.2204 19.6338C81.2204 16.7465 83.1602 14.8491 85.7811 14.8491C88.34 14.8697 90.3211 16.7877 90.3211 19.6338ZM95.5009 13.158V26.0478H97.6265V19.1388C97.6265 16.829 99.2568 14.9728 101.568 14.9316C104.024 14.9316 105.468 16.4784 105.468 18.9532V26.0478H107.594V18.9532C107.594 15.1585 105.2 12.993 101.939 12.993C100.227 12.993 98.6376 13.7148 97.5439 15.2203L97.4201 13.1786L95.5009 13.158ZM123.959 7.81641H121.833V15.5091C120.925 13.756 118.841 12.9311 117.025 12.9311C113.393 12.9311 110.545 15.2822 110.545 19.5926C110.545 23.8411 113.393 26.254 117.066 26.254C118.965 26.254 120.863 25.4291 121.874 23.6348L121.998 25.9859H124L123.959 7.81641ZM117.211 14.9316C119.749 14.9316 121.771 16.829 121.771 19.5513C121.771 22.3562 119.77 24.2535 117.211 24.2535C114.714 24.2535 112.691 22.5418 112.691 19.5926C112.691 16.6021 114.672 14.9728 117.128 14.9316H117.211Z" fill="#1A1818"/>
</svg>
