<svg width="147" height="38" viewBox="0 0 147 38" fill="none" xmlns="http://www.w3.org/2000/svg">
<g clip-path="url(#clip0_10_566)">
<path d="M42.621 23.2251C42.1 22.7024 41.6868 22.0817 41.4048 21.3986C41.1229 20.7154 40.9778 19.9832 40.9778 19.2438C40.9778 18.5043 41.1229 17.7721 41.4048 17.089C41.6868 16.4058 42.1 15.7852 42.621 15.2625C43.7239 14.2273 45.1774 13.6515 46.6872 13.6515C48.197 13.6515 49.6504 14.2273 50.7534 15.2625C51.2743 15.7852 51.6876 16.4058 51.9695 17.089C52.2515 17.7721 52.3966 18.5043 52.3966 19.2438C52.3966 19.9832 52.2515 20.7154 51.9695 21.3986C51.6876 22.0817 51.2743 22.7024 50.7534 23.2251C49.6504 24.2602 48.197 24.8361 46.6872 24.8361C45.1774 24.8361 43.7239 24.2602 42.621 23.2251ZM43.8403 16.3774C43.1602 17.0414 42.7312 17.9222 42.6268 18.8689C42.5224 19.8156 42.7491 20.7693 43.268 21.5667C43.787 22.364 44.5659 22.9554 45.4713 23.2395C46.3768 23.5237 47.3525 23.4829 48.2313 23.1241C49.1101 22.7654 49.8373 22.111 50.2884 21.2731C50.7395 20.4352 50.8864 19.4659 50.704 18.5312C50.5215 17.5965 50.021 16.7545 49.2883 16.1496C48.5556 15.5446 47.6362 15.2143 46.6875 15.2151C46.1589 15.2023 45.6333 15.2988 45.1435 15.4988C44.6537 15.6987 44.21 15.9978 43.8403 16.3774Z" fill="#FF5400"/>
<path d="M56.4246 24.6667V13.8214H61.0384C61.6054 13.788 62.1733 13.8703 62.7078 14.0634C63.2422 14.2565 63.7321 14.5564 64.1479 14.945C64.8674 15.6989 65.2685 16.703 65.2671 17.7472C65.2658 18.7913 64.8621 19.7944 64.1406 20.5464C63.727 20.9363 63.2388 21.2379 62.7056 21.4328C62.1725 21.6276 61.6055 21.7117 61.039 21.68H58.061V24.6701H56.4246V24.6667ZM58.059 20.1276H60.6492C61.4332 20.1899 62.2133 19.9672 62.8475 19.5001C63.3073 19.0326 63.5651 18.4021 63.5651 17.745C63.5651 17.088 63.3073 16.4575 62.8475 15.99C62.2155 15.518 61.4344 15.2922 60.6492 15.3545H58.059V20.1276Z" fill="#FF5400"/>
<path d="M77.086 13.8214H78.7218V20.0963C78.7445 20.7221 78.642 21.3461 78.4206 21.9316C78.1992 22.5171 77.8633 23.0521 77.4327 23.5051C76.4367 24.3651 75.1666 24.8379 73.853 24.8379C72.5394 24.8379 71.2693 24.3651 70.2732 23.5051C69.8427 23.052 69.5069 22.517 69.2856 21.9316C69.0643 21.3461 68.9621 20.7221 68.9848 20.0963V13.8214H70.6206V19.9563C70.5941 20.3992 70.6554 20.8431 70.8011 21.262C70.9468 21.681 71.174 22.0668 71.4693 22.3969C72.1362 22.9623 72.9808 23.2725 73.8536 23.2725C74.7265 23.2725 75.5711 22.9623 76.2379 22.3969C76.5332 22.0667 76.7601 21.6809 76.9057 21.262C77.0513 20.843 77.1126 20.3992 77.086 19.9563V13.8214Z" fill="#FF5400"/>
<path d="M83.2739 24.6667V13.8214H84.9097V23.1017H90.9435V24.6661L83.2739 24.6667Z" fill="#FF5400"/>
<path d="M94.8519 23.2251C94.331 22.7024 93.9178 22.0817 93.6358 21.3986C93.3539 20.7154 93.2087 19.9832 93.2087 19.2438C93.2087 18.5043 93.3539 17.7721 93.6358 17.089C93.9178 16.4058 94.331 15.7852 94.8519 15.2625C95.9549 14.2273 97.4084 13.6515 98.9182 13.6515C100.428 13.6515 101.881 14.2273 102.984 15.2625C103.505 15.7852 103.919 16.4058 104.201 17.089C104.482 17.7721 104.628 18.5043 104.628 19.2438C104.628 19.9832 104.482 20.7154 104.201 21.3986C103.919 22.0817 103.505 22.7024 102.984 23.2251C101.881 24.2602 100.428 24.8361 98.9182 24.8361C97.4084 24.8361 95.9549 24.2602 94.8519 23.2251ZM96.0713 16.3774C95.3912 17.0414 94.9622 17.9222 94.8578 18.8689C94.7534 19.8156 94.9801 20.7693 95.499 21.5667C96.018 22.364 96.7969 22.9554 97.7023 23.2395C98.6078 23.5237 99.5835 23.4829 100.462 23.1241C101.341 22.7654 102.068 22.111 102.519 21.2731C102.971 20.4352 103.117 19.4659 102.935 18.5312C102.752 17.5965 102.252 16.7545 101.519 16.1496C100.787 15.5446 99.8672 15.2143 98.9185 15.2151C98.3903 15.2026 97.8652 15.2994 97.3759 15.4993C96.8865 15.6993 96.4434 15.9982 96.074 16.3774H96.0713Z" fill="#FF5400"/>
<path d="M116.589 13.8214H118.225V20.0963C118.247 20.7221 118.145 21.3462 117.923 21.9316C117.702 22.5171 117.366 23.0521 116.935 23.5051C115.939 24.3651 114.669 24.8379 113.356 24.8379C112.042 24.8379 110.772 24.3651 109.776 23.5051C109.345 23.052 109.01 22.517 108.788 21.9315C108.567 21.3461 108.465 20.7221 108.487 20.0963V13.8214H110.123V19.9563C110.097 20.3992 110.158 20.8431 110.304 21.262C110.45 21.681 110.677 22.0667 110.972 22.3969C111.639 22.9623 112.483 23.2725 113.356 23.2725C114.229 23.2725 115.074 22.9623 115.741 22.3969C116.036 22.0668 116.263 21.681 116.409 21.262C116.555 20.8431 116.616 20.3992 116.589 19.9563L116.589 13.8214Z" fill="#FF5400"/>
<path d="M122.097 21.9088L123.718 21.442C123.75 21.7368 123.85 22.02 124.011 22.2689C124.172 22.5177 124.388 22.7253 124.643 22.875C125.278 23.2166 125.992 23.3797 126.711 23.3471C127.374 23.3842 128.035 23.2424 128.625 22.9363C128.83 22.83 129.002 22.6688 129.122 22.4705C129.242 22.2722 129.305 22.0446 129.304 21.8127C129.309 21.6473 129.274 21.4831 129.201 21.3345C129.129 21.186 129.021 21.0575 128.887 20.9605C128.75 20.8512 128.603 20.7552 128.447 20.6738C128.256 20.5795 128.057 20.5016 127.853 20.441C127.606 20.3637 127.387 20.299 127.197 20.247C127.006 20.1957 126.758 20.1336 126.449 20.0616C126.336 20.0303 126.249 20.0103 126.186 20.0003C125.678 19.8863 125.178 19.739 124.689 19.5595C124.258 19.3952 123.845 19.1874 123.455 18.9394C123.071 18.7045 122.755 18.3734 122.537 17.9784C122.321 17.5712 122.212 17.1154 122.22 16.6541C122.208 16.2247 122.304 15.7991 122.498 15.4162C122.692 15.0333 122.978 14.7051 123.331 14.4616C124.217 13.8775 125.265 13.5927 126.324 13.6487C127.433 13.6021 128.529 13.8997 129.464 14.5009C129.859 14.7666 130.18 15.13 130.394 15.556C130.609 15.982 130.711 16.4564 130.691 16.9335V17.1189H129.057V17.0415C129.07 16.7616 129.008 16.4832 128.878 16.2353C128.748 15.9874 128.554 15.7791 128.316 15.6319C127.707 15.2824 127.011 15.1158 126.31 15.1518C125.694 15.1158 125.081 15.2584 124.543 15.5625C124.352 15.6729 124.194 15.8321 124.084 16.024C123.974 16.2159 123.917 16.4335 123.918 16.6548C123.915 16.8593 123.968 17.0608 124.073 17.2363C124.168 17.3983 124.291 17.5425 124.436 17.6624C124.629 17.8051 124.842 17.9175 125.069 17.9958C125.351 18.1047 125.593 18.1874 125.794 18.2439C125.994 18.3003 126.285 18.375 126.666 18.4679C127.241 18.6128 127.697 18.7344 128.032 18.8327C128.424 18.9528 128.807 19.0976 129.181 19.2661C129.541 19.4127 129.874 19.6167 130.169 19.8702C130.411 20.104 130.61 20.3793 130.756 20.6831C130.925 21.0364 131.01 21.4247 131.003 21.8167C131.019 22.2583 130.92 22.6963 130.715 23.0876C130.511 23.479 130.209 23.81 129.838 24.0479C128.888 24.6211 127.789 24.8963 126.682 24.8381C125.587 24.8807 124.5 24.6208 123.542 24.0866C123.148 23.8622 122.813 23.5482 122.562 23.17C122.311 22.7918 122.152 22.3598 122.097 21.9088Z" fill="#FF5400"/>
<path d="M0.00538051 18.974C0.00538051 16.1273 0.0140126 13.2813 -0.000598584 10.4346C-0.0170487 10.0983 0.0638925 9.76454 0.232444 9.47353C0.400996 9.18252 0.64993 8.94678 0.949124 8.79485C4.05954 6.9993 7.1684 5.20129 10.2757 3.40085C12.0576 2.36993 13.8442 1.34768 15.6194 0.305422C15.9226 0.10644 16.2768 -2.54172e-05 16.639 -0.00109056C17.0012 -0.00215571 17.356 0.102223 17.6604 0.299419C22.5467 3.13523 27.4372 5.96459 32.332 8.78751C32.5621 8.90397 32.7642 9.06944 32.9241 9.27237C33.084 9.47529 33.1979 9.71079 33.2578 9.96246C33.2845 10.0909 33.2972 10.222 33.2957 10.3532C33.2957 16.1115 33.2957 21.8701 33.2957 27.6288C33.3041 27.9387 33.2259 28.2448 33.0699 28.5123C32.9138 28.7799 32.6863 28.9982 32.413 29.1425C31.4307 29.718 30.4425 30.2848 29.4562 30.8549C25.5599 33.1079 21.6636 35.3605 17.7673 37.6126C17.5627 37.7395 17.3452 37.8439 17.1184 37.924C16.8818 37.9955 16.6326 38.0147 16.3879 37.9801C16.1432 37.9456 15.9089 37.8582 15.7011 37.724C14.3852 36.9593 13.0678 36.1973 11.7488 35.4381C10.9718 34.9886 10.1987 34.5305 9.41631 34.0904C9.10667 33.9331 8.84904 33.6891 8.6745 33.3879C8.49995 33.0868 8.41597 32.7413 8.43272 32.3933C8.4367 30.7456 8.43272 29.0965 8.43272 27.4481C8.41128 27.0197 8.54879 26.5985 8.81866 26.2659C9.08853 25.9334 9.47161 25.7131 9.89384 25.6476C10.3202 25.5822 10.7556 25.6752 11.1185 25.909C12.3206 26.6074 13.5243 27.3038 14.7295 27.9982C15.2508 28.3003 15.7788 28.591 16.2895 28.9091C16.3904 28.9819 16.5114 29.021 16.6356 29.021C16.7597 29.021 16.8808 28.9819 16.9816 28.9091C19.1472 27.6444 21.3167 26.3874 23.4902 25.1382C24.0215 24.8315 24.5482 24.5174 25.0842 24.2206C25.178 24.1789 25.2568 24.109 25.3094 24.0205C25.3621 23.932 25.3862 23.8293 25.3784 23.7265C25.3718 20.5724 25.3718 17.4183 25.3784 14.2642C25.3874 14.1618 25.3651 14.059 25.3144 13.9696C25.2637 13.8803 25.1871 13.8086 25.0948 13.7641C22.3709 12.1966 19.6504 10.6233 16.9331 9.04424C16.8435 8.984 16.7377 8.95256 16.6299 8.95411C16.5221 8.95566 16.4173 8.99012 16.3294 9.05291C13.6219 10.6262 10.9104 12.193 8.19495 13.7534C8.08988 13.8082 8.00425 13.8942 7.94979 13.9997C7.89533 14.1053 7.87472 14.2251 7.89077 14.3429C7.89564 19.5624 7.89564 24.7826 7.89077 30.0034C7.89825 30.19 7.88624 30.3768 7.85491 30.5609C7.8011 30.8257 7.6861 31.0743 7.51917 31.2864C7.35225 31.4985 7.13806 31.6683 6.89384 31.7822C6.64962 31.896 6.3822 31.9507 6.11309 31.9418C5.84398 31.933 5.58071 31.8608 5.34445 31.7311C4.92936 31.5084 4.5282 31.2644 4.12041 31.0256C3.04937 30.4064 1.97811 29.7873 0.906622 29.1685C0.606561 29.0054 0.357715 28.7616 0.188016 28.4643C0.0525698 28.2123 -0.0147557 27.9291 -0.00724652 27.6428C0.00426533 24.7532 0.00847985 21.8636 0.00538051 18.974ZM6.17661 30.2088V29.7387C6.17661 24.5729 6.1753 19.4074 6.17264 14.2422C6.1539 13.8397 6.25095 13.4403 6.45222 13.0917C6.65349 12.7431 6.95046 12.46 7.30765 12.2764C10.0528 10.6995 12.7924 9.11537 15.5265 7.52387C15.8605 7.31015 16.2484 7.19662 16.6445 7.19662C17.0407 7.19662 17.4286 7.31015 17.7626 7.52387C20.4994 9.11315 23.239 10.6971 25.9814 12.2757C26.3434 12.4635 26.6439 12.7521 26.8468 13.1069C27.0498 13.4616 27.1466 13.8676 27.1257 14.2762C27.1191 17.4196 27.1191 20.5628 27.1257 23.7058C27.1459 24.1197 27.0467 24.5305 26.8399 24.8891C26.6332 25.2476 26.3277 25.5386 25.9602 25.727C23.2146 27.3014 20.479 28.8924 17.7394 30.4748C17.5992 30.5602 17.4508 30.6313 17.2964 30.6869C17.0105 30.7845 16.7066 30.8171 16.4066 30.7826C16.1067 30.748 15.8181 30.647 15.5617 30.4868C13.8862 29.5128 12.2088 28.5419 10.5294 27.5741C10.4285 27.5161 10.3269 27.4614 10.1788 27.3794V27.7588C10.1788 29.2419 10.1847 30.7262 10.1734 32.2099C10.1638 32.3108 10.1862 32.4123 10.2374 32.4997C10.2885 32.5871 10.3659 32.656 10.4584 32.6967C12.4251 33.8232 14.387 34.9584 16.344 36.1022C16.4295 36.1652 16.5326 36.1996 16.6386 36.2007C16.7446 36.2018 16.8483 36.1694 16.9351 36.1082C21.717 33.332 26.5041 30.5635 31.2966 27.8029C31.3929 27.7575 31.4726 27.683 31.5246 27.5898C31.5767 27.4967 31.5984 27.3895 31.5868 27.2834C31.5793 21.7554 31.5793 16.2273 31.5868 10.6993C31.5959 10.5931 31.5718 10.4866 31.5179 10.3947C31.464 10.3028 31.3829 10.23 31.286 10.1865C26.5147 7.43474 21.7455 4.6785 16.9783 1.91782C16.866 1.85113 16.7531 1.79112 16.6382 1.72777C11.6549 4.61025 6.68579 7.48408 1.73082 10.3492V27.6435C3.20058 28.489 4.65705 29.3305 6.17661 30.2088Z" fill="#FF5400"/>
<path d="M11.1651 18.982C11.1651 18.1585 11.1763 17.3343 11.1604 16.5107C11.1456 16.2965 11.1949 16.0828 11.3022 15.897C11.4094 15.7112 11.5696 15.562 11.7621 15.4685C13.198 14.6505 14.6288 13.8232 16.0545 12.9865C16.2286 12.8715 16.4323 12.8099 16.6407 12.8092C16.8491 12.8085 17.0532 12.8687 17.228 12.9825C18.6741 13.8272 20.1237 14.666 21.5769 15.4991C21.7532 15.5896 21.8998 15.7291 21.9991 15.9011C22.0984 16.0731 22.1462 16.2701 22.1367 16.4687C22.1336 18.15 22.1336 19.8309 22.1367 21.5113C22.1459 21.715 22.0959 21.9171 21.993 22.093C21.8901 22.2688 21.7387 22.411 21.5569 22.5022C20.1135 23.3295 18.6732 24.1628 17.236 25.0021C17.062 25.1172 16.8583 25.179 16.6499 25.1798C16.4415 25.1806 16.2374 25.1205 16.0625 25.0068C14.6257 24.167 13.1852 23.3339 11.7409 22.5075C11.5541 22.4145 11.3991 22.2678 11.2955 22.0862C11.1919 21.9045 11.1445 21.6961 11.1591 21.4873C11.1757 20.6517 11.1651 19.8169 11.1651 18.982ZM16.6529 13.7587C16.6189 13.771 16.5856 13.7852 16.5533 13.8014C15.1313 14.6222 13.7121 15.4458 12.2875 16.2607C12.2213 16.2967 12.1681 16.3526 12.1351 16.4205C12.1021 16.4884 12.0911 16.5649 12.1035 16.6394C12.1075 18.2098 12.1088 19.7802 12.1035 21.3506C12.0969 21.4358 12.1169 21.5211 12.1609 21.5943C12.2048 21.6676 12.2704 21.7253 12.3486 21.7593C13.2624 22.2781 14.169 22.8083 15.0789 23.3337L16.6423 24.2379C16.7498 24.1793 16.8448 24.1279 16.9391 24.0739C18.2674 23.3071 19.5891 22.5369 20.9207 21.7787C21.0081 21.7387 21.0808 21.6721 21.1285 21.5883C21.1762 21.5045 21.1964 21.4078 21.1863 21.3119C21.1762 19.7631 21.1762 18.2147 21.1863 16.6668C21.1955 16.5711 21.1743 16.4749 21.1259 16.3919C21.0775 16.309 21.0043 16.2434 20.9167 16.2046C19.5665 15.4351 18.2243 14.6543 16.878 13.8767C16.8023 13.8361 16.7279 13.7974 16.6529 13.7574V13.7587Z" fill="#FF5400"/>
</g>
<defs>
<clipPath id="clip0_10_566">
<rect width="131" height="38" fill="white"/>
</clipPath>
</defs>
</svg>
