<svg width="136" height="42" viewBox="0 0 136 42" fill="none" xmlns="http://www.w3.org/2000/svg">
<path d="M7.77348 17.0087H5.65601V30.8342H7.77348V17.0087Z" fill="#262729"/>
<path d="M17.2593 11.1519H0V13.2693H17.2593V11.1519Z" fill="#262729"/>
<path d="M11.5982 17.0087H9.48071V30.8342H11.5982V17.0087Z" fill="#262729"/>
<path d="M70.0957 30.8476H72.2323V22.5208L70.0957 20.1458V30.8476Z" fill="#262729"/>
<path d="M81.3464 11.1515V26.589L66.2332 9.79236V30.8478H68.3649V15.4056L83.4877 32.207V11.1515H81.3464Z" fill="#262729"/>
<path d="M52.3979 11.1421C46.966 11.1421 42.5498 15.5583 42.5498 20.9902C42.5498 26.4222 46.966 30.8384 52.3979 30.8384C57.8299 30.8384 62.2461 26.4222 62.2461 20.9902C62.2461 15.563 57.8299 11.1421 52.3979 11.1421ZM52.3979 28.7161C48.1392 28.7161 44.672 25.2538 44.672 20.9902C44.672 16.7267 48.1344 13.2643 52.3979 13.2643C56.6567 13.2643 60.1238 16.7267 60.1238 20.9902C60.1238 25.249 56.6567 28.7161 52.3979 28.7161Z" fill="#262729"/>
<path d="M52.3979 19.5739C51.6157 19.5739 50.9814 20.2081 50.9814 20.9903C50.9814 21.7724 51.6157 22.4067 52.3979 22.4067C53.18 22.4067 53.8143 21.7724 53.8143 20.9903C53.8143 20.2081 53.18 19.5739 52.3979 19.5739Z" fill="#262729"/>
<path d="M38.844 17.1941C38.844 13.8653 36.1542 11.1565 32.8493 11.1565H21.5847V30.8528H23.6879V13.293H32.8493C34.9715 13.293 36.6979 15.0433 36.6979 17.1941C36.6979 19.3355 34.9954 21.0762 32.8922 21.1L25.4191 21.0952V30.8528H27.5222V23.2318H32.4487L36.4738 30.848H38.9203L34.7188 22.9313C37.1462 22.1254 38.844 19.779 38.844 17.1941Z" fill="#262729"/>
<path d="M128.021 7.27937L99.321 2L114.425 40L135.466 14.3614L128.021 7.27937ZM127.564 9.60668L131.956 13.7796L119.947 15.9543L127.564 9.60668ZM117.339 15.5203L104.681 5.02359L125.365 8.82932L117.339 15.5203ZM116.432 17.3803L114.372 34.4393L103.246 6.43524L116.432 17.3803ZM118.34 18.2816L131.636 15.8732L116.39 34.4536L118.34 18.2816Z" fill="#EB0029"/>
</svg>
