<svg width="106" height="106" viewBox="0 0 106 106" fill="none" xmlns="http://www.w3.org/2000/svg">
<rect width="106" height="106" fill="white"/>
<path d="M40.0629 38.1667C42.853 36.5559 55.5553 47.5716 58.3454 49.1823L94.8967 55.0833C95.4805 56.8333 95.4805 73.75 94.3138 74.3333L58.3454 95.0422C55.5553 96.653 51.0317 96.653 48.2416 95.0422C48.2416 95.0422 22.4873 80.5823 14.3961 75.5C12.6467 74.3333 12.2998 73.9864 12.0634 73.75C10.3134 72 10.8961 58 11.4794 55.0833C12.0627 52.1667 40.0629 38.1667 40.0629 38.1667Z" fill="#E22440"/>
<path d="M47.8446 49.2498C50.6347 47.6391 55.1583 47.6391 57.9484 49.2499L92.6158 69.2633C95.4059 70.8741 95.4059 73.4856 92.6158 75.0963L57.9484 95.1098C55.1583 96.7205 50.6347 96.7205 47.8446 95.1098L13.1772 75.0963C10.3871 73.4856 10.3871 70.8741 13.1772 69.2633L47.8446 49.2498Z" fill="url(#paint0_linear_106_1567)" fill-opacity="0.2"/>
<path d="M48.1733 31.948C50.9867 30.2505 55.6842 30.2505 58.4976 31.948L93.2753 52.9314C95.9607 54.5517 95.9117 57.1136 93.165 58.6993L58.3874 78.7764C55.5973 80.3872 51.0736 80.3872 48.2835 78.7764L13.5059 58.6993C10.7592 57.1136 10.7102 54.5517 13.3956 52.9314L48.1733 31.948Z" fill="url(#paint1_linear_106_1567)"/>
<path d="M48.7887 33.2081C51.2998 31.7585 55.3711 31.7585 57.8822 33.2081L92.5496 53.2216C95.0607 54.6713 95.0607 57.0216 92.5496 58.4713L57.8822 78.4847C55.3711 79.9344 51.2998 79.9344 48.7887 78.4847L14.1213 58.4713C11.6102 57.0216 11.6102 54.6713 14.1213 53.2216L48.7887 33.2081Z" stroke="url(#paint2_linear_106_1567)" stroke-width="1.16667"/>
<path d="M48.7887 49.5415C51.2998 48.0918 55.3711 48.0918 57.8822 49.5415L92.5496 69.555C95.0607 71.0046 95.0607 73.355 92.5496 74.8046L57.8822 94.8181C55.3711 96.2678 51.2998 96.2678 48.7887 94.8181L14.1213 74.8046C11.6102 73.355 11.6102 71.0046 14.1213 69.555L48.7887 49.5415Z" stroke="url(#paint3_linear_106_1567)" stroke-width="1.16667"/>
<path d="M49.1278 17.4955C51.9179 15.8848 56.4416 15.8848 59.2317 17.4955L94.961 32.9166C97.7511 34.5273 96.6891 41.7313 93.899 43.342L59.2317 63.3555C56.4416 64.9662 51.9179 64.9662 49.1278 63.3555L14.4604 43.342C11.6703 41.7313 12.1275 35.8332 12.9079 34.4124L49.1278 17.4955Z" fill="#E22440"/>
<path d="M49.5772 17.8162L49.6064 17.8025L49.633 17.7872C52.1441 16.3375 56.2154 16.3375 58.7265 17.7872L58.7628 17.8081L58.8039 17.8259L94.4886 33.2277C95.0005 33.5391 95.4185 34.1689 95.6585 35.0618C95.8975 35.9508 95.94 37.0207 95.8099 38.1007C95.6798 39.18 95.3793 40.2536 94.9463 41.1491C94.5043 42.063 93.9542 42.7268 93.3938 43.0503L58.7265 63.0638C56.2154 64.5135 52.1441 64.5135 49.633 63.0638L14.9656 43.0503C14.4095 42.7293 13.9534 42.1495 13.6253 41.3697C13.3027 40.603 13.1263 39.6991 13.059 38.7884C12.9919 37.8795 13.0342 36.9757 13.141 36.2138C13.237 35.5288 13.382 34.9816 13.532 34.6514L49.5772 17.8162Z" fill="#E22440" stroke="url(#paint4_linear_106_1567)" stroke-width="1.16667"/>
<path d="M49.45 11.9165C52.2401 10.3057 56.7638 10.3058 59.5539 11.9165L94.2213 31.93C97.0114 33.5407 97.0114 36.1522 94.2213 37.7629L59.5539 57.7764C56.7638 59.3871 52.2401 59.3871 49.45 57.7764L14.7826 37.7629C11.9925 36.1522 11.9925 33.5407 14.7826 31.93L49.45 11.9165Z" fill="#282829"/>
<path d="M49.9552 12.2081C52.4663 10.7585 56.5376 10.7585 59.0487 12.2081L93.7161 32.2216C96.2272 33.6713 96.2272 36.0216 93.7161 37.4713L59.0487 57.4847C56.5376 58.9344 52.4663 58.9344 49.9552 57.4847L15.2878 37.4713C12.7767 36.0216 12.7767 33.6713 15.2878 32.2216L49.9552 12.2081Z" fill="#282829" stroke="url(#paint5_linear_106_1567)" stroke-width="1.16667"/>
<path d="M56.3068 15.6593C55.5177 15.2037 54.2374 15.2055 53.4521 15.6633L43.8679 21.2504C43.088 21.705 43.0911 22.438 43.8748 22.8904C44.6639 23.346 45.9443 23.3442 46.7296 22.8864L56.3138 17.2993C57.0936 16.8447 57.0905 16.1117 56.3068 15.6593Z" fill="url(#paint6_linear_106_1567)"/>
<rect width="32.8837" height="3.28837" rx="1.64418" transform="matrix(-0.866044 0.499967 0.866044 0.499967 73.0977 31.5435)" fill="url(#paint7_linear_106_1567)"/>
<rect width="32.8837" height="3.28837" rx="1.64418" transform="matrix(-0.866044 0.499967 0.866044 0.499967 86.1982 32.53)" fill="url(#paint8_linear_106_1567)"/>
<rect width="18.4149" height="3.28837" rx="1.64418" transform="matrix(-0.866044 0.499967 0.866044 0.499967 59.4282 22.3365)" fill="#E22440"/>
<rect width="13.1535" height="3.28837" rx="1.64418" transform="matrix(-0.866044 0.499967 0.866044 0.499967 41.2021 32.8589)" fill="url(#paint9_linear_106_1567)"/>
<rect width="7.89209" height="3.28837" rx="1.64418" transform="matrix(-0.866044 0.499967 0.866044 0.499967 61.1372 29.8993)" fill="#E22440"/>
<rect width="7.89209" height="3.28837" rx="1.64418" transform="matrix(-0.866044 0.499967 0.866044 0.499967 52.0239 35.1605)" fill="white"/>
<rect width="7.89209" height="3.28837" rx="1.64418" transform="matrix(-0.866044 0.499967 0.866044 0.499967 42.9102 40.4216)" fill="#E22440"/>
<path d="M35.6059 31.551C35.3856 31.8838 34.6444 31.9751 34.208 31.7232C33.959 31.5794 33.8889 31.362 34.0316 31.1762L36.3695 28.1323C36.4453 28.0434 36.2824 27.9486 36.1298 27.9939L30.8293 29.33C30.5073 29.4111 30.1321 29.3702 29.8837 29.2267C29.4464 28.9743 29.6044 28.5456 30.1818 28.4178L36.6883 26.9778C37.09 26.8889 37.5447 26.9448 37.8489 27.1204C38.1528 27.2958 38.2497 27.5581 38.0962 27.7898L35.6059 31.551Z" fill="url(#paint10_linear_106_1567)"/>
<path d="M31.5563 33.2759C31.9837 33.5226 31.8346 33.9413 31.2733 34.0707L24.4737 35.6384C24.0756 35.7302 23.621 35.6762 23.3179 35.5012C23.0145 35.3261 22.9212 35.0634 23.0807 34.8334L25.8045 30.9069C26.0277 30.5852 26.7479 30.5 27.1724 30.745C27.4197 30.8878 27.487 31.1043 27.3411 31.2878L24.7967 34.4891C24.7139 34.5811 24.8863 34.682 25.0432 34.6314L30.6142 33.1767C30.9334 33.0934 31.3086 33.1329 31.5563 33.2759Z" fill="url(#paint11_linear_106_1567)"/>
<defs>
<linearGradient id="paint0_linear_106_1567" x1="46.0412" y1="93.5834" x2="-18.4253" y2="67.8096" gradientUnits="userSpaceOnUse">
<stop stop-color="#282829"/>
<stop offset="1" stop-color="#282829" stop-opacity="0"/>
</linearGradient>
<linearGradient id="paint1_linear_106_1567" x1="46.4801" y1="77.25" x2="-17.9863" y2="51.4762" gradientUnits="userSpaceOnUse">
<stop stop-color="#282829"/>
<stop offset="1" stop-color="#282829" stop-opacity="0"/>
</linearGradient>
<linearGradient id="paint2_linear_106_1567" x1="52.8968" y1="76.6667" x2="44.2526" y2="49.5749" gradientUnits="userSpaceOnUse">
<stop stop-color="#1E1B1B"/>
<stop offset="1" stop-color="#1E1B1B" stop-opacity="0"/>
</linearGradient>
<linearGradient id="paint3_linear_106_1567" x1="51.7301" y1="98.8334" x2="53.3196" y2="76.3322" gradientUnits="userSpaceOnUse">
<stop stop-color="#FF7488"/>
<stop offset="1" stop-color="#FF7488" stop-opacity="0"/>
</linearGradient>
<linearGradient id="paint4_linear_106_1567" x1="52.3128" y1="66.1666" x2="50.9515" y2="28.4527" gradientUnits="userSpaceOnUse">
<stop stop-color="#FF4A65"/>
<stop offset="1" stop-color="#FF4A65" stop-opacity="0"/>
</linearGradient>
<linearGradient id="paint5_linear_106_1567" x1="62.8127" y1="91.8333" x2="22.0988" y2="39.5103" gradientUnits="userSpaceOnUse">
<stop stop-color="#2D2D2D"/>
<stop offset="1" stop-opacity="0"/>
</linearGradient>
<linearGradient id="paint6_linear_106_1567" x1="44.6237" y1="20.7519" x2="30.6235" y2="31.7752" gradientUnits="userSpaceOnUse">
<stop stop-color="white"/>
<stop offset="1" stop-color="white" stop-opacity="0"/>
</linearGradient>
<linearGradient id="paint7_linear_106_1567" x1="16.4418" y1="-1.27009e-06" x2="36.1114" y2="-10.2446" gradientUnits="userSpaceOnUse">
<stop stop-color="white"/>
<stop offset="1" stop-color="white" stop-opacity="0"/>
</linearGradient>
<linearGradient id="paint8_linear_106_1567" x1="16.4418" y1="-3.67504e-06" x2="42.7488" y2="-5.2614" gradientUnits="userSpaceOnUse">
<stop stop-color="#E22440"/>
<stop offset="1" stop-color="#E22440" stop-opacity="0"/>
</linearGradient>
<linearGradient id="paint9_linear_106_1567" x1="6.57674" y1="-1.27009e-06" x2="16.1628" y2="-1.9971" gradientUnits="userSpaceOnUse">
<stop stop-color="white"/>
<stop offset="1" stop-color="white" stop-opacity="0"/>
</linearGradient>
<linearGradient id="paint10_linear_106_1567" x1="27.4913" y1="29.5258" x2="20.5505" y2="38.9303" gradientUnits="userSpaceOnUse">
<stop stop-color="white"/>
<stop offset="1" stop-color="white" stop-opacity="0"/>
</linearGradient>
<linearGradient id="paint11_linear_106_1567" x1="27.4913" y1="29.5258" x2="20.5505" y2="38.9303" gradientUnits="userSpaceOnUse">
<stop stop-color="white"/>
<stop offset="1" stop-color="white" stop-opacity="0"/>
</linearGradient>
</defs>
</svg>
