<svg width="106" height="106" viewBox="0 0 106 106" fill="none" xmlns="http://www.w3.org/2000/svg">
<rect x="-0.350013" y="-0.357013" width="55.0005" height="55.0005" rx="9.5" transform="matrix(-0.968432 0.24928 0.268406 -0.963306 59.6393 55.3318)" fill="#E22440" stroke="url(#paint0_linear_102_1424)"/>
<path d="M73.9939 61.103C74.1142 66.5186 68.053 73.5501 61.8988 75.1342L27.8741 83.8924C23.8036 84.9402 20.9584 83.2027 20.8787 79.6208L19.6789 25.6408C19.5838 21.3654 24.369 15.8142 29.2276 14.5635L65.8494 5.13688C69.9198 4.08912 72.7651 5.82654 72.8447 9.40845L73.9939 61.103Z" fill="url(#paint1_linear_102_1424)" stroke="url(#paint2_linear_102_1424)"/>
<path d="M75.3451 63.8162C73.9369 68.8704 68.6762 74.0278 63.5952 75.3357L28.7312 84.3099C23.6501 85.6178 20.6727 82.5809 22.0809 77.5267L32.0121 41.8839C33.2721 37.3617 37.9789 32.7471 42.5252 31.5769L78.3576 22.3534C83.4387 21.0455 86.4161 24.0825 85.0078 29.1367L75.3451 63.8162Z" fill="#E22440" stroke="url(#paint3_linear_102_1424)"/>
<path d="M86.8747 77.8164C86.992 83.2319 80.9319 90.2601 74.7795 91.8438L40.752 100.603C36.6799 101.651 33.8342 99.9116 33.7565 96.3272L32.593 42.6069C32.5005 38.3314 37.2847 32.7829 42.1419 31.5326L78.7652 22.1055C82.8373 21.0574 85.683 22.7966 85.7607 26.381L86.8747 77.8164Z" fill="url(#paint4_linear_102_1424)" stroke="url(#paint5_linear_102_1424)"/>
<rect x="-0.525019" y="-0.53552" width="54.5005" height="54.5005" rx="9.25" transform="matrix(-0.968432 0.24928 0.268406 -0.963306 84.2919 89.4094)" fill="#E22440" stroke="url(#paint6_linear_102_1424)" stroke-width="1.5"/>
<circle r="1.5" transform="matrix(0.962455 -0.27144 -0.25342 0.967356 58.358 73.9605)" fill="white"/>
<circle r="1.5" transform="matrix(0.962455 -0.27144 -0.25342 0.967356 63.1702 72.6033)" fill="white"/>
<circle r="1.5" transform="matrix(0.962455 -0.27144 -0.25342 0.967356 66.7154 76.0828)" fill="white"/>
<circle r="1.5" transform="matrix(0.962455 -0.27144 -0.25342 0.967356 72.7948 69.8888)" fill="white"/>
<circle r="1.5" transform="matrix(0.962455 -0.27144 -0.25342 0.967356 77.607 68.5317)" fill="white"/>
<circle r="1.5" transform="matrix(0.962455 -0.27144 -0.25342 0.967356 61.9032 77.4401)" fill="white"/>
<circle r="1.5" transform="matrix(0.962455 -0.27144 -0.25342 0.967356 60.6361 82.2768)" fill="white"/>
<circle r="1.5" transform="matrix(0.962455 -0.27144 -0.25342 0.967356 55.8238 83.6341)" fill="white"/>
<circle r="1.5" transform="matrix(0.962455 -0.27144 -0.25342 0.967356 71.5277 74.7256)" fill="white"/>
<circle r="1.5" transform="matrix(0.962455 -0.27144 -0.25342 0.967356 70.2606 79.5624)" fill="white"/>
<circle r="1.5" transform="matrix(0.962455 -0.27144 -0.25342 0.967356 75.0728 78.2053)" fill="white"/>
<circle r="1.5" transform="matrix(0.962455 -0.27144 -0.25342 0.967356 59.6251 69.1237)" fill="white"/>
<circle r="1.5" transform="matrix(0.962455 -0.27144 -0.25342 0.967356 64.4373 67.7665)" fill="white"/>
<circle r="1.5" transform="matrix(0.962455 -0.27144 -0.25342 0.967356 78.8741 63.6949)" fill="white"/>
<circle r="1.5" transform="matrix(0.962455 -0.27144 -0.25342 0.967356 75.3289 60.2153)" fill="white"/>
<circle r="1.5" transform="matrix(0.962455 -0.27144 -0.25342 0.967356 80.1412 58.8581)" fill="white"/>
<circle r="1.5" transform="matrix(0.962455 -0.27144 -0.25342 0.967356 69.2496 66.4094)" fill="white"/>
<circle r="1.5" transform="matrix(0.962455 -0.27144 -0.25342 0.967356 60.8922 64.2869)" fill="white"/>
<circle r="1.5" transform="matrix(0.962455 -0.27144 -0.25342 0.967356 70.5167 61.5726)" fill="white"/>
<defs>
<linearGradient id="paint0_linear_102_1424" x1="50.1769" y1="48.1033" x2="-1.41233" y2="47.4635" gradientUnits="userSpaceOnUse">
<stop stop-color="#FF435F"/>
<stop offset="1" stop-color="#FC2E4C" stop-opacity="0"/>
</linearGradient>
<linearGradient id="paint1_linear_102_1424" x1="41.6496" y1="39.7223" x2="29.4926" y2="11.7424" gradientUnits="userSpaceOnUse">
<stop stop-color="#282829"/>
<stop offset="1" stop-color="#282829" stop-opacity="0"/>
</linearGradient>
<linearGradient id="paint2_linear_102_1424" x1="12.0272" y1="81.7887" x2="6.62334" y2="27.189" gradientUnits="userSpaceOnUse">
<stop stop-color="#0D0C0C"/>
<stop offset="1" stop-color="#1B1A1A" stop-opacity="0"/>
</linearGradient>
<linearGradient id="paint3_linear_102_1424" x1="37.4636" y1="39.4945" x2="80.1091" y2="51.8688" gradientUnits="userSpaceOnUse">
<stop stop-color="#FF435F"/>
<stop offset="1" stop-color="#FC2E4C" stop-opacity="0"/>
</linearGradient>
<linearGradient id="paint4_linear_102_1424" x1="48.9489" y1="60.3846" x2="21.7355" y2="4.59907" gradientUnits="userSpaceOnUse">
<stop stop-color="#282829"/>
<stop offset="1" stop-color="#282829" stop-opacity="0"/>
</linearGradient>
<linearGradient id="paint5_linear_102_1424" x1="24.9998" y1="98.5" x2="19.5977" y2="44.1195" gradientUnits="userSpaceOnUse">
<stop stop-color="#0D0C0C"/>
<stop offset="1" stop-color="#1B1A1A" stop-opacity="0"/>
</linearGradient>
<linearGradient id="paint6_linear_102_1424" x1="50.1769" y1="48.1033" x2="-1.41233" y2="47.4635" gradientUnits="userSpaceOnUse">
<stop stop-color="#FF435F"/>
<stop offset="1" stop-color="#FC2E4C" stop-opacity="0"/>
</linearGradient>
</defs>
</svg>
