<svg width="375" height="926" viewBox="0 0 375 926" fill="none" xmlns="http://www.w3.org/2000/svg">
<g clip-path="url(#clip0_1987_1641)">
<rect width="375" height="926" fill="#F2F2F2"/>
<rect x="-4" y="-5" width="383" height="1009" fill="#282829"/>
<path fill-rule="evenodd" clip-rule="evenodd" d="M-184.992 938.813C-84.7749 922.066 30.2872 911.941 161.961 908.855C193.83 897.191 231.967 884.401 237.225 884.759C248.235 892.217 268.832 905.312 271.674 905.357C272.446 905.37 276.281 904.491 280.762 903.465C287.68 901.88 296.137 899.943 297.244 900.385L314.266 908.34C314.279 908.341 314.292 908.341 314.305 908.341C325.401 904.843 333.566 902.623 335.799 902.775C349.214 900.851 377.508 898.92 380.349 898.965C381.428 898.982 385.44 904.627 389.139 909.831C389.226 909.954 389.313 910.076 389.4 910.198C483.486 913.39 576.576 919.807 668.514 929.32C668.514 929.32 642.395 998.932 618.331 1094H-204.739C-205.899 1021.55 -200.239 963.863 -184.992 938.813Z" fill="#F2F2F2"/>
</g>
<defs>
<clipPath id="clip0_1987_1641">
<rect width="375" height="926" fill="white"/>
</clipPath>
</defs>
</svg>
