<svg width="59" height="60" viewBox="0 0 59 60" fill="none" xmlns="http://www.w3.org/2000/svg">
<ellipse cx="29.4845" cy="29.9375" rx="29.2623" ry="29.5" fill="#E22440" fill-opacity="0.8"/>
<path d="M35.8282 27.9009L26.6965 22.8154C26.3983 22.6472 26.0602 22.56 25.7168 22.5626C25.3733 22.5651 25.0366 22.6575 24.7411 22.8302C24.4531 22.9928 24.2138 23.2277 24.0476 23.5111C23.8814 23.7945 23.7941 24.1162 23.7947 24.4437V34.6146C23.7941 34.9421 23.8814 35.2639 24.0476 35.5472C24.2138 35.8306 24.4531 36.0655 24.7411 36.2281C25.0367 36.4007 25.3733 36.493 25.7168 36.4956C26.0602 36.4982 26.3982 36.411 26.6965 36.2429L35.8282 31.1574C36.1227 30.9964 36.3682 30.7604 36.5391 30.4741C36.71 30.1878 36.8001 29.8615 36.8001 29.5292C36.8001 29.1968 36.71 28.8705 36.5391 28.5842C36.3682 28.2979 36.1227 28.062 35.8282 27.9009Z" fill="white"/>
</svg>
