<svg width="109" height="30" viewBox="0 0 109 30" fill="none" xmlns="http://www.w3.org/2000/svg">
<path d="M8.37924 0H21.6083C26.2504 0 29.9875 3.73714 29.9875 8.37924V21.6208C29.9875 26.2629 26.2504 30 21.6083 30H8.37924C3.73714 30 0 26.2629 0 21.6208V8.37924C0 3.73714 3.73714 0 8.37924 0Z" fill="url(#paint0_linear_1107_1560)"/>
<path d="M22.2299 20.6857C21.7443 20.6422 21.6655 20.8598 20.9503 20.8475C20.0279 20.8324 18.8034 20.7142 17.9543 20.2769C17.1053 19.8397 16.2838 18.945 14.8042 17.2405C14.5042 16.0484 13.6448 15.5261 12.9837 14.7706C11.3143 12.1223 9.55369 11.2779 8.37214 11.1716C7.51629 10.4238 6.97946 10.5443 7.84364 9.50949C8.40238 9.55959 7.78939 9.12125 8.46657 9.14613C9.21303 9.17353 10.6885 9.07032 11.787 9.65692C12.8854 10.2435 13.7063 10.9895 15.186 12.6941C15.5964 13.737 16.1826 14.4289 17.0053 15.1637C18.6747 17.8121 20.4364 18.6566 21.618 18.7629C22.6319 19.4017 23.0629 19.2307 22.1989 20.3344L22.2299 20.6857Z" fill="white" fill-opacity="0.496124"/>
<path d="M8.15536 9.13205C7.37739 9.13205 6.48914 9.13767 5.72236 9.36687C5.06064 9.56364 4.07619 9.942 3.42088 10.9138C2.68721 12.002 2.70165 13.5305 2.77187 15.5461V17.1214C2.77187 18.2799 3.18614 19.303 4.01447 19.9327C4.01558 19.9332 4.01784 19.9322 4.01896 19.9327C4.84412 20.563 5.9788 20.809 7.39016 20.809C8.78133 20.809 9.9985 20.6872 10.9429 20.3034C12.099 19.8337 13.3544 18.8466 14.9805 17.2812C15.7947 16.4002 16.3248 15.7861 17.0146 14.9841C18.9141 12.4956 20.7432 11.812 21.9295 11.8118C23.1158 11.8116 23.5333 11.8899 23.7689 11.9683C23.9983 12.0447 24.0874 12.1265 24.1516 12.2293L24.1554 12.233L24.1591 12.2368C24.2214 12.334 24.2884 12.5302 24.2884 12.8662V13.4576H22.9686C21.8259 13.4576 20.8858 13.5586 20.1203 13.7914C19.3505 14.0253 18.7079 14.4322 18.295 15.0296C17.8854 15.6222 17.7123 16.3619 17.7123 17.1919C17.7123 18.2849 18.0865 19.2627 18.8375 19.9228L18.8412 19.9266C19.5953 20.5813 20.6269 20.8678 21.8308 20.868H21.8319C22.6099 20.868 23.4982 20.8624 24.265 20.6332C24.9267 20.4364 25.9111 20.058 26.5664 19.0862C27.3001 17.998 27.2857 16.4695 27.2154 14.4539V12.8787C27.2154 11.7202 26.8012 10.6971 25.9729 10.0674C25.9717 10.0669 25.9691 10.0679 25.9672 10.0674C25.1421 9.43711 24.0074 9.19112 22.596 9.19112C21.2049 9.19112 19.9877 9.31289 19.0433 9.69664C17.8872 10.1664 16.6318 11.1535 15.0056 12.7189C14.2396 13.5709 13.6715 14.2128 12.9727 15.016C11.0731 17.5045 9.24297 18.188 8.05664 18.1883C6.87027 18.1885 6.45278 18.1102 6.21715 18.0317C5.98784 17.9554 5.89866 17.8736 5.83448 17.7708L5.83111 17.7671L5.82773 17.7633C5.76539 17.6661 5.69836 17.4698 5.69836 17.1337V16.5423H7.01814C8.16078 16.5423 9.10088 16.4414 9.86643 16.2086C10.6362 15.9747 11.2788 15.5678 11.6917 14.9704C12.1013 14.3778 12.2744 13.6381 12.2744 12.8081C12.2744 11.7151 11.9002 10.7373 11.1493 10.0771L11.1447 10.0734C10.3907 9.41872 9.35905 9.13216 8.15514 9.13199L8.15536 9.13205ZM7.7966 11.7531C8.40332 11.7531 8.77382 11.8852 8.99463 12.0619C9.21301 12.2424 9.30663 12.4291 9.30663 12.8392C9.30663 13.1937 9.23463 13.3896 9.14901 13.5056C9.06464 13.6199 8.90484 13.742 8.57717 13.835H8.57379C8.23679 13.9343 7.7115 14.0003 7.03011 14.0003H5.69294V13.0327C5.69294 12.5764 5.80314 12.3639 6.12561 12.1348C6.43859 11.9136 6.98206 11.7532 7.79654 11.7532L7.7966 11.7531ZM22.9578 15.9995H24.2949V16.967C24.2949 17.4234 24.1848 17.6359 23.8623 17.865C23.5493 18.0862 23.0058 18.2466 22.1914 18.2466C21.5846 18.2466 21.2141 18.1145 20.9933 17.9378C20.7749 17.7573 20.6813 17.5706 20.6813 17.1605C20.6813 16.806 20.7534 16.6101 20.839 16.4941C20.9234 16.3798 21.0831 16.2577 21.4108 16.1647H21.4145C21.7516 16.0654 22.2769 15.9994 22.9583 15.9994L22.9578 15.9995Z" fill="white"/>
<path d="M33.0305 18.539H35.4766V20.8438H33.0305V18.539Z" fill="black"/>
<path d="M47.0543 20.6263H45.3801V10.9617H41.2708V20.6263H39.6075V10.9617H37.6289V9.63539H39.6075V8.28737C39.6075 7.65684 39.6473 7.14955 39.727 6.76542C39.8066 6.37406 39.9153 6.07326 40.0531 5.86308C40.1981 5.6529 40.3793 5.47897 40.5967 5.34125C40.8359 5.18906 41.1257 5.07673 41.4664 5.00426C41.8143 4.9246 42.2745 4.88479 42.847 4.88479C43.1369 4.88479 43.3688 4.89566 43.5428 4.9174C43.724 4.93914 43.9305 4.96813 44.1625 5.00446V6.35248C44.0973 6.34547 43.9559 6.33097 43.7385 6.30895C43.5283 6.27992 43.2312 6.26543 42.847 6.26543C42.2817 6.26543 41.8976 6.34153 41.6947 6.49372C41.5425 6.60971 41.4338 6.75103 41.3685 6.91771C41.3106 7.07716 41.2817 7.31267 41.2817 7.6243V9.63552H47.0543L47.0543 20.6263ZM46.2064 7.74384C45.8367 7.74384 45.5758 7.67497 45.4236 7.53724C45.2787 7.39952 45.2062 7.15675 45.2062 6.80889C45.2062 6.43926 45.2787 6.16747 45.4236 5.99354C45.5686 5.8196 45.8295 5.73262 46.2064 5.73262C46.6195 5.73262 46.8985 5.8232 47.0435 6.00439C47.1667 6.16383 47.2284 6.43202 47.2284 6.80889C47.2284 7.04805 47.1994 7.23646 47.1415 7.37417C47.0836 7.50461 46.9821 7.59884 46.8371 7.65685C46.6921 7.71477 46.482 7.74371 46.2066 7.74371L46.2064 7.74384Z" fill="black"/>
<path d="M50.718 9.63539H52.0878L52.2182 11.19C52.5806 10.5232 53.059 10.0522 53.6533 9.77676C54.2476 9.49412 55.0593 9.35278 56.0884 9.35278C57.0306 9.35278 57.7844 9.50498 58.3497 9.80938C58.9222 10.1138 59.339 10.5994 59.5999 11.2662C59.8608 11.9329 59.9912 12.8171 59.9912 13.9187V20.6263H58.3171V13.9187C58.3171 13.1505 58.2265 12.538 58.0453 12.0814C57.8641 11.6176 57.5742 11.2806 57.1756 11.0704C56.7842 10.8602 56.2587 10.7552 55.5992 10.7552C54.8237 10.7552 54.2004 10.8639 53.7294 11.0813C53.2655 11.2988 52.9249 11.643 52.7075 12.1141C52.4973 12.5852 52.3922 13.2157 52.3922 14.0057V20.6263H50.718L50.718 9.63539Z" fill="black"/>
<path d="M72.1672 20.8872C71.6382 20.8872 71.2105 20.7459 70.8844 20.4633C70.5655 20.1806 70.4061 19.8074 70.4061 19.3435C70.0437 19.8363 69.5327 20.2168 68.8732 20.485C68.2209 20.7459 67.4672 20.8764 66.612 20.8764C65.3871 20.8764 64.445 20.5901 63.7854 20.0175C63.1259 19.4377 62.7961 18.6188 62.7961 17.5606C62.7961 16.7416 62.9665 16.0857 63.3071 15.5929C63.6478 15.1001 64.1877 14.7413 64.9269 14.5166C65.6662 14.292 66.6518 14.1797 67.8839 14.1797H70.1669V12.712C70.1669 12.2337 70.0763 11.8532 69.8951 11.5705C69.7139 11.2806 69.4277 11.0704 69.0363 10.94C68.6449 10.8095 68.1231 10.7443 67.4708 10.7443C66.7968 10.7443 66.2568 10.806 65.851 10.9292C65.4451 11.0525 65.148 11.2519 64.9596 11.5272C64.7711 11.7954 64.6769 12.1541 64.6769 12.6035H63.1658C63.1658 11.5091 63.5173 10.701 64.2203 10.1792C64.9233 9.65735 66.0068 9.39644 67.4708 9.39644C68.9566 9.39644 70.0546 9.66822 70.7648 10.2118C71.4823 10.7554 71.8411 11.5924 71.8411 12.723V18.3326C71.8411 18.7747 71.8954 19.0755 72.0041 19.235C72.1201 19.3944 72.3375 19.4741 72.6564 19.4741C72.7724 19.4741 72.863 19.4706 72.9282 19.4636V20.7899C72.7978 20.8334 72.6818 20.8588 72.5803 20.866C72.486 20.8805 72.3483 20.8877 72.1672 20.8877L72.1672 20.8872ZM67.0142 19.5501C68.0289 19.5501 68.808 19.358 69.3516 18.9739C69.9024 18.5825 70.1778 18.0281 70.1778 17.3106V15.419H67.873C67.0613 15.419 66.4091 15.4914 65.9162 15.6364C65.4307 15.7741 65.0755 15.9952 64.8508 16.2996C64.6261 16.604 64.5138 17.0134 64.5138 17.528C64.5138 18.173 64.7312 18.6731 65.1661 19.0282C65.6009 19.3761 66.217 19.5501 67.0142 19.5501V19.5501Z" fill="black"/>
<path d="M75.5479 9.63539H76.9177L77.0481 11.19C77.4105 10.5232 77.8888 10.0522 78.4831 9.77676C79.0774 9.49412 79.8891 9.35278 80.9183 9.35278C81.8605 9.35278 82.6142 9.50498 83.1795 9.80938C83.7521 10.1138 84.1688 10.5994 84.4297 11.2662C84.6906 11.9329 84.8211 12.8171 84.8211 13.9187V20.6263H83.1469V13.9187C83.1469 13.1505 83.0563 12.538 82.8751 12.0814C82.6939 11.6176 82.404 11.2806 82.0054 11.0704C81.614 10.8602 81.0886 10.7552 80.4291 10.7552C79.6536 10.7552 79.0303 10.8639 78.5592 11.0813C78.0954 11.2988 77.7547 11.643 77.5373 12.1141C77.3271 12.5852 77.222 13.2157 77.222 14.0057V20.6263H75.5479L75.5479 9.63539Z" fill="black"/>
<path d="M92.8336 20.8764C91.6015 20.8764 90.6159 20.6843 89.8766 20.3002C89.1446 19.9088 88.6083 19.2927 88.2677 18.452C87.9343 17.6113 87.7676 16.4916 87.7676 15.0928C87.7676 13.7085 87.9379 12.5997 88.2786 11.7662C88.6192 10.9327 89.1555 10.3275 89.8875 9.95068C90.6267 9.56655 91.6124 9.37448 92.8445 9.37448C94.2795 9.37448 95.3449 9.67167 96.0407 10.266C96.7437 10.853 97.1061 11.7626 97.1278 12.9946H95.421C95.3775 12.4438 95.2615 12.0054 95.0731 11.6792C94.8919 11.3531 94.6165 11.1139 94.2469 10.9617C93.8773 10.8095 93.3953 10.7334 92.801 10.7334C91.9385 10.7334 91.2681 10.8675 90.7898 11.1357C90.3187 11.4039 89.9781 11.8532 89.7679 12.4837C89.565 13.107 89.4635 13.9839 89.4635 15.1145C89.4635 16.3394 89.5577 17.2635 89.7462 17.8867C89.9346 18.51 90.268 18.9486 90.7463 19.2022C91.2247 19.4486 91.9277 19.5718 92.8554 19.5718C93.4642 19.5718 93.9534 19.4957 94.323 19.3435C94.6926 19.1841 94.9644 18.9376 95.1383 18.6043C95.3123 18.2636 95.4065 17.8143 95.421 17.2562H97.1278C97.1208 18.1332 96.9722 18.8361 96.6821 19.3652C96.3922 19.887 95.9356 20.2712 95.3123 20.5176C94.689 20.7568 93.8628 20.8764 92.8336 20.8764V20.8764Z" fill="black"/>
<path d="M103.922 20.8764C102.726 20.8764 101.77 20.6843 101.052 20.3002C100.335 19.9161 99.8092 19.3073 99.4758 18.4738C99.1496 17.6403 98.9866 16.5278 98.9866 15.1363C98.9866 13.8318 99.1496 12.7591 99.4758 11.9184C99.8019 11.0705 100.324 10.4363 101.041 10.0159C101.759 9.59556 102.705 9.38539 103.879 9.38539C105.002 9.38539 105.901 9.55207 106.575 9.88545C107.256 10.2188 107.752 10.7479 108.064 11.4727C108.376 12.1902 108.532 13.1505 108.532 14.3536L108.521 15.4081H100.683C100.683 16.4155 100.792 17.2236 101.009 17.8324C101.234 18.434 101.582 18.876 102.053 19.1587C102.531 19.4341 103.169 19.5718 103.966 19.5718C104.611 19.5718 105.129 19.5066 105.521 19.3761C105.919 19.2457 106.213 19.0392 106.401 18.7565C106.597 18.4666 106.706 18.0825 106.727 17.6041H108.434C108.434 18.7202 108.064 19.5465 107.325 20.0828C106.593 20.6119 105.459 20.8764 103.922 20.8764H103.922ZM106.825 14.1687C106.847 13.3353 106.76 12.6685 106.564 12.1684C106.368 11.6684 106.049 11.3023 105.607 11.0704C105.165 10.8385 104.574 10.7226 103.835 10.7226C103.06 10.7226 102.451 10.8277 102.009 11.0379C101.574 11.248 101.255 11.5995 101.052 12.0924C100.849 12.5852 100.733 13.2773 100.704 14.1687H106.825Z" fill="black"/>
<defs>
<linearGradient id="paint0_linear_1107_1560" x1="1.50062e-05" y1="1.11161e-05" x2="37.1938" y2="39.0876" gradientUnits="userSpaceOnUse">
<stop stop-color="#001486"/>
<stop offset="1" stop-color="#7E00E6"/>
</linearGradient>
</defs>
</svg>
