<svg width="138" height="64" viewBox="0 0 138 64" fill="none" xmlns="http://www.w3.org/2000/svg">
<rect width="137.365" height="64" fill="white"/>
<path d="M12.8537 13.75H28.9491C34.597 13.75 39.1438 18.2969 39.1438 23.9447V40.0553C39.1438 45.7031 34.597 50.25 28.9491 50.25H12.8537C7.20579 50.25 2.65894 45.7031 2.65894 40.0553V23.9447C2.65894 18.2969 7.20579 13.75 12.8537 13.75Z" fill="url(#paint0_linear_870_5074)"/>
<path d="M29.7052 38.9176C29.1144 38.8646 29.0186 39.1295 28.1483 39.1144C27.0262 39.0961 25.5363 38.9523 24.5033 38.4203C23.4703 37.8883 22.4709 36.7997 20.6706 34.7259C20.3057 33.2755 19.26 32.6401 18.4557 31.7209C16.4246 28.4987 14.2825 27.4714 12.845 27.3421C11.8037 26.4323 11.1505 26.5789 12.202 25.3199C12.8818 25.3808 12.136 24.8475 12.9599 24.8778C13.8681 24.9111 15.6632 24.7856 16.9997 25.4993C18.3362 26.2129 19.3349 27.1206 21.1351 29.1944C21.6345 30.4634 22.3477 31.3051 23.3487 32.1992C25.3798 35.4214 27.5232 36.4489 28.9608 36.5782C30.1944 37.3554 30.7187 37.1474 29.6675 38.4902L29.7052 38.9176Z" fill="white" fill-opacity="0.496124"/>
<path d="M12.5813 24.8607C11.6347 24.8607 10.554 24.8675 9.62112 25.1464C8.81603 25.3858 7.61828 25.8461 6.82099 27.0285C5.92836 28.3524 5.94593 30.2122 6.03135 32.6645V34.581C6.03135 35.9906 6.53538 37.2353 7.54318 38.0015C7.54454 38.0021 7.54728 38.0009 7.54865 38.0015C8.55259 38.7683 9.93312 39.0676 11.6503 39.0676C13.3429 39.0676 14.8238 38.9194 15.9728 38.4525C17.3794 37.881 18.9067 36.68 20.8852 34.7755C21.8758 33.7035 22.5208 32.9564 23.36 31.9806C25.6711 28.953 27.8965 28.1213 29.3398 28.1211C30.7832 28.1208 31.2911 28.216 31.5778 28.3115C31.8568 28.4044 31.9653 28.504 32.0434 28.6289L32.0479 28.6335L32.0525 28.6381C32.1283 28.7563 32.2098 28.9951 32.2098 29.4039V30.1234H30.604C29.2138 30.1234 28.07 30.2463 27.1386 30.5295C26.202 30.8141 25.4202 31.3091 24.9178 32.036C24.4195 32.757 24.2088 33.657 24.2088 34.6668C24.2088 35.9966 24.6642 37.1862 25.5778 37.9894L25.5824 37.994C26.4998 38.7906 27.755 39.1392 29.2198 39.1394H29.2211C30.1676 39.1394 31.2484 39.1326 32.1813 38.8537C32.9863 38.6143 34.1841 38.1539 34.9814 36.9715C35.874 35.6476 35.8565 33.7879 35.771 31.3356V29.4191C35.771 28.0096 35.267 26.7648 34.2592 25.9986C34.2579 25.998 34.2546 25.9992 34.2524 25.9986C33.2484 25.2318 31.8679 24.9325 30.1507 24.9325C28.4582 24.9325 26.9773 25.0807 25.8282 25.5476C24.4216 26.1191 22.8942 27.3201 20.9157 29.2246C19.9838 30.2612 19.2926 31.0422 18.4423 32.0195C16.1312 35.0471 13.9045 35.8788 12.4612 35.879C11.0177 35.8793 10.5098 35.7841 10.2231 35.6886C9.94412 35.5957 9.83562 35.4962 9.75754 35.3712L9.75343 35.3666L9.74932 35.3621C9.67347 35.2438 9.59192 35.0049 9.59192 34.5961V33.8765H11.1977C12.5879 33.8765 13.7317 33.7537 14.6631 33.4705C15.5996 33.1859 16.3815 32.6908 16.8839 31.9639C17.3822 31.243 17.5928 30.343 17.5928 29.3331C17.5928 28.0033 17.1375 26.8137 16.2238 26.0105L16.2184 26.006C15.3009 25.2094 14.0458 24.8608 12.581 24.8606L12.5813 24.8607ZM12.1448 28.0496C12.883 28.0496 13.3337 28.2104 13.6024 28.4253C13.8681 28.6449 13.982 28.8721 13.982 29.371C13.982 29.8023 13.8944 30.0407 13.7902 30.1818C13.6876 30.3208 13.4931 30.4694 13.0945 30.5826H13.0904C12.6803 30.7033 12.0412 30.7837 11.2122 30.7837H9.58532V29.6065C9.58532 29.0513 9.7194 28.7928 10.1117 28.514C10.4925 28.2449 11.1538 28.0497 12.1447 28.0497L12.1448 28.0496ZM30.5909 33.2161H32.2178V34.3932C32.2178 34.9484 32.0837 35.207 31.6914 35.4858C31.3106 35.7548 30.6493 35.95 29.6584 35.95C28.9202 35.95 28.4695 35.7893 28.2008 35.5744C27.9351 35.3547 27.8212 35.1276 27.8212 34.6287C27.8212 34.1973 27.9089 33.959 28.013 33.8178C28.1157 33.6788 28.31 33.5302 28.7087 33.4171H28.7133C29.1233 33.2963 29.7624 33.2159 30.5915 33.2159L30.5909 33.2161Z" fill="white"/>
<path d="M42.8459 36.3058H45.822V39.1099H42.8459V36.3058Z" fill="black"/>
<path d="M59.9083 38.8454H57.8714V27.0868H52.8716V38.8454H50.8479V27.0868H48.4407V25.4731H50.8479V23.833C50.8479 23.0658 50.8964 22.4486 50.9933 21.9813C51.0902 21.5051 51.2225 21.1391 51.3901 20.8834C51.5665 20.6277 51.7869 20.4161 52.0515 20.2485C52.3425 20.0634 52.6952 19.9267 53.1096 19.8385C53.5329 19.7416 54.0928 19.6932 54.7894 19.6932C55.1421 19.6932 55.4243 19.7064 55.6359 19.7328C55.8563 19.7593 56.1077 19.7946 56.3898 19.8388V21.4789C56.3105 21.4703 56.1385 21.4527 55.874 21.4259C55.6183 21.3906 55.2567 21.3729 54.7894 21.3729C54.1016 21.3729 53.6343 21.4655 53.3874 21.6507C53.2022 21.7918 53.0699 21.9638 52.9906 22.1665C52.9201 22.3605 52.8849 22.6471 52.8849 23.0262V25.4732H59.9083L59.9083 38.8454ZM58.8766 23.1717C58.4269 23.1717 58.1094 23.0879 57.9243 22.9203C57.7479 22.7528 57.6597 22.4574 57.6597 22.0341C57.6597 21.5844 57.7479 21.2538 57.9243 21.0421C58.1006 20.8305 58.418 20.7247 58.8766 20.7247C59.3792 20.7247 59.7187 20.8349 59.8951 21.0553C60.045 21.2493 60.12 21.5756 60.12 22.0341C60.12 22.3251 60.0848 22.5544 60.0143 22.7219C59.9439 22.8806 59.8204 22.9953 59.644 23.0658C59.4676 23.1363 59.2119 23.1715 58.8768 23.1715L58.8766 23.1717Z" fill="black"/>
<path d="M64.366 25.4731H66.0326L66.1912 27.3645C66.6321 26.5533 67.2141 25.9801 67.9372 25.6451C68.6603 25.3012 69.6478 25.1292 70.9 25.1292C72.0463 25.1292 72.9634 25.3144 73.6512 25.6847C74.3478 26.0551 74.8548 26.6459 75.1722 27.4572C75.4897 28.2684 75.6484 29.3442 75.6484 30.6845V38.8454H73.6115V30.6845C73.6115 29.7498 73.5012 29.0046 73.2808 28.4491C73.0604 27.8847 72.7077 27.4747 72.2227 27.219C71.7465 26.9633 71.1072 26.8355 70.3048 26.8355C69.3613 26.8355 68.6029 26.9677 68.0298 27.2323C67.4654 27.4968 67.051 27.9156 66.7865 28.4888C66.5307 29.0619 66.4029 29.8291 66.4029 30.7902V38.8454H64.366L64.366 25.4731Z" fill="black"/>
<path d="M90.4623 39.1628C89.8186 39.1628 89.2983 38.9909 88.9015 38.647C88.5135 38.3031 88.3195 37.8489 88.3195 37.2846C87.8786 37.8842 87.257 38.3472 86.4545 38.6734C85.661 38.9909 84.7439 39.1496 83.7034 39.1496C82.2132 39.1496 81.0669 38.8012 80.2644 38.1046C79.462 37.3992 79.0608 36.4028 79.0608 35.1154C79.0608 34.119 79.268 33.321 79.6825 32.7214C80.0969 32.1218 80.7539 31.6853 81.6533 31.4119C82.5527 31.1386 83.7519 31.0019 85.2509 31.0019H88.0286V29.2163C88.0286 28.6343 87.9183 28.1714 87.6979 27.8275C87.4774 27.4748 87.1291 27.219 86.653 27.0603C86.1768 26.9016 85.5419 26.8223 84.7483 26.8223C83.9283 26.8223 83.2713 26.8972 82.7775 27.0472C82.2837 27.1972 81.9222 27.4398 81.6929 27.7748C81.4637 28.101 81.3491 28.5375 81.3491 29.0842H79.5105C79.5105 27.7527 79.9382 26.7695 80.7935 26.1347C81.6489 25.4998 82.9671 25.1823 84.7483 25.1823C86.556 25.1823 87.8919 25.513 88.756 26.1743C89.629 26.8357 90.0655 27.8541 90.0655 29.2297V36.0547C90.0655 36.5926 90.1316 36.9585 90.2638 37.1525C90.4049 37.3465 90.6695 37.4435 91.0574 37.4435C91.1986 37.4435 91.3088 37.4392 91.3881 37.4307V39.0444C91.2294 39.0973 91.0883 39.1282 90.9648 39.137C90.8502 39.1546 90.6826 39.1634 90.4622 39.1634L90.4623 39.1628ZM84.1928 37.5359C85.4273 37.5359 86.3752 37.3023 87.0366 36.8349C87.7067 36.3588 88.0418 35.6842 88.0418 34.8112V32.5098H85.2377C84.2501 32.5098 83.4565 32.5979 82.8569 32.7743C82.2661 32.9418 81.834 33.2108 81.5607 33.5811C81.2873 33.9515 81.1506 34.4497 81.1506 35.0757C81.1506 35.8605 81.4151 36.469 81.9442 36.901C82.4733 37.3243 83.2228 37.5359 84.1928 37.5359Z" fill="black"/>
<path d="M94.5755 25.4731H96.2421L96.4007 27.3645C96.8416 26.5533 97.4236 25.9801 98.1467 25.6451C98.8697 25.3012 99.8573 25.1292 101.109 25.1292C102.256 25.1292 103.173 25.3144 103.861 25.6847C104.557 26.0551 105.064 26.6459 105.382 27.4572C105.699 28.2684 105.858 29.3442 105.858 30.6845V38.8454H103.821V30.6845C103.821 29.7498 103.711 29.0046 103.49 28.4491C103.27 27.8847 102.917 27.4747 102.432 27.219C101.956 26.9633 101.317 26.8355 100.514 26.8355C99.5707 26.8355 98.8124 26.9677 98.2393 27.2323C97.6749 27.4968 97.2605 27.9156 96.9959 28.4888C96.7402 29.0619 96.6124 29.8291 96.6124 30.7902V38.8454H94.5754L94.5755 25.4731Z" fill="black"/>
<path d="M115.607 39.1496C114.108 39.1496 112.908 38.9159 112.009 38.4486C111.118 37.9724 110.466 37.2228 110.051 36.2C109.646 35.1771 109.443 33.8147 109.443 32.1129C109.443 30.4287 109.65 29.0796 110.065 28.0656C110.479 27.0515 111.131 26.3152 112.022 25.8567C112.922 25.3893 114.121 25.1556 115.62 25.1556C117.366 25.1556 118.662 25.5172 119.508 26.2403C120.364 26.9545 120.805 28.0611 120.831 29.5601H118.755C118.702 28.89 118.561 28.3565 118.331 27.9597C118.111 27.5629 117.776 27.2719 117.326 27.0868C116.876 26.9016 116.29 26.809 115.567 26.809C114.518 26.809 113.702 26.9722 113.12 27.2984C112.547 27.6247 112.132 28.1714 111.877 28.9385C111.63 29.6969 111.506 30.7638 111.506 32.1394C111.506 33.6296 111.621 34.7539 111.85 35.5122C112.079 36.2705 112.485 36.8041 113.067 37.1127C113.649 37.4125 114.504 37.5624 115.633 37.5624C116.374 37.5624 116.969 37.4698 117.419 37.2846C117.868 37.0906 118.199 36.7908 118.411 36.3852C118.622 35.9707 118.737 35.4241 118.755 34.7451H120.831C120.823 35.812 120.642 36.6673 120.289 37.311C119.936 37.9459 119.381 38.4133 118.622 38.7131C117.864 39.0041 116.859 39.1496 115.607 39.1496Z" fill="black"/>
<path d="M129.098 39.1496C127.643 39.1496 126.479 38.9159 125.606 38.4486C124.733 37.9812 124.094 37.2405 123.688 36.2264C123.291 35.2124 123.093 33.8589 123.093 32.1658C123.093 30.5786 123.291 29.2736 123.688 28.2508C124.085 27.2191 124.72 26.4475 125.593 25.936C126.466 25.4246 127.616 25.1689 129.045 25.1689C130.412 25.1689 131.505 25.3717 132.325 25.7773C133.154 26.1829 133.758 26.8267 134.137 27.7084C134.516 28.5814 134.706 29.7498 134.706 31.2135L134.693 32.4965H125.157C125.157 33.7222 125.289 34.7054 125.553 35.4461C125.827 36.178 126.25 36.7158 126.823 37.0597C127.405 37.3948 128.181 37.5624 129.151 37.5624C129.936 37.5624 130.566 37.483 131.042 37.3243C131.527 37.1656 131.885 36.9143 132.114 36.5704C132.352 36.2177 132.484 35.7503 132.511 35.1684H134.587C134.587 36.5263 134.138 37.5316 133.238 38.1841C132.348 38.8278 130.968 39.1496 129.098 39.1496H129.098ZM132.629 30.9886C132.656 29.9746 132.55 29.1634 132.312 28.5549C132.074 27.9465 131.686 27.5012 131.148 27.219C130.61 26.9368 129.891 26.7958 128.992 26.7958C128.048 26.7958 127.308 26.9237 126.77 27.1794C126.241 27.4351 125.853 27.8628 125.606 28.4624C125.359 29.062 125.218 29.904 125.183 30.9886H132.629Z" fill="black"/>
<defs>
<linearGradient id="paint0_linear_870_5074" x1="2.65895" y1="13.75" x2="47.9114" y2="61.3065" gradientUnits="userSpaceOnUse">
<stop stop-color="#001486"/>
<stop offset="1" stop-color="#7E00E6"/>
</linearGradient>
</defs>
</svg>
