<svg width="106" height="34" viewBox="0 0 106 34" fill="none" xmlns="http://www.w3.org/2000/svg">
<rect x="8" y="10" width="16" height="13" fill="#BC423E"/>
<path fill-rule="evenodd" clip-rule="evenodd" d="M9 2V23H30V2H9ZM8 0C7.44772 0 7 0.447716 7 1V24C7 24.5523 7.44772 25 8 25H31C31.5523 25 32 24.5523 32 24V1C32 0.447715 31.5523 0 31 0H8Z" fill="#3E3E42"/>
<path fill-rule="evenodd" clip-rule="evenodd" d="M2 11V32H23V11H2ZM1 9C0.447715 9 0 9.44772 0 10V33C0 33.5523 0.447716 34 1 34H24C24.5523 34 25 33.5523 25 33V10C25 9.44772 24.5523 9 24 9H1Z" fill="#3E3E42"/>
<path d="M46.9345 23.7139C47.9285 23.7139 48.7923 23.5512 49.526 23.2258C50.2597 22.9004 50.8247 22.4419 51.2211 21.8502C51.6235 21.2526 51.8246 20.5485 51.8246 19.7379V19.7291C51.8246 18.7765 51.5288 18.0162 50.9371 17.4482C50.3455 16.8802 49.3781 16.4542 48.035 16.1702L46.6416 15.8596C45.8133 15.688 45.2187 15.4454 44.8577 15.1318C44.4968 14.8123 44.3164 14.4129 44.3164 13.9337V13.9248C44.3164 13.5284 44.4288 13.1882 44.6536 12.9042C44.8785 12.6202 45.1861 12.4042 45.5766 12.2563C45.9671 12.1025 46.4138 12.0256 46.9167 12.0256C47.4315 12.0197 47.8812 12.0966 48.2657 12.2563C48.6562 12.4102 48.9669 12.6232 49.1976 12.8953C49.4343 13.1675 49.5792 13.4811 49.6325 13.8361L49.6502 13.9426H51.585L51.5761 13.8272C51.5288 13.1527 51.3099 12.5522 50.9194 12.0256C50.5289 11.4931 49.9934 11.07 49.313 10.7564C48.6385 10.4429 47.8486 10.2861 46.9434 10.2861C46.0381 10.2861 45.2364 10.4458 44.5382 10.7653C43.8401 11.0789 43.2928 11.5167 42.8964 12.0788C42.5 12.6409 42.2988 13.2917 42.2929 14.0313V14.0402C42.2929 14.9809 42.5887 15.7531 43.1804 16.3566C43.778 16.9601 44.7246 17.4038 46.0204 17.6878L47.4137 17.9807C48.2657 18.1641 48.8781 18.4185 49.2509 18.7439C49.6236 19.0634 49.81 19.4687 49.81 19.9598V19.9687C49.81 20.3651 49.6887 20.7142 49.4461 21.0159C49.2095 21.3177 48.8811 21.5544 48.461 21.7259C48.0409 21.8916 47.5587 21.9744 47.0144 21.9744C46.4464 21.9744 45.9375 21.8975 45.4879 21.7437C45.0441 21.5839 44.6891 21.3621 44.4229 21.0781C44.1566 20.7882 44.0028 20.4509 43.9614 20.0663L43.9525 19.9687H42L42.0089 20.0841C42.068 20.8059 42.3047 21.439 42.7189 21.9833C43.133 22.5217 43.6981 22.9448 44.414 23.2524C45.1299 23.5601 45.9701 23.7139 46.9345 23.7139Z" fill="#3E3E42"/>
<path d="M55.4889 23.4033H57.4326V14.1023H58.4354L57.0332 13.3391L64.142 23.4033H65.9437V10.5967H64V19.9066H63.0061L64.4083 20.6698L57.2994 10.5967H55.4889V23.4033Z" fill="#3E3E42"/>
<path d="M69.2175 23.4033H71.312L74.8442 12.8421H75.4477V10.5967H73.8414L69.2175 23.4033ZM71.4451 19.9421H78.3942L77.8351 18.3446H72.0042L71.4451 19.9421ZM78.5185 23.4033H80.613L75.998 10.5967H74.9862V12.8421L78.5185 23.4033Z" fill="#3E3E42"/>
<path d="M83.8868 23.4033H85.8837V18.0428H91.3862V16.3654H85.8837V12.3184H91.8832V10.5967H83.8868V23.4033Z" fill="#3E3E42"/>
<path d="M100.686 23.7139C101.757 23.7139 102.68 23.5157 103.455 23.1193C104.23 22.7229 104.825 22.1697 105.239 21.4597C105.659 20.7497 105.869 19.9273 105.869 18.9924V10.5967H103.872V18.8327C103.872 19.7616 103.597 20.513 103.047 21.0869C102.497 21.6609 101.71 21.9478 100.686 21.9478C99.6684 21.9478 98.8785 21.6609 98.3165 21.0869C97.7603 20.513 97.4822 19.7616 97.4822 18.8327V10.5967H95.4942V18.9924C95.4942 19.9273 95.7013 20.7497 96.1155 21.4597C96.5355 22.1697 97.1331 22.7229 97.9082 23.1193C98.6892 23.5157 99.6152 23.7139 100.686 23.7139Z" fill="#3E3E42"/>
</svg>
