<svg width="138" height="37" viewBox="0 0 138 37" fill="none" xmlns="http://www.w3.org/2000/svg">
<g clip-path="url(#clip0_235_4473)">
<path fill-rule="evenodd" clip-rule="evenodd" d="M7.5803 13.3561C7.5803 9.47565 10.7388 6.31711 14.6193 6.31711C18.4998 6.31711 21.6584 9.47565 21.6584 13.3561C21.6584 13.8074 21.5681 14.3488 21.4779 14.8C20.034 14.2586 18.0486 13.8074 14.7998 13.8074C11.2803 13.8074 9.20469 14.3488 7.67055 14.8903C7.67055 14.4391 7.5803 13.8976 7.5803 13.3561ZM6.58762 16.0635C7.94128 18.0488 10.0169 19.4927 12.4535 20.0342C10.3779 19.3122 8.66323 17.6878 7.94128 15.522C9.74616 14.8903 12.0023 14.5293 14.5291 14.5293C14.4388 27.1635 12.5437 36.8196 4.6925 36.8196V37H25.1779V36.7293C17.3266 36.7293 15.4315 27.1635 15.3413 14.5293C17.6876 14.5293 19.673 14.8903 21.3876 15.3415C20.7559 17.5074 19.0413 19.222 16.8754 19.9439C19.312 19.4025 21.4779 17.8683 22.8315 15.7927C26.712 17.4171 28.6974 20.4854 28.6974 24.4561H28.9681V14.2586H28.6974C28.6974 15.3415 27.9754 16.1537 26.351 16.1537C25.0876 16.1537 24.1852 15.7927 23.1023 15.3415C23.9144 13.8976 24.4559 12.183 24.4559 10.3781C24.4559 4.96346 20.034 0.541504 14.6193 0.541504C9.20469 0.541504 4.78274 4.96346 4.78274 10.3781C4.78274 12.2732 5.32421 13.9878 6.22664 15.522C5.23396 15.883 4.42177 16.1537 3.15835 16.1537C1.62421 16.1537 1.08274 15.3415 1.08274 14.2586H0.812012V24.5464H1.08274C1.08274 20.7561 2.97787 17.7781 6.58762 16.0635Z" fill="#0E1220"/>
</g>
<path d="M50.8819 27.5996H53.711V11.825H59.4323V9.37478H45.1606V11.825H50.8819V27.5996Z" fill="#0E1220"/>
<path d="M64.3817 27.5996H67.2234V19.5291H76.5694V27.5996H79.4111V9.37478H76.5694V17.079H67.2234V9.37478H64.3817V27.5996Z" fill="#0E1220"/>
<path d="M85.4593 27.5996H97.0408V25.1494H88.301V19.4913H96.5735V17.1421H88.301V11.825H97.0408V9.37478H85.4593V27.5996Z" fill="#0E1220"/>
<path d="M110.402 28.0416C112.153 28.0416 113.664 27.6501 114.936 26.8671C116.216 26.084 117.196 24.981 117.878 23.5581C118.561 22.1267 118.902 20.4385 118.902 18.4935V18.4682C118.902 16.5148 118.556 14.8266 117.866 13.4037C117.184 11.9723 116.207 10.8693 114.936 10.0947C113.664 9.32005 112.153 8.93274 110.402 8.93274C108.659 8.93274 107.147 9.32005 105.868 10.0947C104.596 10.8693 103.615 11.9723 102.925 13.4037C102.234 14.8266 101.889 16.5148 101.889 18.4682V18.4935C101.889 20.4385 102.23 22.1267 102.912 23.5581C103.594 24.9894 104.571 26.0966 105.842 26.8797C107.114 27.6543 108.633 28.0416 110.402 28.0416ZM110.402 25.5283C109.231 25.5283 108.225 25.2378 107.383 24.6568C106.55 24.0759 105.905 23.2591 105.451 22.2067C105.005 21.1458 104.781 19.908 104.781 18.4935V18.4682C104.781 17.0369 105.009 15.7991 105.463 14.7551C105.926 13.7026 106.579 12.8901 107.421 12.3175C108.263 11.7366 109.257 11.4461 110.402 11.4461C111.547 11.4461 112.54 11.7366 113.382 12.3175C114.224 12.8901 114.873 13.7026 115.327 14.7551C115.782 15.7991 116.009 17.0369 116.009 18.4682V18.4935C116.009 19.908 115.782 21.1458 115.327 22.2067C114.873 23.2591 114.224 24.0759 113.382 24.6568C112.549 25.2378 111.555 25.5283 110.402 25.5283Z" fill="#0E1220"/>
<path d="M130.406 28.0416C131.82 28.0416 133.05 27.8101 134.094 27.347C135.138 26.8839 135.942 26.2314 136.506 25.3894C137.078 24.539 137.365 23.537 137.365 22.3835V22.3708C137.365 21.0153 136.944 19.9333 136.102 19.125C135.26 18.3167 133.883 17.7105 131.972 17.3063L129.989 16.8643C128.81 16.6201 127.964 16.2749 127.45 15.8286C126.937 15.3739 126.68 14.8056 126.68 14.1236V14.111C126.68 13.5468 126.84 13.0627 127.16 12.6585C127.48 12.2544 127.918 11.9471 128.473 11.7366C129.029 11.5176 129.665 11.4082 130.38 11.4082C131.113 11.3998 131.753 11.5092 132.3 11.7366C132.856 11.9555 133.298 12.2586 133.626 12.6459C133.963 13.0332 134.169 13.4795 134.245 13.9847L134.27 14.1362H137.024L137.011 13.972C136.944 13.0122 136.632 12.1575 136.077 11.4082C135.521 10.6504 134.759 10.0484 133.791 9.60212C132.831 9.15587 131.707 8.93274 130.418 8.93274C129.13 8.93274 127.989 9.16008 126.996 9.61475C126.002 10.061 125.223 10.6841 124.659 11.484C124.095 12.2838 123.809 13.21 123.8 14.2625V14.2751C123.8 15.6139 124.221 16.7127 125.063 17.5715C125.914 18.4304 127.261 19.0618 129.105 19.466L131.088 19.8828C132.3 20.1438 133.172 20.5058 133.702 20.9689C134.233 21.4236 134.498 22.0004 134.498 22.6992V22.7119C134.498 23.276 134.325 23.7728 133.98 24.2022C133.643 24.6316 133.176 24.9684 132.578 25.2126C131.98 25.4483 131.294 25.5662 130.519 25.5662C129.711 25.5662 128.987 25.4567 128.347 25.2378C127.716 25.0105 127.21 24.6947 126.832 24.2906C126.453 23.878 126.234 23.3981 126.175 22.8508L126.162 22.7119H123.384L123.396 22.876C123.48 23.9033 123.817 24.8042 124.407 25.5788C124.996 26.345 125.8 26.947 126.819 27.3849C127.838 27.8227 129.033 28.0416 130.406 28.0416Z" fill="#0E1220"/>
<defs>
<clipPath id="clip0_235_4473">
<rect width="29.7805" height="37" fill="white"/>
</clipPath>
</defs>
</svg>
