<svg width="34" height="35" viewBox="0 0 34 35" fill="none" xmlns="http://www.w3.org/2000/svg">
<path d="M17 34C26.1127 34 33.5 26.6127 33.5 17.5C33.5 8.3873 26.1127 1 17 1C7.8873 1 0.5 8.3873 0.5 17.5C0.5 26.6127 7.8873 34 17 34Z" fill="#C4C4C4" stroke="#DFE6F0"/>
<mask id="mask0_481_8094" style="mask-type:alpha" maskUnits="userSpaceOnUse" x="1" y="1" width="32" height="33">
<path d="M33 17.5C33 26.3366 25.8366 33.5 17 33.5C8.16344 33.5 1 26.3366 1 17.5C1 8.66344 8.16344 1.5 17 1.5C25.8366 1.5 33 8.66344 33 17.5Z" fill="#C4C4C4"/>
</mask>
<g mask="url(#mask0_481_8094)">
<path d="M41.667 1.5H-6.33301V33.5H41.667V1.5Z" fill="#007A3D"/>
<path d="M28.5186 17.0547C28.2373 17.3568 27.8545 17.6563 27.3701 17.9531C26.8857 18.25 26.2842 18.5208 25.5654 18.7656C24.8467 19.0104 24.0107 19.2161 23.0576 19.3828C22.1045 19.5495 21.0185 19.6536 19.7998 19.6953C19.6852 20.0182 19.568 20.3646 19.4482 20.7344C19.3284 21.1042 19.2112 21.5078 19.0967 21.9453H19.0186C18.9665 21.8932 18.9222 21.8281 18.8857 21.75C18.8493 21.6719 18.8154 21.5599 18.7842 21.4141C18.8362 21.1224 18.8935 20.8359 18.9561 20.5547C19.0185 20.2734 19.0862 19.987 19.1592 19.6953C18.6279 19.6953 18.1279 19.6276 17.6592 19.4922C17.6279 21.513 17.1435 23.3672 16.2061 25.0547C15.1852 26.8984 13.055 27.8203 9.81543 27.8203C8.51334 27.8203 7.45084 27.4401 6.62793 26.6797C5.7946 25.9088 5.37793 24.9453 5.37793 23.7891C5.37793 22.5703 5.95085 21.0755 7.09668 19.3047L7.39355 19.4141C6.62272 20.8411 6.2373 21.9922 6.2373 22.8672C6.2373 23.3255 6.34928 23.7344 6.57324 24.0938C6.7972 24.4531 7.11491 24.7604 7.52637 25.0156C7.93782 25.2708 8.44303 25.4661 9.04199 25.6016C9.64095 25.737 10.3154 25.8047 11.0654 25.8047C12.2113 25.8047 13.2738 25.6068 14.2529 25.2109C15.2321 24.8255 15.8988 24.3307 16.2529 23.7266C16.5758 23.1432 16.7373 22.2839 16.7373 21.1484C16.7373 20.5339 16.6409 19.9219 16.4482 19.3125C16.2555 18.7031 15.9925 18.1641 15.6592 17.6953L16.5186 15.8516C16.6956 16.1016 16.8623 16.375 17.0186 16.6719C17.1748 16.9688 17.2946 17.2214 17.3779 17.4297C17.68 17.5651 17.9821 17.6589 18.2842 17.7109C18.5863 17.763 18.904 17.7891 19.2373 17.7891C19.3519 17.7891 19.4717 17.7891 19.5967 17.7891C19.7217 17.7891 19.8519 17.7786 19.9873 17.7578C20.5602 16.8099 21.1774 15.9453 21.8389 15.1641C22.5003 14.3828 23.1904 13.7005 23.9092 13.1172C24.5237 12.6172 25.1175 12.2266 25.6904 11.9453C26.2633 11.6641 26.7321 11.5234 27.0967 11.5234C27.4717 11.5234 27.831 11.5938 28.1748 11.7344C28.5185 11.875 28.8232 12.0469 29.0889 12.25C29.3545 12.4531 29.5654 12.6667 29.7217 12.8906C29.8779 13.1146 29.956 13.3151 29.9561 13.4922C29.956 13.9193 29.9144 14.3099 29.8311 14.6641C29.7477 15.0182 29.6383 15.3385 29.5029 15.625C29.3675 15.9115 29.2138 16.1719 29.042 16.4063C28.8701 16.6406 28.6956 16.8568 28.5186 17.0547ZM26.5342 13.6016C26.2425 13.6016 25.8753 13.6953 25.4326 13.8828C24.9899 14.0703 24.5107 14.3385 23.9951 14.6875C23.4795 15.0365 22.9508 15.4688 22.4092 15.9844C21.8675 16.5 21.3519 17.0859 20.8623 17.7422C21.0394 17.7422 21.2086 17.737 21.3701 17.7266C21.5316 17.7162 21.7217 17.7005 21.9404 17.6797C22.6904 17.6276 23.4274 17.5156 24.1514 17.3437C24.8753 17.1719 25.654 16.9245 26.4873 16.6016C27.1435 16.3516 27.6748 16.0885 28.0811 15.8125C28.4873 15.5365 28.7477 15.3047 28.8623 15.1172C28.7373 14.9401 28.5862 14.7604 28.4092 14.5781C28.2321 14.3958 28.0394 14.2318 27.8311 14.0859C27.6227 13.9401 27.4066 13.8229 27.1826 13.7344C26.9586 13.6458 26.7425 13.6016 26.5342 13.6016ZM23.7373 8.39844L22.6279 10.0391L21.1436 8.78906L22.2373 7.17969L23.7373 8.39844Z" fill="white"/>
</g>
</svg>
