<svg width="16" height="22" viewBox="0 0 16 22" fill="none" xmlns="http://www.w3.org/2000/svg">
<g clip-path="url(#clip0_664_14991)">
<path fill-rule="evenodd" clip-rule="evenodd" d="M14.7416 12.1221L14.7992 12.1496C15.1009 12.2941 15.1229 12.7171 14.838 12.8924L13.8782 13.4831L7.96618 20.9856L1.89379 13.7714L0.821723 13.1373C0.536538 12.9685 0.547565 12.5505 0.84124 12.3972L1.36917 12.1217H0.763657C0.226081 12.1217 -0.065792 12.7536 0.281419 13.1661L0.281426 13.1661L7.48932 21.7294L7.48933 21.7294C7.74697 22.0355 8.21912 22.0279 8.46681 21.7134L15.2146 13.1503L15.2147 13.1502C15.5376 12.7402 15.2558 12.1389 14.7416 12.1221Z" fill="white"/>
<path fill-rule="evenodd" clip-rule="evenodd" d="M5.30626 10.5437L1.03545 12.7727L7.76203 16.7512L14.6182 12.5317L10.4739 10.5479L11.0102 9.86731L14.9804 11.7677C15.5837 12.0566 15.6279 12.9025 15.0581 13.2532L8.20188 17.4728C7.93659 17.6361 7.6031 17.6392 7.33475 17.4804L0.608267 13.5019C0.0380273 13.1645 0.0598765 12.3284 0.647297 12.0218L4.74871 9.88131L5.30626 10.5437Z" fill="white"/>
<path fill-rule="evenodd" clip-rule="evenodd" d="M1.36351 5.20438L2 5.99998L2.03207 5.99865L7.96618 13.0486L13.9116 5.50367L14 5.49998L15.148 4.35194C15.3736 4.56317 15.4354 4.93284 15.2146 5.21315L15.2146 5.21324L8.46672 13.7765L8.4667 13.7766C8.21918 14.0906 7.74714 14.0987 7.48933 13.7924L7.48932 13.7924L0.281422 5.2291L0.281422 5.2291C-0.0215383 4.86917 0.162046 4.34213 0.57096 4.21368L1.22468 5.03083H1.21744L1.36351 5.20438Z" fill="white"/>
<path fill-rule="evenodd" clip-rule="evenodd" d="M8.13663 0.554729C8.13664 0.554731 8.13664 0.554734 8.13665 0.554736L14.9805 3.83069C15.5838 4.11951 15.6278 4.96546 15.0581 5.31613L15.0581 5.31615L8.2019 9.53576L8.20187 9.53577C7.93643 9.69911 7.60306 9.70194 7.33494 9.54343L7.33487 9.54338L0.608295 5.56481L0.608289 5.5648C0.0379148 5.22745 0.0599787 4.39122 0.647323 4.08469L7.38631 0.567715L7.58033 0.943047L7.38632 0.567713C7.62057 0.445464 7.89833 0.440652 8.13663 0.554729ZM14.6183 4.59459L7.77446 1.31863L1.03547 4.8356L7.76199 8.81414L7.76209 8.81418L14.6182 4.5946L14.6183 4.59459Z" fill="white"/>
</g>
<defs>
<clipPath id="clip0_664_14991">
<rect width="16" height="22" fill="white"/>
</clipPath>
</defs>
</svg>
