<svg width="34" height="35" viewBox="0 0 34 35" fill="none" xmlns="http://www.w3.org/2000/svg">
<path d="M17 34C26.1127 34 33.5 26.6127 33.5 17.5C33.5 8.3873 26.1127 1 17 1C7.8873 1 0.5 8.3873 0.5 17.5C0.5 26.6127 7.8873 34 17 34Z" fill="#C4C4C4" stroke="#DFE6F0"/>
<mask id="mask0_481_7245" style="mask-type:alpha" maskUnits="userSpaceOnUse" x="1" y="1" width="32" height="33">
<path d="M33 17.5C33 26.3366 25.8366 33.5 17 33.5C8.16344 33.5 1 26.3366 1 17.5C1 8.66344 8.16344 1.5 17 1.5C25.8366 1.5 33 8.66344 33 17.5Z" fill="#C4C4C4"/>
</mask>
<g mask="url(#mask0_481_7245)">
<path d="M97.7991 -25.7H-43.7998V68.7H97.7991V-25.7Z" fill="#DF2515"/>
<path d="M10.1995 8.06128L11.3315 11.5423H14.994L12.0308 13.6941L13.1628 17.1774L10.1995 15.0256L7.23852 17.1774L8.36823 13.6941L5.40723 11.5423H9.06757L10.1995 8.06128Z" fill="#FFE00A"/>
<path d="M21.9003 14.7811L22.3195 15.9288L23.5388 15.8839L22.5772 16.6371L22.9964 17.7825L21.9832 17.1011L21.0217 17.8542L21.3579 16.6797L20.3447 15.9983L21.5641 15.9557L21.9003 14.7811Z" fill="#FFE00A"/>
<path d="M21.2191 9.91284L22.0709 10.787L23.167 10.2513L22.5954 11.3295L23.4449 12.2059L22.2435 11.9974L21.6719 13.0756L21.4993 11.8674L20.2979 11.6567L21.3939 11.121L21.2191 9.91284Z" fill="#FFE00A"/>
<path d="M17.3318 6.95628L18.4548 7.43372L19.2572 6.51471L19.1496 7.72959L20.2726 8.20703L19.0846 8.48049L18.977 9.69761L18.3494 8.65084L17.1592 8.9243L17.9616 8.00305L17.3318 6.95628Z" fill="#FFE00A"/>
<path d="M19.1922 18.2489L19.1361 19.4683L20.2771 19.8986L19.1003 20.2214L19.0442 21.4408L18.374 20.4209L17.1973 20.7437L17.9594 19.791L17.2869 18.7712L18.4301 19.2015L19.1922 18.2489Z" fill="#FFE00A"/>
</g>
</svg>
