<svg width="32" height="33" viewBox="0 0 32 33" fill="none" xmlns="http://www.w3.org/2000/svg">
<path d="M0.995117 22.0652C3.2558 28.1579 9.12049 32.5 15.9999 32.5C22.8794 32.5 28.7441 28.1579 31.0047 22.0652L15.9999 20.674L0.995117 22.0652Z" fill="#FFDA44"/>
<path d="M15.9999 0.5C9.12049 0.5 3.2558 4.842 0.995117 10.9348L15.9999 12.3261L31.0047 10.9347C28.7441 4.842 22.8794 0.5 15.9999 0.5Z" fill="black"/>
<path d="M0.995188 10.9348C0.352063 12.6681 0 14.5429 0 16.5C0 18.4571 0.352063 20.3319 0.995188 22.0652H31.0049C31.648 20.3319 32 18.4571 32 16.5C32 14.5429 31.648 12.6681 31.0048 10.9348H0.995188Z" fill="#D80027"/>
</svg>
