<svg width="32" height="32" viewBox="0 0 32 32" fill="none" xmlns="http://www.w3.org/2000/svg">
<path d="M0 16C0 10.3995 0 7.59921 1.08993 5.4601C2.04867 3.57847 3.57847 2.04867 5.4601 1.08993C7.59921 0 10.3995 0 16 0V0C21.6005 0 24.4008 0 26.5399 1.08993C28.4215 2.04867 29.9513 3.57847 30.9101 5.4601C32 7.59921 32 10.3995 32 16V16C32 21.6005 32 24.4008 30.9101 26.5399C29.9513 28.4215 28.4215 29.9513 26.5399 30.9101C24.4008 32 21.6005 32 16 32V32C10.3995 32 7.59921 32 5.4601 30.9101C3.57847 29.9513 2.04867 28.4215 1.08993 26.5399C0 24.4008 0 21.6005 0 16V16Z" fill="#282829"/>
<path d="M26.5992 17.2446C26.5992 12.1389 22.4353 8 17.2994 8C12.1634 8 8 12.1389 8 17.2446C8 21.297 10.6231 24.74 14.2736 25.9883C14.4961 25.8286 14.7524 25.6316 14.7524 25.3001C14.7524 24.7918 14.7414 23.4837 14.7414 23.4837C14.7414 23.4837 14.3379 23.5521 13.7615 23.5521C12.3099 23.5521 11.851 22.6362 11.6326 22.1239C11.3483 21.4563 10.9798 21.143 10.5881 20.8923C10.3477 20.7382 10.2924 20.5571 10.5706 20.5049C11.8555 20.2655 12.1838 21.9456 13.042 22.2133C13.6546 22.4041 14.442 22.3216 14.8337 22.0709C14.8854 21.5578 15.2596 21.1143 15.5711 20.8805C13.3885 20.6731 12.0947 19.9238 11.4236 18.7193L11.3516 18.5842L11.1828 18.2017L11.1331 18.0647C10.9229 17.4533 10.8301 16.7529 10.8301 15.9709C10.8301 14.5824 11.2678 14.0584 11.8555 13.318C11.4061 11.735 12.017 10.6529 12.017 10.6529C12.017 10.6529 12.9619 10.4593 14.7475 11.7236C15.7151 11.3136 18.2959 11.2793 19.5169 11.6327C20.2658 11.143 21.6369 10.4479 22.1897 10.6428C22.3393 10.881 22.6619 11.5761 22.3857 13.1021C22.5732 13.4369 23.5494 14.1497 23.5531 16.1658C23.5372 16.9094 23.4591 17.537 23.3139 18.0679L23.2334 18.3396C23.2334 18.3396 23.1874 18.4678 23.137 18.5899L23.078 18.725C22.4305 20.1309 21.1024 20.6557 18.9565 20.8741C19.652 21.3067 19.8513 21.8498 19.8513 23.3192C19.8513 24.7886 19.8314 24.9859 19.8362 25.3239C19.8403 25.6227 20.0807 25.8375 20.2967 26C23.9614 24.7595 26.5992 21.3083 26.5992 17.2446Z" fill="white"/>
</svg>
