<svg width="34" height="35" viewBox="0 0 34 35" fill="none" xmlns="http://www.w3.org/2000/svg">
<path d="M17 34C26.1127 34 33.5 26.6127 33.5 17.5C33.5 8.3873 26.1127 1 17 1C7.8873 1 0.5 8.3873 0.5 17.5C0.5 26.6127 7.8873 34 17 34Z" fill="#C4C4C4" stroke="#DFE6F0"/>
<mask id="mask0_481_8030" style="mask-type:alpha" maskUnits="userSpaceOnUse" x="1" y="1" width="32" height="33">
<path d="M33 17.5C33 26.3366 25.8366 33.5 17 33.5C8.16344 33.5 1 26.3366 1 17.5C1 8.66344 8.16344 1.5 17 1.5C25.8366 1.5 33 8.66344 33 17.5Z" fill="#C4C4C4"/>
</mask>
<g mask="url(#mask0_481_8030)">
<path d="M48.9971 38.8333V24.6111L-14.9997 24.6111V38.8333H48.9971Z" fill="#088004"/>
<path d="M48.9971 24.6111V10.3889L-14.9997 10.3889V24.6111L48.9971 24.6111Z" fill="white"/>
<path d="M48.9971 10.389V-3.83325L-14.9998 -3.83325V10.389L48.9971 10.389Z" fill="#F48E20"/>
<path d="M23.6118 17.499C23.6118 16.1911 23.2239 14.9125 22.4973 13.825C21.7706 12.7375 20.7378 11.8899 19.5294 11.3893C18.3211 10.8888 16.9914 10.7579 15.7086 11.0131C14.4258 11.2682 13.2475 11.898 12.3227 12.8229C11.3978 13.7477 10.768 14.9261 10.5128 16.2088C10.2576 17.4916 10.3886 18.8213 10.8891 20.0297C11.3897 21.2381 12.2373 22.2709 13.3248 22.9975C14.4123 23.7242 15.6908 24.112 16.9987 24.112C18.7526 24.112 20.4347 23.4153 21.6748 22.1751C22.915 20.9349 23.6118 19.2529 23.6118 17.499Z" fill="#081084"/>
<path d="M21.4144 21.3494C21.3494 21.285 21.3111 21.1984 21.3072 21.107C21.3033 21.0155 21.3342 20.926 21.3936 20.8564C21.453 20.7867 21.5365 20.7421 21.6274 20.7315C21.7183 20.7208 21.8099 20.745 21.8837 20.799C22.0371 20.5731 22.174 20.3364 22.2933 20.0908L22.2592 20.0738C22.178 20.029 22.117 19.9549 22.0887 19.8666C22.0604 19.7783 22.067 19.6826 22.1072 19.599C22.1473 19.5155 22.2179 19.4504 22.3045 19.4173C22.3911 19.3842 22.4871 19.3855 22.5728 19.421C22.6616 19.1659 22.7328 18.905 22.7861 18.6402C22.696 18.6263 22.6144 18.5789 22.5576 18.5075C22.5009 18.4362 22.4731 18.346 22.4798 18.2551C22.4866 18.1642 22.5273 18.0791 22.5939 18.0168C22.6606 17.9546 22.7482 17.9197 22.8394 17.9192H22.8799C22.8906 17.7805 22.8949 17.6397 22.8949 17.4925C22.8949 17.3453 22.8949 17.228 22.8821 17.0979H22.8394C22.7455 17.1009 22.6542 17.0673 22.5845 17.0043C22.5149 16.9412 22.4724 16.8537 22.4661 16.76C22.4597 16.6663 22.49 16.5738 22.5505 16.5019C22.6109 16.43 22.6969 16.3844 22.7903 16.3747C22.7379 16.1055 22.6666 15.8404 22.577 15.5812L22.5301 15.5982C22.4404 15.6237 22.3443 15.6137 22.2618 15.5702C22.1793 15.5267 22.1168 15.4531 22.0871 15.3647C22.0575 15.2763 22.063 15.1799 22.1026 15.0955C22.1422 15.011 22.2128 14.9451 22.2997 14.9114C22.1814 14.6674 22.046 14.4322 21.8944 14.2074C21.8224 14.2704 21.7284 14.3024 21.633 14.2964C21.5375 14.2904 21.4482 14.247 21.3847 14.1755C21.3211 14.104 21.2883 14.0104 21.2935 13.9148C21.2986 13.8193 21.3413 13.7297 21.4123 13.6655C21.4255 13.653 21.4398 13.6416 21.4549 13.6314C21.2751 13.4242 21.0813 13.2296 20.8747 13.049C20.8644 13.0647 20.8522 13.079 20.8384 13.0917C20.8051 13.1258 20.7652 13.1528 20.7213 13.1713C20.6773 13.1898 20.6301 13.1993 20.5824 13.1993C20.5348 13.1993 20.4876 13.1898 20.4436 13.1713C20.3997 13.1528 20.3598 13.1258 20.3265 13.0917C20.2632 13.0284 20.2256 12.9439 20.2208 12.8545C20.2161 12.7651 20.2446 12.6771 20.3009 12.6075C20.074 12.4531 19.8367 12.3148 19.5905 12.1936L19.5649 12.2469C19.5155 12.3217 19.4401 12.3755 19.3534 12.3979C19.2666 12.4204 19.1746 12.41 19.0951 12.3686C19.0156 12.3273 18.9542 12.258 18.9228 12.174C18.8914 12.0901 18.8921 11.9976 18.9249 11.9142C18.6669 11.8253 18.4032 11.7541 18.1356 11.7008C18.1258 11.7926 18.0814 11.8771 18.0114 11.9372C17.9414 11.9973 17.8512 12.0285 17.759 12.0244C17.6669 12.0203 17.5797 11.9813 17.5154 11.9153C17.451 11.8492 17.4142 11.761 17.4125 11.6688C17.4103 11.6482 17.4103 11.6275 17.4125 11.6069C17.2738 11.5963 17.1352 11.592 16.9858 11.592C16.8365 11.592 16.7149 11.5921 16.5805 11.6049C16.5826 11.6261 16.5826 11.6475 16.5805 11.6688C16.5845 11.765 16.5501 11.8588 16.4849 11.9296C16.4196 12.0004 16.329 12.0424 16.2328 12.0464C16.1366 12.0504 16.0428 12.016 15.972 11.9508C15.9012 11.8856 15.8592 11.7949 15.8552 11.6987C15.5832 11.7509 15.3152 11.8222 15.0531 11.912C15.0625 11.932 15.0704 11.9527 15.0766 11.9739C15.0971 12.0631 15.0831 12.1568 15.0374 12.2362C14.9916 12.3155 14.9176 12.3746 14.8301 12.4016C14.7426 12.4286 14.6481 12.4215 14.5656 12.3817C14.4832 12.342 14.4188 12.2725 14.3854 12.1872C14.1415 12.3063 13.9062 12.4424 13.6815 12.5946C13.7419 12.6661 13.7724 12.7581 13.7665 12.8515C13.7607 12.9449 13.719 13.0324 13.6501 13.0958C13.5813 13.1591 13.4906 13.1934 13.397 13.1914C13.3035 13.1895 13.2143 13.1515 13.1482 13.0853C13.1335 13.0699 13.12 13.0535 13.1076 13.0362C12.9011 13.2168 12.7072 13.4114 12.5274 13.6186L12.5743 13.6591C12.6413 13.7249 12.6801 13.8141 12.6827 13.9079C12.6852 14.0017 12.6513 14.0929 12.5881 14.1622C12.5248 14.2316 12.4371 14.2737 12.3435 14.2797C12.2498 14.2857 12.1574 14.2552 12.0858 14.1946C11.9326 14.4232 11.795 14.662 11.6741 14.9092C11.6932 14.9172 11.7117 14.9264 11.7296 14.9369C11.8032 14.9866 11.856 15.0617 11.878 15.1477C11.9 15.2338 11.8896 15.325 11.8488 15.4039C11.808 15.4829 11.7397 15.5441 11.6567 15.576C11.5738 15.6078 11.4821 15.6082 11.3989 15.5769C11.3091 15.8331 11.2378 16.0955 11.1856 16.3619C11.2818 16.3667 11.3721 16.4096 11.4367 16.481C11.5013 16.5524 11.5349 16.6465 11.5301 16.7427C11.5253 16.8389 11.4825 16.9292 11.4111 16.9938C11.3397 17.0584 11.2455 17.092 11.1493 17.0872C11.1309 17.0894 11.1123 17.0894 11.0939 17.0872C11.0853 17.2195 11.0811 17.3517 11.0811 17.484C11.0811 17.6269 11.0811 17.7677 11.096 17.9106H11.1493C11.2424 17.9097 11.3323 17.9447 11.4003 18.0082C11.4684 18.0717 11.5094 18.159 11.5149 18.2519C11.5204 18.3449 11.4899 18.4363 11.4298 18.5074C11.3697 18.5785 11.2845 18.6238 11.192 18.6338C11.2442 18.9024 11.3155 19.1668 11.4053 19.4252L11.4544 19.4082C11.5441 19.3827 11.6401 19.3927 11.7226 19.4362C11.8051 19.4797 11.8677 19.5533 11.8973 19.6417C11.927 19.7301 11.9214 19.8265 11.8819 19.9109C11.8423 19.9954 11.7717 20.0613 11.6848 20.0951C11.8058 20.3377 11.9426 20.5721 12.0943 20.7969C12.1676 20.7432 12.2583 20.7189 12.3485 20.7288C12.4388 20.7388 12.522 20.7822 12.5818 20.8506C12.6416 20.9189 12.6736 21.0072 12.6714 21.098C12.6692 21.1888 12.633 21.2755 12.57 21.3409L12.538 21.3707C12.7178 21.5753 12.9109 21.7678 13.1162 21.9467L13.1439 21.9147C13.2086 21.8504 13.2952 21.8128 13.3864 21.8096C13.4776 21.8063 13.5667 21.8375 13.6359 21.897C13.7051 21.9565 13.7493 22.0399 13.7598 22.1306C13.7702 22.2212 13.746 22.3125 13.6921 22.3861C13.9185 22.5399 14.156 22.6768 14.4025 22.7958C14.4073 22.7833 14.413 22.7711 14.4196 22.7595C14.465 22.6801 14.5388 22.6208 14.6261 22.5935C14.7134 22.5662 14.8078 22.573 14.8904 22.6124C14.973 22.6518 15.0376 22.7209 15.0713 22.806C15.1051 22.891 15.1054 22.9857 15.0723 23.0709C15.3278 23.1608 15.5895 23.2321 15.8552 23.2843C15.8692 23.1936 15.9171 23.1116 15.9891 23.0548C16.0612 22.9979 16.1521 22.9706 16.2436 22.9781C16.335 22.9857 16.4202 23.0276 16.4819 23.0955C16.5437 23.1634 16.5774 23.2522 16.5763 23.344C16.5763 23.3546 16.5763 23.3675 16.5763 23.3781C16.7085 23.3781 16.8429 23.3909 16.9773 23.3909C17.1117 23.3909 17.2546 23.3909 17.3911 23.3781C17.3901 23.3668 17.3901 23.3553 17.3911 23.344C17.3894 23.252 17.4227 23.1628 17.4843 23.0944C17.5458 23.0261 17.6311 22.9837 17.7227 22.9758C17.8144 22.968 17.9056 22.9952 17.9779 23.0521C18.0502 23.109 18.0982 23.1912 18.1122 23.2821C18.3816 23.2306 18.6468 23.1593 18.9057 23.0688C18.9048 23.0582 18.9048 23.0474 18.9057 23.0368C18.8842 22.9498 18.8956 22.8579 18.9379 22.7788C18.9801 22.6997 19.0501 22.6391 19.1344 22.6086C19.2187 22.5781 19.3113 22.5799 19.3944 22.6137C19.4774 22.6475 19.545 22.7108 19.5841 22.7915C19.8255 22.6731 20.0586 22.5383 20.2817 22.3883C20.2302 22.3143 20.2082 22.2237 20.2199 22.1344C20.2316 22.045 20.2761 21.9632 20.3448 21.9049C20.4135 21.8466 20.5015 21.8159 20.5916 21.8189C20.6816 21.8219 20.7674 21.8583 20.832 21.9211L20.8555 21.9467C21.0613 21.7683 21.2544 21.5758 21.4336 21.3707C21.4265 21.3643 21.4201 21.3571 21.4144 21.3494Z" fill="white"/>
<path d="M17.2271 14.9925L17.0138 11.607L16.7812 14.9925C16.9214 15.8207 16.9942 16.659 16.9988 17.499C17.0095 16.6588 17.0858 15.8207 17.2271 14.9925Z" fill="#081084"/>
<path d="M16.9984 17.499C16.1594 17.4893 15.3226 17.4115 14.4961 17.2665L11.1064 17.499L14.4919 17.723C15.3203 17.5831 16.1583 17.5082 16.9984 17.499Z" fill="#081084"/>
<path d="M16.998 17.499C17.5953 16.9131 18.2372 16.3746 18.918 15.8884L21.1536 13.3285L18.5937 15.5577C18.1151 16.2468 17.5815 16.8961 16.998 17.499Z" fill="#081084"/>
<path d="M16.998 17.4991C16.412 16.8992 15.8755 16.2529 15.3939 15.5664L12.834 13.3372L15.0696 15.897C15.753 16.3802 16.3978 16.9159 16.998 17.4991Z" fill="#081084"/>
<path d="M17.8799 15.1524L18.554 11.8267L17.4384 15.0266C17.3628 15.8622 17.2201 16.6905 17.0117 17.5033C17.2387 16.698 17.529 15.9119 17.8799 15.1524Z" fill="#081084"/>
<path d="M19.3552 18.3801L22.6809 19.0542L19.4811 17.9385C18.6461 17.863 17.8186 17.7203 17.0065 17.5119C17.8452 17.5213 18.6818 17.5962 19.5088 17.7359L22.8942 17.5119L19.5088 17.2794C18.6792 17.4206 17.8395 17.4941 16.998 17.4991C16.1847 17.7087 15.3557 17.8514 14.5192 17.9257L11.3193 19.0265L14.6472 18.3673C15.4103 18.0221 16.1991 17.7368 17.0065 17.514C16.2733 17.921 15.5086 18.2684 14.7197 18.5529L11.8782 20.4259L14.9288 18.9326C15.5795 18.4008 16.2714 17.9214 16.998 17.4991C16.3989 18.0845 15.7533 18.6203 15.0674 19.1011L12.8382 21.661L15.3981 19.4275C15.8832 18.7465 16.421 18.1046 17.0065 17.5076C16.5797 18.2274 16.0945 18.9109 15.5559 19.5513L14.0627 22.5975L15.9506 19.7795C16.2421 18.9959 16.5944 18.2363 17.0044 17.5076C16.7748 18.3124 16.4802 19.0972 16.1234 19.8542L15.4578 23.182L16.5649 19.9821C16.6469 19.1513 16.7938 18.3283 17.0044 17.5204V17.5375C16.9925 18.3665 16.9148 19.1932 16.7719 20.0099L17.0044 23.3953L17.2177 20.0099C17.0837 19.1931 17.0124 18.3673 17.0044 17.5396C17.2092 18.3423 17.3518 19.1596 17.431 19.9843L18.5211 23.1969L17.8811 19.867C17.5351 19.1145 17.2498 18.3355 17.0279 17.5375V17.5204C17.4332 18.2496 17.7813 19.0092 18.0689 19.7923L19.9418 22.621L18.4656 19.5662C17.9316 18.9244 17.4508 18.2403 17.0279 17.5204C17.6119 18.1181 18.1489 18.76 18.6342 19.4403L21.194 21.676L18.9648 19.1161C18.2832 18.6349 17.6411 18.0999 17.0449 17.5162C17.7655 17.9434 18.4516 18.4263 19.0971 18.9604L22.1391 20.4536L19.2827 18.5657C18.4938 18.2719 17.7298 17.9152 16.998 17.4991C17.8054 17.7311 18.5935 18.0257 19.3552 18.3801ZM17.0087 17.5268V17.5098V17.5268Z" fill="#081084"/>
<path d="M16.9986 17.499C16.1937 17.2679 15.409 16.9718 14.6521 16.6137L11.3242 15.9481L14.5241 17.0553C15.3592 17.1383 16.1866 17.2866 16.9986 17.499Z" fill="#081084"/>
<path d="M16.998 17.499C17.7307 17.0914 18.4938 16.7412 19.2806 16.4517L22.1093 14.5787L19.0545 16.0549C18.4094 16.5913 17.7216 17.0743 16.998 17.499Z" fill="#081084"/>
<path d="M16.9981 17.499C16.5907 16.766 16.2433 16.0012 15.9592 15.2122L14.0713 12.3793L15.5645 15.4298C16.0958 16.081 16.5751 16.7728 16.9981 17.499Z" fill="#081084"/>
<path d="M16.998 17.499C17.4259 16.7776 17.9095 16.0908 18.4444 15.4448L19.9376 12.4006L18.0647 15.2165C17.7709 16.0047 17.4142 16.768 16.998 17.499Z" fill="#081084"/>
<path d="M16.9986 17.499C16.2773 17.0707 15.5917 16.5849 14.9486 16.0462L11.9023 14.553L14.7203 16.4409C15.5062 16.7336 16.268 17.0874 16.9986 17.499Z" fill="#081084"/>
<path d="M16.998 17.499C17.8105 17.2925 18.6379 17.1499 19.4726 17.0724L22.6852 15.9823L19.3553 16.6223C18.5945 16.9777 17.8062 17.271 16.998 17.499Z" fill="#081084"/>
<path d="M16.9989 17.4991C16.79 16.6864 16.6473 15.8581 16.5722 15.0224L15.4736 11.8119L16.1307 15.1397C16.481 15.9023 16.7713 16.6912 16.9989 17.4991Z" fill="#081084"/>
</g>
</svg>
