<svg width="19" height="18" viewBox="0 0 19 18" fill="none" xmlns="http://www.w3.org/2000/svg">
<path fill-rule="evenodd" clip-rule="evenodd" d="M17.5261 3.10145C17.7931 3.80874 17.9349 4.557 17.9449 5.31279C18.0007 6.26337 18.0009 6.57425 18.0029 8.98042L18.0029 9.01397C18.0029 11.4518 17.9899 11.7562 17.9469 12.7162C17.9319 13.4636 17.791 14.2 17.5281 14.8985C17.2962 15.495 16.9424 16.0367 16.4892 16.489C16.036 16.9414 15.4933 17.2946 14.8958 17.526C14.1964 17.788 13.4574 17.9294 12.7104 17.9441C11.7557 18 11.4428 18 9.00147 18C6.56015 18 6.25524 17.987 5.29251 17.9441C4.54409 17.9196 3.80536 17.7677 3.10812 17.4951C2.51036 17.2641 1.96742 16.9113 1.51401 16.459C1.0606 16.0068 0.706679 15.4651 0.474866 14.8686C0.21194 14.1691 0.07098 13.4326 0.0559842 12.6862C0 11.7322 0 11.4209 0 8.98403C0 6.54718 0.0129963 6.24282 0.0559842 5.28185C0.0701034 4.53653 0.211771 3.79911 0.474866 3.10145C0.70629 2.50477 1.05995 1.96288 1.51321 1.51044C1.96647 1.05801 2.50935 0.705001 3.10713 0.474C3.80628 0.212021 4.54488 0.0703057 5.29151 0.0548842C6.24624 0 6.55915 0 9.00047 0C11.4418 0 11.7467 0.0119748 12.7084 0.0548842C13.4554 0.0701931 14.1943 0.21191 14.8938 0.474C15.4915 0.705162 16.0343 1.05823 16.4875 1.51064C16.9408 1.96305 17.2945 2.50486 17.5261 3.10145ZM4.37277 8.97905C4.37277 11.5277 6.44119 13.5923 8.99447 13.5923C10.2202 13.5923 11.3958 13.1063 12.2625 12.2411C13.1292 11.376 13.6162 10.2026 13.6162 8.97905C13.6162 7.75553 13.1292 6.58213 12.2625 5.71698C11.3958 4.85182 10.2202 4.36578 8.99447 4.36578C6.44119 4.36578 4.37277 6.43043 4.37277 8.97905ZM13.3875 5.18926C13.5184 5.24327 13.6586 5.271 13.8001 5.27087C14.3949 5.27087 14.8768 4.78989 14.8768 4.19514C14.8768 4.05394 14.8489 3.91412 14.7948 3.78367C14.7407 3.65322 14.6613 3.53469 14.5613 3.43484C14.4613 3.335 14.3425 3.2558 14.2118 3.20176C14.0811 3.14773 13.9411 3.11991 13.7996 3.11991C13.6582 3.11991 13.5181 3.14773 13.3874 3.20176C13.2567 3.2558 13.1379 3.335 13.0379 3.43484C12.9379 3.53469 12.8585 3.65322 12.8044 3.78367C12.7503 3.91412 12.7224 4.05394 12.7224 4.19514C12.7223 4.33645 12.7501 4.47639 12.8042 4.60696C12.8583 4.73754 12.9377 4.85618 13.0378 4.95609C13.1379 5.05601 13.2567 5.13524 13.3875 5.18926ZM11.9965 8.97911C11.9965 10.6341 10.6524 11.9758 8.99434 11.9758C7.3363 11.9758 5.99219 10.6341 5.99219 8.97911C5.99219 7.3241 7.3363 5.98244 8.99434 5.98244C10.6524 5.98244 11.9965 7.3241 11.9965 8.97911Z" fill="white"/>
</svg>
