<svg width="34" height="35" viewBox="0 0 34 35" fill="none" xmlns="http://www.w3.org/2000/svg">
<path d="M17 34C26.1127 34 33.5 26.6127 33.5 17.5C33.5 8.3873 26.1127 1 17 1C7.8873 1 0.5 8.3873 0.5 17.5C0.5 26.6127 7.8873 34 17 34Z" fill="white" stroke="#DFE6F0"/>
<mask id="mask0_481_8081" style="mask-type:alpha" maskUnits="userSpaceOnUse" x="1" y="1" width="32" height="33">
<path d="M33 17.5C33 26.3366 25.8366 33.5 17 33.5C8.16344 33.5 1 26.3366 1 17.5C1 8.66344 8.16344 1.5 17 1.5C25.8366 1.5 33 8.66344 33 17.5Z" fill="#C4C4C4"/>
</mask>
<g mask="url(#mask0_481_8081)">
<path d="M28.1496 24.9243L26.4995 27.3995L27.4002 28L29.0503 25.5248L28.1496 24.9243Z" fill="black"/>
<path d="M26.7996 24.0244L25.1494 26.4996L26.0501 27.1001L27.7002 24.6249L26.7996 24.0244Z" fill="black"/>
<path d="M25.449 23.1237L23.7988 25.5989L24.6995 26.1994L26.3496 23.7242L25.449 23.1237Z" fill="black"/>
<path d="M30.0994 21.9993L28.4492 24.4745L29.3499 25.0749L31 22.5997L30.0994 21.9993Z" fill="black"/>
<path d="M28.7507 21.0986L27.1006 23.5738L28.0012 24.1742L29.6514 21.699L28.7507 21.0986Z" fill="black"/>
<path d="M27.3987 20.1994L25.7485 22.6746L26.6492 23.2751L28.2993 20.7999L27.3987 20.1994Z" fill="black"/>
<path d="M7.60136 20.1983L6.70068 20.7987L10.3001 26.1978L11.2007 25.5974L7.60136 20.1983Z" fill="black"/>
<path d="M8.18215 24.0231L7.28369 24.6185L8.91985 27.0876L9.8183 26.4922L8.18215 24.0231Z" fill="black"/>
<path d="M6.25269 21.0981L5.35205 21.6985L7.00219 24.1737L7.90282 23.5733L6.25269 21.0981Z" fill="black"/>
<path d="M4.89894 21.9912L4.00049 22.5865L7.56939 27.9723L8.46784 27.377L4.89894 21.9912Z" fill="black"/>
<path d="M25.9116 11.7092L25.0132 12.3046L26.6493 14.7736L27.5478 14.1783L25.9116 11.7092Z" fill="black"/>
<path d="M27.0955 7.00026L26.1948 7.60071L27.845 10.0759L28.7456 9.47547L27.0955 7.00026Z" fill="black"/>
<path d="M25.5361 7.9737L24.6377 8.56903L28.2066 13.9549L29.105 13.3595L25.5361 7.9737Z" fill="black"/>
<path d="M28.9324 9.92085L28.0317 10.5213L29.6818 12.9965L30.5825 12.396L28.9324 9.92085Z" fill="black"/>
<path d="M23.9808 8.94716L23.0801 9.54761L24.7302 12.0228L25.6309 11.4224L23.9808 8.94716Z" fill="black"/>
<path d="M10.2996 8.80093L6.7002 14.2001L7.60087 14.8005L11.2003 9.40138L10.2996 8.80093Z" fill="black"/>
<path d="M8.94952 7.89908L5.3501 13.2982L6.25073 13.8986L9.85015 8.4995L8.94952 7.89908Z" fill="black"/>
<path d="M7.59939 7.00001L4 12.3991L4.90067 12.9996L8.50007 7.60046L7.59939 7.00001Z" fill="black"/>
<path d="M12.0996 13.9C11.6266 14.6092 11.298 15.4046 11.1324 16.2409C10.9668 17.0771 10.9676 17.9378 11.1346 18.7737C11.3017 19.6097 11.6317 20.4045 12.1059 21.1129C12.5802 21.8213 13.1893 22.4293 13.8985 22.9023C14.6078 23.3753 15.4032 23.704 16.2394 23.8695C17.0757 24.0351 17.9363 24.0343 18.7723 23.8673C19.6082 23.7002 20.4031 23.3702 21.1115 22.896C21.8199 22.4218 22.4279 21.8126 22.9009 21.1034C23.1375 20.7488 23.3019 20.3511 23.3848 19.9329C23.4677 19.5147 23.4675 19.0843 23.3841 18.6662C23.3007 18.2482 23.1357 17.8506 22.8986 17.4963C22.6615 17.142 22.357 16.8379 22.0024 16.6013C21.6478 16.3646 21.2501 16.2002 20.8319 16.1173C20.4137 16.0344 19.9833 16.0346 19.5652 16.1181C19.1472 16.2015 18.7496 16.3665 18.3953 16.6035C18.041 16.8406 17.7369 17.1451 17.5002 17.4997C17.018 18.2043 16.2775 18.6905 15.4393 18.8529C14.601 19.0153 13.7325 18.8407 13.0221 18.3672C12.3116 17.8936 11.8163 17.1592 11.6437 16.323C11.471 15.4868 11.6348 14.6162 12.0996 13.9Z" fill="#003478"/>
<path d="M12.0992 13.9C11.6344 14.6162 11.4706 15.4868 11.6432 16.323C11.8159 17.1592 12.3112 17.8936 13.0216 18.3672C13.7321 18.8408 14.6006 19.0153 15.4388 18.8529C16.2771 18.6906 17.0176 18.2044 17.4998 17.4998C17.9821 16.7952 18.7226 16.309 19.5608 16.1466C20.3991 15.9842 21.2676 16.1588 21.978 16.6323C22.6885 17.1059 23.1838 17.8403 23.3564 18.6765C23.5291 19.5127 23.3653 20.3833 22.9005 21.0995C23.3734 20.3903 23.7021 19.5949 23.8677 18.7586C24.0332 17.9224 24.0325 17.0617 23.8654 16.2258C23.6984 15.3898 23.3684 14.595 22.8941 13.8866C22.4199 13.1782 21.8108 12.5702 21.1016 12.0972C20.3923 11.6242 19.5969 11.2955 18.7606 11.13C17.9244 10.9644 17.0637 10.9652 16.2278 11.1322C15.3919 11.2992 14.597 11.6293 13.8886 12.1035C13.1802 12.5777 12.5722 13.1869 12.0992 13.8961V13.9Z" fill="#C60C30"/>
</g>
</svg>
