<svg width="18" height="18" viewBox="0 0 18 18" fill="none" xmlns="http://www.w3.org/2000/svg">
<path fill-rule="evenodd" clip-rule="evenodd" d="M0 2.16148C0 0.968241 0.968241 0 2.16148 0C3.35397 0 4.32221 0.968241 4.32296 2.16148C4.32296 3.35472 3.35472 4.34321 2.16148 4.34321C0.968241 4.34321 0 3.35472 0 2.16148ZM17.9948 18V17.9993H17.9993V11.3978C17.9993 8.16834 17.3041 5.68061 13.5286 5.68061C11.7136 5.68061 10.4956 6.6766 9.99837 7.62084H9.94588V5.98211H6.36615V17.9993H10.0936V12.0488C10.0936 10.4821 10.3906 8.96708 12.3309 8.96708C14.2426 8.96708 14.2711 10.7551 14.2711 12.1493V18H17.9948ZM0.296875 5.98267H4.02884V17.9998H0.296875V5.98267Z" fill="white"/>
</svg>
