<svg width="34" height="35" viewBox="0 0 34 35" fill="none" xmlns="http://www.w3.org/2000/svg">
<path d="M17 34C26.1127 34 33.5 26.6127 33.5 17.5C33.5 8.3873 26.1127 1 17 1C7.8873 1 0.5 8.3873 0.5 17.5C0.5 26.6127 7.8873 34 17 34Z" fill="#C4C4C4" stroke="#DFE6F0"/>
<mask id="mask0_481_7270" style="mask-type:alpha" maskUnits="userSpaceOnUse" x="1" y="1" width="32" height="33">
<path d="M33 17.5C33 26.3366 25.8366 33.5 17 33.5C8.16344 33.5 1 26.3366 1 17.5C1 8.66344 8.16344 1.5 17 1.5C25.8366 1.5 33 8.66344 33 17.5Z" fill="#C4C4C4"/>
</mask>
<g mask="url(#mask0_481_7270)">
<path d="M-5 3H53V32H-5V3Z" fill="#FFBE29"/>
<path d="M-2.29395 5.70673H12.7861V29.2934H-2.29395V5.70673Z" fill="#EB7400"/>
<path d="M-2.29395 5.70673H5.24605V29.2934H-2.29395V5.70673Z" fill="#00534E"/>
<path d="M13.4932 5.70667H48.2932V29.2933H13.4932V5.70667Z" fill="#8D153A"/>
<path d="M17.2757 24.712C17.2757 24.712 16.9558 25.3799 16.6023 25.6519C16.0785 26.0551 15.0046 26.026 14.5488 26.4963C14.0026 27.0509 14.5912 27.7837 14.5862 27.8473L14.5563 28.2342C14.5563 28.2342 14.9246 28.2388 15.0796 28.2636C15.3128 28.3008 15.4037 28.4953 15.8378 28.4664C16.9293 28.3938 16.8852 27.3858 16.947 26.5244C17.0018 26.1964 17.1286 25.7687 17.2007 25.4408C17.2625 25.1597 17.2757 24.712 17.2757 24.712L17.2757 24.712Z" fill="#FFBE29"/>
<path fill-rule="evenodd" clip-rule="evenodd" d="M17.3272 24.7249L17.3673 24.6411L17.2656 24.6614L17.2252 24.6695L17.2243 24.6996L17.2151 24.7182C17.2058 24.7367 17.1921 24.7635 17.1745 24.7965C17.1394 24.8627 17.0889 24.9536 17.0276 25.0529C16.9038 25.2532 16.7395 25.4811 16.5707 25.6111C16.4464 25.7068 16.2872 25.7784 16.108 25.8389C15.9534 25.8912 15.7869 25.9342 15.618 25.978C15.591 25.985 15.564 25.9919 15.537 25.999C15.3416 26.0499 15.1454 26.1037 14.969 26.1748C14.7926 26.2459 14.6326 26.3356 14.5117 26.4604C14.2203 26.7563 14.2337 27.1005 14.315 27.371C14.3556 27.506 14.4134 27.6243 14.46 27.7119C14.4717 27.7338 14.4827 27.7538 14.4925 27.7717L14.518 27.8183C14.5252 27.8317 14.5302 27.8416 14.5332 27.8485L14.5341 27.8508L14.5005 28.2855L14.5557 28.2862L14.5598 28.2863L14.5716 28.2864L14.6152 28.2873C14.6519 28.2881 14.7025 28.2894 14.7579 28.2915C14.8698 28.2958 14.9975 28.3031 15.0715 28.3149C15.1231 28.3231 15.1675 28.3401 15.2131 28.3619C15.2344 28.3721 15.2555 28.3831 15.278 28.3949L15.2836 28.3978C15.308 28.4106 15.3338 28.424 15.3615 28.4369C15.4747 28.4899 15.6146 28.5334 15.8413 28.5183C16.1224 28.4996 16.3348 28.4203 16.495 28.2944C16.6549 28.1686 16.7584 27.9998 16.8273 27.809C16.9399 27.4972 16.9627 27.1166 16.9843 26.7542C16.9888 26.6787 16.9933 26.6039 16.9985 26.5307C17.0256 26.3696 17.0703 26.1834 17.1177 25.9954C17.1284 25.9528 17.1393 25.9101 17.1501 25.8676C17.187 25.7224 17.2233 25.5797 17.2514 25.4521C17.2831 25.3078 17.302 25.1226 17.3131 24.9751C17.3186 24.901 17.3223 24.8357 17.3245 24.789L17.3268 24.734L17.3272 24.7249ZM14.5354 27.854C14.5355 27.8544 14.5355 27.8544 14.5354 27.854V27.854ZM17.2115 24.9448C17.1837 24.9941 17.1515 25.0493 17.1157 25.1074C16.991 25.309 16.8186 25.551 16.6339 25.6932C16.4964 25.799 16.3249 25.875 16.1412 25.937C15.9827 25.9906 15.8121 26.0347 15.6435 26.0784C15.6166 26.0853 15.5898 26.0923 15.5632 26.0992C15.3676 26.1502 15.1772 26.2025 15.0077 26.2708C14.8381 26.3392 14.6929 26.4222 14.586 26.5325C14.3312 26.7913 14.339 27.0908 14.4142 27.3412C14.4519 27.4667 14.5061 27.5781 14.5514 27.6632L14.5832 27.7217L14.6094 27.7694C14.6167 27.7832 14.6234 27.7962 14.6282 27.8072C14.6306 27.8128 14.633 27.8189 14.6348 27.825C14.6363 27.8303 14.6388 27.8401 14.6379 27.8514L14.6122 28.1836L14.6175 28.1837C14.6546 28.1846 14.7058 28.1859 14.7618 28.188C14.8729 28.1923 15.0068 28.1997 15.0879 28.2126L15.08 28.2616M15.0879 28.2126C15.1529 28.223 15.2073 28.2443 15.2578 28.2685C15.2808 28.2795 15.3035 28.2914 15.3257 28.303L15.3316 28.306C15.3559 28.3187 15.38 28.3312 15.4054 28.3431C15.5045 28.3895 15.627 28.4287 15.8344 28.4149C16.0991 28.3973 16.2904 28.3234 16.4309 28.213C16.5717 28.1023 16.6656 27.9518 16.7299 27.7738C16.8369 27.4775 16.8587 27.1158 16.8805 26.7536C16.8852 26.6759 16.8899 26.5981 16.8954 26.5209L16.8958 26.516C16.9235 26.3497 16.9697 26.159 17.0172 25.9701C17.0281 25.9268 17.0391 25.8837 17.05 25.8409C17.0868 25.6961 17.1226 25.5557 17.1502 25.4299C17.1803 25.2931 17.1988 25.1139 17.2098 24.9673C17.2104 24.9597 17.2109 24.9522 17.2115 24.9448" fill="black"/>
<path d="M22.4322 26.3189L22.6521 26.195L22.7461 26.3191C22.8714 26.4845 23.2182 26.4826 23.4483 26.3153L23.6242 26.1875L23.7715 26.3153C23.9652 26.4835 24.3269 26.4837 24.5579 26.3159C24.7196 26.1984 24.7421 26.196 24.8491 26.2854C24.9128 26.3387 25.0997 26.3994 25.2645 26.4203C25.5612 26.4579 25.5657 26.4558 25.7393 26.2017C25.8847 25.9889 25.9074 25.9027 25.8727 25.6963C25.8497 25.5595 25.825 25.3392 25.8177 25.2069C25.8045 24.9673 25.8059 24.9658 26.1637 24.8442C26.3612 24.7771 26.5899 24.6871 26.6719 24.6442C26.8148 24.5694 27.2087 24.1177 27.2087 24.0286C27.2087 24.005 27.0548 23.9689 26.8667 23.9483C26.1186 23.8664 25.9919 23.4745 26.4782 22.7464C27.2714 21.559 27.75 20.4027 27.7532 19.6661C27.7546 19.3368 27.7739 19.2263 27.8172 19.2979C27.9944 19.5905 27.677 20.8174 27.196 21.6985L27.0024 22.0532L27.1872 22.0117C27.2888 21.9889 27.8863 21.7429 28.5149 21.4651C30.2356 20.7047 30.8266 20.5557 31.9402 20.6015C32.8732 20.6398 33.2705 20.8177 33.9292 21.4917C34.2781 21.8488 34.6143 22.1044 35.2292 22.4799C36.5393 23.28 36.5939 23.3493 36.6562 24.2903C36.7194 25.2437 36.688 25.2954 35.9489 25.4547C35.3172 25.5909 34.9212 25.8782 34.815 26.2774C34.7583 26.4906 34.8777 26.4967 35.1961 26.297L35.4295 26.1506L35.5333 26.297C35.6697 26.4894 35.9598 26.4902 36.2006 26.2988L36.3825 26.1542L36.5685 26.2988C36.8574 26.5234 37.2417 26.4689 37.3501 26.1879C37.371 26.1339 37.4266 26.1512 37.5392 26.2468C37.7503 26.4258 38.2915 26.5025 38.3499 26.3618C38.3722 26.3081 38.3298 26.1755 38.2557 26.0671C37.9409 25.6065 37.8424 25.3868 37.8383 25.1361C37.8326 24.7874 37.9393 24.6191 38.3458 24.3355C38.8396 23.991 38.9922 23.5465 38.6167 23.5465C38.3848 23.5465 38.151 23.3465 38.002 23.0206C37.6989 22.3582 37.7583 21.6155 38.2131 20.3801C38.6751 19.1252 38.7263 18.8938 38.7281 18.0545C38.7297 17.3759 38.7121 17.2585 38.5539 16.8865C38.4571 16.659 38.2608 16.3203 38.1177 16.1339L37.8573 15.7948L38.1916 15.5246C39.2121 14.6997 39.0034 13.3495 37.7748 12.8293C37.399 12.6702 37.3051 12.6561 36.6464 12.6604C36.2513 12.663 35.6488 12.7138 35.3075 12.7732C34.9595 12.8338 34.3706 12.8825 33.9666 12.884C33.3248 12.8866 33.2158 12.8711 32.9685 12.7427C32.7106 12.6087 32.6664 12.5451 32.6159 12.2355C32.6055 12.1719 32.5599 12.1084 32.5146 12.0945C32.4268 12.0675 32.0217 12.4105 31.9619 12.5625C31.9323 12.6374 31.9082 12.6323 31.8216 12.5323C31.7641 12.4659 31.6838 12.3134 31.6431 12.1933C31.5409 11.8914 31.6664 11.665 32.0301 11.4954L32.3124 11.3638L32.1459 11.2631C31.8025 11.0552 31.2186 11.1974 31.0075 11.5404C30.9477 11.6374 30.8826 11.717 30.8627 11.7172C30.8428 11.7173 30.7292 11.6248 30.6104 11.5115C30.167 11.0888 30.3195 10.4634 30.9125 10.2725C31.2288 10.1707 31.5086 10.2483 31.5668 10.4541C31.6557 10.7682 31.932 10.3553 31.8825 9.98244C31.8495 9.73454 31.8545 9.72595 32.0303 9.72595C32.2748 9.72595 32.7952 10.039 32.9561 10.283C33.143 10.5663 33.1294 11.0124 32.9237 11.345L32.7622 11.6061L32.9735 11.5648C33.2833 11.5042 33.5844 11.3165 33.7367 11.0888C33.8977 10.8481 33.915 10.3794 33.7722 10.1265C33.6339 9.88133 33.6497 9.84242 33.8543 9.92525C34.2021 10.0661 34.3881 10.2215 34.5276 10.4878C34.6532 10.7276 34.6602 10.7872 34.5922 11.0368C34.5503 11.1908 34.4569 11.3934 34.3847 11.487C34.2724 11.6328 34.2686 11.6573 34.3581 11.6573C34.5248 11.6573 34.8728 11.5033 34.9965 11.3749C35.059 11.31 35.15 11.1503 35.1989 11.02L35.2877 10.7829L35.3897 10.9636C35.534 11.2191 35.8145 11.449 36.1566 11.592C36.5244 11.7459 36.6776 11.7546 36.4852 11.6106C36.3555 11.5136 36.1165 10.8293 36.1889 10.7623C36.2316 10.7229 36.731 11.0979 37.3012 11.5974C37.8407 12.0698 38.1796 12.2246 38.6751 12.2246C39.308 12.2246 39.6764 11.6871 39.392 11.1788C39.2261 10.8825 38.8567 10.8413 38.6407 11.0951C38.5413 11.2118 38.514 11.3046 38.5431 11.427C38.5788 11.577 38.5649 11.597 38.4249 11.597C38.2409 11.597 37.8783 11.3673 37.2342 10.843C36.2522 10.0434 35.0589 9.36564 34.1972 9.1181C33.6442 8.95922 32.463 8.89723 31.9008 8.99757C31.2925 9.10618 30.5729 9.44589 30.1809 9.80952C29.4862 10.4539 29.4752 11.3114 30.1515 12.0922L30.3453 12.3159L30.2141 12.5147C30.0233 12.8039 30.0396 13.1931 30.2546 13.4797C30.3493 13.606 30.4448 13.7092 30.4669 13.7092C30.489 13.7091 30.5131 13.6279 30.5206 13.5288C30.5396 13.278 30.65 13.1099 30.8393 13.0434C31.0099 12.9835 31.1201 13.0118 31.9011 13.3159C32.7227 13.6359 34.0738 13.6579 35.5105 13.3747C36.2148 13.2358 37.0453 13.244 37.4106 13.3933C38.0804 13.6671 38.2357 14.3794 37.7433 14.92C37.5302 15.154 37.3246 15.2494 36.6345 15.4342C36.1094 15.5748 35.985 15.5841 34.7914 15.5725C33.7716 15.5626 33.4052 15.5817 32.9889 15.6665C32.537 15.7585 32.259 15.7678 30.9315 15.7352L29.3967 15.6974L29.5669 15.8349C29.6605 15.9106 29.7928 16.0036 29.8608 16.0417C29.9766 16.1066 29.9727 16.1153 29.8006 16.1775C29.6995 16.2141 29.4751 16.244 29.3019 16.244H28.987L28.9446 16.5051C28.9213 16.6488 28.9231 16.8164 28.9485 16.8777C28.9861 16.9682 28.9721 16.9812 28.8744 16.9465C28.8082 16.923 28.6237 16.8768 28.4645 16.8439C28.3053 16.8109 28.091 16.7438 27.9883 16.6947C27.8155 16.6121 27.7963 16.6144 27.7327 16.7242C27.6759 16.8223 27.1425 17.2097 27.0642 17.2097C27.0516 17.2097 27.0353 17.135 27.028 17.0437C27.0207 16.9524 26.9437 16.7148 26.857 16.5156C26.7702 16.3164 26.6796 16.0992 26.6557 16.0328C26.6195 15.9326 26.6032 15.9275 26.5596 16.0026C26.5307 16.0524 26.4885 16.1882 26.4658 16.3044C26.4431 16.4205 26.3627 16.6093 26.2872 16.7238L26.1498 16.9319L26.0622 16.7539C25.9681 16.5629 25.8119 16.3647 25.7554 16.3647C25.7363 16.3647 25.7038 16.4258 25.6831 16.5005C25.64 16.6565 25.2697 17.0889 25.1792 17.0889C25.1459 17.0889 25.1187 16.9667 25.1187 16.8174C25.1187 16.668 25.0893 16.5458 25.0534 16.5458C25.0175 16.5458 24.9881 16.5844 24.9881 16.6317C24.9881 16.7465 24.6718 17.0889 24.5657 17.0889C24.5194 17.0889 24.445 17.1297 24.4003 17.1795C24.2836 17.3093 24.1883 17.2911 24.2373 17.1483C24.2603 17.0814 24.2453 16.9253 24.2041 16.8013C24.1628 16.6774 24.119 16.5454 24.1066 16.5081C24.091 16.4612 23.9777 16.4736 23.7378 16.5487C23.3502 16.6699 23.2203 16.6485 23.4196 16.4961C23.4925 16.4405 23.6033 16.2476 23.666 16.0675C23.7286 15.8874 23.8209 15.7276 23.8712 15.7124C23.9417 15.6911 23.9379 15.7174 23.8549 15.8269C23.7956 15.9051 23.7469 16.0106 23.7467 16.0613C23.7467 16.112 23.7019 16.2322 23.6476 16.3284C23.5933 16.4246 23.5591 16.5129 23.5717 16.5245C23.5843 16.5361 23.7318 16.4815 23.8995 16.403L24.2043 16.2604L24.2056 16.388C24.2063 16.4582 24.243 16.6433 24.2872 16.7994L24.3676 17.0832L24.5751 16.9901C24.7872 16.895 24.988 16.5559 24.988 16.2931C24.988 16.1631 25.0643 16.1831 25.0956 16.3212C25.1047 16.3617 25.1526 16.5138 25.202 16.6592L25.2918 16.9236L25.4338 16.7567C25.512 16.6649 25.6099 16.4848 25.6515 16.3565C25.7237 16.1338 25.8371 16.0381 25.8371 16.1998C25.8371 16.3163 26.1631 16.7343 26.2259 16.6984C26.2563 16.681 26.3168 16.5242 26.3604 16.3498C26.451 15.9872 26.5972 15.7406 26.6901 15.7936C26.725 15.8136 26.7386 15.8523 26.7203 15.8796C26.702 15.907 26.7771 16.1428 26.8872 16.4035C26.9972 16.6643 27.1077 16.9269 27.1328 16.987C27.173 17.0836 27.2093 17.0696 27.4452 16.8663C27.592 16.7398 27.7253 16.5982 27.7413 16.5516C27.7656 16.4812 27.7983 16.4837 27.9356 16.5669C28.1276 16.6831 28.7732 16.8704 28.823 16.8243C28.8417 16.8071 28.8608 16.6417 28.8655 16.4568L28.8741 16.1205L29.0598 16.1581C29.1619 16.1788 29.3765 16.1775 29.5368 16.1553L29.8283 16.1149L29.5685 15.941C29.4257 15.8454 29.2813 15.7217 29.2476 15.6661C29.2117 15.6068 29.0846 15.5565 28.9405 15.5446C28.5514 15.5123 27.8618 15.1349 27.8618 14.9542C27.8618 14.9203 27.9573 14.978 28.074 15.0824C28.333 15.314 28.6929 15.4594 29.0071 15.4594H29.2422L29.0968 15.2706C29.0132 15.1622 28.9383 14.9565 28.9207 14.7873C28.8926 14.5175 28.8635 14.4747 28.5748 14.2789C28.4014 14.1613 28.1866 13.985 28.0975 13.8871L27.9355 13.7092L27.8529 13.9204C27.8074 14.0366 27.7519 14.1317 27.7294 14.1317C27.707 14.1317 27.6196 14.0638 27.5352 13.9808C27.4508 13.8978 27.3649 13.8302 27.3442 13.8306C27.3235 13.831 27.2488 13.9428 27.1781 14.079L27.0497 14.3267L26.9504 14.1839C26.8958 14.1054 26.7668 13.9665 26.6637 13.8752C26.5607 13.7839 26.5065 13.7092 26.5433 13.7092C26.5801 13.7092 26.7073 13.8043 26.8259 13.9205L27.0416 14.1318L27.1294 13.977C27.1815 13.8851 27.201 13.744 27.1774 13.6299C27.143 13.4636 27.1479 13.4539 27.2132 13.5583C27.2548 13.6247 27.381 13.752 27.4936 13.8412L27.6985 14.0033L27.8399 13.7506C27.9806 13.4992 27.9815 13.4987 28.0456 13.6489C28.1312 13.8497 28.7507 14.3452 29.2781 14.6347C29.3594 14.6793 29.3251 14.5259 29.175 14.173C29.1352 14.0796 29.1027 13.9111 29.1027 13.7987C29.1027 13.6318 29.0534 13.5576 28.8347 13.3952C28.519 13.1608 28.4169 12.9941 28.3574 12.616C28.3333 12.4628 28.278 12.2924 28.2346 12.2373C28.1702 12.1557 28.1595 12.2014 28.1768 12.4857C28.1884 12.6773 28.1629 12.9156 28.12 13.0152L28.0421 13.1962L27.9819 13.0453C27.9488 12.9624 27.8023 12.818 27.6564 12.7246C27.5105 12.6312 27.4081 12.5391 27.4288 12.52C27.4496 12.5008 27.5997 12.5859 27.7624 12.7091C28.0103 12.8968 28.0649 12.9171 28.0992 12.8345C28.1396 12.7373 28.0992 12.3147 28.0212 12.0194C27.9824 11.8719 27.9858 11.8727 28.1722 12.0546C28.3097 12.1888 28.3858 12.3488 28.4447 12.6279C28.5195 12.9826 28.5573 13.0416 28.8934 13.3296C29.0952 13.5025 29.2709 13.6343 29.2837 13.6224C29.2966 13.6105 29.3221 13.1632 29.3403 12.6284C29.3754 11.6027 29.3358 11.3587 29.0826 11.0418L28.9525 10.879L29.157 10.6638C29.4238 10.3831 29.5462 10.1581 29.5994 9.85108L29.6426 9.60134L29.4118 9.81457C29.2229 9.98916 29.1326 10.0278 28.9138 10.0278C28.6971 10.0278 28.6124 9.99236 28.4664 9.84054C28.2912 9.65837 27.9807 9.48309 27.6821 9.39778C27.5718 9.36627 27.5352 9.38 27.5352 9.45279C27.5352 9.50615 27.4743 9.66014 27.3998 9.795L27.2644 10.0402L26.9808 9.76666C26.8068 9.59887 26.6003 9.46827 26.4467 9.42885C26.0542 9.32816 26.033 9.33816 26.033 9.62344C26.033 10.0562 25.8436 10.1368 25.5028 9.84916C25.243 9.6299 25.0275 9.58223 24.5349 9.63507L24.1544 9.67587L24.2229 9.84346C24.28 9.98344 24.2672 10.0424 24.1446 10.2014C23.9459 10.4592 23.6876 10.571 23.2898 10.571C23.1066 10.571 22.8774 10.6079 22.7804 10.6531C22.6834 10.6983 22.4424 10.7504 22.2448 10.7689C22.0472 10.7873 21.8367 10.8203 21.7769 10.842C21.6833 10.8762 21.673 10.848 21.7031 10.6404C21.7493 10.3226 21.5217 10.0881 21.1671 10.0881C20.7071 10.0881 20.4949 10.4897 20.675 11.0193C20.7097 11.1212 20.7551 11.282 20.7759 11.3766C20.7974 11.4746 21.0047 11.7349 21.2585 11.9827C21.5032 12.2216 21.7344 12.4701 21.7723 12.5351C21.8103 12.6 21.9358 12.7041 22.0512 12.7665L22.2611 12.88L22.2334 12.6609C22.203 12.4201 22.2568 12.3824 22.3881 12.5523C22.435 12.613 22.5542 12.7112 22.653 12.7705C22.8086 12.8638 22.8326 12.8657 22.8326 12.7847C22.8326 12.7332 22.8643 12.6147 22.9031 12.5212L22.9736 12.3513L23.0959 12.5825C23.1632 12.7096 23.382 12.9986 23.5821 13.2246C23.9704 13.6632 24.207 14.1533 24.0849 14.2661C24.0353 14.3118 23.9015 14.3083 23.624 14.2539C23.4089 14.2117 23.1428 14.1894 23.0328 14.2043C22.808 14.2348 22.7902 14.2065 22.9285 14.0376C23.0744 13.8593 23.0512 13.8299 22.7645 13.8299C22.4329 13.8299 21.6095 13.6748 21.2934 13.5528C20.986 13.4341 20.9151 13.4636 20.8247 13.7481C20.784 13.8761 20.7094 14.108 20.659 14.2635L20.5674 14.5462L20.8999 14.515C21.0828 14.4978 21.318 14.4587 21.4226 14.4281C21.5273 14.3976 21.6223 14.3813 21.6339 14.392C21.6455 14.4027 21.5989 14.5132 21.5303 14.6375L21.4056 14.8635L21.6129 14.8223C21.727 14.7996 21.8985 14.7441 21.9942 14.6989C22.1606 14.6204 22.174 14.6261 22.3052 14.8317C22.4667 15.0845 22.5958 15.0741 22.6245 14.806C22.6541 14.5288 22.7475 14.5698 22.9233 14.9371C23.0924 15.2903 23.2683 15.415 23.302 15.2056C23.3133 15.1361 23.4043 15.023 23.5044 14.9542C23.7068 14.815 23.8594 14.8568 23.9469 15.0752C24.0374 15.3014 23.8355 15.5345 23.2481 15.8819C22.0716 16.5777 21.3877 17.5294 21.1925 18.7425C21.0164 19.8366 21.5664 20.9672 22.6698 21.7792C23.1978 22.1678 24.0366 22.578 23.9833 22.4215C23.757 21.7569 23.7644 20.4888 23.996 20.2748C24.0307 20.2427 24.0187 20.375 23.9694 20.5689C23.7855 21.2909 23.8654 21.8663 24.3367 23.2147C24.7629 24.4342 24.7039 24.9554 24.1007 25.3C23.9069 25.4106 23.7822 25.4288 23.2612 25.4227C22.696 25.416 22.6344 25.4271 22.4529 25.5682C22.277 25.705 22.0489 26.1541 22.0489 26.3637C22.0489 26.4772 22.1781 26.4622 22.432 26.3191L22.4322 26.3189Z" fill="#FFBE29"/>
<path d="M31.6066 26.2945L31.8437 26.1458L32.0046 26.2945C32.2154 26.4893 32.4624 26.485 32.665 26.2829C32.7535 26.1947 32.8329 26.1336 32.8415 26.1471C32.8502 26.1606 32.8896 26.226 32.9292 26.2923C32.9793 26.3764 33.0823 26.4186 33.2682 26.4314C33.4923 26.4468 33.5524 26.4257 33.6414 26.3002L33.7475 26.1505L33.981 26.2969C34.6199 26.6976 34.9605 26.2772 34.6749 25.44C34.5297 25.0144 34.6095 24.7751 35.0775 24.2333C35.2749 24.0049 35.4365 23.761 35.4367 23.6914C35.4367 23.5805 35.4002 23.5657 35.1375 23.5707C34.8862 23.5756 34.8127 23.5493 34.6804 23.4072C34.4652 23.1761 34.4779 22.9114 34.7185 22.6176L34.9107 22.383L34.5697 22.1572C34.3822 22.0331 34.0441 21.7393 33.8183 21.5044C33.3112 20.9769 32.8126 20.7268 32.1551 20.6701L31.7142 20.632L31.7149 20.9576C31.7157 21.3767 31.9173 21.7799 32.4676 22.4629C33.0933 23.2394 33.137 23.3596 33.1623 24.3746L33.1838 25.2329L33.0027 25.4005C32.8391 25.552 32.7653 25.5713 32.2374 25.601C31.7348 25.6293 31.6292 25.6546 31.4818 25.7821C31.2859 25.9514 31.2273 26.0435 31.1668 26.2773C31.1316 26.4135 31.1459 26.4432 31.2466 26.4432C31.3142 26.4432 31.4761 26.3763 31.6065 26.2946L31.6066 26.2945Z" fill="#FFBE29"/>
<path d="M18.2603 23.8112C18.2603 23.7027 18.31 23.6737 18.5544 23.6398L18.8486 23.5991L18.6524 23.4466C18.4194 23.2654 18.3978 23.1238 18.6032 23.1235C18.8078 23.1235 19.1542 22.9162 19.2069 22.7629C19.2314 22.6916 19.216 22.5964 19.1721 22.5475C19.0574 22.4198 18.8418 22.4391 18.8017 22.5806C18.7587 22.7327 18.6866 22.7331 18.5232 22.5821C18.2774 22.3549 18.2719 21.8848 18.5118 21.611C18.6249 21.482 18.6239 21.4735 18.4797 21.3403C18.3247 21.197 18.2139 20.9134 18.2867 20.8461C18.3099 20.8247 18.4324 20.8417 18.559 20.884C18.7388 20.9441 18.8098 20.945 18.8839 20.8882C19.1084 20.7161 18.8652 20.4948 18.5053 20.5436C18.3605 20.5632 18.3006 20.5436 18.2798 20.4703C18.2641 20.4147 18.1374 20.3421 17.9946 20.3069C17.7396 20.244 17.7378 20.2447 17.7378 20.4162C17.7378 20.6041 17.6279 20.6395 17.419 20.519C17.2493 20.4211 17.0847 20.4971 17.0847 20.6734C17.0847 20.838 17.2542 20.9191 17.5582 20.9C17.7913 20.8854 17.8 21.0545 17.5786 21.2976L17.4194 21.4725L17.5455 21.6493C17.7323 21.9111 17.7166 22.346 17.5125 22.562L17.3525 22.7313L17.2475 22.5956C17.1017 22.4068 16.9022 22.4195 16.8474 22.6209C16.8116 22.7528 16.8412 22.8131 17.0105 22.9529C17.1243 23.0468 17.2904 23.1236 17.3796 23.1236C17.6004 23.1236 17.5918 23.2931 17.3622 23.4643L17.1826 23.5982L17.4602 23.6402C17.6129 23.6633 17.7378 23.7068 17.7378 23.7368C17.7378 23.8519 17.8097 24.2012 17.992 24.21C18.1548 24.2178 18.2565 23.9762 18.2603 23.8112Z" fill="#FFBE29"/>
<path d="M21.7734 22.5475C22.0256 22.4505 22.5714 21.9996 22.5714 21.8882C22.5714 21.8531 22.4207 21.6915 22.2366 21.5289C21.8491 21.1869 21.4276 20.6108 21.3184 20.274C21.2615 20.0983 20.9863 19.7977 20.2113 19.0643L19.1799 18.0883L18.8827 18.1618C18.7192 18.2022 18.5197 18.2362 18.4394 18.2374C18.301 18.2395 18.3035 18.2472 18.4875 18.3862L18.6816 18.5327L18.9538 18.3854C19.2176 18.2425 19.227 18.2416 19.2595 18.3566C19.2786 18.4239 19.2375 18.5405 19.1645 18.6262C19.0938 18.7093 19.0536 18.8035 19.075 18.8356C19.0965 18.8677 19.0286 18.9348 18.9241 18.9847C18.7304 19.0773 18.596 19.3819 18.7488 19.3819C18.8863 19.3819 19.1895 19.0169 19.1546 18.8935C19.1367 18.8302 19.1453 18.7652 19.1738 18.749C19.2919 18.6815 19.2845 18.9681 19.1645 19.109C19.0938 19.1921 19.0536 19.2863 19.075 19.3184C19.0965 19.3505 19.0286 19.4176 18.9241 19.4676C18.7317 19.5595 18.5959 19.8647 18.7474 19.8647C18.8959 19.8647 19.1941 19.5159 19.1572 19.3855C19.1379 19.3172 19.1453 19.248 19.1738 19.2318C19.2533 19.1863 19.2962 19.4126 19.2291 19.5234C19.1931 19.5828 19.1935 19.6639 19.2299 19.7281C19.296 19.8446 19.229 20.0682 19.1073 20.1377C19.0551 20.1675 19.0905 20.226 19.217 20.3193C19.4002 20.4542 19.4037 20.4684 19.4037 21.0638C19.4037 21.5615 19.4243 21.6899 19.518 21.7765C19.6232 21.8737 19.6323 21.8741 19.6323 21.7809C19.6323 21.679 19.8155 21.5546 19.9653 21.5546C20.0095 21.5546 20.2857 21.7829 20.579 22.0621C20.8741 22.3429 21.1829 22.5818 21.2704 22.597C21.3573 22.6121 21.4514 22.6282 21.4795 22.6327C21.5076 22.6372 21.6398 22.5989 21.7734 22.5475L21.7734 22.5475Z" fill="#FFBE29"/>
<path d="M18.6197 20.14C18.6197 19.9795 18.2805 19.8083 17.8749 19.7639C17.5474 19.7281 17.542 19.7301 17.542 19.8897C17.542 20.0219 17.5935 20.0738 17.8196 20.1699C18.1828 20.3242 18.6197 20.3079 18.6197 20.14L18.6197 20.14Z" fill="#FFBE29"/>
<path d="M18.9918 20.1253C19.1572 19.9788 19.2356 19.8046 19.1361 19.8046C19.0216 19.8046 18.7178 20.0706 18.7178 20.1708C18.7178 20.3273 18.7742 20.3179 18.9918 20.1253V20.1253Z" fill="#FFBE29"/>
<path d="M18.6387 19.6509C18.6527 19.5604 18.5954 19.5 18.4234 19.4242C18.0524 19.2607 17.6088 19.185 17.502 19.2669C17.3052 19.4178 17.4363 19.6204 17.7543 19.6569C17.8823 19.6715 18.0559 19.7096 18.1401 19.7415C18.3845 19.8341 18.6169 19.7919 18.6387 19.6509Z" fill="#FFBE29"/>
<path d="M18.6395 19.1662C18.6595 19.0371 18.5748 18.9909 17.884 18.7536C17.3683 18.5765 17.14 18.6601 17.3048 18.9655C17.3622 19.072 17.4586 19.1206 17.6747 19.1521C17.8355 19.1756 18.0551 19.2216 18.1629 19.2542C18.4508 19.3414 18.6171 19.3107 18.6395 19.1662L18.6395 19.1662Z" fill="#FFBE29"/>
<path d="M18.9852 18.7119C19.0895 18.6088 19.1747 18.4871 19.1747 18.4415C19.1747 18.2936 18.7631 18.5553 18.7106 18.7366C18.6477 18.954 18.7497 18.9449 18.9852 18.7119L18.9852 18.7119Z" fill="#FFBE29"/>
<path d="M18.6389 18.6814C18.6617 18.5344 18.411 18.4015 17.918 18.2994C17.5563 18.2245 17.3968 18.267 17.4238 18.431C17.4386 18.5205 17.5591 18.5859 17.9008 18.69C18.4477 18.8565 18.6122 18.8546 18.6389 18.6814L18.6389 18.6814Z" fill="#FFBE29"/>
<path d="M19.1215 17.997C19.7532 17.7226 19.8079 17.0307 19.2122 16.849C18.9648 16.7736 18.8069 16.8142 18.7123 16.9777C18.6398 17.1029 18.6883 17.3304 18.7874 17.3304C18.8209 17.3304 18.8483 17.3726 18.8483 17.424C18.8483 17.6643 17.8838 17.7731 17.4883 17.5775C17.3493 17.5088 17.2888 17.3304 17.4045 17.3304C17.4909 17.3304 17.5506 17.1487 17.5065 17.0201C17.4463 16.845 17.2654 16.7843 17.003 16.8512C16.4108 17.0023 16.4275 17.6812 17.0303 17.9693C17.5247 18.2055 18.6084 18.2199 19.1215 17.997L19.1215 17.997Z" fill="#FFBE29"/>
<path d="M18.7291 17.4649C18.7657 17.4311 18.7498 17.3792 18.6885 17.3321C18.5542 17.2291 18.5613 17.076 18.7086 16.9006C18.8193 16.7689 18.8331 16.5718 18.8712 14.584C18.9368 11.1583 19.1979 8.58162 19.542 7.96352C19.679 7.71742 19.6598 7.71644 19.3057 7.95147C18.8497 8.25423 18.5025 8.64846 18.1948 9.21282C17.614 10.2783 17.4121 11.7118 17.4121 14.7718C17.4121 16.5092 17.4242 16.7365 17.5257 16.8999C17.622 17.055 17.6271 17.1123 17.5595 17.278C17.5156 17.3854 17.4957 17.488 17.5152 17.5061C17.6449 17.6259 18.5896 17.5941 18.7291 17.4652V17.4649Z" fill="#FFBE29"/>
<path d="M24.036 14.1982C24.0558 14.1687 24.0121 14.0193 23.9388 13.8663C23.8247 13.6278 23.7787 13.5882 23.616 13.5882C23.1065 13.5882 22.2874 13.366 21.443 12.9988C20.9554 12.7867 20.787 12.738 20.7285 12.7921C20.5793 12.9299 20.8273 13.2571 21.2113 13.4291C21.5519 13.5817 22.5043 13.7692 22.9387 13.7692C23.1907 13.7692 23.1966 13.7803 23.0532 13.9826L22.9477 14.1313L23.2328 14.1385C23.3896 14.1424 23.6061 14.1664 23.7139 14.1917C23.9938 14.2575 23.9964 14.2576 24.036 14.1983L24.036 14.1982Z" fill="#FFBE29"/>
<path d="M27.0127 15.7419C27.0127 15.6534 26.7462 15.4134 26.4761 15.2588C26.264 15.1374 26.229 15.1337 26.2285 15.2327C26.2278 15.3831 26.0908 15.7608 26.037 15.7608C26.0066 15.7608 25.9618 15.687 25.9373 15.5968C25.9128 15.5065 25.8099 15.3287 25.7088 15.2017L25.5249 14.9706L25.3817 15.1847C25.2482 15.3843 25.017 15.5797 24.9143 15.5797C24.8898 15.5797 24.885 15.4746 24.9037 15.3462C24.9239 15.2066 24.9083 15.0958 24.8648 15.071C24.8248 15.0482 24.792 15.0561 24.792 15.0887C24.792 15.1639 24.4709 15.5194 24.4029 15.5194C24.3749 15.5194 24.3357 15.4175 24.3158 15.2931C24.2959 15.1686 24.2621 14.9717 24.2406 14.8555C24.2192 14.7393 24.2649 14.8181 24.3423 15.0306L24.4829 15.4169L24.6371 15.1815C24.722 15.052 24.7915 14.9105 24.7917 14.867C24.7917 14.8236 24.8206 14.8043 24.8555 14.8243C24.8903 14.8442 24.9389 14.9998 24.9633 15.1701L25.0078 15.4798L25.1775 15.2983C25.2708 15.1984 25.3802 15.0647 25.4205 15.0012C25.4925 14.8878 25.4966 14.8879 25.6397 15.0064C25.72 15.0728 25.8433 15.2316 25.9139 15.3593C25.9844 15.487 26.0515 15.582 26.0631 15.5705C26.0746 15.559 26.1004 15.4274 26.1205 15.278C26.1406 15.1286 26.1585 15.0009 26.1603 14.9941C26.1703 14.9571 26.6715 15.2749 26.8569 15.4359C26.9761 15.5394 27.0893 15.6095 27.1085 15.5918C27.1276 15.5741 27.1433 15.4215 27.1433 15.2526C27.1433 14.991 27.1149 14.9209 26.9509 14.7778C26.7623 14.6133 26.757 14.6124 26.6873 14.7327C26.5969 14.8889 26.4902 14.8911 26.4902 14.7369C26.4902 14.6243 26.1338 14.1916 26.0411 14.1916C26.0171 14.1916 25.942 14.2867 25.8743 14.4029C25.8066 14.519 25.7338 14.614 25.7125 14.6139C25.6211 14.6133 25.1186 14.0668 25.1189 13.9681C25.1189 13.8896 25.1527 13.9097 25.2408 14.0407C25.3077 14.1403 25.4414 14.289 25.5379 14.3711C25.7333 14.5374 25.8043 14.4969 25.8797 14.1765C25.9011 14.0853 25.9385 14.0106 25.9626 14.0106C26.0461 14.0106 26.4835 14.4638 26.545 14.6141L26.6068 14.765L26.6535 14.599C26.7107 14.3961 26.7738 14.3885 26.8652 14.5737C26.9033 14.6511 27.0917 14.8119 27.2839 14.9311L27.6332 15.1479L27.7033 14.9299C27.7419 14.81 27.7929 14.7411 27.8168 14.7767C27.8524 14.83 27.7616 15.1912 27.6931 15.269C27.6828 15.2806 27.5696 15.2163 27.4415 15.126L27.2087 14.9619L27.2077 15.2557C27.2071 15.4173 27.1891 15.6106 27.1675 15.6853C27.1251 15.8314 27.0127 15.8724 27.0127 15.7419L27.0127 15.7419Z" fill="black"/>
<path d="M25.2706 13.3995C24.8554 13.0612 24.7924 12.9839 24.8016 12.8236L24.8114 12.653L24.8385 12.8178C24.8543 12.914 24.9649 13.0582 25.1042 13.1643L25.3429 13.3461L25.4895 13.1806C25.5702 13.0896 25.6372 12.9811 25.6385 12.9396C25.6419 12.8315 25.6618 12.8405 25.9429 13.0785C26.1926 13.2899 26.1965 13.2909 26.2337 13.1539C26.2544 13.0776 26.247 12.9338 26.2174 12.8344C26.1358 12.5613 26.1517 12.5201 26.2754 12.6848C26.337 12.7669 26.4361 12.8829 26.4955 12.9426C26.599 13.0466 26.6054 13.0453 26.6439 12.9125C26.666 12.8361 26.6845 12.6964 26.685 12.602L26.6859 12.4303L26.9111 12.6794C27.1214 12.912 27.1408 12.9206 27.205 12.8098C27.2428 12.7445 27.2742 12.5875 27.2747 12.4608C27.2754 12.2972 27.2931 12.2559 27.3358 12.3182C27.407 12.4222 27.3575 12.7055 27.226 12.9469L27.1316 13.1201L27.0077 12.9318C26.8492 12.691 26.7965 12.6949 26.6948 12.9547C26.5987 13.2003 26.5362 13.219 26.4426 13.0302C26.382 12.908 26.3705 12.9229 26.3275 13.1796L26.2797 13.4649L25.9932 13.248L25.7068 13.0312L25.5781 13.174C25.5073 13.2526 25.4483 13.3508 25.4471 13.3923C25.4445 13.4822 25.3756 13.485 25.2706 13.3995L25.2706 13.3995Z" fill="black"/>
<path d="M28.9633 12.1396C28.8121 12.0068 28.708 11.88 28.7319 11.858C28.7558 11.8359 28.7827 11.8296 28.7917 11.8439C28.8007 11.8583 28.9242 11.985 29.0662 12.1256C29.3931 12.4492 29.3259 12.4584 28.9633 12.1396V12.1396Z" fill="black"/>
<path d="M24.0446 11.6436C23.9071 11.4623 23.9166 11.3421 24.0839 11.1456C24.2049 11.0035 24.2601 10.9842 24.4712 11.0104C24.6067 11.0272 24.8981 11.144 25.1189 11.2699C25.3739 11.4153 25.6377 11.5127 25.8419 11.5369C26.0188 11.5579 26.1635 11.5658 26.1635 11.5545C26.1635 11.5432 26.0901 11.4264 26.0003 11.295C25.787 10.9828 25.7943 10.9493 26.0348 11.1363C26.2817 11.3283 26.5771 11.3844 27.2371 11.3649L27.5595 11.3553L27.3724 11.1749C27.1108 10.9226 27.1913 10.8999 27.4803 11.1446C27.7512 11.374 27.7343 11.3902 27.1639 11.4457C26.9216 11.4693 26.661 11.4522 26.4443 11.3985C26.1202 11.3181 26.1077 11.3193 26.1691 11.4253C26.2044 11.4864 26.2618 11.5364 26.2964 11.5364C26.3311 11.5364 26.3594 11.5673 26.3594 11.6052C26.3594 11.7215 25.6594 11.6192 25.3249 11.4539C24.5607 11.0764 24.4645 11.0437 24.2827 11.0997C24.1814 11.1308 24.0801 11.2219 24.0452 11.3131C23.9288 11.6176 24.3713 11.8543 24.5539 11.5852C24.6068 11.5071 24.5944 11.4538 24.5015 11.3588C24.3741 11.2288 24.386 11.2103 24.558 11.2712C24.68 11.3145 24.6964 11.6004 24.5829 11.7053C24.453 11.8254 24.1565 11.7914 24.0445 11.6436L24.0446 11.6436Z" fill="black"/>
<path d="M27.0554 10.8917C26.9598 10.8034 27.0348 10.7818 27.4632 10.774C27.9932 10.7643 28.3151 10.6781 28.6949 10.4442C28.9992 10.2568 29.0817 10.2937 28.7928 10.488C28.5293 10.6653 28.1184 10.8016 27.7216 10.8433C27.5295 10.8635 27.3105 10.8914 27.235 10.9054C27.1595 10.9194 27.0787 10.9132 27.0554 10.8917L27.0554 10.8917Z" fill="black"/>
<path d="M17.2757 10.2879C17.2757 10.2879 16.9558 9.62014 16.6023 9.34806C16.0785 8.94491 15.0046 8.97403 14.5488 8.5037C14.0026 7.94908 14.5912 7.21633 14.5862 7.15273L14.5563 6.76575C14.5563 6.76575 14.9246 6.7612 15.0796 6.73642C15.3128 6.69915 15.4037 6.50467 15.8378 6.53355C16.9293 6.60618 16.8852 7.61418 16.947 8.47557C17.0018 8.80358 17.1286 9.23125 17.2007 9.55915C17.2625 9.84033 17.2757 10.2879 17.2757 10.2879Z" fill="#FFBE29"/>
<path fill-rule="evenodd" clip-rule="evenodd" d="M15.2577 6.73167C15.2072 6.75588 15.1528 6.77719 15.0878 6.78758C15.0067 6.80054 14.8728 6.80793 14.7617 6.81215C14.7057 6.81428 14.6545 6.81563 14.6174 6.81645L14.6121 6.81655L14.6378 7.14876C14.6387 7.1601 14.6362 7.1699 14.6347 7.17515C14.6329 7.18132 14.6305 7.18743 14.6281 7.19295C14.6233 7.204 14.6167 7.21696 14.6093 7.23075L14.5831 7.27851L14.5513 7.33702C14.5061 7.42207 14.4518 7.53351 14.4141 7.65901C14.3389 7.90941 14.3308 8.20865 14.5857 8.46739C14.6926 8.57771 14.838 8.66102 15.0076 8.72936C15.1771 8.79768 15.3675 8.85002 15.5631 8.90099C15.5898 8.90795 15.6165 8.91488 15.6434 8.92182C15.8121 8.96547 15.9826 9.00961 16.1411 9.06316C16.3248 9.12523 16.4963 9.20121 16.6338 9.30705C16.8185 9.4492 16.991 9.69116 17.1156 9.89284C17.1514 9.95087 17.1837 10.0061 17.2114 10.0554C17.2108 10.048 17.2103 10.0405 17.2097 10.0329C17.1987 9.8863 17.1802 9.70713 17.1501 9.57029C17.1225 9.44452 17.0867 9.3041 17.0499 9.15931C17.039 9.11653 17.028 9.07336 17.0171 9.03007C16.9696 8.84119 16.9237 8.65044 16.8959 8.48414L16.8951 8.47932C16.8896 8.40214 16.8851 8.32433 16.8804 8.24656C16.8586 7.88439 16.8368 7.52271 16.7298 7.22639C16.6655 7.04841 16.5716 6.89785 16.4309 6.78724C16.2903 6.67677 16.099 6.60286 15.8344 6.58525C15.627 6.57145 15.5044 6.61074 15.4053 6.65711C15.3799 6.669 15.3558 6.68147 15.3315 6.69417C15.3295 6.69519 15.3275 6.69622 15.3256 6.69725C15.3034 6.70883 15.2807 6.72066 15.2577 6.73167ZM17.2243 10.3006L17.215 10.282C17.2057 10.2635 17.192 10.2367 17.1745 10.2037C17.1393 10.1375 17.0888 10.0466 17.0275 9.94728C16.9037 9.74704 16.7395 9.51905 16.5706 9.38912C16.4463 9.29339 16.2871 9.22182 16.1079 9.16128C15.9533 9.10904 15.7869 9.06595 15.6179 9.02221C15.591 9.01524 15.564 9.00826 15.5369 9.00121C15.3416 8.95028 15.1453 8.89651 14.9689 8.82542C14.7926 8.75437 14.6327 8.66469 14.5117 8.53992C14.2205 8.24408 14.2337 7.89969 14.3149 7.62921C14.3555 7.49424 14.4133 7.3759 14.4599 7.28835C14.4716 7.26643 14.4826 7.24638 14.4924 7.22853L14.518 7.18189C14.5251 7.16847 14.5301 7.15863 14.5331 7.15169L14.534 7.14938L14.5004 6.71467L14.5556 6.71399L14.5597 6.71394L14.5715 6.71375L14.6151 6.7129C14.6518 6.71209 14.7024 6.71076 14.7578 6.70865C14.8697 6.7044 14.9975 6.69713 15.0714 6.68531C15.123 6.67706 15.1674 6.66009 15.213 6.63825C15.2343 6.62806 15.2554 6.61706 15.2779 6.60531C15.2798 6.60433 15.2816 6.60334 15.2835 6.60235C15.3079 6.58964 15.3337 6.57624 15.3614 6.5633C15.4746 6.51033 15.6145 6.46682 15.8412 6.48191C16.1223 6.50061 16.3348 6.57994 16.4949 6.70581C16.6548 6.83155 16.7583 7.00044 16.8272 7.19122C16.9398 7.50305 16.9626 7.88362 16.9842 8.246C16.9888 8.32154 16.9932 8.39629 16.9984 8.46946C17.0255 8.63062 17.0702 8.81679 17.1176 9.00478C17.1283 9.04739 17.1392 9.09012 17.15 9.13264C17.1869 9.27776 17.2232 9.42047 17.2513 9.54805C17.283 9.6924 17.302 9.87763 17.313 10.0251C17.3186 10.0992 17.3222 10.1645 17.3244 10.2112L17.3267 10.2662L17.3271 10.2753L17.3622 10.3487L17.2253 10.335L17.2243 10.3006Z" fill="black"/>
</g>
</svg>
