<svg width="34" height="35" viewBox="0 0 34 35" fill="none" xmlns="http://www.w3.org/2000/svg">
<path d="M17 34C26.1127 34 33.5 26.6127 33.5 17.5C33.5 8.3873 26.1127 1 17 1C7.8873 1 0.5 8.3873 0.5 17.5C0.5 26.6127 7.8873 34 17 34Z" fill="#C4C4C4" stroke="#DFE6F0"/>
<mask id="mask0_481_8020" style="mask-type:alpha" maskUnits="userSpaceOnUse" x="1" y="1" width="32" height="33">
<path d="M33 17.5C33 26.3366 25.8366 33.5 17 33.5C8.16344 33.5 1 26.3366 1 17.5C1 8.66344 8.16344 1.5 17 1.5C25.8366 1.5 33 8.66344 33 17.5Z" fill="#C4C4C4"/>
</mask>
<g mask="url(#mask0_481_8020)">
<path d="M47.667 1.5H-0.333008V33.5H47.667V1.5Z" fill="#E30A17"/>
<path d="M28.5888 15.2424L25.936 16.1048L24.296 13.8472V16.6376L21.6416 17.5L24.296 18.3624V21.1528L25.936 18.8952L28.5888 19.7576L26.9488 17.5L28.5888 15.2424Z" fill="white"/>
<path d="M17.5454 23.6441C16.5203 23.6449 15.5114 23.3893 14.6104 22.9004C13.7093 22.4116 12.945 21.7051 12.3869 20.8453C11.8287 19.9855 11.4946 18.9997 11.4149 17.9777C11.3353 16.9557 11.5125 15.93 11.9306 14.9941C12.3487 14.0582 12.9943 13.2417 13.8087 12.6191C14.623 11.9966 15.5802 11.5876 16.593 11.4295C17.6058 11.2715 18.6421 11.3694 19.6074 11.7143C20.5727 12.0591 21.4364 12.64 22.1198 13.4041C21.231 11.9967 19.909 10.9162 18.3529 10.3252C16.7968 9.73424 15.0908 9.66484 13.4918 10.1275C11.8928 10.5901 10.4874 11.5597 9.48727 12.8903C8.4871 14.2208 7.94629 15.8403 7.94629 17.5049C7.94629 19.1694 8.4871 20.7889 9.48727 22.1195C10.4874 23.4501 11.8928 24.4197 13.4918 24.8823C15.0908 25.3449 16.7968 25.2755 18.3529 24.6846C19.909 24.0936 21.231 23.0131 22.1198 21.6057C21.544 22.2486 20.8388 22.7625 20.0505 23.1138C19.2621 23.4651 18.4085 23.6458 17.5454 23.6441Z" fill="white"/>
</g>
</svg>
