<svg width="20" height="16" viewBox="0 0 20 16" fill="none" xmlns="http://www.w3.org/2000/svg">
<path d="M17.2513 2.5227C18.0467 2.42839 18.8235 2.21415 19.5556 1.88715C19.0174 2.69931 18.3399 3.40836 17.5546 3.98104C17.562 4.15471 17.5656 4.32838 17.5656 4.50328C17.5656 9.84271 13.5295 16 6.14957 16C3.9693 16.0021 1.83449 15.3722 0 14.1857C0.317473 14.2229 0.636804 14.2414 0.956414 14.2411C2.76277 14.2455 4.51814 13.6382 5.9404 12.5167C5.10298 12.5007 4.29149 12.2215 3.61936 11.7182C2.94722 11.2149 2.44807 10.5127 2.19172 9.70969C2.44031 9.75877 2.69302 9.78354 2.94634 9.7836C3.30333 9.78351 3.65872 9.73544 4.00309 9.64071C3.09527 9.45569 2.27892 8.96021 1.69243 8.23826C1.10595 7.51631 0.78542 6.61233 0.785197 5.67956V5.62784C1.34215 5.94042 1.9654 6.11399 2.60268 6.13406C1.75283 5.56283 1.15125 4.68674 0.920583 3.68433C0.689918 2.68193 0.84752 1.62865 1.36126 0.739197C2.36847 1.98764 3.62523 3.00875 5.04986 3.73618C6.47448 4.4636 8.03512 4.88106 9.6304 4.96147C9.42988 4.09496 9.51873 3.18603 9.8832 2.37553C10.2477 1.56504 10.8674 0.898228 11.6464 0.478423C12.4253 0.0586184 13.32 -0.0907432 14.1918 0.053492C15.0636 0.197727 15.8639 0.627516 16.4685 1.27623C17.3673 1.09652 18.229 0.763254 19.0162 0.290871C18.7161 1.22573 18.0889 2.01889 17.2513 2.5227Z" fill="white"/>
</svg>
