<svg width="32" height="32" viewBox="0 0 32 32" fill="none" xmlns="http://www.w3.org/2000/svg">
<path d="M0 16C0 10.3995 0 7.59921 1.08993 5.4601C2.04867 3.57847 3.57847 2.04867 5.4601 1.08993C7.59921 0 10.3995 0 16 0C21.6005 0 24.4008 0 26.5399 1.08993C28.4215 2.04867 29.9513 3.57847 30.9101 5.4601C32 7.59921 32 10.3995 32 16C32 21.6005 32 24.4008 30.9101 26.5399C29.9513 28.4215 28.4215 29.9513 26.5399 30.9101C24.4008 32 21.6005 32 16 32C10.3995 32 7.59921 32 5.4601 30.9101C3.57847 29.9513 2.04867 28.4215 1.08993 26.5399C0 24.4008 0 21.6005 0 16Z" fill="#282829"/>
<g clip-path="url(#clip0_494_20992)">
<path d="M22.7085 12.5334C22.5471 11.9339 22.0744 11.4612 21.4748 11.2998C20.3795 11 15.9984 11 15.9984 11C15.9984 11 11.6172 11 10.5219 11.2882C9.93388 11.4496 9.44965 11.9339 9.28824 12.5334C9 13.6287 9 15.9 9 15.9C9 15.9 9 18.1828 9.28824 19.2666C9.44965 19.8661 9.92235 20.3388 10.5219 20.5002C11.6287 20.8 15.9984 20.8 15.9984 20.8C15.9984 20.8 20.3795 20.8 21.4748 20.5118C22.0744 20.3504 22.5471 19.8776 22.7085 19.2781C22.9967 18.1828 22.9967 15.9115 22.9967 15.9115C22.9967 15.9115 23.0082 13.6287 22.7085 12.5334Z" fill="black"/>
<path d="M18.2468 15.9L14.6035 13.8016V17.9983L18.2468 15.9Z" fill="black"/>
</g>
<defs>
<clipPath id="clip0_494_20992">
<rect width="13.9968" height="9.8" fill="black" transform="translate(9 11)"/>
</clipPath>
</defs>
</svg>
