<svg width="36" height="36" viewBox="0 0 36 36" fill="none" xmlns="http://www.w3.org/2000/svg">
<path d="M0 9C0 4.02944 4.02944 0 9 0H27C31.9706 0 36 4.02944 36 9V27C36 31.9706 31.9706 36 27 36H9C4.02944 36 0 31.9706 0 27V9Z" fill="#282829"/>
<path fill-rule="evenodd" clip-rule="evenodd" d="M18.6073 18.0596L18.5033 18.0033V17.9236L18.6153 18.0297L18.6073 18.0596ZM16.7305 26.3216C21.1653 27.3328 25.6417 24.6615 26.8289 20.2305C28.0444 15.6943 25.3524 11.0316 20.8162 9.81608C20.043 9.60891 19.2662 9.51525 18.5033 9.5249V9.5C13.8071 9.5 10 13.3071 10 18.0033C10 22.0917 12.8852 25.5061 16.7305 26.3216Z" fill="white"/>
<path d="M18.5 18L27.7354 23C25.9581 26.2758 22.4888 28.5 18.5 28.5C12.701 28.5 8 23.799 8 18C8 12.201 12.701 7.5 18.5 7.5C18.5 7.5 18.5 12.201 18.5 18Z" fill="url(#paint0_linear_4664_58610)"/>
<defs>
<linearGradient id="paint0_linear_4664_58610" x1="18" y1="27" x2="2" y2="17.5" gradientUnits="userSpaceOnUse">
<stop stop-color="#E22440"/>
<stop offset="1" stop-color="#E22440" stop-opacity="0"/>
</linearGradient>
</defs>
</svg>
