<svg width="36" height="36" viewBox="0 0 36 36" fill="none" xmlns="http://www.w3.org/2000/svg">
<path d="M0 9C0 4.02944 4.02944 0 9 0H27C31.9706 0 36 4.02944 36 9V27C36 31.9706 31.9706 36 27 36H9C4.02944 36 0 31.9706 0 27V9Z" fill="#282829"/>
<circle cx="13.5" cy="13.5" r="3.5" fill="white"/>
<circle cx="22.5" cy="13.5" r="3.5" fill="white"/>
<path d="M21.8634 11.9032C22.2343 11.1439 23.3213 11.1584 23.6718 11.9272L30.3549 26.5851C30.6568 27.2474 30.1728 28 29.445 28H15.6014C14.8621 28 14.3784 27.2254 14.7029 26.5611L21.8634 11.9032Z" fill="url(#paint0_linear_4664_58689)"/>
<path d="M12.8634 11.9032C13.2343 11.1439 14.3213 11.1584 14.6718 11.9272L21.3549 26.5851C21.6568 27.2474 21.1728 28 20.445 28H6.60145C5.8621 28 5.3784 27.2254 5.70293 26.5611L12.8634 11.9032Z" fill="url(#paint1_linear_4664_58689)"/>
<defs>
<linearGradient id="paint0_linear_4664_58689" x1="29.9286" y1="25" x2="12.4975" y2="5.21213" gradientUnits="userSpaceOnUse">
<stop stop-color="#E22440"/>
<stop offset="1" stop-color="#E22440" stop-opacity="0"/>
</linearGradient>
<linearGradient id="paint1_linear_4664_58689" x1="17" y1="30" x2="2.99654" y2="4.8895" gradientUnits="userSpaceOnUse">
<stop stop-color="#E22440"/>
<stop offset="1" stop-color="#E22440" stop-opacity="0"/>
</linearGradient>
</defs>
</svg>
