<svg width="36" height="36" viewBox="0 0 36 36" fill="none" xmlns="http://www.w3.org/2000/svg">
<rect width="36" height="36" rx="9" fill="#282829"/>
<path d="M11 9H9V11C9 11.2833 8.90433 11.521 8.713 11.713C8.521 11.9043 8.28333 12 8 12C7.71667 12 7.47933 11.9043 7.288 11.713C7.096 11.521 7 11.2833 7 11V9C7 8.45 7.196 7.979 7.588 7.587C7.97933 7.19567 8.45 7 9 7H11C11.2833 7 11.521 7.09567 11.713 7.287C11.9043 7.479 12 7.71667 12 8C12 8.28333 11.9043 8.52067 11.713 8.712C11.521 8.904 11.2833 9 11 9ZM9 29C8.45 29 7.97933 28.8043 7.588 28.413C7.196 28.021 7 27.55 7 27V25C7 24.7167 7.096 24.4793 7.288 24.288C7.47933 24.096 7.71667 24 8 24C8.28333 24 8.521 24.096 8.713 24.288C8.90433 24.4793 9 24.7167 9 25V27H11C11.2833 27 11.521 27.096 11.713 27.288C11.9043 27.4793 12 27.7167 12 28C12 28.2833 11.9043 28.5207 11.713 28.712C11.521 28.904 11.2833 29 11 29H9ZM27 29H25C24.7167 29 24.4793 28.904 24.288 28.712C24.096 28.5207 24 28.2833 24 28C24 27.7167 24.096 27.4793 24.288 27.288C24.4793 27.096 24.7167 27 25 27H27V25C27 24.7167 27.096 24.4793 27.288 24.288C27.4793 24.096 27.7167 24 28 24C28.2833 24 28.5207 24.096 28.712 24.288C28.904 24.4793 29 24.7167 29 25V27C29 27.55 28.8043 28.021 28.413 28.413C28.021 28.8043 27.55 29 27 29ZM25 9C24.7167 9 24.4793 8.904 24.288 8.712C24.096 8.52067 24 8.28333 24 8C24 7.71667 24.096 7.479 24.288 7.287C24.4793 7.09567 24.7167 7 25 7H27C27.55 7 28.021 7.19567 28.413 7.587C28.8043 7.979 29 8.45 29 9V11C29 11.2833 28.904 11.521 28.712 11.713C28.5207 11.9043 28.2833 12 28 12C27.7167 12 27.4793 11.9043 27.288 11.713C27.096 11.521 27 11.2833 27 11V9H25Z" fill="url(#paint0_linear_4664_58709)"/>
<path d="M12.35 23.65C13.9167 25.2167 15.8 26 18 26C20.2 26 22.0833 25.2167 23.65 23.65C25.2167 22.0833 26 20.2 26 18C26 15.8 25.2167 13.9167 23.65 12.35C22.0833 10.7833 20.2 10 18 10C15.8 10 13.9167 10.7833 12.35 12.35C10.7833 13.9167 10 15.8 10 18C10 20.2 10.7833 22.0833 12.35 23.65Z" fill="white"/>
<defs>
<linearGradient id="paint0_linear_4664_58709" x1="20.5" y1="24.5" x2="-1.5" y2="-4" gradientUnits="userSpaceOnUse">
<stop stop-color="#E22440"/>
<stop offset="1" stop-color="#E22440" stop-opacity="0"/>
</linearGradient>
</defs>
</svg>
