<svg width="36" height="36" viewBox="0 0 36 36" fill="none" xmlns="http://www.w3.org/2000/svg">
<rect width="36" height="36" rx="9" fill="#282829"/>
<path d="M14.35 22.65C15.9167 24.2167 17.8 25 20 25C22.2 25 24.0833 24.2167 25.65 22.65C27.2167 21.0833 28 19.2 28 17C28 14.8 27.2167 12.9167 25.65 11.35C24.0833 9.78333 22.2 9 20 9C17.8 9 15.9167 9.78333 14.35 11.35C12.7833 12.9167 12 14.8 12 17C12 19.2 12.7833 21.0833 14.35 22.65Z" fill="white"/>
<path d="M12.35 22.65C13.9167 24.2167 15.8 25 18 25C20.2 25 22.0833 24.2167 23.65 22.65C25.2167 21.0833 26 19.2 26 17C26 14.8 25.2167 12.9167 23.65 11.35C22.0833 9.78333 20.2 9 18 9C15.8 9 13.9167 9.78333 12.35 11.35C10.7833 12.9167 10 14.8 10 17C10 19.2 10.7833 21.0833 12.35 22.65Z" fill="url(#paint0_linear_4664_58713)"/>
<path d="M10.35 22.65C11.9167 24.2167 13.8 25 16 25C18.2 25 20.0833 24.2167 21.65 22.65C23.2167 21.0833 24 19.2 24 17C24 14.8 23.2167 12.9167 21.65 11.35C20.0833 9.78333 18.2 9 16 9C13.8 9 11.9167 9.78333 10.35 11.35C8.78333 12.9167 8 14.8 8 17C8 19.2 8.78333 21.0833 10.35 22.65Z" fill="url(#paint1_linear_4664_58713)"/>
<defs>
<linearGradient id="paint0_linear_4664_58713" x1="33" y1="24" x2="11" y2="5.5" gradientUnits="userSpaceOnUse">
<stop stop-color="#E22440"/>
<stop offset="1" stop-color="#E22440" stop-opacity="0"/>
</linearGradient>
<linearGradient id="paint1_linear_4664_58713" x1="15.5" y1="29" x2="9" y2="5.5" gradientUnits="userSpaceOnUse">
<stop stop-color="#E22440"/>
<stop offset="1" stop-color="#E22440" stop-opacity="0"/>
</linearGradient>
</defs>
</svg>
