<svg width="18" height="18" viewBox="0 0 18 18" fill="none" xmlns="http://www.w3.org/2000/svg">
<path opacity="0.7" fill-rule="evenodd" clip-rule="evenodd" d="M9 18C13.9706 18 18 13.9706 18 9C18 4.02944 13.9706 0 9 0C4.02944 0 0 4.02944 0 9C0 13.9706 4.02944 18 9 18ZM8.80654 13.2859C8.74688 13.2546 8.69573 13.2092 8.65751 13.1537L4.9075 7.737C4.86455 7.67442 4.83948 7.60132 4.83497 7.52556C4.83046 7.44979 4.84669 7.37423 4.88191 7.307C4.91713 7.23977 4.97001 7.18341 5.03487 7.14399C5.09973 7.10456 5.17411 7.08357 5.25 7.08325H12.75C12.8261 7.08313 12.9007 7.10386 12.9659 7.14319C13.031 7.18252 13.0841 7.23895 13.1194 7.30633C13.1547 7.37372 13.1708 7.44949 13.1661 7.52542C13.1614 7.60135 13.1359 7.67453 13.0925 7.737L9.3425 13.1537C9.30428 13.2092 9.25313 13.2546 9.19347 13.2859C9.1338 13.3173 9.06741 13.3337 9 13.3337C8.9326 13.3337 8.86621 13.3173 8.80654 13.2859Z" fill="white"/>
</svg>
