<svg width="190" height="32" viewBox="0 0 190 32" fill="none" xmlns="http://www.w3.org/2000/svg">
<path d="M8.03357 1.17999H8.14434C10.3412 2.46302 11.8734 4.36449 12.7411 6.88439C13.0365 7.64128 13.1841 8.32433 13.1841 8.93354V9.0443C13.0457 10.0781 12.9349 10.595 12.8518 10.595C12.2796 10.7427 11.6704 10.8165 11.0242 10.8165C9.79658 10.8165 8.85508 10.4473 8.19972 9.70889L8.2551 9.65351C8.59663 9.8012 8.91046 9.87504 9.19661 9.87504H9.47352C9.80581 9.87504 9.97196 9.65351 9.97196 9.21045C9.97196 8.47202 9.06738 7.77051 7.25822 7.10592L6.75978 7.05054C6.56594 7.05054 6.41825 7.14284 6.31672 7.32745V7.65974C6.33518 8.49971 8.0705 10.955 11.5227 15.0256C13.4611 17.2409 14.7164 18.3486 15.2887 18.3486L15.5102 18.4039H15.8979V18.5147C14.7902 19.1701 13.3872 20.6469 11.6888 22.9453C9.89812 24.8652 8.88277 25.8252 8.64278 25.8252L8.5874 25.7698L8.69816 25.4375C8.69816 24.856 7.49821 24.1176 5.0983 23.2222C4.05527 22.6684 2.98454 21.69 1.88612 20.2869C1.29537 19.4377 1 18.7178 1 18.127V17.8501C1 17.2132 1.36922 16.5671 2.10765 15.9117H2.16303V15.9671C1.90458 16.3086 1.77535 16.5671 1.77535 16.7425V17.0194C1.77535 17.6747 3.08607 18.3209 5.70751 18.9578C6.21518 19.2439 6.69516 19.6131 7.14745 20.0654L7.09207 20.1208C6.2798 19.8993 5.48598 19.7885 4.71063 19.7885C3.78758 19.7885 3.32606 20.01 3.32606 20.4531C3.61221 21.0346 4.49833 21.5515 5.98442 22.0038C6.14134 22.0776 6.43671 22.1146 6.87054 22.1146H7.09207C8.51356 22.1146 9.54736 21.2469 10.1935 19.5116V19.0131C10.1935 18.164 9.49198 17.0563 8.08896 15.6902C5.16292 12.4319 3.55682 10.2166 3.27068 9.0443C3.08607 8.65663 2.99377 8.34279 2.99377 8.1028C4.0645 7.92742 4.59986 7.72436 4.59986 7.4936V7.32745C4.55371 6.99515 4.16603 6.62594 3.43683 6.2198L3.15992 6.16442V6.05365H3.2153C5.91981 6.05365 7.93204 6.3121 9.25199 6.82901H9.47352C9.84273 6.82901 10.0273 6.40441 10.0273 5.55521C10.0273 4.01373 9.36275 2.55532 8.03357 1.17999Z" fill="black"/>
<path d="M16.4993 2.95223H16.5547C17.367 4.10603 18.29 5.10292 19.3238 5.94289C20.6438 6.79208 22.176 7.21668 23.9206 7.21668H24.5852C25.8497 7.21668 27.1605 6.90285 28.5173 6.27518L28.7942 5.8875C29.7727 6.81054 30.6588 7.41975 31.4526 7.71512C32.8926 8.68432 33.6125 9.79197 33.6125 11.0381V11.1488C33.6125 11.9796 33.1879 12.7734 32.3387 13.5303L32.2833 13.4749L32.3941 13.1426C32.3941 12.1088 31.5634 11.1858 29.9019 10.3735L28.905 9.54275L28.9604 9.48736L29.3481 9.54275H29.5142C29.8004 9.54275 29.985 9.45044 30.068 9.26583C30.068 8.98892 29.7358 8.65663 29.0712 8.26895L28.0743 8.1028C27.3358 8.2228 26.9666 8.55509 26.9666 9.09969L26.9112 19.2901C27.1051 19.807 27.3451 20.0654 27.6312 20.0654H27.7974C28.0189 20.0654 28.2589 19.9731 28.5173 19.7885H28.5727V19.8439C28.5727 20.2223 27.7604 21.1823 26.1359 22.7238C24.8159 24.6899 23.9667 26.979 23.5883 29.5912H23.4775L23.6991 8.4351L23.6437 8.37971H23.4775C22.9237 8.37971 22.2407 8.32433 21.4284 8.21357C20.9853 8.45356 20.7638 9.00738 20.7638 9.87504C20.9484 10.7981 21.3176 11.2596 21.8714 11.2596V11.3704C20.0807 11.3704 18.4746 9.50583 17.0532 5.77674C16.8316 5.066 16.647 4.12449 16.4993 2.95223Z" fill="black"/>
<path d="M40.5553 1.85843C40.9153 2.84608 41.0952 3.65836 41.0952 4.29526L40.6522 6.39979V6.56594C40.6522 6.97208 41.1229 7.17515 42.0644 7.17515H42.4383C43.1859 7.17515 43.7813 6.75055 44.2244 5.90135C46.1997 7.68282 47.5704 9.25199 48.3365 10.6089C48.8442 11.4488 49.098 12.1688 49.098 12.7688V12.9349C49.098 13.4149 49.0426 13.6549 48.9319 13.6549C48.7565 13.2118 48.4657 12.9903 48.0596 12.9903C47.6165 12.9903 46.7535 13.5072 45.4705 14.541C44.7136 14.8733 44.1736 15.0395 43.8505 15.0395C48.0042 20.2269 50.418 23.1438 51.0918 23.7899C52.7717 25.3406 54.5901 26.116 56.547 26.116L57.9038 26.0052V26.0606C56.4731 27.2421 54.8532 27.8328 53.044 27.8328H52.7671C50.6441 27.8328 48.2488 26.8728 45.5812 24.9529C44.4643 24.3622 43.8321 24.0668 43.6844 24.0668V23.956L45.152 24.0114H45.1936C46.0981 24.0114 46.5504 23.6791 46.5504 23.0145C46.5504 22.6361 45.992 22.3592 44.8751 22.1838L40.3891 14.7072H40.3337V14.7625L40.3891 19.4147V20.5223C40.3891 23.6422 40.9291 25.6914 42.0091 26.6698V26.7252C40.0061 25.9406 38.2384 24.4637 36.7062 22.2946L35.4185 20.8546V20.7992H35.4739L35.737 20.8546C36.4847 20.8546 36.9369 20.3193 37.0939 19.2485V17.2548L37.1492 9.50121C35.5985 10.4612 34.8232 11.3104 34.8232 12.0488H34.7678L34.657 11.938V11.5504C34.657 10.1658 35.4693 8.7997 37.0939 7.45206C39.3276 5.48598 40.4445 3.99065 40.4445 2.96608L40.4999 2.07996L40.4445 1.91381L40.4999 1.85843H40.5553ZM40.2784 8.11665V13.0457C40.8783 13.4518 41.5983 13.6549 42.4383 13.6549C43.5921 13.6549 44.3674 13.0826 44.7643 11.938V11.7719C44.7643 11.135 44.349 10.3043 43.5182 9.27968C42.4567 8.39356 41.5383 7.9505 40.763 7.9505H40.6107C40.3891 7.96896 40.2784 8.02434 40.2784 8.11665Z" fill="black"/>
<path d="M70.011 6.05365C70.5833 6.05365 71.0079 6.18288 71.2848 6.44133V6.49671H71.0079C70.4817 6.49671 69.0787 7.4936 66.7988 9.48736C64.7866 10.7058 63.5128 11.315 62.9774 11.315V11.2042C63.8266 10.5396 64.2512 9.78274 64.2512 8.93354C64.2512 8.63817 63.8082 8.49048 62.922 8.49048H62.6451C61.0944 8.49048 60.3191 8.65663 60.3191 8.98892V12.8657H60.3744C61.1775 12.4596 62.0451 12.2565 62.9774 12.2565H63.642C65.405 12.2565 66.4573 12.8657 66.7988 14.0841C66.8727 14.0841 66.9096 14.2318 66.9096 14.5272H66.7988C66.4204 13.678 65.7004 13.2534 64.6389 13.2534C62.5805 13.2534 61.1775 14.1395 60.4298 15.9117C60.2452 16.2071 60.1529 16.9086 60.1529 18.0163V19.4562C60.3006 21.5238 60.799 22.5576 61.6482 22.5576L61.8698 22.613C62.3498 22.613 62.9959 22.2069 63.8082 21.3946C62.1467 21.1546 61.3159 20.7485 61.3159 20.1762L61.3713 20.1208H61.4267C61.4267 20.2869 61.7221 20.4346 62.3128 20.5639C62.9682 20.5639 63.9097 20.01 65.1373 18.9024C66.0511 18.2747 67.0296 17.9609 68.0726 17.9609H68.128V18.0163C67.2049 18.5147 66.7434 19.567 66.7434 21.1731V21.2838L66.8542 22.3361C66.125 22.6961 64.6666 23.8407 62.479 25.7698L61.5929 26.4344L61.5375 26.379H61.4821L61.5375 26.3236V25.9913C61.5375 24.7914 60.356 23.9237 57.993 23.3884C55.8146 22.5853 54.7254 21.3854 54.7254 19.7885H54.8362C55.187 20.6377 55.6485 21.0623 56.2208 21.0623H56.4977C56.7561 20.8408 56.8853 20.49 56.8853 20.01V9.0443C56.2392 8.68432 54.9285 8.07511 52.9532 7.21668V7.10592H63.5312C65.3958 7.10592 67.2234 6.79208 69.0141 6.16442L70.011 6.05365Z" fill="black"/>
<path d="M86.8118 6.05365C87.3841 6.05365 87.8087 6.18288 88.0856 6.44133V6.49671H87.8087C87.2826 6.49671 85.8795 7.4936 83.5996 9.48736C81.5874 10.7058 80.3136 11.315 79.7782 11.315V11.2042C80.6274 10.5396 81.052 9.78274 81.052 8.93354C81.052 8.63817 80.609 8.49048 79.7229 8.49048H79.446C77.8952 8.49048 77.1199 8.65663 77.1199 8.98892V12.8657H77.1753C77.9783 12.4596 78.846 12.2565 79.7782 12.2565H80.4428C82.2058 12.2565 83.2581 12.8657 83.5996 14.0841C83.6735 14.0841 83.7104 14.2318 83.7104 14.5272H83.5996C83.2212 13.678 82.5012 13.2534 81.4397 13.2534C79.3813 13.2534 77.9783 14.1395 77.2307 15.9117C77.046 16.2071 76.9537 16.9086 76.9537 18.0163V19.4562C77.1014 21.5238 77.5999 22.5576 78.4491 22.5576L78.6706 22.613C79.1506 22.613 79.7967 22.2069 80.609 21.3946C78.9475 21.1546 78.1168 20.7485 78.1168 20.1762L78.1721 20.1208H78.2275C78.2275 20.2869 78.5229 20.4346 79.1137 20.5639C79.769 20.5639 80.7105 20.01 81.9382 18.9024C82.852 18.2747 83.8304 17.9609 84.8734 17.9609H84.9288V18.0163C84.0058 18.5147 83.5443 19.567 83.5443 21.1731V21.2838L83.655 22.3361C82.9258 22.6961 81.4674 23.8407 79.2798 25.7698L78.3937 26.4344L78.3383 26.379H78.2829L78.3383 26.3236V25.9913C78.3383 24.7914 77.1568 23.9237 74.7938 23.3884C72.6154 22.5853 71.5263 21.3854 71.5263 19.7885H71.637C71.9878 20.6377 72.4493 21.0623 73.0216 21.0623H73.2985C73.5569 20.8408 73.6862 20.49 73.6862 20.01V9.0443C73.04 8.68432 71.7293 8.07511 69.754 7.21668V7.10592H80.3321C82.1966 7.10592 84.0242 6.79208 85.8149 6.16442L86.8118 6.05365Z" fill="black"/>
<path d="M87.8286 2.95223H87.884C88.6963 4.10603 89.6193 5.10292 90.6531 5.94289C91.9731 6.79208 93.5053 7.21668 95.2499 7.21668H95.9145C97.179 7.21668 98.4898 6.90285 99.8466 6.27518L100.124 5.8875C101.102 6.81054 101.988 7.41975 102.782 7.71512C104.222 8.68432 104.942 9.79197 104.942 11.0381V11.1488C104.942 11.9796 104.517 12.7734 103.668 13.5303L103.613 13.4749L103.723 13.1426C103.723 12.1088 102.893 11.1858 101.231 10.3735L100.234 9.54275L100.29 9.48736L100.677 9.54275H100.844C101.13 9.54275 101.314 9.45044 101.397 9.26583C101.397 8.98892 101.065 8.65663 100.4 8.26895L99.4036 8.1028C98.6651 8.2228 98.2959 8.55509 98.2959 9.09969L98.2405 19.2901C98.4344 19.807 98.6744 20.0654 98.9605 20.0654H99.1267C99.3482 20.0654 99.5882 19.9731 99.8466 19.7885H99.902V19.8439C99.902 20.2223 99.0897 21.1823 97.4652 22.7238C96.1452 24.6899 95.296 26.979 94.9176 29.5912H94.8068L95.0284 8.4351L94.973 8.37971H94.8068C94.253 8.37971 93.57 8.32433 92.7577 8.21357C92.3146 8.45356 92.0931 9.00738 92.0931 9.87504C92.2777 10.7981 92.6469 11.2596 93.2007 11.2596V11.3704C91.41 11.3704 89.8039 9.50583 88.3825 5.77674C88.1609 5.066 87.9763 4.12449 87.8286 2.95223Z" fill="black"/>
<path d="M106.056 1.1523H106.166C106.166 2.02919 106.646 3.063 107.606 4.25372C108.354 4.95523 109.314 5.54598 110.486 6.02596C110.763 6.24749 110.948 6.35825 111.04 6.35825V6.46902L110.708 6.41364C110.375 6.49671 110.209 6.58901 110.209 6.69055C110.209 7.01361 110.468 7.19822 110.985 7.24437H111.095C111.945 7.24437 113.126 6.8567 114.64 6.08134L115.747 5.19522C117.446 6.75516 118.554 7.95512 119.07 8.79508C119.772 10.0227 120.123 11.2596 120.123 12.5057V14.0564L120.012 14.1672C119.624 13.8718 119.237 13.7241 118.849 13.7241C118.138 13.7241 116.791 14.4256 114.806 15.8287C114.224 16.1979 113.505 16.3825 112.646 16.3825L111.815 16.2163V16.0502H112.203C113.588 16.0502 114.788 15.2933 115.803 13.7795C116.098 13.1611 116.246 12.5519 116.246 11.9519C116.246 10.5027 115.803 9.45044 114.917 8.79508C114.492 8.57355 114.086 8.46279 113.698 8.46279C112.517 8.69355 111.926 9.11815 111.926 9.73658C111.778 10.4473 111.705 11.3888 111.705 12.5611V17.324L111.649 21.4223C111.806 22.1607 112.101 22.5299 112.535 22.5299C112.858 22.5299 113.172 22.2715 113.477 21.7546H113.532V22.253L113.311 24.9114V25.0221C113.311 27.6251 114.271 29.8773 116.191 31.7788H116.08C113.458 30.3389 111.649 28.5112 110.652 26.2959C109.619 24.3299 108.419 23.0007 107.052 22.3084V22.1976C107.717 22.1976 108.105 21.6069 108.215 20.4254C108.215 17.7578 108.289 14.3426 108.437 10.1796C108.437 9.61659 108.086 8.67509 107.385 7.35514C106.499 5.5829 106.056 3.81066 106.056 2.03842V1.1523Z" fill="black"/>
<path d="M121.333 3.58913C122.072 3.72759 123.29 4.79831 124.989 6.80131C125.93 7.68743 126.65 9.27506 127.149 11.5642C127.333 12.6349 127.425 13.4288 127.425 13.9457C127.425 14.5641 127.093 16.244 126.429 18.9855L126.373 19.7608V20.0931C126.438 20.8315 126.678 21.2008 127.093 21.2008H127.259C128.044 21.2008 128.801 20.8315 129.53 20.0931C129.751 19.5485 129.862 19.1608 129.862 18.9301L129.918 9.84735V9.12738C129.918 8.15818 129.622 7.45667 129.032 7.02284V6.91208H129.087C129.53 7.05977 129.955 7.13361 130.361 7.13361C131.155 7.13361 132.687 6.65363 134.957 5.69366C135.751 5.43521 136.342 5.30599 136.73 5.30599H137.173C137.45 5.30599 137.597 5.36137 137.616 5.47213C135.733 6.36748 134.459 7.47513 133.794 8.79508L133.573 9.6812L133.462 16.8809C133.462 18.727 133.647 19.9085 134.016 20.4254C134.357 20.8038 134.893 21.0623 135.622 21.2008V21.3115C134.911 21.3115 133.988 21.9761 132.853 23.3053C131.755 24.3391 130.628 24.856 129.475 24.856L129.308 24.9114V24.856C130.01 24.1637 130.361 23.2222 130.361 22.0315V21.9207C130.361 21.6346 130.268 21.45 130.084 21.3669H130.028C129.336 21.3669 128.745 22.013 128.256 23.3053V23.8591C128.801 25.6221 129.502 26.7482 130.361 27.2374V27.3482C129.087 27.1082 127.555 26.2406 125.764 24.7452C124.776 23.8591 123.872 22.5299 123.05 20.7577C122.773 20.2962 122.386 19.7608 121.887 19.1516V19.0408C122.506 19.0408 123.226 17.9517 124.047 15.7733C124.822 13.1611 125.21 11.0935 125.21 9.57044C125.173 9.09046 125.081 8.85047 124.933 8.85047C124.712 9.15507 124.601 9.63505 124.601 10.2904C124.601 10.6689 124.656 10.9458 124.767 11.1211L124.712 11.1765C124.287 10.9919 123.899 10.4012 123.549 9.40429C123.143 6.98592 122.496 5.2506 121.61 4.19834L121.278 3.64451L121.333 3.58913Z" fill="black"/>
<path d="M147.231 1H147.342C147.572 2.1538 149.64 5.10753 153.544 9.8612L153.489 9.91658H153.434C153.434 9.80581 153.083 9.69505 152.381 9.58428C152.049 9.58428 151.883 9.97196 151.883 10.7473V10.9135L151.938 11.0796L151.883 11.3565C151.883 16.7379 152.123 19.507 152.603 19.6639C152.603 19.8577 152.843 20.0054 153.323 20.107V20.3285C153.323 21.7038 152.714 23.0699 151.495 24.4268C151.311 24.8975 151.218 25.3221 151.218 25.7006C151.218 26.0606 151.274 26.3929 151.384 26.6975L151.329 26.7528H151.274C150.904 25.9867 150.72 25.396 150.72 24.9806V24.8698L150.886 22.9315V22.5992C150.886 21.7407 150.295 21.0761 149.114 20.6054H148.948L148.892 20.6608H148.837L148.781 20.6054V20.2177C148.505 17.8363 147.046 14.7902 144.406 11.0796C143.576 10.1289 143.077 9.63043 142.911 9.58428H142.856L142.911 13.1841V18.5009C143.003 20.3469 143.262 21.3069 143.686 21.3808L143.797 21.0485V20.9931C143.797 20.4762 143.705 19.9777 143.52 19.4977L143.576 19.4424H143.631C144.296 20.107 144.628 21.4915 144.628 23.596C144.628 25.5621 145.274 27.6113 146.566 29.7435L147.563 30.8512V30.9065H147.508C144.905 29.4943 143.077 27.3713 142.025 24.5375C141.074 22.4422 140.225 21.0208 139.477 20.2731C139.311 20.0608 138.868 19.6731 138.148 19.1101L138.203 19.0547L138.259 19.1101H138.314C139.053 19.0547 139.422 18.8147 139.422 18.3901C139.514 18.3901 139.588 17.947 139.643 17.0609L139.533 7.6459C139.053 5.88289 138.185 4.55371 136.93 3.65836C136.8 3.54759 136.671 3.49221 136.542 3.49221V3.32606H136.708C137.28 3.32606 138.203 3.82451 139.477 4.82139C140.853 5.55982 142.034 5.92904 143.022 5.92904L143.963 5.70751C143.299 6.39979 142.966 6.89823 142.966 7.20284C142.966 7.34129 143.797 8.26433 145.459 9.97196L148.781 14.4579V10.0827C148.781 7.74743 148.597 6.34441 148.228 5.87366H148.172C147.988 6.27057 147.895 6.73209 147.895 7.25822V7.59051C147.895 7.96896 147.988 8.28279 148.172 8.53202V8.5874H148.117C147.305 8.09819 146.898 7.17515 146.898 5.81827V5.65213L147.286 1.60921L147.231 1Z" fill="black"/>
<path d="M172.602 2.79993H172.713L172.879 3.8522C172.879 4.98754 172.288 6.13211 171.107 7.28591C170.184 8.49509 169.722 9.39968 169.722 9.99965V10.055C169.722 10.6089 170.128 10.9781 170.941 11.1627V11.2734C169.233 12.7688 167.11 14.0426 164.572 15.0948L171.051 21.8515C172.233 23.0699 173.322 23.6791 174.319 23.6791H174.817C175.547 23.6791 176.193 23.4576 176.756 23.0145H176.811V23.0699C175.925 24.3622 174.411 25.0083 172.27 25.0083H171.771C170.59 25.0083 168.984 24.5283 166.953 23.5684C166.224 23.3468 165.615 23.2361 165.125 23.2361H164.904C164.433 23.2361 164.009 23.3468 163.63 23.5684L163.575 23.4022C163.778 22.8115 164.516 22.4792 165.79 22.4053C166.861 22.313 167.396 22.1653 167.396 21.9623C167.396 21.7223 166.824 21.4269 165.679 21.0761C165.384 21.0761 165.236 21.0208 165.236 20.91C165.236 20.4577 164.332 18.7409 162.522 15.7594H162.079L162.135 19.1931V20.3008C162.135 20.4116 162.264 20.4669 162.522 20.4669V20.5223C162.753 20.4485 163.104 20.4116 163.575 20.4116L163.63 20.4669V20.5223C162.929 20.9285 162.042 21.87 160.972 23.3468C159.698 25.0083 157.852 25.839 155.433 25.839H154.658L154.27 25.7837V25.6729H154.326C155.673 25.6729 156.855 25.0452 157.87 23.7899C158.498 22.9038 158.812 21.6484 158.812 20.0239V16.8117L158.867 13.9872L158.812 11.3288V9.27968C158.812 8.05203 158.129 7.29514 156.763 7.009L156.541 6.95362V6.78747H156.596C159.661 6.47363 161.193 6.21518 161.193 6.01211C161.461 6.01211 161.756 5.71674 162.079 5.12599H162.135L162.079 5.40291L162.135 9.77812V13.9318L162.079 14.7625C165.144 13.9872 166.676 12.8611 166.676 11.3842C166.565 10.4243 166.288 9.94427 165.845 9.94427H165.679C165.282 9.94427 164.987 10.1843 164.793 10.6642H164.682V10.5535C164.682 9.11353 166.473 7.50744 170.054 5.7352C171.753 4.66447 172.602 3.68605 172.602 2.79993Z" fill="black"/>
<path d="M181.829 1.17999H181.94C184.137 2.46302 185.669 4.36449 186.537 6.88439C186.832 7.64128 186.98 8.32433 186.98 8.93354V9.0443C186.841 10.0781 186.731 10.595 186.648 10.595C186.075 10.7427 185.466 10.8165 184.82 10.8165C183.592 10.8165 182.651 10.4473 181.995 9.70889L182.051 9.65351C182.392 9.8012 182.706 9.87504 182.992 9.87504H183.269C183.602 9.87504 183.768 9.65351 183.768 9.21045C183.768 8.47202 182.863 7.77051 181.054 7.10592L180.556 7.05054C180.362 7.05054 180.214 7.14284 180.112 7.32745V7.65974C180.131 8.49971 181.866 10.955 185.318 15.0256C187.257 17.2409 188.512 18.3486 189.084 18.3486L189.306 18.4039H189.694V18.5147C188.586 19.1701 187.183 20.6469 185.485 22.9453C183.694 24.8652 182.678 25.8252 182.439 25.8252L182.383 25.7698L182.494 25.4375C182.494 24.856 181.294 24.1176 178.894 23.2222C177.851 22.6684 176.78 21.69 175.682 20.2869C175.091 19.4377 174.796 18.7178 174.796 18.127V17.8501C174.796 17.2132 175.165 16.5671 175.903 15.9117H175.959V15.9671C175.7 16.3086 175.571 16.5671 175.571 16.7425V17.0194C175.571 17.6747 176.882 18.3209 179.503 18.9578C180.011 19.2439 180.491 19.6131 180.943 20.0654L180.888 20.1208C180.076 19.8993 179.282 19.7885 178.506 19.7885C177.583 19.7885 177.122 20.01 177.122 20.4531C177.408 21.0346 178.294 21.5515 179.78 22.0038C179.937 22.0776 180.232 22.1146 180.666 22.1146H180.888C182.309 22.1146 183.343 21.2469 183.989 19.5116V19.0131C183.989 18.164 183.288 17.0563 181.885 15.6902C178.959 12.4319 177.353 10.2166 177.066 9.0443C176.882 8.65663 176.79 8.34279 176.79 8.1028C177.86 7.92742 178.396 7.72436 178.396 7.4936V7.32745C178.349 6.99515 177.962 6.62594 177.233 6.2198L176.956 6.16442V6.05365H177.011C179.716 6.05365 181.728 6.3121 183.048 6.82901H183.269C183.638 6.82901 183.823 6.40441 183.823 5.55521C183.823 4.01373 183.158 2.55532 181.829 1.17999Z" fill="black"/>
<path d="M8.03357 1.17999H8.14434C10.3412 2.46302 11.8734 4.36449 12.7411 6.88439C13.0365 7.64128 13.1841 8.32433 13.1841 8.93354V9.0443C13.0457 10.0781 12.9349 10.595 12.8518 10.595C12.2796 10.7427 11.6704 10.8165 11.0242 10.8165C9.79658 10.8165 8.85508 10.4473 8.19972 9.70889L8.2551 9.65351C8.59663 9.8012 8.91046 9.87504 9.19661 9.87504H9.47352C9.80581 9.87504 9.97196 9.65351 9.97196 9.21045C9.97196 8.47202 9.06738 7.77051 7.25822 7.10592L6.75978 7.05054C6.56594 7.05054 6.41825 7.14284 6.31672 7.32745V7.65974C6.33518 8.49971 8.0705 10.955 11.5227 15.0256C13.4611 17.2409 14.7164 18.3486 15.2887 18.3486L15.5102 18.4039H15.8979V18.5147C14.7902 19.1701 13.3872 20.6469 11.6888 22.9453C9.89812 24.8652 8.88277 25.8252 8.64278 25.8252L8.5874 25.7698L8.69816 25.4375C8.69816 24.856 7.49821 24.1176 5.0983 23.2222C4.05527 22.6684 2.98454 21.69 1.88612 20.2869C1.29537 19.4377 1 18.7178 1 18.127V17.8501C1 17.2132 1.36922 16.5671 2.10765 15.9117H2.16303V15.9671C1.90458 16.3086 1.77535 16.5671 1.77535 16.7425V17.0194C1.77535 17.6747 3.08607 18.3209 5.70751 18.9578C6.21518 19.2439 6.69516 19.6131 7.14745 20.0654L7.09207 20.1208C6.2798 19.8993 5.48598 19.7885 4.71063 19.7885C3.78758 19.7885 3.32606 20.01 3.32606 20.4531C3.61221 21.0346 4.49833 21.5515 5.98442 22.0038C6.14134 22.0776 6.43671 22.1146 6.87054 22.1146H7.09207C8.51356 22.1146 9.54736 21.2469 10.1935 19.5116V19.0131C10.1935 18.164 9.49198 17.0563 8.08896 15.6902C5.16292 12.4319 3.55682 10.2166 3.27068 9.0443C3.08607 8.65663 2.99377 8.34279 2.99377 8.1028C4.0645 7.92742 4.59986 7.72436 4.59986 7.4936V7.32745C4.55371 6.99515 4.16603 6.62594 3.43683 6.2198L3.15992 6.16442V6.05365H3.2153C5.91981 6.05365 7.93204 6.3121 9.25199 6.82901H9.47352C9.84273 6.82901 10.0273 6.40441 10.0273 5.55521C10.0273 4.01373 9.36275 2.55532 8.03357 1.17999Z" stroke="black" stroke-width="0.405083"/>
<path d="M16.4993 2.95223H16.5547C17.367 4.10603 18.29 5.10292 19.3238 5.94289C20.6438 6.79208 22.176 7.21668 23.9206 7.21668H24.5852C25.8497 7.21668 27.1605 6.90285 28.5173 6.27518L28.7942 5.8875C29.7727 6.81054 30.6588 7.41975 31.4526 7.71512C32.8926 8.68432 33.6125 9.79197 33.6125 11.0381V11.1488C33.6125 11.9796 33.1879 12.7734 32.3387 13.5303L32.2833 13.4749L32.3941 13.1426C32.3941 12.1088 31.5634 11.1858 29.9019 10.3735L28.905 9.54275L28.9604 9.48736L29.3481 9.54275H29.5142C29.8004 9.54275 29.985 9.45044 30.068 9.26583C30.068 8.98892 29.7358 8.65663 29.0712 8.26895L28.0743 8.1028C27.3358 8.2228 26.9666 8.55509 26.9666 9.09969L26.9112 19.2901C27.1051 19.807 27.3451 20.0654 27.6312 20.0654H27.7974C28.0189 20.0654 28.2589 19.9731 28.5173 19.7885H28.5727V19.8439C28.5727 20.2223 27.7604 21.1823 26.1359 22.7238C24.8159 24.6899 23.9667 26.979 23.5883 29.5912H23.4775L23.6991 8.4351L23.6437 8.37971H23.4775C22.9237 8.37971 22.2407 8.32433 21.4284 8.21357C20.9853 8.45356 20.7638 9.00738 20.7638 9.87504C20.9484 10.7981 21.3176 11.2596 21.8714 11.2596V11.3704C20.0807 11.3704 18.4746 9.50583 17.0532 5.77674C16.8316 5.066 16.647 4.12449 16.4993 2.95223Z" stroke="black" stroke-width="0.405083"/>
<path d="M40.5553 1.85843C40.9153 2.84608 41.0952 3.65836 41.0952 4.29526L40.6522 6.39979V6.56594C40.6522 6.97208 41.1229 7.17515 42.0644 7.17515H42.4383C43.1859 7.17515 43.7813 6.75055 44.2244 5.90135C46.1997 7.68282 47.5704 9.25199 48.3365 10.6089C48.8442 11.4488 49.098 12.1688 49.098 12.7688V12.9349C49.098 13.4149 49.0426 13.6549 48.9319 13.6549C48.7565 13.2118 48.4657 12.9903 48.0596 12.9903C47.6165 12.9903 46.7535 13.5072 45.4705 14.541C44.7136 14.8733 44.1736 15.0395 43.8505 15.0395C48.0042 20.2269 50.418 23.1438 51.0918 23.7899C52.7717 25.3406 54.5901 26.116 56.547 26.116L57.9038 26.0052V26.0606C56.4731 27.2421 54.8532 27.8328 53.044 27.8328H52.7671C50.6441 27.8328 48.2488 26.8728 45.5812 24.9529C44.4643 24.3622 43.8321 24.0668 43.6844 24.0668V23.956L45.152 24.0114H45.1936C46.0981 24.0114 46.5504 23.6791 46.5504 23.0145C46.5504 22.6361 45.992 22.3592 44.8751 22.1838L40.3891 14.7072H40.3337V14.7625L40.3891 19.4147V20.5223C40.3891 23.6422 40.9291 25.6914 42.0091 26.6698V26.7252C40.0061 25.9406 38.2384 24.4637 36.7062 22.2946L35.4185 20.8546V20.7992H35.4739L35.737 20.8546C36.4847 20.8546 36.9369 20.3193 37.0939 19.2485V17.2548L37.1492 9.50121C35.5985 10.4612 34.8232 11.3104 34.8232 12.0488H34.7678L34.657 11.938V11.5504C34.657 10.1658 35.4693 8.7997 37.0939 7.45206C39.3276 5.48598 40.4445 3.99065 40.4445 2.96608L40.4999 2.07996L40.4445 1.91381L40.4999 1.85843H40.5553ZM40.2784 8.11665V13.0457C40.8783 13.4518 41.5983 13.6549 42.4383 13.6549C43.5921 13.6549 44.3674 13.0826 44.7643 11.938V11.7719C44.7643 11.135 44.349 10.3043 43.5182 9.27968C42.4567 8.39356 41.5383 7.9505 40.763 7.9505H40.6107C40.3891 7.96896 40.2784 8.02434 40.2784 8.11665Z" stroke="black" stroke-width="0.405083"/>
<path d="M70.011 6.05365C70.5833 6.05365 71.0079 6.18288 71.2848 6.44133V6.49671H71.0079C70.4817 6.49671 69.0787 7.4936 66.7988 9.48736C64.7866 10.7058 63.5128 11.315 62.9774 11.315V11.2042C63.8266 10.5396 64.2512 9.78274 64.2512 8.93354C64.2512 8.63817 63.8082 8.49048 62.922 8.49048H62.6451C61.0944 8.49048 60.3191 8.65663 60.3191 8.98892V12.8657H60.3744C61.1775 12.4596 62.0451 12.2565 62.9774 12.2565H63.642C65.405 12.2565 66.4573 12.8657 66.7988 14.0841C66.8727 14.0841 66.9096 14.2318 66.9096 14.5272H66.7988C66.4204 13.678 65.7004 13.2534 64.6389 13.2534C62.5805 13.2534 61.1775 14.1395 60.4298 15.9117C60.2452 16.2071 60.1529 16.9086 60.1529 18.0163V19.4562C60.3006 21.5238 60.799 22.5576 61.6482 22.5576L61.8698 22.613C62.3498 22.613 62.9959 22.2069 63.8082 21.3946C62.1467 21.1546 61.3159 20.7485 61.3159 20.1762L61.3713 20.1208H61.4267C61.4267 20.2869 61.7221 20.4346 62.3128 20.5639C62.9682 20.5639 63.9097 20.01 65.1373 18.9024C66.0511 18.2747 67.0296 17.9609 68.0726 17.9609H68.128V18.0163C67.2049 18.5147 66.7434 19.567 66.7434 21.1731V21.2838L66.8542 22.3361C66.125 22.6961 64.6666 23.8407 62.479 25.7698L61.5929 26.4344L61.5375 26.379H61.4821L61.5375 26.3236V25.9913C61.5375 24.7914 60.356 23.9237 57.993 23.3884C55.8146 22.5853 54.7254 21.3854 54.7254 19.7885H54.8362C55.187 20.6377 55.6485 21.0623 56.2208 21.0623H56.4977C56.7561 20.8408 56.8853 20.49 56.8853 20.01V9.0443C56.2392 8.68432 54.9285 8.07511 52.9532 7.21668V7.10592H63.5312C65.3958 7.10592 67.2234 6.79208 69.0141 6.16442L70.011 6.05365Z" stroke="black" stroke-width="0.405083"/>
<path d="M86.8118 6.05365C87.3841 6.05365 87.8087 6.18288 88.0856 6.44133V6.49671H87.8087C87.2826 6.49671 85.8795 7.4936 83.5996 9.48736C81.5874 10.7058 80.3136 11.315 79.7782 11.315V11.2042C80.6274 10.5396 81.052 9.78274 81.052 8.93354C81.052 8.63817 80.609 8.49048 79.7229 8.49048H79.446C77.8952 8.49048 77.1199 8.65663 77.1199 8.98892V12.8657H77.1753C77.9783 12.4596 78.846 12.2565 79.7782 12.2565H80.4428C82.2058 12.2565 83.2581 12.8657 83.5996 14.0841C83.6735 14.0841 83.7104 14.2318 83.7104 14.5272H83.5996C83.2212 13.678 82.5012 13.2534 81.4397 13.2534C79.3813 13.2534 77.9783 14.1395 77.2307 15.9117C77.046 16.2071 76.9537 16.9086 76.9537 18.0163V19.4562C77.1014 21.5238 77.5999 22.5576 78.4491 22.5576L78.6706 22.613C79.1506 22.613 79.7967 22.2069 80.609 21.3946C78.9475 21.1546 78.1168 20.7485 78.1168 20.1762L78.1721 20.1208H78.2275C78.2275 20.2869 78.5229 20.4346 79.1137 20.5639C79.769 20.5639 80.7105 20.01 81.9382 18.9024C82.852 18.2747 83.8304 17.9609 84.8734 17.9609H84.9288V18.0163C84.0058 18.5147 83.5443 19.567 83.5443 21.1731V21.2838L83.655 22.3361C82.9258 22.6961 81.4674 23.8407 79.2798 25.7698L78.3937 26.4344L78.3383 26.379H78.2829L78.3383 26.3236V25.9913C78.3383 24.7914 77.1568 23.9237 74.7938 23.3884C72.6154 22.5853 71.5263 21.3854 71.5263 19.7885H71.637C71.9878 20.6377 72.4493 21.0623 73.0216 21.0623H73.2985C73.5569 20.8408 73.6862 20.49 73.6862 20.01V9.0443C73.04 8.68432 71.7293 8.07511 69.754 7.21668V7.10592H80.3321C82.1966 7.10592 84.0242 6.79208 85.8149 6.16442L86.8118 6.05365Z" stroke="black" stroke-width="0.405083"/>
<path d="M87.8286 2.95223H87.884C88.6963 4.10603 89.6193 5.10292 90.6531 5.94289C91.9731 6.79208 93.5053 7.21668 95.2499 7.21668H95.9145C97.179 7.21668 98.4898 6.90285 99.8466 6.27518L100.124 5.8875C101.102 6.81054 101.988 7.41975 102.782 7.71512C104.222 8.68432 104.942 9.79197 104.942 11.0381V11.1488C104.942 11.9796 104.517 12.7734 103.668 13.5303L103.613 13.4749L103.723 13.1426C103.723 12.1088 102.893 11.1858 101.231 10.3735L100.234 9.54275L100.29 9.48736L100.677 9.54275H100.844C101.13 9.54275 101.314 9.45044 101.397 9.26583C101.397 8.98892 101.065 8.65663 100.4 8.26895L99.4036 8.1028C98.6651 8.2228 98.2959 8.55509 98.2959 9.09969L98.2405 19.2901C98.4344 19.807 98.6744 20.0654 98.9605 20.0654H99.1267C99.3482 20.0654 99.5882 19.9731 99.8466 19.7885H99.902V19.8439C99.902 20.2223 99.0897 21.1823 97.4652 22.7238C96.1452 24.6899 95.296 26.979 94.9176 29.5912H94.8068L95.0284 8.4351L94.973 8.37971H94.8068C94.253 8.37971 93.57 8.32433 92.7577 8.21357C92.3146 8.45356 92.0931 9.00738 92.0931 9.87504C92.2777 10.7981 92.6469 11.2596 93.2007 11.2596V11.3704C91.41 11.3704 89.8039 9.50583 88.3825 5.77674C88.1609 5.066 87.9763 4.12449 87.8286 2.95223Z" stroke="black" stroke-width="0.405083"/>
<path d="M106.056 1.1523H106.166C106.166 2.02919 106.646 3.063 107.606 4.25372C108.354 4.95523 109.314 5.54598 110.486 6.02596C110.763 6.24749 110.948 6.35825 111.04 6.35825V6.46902L110.708 6.41364C110.375 6.49671 110.209 6.58901 110.209 6.69055C110.209 7.01361 110.468 7.19822 110.985 7.24437H111.095C111.945 7.24437 113.126 6.8567 114.64 6.08134L115.747 5.19522C117.446 6.75516 118.554 7.95512 119.07 8.79508C119.772 10.0227 120.123 11.2596 120.123 12.5057V14.0564L120.012 14.1672C119.624 13.8718 119.237 13.7241 118.849 13.7241C118.138 13.7241 116.791 14.4256 114.806 15.8287C114.224 16.1979 113.505 16.3825 112.646 16.3825L111.815 16.2163V16.0502H112.203C113.588 16.0502 114.788 15.2933 115.803 13.7795C116.098 13.1611 116.246 12.5519 116.246 11.9519C116.246 10.5027 115.803 9.45044 114.917 8.79508C114.492 8.57355 114.086 8.46279 113.698 8.46279C112.517 8.69355 111.926 9.11815 111.926 9.73658C111.778 10.4473 111.705 11.3888 111.705 12.5611V17.324L111.649 21.4223C111.806 22.1607 112.101 22.5299 112.535 22.5299C112.858 22.5299 113.172 22.2715 113.477 21.7546H113.532V22.253L113.311 24.9114V25.0221C113.311 27.6251 114.271 29.8773 116.191 31.7788H116.08C113.458 30.3389 111.649 28.5112 110.652 26.2959C109.619 24.3299 108.419 23.0007 107.052 22.3084V22.1976C107.717 22.1976 108.105 21.6069 108.215 20.4254C108.215 17.7578 108.289 14.3426 108.437 10.1796C108.437 9.61659 108.086 8.67509 107.385 7.35514C106.499 5.5829 106.056 3.81066 106.056 2.03842V1.1523Z" stroke="black" stroke-width="0.405083"/>
<path d="M121.333 3.58913C122.072 3.72759 123.29 4.79831 124.989 6.80131C125.93 7.68743 126.65 9.27506 127.149 11.5642C127.333 12.6349 127.425 13.4288 127.425 13.9457C127.425 14.5641 127.093 16.244 126.429 18.9855L126.373 19.7608V20.0931C126.438 20.8315 126.678 21.2008 127.093 21.2008H127.259C128.044 21.2008 128.801 20.8315 129.53 20.0931C129.751 19.5485 129.862 19.1608 129.862 18.9301L129.918 9.84735V9.12738C129.918 8.15818 129.622 7.45667 129.032 7.02284V6.91208H129.087C129.53 7.05977 129.955 7.13361 130.361 7.13361C131.155 7.13361 132.687 6.65363 134.957 5.69366C135.751 5.43521 136.342 5.30599 136.73 5.30599H137.173C137.45 5.30599 137.597 5.36137 137.616 5.47213C135.733 6.36748 134.459 7.47513 133.794 8.79508L133.573 9.6812L133.462 16.8809C133.462 18.727 133.647 19.9085 134.016 20.4254C134.357 20.8038 134.893 21.0623 135.622 21.2008V21.3115C134.911 21.3115 133.988 21.9761 132.853 23.3053C131.755 24.3391 130.628 24.856 129.475 24.856L129.308 24.9114V24.856C130.01 24.1637 130.361 23.2222 130.361 22.0315V21.9207C130.361 21.6346 130.268 21.45 130.084 21.3669H130.028C129.336 21.3669 128.745 22.013 128.256 23.3053V23.8591C128.801 25.6221 129.502 26.7482 130.361 27.2374V27.3482C129.087 27.1082 127.555 26.2406 125.764 24.7452C124.776 23.8591 123.872 22.5299 123.05 20.7577C122.773 20.2962 122.386 19.7608 121.887 19.1516V19.0408C122.506 19.0408 123.226 17.9517 124.047 15.7733C124.822 13.1611 125.21 11.0935 125.21 9.57044C125.173 9.09046 125.081 8.85047 124.933 8.85047C124.712 9.15507 124.601 9.63505 124.601 10.2904C124.601 10.6689 124.656 10.9458 124.767 11.1211L124.712 11.1765C124.287 10.9919 123.899 10.4012 123.549 9.40429C123.143 6.98592 122.496 5.2506 121.61 4.19834L121.278 3.64451L121.333 3.58913Z" stroke="black" stroke-width="0.405083"/>
<path d="M147.231 1H147.342C147.572 2.1538 149.64 5.10753 153.544 9.8612L153.489 9.91658H153.434C153.434 9.80581 153.083 9.69505 152.381 9.58428C152.049 9.58428 151.883 9.97196 151.883 10.7473V10.9135L151.938 11.0796L151.883 11.3565C151.883 16.7379 152.123 19.507 152.603 19.6639C152.603 19.8577 152.843 20.0054 153.323 20.107V20.3285C153.323 21.7038 152.714 23.0699 151.495 24.4268C151.311 24.8975 151.218 25.3221 151.218 25.7006C151.218 26.0606 151.274 26.3929 151.384 26.6975L151.329 26.7528H151.274C150.904 25.9867 150.72 25.396 150.72 24.9806V24.8698L150.886 22.9315V22.5992C150.886 21.7407 150.295 21.0761 149.114 20.6054H148.948L148.892 20.6608H148.837L148.781 20.6054V20.2177C148.505 17.8363 147.046 14.7902 144.406 11.0796C143.576 10.1289 143.077 9.63043 142.911 9.58428H142.856L142.911 13.1841V18.5009C143.003 20.3469 143.262 21.3069 143.686 21.3808L143.797 21.0485V20.9931C143.797 20.4762 143.705 19.9777 143.52 19.4977L143.576 19.4424H143.631C144.296 20.107 144.628 21.4915 144.628 23.596C144.628 25.5621 145.274 27.6113 146.566 29.7435L147.563 30.8512V30.9065H147.508C144.905 29.4943 143.077 27.3713 142.025 24.5375C141.074 22.4422 140.225 21.0208 139.477 20.2731C139.311 20.0608 138.868 19.6731 138.148 19.1101L138.203 19.0547L138.259 19.1101H138.314C139.053 19.0547 139.422 18.8147 139.422 18.3901C139.514 18.3901 139.588 17.947 139.643 17.0609L139.533 7.6459C139.053 5.88289 138.185 4.55371 136.93 3.65836C136.8 3.54759 136.671 3.49221 136.542 3.49221V3.32606H136.708C137.28 3.32606 138.203 3.82451 139.477 4.82139C140.853 5.55982 142.034 5.92904 143.022 5.92904L143.963 5.70751C143.299 6.39979 142.966 6.89823 142.966 7.20284C142.966 7.34129 143.797 8.26433 145.459 9.97196L148.781 14.4579V10.0827C148.781 7.74743 148.597 6.34441 148.228 5.87366H148.172C147.988 6.27057 147.895 6.73209 147.895 7.25822V7.59051C147.895 7.96896 147.988 8.28279 148.172 8.53202V8.5874H148.117C147.305 8.09819 146.898 7.17515 146.898 5.81827V5.65213L147.286 1.60921L147.231 1Z" stroke="black" stroke-width="0.405083"/>
<path d="M172.602 2.79993H172.713L172.879 3.8522C172.879 4.98754 172.288 6.13211 171.107 7.28591C170.184 8.49509 169.722 9.39968 169.722 9.99965V10.055C169.722 10.6089 170.128 10.9781 170.941 11.1627V11.2734C169.233 12.7688 167.11 14.0426 164.572 15.0948L171.051 21.8515C172.233 23.0699 173.322 23.6791 174.319 23.6791H174.817C175.547 23.6791 176.193 23.4576 176.756 23.0145H176.811V23.0699C175.925 24.3622 174.411 25.0083 172.27 25.0083H171.771C170.59 25.0083 168.984 24.5283 166.953 23.5684C166.224 23.3468 165.615 23.2361 165.125 23.2361H164.904C164.433 23.2361 164.009 23.3468 163.63 23.5684L163.575 23.4022C163.778 22.8115 164.516 22.4792 165.79 22.4053C166.861 22.313 167.396 22.1653 167.396 21.9623C167.396 21.7223 166.824 21.4269 165.679 21.0761C165.384 21.0761 165.236 21.0208 165.236 20.91C165.236 20.4577 164.332 18.7409 162.522 15.7594H162.079L162.135 19.1931V20.3008C162.135 20.4116 162.264 20.4669 162.522 20.4669V20.5223C162.753 20.4485 163.104 20.4116 163.575 20.4116L163.63 20.4669V20.5223C162.929 20.9285 162.042 21.87 160.972 23.3468C159.698 25.0083 157.852 25.839 155.433 25.839H154.658L154.27 25.7837V25.6729H154.326C155.673 25.6729 156.855 25.0452 157.87 23.7899C158.498 22.9038 158.812 21.6484 158.812 20.0239V16.8117L158.867 13.9872L158.812 11.3288V9.27968C158.812 8.05203 158.129 7.29514 156.763 7.009L156.541 6.95362V6.78747H156.596C159.661 6.47363 161.193 6.21518 161.193 6.01211C161.461 6.01211 161.756 5.71674 162.079 5.12599H162.135L162.079 5.40291L162.135 9.77812V13.9318L162.079 14.7625C165.144 13.9872 166.676 12.8611 166.676 11.3842C166.565 10.4243 166.288 9.94427 165.845 9.94427H165.679C165.282 9.94427 164.987 10.1843 164.793 10.6642H164.682V10.5535C164.682 9.11353 166.473 7.50744 170.054 5.7352C171.753 4.66447 172.602 3.68605 172.602 2.79993Z" stroke="black" stroke-width="0.405083"/>
<path d="M181.829 1.17999H181.94C184.137 2.46302 185.669 4.36449 186.537 6.88439C186.832 7.64128 186.98 8.32433 186.98 8.93354V9.0443C186.841 10.0781 186.731 10.595 186.648 10.595C186.075 10.7427 185.466 10.8165 184.82 10.8165C183.592 10.8165 182.651 10.4473 181.995 9.70889L182.051 9.65351C182.392 9.8012 182.706 9.87504 182.992 9.87504H183.269C183.602 9.87504 183.768 9.65351 183.768 9.21045C183.768 8.47202 182.863 7.77051 181.054 7.10592L180.556 7.05054C180.362 7.05054 180.214 7.14284 180.112 7.32745V7.65974C180.131 8.49971 181.866 10.955 185.318 15.0256C187.257 17.2409 188.512 18.3486 189.084 18.3486L189.306 18.4039H189.694V18.5147C188.586 19.1701 187.183 20.6469 185.485 22.9453C183.694 24.8652 182.678 25.8252 182.439 25.8252L182.383 25.7698L182.494 25.4375C182.494 24.856 181.294 24.1176 178.894 23.2222C177.851 22.6684 176.78 21.69 175.682 20.2869C175.091 19.4377 174.796 18.7178 174.796 18.127V17.8501C174.796 17.2132 175.165 16.5671 175.903 15.9117H175.959V15.9671C175.7 16.3086 175.571 16.5671 175.571 16.7425V17.0194C175.571 17.6747 176.882 18.3209 179.503 18.9578C180.011 19.2439 180.491 19.6131 180.943 20.0654L180.888 20.1208C180.076 19.8993 179.282 19.7885 178.506 19.7885C177.583 19.7885 177.122 20.01 177.122 20.4531C177.408 21.0346 178.294 21.5515 179.78 22.0038C179.937 22.0776 180.232 22.1146 180.666 22.1146H180.888C182.309 22.1146 183.343 21.2469 183.989 19.5116V19.0131C183.989 18.164 183.288 17.0563 181.885 15.6902C178.959 12.4319 177.353 10.2166 177.066 9.0443C176.882 8.65663 176.79 8.34279 176.79 8.1028C177.86 7.92742 178.396 7.72436 178.396 7.4936V7.32745C178.349 6.99515 177.962 6.62594 177.233 6.2198L176.956 6.16442V6.05365H177.011C179.716 6.05365 181.728 6.3121 183.048 6.82901H183.269C183.638 6.82901 183.823 6.40441 183.823 5.55521C183.823 4.01373 183.158 2.55532 181.829 1.17999Z" stroke="black" stroke-width="0.405083"/>
</svg>
