<svg width="189" height="32" viewBox="0 0 189 32" fill="none" xmlns="http://www.w3.org/2000/svg">
<path d="M7.03357 1.17999H7.14434C9.34118 2.46302 10.8734 4.36449 11.7411 6.88439C12.0365 7.64128 12.1841 8.32433 12.1841 8.93354V9.0443C12.0457 10.0781 11.9349 10.595 11.8518 10.595C11.2796 10.7427 10.6704 10.8165 10.0242 10.8165C8.79658 10.8165 7.85508 10.4473 7.19972 9.70889L7.2551 9.65351C7.59663 9.8012 7.91046 9.87504 8.19661 9.87504H8.47352C8.80581 9.87504 8.97196 9.65351 8.97196 9.21045C8.97196 8.47202 8.06738 7.77051 6.25822 7.10592L5.75978 7.05054C5.56594 7.05054 5.41825 7.14284 5.31672 7.32745V7.65974C5.33518 8.49971 7.0705 10.955 10.5227 15.0256C12.4611 17.2409 13.7164 18.3486 14.2887 18.3486L14.5102 18.4039H14.8979V18.5147C13.7902 19.1701 12.3872 20.6469 10.6888 22.9453C8.89812 24.8652 7.88277 25.8252 7.64278 25.8252L7.5874 25.7698L7.69816 25.4375C7.69816 24.856 6.49821 24.1176 4.0983 23.2222C3.05527 22.6684 1.98454 21.69 0.88612 20.2869C0.295373 19.4377 0 18.7178 0 18.127V17.8501C0 17.2132 0.369216 16.5671 1.10765 15.9117H1.16303V15.9671C0.90458 16.3086 0.775355 16.5671 0.775355 16.7425V17.0194C0.775355 17.6747 2.08607 18.3209 4.70751 18.9578C5.21518 19.2439 5.69516 19.6131 6.14745 20.0654L6.09207 20.1208C5.2798 19.8993 4.48598 19.7885 3.71063 19.7885C2.78758 19.7885 2.32606 20.01 2.32606 20.4531C2.61221 21.0346 3.49833 21.5515 4.98442 22.0038C5.14134 22.0776 5.43671 22.1146 5.87054 22.1146H6.09207C7.51356 22.1146 8.54736 21.2469 9.19349 19.5116V19.0131C9.19349 18.164 8.49198 17.0563 7.08896 15.6902C4.16292 12.4319 2.55682 10.2166 2.27068 9.0443C2.08607 8.65663 1.99377 8.34279 1.99377 8.1028C3.0645 7.92742 3.59986 7.72436 3.59986 7.4936V7.32745C3.55371 6.99515 3.16603 6.62594 2.43683 6.2198L2.15992 6.16442V6.05365H2.2153C4.91981 6.05365 6.93204 6.3121 8.25199 6.82901H8.47352C8.84273 6.82901 9.02734 6.40441 9.02734 5.55521C9.02734 4.01373 8.36275 2.55532 7.03357 1.17999Z" fill="#DD11FF"/>
<path d="M15.4993 2.95223H15.5547C16.367 4.10603 17.29 5.10292 18.3238 5.94289C19.6438 6.79208 21.176 7.21668 22.9206 7.21668H23.5852C24.8497 7.21668 26.1605 6.90285 27.5173 6.27518L27.7942 5.8875C28.7727 6.81054 29.6588 7.41975 30.4526 7.71512C31.8926 8.68432 32.6125 9.79197 32.6125 11.0381V11.1488C32.6125 11.9796 32.1879 12.7734 31.3387 13.5303L31.2833 13.4749L31.3941 13.1426C31.3941 12.1088 30.5634 11.1858 28.9019 10.3735L27.905 9.54275L27.9604 9.48736L28.3481 9.54275H28.5142C28.8004 9.54275 28.985 9.45044 29.068 9.26583C29.068 8.98892 28.7358 8.65663 28.0712 8.26895L27.0743 8.1028C26.3358 8.2228 25.9666 8.55509 25.9666 9.09969L25.9112 19.2901C26.1051 19.807 26.3451 20.0654 26.6312 20.0654H26.7974C27.0189 20.0654 27.2589 19.9731 27.5173 19.7885H27.5727V19.8439C27.5727 20.2223 26.7604 21.1823 25.1359 22.7238C23.8159 24.6899 22.9667 26.979 22.5883 29.5912H22.4775L22.6991 8.4351L22.6437 8.37971H22.4775C21.9237 8.37971 21.2407 8.32433 20.4284 8.21357C19.9853 8.45356 19.7638 9.00738 19.7638 9.87504C19.9484 10.7981 20.3176 11.2596 20.8714 11.2596V11.3704C19.0807 11.3704 17.4746 9.50583 16.0532 5.77674C15.8316 5.066 15.647 4.12449 15.4993 2.95223Z" fill="#DD11FF"/>
<path d="M39.5553 1.85843C39.9153 2.84608 40.0952 3.65836 40.0952 4.29526L39.6522 6.39979V6.56594C39.6522 6.97208 40.1229 7.17515 41.0644 7.17515H41.4383C42.1859 7.17515 42.7813 6.75055 43.2244 5.90135C45.1997 7.68282 46.5704 9.25199 47.3365 10.6089C47.8442 11.4488 48.098 12.1688 48.098 12.7688V12.9349C48.098 13.4149 48.0426 13.6549 47.9319 13.6549C47.7565 13.2118 47.4657 12.9903 47.0596 12.9903C46.6165 12.9903 45.7535 13.5072 44.4705 14.541C43.7136 14.8733 43.1736 15.0395 42.8505 15.0395C47.0042 20.2269 49.418 23.1438 50.0918 23.7899C51.7717 25.3406 53.5901 26.116 55.547 26.116L56.9038 26.0052V26.0606C55.4731 27.2421 53.8532 27.8328 52.044 27.8328H51.7671C49.6441 27.8328 47.2488 26.8728 44.5812 24.9529C43.4643 24.3622 42.8321 24.0668 42.6844 24.0668V23.956L44.152 24.0114H44.1936C45.0981 24.0114 45.5504 23.6791 45.5504 23.0145C45.5504 22.6361 44.992 22.3592 43.8751 22.1838L39.3891 14.7072H39.3337V14.7625L39.3891 19.4147V20.5223C39.3891 23.6422 39.9291 25.6914 41.0091 26.6698V26.7252C39.0061 25.9406 37.2384 24.4637 35.7062 22.2946L34.4185 20.8546V20.7992H34.4739L34.737 20.8546C35.4847 20.8546 35.9369 20.3193 36.0939 19.2485V17.2548L36.1492 9.50121C34.5985 10.4612 33.8232 11.3104 33.8232 12.0488H33.7678L33.657 11.938V11.5504C33.657 10.1658 34.4693 8.7997 36.0939 7.45206C38.3276 5.48598 39.4445 3.99065 39.4445 2.96608L39.4999 2.07996L39.4445 1.91381L39.4999 1.85843H39.5553ZM39.2784 8.11665V13.0457C39.8783 13.4518 40.5983 13.6549 41.4383 13.6549C42.5921 13.6549 43.3674 13.0826 43.7643 11.938V11.7719C43.7643 11.135 43.349 10.3043 42.5182 9.27968C41.4567 8.39356 40.5383 7.9505 39.763 7.9505H39.6107C39.3891 7.96896 39.2784 8.02434 39.2784 8.11665Z" fill="#DD11FF"/>
<path d="M69.011 6.05365C69.5833 6.05365 70.0079 6.18288 70.2848 6.44133V6.49671H70.0079C69.4817 6.49671 68.0787 7.4936 65.7988 9.48736C63.7866 10.7058 62.5128 11.315 61.9774 11.315V11.2042C62.8266 10.5396 63.2512 9.78274 63.2512 8.93354C63.2512 8.63817 62.8082 8.49048 61.922 8.49048H61.6451C60.0944 8.49048 59.3191 8.65663 59.3191 8.98892V12.8657H59.3744C60.1775 12.4596 61.0451 12.2565 61.9774 12.2565H62.642C64.405 12.2565 65.4573 12.8657 65.7988 14.0841C65.8727 14.0841 65.9096 14.2318 65.9096 14.5272H65.7988C65.4204 13.678 64.7004 13.2534 63.6389 13.2534C61.5805 13.2534 60.1775 14.1395 59.4298 15.9117C59.2452 16.2071 59.1529 16.9086 59.1529 18.0163V19.4562C59.3006 21.5238 59.799 22.5576 60.6482 22.5576L60.8698 22.613C61.3498 22.613 61.9959 22.2069 62.8082 21.3946C61.1467 21.1546 60.3159 20.7485 60.3159 20.1762L60.3713 20.1208H60.4267C60.4267 20.2869 60.7221 20.4346 61.3128 20.5639C61.9682 20.5639 62.9097 20.01 64.1373 18.9024C65.0511 18.2747 66.0296 17.9609 67.0726 17.9609H67.128V18.0163C66.2049 18.5147 65.7434 19.567 65.7434 21.1731V21.2838L65.8542 22.3361C65.125 22.6961 63.6666 23.8407 61.479 25.7698L60.5929 26.4344L60.5375 26.379H60.4821L60.5375 26.3236V25.9913C60.5375 24.7914 59.356 23.9237 56.993 23.3884C54.8146 22.5853 53.7254 21.3854 53.7254 19.7885H53.8362C54.187 20.6377 54.6485 21.0623 55.2208 21.0623H55.4977C55.7561 20.8408 55.8853 20.49 55.8853 20.01V9.0443C55.2392 8.68432 53.9285 8.07511 51.9532 7.21668V7.10592H62.5312C64.3958 7.10592 66.2234 6.79208 68.0141 6.16442L69.011 6.05365Z" fill="#DD11FF"/>
<path d="M85.8118 6.05365C86.3841 6.05365 86.8087 6.18288 87.0856 6.44133V6.49671H86.8087C86.2826 6.49671 84.8795 7.4936 82.5996 9.48736C80.5874 10.7058 79.3136 11.315 78.7782 11.315V11.2042C79.6274 10.5396 80.052 9.78274 80.052 8.93354C80.052 8.63817 79.609 8.49048 78.7229 8.49048H78.446C76.8952 8.49048 76.1199 8.65663 76.1199 8.98892V12.8657H76.1753C76.9783 12.4596 77.846 12.2565 78.7782 12.2565H79.4428C81.2058 12.2565 82.2581 12.8657 82.5996 14.0841C82.6735 14.0841 82.7104 14.2318 82.7104 14.5272H82.5996C82.2212 13.678 81.5012 13.2534 80.4397 13.2534C78.3813 13.2534 76.9783 14.1395 76.2307 15.9117C76.046 16.2071 75.9537 16.9086 75.9537 18.0163V19.4562C76.1014 21.5238 76.5999 22.5576 77.4491 22.5576L77.6706 22.613C78.1506 22.613 78.7967 22.2069 79.609 21.3946C77.9475 21.1546 77.1168 20.7485 77.1168 20.1762L77.1721 20.1208H77.2275C77.2275 20.2869 77.5229 20.4346 78.1137 20.5639C78.769 20.5639 79.7105 20.01 80.9382 18.9024C81.852 18.2747 82.8304 17.9609 83.8734 17.9609H83.9288V18.0163C83.0058 18.5147 82.5443 19.567 82.5443 21.1731V21.2838L82.655 22.3361C81.9258 22.6961 80.4674 23.8407 78.2798 25.7698L77.3937 26.4344L77.3383 26.379H77.2829L77.3383 26.3236V25.9913C77.3383 24.7914 76.1568 23.9237 73.7938 23.3884C71.6154 22.5853 70.5263 21.3854 70.5263 19.7885H70.637C70.9878 20.6377 71.4493 21.0623 72.0216 21.0623H72.2985C72.5569 20.8408 72.6862 20.49 72.6862 20.01V9.0443C72.04 8.68432 70.7293 8.07511 68.754 7.21668V7.10592H79.3321C81.1966 7.10592 83.0242 6.79208 84.8149 6.16442L85.8118 6.05365Z" fill="#DD11FF"/>
<path d="M86.8286 2.95223H86.884C87.6963 4.10603 88.6193 5.10292 89.6531 5.94289C90.9731 6.79208 92.5053 7.21668 94.2499 7.21668H94.9145C96.179 7.21668 97.4898 6.90285 98.8466 6.27518L99.1235 5.8875C100.102 6.81054 100.988 7.41975 101.782 7.71512C103.222 8.68432 103.942 9.79197 103.942 11.0381V11.1488C103.942 11.9796 103.517 12.7734 102.668 13.5303L102.613 13.4749L102.723 13.1426C102.723 12.1088 101.893 11.1858 100.231 10.3735L99.2343 9.54275L99.2897 9.48736L99.6774 9.54275H99.8435C100.13 9.54275 100.314 9.45044 100.397 9.26583C100.397 8.98892 100.065 8.65663 99.4005 8.26895L98.4036 8.1028C97.6651 8.2228 97.2959 8.55509 97.2959 9.09969L97.2405 19.2901C97.4344 19.807 97.6744 20.0654 97.9605 20.0654H98.1267C98.3482 20.0654 98.5882 19.9731 98.8466 19.7885H98.902V19.8439C98.902 20.2223 98.0897 21.1823 96.4652 22.7238C95.1452 24.6899 94.296 26.979 93.9176 29.5912H93.8068L94.0284 8.4351L93.973 8.37971H93.8068C93.253 8.37971 92.57 8.32433 91.7577 8.21357C91.3146 8.45356 91.0931 9.00738 91.0931 9.87504C91.2777 10.7981 91.6469 11.2596 92.2007 11.2596V11.3704C90.41 11.3704 88.8039 9.50583 87.3825 5.77674C87.1609 5.066 86.9763 4.12449 86.8286 2.95223Z" fill="#DD11FF"/>
<path d="M105.056 1.1523H105.166C105.166 2.02919 105.646 3.063 106.606 4.25372C107.354 4.95523 108.314 5.54598 109.486 6.02596C109.763 6.24749 109.948 6.35825 110.04 6.35825V6.46902L109.708 6.41364C109.375 6.49671 109.209 6.58901 109.209 6.69055C109.209 7.01361 109.468 7.19822 109.985 7.24437H110.095C110.945 7.24437 112.126 6.8567 113.64 6.08134L114.747 5.19522C116.446 6.75516 117.554 7.95512 118.07 8.79508C118.772 10.0227 119.123 11.2596 119.123 12.5057V14.0564L119.012 14.1672C118.624 13.8718 118.237 13.7241 117.849 13.7241C117.138 13.7241 115.791 14.4256 113.806 15.8287C113.224 16.1979 112.505 16.3825 111.646 16.3825L110.815 16.2163V16.0502H111.203C112.588 16.0502 113.788 15.2933 114.803 13.7795C115.098 13.1611 115.246 12.5519 115.246 11.9519C115.246 10.5027 114.803 9.45044 113.917 8.79508C113.492 8.57355 113.086 8.46279 112.698 8.46279C111.517 8.69355 110.926 9.11815 110.926 9.73658C110.778 10.4473 110.705 11.3888 110.705 12.5611V17.324L110.649 21.4223C110.806 22.1607 111.101 22.5299 111.535 22.5299C111.858 22.5299 112.172 22.2715 112.477 21.7546H112.532V22.253L112.311 24.9114V25.0221C112.311 27.6251 113.271 29.8773 115.191 31.7788H115.08C112.458 30.3389 110.649 28.5112 109.652 26.2959C108.619 24.3299 107.419 23.0007 106.052 22.3084V22.1976C106.717 22.1976 107.105 21.6069 107.215 20.4254C107.215 17.7578 107.289 14.3426 107.437 10.1796C107.437 9.61659 107.086 8.67509 106.385 7.35514C105.499 5.5829 105.056 3.81066 105.056 2.03842V1.1523Z" fill="#DD11FF"/>
<path d="M120.333 3.58913C121.072 3.72759 122.29 4.79831 123.989 6.80131C124.93 7.68743 125.65 9.27506 126.149 11.5642C126.333 12.6349 126.425 13.4288 126.425 13.9457C126.425 14.5641 126.093 16.244 125.429 18.9855L125.373 19.7608V20.0931C125.438 20.8315 125.678 21.2008 126.093 21.2008H126.259C127.044 21.2008 127.801 20.8315 128.53 20.0931C128.751 19.5485 128.862 19.1608 128.862 18.9301L128.918 9.84735V9.12738C128.918 8.15818 128.622 7.45667 128.032 7.02284V6.91208H128.087C128.53 7.05977 128.955 7.13361 129.361 7.13361C130.155 7.13361 131.687 6.65363 133.957 5.69366C134.751 5.43521 135.342 5.30599 135.73 5.30599H136.173C136.45 5.30599 136.597 5.36137 136.616 5.47213C134.733 6.36748 133.459 7.47513 132.794 8.79508L132.573 9.6812L132.462 16.8809C132.462 18.727 132.647 19.9085 133.016 20.4254C133.357 20.8038 133.893 21.0623 134.622 21.2008V21.3115C133.911 21.3115 132.988 21.9761 131.853 23.3053C130.755 24.3391 129.628 24.856 128.475 24.856L128.308 24.9114V24.856C129.01 24.1637 129.361 23.2222 129.361 22.0315V21.9207C129.361 21.6346 129.268 21.45 129.084 21.3669H129.028C128.336 21.3669 127.745 22.013 127.256 23.3053V23.8591C127.801 25.6221 128.502 26.7482 129.361 27.2374V27.3482C128.087 27.1082 126.555 26.2406 124.764 24.7452C123.776 23.8591 122.872 22.5299 122.05 20.7577C121.773 20.2962 121.386 19.7608 120.887 19.1516V19.0408C121.506 19.0408 122.226 17.9517 123.047 15.7733C123.822 13.1611 124.21 11.0935 124.21 9.57044C124.173 9.09046 124.081 8.85047 123.933 8.85047C123.712 9.15507 123.601 9.63505 123.601 10.2904C123.601 10.6689 123.656 10.9458 123.767 11.1211L123.712 11.1765C123.287 10.9919 122.899 10.4012 122.549 9.40429C122.143 6.98592 121.496 5.2506 120.61 4.19834L120.278 3.64451L120.333 3.58913Z" fill="#DD11FF"/>
<path d="M146.231 1H146.342C146.572 2.1538 148.64 5.10753 152.544 9.8612L152.489 9.91658H152.434C152.434 9.80581 152.083 9.69505 151.381 9.58428C151.049 9.58428 150.883 9.97196 150.883 10.7473V10.9135L150.938 11.0796L150.883 11.3565C150.883 16.7379 151.123 19.507 151.603 19.6639C151.603 19.8577 151.843 20.0054 152.323 20.107V20.3285C152.323 21.7038 151.714 23.0699 150.495 24.4268C150.311 24.8975 150.218 25.3221 150.218 25.7006C150.218 26.0606 150.274 26.3929 150.384 26.6975L150.329 26.7528H150.274C149.904 25.9867 149.72 25.396 149.72 24.9806V24.8698L149.886 22.9315V22.5992C149.886 21.7407 149.295 21.0761 148.114 20.6054H147.948L147.892 20.6608H147.837L147.781 20.6054V20.2177C147.505 17.8363 146.046 14.7902 143.406 11.0796C142.576 10.1289 142.077 9.63043 141.911 9.58428H141.856L141.911 13.1841V18.5009C142.003 20.3469 142.262 21.3069 142.686 21.3808L142.797 21.0485V20.9931C142.797 20.4762 142.705 19.9777 142.52 19.4977L142.576 19.4424H142.631C143.296 20.107 143.628 21.4915 143.628 23.596C143.628 25.5621 144.274 27.6113 145.566 29.7435L146.563 30.8512V30.9065H146.508C143.905 29.4943 142.077 27.3713 141.025 24.5375C140.074 22.4422 139.225 21.0208 138.477 20.2731C138.311 20.0608 137.868 19.6731 137.148 19.1101L137.203 19.0547L137.259 19.1101H137.314C138.053 19.0547 138.422 18.8147 138.422 18.3901C138.514 18.3901 138.588 17.947 138.643 17.0609L138.533 7.6459C138.053 5.88289 137.185 4.55371 135.93 3.65836C135.8 3.54759 135.671 3.49221 135.542 3.49221V3.32606H135.708C136.28 3.32606 137.203 3.82451 138.477 4.82139C139.853 5.55982 141.034 5.92904 142.022 5.92904L142.963 5.70751C142.299 6.39979 141.966 6.89823 141.966 7.20284C141.966 7.34129 142.797 8.26433 144.459 9.97196L147.781 14.4579V10.0827C147.781 7.74743 147.597 6.34441 147.228 5.87366H147.172C146.988 6.27057 146.895 6.73209 146.895 7.25822V7.59051C146.895 7.96896 146.988 8.28279 147.172 8.53202V8.5874H147.117C146.305 8.09819 145.898 7.17515 145.898 5.81827V5.65213L146.286 1.60921L146.231 1Z" fill="#DD11FF"/>
<path d="M171.602 2.79993H171.713L171.879 3.8522C171.879 4.98754 171.288 6.13211 170.107 7.28591C169.184 8.49509 168.722 9.39968 168.722 9.99965V10.055C168.722 10.6089 169.128 10.9781 169.941 11.1627V11.2734C168.233 12.7688 166.11 14.0426 163.572 15.0948L170.051 21.8515C171.233 23.0699 172.322 23.6791 173.319 23.6791H173.817C174.547 23.6791 175.193 23.4576 175.756 23.0145H175.811V23.0699C174.925 24.3622 173.411 25.0083 171.27 25.0083H170.771C169.59 25.0083 167.984 24.5283 165.953 23.5684C165.224 23.3468 164.615 23.2361 164.125 23.2361H163.904C163.433 23.2361 163.009 23.3468 162.63 23.5684L162.575 23.4022C162.778 22.8115 163.516 22.4792 164.79 22.4053C165.861 22.313 166.396 22.1653 166.396 21.9623C166.396 21.7223 165.824 21.4269 164.679 21.0761C164.384 21.0761 164.236 21.0208 164.236 20.91C164.236 20.4577 163.332 18.7409 161.522 15.7594H161.079L161.135 19.1931V20.3008C161.135 20.4116 161.264 20.4669 161.522 20.4669V20.5223C161.753 20.4485 162.104 20.4116 162.575 20.4116L162.63 20.4669V20.5223C161.929 20.9285 161.042 21.87 159.972 23.3468C158.698 25.0083 156.852 25.839 154.433 25.839H153.658L153.27 25.7837V25.6729H153.326C154.673 25.6729 155.855 25.0452 156.87 23.7899C157.498 22.9038 157.812 21.6484 157.812 20.0239V16.8117L157.867 13.9872L157.812 11.3288V9.27968C157.812 8.05203 157.129 7.29514 155.763 7.009L155.541 6.95362V6.78747H155.596C158.661 6.47363 160.193 6.21518 160.193 6.01211C160.461 6.01211 160.756 5.71674 161.079 5.12599H161.135L161.079 5.40291L161.135 9.77812V13.9318L161.079 14.7625C164.144 13.9872 165.676 12.8611 165.676 11.3842C165.565 10.4243 165.288 9.94427 164.845 9.94427H164.679C164.282 9.94427 163.987 10.1843 163.793 10.6642H163.682V10.5535C163.682 9.11353 165.473 7.50744 169.054 5.7352C170.753 4.66447 171.602 3.68605 171.602 2.79993Z" fill="#DD11FF"/>
<path d="M180.829 1.17999H180.94C183.137 2.46302 184.669 4.36449 185.537 6.88439C185.832 7.64128 185.98 8.32433 185.98 8.93354V9.0443C185.841 10.0781 185.731 10.595 185.648 10.595C185.075 10.7427 184.466 10.8165 183.82 10.8165C182.592 10.8165 181.651 10.4473 180.995 9.70889L181.051 9.65351C181.392 9.8012 181.706 9.87504 181.992 9.87504H182.269C182.602 9.87504 182.768 9.65351 182.768 9.21045C182.768 8.47202 181.863 7.77051 180.054 7.10592L179.556 7.05054C179.362 7.05054 179.214 7.14284 179.112 7.32745V7.65974C179.131 8.49971 180.866 10.955 184.318 15.0256C186.257 17.2409 187.512 18.3486 188.084 18.3486L188.306 18.4039H188.694V18.5147C187.586 19.1701 186.183 20.6469 184.485 22.9453C182.694 24.8652 181.678 25.8252 181.439 25.8252L181.383 25.7698L181.494 25.4375C181.494 24.856 180.294 24.1176 177.894 23.2222C176.851 22.6684 175.78 21.69 174.682 20.2869C174.091 19.4377 173.796 18.7178 173.796 18.127V17.8501C173.796 17.2132 174.165 16.5671 174.903 15.9117H174.959V15.9671C174.7 16.3086 174.571 16.5671 174.571 16.7425V17.0194C174.571 17.6747 175.882 18.3209 178.503 18.9578C179.011 19.2439 179.491 19.6131 179.943 20.0654L179.888 20.1208C179.076 19.8993 178.282 19.7885 177.506 19.7885C176.583 19.7885 176.122 20.01 176.122 20.4531C176.408 21.0346 177.294 21.5515 178.78 22.0038C178.937 22.0776 179.232 22.1146 179.666 22.1146H179.888C181.309 22.1146 182.343 21.2469 182.989 19.5116V19.0131C182.989 18.164 182.288 17.0563 180.885 15.6902C177.959 12.4319 176.353 10.2166 176.066 9.0443C175.882 8.65663 175.79 8.34279 175.79 8.1028C176.86 7.92742 177.396 7.72436 177.396 7.4936V7.32745C177.349 6.99515 176.962 6.62594 176.233 6.2198L175.956 6.16442V6.05365H176.011C178.716 6.05365 180.728 6.3121 182.048 6.82901H182.269C182.638 6.82901 182.823 6.40441 182.823 5.55521C182.823 4.01373 182.158 2.55532 180.829 1.17999Z" fill="#DD11FF"/>
<path d="M7.03357 1.17999H7.14434C9.34118 2.46302 10.8734 4.36449 11.7411 6.88439C12.0365 7.64128 12.1841 8.32433 12.1841 8.93354V9.0443C12.0457 10.0781 11.9349 10.595 11.8518 10.595C11.2796 10.7427 10.6704 10.8165 10.0242 10.8165C8.79658 10.8165 7.85508 10.4473 7.19972 9.70889L7.2551 9.65351C7.59663 9.8012 7.91046 9.87504 8.19661 9.87504H8.47352C8.80581 9.87504 8.97196 9.65351 8.97196 9.21045C8.97196 8.47202 8.06738 7.77051 6.25822 7.10592L5.75978 7.05054C5.56594 7.05054 5.41825 7.14284 5.31672 7.32745V7.65974C5.33518 8.49971 7.0705 10.955 10.5227 15.0256C12.4611 17.2409 13.7164 18.3486 14.2887 18.3486L14.5102 18.4039H14.8979V18.5147C13.7902 19.1701 12.3872 20.6469 10.6888 22.9453C8.89812 24.8652 7.88277 25.8252 7.64278 25.8252L7.5874 25.7698L7.69816 25.4375C7.69816 24.856 6.49821 24.1176 4.0983 23.2222C3.05527 22.6684 1.98454 21.69 0.88612 20.2869C0.295373 19.4377 0 18.7178 0 18.127V17.8501C0 17.2132 0.369216 16.5671 1.10765 15.9117H1.16303V15.9671C0.90458 16.3086 0.775355 16.5671 0.775355 16.7425V17.0194C0.775355 17.6747 2.08607 18.3209 4.70751 18.9578C5.21518 19.2439 5.69516 19.6131 6.14745 20.0654L6.09207 20.1208C5.2798 19.8993 4.48598 19.7885 3.71063 19.7885C2.78758 19.7885 2.32606 20.01 2.32606 20.4531C2.61221 21.0346 3.49833 21.5515 4.98442 22.0038C5.14134 22.0776 5.43671 22.1146 5.87054 22.1146H6.09207C7.51356 22.1146 8.54736 21.2469 9.19349 19.5116V19.0131C9.19349 18.164 8.49198 17.0563 7.08896 15.6902C4.16292 12.4319 2.55682 10.2166 2.27068 9.0443C2.08607 8.65663 1.99377 8.34279 1.99377 8.1028C3.0645 7.92742 3.59986 7.72436 3.59986 7.4936V7.32745C3.55371 6.99515 3.16603 6.62594 2.43683 6.2198L2.15992 6.16442V6.05365H2.2153C4.91981 6.05365 6.93204 6.3121 8.25199 6.82901H8.47352C8.84273 6.82901 9.02734 6.40441 9.02734 5.55521C9.02734 4.01373 8.36275 2.55532 7.03357 1.17999Z" stroke="#DD11FF" stroke-width="0.405083"/>
<path d="M15.4993 2.95223H15.5547C16.367 4.10603 17.29 5.10292 18.3238 5.94289C19.6438 6.79208 21.176 7.21668 22.9206 7.21668H23.5852C24.8497 7.21668 26.1605 6.90285 27.5173 6.27518L27.7942 5.8875C28.7727 6.81054 29.6588 7.41975 30.4526 7.71512C31.8926 8.68432 32.6125 9.79197 32.6125 11.0381V11.1488C32.6125 11.9796 32.1879 12.7734 31.3387 13.5303L31.2833 13.4749L31.3941 13.1426C31.3941 12.1088 30.5634 11.1858 28.9019 10.3735L27.905 9.54275L27.9604 9.48736L28.3481 9.54275H28.5142C28.8004 9.54275 28.985 9.45044 29.068 9.26583C29.068 8.98892 28.7358 8.65663 28.0712 8.26895L27.0743 8.1028C26.3358 8.2228 25.9666 8.55509 25.9666 9.09969L25.9112 19.2901C26.1051 19.807 26.3451 20.0654 26.6312 20.0654H26.7974C27.0189 20.0654 27.2589 19.9731 27.5173 19.7885H27.5727V19.8439C27.5727 20.2223 26.7604 21.1823 25.1359 22.7238C23.8159 24.6899 22.9667 26.979 22.5883 29.5912H22.4775L22.6991 8.4351L22.6437 8.37971H22.4775C21.9237 8.37971 21.2407 8.32433 20.4284 8.21357C19.9853 8.45356 19.7638 9.00738 19.7638 9.87504C19.9484 10.7981 20.3176 11.2596 20.8714 11.2596V11.3704C19.0807 11.3704 17.4746 9.50583 16.0532 5.77674C15.8316 5.066 15.647 4.12449 15.4993 2.95223Z" stroke="#DD11FF" stroke-width="0.405083"/>
<path d="M39.5553 1.85843C39.9153 2.84608 40.0952 3.65836 40.0952 4.29526L39.6522 6.39979V6.56594C39.6522 6.97208 40.1229 7.17515 41.0644 7.17515H41.4383C42.1859 7.17515 42.7813 6.75055 43.2244 5.90135C45.1997 7.68282 46.5704 9.25199 47.3365 10.6089C47.8442 11.4488 48.098 12.1688 48.098 12.7688V12.9349C48.098 13.4149 48.0426 13.6549 47.9319 13.6549C47.7565 13.2118 47.4657 12.9903 47.0596 12.9903C46.6165 12.9903 45.7535 13.5072 44.4705 14.541C43.7136 14.8733 43.1736 15.0395 42.8505 15.0395C47.0042 20.2269 49.418 23.1438 50.0918 23.7899C51.7717 25.3406 53.5901 26.116 55.547 26.116L56.9038 26.0052V26.0606C55.4731 27.2421 53.8532 27.8328 52.044 27.8328H51.7671C49.6441 27.8328 47.2488 26.8728 44.5812 24.9529C43.4643 24.3622 42.8321 24.0668 42.6844 24.0668V23.956L44.152 24.0114H44.1936C45.0981 24.0114 45.5504 23.6791 45.5504 23.0145C45.5504 22.6361 44.992 22.3592 43.8751 22.1838L39.3891 14.7072H39.3337V14.7625L39.3891 19.4147V20.5223C39.3891 23.6422 39.9291 25.6914 41.0091 26.6698V26.7252C39.0061 25.9406 37.2384 24.4637 35.7062 22.2946L34.4185 20.8546V20.7992H34.4739L34.737 20.8546C35.4847 20.8546 35.9369 20.3193 36.0939 19.2485V17.2548L36.1492 9.50121C34.5985 10.4612 33.8232 11.3104 33.8232 12.0488H33.7678L33.657 11.938V11.5504C33.657 10.1658 34.4693 8.7997 36.0939 7.45206C38.3276 5.48598 39.4445 3.99065 39.4445 2.96608L39.4999 2.07996L39.4445 1.91381L39.4999 1.85843H39.5553ZM39.2784 8.11665V13.0457C39.8783 13.4518 40.5983 13.6549 41.4383 13.6549C42.5921 13.6549 43.3674 13.0826 43.7643 11.938V11.7719C43.7643 11.135 43.349 10.3043 42.5182 9.27968C41.4567 8.39356 40.5383 7.9505 39.763 7.9505H39.6107C39.3891 7.96896 39.2784 8.02434 39.2784 8.11665Z" stroke="#DD11FF" stroke-width="0.405083"/>
<path d="M69.011 6.05365C69.5833 6.05365 70.0079 6.18288 70.2848 6.44133V6.49671H70.0079C69.4817 6.49671 68.0787 7.4936 65.7988 9.48736C63.7866 10.7058 62.5128 11.315 61.9774 11.315V11.2042C62.8266 10.5396 63.2512 9.78274 63.2512 8.93354C63.2512 8.63817 62.8082 8.49048 61.922 8.49048H61.6451C60.0944 8.49048 59.3191 8.65663 59.3191 8.98892V12.8657H59.3744C60.1775 12.4596 61.0451 12.2565 61.9774 12.2565H62.642C64.405 12.2565 65.4573 12.8657 65.7988 14.0841C65.8727 14.0841 65.9096 14.2318 65.9096 14.5272H65.7988C65.4204 13.678 64.7004 13.2534 63.6389 13.2534C61.5805 13.2534 60.1775 14.1395 59.4298 15.9117C59.2452 16.2071 59.1529 16.9086 59.1529 18.0163V19.4562C59.3006 21.5238 59.799 22.5576 60.6482 22.5576L60.8698 22.613C61.3498 22.613 61.9959 22.2069 62.8082 21.3946C61.1467 21.1546 60.3159 20.7485 60.3159 20.1762L60.3713 20.1208H60.4267C60.4267 20.2869 60.7221 20.4346 61.3128 20.5639C61.9682 20.5639 62.9097 20.01 64.1373 18.9024C65.0511 18.2747 66.0296 17.9609 67.0726 17.9609H67.128V18.0163C66.2049 18.5147 65.7434 19.567 65.7434 21.1731V21.2838L65.8542 22.3361C65.125 22.6961 63.6666 23.8407 61.479 25.7698L60.5929 26.4344L60.5375 26.379H60.4821L60.5375 26.3236V25.9913C60.5375 24.7914 59.356 23.9237 56.993 23.3884C54.8146 22.5853 53.7254 21.3854 53.7254 19.7885H53.8362C54.187 20.6377 54.6485 21.0623 55.2208 21.0623H55.4977C55.7561 20.8408 55.8853 20.49 55.8853 20.01V9.0443C55.2392 8.68432 53.9285 8.07511 51.9532 7.21668V7.10592H62.5312C64.3958 7.10592 66.2234 6.79208 68.0141 6.16442L69.011 6.05365Z" stroke="#DD11FF" stroke-width="0.405083"/>
<path d="M85.8118 6.05365C86.3841 6.05365 86.8087 6.18288 87.0856 6.44133V6.49671H86.8087C86.2826 6.49671 84.8795 7.4936 82.5996 9.48736C80.5874 10.7058 79.3136 11.315 78.7782 11.315V11.2042C79.6274 10.5396 80.052 9.78274 80.052 8.93354C80.052 8.63817 79.609 8.49048 78.7229 8.49048H78.446C76.8952 8.49048 76.1199 8.65663 76.1199 8.98892V12.8657H76.1753C76.9783 12.4596 77.846 12.2565 78.7782 12.2565H79.4428C81.2058 12.2565 82.2581 12.8657 82.5996 14.0841C82.6735 14.0841 82.7104 14.2318 82.7104 14.5272H82.5996C82.2212 13.678 81.5012 13.2534 80.4397 13.2534C78.3813 13.2534 76.9783 14.1395 76.2307 15.9117C76.046 16.2071 75.9537 16.9086 75.9537 18.0163V19.4562C76.1014 21.5238 76.5999 22.5576 77.4491 22.5576L77.6706 22.613C78.1506 22.613 78.7967 22.2069 79.609 21.3946C77.9475 21.1546 77.1168 20.7485 77.1168 20.1762L77.1721 20.1208H77.2275C77.2275 20.2869 77.5229 20.4346 78.1137 20.5639C78.769 20.5639 79.7105 20.01 80.9382 18.9024C81.852 18.2747 82.8304 17.9609 83.8734 17.9609H83.9288V18.0163C83.0058 18.5147 82.5443 19.567 82.5443 21.1731V21.2838L82.655 22.3361C81.9258 22.6961 80.4674 23.8407 78.2798 25.7698L77.3937 26.4344L77.3383 26.379H77.2829L77.3383 26.3236V25.9913C77.3383 24.7914 76.1568 23.9237 73.7938 23.3884C71.6154 22.5853 70.5263 21.3854 70.5263 19.7885H70.637C70.9878 20.6377 71.4493 21.0623 72.0216 21.0623H72.2985C72.5569 20.8408 72.6862 20.49 72.6862 20.01V9.0443C72.04 8.68432 70.7293 8.07511 68.754 7.21668V7.10592H79.3321C81.1966 7.10592 83.0242 6.79208 84.8149 6.16442L85.8118 6.05365Z" stroke="#DD11FF" stroke-width="0.405083"/>
<path d="M86.8286 2.95223H86.884C87.6963 4.10603 88.6193 5.10292 89.6531 5.94289C90.9731 6.79208 92.5053 7.21668 94.2499 7.21668H94.9145C96.179 7.21668 97.4898 6.90285 98.8466 6.27518L99.1235 5.8875C100.102 6.81054 100.988 7.41975 101.782 7.71512C103.222 8.68432 103.942 9.79197 103.942 11.0381V11.1488C103.942 11.9796 103.517 12.7734 102.668 13.5303L102.613 13.4749L102.723 13.1426C102.723 12.1088 101.893 11.1858 100.231 10.3735L99.2343 9.54275L99.2897 9.48736L99.6774 9.54275H99.8435C100.13 9.54275 100.314 9.45044 100.397 9.26583C100.397 8.98892 100.065 8.65663 99.4005 8.26895L98.4036 8.1028C97.6651 8.2228 97.2959 8.55509 97.2959 9.09969L97.2405 19.2901C97.4344 19.807 97.6744 20.0654 97.9605 20.0654H98.1267C98.3482 20.0654 98.5882 19.9731 98.8466 19.7885H98.902V19.8439C98.902 20.2223 98.0897 21.1823 96.4652 22.7238C95.1452 24.6899 94.296 26.979 93.9176 29.5912H93.8068L94.0284 8.4351L93.973 8.37971H93.8068C93.253 8.37971 92.57 8.32433 91.7577 8.21357C91.3146 8.45356 91.0931 9.00738 91.0931 9.87504C91.2777 10.7981 91.6469 11.2596 92.2007 11.2596V11.3704C90.41 11.3704 88.8039 9.50583 87.3825 5.77674C87.1609 5.066 86.9763 4.12449 86.8286 2.95223Z" stroke="#DD11FF" stroke-width="0.405083"/>
<path d="M105.056 1.1523H105.166C105.166 2.02919 105.646 3.063 106.606 4.25372C107.354 4.95523 108.314 5.54598 109.486 6.02596C109.763 6.24749 109.948 6.35825 110.04 6.35825V6.46902L109.708 6.41364C109.375 6.49671 109.209 6.58901 109.209 6.69055C109.209 7.01361 109.468 7.19822 109.985 7.24437H110.095C110.945 7.24437 112.126 6.8567 113.64 6.08134L114.747 5.19522C116.446 6.75516 117.554 7.95512 118.07 8.79508C118.772 10.0227 119.123 11.2596 119.123 12.5057V14.0564L119.012 14.1672C118.624 13.8718 118.237 13.7241 117.849 13.7241C117.138 13.7241 115.791 14.4256 113.806 15.8287C113.224 16.1979 112.505 16.3825 111.646 16.3825L110.815 16.2163V16.0502H111.203C112.588 16.0502 113.788 15.2933 114.803 13.7795C115.098 13.1611 115.246 12.5519 115.246 11.9519C115.246 10.5027 114.803 9.45044 113.917 8.79508C113.492 8.57355 113.086 8.46279 112.698 8.46279C111.517 8.69355 110.926 9.11815 110.926 9.73658C110.778 10.4473 110.705 11.3888 110.705 12.5611V17.324L110.649 21.4223C110.806 22.1607 111.101 22.5299 111.535 22.5299C111.858 22.5299 112.172 22.2715 112.477 21.7546H112.532V22.253L112.311 24.9114V25.0221C112.311 27.6251 113.271 29.8773 115.191 31.7788H115.08C112.458 30.3389 110.649 28.5112 109.652 26.2959C108.619 24.3299 107.419 23.0007 106.052 22.3084V22.1976C106.717 22.1976 107.105 21.6069 107.215 20.4254C107.215 17.7578 107.289 14.3426 107.437 10.1796C107.437 9.61659 107.086 8.67509 106.385 7.35514C105.499 5.5829 105.056 3.81066 105.056 2.03842V1.1523Z" stroke="#DD11FF" stroke-width="0.405083"/>
<path d="M120.333 3.58913C121.072 3.72759 122.29 4.79831 123.989 6.80131C124.93 7.68743 125.65 9.27506 126.149 11.5642C126.333 12.6349 126.425 13.4288 126.425 13.9457C126.425 14.5641 126.093 16.244 125.429 18.9855L125.373 19.7608V20.0931C125.438 20.8315 125.678 21.2008 126.093 21.2008H126.259C127.044 21.2008 127.801 20.8315 128.53 20.0931C128.751 19.5485 128.862 19.1608 128.862 18.9301L128.918 9.84735V9.12738C128.918 8.15818 128.622 7.45667 128.032 7.02284V6.91208H128.087C128.53 7.05977 128.955 7.13361 129.361 7.13361C130.155 7.13361 131.687 6.65363 133.957 5.69366C134.751 5.43521 135.342 5.30599 135.73 5.30599H136.173C136.45 5.30599 136.597 5.36137 136.616 5.47213C134.733 6.36748 133.459 7.47513 132.794 8.79508L132.573 9.6812L132.462 16.8809C132.462 18.727 132.647 19.9085 133.016 20.4254C133.357 20.8038 133.893 21.0623 134.622 21.2008V21.3115C133.911 21.3115 132.988 21.9761 131.853 23.3053C130.755 24.3391 129.628 24.856 128.475 24.856L128.308 24.9114V24.856C129.01 24.1637 129.361 23.2222 129.361 22.0315V21.9207C129.361 21.6346 129.268 21.45 129.084 21.3669H129.028C128.336 21.3669 127.745 22.013 127.256 23.3053V23.8591C127.801 25.6221 128.502 26.7482 129.361 27.2374V27.3482C128.087 27.1082 126.555 26.2406 124.764 24.7452C123.776 23.8591 122.872 22.5299 122.05 20.7577C121.773 20.2962 121.386 19.7608 120.887 19.1516V19.0408C121.506 19.0408 122.226 17.9517 123.047 15.7733C123.822 13.1611 124.21 11.0935 124.21 9.57044C124.173 9.09046 124.081 8.85047 123.933 8.85047C123.712 9.15507 123.601 9.63505 123.601 10.2904C123.601 10.6689 123.656 10.9458 123.767 11.1211L123.712 11.1765C123.287 10.9919 122.899 10.4012 122.549 9.40429C122.143 6.98592 121.496 5.2506 120.61 4.19834L120.278 3.64451L120.333 3.58913Z" stroke="#DD11FF" stroke-width="0.405083"/>
<path d="M146.231 1H146.342C146.572 2.1538 148.64 5.10753 152.544 9.8612L152.489 9.91658H152.434C152.434 9.80581 152.083 9.69505 151.381 9.58428C151.049 9.58428 150.883 9.97196 150.883 10.7473V10.9135L150.938 11.0796L150.883 11.3565C150.883 16.7379 151.123 19.507 151.603 19.6639C151.603 19.8577 151.843 20.0054 152.323 20.107V20.3285C152.323 21.7038 151.714 23.0699 150.495 24.4268C150.311 24.8975 150.218 25.3221 150.218 25.7006C150.218 26.0606 150.274 26.3929 150.384 26.6975L150.329 26.7528H150.274C149.904 25.9867 149.72 25.396 149.72 24.9806V24.8698L149.886 22.9315V22.5992C149.886 21.7407 149.295 21.0761 148.114 20.6054H147.948L147.892 20.6608H147.837L147.781 20.6054V20.2177C147.505 17.8363 146.046 14.7902 143.406 11.0796C142.576 10.1289 142.077 9.63043 141.911 9.58428H141.856L141.911 13.1841V18.5009C142.003 20.3469 142.262 21.3069 142.686 21.3808L142.797 21.0485V20.9931C142.797 20.4762 142.705 19.9777 142.52 19.4977L142.576 19.4424H142.631C143.296 20.107 143.628 21.4915 143.628 23.596C143.628 25.5621 144.274 27.6113 145.566 29.7435L146.563 30.8512V30.9065H146.508C143.905 29.4943 142.077 27.3713 141.025 24.5375C140.074 22.4422 139.225 21.0208 138.477 20.2731C138.311 20.0608 137.868 19.6731 137.148 19.1101L137.203 19.0547L137.259 19.1101H137.314C138.053 19.0547 138.422 18.8147 138.422 18.3901C138.514 18.3901 138.588 17.947 138.643 17.0609L138.533 7.6459C138.053 5.88289 137.185 4.55371 135.93 3.65836C135.8 3.54759 135.671 3.49221 135.542 3.49221V3.32606H135.708C136.28 3.32606 137.203 3.82451 138.477 4.82139C139.853 5.55982 141.034 5.92904 142.022 5.92904L142.963 5.70751C142.299 6.39979 141.966 6.89823 141.966 7.20284C141.966 7.34129 142.797 8.26433 144.459 9.97196L147.781 14.4579V10.0827C147.781 7.74743 147.597 6.34441 147.228 5.87366H147.172C146.988 6.27057 146.895 6.73209 146.895 7.25822V7.59051C146.895 7.96896 146.988 8.28279 147.172 8.53202V8.5874H147.117C146.305 8.09819 145.898 7.17515 145.898 5.81827V5.65213L146.286 1.60921L146.231 1Z" stroke="#DD11FF" stroke-width="0.405083"/>
<path d="M171.602 2.79993H171.713L171.879 3.8522C171.879 4.98754 171.288 6.13211 170.107 7.28591C169.184 8.49509 168.722 9.39968 168.722 9.99965V10.055C168.722 10.6089 169.128 10.9781 169.941 11.1627V11.2734C168.233 12.7688 166.11 14.0426 163.572 15.0948L170.051 21.8515C171.233 23.0699 172.322 23.6791 173.319 23.6791H173.817C174.547 23.6791 175.193 23.4576 175.756 23.0145H175.811V23.0699C174.925 24.3622 173.411 25.0083 171.27 25.0083H170.771C169.59 25.0083 167.984 24.5283 165.953 23.5684C165.224 23.3468 164.615 23.2361 164.125 23.2361H163.904C163.433 23.2361 163.009 23.3468 162.63 23.5684L162.575 23.4022C162.778 22.8115 163.516 22.4792 164.79 22.4053C165.861 22.313 166.396 22.1653 166.396 21.9623C166.396 21.7223 165.824 21.4269 164.679 21.0761C164.384 21.0761 164.236 21.0208 164.236 20.91C164.236 20.4577 163.332 18.7409 161.522 15.7594H161.079L161.135 19.1931V20.3008C161.135 20.4116 161.264 20.4669 161.522 20.4669V20.5223C161.753 20.4485 162.104 20.4116 162.575 20.4116L162.63 20.4669V20.5223C161.929 20.9285 161.042 21.87 159.972 23.3468C158.698 25.0083 156.852 25.839 154.433 25.839H153.658L153.27 25.7837V25.6729H153.326C154.673 25.6729 155.855 25.0452 156.87 23.7899C157.498 22.9038 157.812 21.6484 157.812 20.0239V16.8117L157.867 13.9872L157.812 11.3288V9.27968C157.812 8.05203 157.129 7.29514 155.763 7.009L155.541 6.95362V6.78747H155.596C158.661 6.47363 160.193 6.21518 160.193 6.01211C160.461 6.01211 160.756 5.71674 161.079 5.12599H161.135L161.079 5.40291L161.135 9.77812V13.9318L161.079 14.7625C164.144 13.9872 165.676 12.8611 165.676 11.3842C165.565 10.4243 165.288 9.94427 164.845 9.94427H164.679C164.282 9.94427 163.987 10.1843 163.793 10.6642H163.682V10.5535C163.682 9.11353 165.473 7.50744 169.054 5.7352C170.753 4.66447 171.602 3.68605 171.602 2.79993Z" stroke="#DD11FF" stroke-width="0.405083"/>
<path d="M180.829 1.17999H180.94C183.137 2.46302 184.669 4.36449 185.537 6.88439C185.832 7.64128 185.98 8.32433 185.98 8.93354V9.0443C185.841 10.0781 185.731 10.595 185.648 10.595C185.075 10.7427 184.466 10.8165 183.82 10.8165C182.592 10.8165 181.651 10.4473 180.995 9.70889L181.051 9.65351C181.392 9.8012 181.706 9.87504 181.992 9.87504H182.269C182.602 9.87504 182.768 9.65351 182.768 9.21045C182.768 8.47202 181.863 7.77051 180.054 7.10592L179.556 7.05054C179.362 7.05054 179.214 7.14284 179.112 7.32745V7.65974C179.131 8.49971 180.866 10.955 184.318 15.0256C186.257 17.2409 187.512 18.3486 188.084 18.3486L188.306 18.4039H188.694V18.5147C187.586 19.1701 186.183 20.6469 184.485 22.9453C182.694 24.8652 181.678 25.8252 181.439 25.8252L181.383 25.7698L181.494 25.4375C181.494 24.856 180.294 24.1176 177.894 23.2222C176.851 22.6684 175.78 21.69 174.682 20.2869C174.091 19.4377 173.796 18.7178 173.796 18.127V17.8501C173.796 17.2132 174.165 16.5671 174.903 15.9117H174.959V15.9671C174.7 16.3086 174.571 16.5671 174.571 16.7425V17.0194C174.571 17.6747 175.882 18.3209 178.503 18.9578C179.011 19.2439 179.491 19.6131 179.943 20.0654L179.888 20.1208C179.076 19.8993 178.282 19.7885 177.506 19.7885C176.583 19.7885 176.122 20.01 176.122 20.4531C176.408 21.0346 177.294 21.5515 178.78 22.0038C178.937 22.0776 179.232 22.1146 179.666 22.1146H179.888C181.309 22.1146 182.343 21.2469 182.989 19.5116V19.0131C182.989 18.164 182.288 17.0563 180.885 15.6902C177.959 12.4319 176.353 10.2166 176.066 9.0443C175.882 8.65663 175.79 8.34279 175.79 8.1028C176.86 7.92742 177.396 7.72436 177.396 7.4936V7.32745C177.349 6.99515 176.962 6.62594 176.233 6.2198L175.956 6.16442V6.05365H176.011C178.716 6.05365 180.728 6.3121 182.048 6.82901H182.269C182.638 6.82901 182.823 6.40441 182.823 5.55521C182.823 4.01373 182.158 2.55532 180.829 1.17999Z" stroke="#DD11FF" stroke-width="0.405083"/>
</svg>
