<svg width="408" height="67" viewBox="0 0 408 67" fill="none" xmlns="http://www.w3.org/2000/svg">
<path d="M16.5186 1.38012H16.7565C21.4736 4.08967 24.7636 8.10526 26.6267 13.4269C27.2609 15.0253 27.578 16.4678 27.578 17.7544V17.9883C27.2808 20.1715 27.0429 21.2632 26.8645 21.2632C25.6357 21.575 24.3276 21.731 22.9402 21.731C20.3042 21.731 18.2826 20.9513 16.8754 19.3918L16.9943 19.2749C17.7276 19.5867 18.4015 19.7427 19.0159 19.7427H19.6105C20.324 19.7427 20.6808 19.2749 20.6808 18.3392C20.6808 16.7797 18.7385 15.2982 14.8538 13.8947L13.7835 13.7778C13.3673 13.7778 13.0502 13.9727 12.8322 14.3626V15.0643C12.8718 16.8382 16.5979 22.0234 24.0105 30.6199C28.1726 35.2982 30.8681 37.6374 32.0969 37.6374L32.5726 37.7544H33.405V37.9883C31.0267 39.3723 28.0141 42.4912 24.3673 47.345C20.5222 51.3996 18.3421 53.4269 17.8267 53.4269L17.7078 53.3099L17.9457 52.6082C17.9457 51.3801 15.3691 49.8207 10.216 47.9298C7.97634 46.7602 5.67726 44.694 3.31871 41.731C2.05025 39.9376 1.41602 38.4172 1.41602 37.1696V36.5848C1.41602 35.2398 2.2088 33.8752 3.79438 32.4912H3.9133V32.6082C3.35835 33.3294 3.08087 33.8752 3.08087 34.2456V34.8304C3.08087 36.2144 5.89527 37.5789 11.5241 38.924C12.6142 39.5283 13.6448 40.308 14.616 41.2632L14.497 41.3801C12.7529 40.9123 11.0484 40.6784 9.38354 40.6784C7.40157 40.6784 6.41059 41.1462 6.41059 42.0819C7.025 43.3099 8.92769 44.4016 12.1187 45.3567C12.4556 45.5127 13.0898 45.5906 14.0214 45.5906H14.497C17.5493 45.5906 19.7691 43.7583 21.1565 40.0936V39.0409C21.1565 37.2476 19.6502 34.9084 16.6376 32.0234C10.3547 25.1423 6.90608 20.4639 6.29167 17.9883C5.89527 17.1696 5.69708 16.5068 5.69708 16C7.99616 15.6296 9.14571 15.2008 9.14571 14.7135V14.3626C9.04661 13.6608 8.21418 12.8811 6.64842 12.0234L6.05383 11.9064V11.6725H6.17275C11.9799 11.6725 16.3006 12.2183 19.1348 13.3099H19.6105C20.4033 13.3099 20.7997 12.4133 20.7997 10.6199C20.7997 7.36452 19.3727 4.2846 16.5186 1.38012Z" fill="white"/>
<path d="M34.6965 5.12281H34.8154C36.5596 7.55945 38.5415 9.66472 40.7613 11.4386C43.5956 13.232 46.8856 14.1287 50.6316 14.1287H52.0586C54.7739 14.1287 57.5883 13.4659 60.5018 12.1404L61.0964 11.3216C63.1973 13.271 65.1 14.5575 66.8045 15.1813C69.8963 17.2281 71.4423 19.5673 71.4423 22.1988V22.4327C71.4423 24.1871 70.5306 25.8635 68.7071 27.462L68.5882 27.345L68.8261 26.6433C68.8261 24.46 67.0423 22.5107 63.4747 20.7953L61.3342 19.0409L61.4531 18.924L62.2856 19.0409H62.6423C63.2567 19.0409 63.6531 18.846 63.8315 18.4561C63.8315 17.8713 63.118 17.1696 61.691 16.3509L59.5504 16C57.9649 16.2534 57.1721 16.9552 57.1721 18.1053L57.0531 39.6257C57.4694 40.7173 57.9847 41.2632 58.5991 41.2632H58.9558C59.4315 41.2632 59.9468 41.0682 60.5018 40.6784H60.6207V40.7953C60.6207 41.5945 58.8766 43.6218 55.3883 46.8772C52.5541 51.0292 50.7307 55.8635 49.918 61.3801H49.6802L50.1559 16.7018L50.037 16.5848H49.6802C48.491 16.5848 47.0244 16.4678 45.2802 16.2339C44.3289 16.7407 43.8532 17.9103 43.8532 19.7427C44.2496 21.692 45.0424 22.6667 46.2316 22.6667V22.9006C42.3866 22.9006 38.9379 18.963 35.8857 11.0877C35.41 9.58674 35.0136 7.59844 34.6965 5.12281Z" fill="white"/>
<path d="M86.3499 2.81287C87.1228 4.89864 87.5093 6.61404 87.5093 7.95906L86.558 12.4035V12.7544C86.558 13.6121 87.5688 14.0409 89.5904 14.0409H90.3931C91.9985 14.0409 93.2769 13.1442 94.2282 11.3509C98.4696 15.1131 101.413 18.4269 103.058 21.2924C104.148 23.0663 104.693 24.5867 104.693 25.8538V26.2047C104.693 27.2183 104.574 27.7251 104.336 27.7251C103.96 26.7895 103.335 26.3216 102.463 26.3216C101.512 26.3216 99.6588 27.4133 96.9039 29.5965C95.2787 30.2982 94.1192 30.6491 93.4255 30.6491C102.344 41.6043 107.527 47.7641 108.974 49.1287C112.581 52.4035 116.486 54.0409 120.688 54.0409L123.601 53.807V53.924C120.529 56.4191 117.051 57.6667 113.166 57.6667H112.571C108.013 57.6667 102.87 55.6394 97.1417 51.5848C94.7435 50.3372 93.3859 49.7134 93.0688 49.7134V49.4795L96.2201 49.5965H96.3093C98.2516 49.5965 99.2228 48.8947 99.2228 47.4912C99.2228 46.692 98.0237 46.1072 95.6255 45.7368L85.9931 29.9474H85.8742V30.0643L85.9931 39.8889V42.2281C85.9931 48.8168 87.1526 53.1442 89.4715 55.2105V55.3275C85.1706 53.6706 81.3751 50.5517 78.085 45.9708L75.3202 42.9298V42.8129H75.4391L76.004 42.9298C77.6094 42.9298 78.5805 41.7992 78.9175 39.538V35.3275L79.0364 18.9532C75.7067 20.9805 74.0418 22.7739 74.0418 24.3333H73.9229L73.6851 24.0994V23.2807C73.6851 20.3567 75.4292 17.4717 78.9175 14.6257C83.7138 10.4737 86.112 7.31579 86.112 5.15205L86.2309 3.2807L86.112 2.92982L86.2309 2.81287H86.3499ZM85.7553 16.0292V26.4386C87.0436 27.2963 88.5895 27.7251 90.3931 27.7251C92.8706 27.7251 94.5354 26.5166 95.3877 24.0994V23.7485C95.3877 22.4035 94.4958 20.6491 92.712 18.4854C90.4327 16.614 88.4607 15.6784 86.7958 15.6784H86.4688C85.9931 15.7173 85.7553 15.8343 85.7553 16.0292Z" fill="white"/>
<path d="M149.598 11.6725C150.827 11.6725 151.738 11.9454 152.333 12.4912V12.6082H151.738C150.609 12.6082 147.596 14.7135 142.701 18.924C138.38 21.4971 135.645 22.7836 134.495 22.7836V22.5497C136.319 21.1462 137.23 19.5478 137.23 17.7544C137.23 17.1306 136.279 16.8187 134.376 16.8187H133.782C130.452 16.8187 128.787 17.1696 128.787 17.8713V26.0585H128.906C130.63 25.2008 132.493 24.7719 134.495 24.7719H135.922C139.708 24.7719 141.967 26.0585 142.701 28.6316C142.859 28.6316 142.938 28.9435 142.938 29.5673H142.701C141.888 27.7739 140.342 26.8772 138.063 26.8772C133.643 26.8772 130.63 28.7485 129.025 32.4912C128.629 33.115 128.43 34.5965 128.43 36.9357V39.9766C128.747 44.3431 129.818 46.5263 131.641 46.5263L132.117 46.6433C133.147 46.6433 134.535 45.7856 136.279 44.0702C132.711 43.5634 130.928 42.7057 130.928 41.4971L131.047 41.3801H131.165C131.165 41.731 131.8 42.0429 133.068 42.3158C134.475 42.3158 136.497 41.1462 139.133 38.807C141.095 37.4815 143.196 36.8187 145.436 36.8187H145.555V36.9357C143.573 37.9883 142.582 40.2105 142.582 43.6023V43.8363L142.819 46.0585C141.254 46.8187 138.122 49.2359 133.425 53.3099L131.522 54.7134L131.403 54.5965H131.284L131.403 54.4795V53.7778C131.403 51.2437 128.866 49.4113 123.792 48.2807C119.115 46.5848 116.776 44.0507 116.776 40.6784H117.014C117.767 42.4717 118.758 43.3684 119.987 43.3684H120.582C121.137 42.9006 121.414 42.1598 121.414 41.1462V17.9883C120.027 17.2281 117.212 15.9415 112.971 14.1287V13.8947H135.684C139.688 13.8947 143.612 13.232 147.457 11.9064L149.598 11.6725Z" fill="white"/>
<path d="M185.673 11.6725C186.902 11.6725 187.813 11.9454 188.408 12.4912V12.6082H187.813C186.684 12.6082 183.671 14.7135 178.776 18.924C174.455 21.4971 171.72 22.7836 170.57 22.7836V22.5497C172.394 21.1462 173.305 19.5478 173.305 17.7544C173.305 17.1306 172.354 16.8187 170.451 16.8187H169.857C166.527 16.8187 164.862 17.1696 164.862 17.8713V26.0585H164.981C166.705 25.2008 168.568 24.7719 170.57 24.7719H171.997C175.783 24.7719 178.042 26.0585 178.776 28.6316C178.934 28.6316 179.013 28.9435 179.013 29.5673H178.776C177.963 27.7739 176.417 26.8772 174.138 26.8772C169.718 26.8772 166.705 28.7485 165.1 32.4912C164.704 33.115 164.505 34.5965 164.505 36.9357V39.9766C164.822 44.3431 165.893 46.5263 167.716 46.5263L168.192 46.6433C169.222 46.6433 170.61 45.7856 172.354 44.0702C168.786 43.5634 167.003 42.7057 167.003 41.4971L167.122 41.3801H167.24C167.24 41.731 167.875 42.0429 169.143 42.3158C170.55 42.3158 172.572 41.1462 175.208 38.807C177.17 37.4815 179.271 36.8187 181.511 36.8187H181.63V36.9357C179.648 37.9883 178.657 40.2105 178.657 43.6023V43.8363L178.895 46.0585C177.329 46.8187 174.197 49.2359 169.5 53.3099L167.597 54.7134L167.478 54.5965H167.359L167.478 54.4795V53.7778C167.478 51.2437 164.941 49.4113 159.868 48.2807C155.19 46.5848 152.851 44.0507 152.851 40.6784H153.089C153.842 42.4717 154.833 43.3684 156.062 43.3684H156.657C157.212 42.9006 157.489 42.1598 157.489 41.1462V17.9883C156.102 17.2281 153.287 15.9415 149.046 14.1287V13.8947H171.759C175.763 13.8947 179.687 13.232 183.532 11.9064L185.673 11.6725Z" fill="white"/>
<path d="M187.856 5.12281H187.975C189.719 7.55945 191.701 9.66472 193.921 11.4386C196.755 13.232 200.045 14.1287 203.791 14.1287H205.218C207.934 14.1287 210.748 13.4659 213.661 12.1404L214.256 11.3216C216.357 13.271 218.26 14.5575 219.964 15.1813C223.056 17.2281 224.602 19.5673 224.602 22.1988V22.4327C224.602 24.1871 223.69 25.8635 221.867 27.462L221.748 27.345L221.986 26.6433C221.986 24.46 220.202 22.5107 216.634 20.7953L214.494 19.0409L214.613 18.924L215.445 19.0409H215.802C216.416 19.0409 216.813 18.846 216.991 18.4561C216.991 17.8713 216.278 17.1696 214.851 16.3509L212.71 16C211.125 16.2534 210.332 16.9552 210.332 18.1053L210.213 39.6257C210.629 40.7173 211.144 41.2632 211.759 41.2632H212.116C212.591 41.2632 213.106 41.0682 213.661 40.6784H213.78V40.7953C213.78 41.5945 212.036 43.6218 208.548 46.8772C205.714 51.0292 203.89 55.8635 203.078 61.3801H202.84L203.316 16.7018L203.197 16.5848H202.84C201.651 16.5848 200.184 16.4678 198.44 16.2339C197.489 16.7407 197.013 17.9103 197.013 19.7427C197.409 21.692 198.202 22.6667 199.391 22.6667V22.9006C195.546 22.9006 192.098 18.963 189.045 11.0877C188.57 9.58674 188.173 7.59844 187.856 5.12281Z" fill="white"/>
<path d="M226.993 1.32164H227.231C227.231 3.17349 228.262 5.35673 230.323 7.87135C231.928 9.35283 233.99 10.6004 236.507 11.614C237.101 12.0819 237.498 12.3158 237.696 12.3158V12.5497L236.983 12.4327C236.269 12.6082 235.912 12.8031 235.912 13.0175C235.912 13.6998 236.467 14.0897 237.577 14.1871H237.815C239.638 14.1871 242.175 13.3684 245.426 11.731L247.804 9.85965C251.451 13.154 253.829 15.6881 254.939 17.462C256.445 20.0546 257.199 22.6667 257.199 25.2982V28.5731L256.961 28.807C256.128 28.1832 255.296 27.8713 254.464 27.8713C252.937 27.8713 250.044 29.3528 245.782 32.3158C244.534 33.0955 242.988 33.4854 241.145 33.4854L239.361 33.1345V32.7836H240.193C243.166 32.7836 245.743 31.1852 247.923 27.9883C248.557 26.6823 248.874 25.3957 248.874 24.1287C248.874 21.0682 247.923 18.846 246.02 17.462C245.109 16.9942 244.237 16.7602 243.404 16.7602C240.867 17.2476 239.599 18.1442 239.599 19.4503C239.282 20.9513 239.123 22.9396 239.123 25.4152V35.4737L239.004 44.1287C239.341 45.6881 239.975 46.4678 240.907 46.4678C241.601 46.4678 242.274 45.922 242.928 44.8304H243.047V45.883L242.572 51.4971V51.731C242.572 57.2281 244.633 61.9844 248.755 66H248.518C242.889 62.9591 239.004 59.0994 236.864 54.4211C234.644 50.269 232.067 47.462 229.134 46V45.7661C230.561 45.7661 231.393 44.5185 231.631 42.0234C231.631 36.3899 231.79 29.1774 232.107 20.386C232.107 19.1969 231.354 17.2086 229.847 14.4211C227.945 10.6784 226.993 6.93567 226.993 3.19298V1.32164Z" fill="white"/>
<path d="M259.798 6.46784C261.384 6.76023 264 9.02144 267.647 13.2515C269.668 15.1228 271.214 18.4756 272.285 23.3099C272.681 25.5711 272.879 27.2476 272.879 28.3392C272.879 29.6452 272.166 33.193 270.739 38.9825L270.62 40.6199V41.3216C270.759 42.8811 271.274 43.6608 272.166 43.6608H272.522C274.207 43.6608 275.832 42.8811 277.398 41.3216C277.874 40.1715 278.112 39.3528 278.112 38.8655L278.231 19.6842V18.1637C278.231 16.117 277.596 14.6355 276.328 13.7193V13.4854H276.447C277.398 13.7973 278.31 13.9532 279.182 13.9532C280.886 13.9532 284.176 12.9396 289.052 10.9123C290.757 10.3665 292.025 10.0936 292.857 10.0936H293.809C294.403 10.0936 294.721 10.2105 294.76 10.4444C290.717 12.3353 287.982 14.6745 286.555 17.462L286.079 19.3333L285.841 34.538C285.841 38.4366 286.238 40.9318 287.03 42.0234C287.764 42.8226 288.913 43.3684 290.479 43.6608V43.8947C288.953 43.8947 286.971 45.2982 284.533 48.1053C282.175 50.2885 279.757 51.3801 277.279 51.3801L276.922 51.4971V51.3801C278.429 49.9181 279.182 47.9298 279.182 45.4152V45.1813C279.182 44.577 278.984 44.1871 278.587 44.0117H278.468C276.982 44.0117 275.713 45.3762 274.663 48.1053V49.2749C275.832 52.9981 277.339 55.3762 279.182 56.4094V56.6433C276.447 56.1365 273.157 54.3041 269.312 51.1462C267.191 49.2749 265.249 46.4678 263.485 42.7251C262.89 41.7505 262.058 40.6199 260.987 39.3333V39.0994C262.315 39.0994 263.861 36.7992 265.625 32.1988C267.29 26.6823 268.122 22.3158 268.122 19.0994C268.043 18.0858 267.845 17.5789 267.528 17.5789C267.052 18.2222 266.814 19.2359 266.814 20.6199C266.814 21.4191 266.933 22.0039 267.171 22.3743L267.052 22.4912C266.141 22.1014 265.308 20.8538 264.555 18.7485C263.683 13.6413 262.295 9.97661 260.393 7.75439L259.679 6.58479L259.798 6.46784Z" fill="white"/>
<path d="M315.406 1H315.643C316.139 3.43665 320.579 9.67446 328.962 19.7134L328.843 19.8304H328.724C328.724 19.5965 327.971 19.3626 326.465 19.1287C325.751 19.1287 325.395 19.9474 325.395 21.5848V21.9357L325.514 22.2865L325.395 22.8713C325.395 34.2359 325.91 40.0838 326.941 40.4152C326.941 40.8246 327.456 41.1365 328.487 41.3509V41.8187C328.487 44.7232 327.179 47.6082 324.562 50.4737C324.166 51.4678 323.968 52.3645 323.968 53.1637C323.968 53.924 324.087 54.6257 324.324 55.269L324.206 55.386H324.087C323.294 53.768 322.897 52.5205 322.897 51.6433V51.4094L323.254 47.3158V46.614C323.254 44.8012 321.986 43.3977 319.449 42.4035H319.092L318.973 42.5205H318.854L318.735 42.4035V41.5848C318.141 36.5556 315.009 30.1228 309.341 22.2865C307.557 20.2788 306.487 19.2261 306.13 19.1287H306.011L306.13 26.731V37.9591C306.328 41.8577 306.883 43.885 307.795 44.0409L308.033 43.3392V43.2222C308.033 42.1306 307.834 41.078 307.438 40.0643L307.557 39.9474H307.676C309.103 41.3509 309.816 44.2749 309.816 48.7193C309.816 52.8713 311.204 57.1988 313.979 61.7018L316.119 64.0409V64.1579H316C310.411 61.1754 306.487 56.692 304.227 50.7076C302.186 46.2826 300.362 43.2807 298.757 41.7018C298.4 41.2534 297.449 40.4347 295.903 39.2456L296.022 39.1287L296.141 39.2456H296.26C297.845 39.1287 298.638 38.6218 298.638 37.7251C298.836 37.7251 298.995 36.7895 299.114 34.9181L298.876 15.0351C297.845 11.3119 295.982 8.50487 293.287 6.61404C293.009 6.38012 292.732 6.26316 292.454 6.26316V5.91228H292.811C294.04 5.91228 296.022 6.96491 298.757 9.07018C301.71 10.6296 304.247 11.4094 306.368 11.4094L308.389 10.9415C306.962 12.4035 306.249 13.4561 306.249 14.0994C306.249 14.3918 308.033 16.3411 311.6 19.9474L318.735 29.4211V20.1813C318.735 15.2495 318.339 12.2865 317.546 11.2924H317.427C317.031 12.1306 316.833 13.1053 316.833 14.2164V14.9181C316.833 15.7173 317.031 16.3801 317.427 16.9064V17.0234H317.308C315.564 15.9903 314.692 14.0409 314.692 11.1754V10.8246L315.525 2.28655L315.406 1Z" fill="white"/>
<path d="M369.883 4.80117H370.121L370.478 7.02339C370.478 9.42105 369.209 11.8382 366.672 14.2749C364.691 16.8285 363.7 18.7388 363.7 20.0058V20.1228C363.7 21.2924 364.572 22.0721 366.316 22.462V22.6959C362.649 25.8538 358.091 28.5439 352.64 30.7661L366.554 45.0351C369.09 47.6082 371.429 48.8947 373.57 48.8947H374.64C376.206 48.8947 377.593 48.4269 378.802 47.4912H378.921V47.6082C377.018 50.3372 373.768 51.7018 369.17 51.7018H368.099C365.563 51.7018 362.114 50.6881 357.754 48.6608C356.188 48.193 354.88 47.9591 353.829 47.9591H353.354C352.343 47.9591 351.431 48.193 350.618 48.6608L350.5 48.3099C350.936 47.0624 352.521 46.3606 355.256 46.2047C357.555 46.0097 358.705 45.6979 358.705 45.269C358.705 44.7622 357.476 44.1384 355.018 43.3977C354.384 43.3977 354.067 43.2807 354.067 43.0468C354.067 42.0916 352.125 38.4659 348.24 32.1696H347.289L347.408 39.4211V41.7602C347.408 41.9942 347.685 42.1111 348.24 42.1111V42.2281C348.736 42.0721 349.489 41.9942 350.5 41.9942L350.618 42.1111V42.2281C349.112 43.0858 347.21 45.0741 344.91 48.193C342.175 51.7018 338.211 53.4561 333.019 53.4561H331.354L330.521 53.3392V53.1053H330.64C333.534 53.1053 336.071 51.7797 338.251 49.1287C339.599 47.2573 340.273 44.6062 340.273 41.1754V34.3918L340.392 28.4269L340.273 22.8129V18.4854C340.273 15.8928 338.806 14.2943 335.873 13.6901L335.397 13.5731V13.2222H335.516C342.096 12.5595 345.386 12.0136 345.386 11.5848C345.961 11.5848 346.595 10.961 347.289 9.71345H347.408L347.289 10.2982L347.408 19.538V28.3099L347.289 30.0643C353.869 28.4269 357.159 26.0487 357.159 22.9298C356.921 20.9025 356.327 19.8889 355.375 19.8889H355.018C354.166 19.8889 353.532 20.3957 353.116 21.4094H352.878V21.1754C352.878 18.1345 356.723 14.7427 364.413 11C368.06 8.73879 369.883 6.67251 369.883 4.80117Z" fill="white"/>
<path d="M389.696 1.38012H389.934C394.651 4.08967 397.941 8.10526 399.804 13.4269C400.439 15.0253 400.756 16.4678 400.756 17.7544V17.9883C400.458 20.1715 400.221 21.2632 400.042 21.2632C398.813 21.575 397.505 21.731 396.118 21.731C393.482 21.731 391.46 20.9513 390.053 19.3918L390.172 19.2749C390.905 19.5867 391.579 19.7427 392.194 19.7427H392.788C393.502 19.7427 393.858 19.2749 393.858 18.3392C393.858 16.7797 391.916 15.2982 388.031 13.8947L386.961 13.7778C386.545 13.7778 386.228 13.9727 386.01 14.3626V15.0643C386.049 16.8382 389.776 22.0234 397.188 30.6199C401.35 35.2982 404.046 37.6374 405.275 37.6374L405.75 37.7544H406.583V37.9883C404.204 39.3723 401.192 42.4912 397.545 47.345C393.7 51.3996 391.52 53.4269 391.004 53.4269L390.885 53.3099L391.123 52.6082C391.123 51.3801 388.547 49.8207 383.394 47.9298C381.154 46.7602 378.855 44.694 376.496 41.731C375.228 39.9376 374.594 38.4172 374.594 37.1696V36.5848C374.594 35.2398 375.386 33.8752 376.972 32.4912H377.091V32.6082C376.536 33.3294 376.258 33.8752 376.258 34.2456V34.8304C376.258 36.2144 379.073 37.5789 384.702 38.924C385.792 39.5283 386.822 40.308 387.794 41.2632L387.675 41.3801C385.931 40.9123 384.226 40.6784 382.561 40.6784C380.579 40.6784 379.588 41.1462 379.588 42.0819C380.203 43.3099 382.105 44.4016 385.296 45.3567C385.633 45.5127 386.267 45.5906 387.199 45.5906H387.675C390.727 45.5906 392.947 43.7583 394.334 40.0936V39.0409C394.334 37.2476 392.828 34.9084 389.815 32.0234C383.532 25.1423 380.084 20.4639 379.469 17.9883C379.073 17.1696 378.875 16.5068 378.875 16C381.174 15.6296 382.323 15.2008 382.323 14.7135V14.3626C382.224 13.6608 381.392 12.8811 379.826 12.0234L379.231 11.9064V11.6725H379.35C385.158 11.6725 389.478 12.2183 392.312 13.3099H392.788C393.581 13.3099 393.977 12.4133 393.977 10.6199C393.977 7.36452 392.55 4.2846 389.696 1.38012Z" fill="white"/>
<path d="M16.5186 1.38012H16.7565C21.4736 4.08967 24.7636 8.10526 26.6267 13.4269C27.2609 15.0253 27.578 16.4678 27.578 17.7544V17.9883C27.2808 20.1715 27.0429 21.2632 26.8645 21.2632C25.6357 21.575 24.3276 21.731 22.9402 21.731C20.3042 21.731 18.2826 20.9513 16.8754 19.3918L16.9943 19.2749C17.7276 19.5867 18.4015 19.7427 19.0159 19.7427H19.6105C20.324 19.7427 20.6808 19.2749 20.6808 18.3392C20.6808 16.7797 18.7385 15.2982 14.8538 13.8947L13.7835 13.7778C13.3673 13.7778 13.0502 13.9727 12.8322 14.3626V15.0643C12.8718 16.8382 16.5979 22.0234 24.0105 30.6199C28.1726 35.2982 30.8681 37.6374 32.0969 37.6374L32.5726 37.7544H33.405V37.9883C31.0267 39.3723 28.0141 42.4912 24.3673 47.345C20.5222 51.3996 18.3421 53.4269 17.8267 53.4269L17.7078 53.3099L17.9457 52.6082C17.9457 51.3801 15.3691 49.8207 10.216 47.9298C7.97634 46.7602 5.67726 44.694 3.31871 41.731C2.05025 39.9376 1.41602 38.4172 1.41602 37.1696V36.5848C1.41602 35.2398 2.2088 33.8752 3.79438 32.4912H3.9133V32.6082C3.35835 33.3294 3.08087 33.8752 3.08087 34.2456V34.8304C3.08087 36.2144 5.89527 37.5789 11.5241 38.924C12.6142 39.5283 13.6448 40.308 14.616 41.2632L14.497 41.3801C12.7529 40.9123 11.0484 40.6784 9.38354 40.6784C7.40157 40.6784 6.41059 41.1462 6.41059 42.0819C7.025 43.3099 8.92769 44.4016 12.1187 45.3567C12.4556 45.5127 13.0898 45.5906 14.0214 45.5906H14.497C17.5493 45.5906 19.7691 43.7583 21.1565 40.0936V39.0409C21.1565 37.2476 19.6502 34.9084 16.6376 32.0234C10.3547 25.1423 6.90608 20.4639 6.29167 17.9883C5.89527 17.1696 5.69708 16.5068 5.69708 16C7.99616 15.6296 9.14571 15.2008 9.14571 14.7135V14.3626C9.04661 13.6608 8.21418 12.8811 6.64842 12.0234L6.05383 11.9064V11.6725H6.17275C11.9799 11.6725 16.3006 12.2183 19.1348 13.3099H19.6105C20.4033 13.3099 20.7997 12.4133 20.7997 10.6199C20.7997 7.36452 19.3727 4.2846 16.5186 1.38012Z" stroke="white" stroke-width="0.87768"/>
<path d="M34.6965 5.12281H34.8154C36.5596 7.55945 38.5415 9.66472 40.7613 11.4386C43.5956 13.232 46.8856 14.1287 50.6316 14.1287H52.0586C54.7739 14.1287 57.5883 13.4659 60.5018 12.1404L61.0964 11.3216C63.1973 13.271 65.1 14.5575 66.8045 15.1813C69.8963 17.2281 71.4423 19.5673 71.4423 22.1988V22.4327C71.4423 24.1871 70.5306 25.8635 68.7071 27.462L68.5882 27.345L68.8261 26.6433C68.8261 24.46 67.0423 22.5107 63.4747 20.7953L61.3342 19.0409L61.4531 18.924L62.2856 19.0409H62.6423C63.2567 19.0409 63.6531 18.846 63.8315 18.4561C63.8315 17.8713 63.118 17.1696 61.691 16.3509L59.5504 16C57.9649 16.2534 57.1721 16.9552 57.1721 18.1053L57.0531 39.6257C57.4694 40.7173 57.9847 41.2632 58.5991 41.2632H58.9558C59.4315 41.2632 59.9468 41.0682 60.5018 40.6784H60.6207V40.7953C60.6207 41.5945 58.8766 43.6218 55.3883 46.8772C52.5541 51.0292 50.7307 55.8635 49.918 61.3801H49.6802L50.1559 16.7018L50.037 16.5848H49.6802C48.491 16.5848 47.0244 16.4678 45.2802 16.2339C44.3289 16.7407 43.8532 17.9103 43.8532 19.7427C44.2496 21.692 45.0424 22.6667 46.2316 22.6667V22.9006C42.3866 22.9006 38.9379 18.963 35.8857 11.0877C35.41 9.58674 35.0136 7.59844 34.6965 5.12281Z" stroke="white" stroke-width="0.87768"/>
<path d="M86.3499 2.81287C87.1228 4.89864 87.5093 6.61404 87.5093 7.95906L86.558 12.4035V12.7544C86.558 13.6121 87.5688 14.0409 89.5904 14.0409H90.3931C91.9985 14.0409 93.2769 13.1442 94.2282 11.3509C98.4696 15.1131 101.413 18.4269 103.058 21.2924C104.148 23.0663 104.693 24.5867 104.693 25.8538V26.2047C104.693 27.2183 104.574 27.7251 104.336 27.7251C103.96 26.7895 103.335 26.3216 102.463 26.3216C101.512 26.3216 99.6588 27.4133 96.9039 29.5965C95.2787 30.2982 94.1192 30.6491 93.4255 30.6491C102.344 41.6043 107.527 47.7641 108.974 49.1287C112.581 52.4035 116.486 54.0409 120.688 54.0409L123.601 53.807V53.924C120.529 56.4191 117.051 57.6667 113.166 57.6667H112.571C108.013 57.6667 102.87 55.6394 97.1417 51.5848C94.7435 50.3372 93.3859 49.7134 93.0688 49.7134V49.4795L96.2201 49.5965H96.3093C98.2516 49.5965 99.2228 48.8947 99.2228 47.4912C99.2228 46.692 98.0237 46.1072 95.6255 45.7368L85.9931 29.9474H85.8742V30.0643L85.9931 39.8889V42.2281C85.9931 48.8168 87.1526 53.1442 89.4715 55.2105V55.3275C85.1706 53.6706 81.3751 50.5517 78.085 45.9708L75.3202 42.9298V42.8129H75.4391L76.004 42.9298C77.6094 42.9298 78.5805 41.7992 78.9175 39.538V35.3275L79.0364 18.9532C75.7067 20.9805 74.0418 22.7739 74.0418 24.3333H73.9229L73.6851 24.0994V23.2807C73.6851 20.3567 75.4292 17.4717 78.9175 14.6257C83.7138 10.4737 86.112 7.31579 86.112 5.15205L86.2309 3.2807L86.112 2.92982L86.2309 2.81287H86.3499ZM85.7553 16.0292V26.4386C87.0436 27.2963 88.5895 27.7251 90.3931 27.7251C92.8706 27.7251 94.5354 26.5166 95.3877 24.0994V23.7485C95.3877 22.4035 94.4958 20.6491 92.712 18.4854C90.4327 16.614 88.4607 15.6784 86.7958 15.6784H86.4688C85.9931 15.7173 85.7553 15.8343 85.7553 16.0292Z" stroke="white" stroke-width="0.87768"/>
<path d="M149.598 11.6725C150.827 11.6725 151.738 11.9454 152.333 12.4912V12.6082H151.738C150.609 12.6082 147.596 14.7135 142.701 18.924C138.38 21.4971 135.645 22.7836 134.495 22.7836V22.5497C136.319 21.1462 137.23 19.5478 137.23 17.7544C137.23 17.1306 136.279 16.8187 134.376 16.8187H133.782C130.452 16.8187 128.787 17.1696 128.787 17.8713V26.0585H128.906C130.63 25.2008 132.493 24.7719 134.495 24.7719H135.922C139.708 24.7719 141.967 26.0585 142.701 28.6316C142.859 28.6316 142.938 28.9435 142.938 29.5673H142.701C141.888 27.7739 140.342 26.8772 138.063 26.8772C133.643 26.8772 130.63 28.7485 129.025 32.4912C128.629 33.115 128.43 34.5965 128.43 36.9357V39.9766C128.747 44.3431 129.818 46.5263 131.641 46.5263L132.117 46.6433C133.147 46.6433 134.535 45.7856 136.279 44.0702C132.711 43.5634 130.928 42.7057 130.928 41.4971L131.047 41.3801H131.165C131.165 41.731 131.8 42.0429 133.068 42.3158C134.475 42.3158 136.497 41.1462 139.133 38.807C141.095 37.4815 143.196 36.8187 145.436 36.8187H145.555V36.9357C143.573 37.9883 142.582 40.2105 142.582 43.6023V43.8363L142.819 46.0585C141.254 46.8187 138.122 49.2359 133.425 53.3099L131.522 54.7134L131.403 54.5965H131.284L131.403 54.4795V53.7778C131.403 51.2437 128.866 49.4113 123.792 48.2807C119.115 46.5848 116.776 44.0507 116.776 40.6784H117.014C117.767 42.4717 118.758 43.3684 119.987 43.3684H120.582C121.137 42.9006 121.414 42.1598 121.414 41.1462V17.9883C120.027 17.2281 117.212 15.9415 112.971 14.1287V13.8947H135.684C139.688 13.8947 143.612 13.232 147.457 11.9064L149.598 11.6725Z" stroke="white" stroke-width="0.87768"/>
<path d="M185.673 11.6725C186.902 11.6725 187.813 11.9454 188.408 12.4912V12.6082H187.813C186.684 12.6082 183.671 14.7135 178.776 18.924C174.455 21.4971 171.72 22.7836 170.57 22.7836V22.5497C172.394 21.1462 173.305 19.5478 173.305 17.7544C173.305 17.1306 172.354 16.8187 170.451 16.8187H169.857C166.527 16.8187 164.862 17.1696 164.862 17.8713V26.0585H164.981C166.705 25.2008 168.568 24.7719 170.57 24.7719H171.997C175.783 24.7719 178.042 26.0585 178.776 28.6316C178.934 28.6316 179.013 28.9435 179.013 29.5673H178.776C177.963 27.7739 176.417 26.8772 174.138 26.8772C169.718 26.8772 166.705 28.7485 165.1 32.4912C164.704 33.115 164.505 34.5965 164.505 36.9357V39.9766C164.822 44.3431 165.893 46.5263 167.716 46.5263L168.192 46.6433C169.222 46.6433 170.61 45.7856 172.354 44.0702C168.786 43.5634 167.003 42.7057 167.003 41.4971L167.122 41.3801H167.24C167.24 41.731 167.875 42.0429 169.143 42.3158C170.55 42.3158 172.572 41.1462 175.208 38.807C177.17 37.4815 179.271 36.8187 181.511 36.8187H181.63V36.9357C179.648 37.9883 178.657 40.2105 178.657 43.6023V43.8363L178.895 46.0585C177.329 46.8187 174.197 49.2359 169.5 53.3099L167.597 54.7134L167.478 54.5965H167.359L167.478 54.4795V53.7778C167.478 51.2437 164.941 49.4113 159.868 48.2807C155.19 46.5848 152.851 44.0507 152.851 40.6784H153.089C153.842 42.4717 154.833 43.3684 156.062 43.3684H156.657C157.212 42.9006 157.489 42.1598 157.489 41.1462V17.9883C156.102 17.2281 153.287 15.9415 149.046 14.1287V13.8947H171.759C175.763 13.8947 179.687 13.232 183.532 11.9064L185.673 11.6725Z" stroke="white" stroke-width="0.87768"/>
<path d="M187.856 5.12281H187.975C189.719 7.55945 191.701 9.66472 193.921 11.4386C196.755 13.232 200.045 14.1287 203.791 14.1287H205.218C207.934 14.1287 210.748 13.4659 213.661 12.1404L214.256 11.3216C216.357 13.271 218.26 14.5575 219.964 15.1813C223.056 17.2281 224.602 19.5673 224.602 22.1988V22.4327C224.602 24.1871 223.69 25.8635 221.867 27.462L221.748 27.345L221.986 26.6433C221.986 24.46 220.202 22.5107 216.634 20.7953L214.494 19.0409L214.613 18.924L215.445 19.0409H215.802C216.416 19.0409 216.813 18.846 216.991 18.4561C216.991 17.8713 216.278 17.1696 214.851 16.3509L212.71 16C211.125 16.2534 210.332 16.9552 210.332 18.1053L210.213 39.6257C210.629 40.7173 211.144 41.2632 211.759 41.2632H212.116C212.591 41.2632 213.106 41.0682 213.661 40.6784H213.78V40.7953C213.78 41.5945 212.036 43.6218 208.548 46.8772C205.714 51.0292 203.89 55.8635 203.078 61.3801H202.84L203.316 16.7018L203.197 16.5848H202.84C201.651 16.5848 200.184 16.4678 198.44 16.2339C197.489 16.7407 197.013 17.9103 197.013 19.7427C197.409 21.692 198.202 22.6667 199.391 22.6667V22.9006C195.546 22.9006 192.098 18.963 189.045 11.0877C188.57 9.58674 188.173 7.59844 187.856 5.12281Z" stroke="white" stroke-width="0.87768"/>
<path d="M226.993 1.32164H227.231C227.231 3.17349 228.262 5.35673 230.323 7.87135C231.928 9.35283 233.99 10.6004 236.507 11.614C237.101 12.0819 237.498 12.3158 237.696 12.3158V12.5497L236.983 12.4327C236.269 12.6082 235.912 12.8031 235.912 13.0175C235.912 13.6998 236.467 14.0897 237.577 14.1871H237.815C239.638 14.1871 242.175 13.3684 245.426 11.731L247.804 9.85965C251.451 13.154 253.829 15.6881 254.939 17.462C256.445 20.0546 257.199 22.6667 257.199 25.2982V28.5731L256.961 28.807C256.128 28.1832 255.296 27.8713 254.464 27.8713C252.937 27.8713 250.044 29.3528 245.782 32.3158C244.534 33.0955 242.988 33.4854 241.145 33.4854L239.361 33.1345V32.7836H240.193C243.166 32.7836 245.743 31.1852 247.923 27.9883C248.557 26.6823 248.874 25.3957 248.874 24.1287C248.874 21.0682 247.923 18.846 246.02 17.462C245.109 16.9942 244.237 16.7602 243.404 16.7602C240.867 17.2476 239.599 18.1442 239.599 19.4503C239.282 20.9513 239.123 22.9396 239.123 25.4152V35.4737L239.004 44.1287C239.341 45.6881 239.975 46.4678 240.907 46.4678C241.601 46.4678 242.274 45.922 242.928 44.8304H243.047V45.883L242.572 51.4971V51.731C242.572 57.2281 244.633 61.9844 248.755 66H248.518C242.889 62.9591 239.004 59.0994 236.864 54.4211C234.644 50.269 232.067 47.462 229.134 46V45.7661C230.561 45.7661 231.393 44.5185 231.631 42.0234C231.631 36.3899 231.79 29.1774 232.107 20.386C232.107 19.1969 231.354 17.2086 229.847 14.4211C227.945 10.6784 226.993 6.93567 226.993 3.19298V1.32164Z" stroke="white" stroke-width="0.87768"/>
<path d="M259.798 6.46784C261.384 6.76023 264 9.02144 267.647 13.2515C269.668 15.1228 271.214 18.4756 272.285 23.3099C272.681 25.5711 272.879 27.2476 272.879 28.3392C272.879 29.6452 272.166 33.193 270.739 38.9825L270.62 40.6199V41.3216C270.759 42.8811 271.274 43.6608 272.166 43.6608H272.522C274.207 43.6608 275.832 42.8811 277.398 41.3216C277.874 40.1715 278.112 39.3528 278.112 38.8655L278.231 19.6842V18.1637C278.231 16.117 277.596 14.6355 276.328 13.7193V13.4854H276.447C277.398 13.7973 278.31 13.9532 279.182 13.9532C280.886 13.9532 284.176 12.9396 289.052 10.9123C290.757 10.3665 292.025 10.0936 292.857 10.0936H293.809C294.403 10.0936 294.721 10.2105 294.76 10.4444C290.717 12.3353 287.982 14.6745 286.555 17.462L286.079 19.3333L285.841 34.538C285.841 38.4366 286.238 40.9318 287.03 42.0234C287.764 42.8226 288.913 43.3684 290.479 43.6608V43.8947C288.953 43.8947 286.971 45.2982 284.533 48.1053C282.175 50.2885 279.757 51.3801 277.279 51.3801L276.922 51.4971V51.3801C278.429 49.9181 279.182 47.9298 279.182 45.4152V45.1813C279.182 44.577 278.984 44.1871 278.587 44.0117H278.468C276.982 44.0117 275.713 45.3762 274.663 48.1053V49.2749C275.832 52.9981 277.339 55.3762 279.182 56.4094V56.6433C276.447 56.1365 273.157 54.3041 269.312 51.1462C267.191 49.2749 265.249 46.4678 263.485 42.7251C262.89 41.7505 262.058 40.6199 260.987 39.3333V39.0994C262.315 39.0994 263.861 36.7992 265.625 32.1988C267.29 26.6823 268.122 22.3158 268.122 19.0994C268.043 18.0858 267.845 17.5789 267.528 17.5789C267.052 18.2222 266.814 19.2359 266.814 20.6199C266.814 21.4191 266.933 22.0039 267.171 22.3743L267.052 22.4912C266.141 22.1014 265.308 20.8538 264.555 18.7485C263.683 13.6413 262.295 9.97661 260.393 7.75439L259.679 6.58479L259.798 6.46784Z" stroke="white" stroke-width="0.87768"/>
<path d="M315.406 1H315.643C316.139 3.43665 320.579 9.67446 328.962 19.7134L328.843 19.8304H328.724C328.724 19.5965 327.971 19.3626 326.465 19.1287C325.751 19.1287 325.395 19.9474 325.395 21.5848V21.9357L325.514 22.2865L325.395 22.8713C325.395 34.2359 325.91 40.0838 326.941 40.4152C326.941 40.8246 327.456 41.1365 328.487 41.3509V41.8187C328.487 44.7232 327.179 47.6082 324.562 50.4737C324.166 51.4678 323.968 52.3645 323.968 53.1637C323.968 53.924 324.087 54.6257 324.324 55.269L324.206 55.386H324.087C323.294 53.768 322.897 52.5205 322.897 51.6433V51.4094L323.254 47.3158V46.614C323.254 44.8012 321.986 43.3977 319.449 42.4035H319.092L318.973 42.5205H318.854L318.735 42.4035V41.5848C318.141 36.5556 315.009 30.1228 309.341 22.2865C307.557 20.2788 306.487 19.2261 306.13 19.1287H306.011L306.13 26.731V37.9591C306.328 41.8577 306.883 43.885 307.795 44.0409L308.033 43.3392V43.2222C308.033 42.1306 307.834 41.078 307.438 40.0643L307.557 39.9474H307.676C309.103 41.3509 309.816 44.2749 309.816 48.7193C309.816 52.8713 311.204 57.1988 313.979 61.7018L316.119 64.0409V64.1579H316C310.411 61.1754 306.487 56.692 304.227 50.7076C302.186 46.2826 300.362 43.2807 298.757 41.7018C298.4 41.2534 297.449 40.4347 295.903 39.2456L296.022 39.1287L296.141 39.2456H296.26C297.845 39.1287 298.638 38.6218 298.638 37.7251C298.836 37.7251 298.995 36.7895 299.114 34.9181L298.876 15.0351C297.845 11.3119 295.982 8.50487 293.287 6.61404C293.009 6.38012 292.732 6.26316 292.454 6.26316V5.91228H292.811C294.04 5.91228 296.022 6.96491 298.757 9.07018C301.71 10.6296 304.247 11.4094 306.368 11.4094L308.389 10.9415C306.962 12.4035 306.249 13.4561 306.249 14.0994C306.249 14.3918 308.033 16.3411 311.6 19.9474L318.735 29.4211V20.1813C318.735 15.2495 318.339 12.2865 317.546 11.2924H317.427C317.031 12.1306 316.833 13.1053 316.833 14.2164V14.9181C316.833 15.7173 317.031 16.3801 317.427 16.9064V17.0234H317.308C315.564 15.9903 314.692 14.0409 314.692 11.1754V10.8246L315.525 2.28655L315.406 1Z" stroke="white" stroke-width="0.87768"/>
<path d="M369.883 4.80117H370.121L370.478 7.02339C370.478 9.42105 369.209 11.8382 366.672 14.2749C364.691 16.8285 363.7 18.7388 363.7 20.0058V20.1228C363.7 21.2924 364.572 22.0721 366.316 22.462V22.6959C362.649 25.8538 358.091 28.5439 352.64 30.7661L366.554 45.0351C369.09 47.6082 371.429 48.8947 373.57 48.8947H374.64C376.206 48.8947 377.593 48.4269 378.802 47.4912H378.921V47.6082C377.018 50.3372 373.768 51.7018 369.17 51.7018H368.099C365.563 51.7018 362.114 50.6881 357.754 48.6608C356.188 48.193 354.88 47.9591 353.829 47.9591H353.354C352.343 47.9591 351.431 48.193 350.618 48.6608L350.5 48.3099C350.936 47.0624 352.521 46.3606 355.256 46.2047C357.555 46.0097 358.705 45.6979 358.705 45.269C358.705 44.7622 357.476 44.1384 355.018 43.3977C354.384 43.3977 354.067 43.2807 354.067 43.0468C354.067 42.0916 352.125 38.4659 348.24 32.1696H347.289L347.408 39.4211V41.7602C347.408 41.9942 347.685 42.1111 348.24 42.1111V42.2281C348.736 42.0721 349.489 41.9942 350.5 41.9942L350.618 42.1111V42.2281C349.112 43.0858 347.21 45.0741 344.91 48.193C342.175 51.7018 338.211 53.4561 333.019 53.4561H331.354L330.521 53.3392V53.1053H330.64C333.534 53.1053 336.071 51.7797 338.251 49.1287C339.599 47.2573 340.273 44.6062 340.273 41.1754V34.3918L340.392 28.4269L340.273 22.8129V18.4854C340.273 15.8928 338.806 14.2943 335.873 13.6901L335.397 13.5731V13.2222H335.516C342.096 12.5595 345.386 12.0136 345.386 11.5848C345.961 11.5848 346.595 10.961 347.289 9.71345H347.408L347.289 10.2982L347.408 19.538V28.3099L347.289 30.0643C353.869 28.4269 357.159 26.0487 357.159 22.9298C356.921 20.9025 356.327 19.8889 355.375 19.8889H355.018C354.166 19.8889 353.532 20.3957 353.116 21.4094H352.878V21.1754C352.878 18.1345 356.723 14.7427 364.413 11C368.06 8.73879 369.883 6.67251 369.883 4.80117Z" stroke="white" stroke-width="0.87768"/>
<path d="M389.696 1.38012H389.934C394.651 4.08967 397.941 8.10526 399.804 13.4269C400.439 15.0253 400.756 16.4678 400.756 17.7544V17.9883C400.458 20.1715 400.221 21.2632 400.042 21.2632C398.813 21.575 397.505 21.731 396.118 21.731C393.482 21.731 391.46 20.9513 390.053 19.3918L390.172 19.2749C390.905 19.5867 391.579 19.7427 392.194 19.7427H392.788C393.502 19.7427 393.858 19.2749 393.858 18.3392C393.858 16.7797 391.916 15.2982 388.031 13.8947L386.961 13.7778C386.545 13.7778 386.228 13.9727 386.01 14.3626V15.0643C386.049 16.8382 389.776 22.0234 397.188 30.6199C401.35 35.2982 404.046 37.6374 405.275 37.6374L405.75 37.7544H406.583V37.9883C404.204 39.3723 401.192 42.4912 397.545 47.345C393.7 51.3996 391.52 53.4269 391.004 53.4269L390.885 53.3099L391.123 52.6082C391.123 51.3801 388.547 49.8207 383.394 47.9298C381.154 46.7602 378.855 44.694 376.496 41.731C375.228 39.9376 374.594 38.4172 374.594 37.1696V36.5848C374.594 35.2398 375.386 33.8752 376.972 32.4912H377.091V32.6082C376.536 33.3294 376.258 33.8752 376.258 34.2456V34.8304C376.258 36.2144 379.073 37.5789 384.702 38.924C385.792 39.5283 386.822 40.308 387.794 41.2632L387.675 41.3801C385.931 40.9123 384.226 40.6784 382.561 40.6784C380.579 40.6784 379.588 41.1462 379.588 42.0819C380.203 43.3099 382.105 44.4016 385.296 45.3567C385.633 45.5127 386.267 45.5906 387.199 45.5906H387.675C390.727 45.5906 392.947 43.7583 394.334 40.0936V39.0409C394.334 37.2476 392.828 34.9084 389.815 32.0234C383.532 25.1423 380.084 20.4639 379.469 17.9883C379.073 17.1696 378.875 16.5068 378.875 16C381.174 15.6296 382.323 15.2008 382.323 14.7135V14.3626C382.224 13.6608 381.392 12.8811 379.826 12.0234L379.231 11.9064V11.6725H379.35C385.158 11.6725 389.478 12.2183 392.312 13.3099H392.788C393.581 13.3099 393.977 12.4133 393.977 10.6199C393.977 7.36452 392.55 4.2846 389.696 1.38012Z" stroke="white" stroke-width="0.87768"/>
</svg>
