<svg width="110" height="31" viewBox="0 0 110 31" fill="none" xmlns="http://www.w3.org/2000/svg">
<path d="M30.7578 4.24748H35.8138C37.0985 4.24748 38.0378 4.59283 38.6457 5.18684C39.2397 5.69796 39.5021 6.38866 39.5021 7.06555C39.5021 7.32802 39.5021 7.65956 39.4193 7.92203C39.2535 8.35027 38.991 8.7785 38.6457 9.12385C38.4799 9.28962 38.3003 9.38632 38.1345 9.4692C38.7285 9.63497 39.2535 9.98033 39.6817 10.4086C40.0271 10.8368 40.1928 11.3479 40.1928 12.1215C40.1928 12.5497 40.11 13.0609 39.9304 13.4062C39.7646 13.7516 39.4193 14.0969 39.0739 14.3456C38.6457 14.6081 38.2174 14.7738 37.7892 14.9396C37.2781 15.1054 36.6702 15.1054 36.0762 15.1054H30.8407V4.21985H30.7578V4.24748ZM35.3855 8.69561C35.8138 8.69561 36.242 8.61273 36.6702 8.43315C37.0156 8.26738 37.1814 7.92203 37.1814 7.57668C37.1814 7.23132 37.0156 6.88597 36.7531 6.7202C36.4078 6.45773 35.9795 6.37485 35.5513 6.45773H33.1477V8.76468H35.3717V8.69561H35.3855ZM35.9795 13.0747C36.4078 13.0747 36.836 12.9918 37.2643 12.8122C37.6096 12.6464 37.7754 12.3011 37.6925 11.8729C37.6925 11.5275 37.5267 11.1822 37.2643 11.0164C37.0018 10.8506 36.4907 10.671 35.8967 10.671H33.0648V13.0747H35.9795Z" fill="#F3BA2F"/>
<path d="M43.1797 4.24817H45.5833V15.2166H43.1797V4.24817Z" fill="#F3BA2F"/>
<path d="M49.2695 4.24817H51.4936L56.6324 11.0171V4.24817H59.0223V15.2166H56.9778L51.5765 8.26807V15.2166H49.2695V4.24817Z" fill="#F3BA2F"/>
<path d="M66.3161 4.16504H68.5401L73.2507 15.2163H70.7642L69.742 12.7298H65.1142L64.092 15.2163H61.6055L66.3161 4.16504ZM68.8855 10.6715L67.435 7.07981L65.9845 10.6715H68.8855Z" fill="#F3BA2F"/>
<path d="M75.8203 4.24817H78.0444L83.1832 11.0171V4.24817H85.5869V15.2166H83.5286L78.2102 8.26807V15.2166H75.8203V4.24817Z" fill="#F3BA2F"/>
<path d="M94.314 15.382C93.5404 15.382 92.7669 15.2162 92.09 14.9537C90.7224 14.3597 89.6863 13.3237 89.0923 11.9561C88.8298 11.2654 88.6641 10.5056 88.6641 9.732C88.6641 8.28152 89.2581 6.81722 90.2941 5.7121C90.8053 5.20098 91.4131 4.77274 92.09 4.51027C92.8636 4.16492 93.6371 4.08203 94.3969 4.08203C94.8251 4.08203 95.3363 4.08203 95.7645 4.16492C96.1927 4.2478 96.5381 4.33069 96.8834 4.51027C97.2288 4.67604 97.5742 4.85562 97.8228 5.02139C98.0853 5.18716 98.4168 5.44963 98.6793 5.7121L97.2288 7.50793C96.8006 7.16258 96.3723 6.81722 95.9441 6.56857C95.5159 6.31991 95.0047 6.22322 94.4936 6.22322C94.0654 6.22322 93.6371 6.3061 93.2089 6.48568C92.7807 6.65145 92.4353 6.91392 92.1867 7.25927C91.938 7.60463 91.6755 7.94998 91.496 8.37822C91.3302 8.80645 91.2335 9.23469 91.2335 9.66292C91.2335 10.0912 91.3164 10.6023 91.496 11.0305C91.6755 11.4588 91.8413 11.8041 92.1867 12.1495C92.7807 12.8402 93.6371 13.1717 94.4936 13.1717C95.0047 13.1717 95.6126 13.0888 96.1237 12.8264C96.5519 12.5639 97.063 12.2323 97.4084 11.887L98.9418 13.4204C98.6793 13.6828 98.3477 14.0144 98.0853 14.2768C97.7399 14.5393 97.3946 14.7051 97.063 14.8708C96.7177 15.0366 96.2894 15.2162 95.8612 15.2991C95.2534 15.382 94.7423 15.382 94.314 15.382Z" fill="#F3BA2F"/>
<path d="M101.695 4.24817H109.915V6.38935H104.002V8.61342H109.224V10.7546H104.002V13.0754H109.998V15.2166H101.695V4.24817Z" fill="#F3BA2F"/>
<path d="M33.8383 26.0052C33.2442 26.0052 32.6364 25.9223 32.1253 25.6598C31.6142 25.494 31.1031 25.1487 30.5781 24.7204L31.4346 23.7811C31.7799 24.1264 32.1253 24.2922 32.5535 24.5547C32.9818 24.7204 33.41 24.8171 33.8383 24.8171C34.1836 24.8171 34.529 24.7343 34.8605 24.5547C35.123 24.3889 35.2058 24.1264 35.2058 23.864C35.2058 23.7811 35.2058 23.6015 35.123 23.5186C35.0401 23.4357 34.9572 23.2562 34.8605 23.1733C34.6947 23.0904 34.5151 23.0075 34.3494 22.9108C34.0869 22.8279 33.7554 22.745 33.4929 22.6483C33.1475 22.5654 32.7193 22.4826 32.374 22.303C32.1115 22.2201 31.78 22.0405 31.6004 21.8747C31.4346 21.709 31.255 21.5294 31.0892 21.2807C30.9235 20.9354 30.9235 20.59 30.9235 20.3414C30.9235 19.996 31.0064 19.7474 31.0892 19.402C31.1721 19.1396 31.4346 18.8909 31.6004 18.7113C31.8628 18.5455 32.1115 18.366 32.4568 18.2831C32.8022 18.2002 33.1475 18.1173 33.4791 18.1173C33.9902 18.1173 34.5013 18.2002 35.0263 18.3798C35.4545 18.5455 35.8827 18.808 36.311 19.0705L35.6203 20.0927C35.2749 19.8303 34.9296 19.6645 34.598 19.4987C34.2527 19.3329 33.9073 19.3329 33.5758 19.3329C33.2304 19.3329 32.8851 19.4158 32.6364 19.5954C32.4707 19.7612 32.2911 20.0237 32.2911 20.2861C32.2911 20.4519 32.2911 20.5486 32.374 20.7144C32.4568 20.7972 32.5397 20.9768 32.6364 21.0597C32.8022 21.1426 32.9818 21.2255 33.2304 21.3222C33.4929 21.4051 33.7416 21.4879 34.1698 21.5846C34.5151 21.6675 34.8605 21.7504 35.2887 21.93C35.5512 22.0129 35.7999 22.1925 36.0623 22.3582C36.2281 22.524 36.4077 22.7865 36.4906 22.9522C36.5734 23.2147 36.6563 23.4634 36.6563 23.8087C36.6563 24.1541 36.5734 24.4994 36.4906 24.7481C36.3248 25.0105 36.1452 25.2592 35.8966 25.5217C35.6341 25.6874 35.3854 25.867 35.0401 25.9499C34.6118 25.9223 34.1836 26.0052 33.8383 26.0052Z" fill="#F3BA2F"/>
<path d="M38.1211 18.2144H39.5854L41.8923 21.806L44.296 18.2144H45.7465V25.9226H44.3789V20.3555L41.9752 23.9472H41.8923L39.5025 20.3555V25.9226H38.1211V18.2144Z" fill="#F3BA2F"/>
<path d="M50.3722 18.1313H51.6569L54.9999 25.8396H53.5494L52.7758 23.9609H49.1842L48.4106 25.8396H47.043L50.3722 18.1313ZM52.3476 22.842L50.98 19.7614L49.6953 22.842H52.3476Z" fill="#F3BA2F"/>
<path d="M56.3719 18.2144H59.7978C60.2261 18.2144 60.6543 18.2972 61.0826 18.3801C61.4279 18.463 61.7733 18.7255 62.0219 18.9741C62.1877 19.1399 62.3673 19.4024 62.533 19.7477C62.6159 20.0102 62.6988 20.3417 62.6988 20.6871C62.6988 20.9495 62.6159 21.2811 62.533 21.5435C62.4501 21.806 62.2706 21.9718 62.1877 22.2343C62.0219 22.4 61.8423 22.5796 61.5937 22.7454C61.3312 22.9111 61.0826 23.0078 60.8201 23.0907L62.8784 26.0055H61.2483L59.3696 23.3532H57.6567V26.0055H56.2891L56.3719 18.2144ZM59.715 21.9856C60.1432 21.9856 60.5714 21.9027 60.8339 21.6402C61.0964 21.3778 61.2621 21.0462 61.2621 20.7009C61.2621 20.3555 61.0964 20.0102 60.8339 19.7615C60.4885 19.4991 60.0603 19.4162 59.6321 19.4162H57.6567V21.9856H59.715Z" fill="#F3BA2F"/>
<path d="M66.217 19.4162H63.7305V18.2144H69.9883V19.4162H67.5017V25.9226H66.1341L66.217 19.4162Z" fill="#F3BA2F"/>
<path d="M78.3068 26.0054C77.7957 26.0054 77.2846 25.9225 76.7596 25.6601C75.8203 25.2318 75.0467 24.5411 74.7013 23.6018C74.5356 23.0907 74.356 22.5795 74.4389 22.0546C74.4389 21.5435 74.5217 21.0323 74.7013 20.5074C75.0467 19.5681 75.8203 18.7945 76.7596 18.3662C77.2707 18.2005 77.7819 18.0209 78.3897 18.0209C78.735 18.0209 79.0804 18.0209 79.329 18.1038C79.5915 18.1866 79.8402 18.2695 80.1026 18.3662C80.3651 18.4491 80.5309 18.6287 80.7933 18.7116C80.9591 18.8773 81.2216 19.0569 81.3873 19.2227L80.5309 20.2449C80.2684 19.9825 79.9369 19.7338 79.5915 19.5542C79.2462 19.3885 78.8179 19.2918 78.3897 19.2918C78.0443 19.2918 77.699 19.3747 77.3674 19.4575C77.0221 19.6233 76.7734 19.8029 76.511 20.0515C76.2485 20.314 76.0827 20.5627 75.9998 20.908C75.917 21.2534 75.8341 21.5987 75.8341 21.9303C75.8341 22.2756 75.917 22.621 75.9998 22.9525C76.0827 23.284 76.2623 23.5465 76.511 23.809C76.7734 24.0715 77.0221 24.2372 77.3674 24.403C77.7128 24.5688 78.0581 24.6655 78.3897 24.5688C78.8179 24.5688 79.2462 24.4859 79.5915 24.3063C79.9369 24.1405 80.2822 23.8781 80.6138 23.5327L81.4702 24.3892C81.3045 24.5549 81.042 24.8174 80.8762 24.9832C80.6138 25.149 80.448 25.3285 80.1855 25.4114C79.9231 25.4943 79.6744 25.6739 79.329 25.6739C78.9837 26.0054 78.6383 26.0054 78.3068 26.0054Z" fill="#F3BA2F"/>
<path d="M82.8359 18.2144H84.1206V21.3778H87.809V18.2144H89.1766V25.9226H87.809V22.6625H84.1206V25.9226H82.8359V18.2144Z" fill="#F3BA2F"/>
<path d="M93.8878 18.1313H95.1725L98.5155 25.8396H97.065L96.2914 23.9609H92.6998L91.9262 25.8396H90.5586L93.8878 18.1313ZM95.7803 22.842L94.4956 19.7614L93.2109 22.842H95.7803Z" fill="#F3BA2F"/>
<path d="M99.8789 18.2144H101.26V25.9226H99.8789V18.2144Z" fill="#F3BA2F"/>
<path d="M103.309 18.2144H104.51L108.627 23.519V18.2144H109.995V25.9226H108.876L104.69 20.4384V25.9226H103.309V18.2144Z" fill="#F3BA2F"/>
<path d="M15.686 25.4111V28.7541L12.7712 30.4671L9.93929 28.7541V25.4111L12.7712 27.1241L15.686 25.4111ZM0.0898438 13.8487L2.92173 15.5617V21.2945L7.79811 24.2093V27.5523L0.0898438 23.0075V13.8487V13.8487ZM25.4525 13.8487V23.0213L17.6614 27.5661V24.2231L22.5377 21.3083V15.5755L25.4525 13.8487ZM17.6476 9.30387L20.5623 11.0168V14.3598L15.686 17.2746V23.0903L12.8541 24.8033L10.036 23.0903V17.2608L4.98003 14.346V11.003L7.89481 9.29006L12.7712 12.2048L17.6476 9.30387ZM4.98003 16.7497L7.81192 18.4626V21.8056L4.98003 20.0927V16.7497ZM20.5623 16.7497V20.0927L17.7304 21.8056V18.4626L20.5623 16.7497ZM2.92173 6.3891L5.83651 8.10205L2.92173 9.81499V13.158L0.0898438 11.4451V8.10205L2.92173 6.3891ZM22.6206 6.3891L25.5354 8.10205V11.4451L22.6206 13.158V9.81499L19.7887 8.10205L22.6206 6.3891ZM12.7712 6.3891L15.686 8.10205L12.7712 9.81499L9.93929 8.10205L12.7712 6.3891ZM12.7712 0.65625L20.5623 5.20109L17.7304 6.91403L12.8541 3.99926L7.88099 6.91403L5.0491 5.20109L12.7712 0.65625Z" fill="#F3BA2F"/>
</svg>
