<svg width="135" height="34" viewBox="0 0 135 34" fill="none" xmlns="http://www.w3.org/2000/svg">
<path d="M39.9927 17.3508C39.9927 17.5799 39.8005 17.7664 39.571 17.7664H31.4464C31.6493 19.7703 33.1599 21.5982 35.2845 21.5982C36.7364 21.5982 37.8147 21.044 38.6261 19.8875C38.7436 19.7276 38.9197 19.6264 39.1439 19.7223C39.2667 19.7756 39.3521 19.8875 39.3735 20.0154C39.3948 20.1486 39.3574 20.2232 39.3201 20.2979C38.5034 21.7208 36.8752 22.4189 35.2792 22.4189C32.5461 22.4189 30.5977 19.9781 30.5977 17.3667C30.5977 14.7554 32.5461 12.3145 35.2792 12.3145C38.0123 12.3092 39.9873 14.7447 39.9927 17.3508ZM39.1226 16.9564C38.9464 14.9526 37.409 13.1246 35.2845 13.1246C33.1599 13.1246 31.6493 14.9526 31.4464 16.9564H39.1226ZM49.8521 12.5117C50.087 12.5117 50.2578 12.7142 50.2578 12.9168C50.2578 13.1512 50.0817 13.3218 49.8521 13.3218H47.6742V21.854C47.6742 22.0565 47.498 22.259 47.2685 22.259C47.0336 22.259 46.8628 22.0565 46.8628 21.854V13.3218H44.7703C44.5354 13.3218 44.3646 13.1459 44.3646 12.9168C44.3646 12.7142 44.5407 12.5117 44.7703 12.5117H46.8628V9.38875C46.8628 9.19157 46.9962 9.01038 47.1884 8.9784C47.4607 8.93577 47.6742 9.12229 47.6742 9.3781V12.5117H49.8521ZM63.1386 16.6366V21.8061C63.1386 22.0405 62.9358 22.2111 62.7329 22.2111C62.498 22.2111 62.3272 22.0352 62.3272 21.8061V16.6366C62.3272 14.8939 61.3397 13.1512 59.3913 13.1512C56.893 13.1512 55.8148 15.3309 55.9589 17.5639C55.9589 17.6225 55.9856 17.8837 55.9856 17.9103V21.7901C55.9856 21.9873 55.8521 22.1685 55.6599 22.2004C55.3877 22.2431 55.1742 22.0565 55.1742 21.8007V4.82153C55.1742 4.61902 55.3503 4.4165 55.5799 4.4165C55.8148 4.4165 55.9856 4.61902 55.9856 4.82153V14.4303C56.6849 13.1832 57.934 12.3412 59.3859 12.3412C61.7721 12.3412 63.1386 14.4303 63.1386 16.6366ZM77.7062 17.3508C77.7062 17.5799 77.5141 17.7664 77.2845 17.7664H69.1546C69.3575 19.7703 70.8681 21.5982 72.9927 21.5982C74.4447 21.5982 75.5229 21.044 76.3343 19.8875C76.4518 19.7276 76.6279 19.6264 76.8521 19.7223C76.9749 19.7756 77.0603 19.8875 77.0817 20.0154C77.103 20.1486 77.0657 20.2232 77.0283 20.2979C76.2116 21.7208 74.5834 22.4189 72.9874 22.4189C70.2543 22.4189 68.3059 19.9781 68.3059 17.3667C68.3059 14.7554 70.2543 12.3145 72.9874 12.3145C75.7258 12.3092 77.7009 14.7447 77.7062 17.3508ZM76.8308 16.9564C76.6546 14.9526 75.1173 13.1246 72.9927 13.1246C70.8681 13.1246 69.3575 14.9526 69.1546 16.9564H76.8308ZM87.6778 12.8901C87.6778 13.1512 87.5336 13.2951 87.2988 13.3271C84.9126 13.6735 83.8397 15.6187 83.8397 17.8837V21.7634C83.8397 21.9606 83.7062 22.1418 83.5141 22.1738C83.2418 22.2164 83.0283 22.0299 83.0283 21.7741V12.9327C83.0283 12.7356 83.1617 12.5544 83.3539 12.5224C83.6262 12.4798 83.8397 12.6663 83.8397 12.9221V14.7234C84.5069 13.5936 85.8468 12.5171 87.24 12.5171C87.4429 12.5117 87.6778 12.661 87.6778 12.8901ZM101.023 17.3508C101.023 17.5799 100.831 17.7664 100.601 17.7664H92.4767C92.6795 19.7703 94.1902 21.5982 96.3148 21.5982C97.7667 21.5982 98.845 21.044 99.6564 19.8875C99.7738 19.7276 99.95 19.6264 100.174 19.7223C100.297 19.7756 100.382 19.8875 100.404 20.0154C100.425 20.1486 100.388 20.2232 100.35 20.2979C99.5336 21.7208 97.9055 22.4189 96.3094 22.4189C93.5763 22.4189 91.6279 19.9781 91.6279 17.3667C91.6279 14.7554 93.5763 12.3145 96.3094 12.3145C99.0425 12.3092 101.018 14.7447 101.023 17.3508ZM100.153 16.9564C99.9767 14.9526 98.4393 13.1246 96.3148 13.1246C94.1902 13.1246 92.6795 14.9526 92.4767 16.9564H100.153ZM114.139 12.9914V21.854C114.139 22.0885 113.936 22.259 113.733 22.259C113.498 22.259 113.327 22.0832 113.327 21.854V20.17C112.66 21.5076 111.464 22.4616 109.954 22.4616C107.541 22.4616 106.201 20.3725 106.201 18.1661V12.9701C106.201 12.7675 106.377 12.565 106.607 12.565C106.841 12.565 107.012 12.7675 107.012 12.9701V18.1661C107.012 19.9088 108 21.6515 109.948 21.6515C112.681 21.6515 113.322 19.0988 113.322 16.2796V12.9701C113.322 12.7356 113.557 12.4957 113.845 12.581C114.021 12.6396 114.139 12.8102 114.139 12.9914ZM134.69 16.6046V21.8007C134.69 22.0352 134.487 22.2058 134.285 22.2058C134.05 22.2058 133.879 22.0299 133.879 21.8007V16.6046C133.879 14.862 132.891 13.1512 130.943 13.1512C128.498 13.1512 127.569 15.7626 127.569 17.7931V21.8007C127.569 22.0352 127.366 22.2058 127.164 22.2058C126.929 22.2058 126.758 22.0299 126.758 21.8007V16.6046C126.758 14.862 125.77 13.1512 123.822 13.1512C121.35 13.1512 120.331 15.0964 120.422 17.6812C120.422 17.7398 120.448 17.857 120.422 17.8837V21.7901C120.422 21.9873 120.288 22.1685 120.091 22.2004C119.818 22.2431 119.605 22.0565 119.605 21.8007V12.9327C119.605 12.7356 119.738 12.5544 119.93 12.5224C120.203 12.4798 120.416 12.6663 120.416 12.9221V14.4036C121.116 13.1566 122.365 12.3412 123.817 12.3412C125.471 12.3412 126.753 13.3857 127.276 14.9259C127.943 13.4177 129.251 12.3412 130.938 12.3412C133.324 12.3412 134.69 14.3983 134.69 16.6046Z" fill="#3C3C3B"/>
<g opacity="0.6">
<path opacity="0.6" d="M10.1852 12.2466L0 16.8711L10.1852 22.8787L20.3663 16.8711L10.1852 12.2466Z" fill="#010101"/>
</g>
<g opacity="0.45">
<path opacity="0.45" d="M0 16.8715L10.1852 22.879V0L0 16.8715Z" fill="#010101"/>
</g>
<g opacity="0.8">
<path opacity="0.8" d="M10.1914 0V22.879L20.3726 16.8715L10.1914 0Z" fill="#010101"/>
</g>
<g opacity="0.45">
<path opacity="0.45" d="M0 18.7976L10.1852 33.123V24.8051L0 18.7976Z" fill="#010101"/>
</g>
<g opacity="0.8">
<path opacity="0.8" d="M10.1914 24.8054V33.1232L20.3806 18.7979L10.1914 24.8054Z" fill="#010101"/>
</g>
</svg>
