<svg width="121" height="36" viewBox="0 0 121 36" fill="none" xmlns="http://www.w3.org/2000/svg">
<g clip-path="url(#clip0_1544_7115)">
<path d="M9.33591 0H24.0755C29.2476 0 33.4114 4.48457 33.4114 10.0551V25.9449C33.4114 31.5154 29.2476 36 24.0755 36H9.33591C4.16383 36 0 31.5154 0 25.9449V10.0551C0 4.48457 4.16383 0 9.33591 0Z" fill="url(#paint0_linear_1544_7115)"/>
<path d="M24.768 24.8228C24.227 24.7705 24.1392 25.0318 23.3423 25.0169C22.3147 24.9989 20.9503 24.857 20.0043 24.3323C19.0583 23.8077 18.1431 22.734 16.4945 20.6885C16.1603 19.258 15.2027 18.6313 14.4662 17.7247C12.6062 14.5467 10.6446 13.5334 9.32806 13.4059C8.37451 12.5086 7.77638 12.6531 8.73923 11.4114C9.36176 11.4715 8.67879 10.9455 9.4333 10.9753C10.265 11.0082 11.9089 10.8843 13.1328 11.5883C14.3567 12.2921 15.2713 13.1874 16.9199 15.2329C17.3772 16.4844 18.0304 17.3147 18.947 18.1965C20.807 21.3745 22.7698 22.3879 24.0863 22.5155C25.216 23.2821 25.6962 23.0769 24.7335 24.4012L24.768 24.8228Z" fill="white" fill-opacity="0.496124"/>
<path d="M9.08732 10.9585C8.22054 10.9585 7.23087 10.9652 6.37653 11.2402C5.63927 11.4763 4.54242 11.9304 3.81229 13.0966C2.99485 14.4024 3.01094 16.2366 3.08917 18.6554V20.5456C3.08917 21.9359 3.55074 23.1636 4.47365 23.9193C4.47489 23.9199 4.4774 23.9187 4.47865 23.9193C5.39803 24.6756 6.66226 24.9707 8.23476 24.9708C9.78473 24.9708 11.1409 24.8246 12.1931 24.364C13.4812 23.8004 14.8799 22.6159 16.6917 20.7375C17.5988 19.6802 18.1895 18.9433 18.9581 17.9809C21.0745 14.9947 23.1124 14.1744 24.4341 14.1742C25.7559 14.1739 26.221 14.2678 26.4836 14.3619C26.7391 14.4536 26.8385 14.5518 26.9099 14.6751L26.9142 14.6796L26.9183 14.6841C26.9877 14.8007 27.0623 15.0362 27.0623 15.4395V16.1491H25.5919C24.3188 16.1491 23.2713 16.2702 22.4183 16.5496C21.5607 16.8303 20.8447 17.3186 20.3847 18.0355C19.9283 18.7466 19.7354 19.6343 19.7354 20.6303C19.7354 21.9419 20.1525 23.1152 20.989 23.9073L20.9933 23.9118C21.8335 24.6975 22.9829 25.0414 24.3242 25.0416H24.3255C25.1923 25.0416 26.1819 25.0348 27.0363 24.7598C27.7735 24.5236 28.8704 24.0696 29.6005 22.9034C30.4179 21.5976 30.4018 19.7633 30.3236 17.3447V15.4544C30.3236 14.0642 29.862 12.8365 28.9391 12.0808C28.9379 12.0802 28.935 12.0814 28.9328 12.0808C28.0135 11.3245 26.7492 11.0293 25.1768 11.0293C23.6267 11.0293 22.2706 11.1755 21.2183 11.6359C19.9303 12.1996 18.5315 13.3841 16.7197 15.2626C15.8662 16.285 15.2333 17.0553 14.4547 18.0192C12.3382 21.0053 10.2992 21.8257 8.97734 21.8259C7.65551 21.8261 7.19036 21.7322 6.92782 21.6381C6.67233 21.5464 6.57297 21.4482 6.50146 21.325L6.4977 21.3205L6.49394 21.3159C6.42448 21.1994 6.3498 20.9637 6.3498 20.5605V19.8507H7.82027C9.09336 19.8507 10.1409 19.7296 10.9938 19.4503C11.8514 19.1696 12.5674 18.6813 13.0275 17.9644C13.4838 17.2533 13.6767 16.3657 13.6767 15.3697C13.6767 14.0581 13.2597 12.8847 12.4231 12.0926L12.418 12.088C11.5779 11.3024 10.4285 10.9586 9.08708 10.9584L9.08732 10.9585ZM8.68761 14.1037C9.36362 14.1037 9.77642 14.2623 10.0224 14.4742C10.2657 14.6908 10.3701 14.9149 10.3701 15.407C10.3701 15.8324 10.2898 16.0675 10.1944 16.2067C10.1004 16.3438 9.92236 16.4904 9.55728 16.602H9.5535C9.17805 16.7211 8.5928 16.8003 7.8336 16.8003H6.34376V15.6393C6.34376 15.0916 6.46654 14.8367 6.82583 14.5617C7.17455 14.2963 7.78006 14.1039 8.68754 14.1039L8.68761 14.1037ZM25.5799 19.1993H27.0696V20.3604C27.0696 20.908 26.9469 21.163 26.5876 21.438C26.2389 21.7034 25.6334 21.8958 24.7259 21.8958C24.0499 21.8958 23.6371 21.7373 23.3911 21.5254C23.1477 21.3087 23.0434 21.0847 23.0434 20.5926C23.0434 20.1672 23.1237 19.9322 23.2191 19.7929C23.3132 19.6558 23.4911 19.5092 23.8562 19.3976H23.8604C24.236 19.2785 24.8212 19.1992 25.5803 19.1992L25.5799 19.1993Z" fill="white"/>
<path d="M36.8015 22.2469H39.5268V25.0127H36.8015V22.2469Z" fill="#1C1A1A"/>
<path d="M52.4267 24.7516H50.5614V13.1542H45.9828V24.7516H44.1295V13.1542H41.925V11.5625H44.1295V9.94492C44.1295 9.18828 44.1739 8.57953 44.2627 8.11858C44.3514 7.64894 44.4726 7.28798 44.6261 7.03577C44.7876 6.78355 44.9895 6.57483 45.2317 6.40958C45.4982 6.22694 45.8212 6.09215 46.2007 6.00519C46.5883 5.9096 47.1011 5.86182 47.739 5.86182C48.062 5.86182 48.3204 5.87487 48.5142 5.90095C48.716 5.92704 48.9462 5.96183 49.2046 6.00542V7.62306C49.132 7.61464 48.9745 7.59724 48.7323 7.57082C48.4981 7.53598 48.167 7.51858 47.739 7.51858C47.1091 7.51858 46.6812 7.6099 46.455 7.79254C46.2855 7.93172 46.1644 8.10131 46.0917 8.30132C46.0272 8.49266 45.9949 8.77528 45.9949 9.14923V11.5627H52.4266L52.4267 24.7516ZM51.4818 9.29267C51.0701 9.29267 50.7794 9.21004 50.6098 9.04477C50.4483 8.8795 50.3675 8.58817 50.3675 8.17074C50.3675 7.72719 50.4483 7.40104 50.6098 7.19232C50.7713 6.98359 51.0619 6.87922 51.4818 6.87922C51.9422 6.87922 52.2531 6.98791 52.4145 7.20534C52.5519 7.39667 52.6206 7.7185 52.6206 8.17074C52.6206 8.45774 52.5883 8.68383 52.5238 8.84909C52.4593 9.0056 52.3462 9.11869 52.1846 9.1883C52.0231 9.25778 51.789 9.29249 51.4821 9.29249L51.4818 9.29267Z" fill="#1C1A1A"/>
<path d="M56.5078 11.5625H58.034L58.1793 13.4281C58.5831 12.6279 59.1161 12.0627 59.7782 11.7322C60.4404 11.393 61.3447 11.2234 62.4914 11.2234C63.5412 11.2234 64.381 11.4061 65.0108 11.7713C65.6488 12.1366 66.1131 12.7193 66.4038 13.5195C66.6944 14.3196 66.8398 15.3806 66.8398 16.7025V24.7516H64.9745V16.7025C64.9745 15.7806 64.8736 15.0457 64.6717 14.4978C64.4698 13.9412 64.1468 13.5367 63.7026 13.2845C63.2666 13.0323 62.6812 12.9063 61.9463 12.9063C61.0823 12.9063 60.3879 13.0367 59.863 13.2976C59.3462 13.5586 58.9666 13.9716 58.7244 14.537C58.4902 15.1022 58.3732 15.8589 58.3732 16.8069V24.7516H56.5078V11.5625Z" fill="#1C1A1A"/>
<path d="M80.4063 25.0648C79.8169 25.0648 79.3405 24.8952 78.9771 24.556C78.6218 24.2169 78.4442 23.769 78.4442 23.2124C78.0404 23.8037 77.4711 24.2603 76.7363 24.5821C76.0095 24.8952 75.1697 25.0518 74.2168 25.0518C72.8522 25.0518 71.8024 24.7082 71.0676 24.0211C70.3328 23.3254 69.9653 22.3426 69.9653 21.0729C69.9653 20.0901 70.1551 19.303 70.5347 18.7116C70.9142 18.1202 71.5157 17.6897 72.3394 17.4201C73.1631 17.1504 74.2612 17.0157 75.634 17.0157H78.1777V15.2545C78.1777 14.6806 78.0767 14.2239 77.8748 13.8848C77.6729 13.5369 77.354 13.2846 76.9179 13.128C76.4819 12.9716 75.9005 12.8933 75.1738 12.8933C74.4228 12.8933 73.8211 12.9672 73.369 13.1152C72.9168 13.2632 72.5857 13.5023 72.3758 13.8327C72.1658 14.1545 72.0608 14.585 72.0608 15.1243H70.3772C70.3772 13.811 70.7689 12.8413 71.5521 12.2151C72.3354 11.5889 73.5426 11.2759 75.1738 11.2759C76.8291 11.2759 78.0525 11.602 78.8439 12.2542C79.6432 12.9065 80.043 13.911 80.043 15.2677V21.9993C80.043 22.5298 80.1035 22.8908 80.2246 23.082C80.3538 23.2734 80.5961 23.369 80.9514 23.369C81.0807 23.369 81.1815 23.3649 81.2542 23.3564V24.948C81.1089 25.0002 80.9797 25.0306 80.8666 25.0394C80.7615 25.0567 80.6081 25.0654 80.4063 25.0654V25.0648ZM74.665 23.4602C75.7956 23.4602 76.6636 23.2297 77.2692 22.7688C77.8829 22.2992 78.1898 21.6338 78.1898 20.7729V18.5029H75.6219C74.7175 18.5029 73.9908 18.5898 73.4416 18.7638C72.9006 18.929 72.5049 19.1943 72.2547 19.5596C72.0043 19.9248 71.8791 20.4162 71.8791 21.0337C71.8791 21.8077 72.1214 22.4078 72.6059 22.834C73.0904 23.2514 73.7768 23.4602 74.665 23.4602Z" fill="#1C1A1A"/>
<path d="M84.1731 11.5625H85.6993L85.8446 13.4281C86.2484 12.6279 86.7813 12.0627 87.4435 11.7322C88.1057 11.393 89.01 11.2234 90.1567 11.2234C91.2065 11.2234 92.0463 11.4061 92.676 11.7713C93.3139 12.1366 93.7782 12.7193 94.0689 13.5195C94.3597 14.3196 94.5056 15.3806 94.5056 16.7025V24.7516H92.64V16.7025C92.64 15.7806 92.5385 15.0457 92.3372 14.4978C92.1351 13.9412 91.8121 13.5367 91.3679 13.2845C90.9319 13.0323 90.3464 12.9063 89.6117 12.9063C88.7476 12.9063 88.0532 13.0367 87.5283 13.2976C87.0115 13.5586 86.632 13.9716 86.3897 14.537C86.1555 15.1022 86.0384 15.8589 86.0384 16.8069V24.7516H84.1731V11.5625Z" fill="#1C1A1A"/>
<path d="M103.433 25.0517C102.06 25.0517 100.961 24.8212 100.138 24.3602C99.323 23.8906 98.7248 23.1513 98.3454 22.1424C97.9744 21.1336 97.7888 19.7899 97.7888 18.1114C97.7888 16.4502 97.978 15.1197 98.3574 14.1195C98.7368 13.1193 99.335 12.3931 100.15 11.9409C100.974 11.4799 102.072 11.2494 103.445 11.2494C105.044 11.2494 106.231 11.606 107.006 12.3191C107.789 13.0236 108.193 14.1151 108.218 15.5936H106.315C106.267 14.9326 106.138 14.4064 105.928 14.0151C105.726 13.6237 105.419 13.3367 105.007 13.1541C104.596 12.9714 104.058 12.8801 103.397 12.8801C102.436 12.8801 101.689 13.0411 101.155 13.3629C100.631 13.6847 100.252 14.2238 100.017 14.9805C99.791 15.7284 99.6784 16.7807 99.6784 18.1375C99.6784 19.6073 99.7827 20.7162 99.9931 21.4641C100.203 22.212 100.575 22.7383 101.107 23.0427C101.64 23.3384 102.424 23.4862 103.457 23.4862C104.135 23.4862 104.681 23.3949 105.092 23.2123C105.504 23.0209 105.807 22.7252 106.001 22.3251C106.194 21.9164 106.3 21.3771 106.315 20.7075H108.218C108.209 21.7598 108.044 22.6034 107.72 23.2383C107.398 23.8644 106.889 24.3254 106.194 24.6212C105.5 24.9082 104.58 25.0517 103.433 25.0517Z" fill="#1C1A1A"/>
<path d="M115.787 25.0519C114.454 25.0519 113.389 24.8213 112.59 24.3604C111.79 23.8994 111.204 23.1689 110.833 22.1688C110.469 21.1686 110.288 19.8337 110.288 18.1638C110.288 16.5984 110.469 15.3112 110.833 14.3023C111.197 13.2848 111.778 12.5237 112.578 12.0192C113.377 11.5149 114.43 11.2627 115.738 11.2627C116.99 11.2627 117.991 11.4626 118.743 11.8628C119.502 12.2628 120.054 12.8977 120.402 13.7675C120.749 14.6284 120.923 15.7808 120.923 17.2245L120.911 18.4899H112.178C112.178 19.6988 112.299 20.6686 112.542 21.3991C112.792 22.1209 113.179 22.6514 113.704 22.9907C114.237 23.3211 114.947 23.4864 115.836 23.4864C116.554 23.4864 117.132 23.4081 117.568 23.2515C118.012 23.0951 118.339 22.8472 118.549 22.508C118.767 22.1601 118.889 21.6992 118.913 21.1251H120.814C120.814 22.4645 120.402 23.456 119.578 24.0996C118.763 24.7344 117.499 25.0519 115.787 25.0519ZM119.021 17.0027C119.046 16.0025 118.949 15.2024 118.731 14.6023C118.512 14.0022 118.157 13.563 117.665 13.2847C117.172 13.0064 116.514 12.8673 115.69 12.8673C114.826 12.8673 114.148 12.9934 113.655 13.2456C113.171 13.4978 112.816 13.9196 112.59 14.511C112.363 15.1024 112.234 15.9329 112.202 17.0027H119.021Z" fill="#1C1A1A"/>
</g>
<defs>
<linearGradient id="paint0_linear_1544_7115" x1="1.78308e-05" y1="1.22005e-05" x2="44.6742" y2="43.591" gradientUnits="userSpaceOnUse">
<stop stop-color="#001486"/>
<stop offset="1" stop-color="#7E00E6"/>
</linearGradient>
<clipPath id="clip0_1544_7115">
<rect width="120.923" height="36" fill="white"/>
</clipPath>
</defs>
</svg>
