<svg width="138" height="44" viewBox="0 0 138 44" fill="none" xmlns="http://www.w3.org/2000/svg">
<path d="M61.2354 30.3184C62.5218 30.3184 63.6397 30.1078 64.5891 29.6867C65.5386 29.2656 66.2698 28.6722 66.7828 27.9065C67.3035 27.1332 67.5638 26.222 67.5638 25.173V25.1615C67.5638 23.9288 67.181 22.9448 66.4153 22.2098C65.6496 21.4747 64.3977 20.9234 62.6596 20.5559L60.8564 20.1539C59.7845 19.9319 59.0149 19.6179 58.5479 19.2121C58.0808 18.7987 57.8473 18.2818 57.8473 17.6616V17.6501C57.8473 17.1371 57.9927 16.6969 58.2837 16.3293C58.5747 15.9618 58.9728 15.6823 59.4782 15.4909C59.9835 15.2918 60.5616 15.1923 61.2125 15.1923C61.8786 15.1846 62.4605 15.2842 62.9582 15.4909C63.4636 15.69 63.8656 15.9656 64.1642 16.3178C64.4705 16.6701 64.658 17.0759 64.727 17.5353L64.7499 17.6731H67.2537L67.2422 17.5238C67.181 16.6509 66.8977 15.8737 66.3923 15.1923C65.887 14.5032 65.194 13.9557 64.3135 13.5499C63.4406 13.1441 62.4184 12.9412 61.2469 12.9412C60.0754 12.9412 59.0379 13.1479 58.1344 13.5614C57.2309 13.9672 56.5226 14.5338 56.0096 15.2612C55.4966 15.9886 55.2363 16.8308 55.2286 17.788V17.7994C55.2286 19.0169 55.6115 20.0161 56.3772 20.7971C57.1505 21.5781 58.3756 22.1524 60.0524 22.5199L61.8556 22.8989C62.9582 23.1363 63.7507 23.4655 64.2331 23.8866C64.7155 24.3001 64.9567 24.8246 64.9567 25.4601V25.4716C64.9567 25.9846 64.7997 26.4364 64.4858 26.8269C64.1795 27.2174 63.7545 27.5237 63.2109 27.7457C62.6673 27.9601 62.0432 28.0673 61.3388 28.0673C60.6037 28.0673 59.9452 27.9677 59.3633 27.7687C58.7891 27.5619 58.3297 27.2748 57.9851 26.9073C57.6405 26.5321 57.4415 26.0956 57.3879 25.5979L57.3764 25.4716H54.8496L54.8611 25.6209C54.9377 26.5551 55.2439 27.3743 55.7799 28.0788C56.3159 28.7755 57.0471 29.323 57.9736 29.7212C58.9001 30.1193 59.9874 30.3184 61.2354 30.3184Z" fill="#F7F7F9"/>
<path d="M72.3059 29.9164H74.8211V17.8798H76.119L74.3043 16.8921L83.504 29.9164H85.8355V13.3431H83.3203V25.3912H82.0339L83.8486 26.3789L74.6489 13.3431H72.3059V29.9164Z" fill="#F7F7F9"/>
<path d="M90.0722 29.9164H92.7828L97.3539 16.2489H98.1349V13.3431H96.0561L90.0722 29.9164ZM92.955 25.4372H101.948L101.224 23.3698H93.6786L92.955 25.4372ZM102.109 29.9164H104.819L98.847 13.3431H97.5377V16.2489L102.109 29.9164Z" fill="#F7F7F9"/>
<path d="M109.056 29.9164H111.64V22.9793H118.761V20.8086H111.64V15.5713H119.404V13.3431H109.056V29.9164Z" fill="#F7F7F9"/>
<path d="M130.796 30.3184C132.182 30.3184 133.377 30.0619 134.38 29.5489C135.383 29.0359 136.152 28.32 136.688 27.4011C137.232 26.4823 137.504 25.418 137.504 24.2082V13.3431H134.92V24.0015C134.92 25.2036 134.563 26.176 133.851 26.9188C133.139 27.6615 132.121 28.0328 130.796 28.0328C129.479 28.0328 128.457 27.6615 127.73 26.9188C127.01 26.176 126.65 25.2036 126.65 24.0015V13.3431H124.077V24.2082C124.077 25.418 124.345 26.4823 124.881 27.4011C125.425 28.32 126.198 29.0359 127.201 29.5489C128.212 30.0619 129.41 30.3184 130.796 30.3184Z" fill="#F7F7F9"/>
<rect x="10.8496" y="12.9412" width="20.7059" height="16.8235" fill="#BC423E"/>
<path fill-rule="evenodd" clip-rule="evenodd" d="M12.1434 2.58824V29.7647H39.3199V2.58824H12.1434ZM10.8493 0C10.1346 0 9.55518 0.579397 9.55518 1.29412V31.0588C9.55518 31.7735 10.1346 32.3529 10.8493 32.3529H40.614C41.3287 32.3529 41.9081 31.7735 41.9081 31.0588V1.29412C41.9081 0.579396 41.3287 0 40.614 0H10.8493Z" fill="#F7F7F9"/>
<path fill-rule="evenodd" clip-rule="evenodd" d="M3.08482 14.2352V41.4117H30.2613V14.2352H3.08482ZM1.7907 11.647C1.07598 11.647 0.496582 12.2264 0.496582 12.9411V42.7058C0.496582 43.4205 1.07598 43.9999 1.7907 43.9999H31.5554C32.2701 43.9999 32.8495 43.4205 32.8495 42.7058V12.9411C32.8495 12.2264 32.2701 11.647 31.5554 11.647H1.7907Z" fill="#F7F7F9"/>
</svg>
