<svg width="117" height="37" viewBox="0 0 117 37" fill="none" xmlns="http://www.w3.org/2000/svg">
<g clip-path="url(#clip0_1544_7106)">
<path d="M51.0759 25.495C52.1577 25.495 53.0977 25.3179 53.8962 24.9638C54.6945 24.6097 55.3094 24.1107 55.7408 23.4668C56.1787 22.8165 56.3975 22.0503 56.3975 21.1682V21.1585C56.3975 20.1219 56.0756 19.2944 55.4318 18.6764C54.7879 18.0582 53.7351 17.5946 52.2736 17.2856L50.7572 16.9475C49.8559 16.7609 49.2088 16.4968 48.816 16.1556C48.4232 15.8079 48.2268 15.3733 48.2268 14.8518V14.8421C48.2268 14.4107 48.3492 14.0405 48.5938 13.7314C48.8385 13.4224 49.1733 13.1873 49.5983 13.0264C50.0233 12.859 50.5093 12.7753 51.0567 12.7753C51.6168 12.7688 52.1061 12.8526 52.5247 13.0264C52.9496 13.1938 53.2877 13.4256 53.5388 13.7217C53.7964 14.018 53.9541 14.3592 54.012 14.7455L54.0313 14.8614H56.1368L56.1272 14.7359C56.0756 14.0018 55.8374 13.3483 55.4124 12.7753C54.9875 12.1958 54.4048 11.7354 53.6643 11.3942C52.9303 11.0529 52.0707 10.8823 51.0856 10.8823C50.1005 10.8823 49.228 11.0561 48.4683 11.4039C47.7085 11.7451 47.113 12.2216 46.6815 12.8332C46.2501 13.4449 46.0312 14.1531 46.0248 14.958V14.9676C46.0248 15.9914 46.3467 16.8317 46.9906 17.4884C47.6409 18.1452 48.6711 18.6281 50.0812 18.9371L51.5975 19.2558C52.5247 19.4555 53.1911 19.7323 53.5967 20.0864C54.0024 20.4341 54.2052 20.8752 54.2052 21.4096V21.4193C54.2052 21.8506 54.0732 22.2306 53.8092 22.5589C53.5517 22.8873 53.1943 23.1449 52.7371 23.3316C52.28 23.5119 51.7552 23.602 51.1629 23.602C50.5448 23.602 49.9911 23.5182 49.5017 23.3509C49.0188 23.177 48.6325 22.9356 48.3427 22.6265C48.053 22.311 47.8856 21.944 47.8405 21.5255L47.8309 21.4193H45.7061L45.7157 21.5448C45.7801 22.3304 46.0377 23.0192 46.4884 23.6117C46.9391 24.1975 47.554 24.6579 48.3331 24.9928C49.1122 25.3275 50.0265 25.495 51.0759 25.495Z" fill="#202023"/>
<path d="M60.385 25.157H62.5001V15.0353H63.5915L62.0655 14.2047L69.8016 25.157H71.7623V11.2203H69.6471V21.3517H68.5654L70.0914 22.1823L62.3553 11.2203H60.385V25.157Z" fill="#202023"/>
<path d="M75.325 25.157H77.6042L81.4481 13.6639H82.1049V11.2203H80.3568L75.325 25.157ZM77.7491 21.3904H85.311L84.703 19.6519H78.3575L77.7491 21.3904ZM85.4464 25.157H87.7261L82.7037 11.2203H81.6027V13.6639L85.4464 25.157Z" fill="#202023"/>
<path d="M91.2883 25.157H93.4621V19.3235H99.4502V17.4981H93.4621V13.0941H99.9909V11.2203H91.2883V25.157Z" fill="#202023"/>
<path d="M109.57 25.495C110.736 25.495 111.74 25.2793 112.583 24.8479C113.427 24.4166 114.074 23.8145 114.525 23.0418C114.982 22.2692 115.21 21.3742 115.21 20.3569V11.2203H113.038V20.1831C113.038 21.1939 112.738 22.0116 112.139 22.6363C111.541 23.2608 110.684 23.573 109.57 23.573C108.463 23.573 107.604 23.2608 106.991 22.6363C106.386 22.0116 106.084 21.1939 106.084 20.1831V11.2203H103.92V20.3569C103.92 21.3742 104.146 22.2692 104.597 23.0418C105.053 23.8145 105.704 24.4166 106.547 24.8479C107.398 25.2793 108.405 25.495 109.57 25.495Z" fill="#202023"/>
<path d="M8.70581 10.8823H26.1176V25.0294H8.70581V10.8823Z" fill="#BC423E"/>
<path fill-rule="evenodd" clip-rule="evenodd" d="M9.79388 2.17647V25.0294H32.6468V2.17647H9.79388ZM8.70566 0C8.10465 0 7.61743 0.48722 7.61743 1.08824V26.1176C7.61743 26.7186 8.10465 27.2058 8.70566 27.2058H33.7351C34.3361 27.2058 34.8233 26.7186 34.8233 26.1176V1.08824C34.8233 0.487219 34.3361 0 33.7351 0H8.70566Z" fill="#202023"/>
<path fill-rule="evenodd" clip-rule="evenodd" d="M2.17647 11.9706V34.8236H25.0294V11.9706H2.17647ZM1.08824 9.79419C0.487219 9.79419 0 10.2814 0 10.8824V35.9118C0 36.5128 0.48722 37 1.08824 37H26.1176C26.7186 37 27.2058 36.5128 27.2058 35.9118V10.8824C27.2058 10.2814 26.7186 9.79419 26.1176 9.79419H1.08824Z" fill="#202023"/>
</g>
<defs>
<clipPath id="clip0_1544_7106">
<rect width="116.045" height="37" fill="white"/>
</clipPath>
</defs>
</svg>
