<svg width="138" height="44" viewBox="0 0 138 44" fill="none" xmlns="http://www.w3.org/2000/svg">
<path d="M60.7388 30.3184C62.0252 30.3184 63.1431 30.1078 64.0926 29.6867C65.042 29.2656 65.7732 28.6722 66.2862 27.9065C66.8069 27.1332 67.0672 26.222 67.0672 25.173V25.1615C67.0672 23.9288 66.6844 22.9448 65.9187 22.2098C65.153 21.4747 63.9011 20.9234 62.163 20.5559L60.3598 20.1539C59.2879 19.9319 58.5184 19.6179 58.0513 19.2121C57.5842 18.7987 57.3507 18.2818 57.3507 17.6616V17.6501C57.3507 17.1371 57.4962 16.6969 57.7871 16.3293C58.0781 15.9618 58.4762 15.6823 58.9816 15.4909C59.487 15.2918 60.065 15.1923 60.7159 15.1923C61.382 15.1846 61.9639 15.2842 62.4616 15.4909C62.967 15.69 63.369 15.9656 63.6676 16.3178C63.9739 16.6701 64.1615 17.0759 64.2304 17.5353L64.2533 17.6731H66.7571L66.7457 17.5238C66.6844 16.6509 66.4011 15.8737 65.8957 15.1923C65.3904 14.5032 64.6974 13.9557 63.8169 13.5499C62.944 13.1441 61.9218 12.9412 60.7503 12.9412C59.5788 12.9412 58.5413 13.1479 57.6378 13.5614C56.7343 13.9672 56.0261 14.5338 55.513 15.2612C55 15.9886 54.7397 16.8308 54.732 17.788V17.7994C54.732 19.0169 55.1149 20.0161 55.8806 20.7971C56.6539 21.5781 57.879 22.1524 59.5559 22.5199L61.3591 22.8989C62.4616 23.1363 63.2541 23.4655 63.7365 23.8866C64.2189 24.3001 64.4601 24.8246 64.4601 25.4601V25.4716C64.4601 25.9846 64.3031 26.4364 63.9892 26.8269C63.6829 27.2174 63.258 27.5237 62.7143 27.7457C62.1707 27.9601 61.5466 28.0673 60.8422 28.0673C60.1072 28.0673 59.4487 27.9677 58.8667 27.7687C58.2925 27.5619 57.8331 27.2748 57.4885 26.9073C57.144 26.5321 56.9449 26.0956 56.8913 25.5979L56.8798 25.4716H54.353L54.3645 25.6209C54.4411 26.5551 54.7474 27.3743 55.2833 28.0788C55.8193 28.7755 56.5505 29.323 57.477 29.7212C58.4035 30.1193 59.4908 30.3184 60.7388 30.3184Z" fill="#202023"/>
<path d="M71.8093 29.9164H74.3246V17.8798H75.6224L73.8077 16.8921L83.0074 29.9164H85.339V13.3431H82.8237V25.3912H81.5373L83.352 26.3789L74.1523 13.3431H71.8093V29.9164Z" fill="#202023"/>
<path d="M89.5757 29.9164H92.2862L96.8573 16.2489H97.6383V13.3431H95.5595L89.5757 29.9164ZM92.4585 25.4372H101.451L100.728 23.3698H93.182L92.4585 25.4372ZM101.612 29.9164H104.323L98.3504 13.3431H97.0411V16.2489L101.612 29.9164Z" fill="#202023"/>
<path d="M108.559 29.9164H111.144V22.9793H118.265V20.8086H111.144V15.5713H118.908V13.3431H108.559V29.9164Z" fill="#202023"/>
<path d="M130.3 30.3184C131.686 30.3184 132.88 30.0619 133.883 29.5489C134.886 29.0359 135.656 28.32 136.192 27.4011C136.735 26.4823 137.007 25.418 137.007 24.2082V13.3431H134.423V24.0015C134.423 25.2036 134.067 26.176 133.355 26.9188C132.643 27.6615 131.624 28.0328 130.3 28.0328C128.983 28.0328 127.961 27.6615 127.233 26.9188C126.513 26.176 126.154 25.2036 126.154 24.0015V13.3431H123.581V24.2082C123.581 25.418 123.849 26.4823 124.385 27.4011C124.928 28.32 125.702 29.0359 126.705 29.5489C127.716 30.0619 128.914 30.3184 130.3 30.3184Z" fill="#202023"/>
<path d="M10.353 12.9412H31.0589V29.7647H10.353V12.9412Z" fill="#BC423E"/>
<path fill-rule="evenodd" clip-rule="evenodd" d="M11.6468 2.58824V29.7647H38.8233V2.58824H11.6468ZM10.3527 0C9.63799 0 9.05859 0.579397 9.05859 1.29412V31.0588C9.05859 31.7735 9.63799 32.3529 10.3527 32.3529H40.1174C40.8321 32.3529 41.4115 31.7735 41.4115 31.0588V1.29412C41.4115 0.579396 40.8321 0 40.1174 0H10.3527Z" fill="#202023"/>
<path fill-rule="evenodd" clip-rule="evenodd" d="M2.58824 14.2353V41.4118H29.7647V14.2353H2.58824ZM1.29412 11.6471C0.579396 11.6471 0 12.2265 0 12.9412V42.7059C0 43.4206 0.579397 44 1.29412 44H31.0588C31.7735 44 32.3529 43.4206 32.3529 42.7059V12.9412C32.3529 12.2265 31.7735 11.6471 31.0588 11.6471H1.29412Z" fill="#202023"/>
</svg>
