<svg width="180" height="42" viewBox="0 0 180 42" fill="none" xmlns="http://www.w3.org/2000/svg">
<path d="M40.4914 7.28285C40.3925 7.40643 31.1736 20.3574 30.4074 21.3708L29.7401 22.2853C28.2077 24.4355 26.7495 26.4622 23.7589 26.4622C20.8424 26.4622 18.3709 24.0401 18.2967 21.0742C18.2473 19.6654 18.8405 18.2319 19.9033 17.1691C20.9413 16.1063 22.3501 15.5132 23.7589 15.5379C25.0441 15.5626 27.3921 16.0075 28.7762 18.7262L29.0233 19.2452L34.6338 11.3857C32.1622 9.03767 27.6887 6.54138 23.7589 6.54138C15.8005 6.54138 9.32495 13.0169 9.32495 21C9.32495 28.9832 15.8005 35.4587 23.7589 35.4587C32.3105 35.4587 39.0332 29.527 43.3584 25.0781C46.7445 21.5685 56.3836 10.4465 56.3836 10.4465C57.2239 9.4084 57.0015 8.56807 56.8779 8.24677C56.6307 7.65359 56.0375 7.30757 55.3455 7.28285H55.3208H40.4914Z" fill="#FFDE11"/>
<path fill-rule="evenodd" clip-rule="evenodd" d="M38.0171 10.7459C39.419 8.78106 40.4586 7.32391 40.4915 7.28285H55.3209H55.3456C56.0376 7.30757 56.6308 7.65359 56.878 8.24677C57.0015 8.56807 57.224 9.4084 56.3837 10.4465C56.3837 10.4465 46.7446 21.5685 43.3585 25.0781C39.0333 29.527 32.3106 35.4587 23.759 35.4587C15.8006 35.4587 9.32505 28.9832 9.32505 21C9.32505 13.0169 15.8006 6.54138 23.759 6.54138C27.6888 6.54138 32.1623 9.03767 34.6339 11.3857L29.0234 19.2452L28.7763 18.7262C27.3922 16.0075 25.0442 15.5626 23.759 15.5379C22.3502 15.5132 20.9414 16.1063 19.9034 17.1691C18.8406 18.2319 18.2474 19.6654 18.2968 21.0742C18.371 24.0401 20.8425 26.4622 23.759 26.4622C26.7496 26.4622 28.2078 24.4355 29.7402 22.2853L30.4075 21.3708C30.9191 20.6941 35.1996 14.6947 38.0171 10.7459ZM23.7837 34.1735C30.0121 34.1735 35.7461 31.084 42.444 24.1884C45.5582 20.9506 55.2715 9.80385 55.2467 9.80385C55.7411 9.26011 55.7411 9.11181 55.7163 8.91409C55.6916 8.69165 55.5186 8.56807 55.3209 8.56807H41.1588C39.3793 11.0644 32.1129 21.2225 31.4456 22.137L30.803 23.0267L30.7605 23.0858C29.1892 25.2713 27.4089 27.7474 23.7837 27.7474C20.1752 27.7474 17.1352 24.7568 17.0363 21.0989C16.9869 19.3441 17.7037 17.5646 19.0136 16.2546C20.2988 14.9447 22.0536 14.228 23.8084 14.2527C25.1678 14.2774 27.3675 14.6481 29.147 16.8972L32.9285 11.6081C30.5805 9.68027 26.972 7.8266 23.7837 7.8266C16.542 7.8266 10.635 13.7336 10.635 21C10.635 28.2665 16.5173 34.1735 23.7837 34.1735ZM2.08341 7.23339L14.0952 7.25811C6.47771 12.6255 6.90649 20.9492 6.95006 21.7951C6.95244 21.8412 6.95367 21.8651 6.95239 21.8651L0.402744 10.3476C-0.388157 9.03764 0.229732 8.07373 0.229732 8.07373C0.748761 7.15925 2.08341 7.23339 2.08341 7.23339Z" fill="#FFDE11"/>
<path fill-rule="evenodd" clip-rule="evenodd" d="M38.0171 10.7459C39.419 8.78106 40.4586 7.32391 40.4915 7.28285H55.3209H55.3456C56.0376 7.30757 56.6308 7.65359 56.878 8.24677C57.0015 8.56807 57.224 9.4084 56.3837 10.4465C56.3837 10.4465 46.7446 21.5685 43.3585 25.0781C39.0333 29.527 32.3106 35.4587 23.759 35.4587C15.8006 35.4587 9.32505 28.9832 9.32505 21C9.32505 13.0169 15.8006 6.54138 23.759 6.54138C27.6888 6.54138 32.1623 9.03767 34.6339 11.3857L29.0234 19.2452L28.7763 18.7262C27.3922 16.0075 25.0442 15.5626 23.759 15.5379C22.3502 15.5132 20.9414 16.1063 19.9034 17.1691C18.8406 18.2319 18.2474 19.6654 18.2968 21.0742C18.371 24.0401 20.8425 26.4622 23.759 26.4622C26.7496 26.4622 28.2078 24.4355 29.7402 22.2853L30.4075 21.3708C30.9191 20.6941 35.1996 14.6947 38.0171 10.7459ZM23.7837 34.1735C30.0121 34.1735 35.7461 31.084 42.444 24.1884C45.5582 20.9506 55.2715 9.80385 55.2467 9.80385C55.7411 9.26011 55.7411 9.11181 55.7163 8.91409C55.6916 8.69165 55.5186 8.56807 55.3209 8.56807H41.1588C39.3793 11.0644 32.1129 21.2225 31.4456 22.137L30.803 23.0267L30.7605 23.0858C29.1892 25.2713 27.4089 27.7474 23.7837 27.7474C20.1752 27.7474 17.1352 24.7568 17.0363 21.0989C16.9869 19.3441 17.7037 17.5646 19.0136 16.2546C20.2988 14.9447 22.0536 14.228 23.8084 14.2527C25.1678 14.2774 27.3675 14.6481 29.147 16.8972L32.9285 11.6081C30.5805 9.68027 26.972 7.8266 23.7837 7.8266C16.542 7.8266 10.635 13.7336 10.635 21C10.635 28.2665 16.5173 34.1735 23.7837 34.1735ZM2.08341 7.23339L14.0952 7.25811C6.47771 12.6255 6.90649 20.9492 6.95006 21.7951C6.95244 21.8412 6.95367 21.8651 6.95239 21.8651L0.402744 10.3476C-0.388157 9.03764 0.229732 8.07373 0.229732 8.07373C0.748761 7.15925 2.08341 7.23339 2.08341 7.23339Z" fill="#FFDE11"/>
<path d="M69.1222 27.5H67.4602L72.267 14.4091H73.9034L78.7102 27.5H77.0483L73.1364 16.4801H73.0341L69.1222 27.5ZM69.7358 22.3864H76.4347V23.7926H69.7358V22.3864ZM86.7322 23.4858V17.6818H88.2408V27.5H86.7322V25.8381H86.63C86.3999 26.3366 86.0419 26.7607 85.5561 27.1101C85.0703 27.4553 84.4567 27.6278 83.7152 27.6278C83.1016 27.6278 82.5561 27.4936 82.0788 27.2251C81.6016 26.9524 81.2266 26.5433 80.9538 25.9979C80.6811 25.4482 80.5447 24.7557 80.5447 23.9205V17.6818H82.0533V23.8182C82.0533 24.5341 82.2536 25.1051 82.6541 25.5312C83.0589 25.9574 83.5746 26.1705 84.201 26.1705C84.576 26.1705 84.9574 26.0746 85.3452 25.8828C85.7372 25.6911 86.0653 25.397 86.3295 25.0007C86.598 24.6044 86.7322 24.0994 86.7322 23.4858ZM97.9583 19.8807L96.6032 20.2642C96.5179 20.0384 96.3922 19.8189 96.226 19.6058C96.0641 19.3885 95.8425 19.2095 95.5613 19.0689C95.28 18.9283 94.9199 18.858 94.481 18.858C93.8801 18.858 93.3794 18.9964 92.9789 19.2734C92.5826 19.5462 92.3844 19.8935 92.3844 20.3153C92.3844 20.6903 92.5208 20.9865 92.7935 21.2038C93.0662 21.4212 93.4924 21.6023 94.0719 21.7472L95.5293 22.1051C96.4071 22.3182 97.0613 22.6442 97.4917 23.0831C97.9221 23.5178 98.1373 24.0781 98.1373 24.7642C98.1373 25.3267 97.9753 25.8295 97.6515 26.2727C97.3319 26.7159 96.8844 27.0653 96.3091 27.321C95.7338 27.5767 95.0648 27.7045 94.302 27.7045C93.3006 27.7045 92.4718 27.4872 91.8155 27.0526C91.1593 26.6179 90.7438 25.983 90.5691 25.1477L92.0009 24.7898C92.1373 25.3182 92.3951 25.7145 92.7743 25.9787C93.1578 26.2429 93.6586 26.375 94.2765 26.375C94.9796 26.375 95.5378 26.2259 95.9512 25.9276C96.3688 25.625 96.5776 25.2628 96.5776 24.8409C96.5776 24.5 96.4583 24.2145 96.2196 23.9844C95.981 23.75 95.6145 23.5753 95.1202 23.4602L93.4838 23.0767C92.5847 22.8636 91.9242 22.5334 91.5023 22.0859C91.0847 21.6342 90.8759 21.0696 90.8759 20.392C90.8759 19.8381 91.0314 19.348 91.3425 18.9219C91.6578 18.4957 92.0861 18.1612 92.6273 17.9183C93.1728 17.6754 93.7907 17.554 94.481 17.554C95.4526 17.554 96.2154 17.767 96.7694 18.1932C97.3276 18.6193 97.7239 19.1818 97.9583 19.8807ZM104.678 17.6818V18.9602H99.5898V17.6818H104.678ZM101.073 15.3295H102.581V24.6875C102.581 25.1136 102.643 25.4332 102.767 25.6463C102.895 25.8551 103.056 25.9957 103.252 26.0682C103.453 26.1364 103.664 26.1705 103.885 26.1705C104.051 26.1705 104.188 26.1619 104.294 26.1449C104.401 26.1236 104.486 26.1065 104.55 26.0938L104.857 27.4489C104.755 27.4872 104.612 27.5256 104.429 27.5639C104.245 27.6065 104.013 27.6278 103.732 27.6278C103.306 27.6278 102.888 27.5362 102.479 27.353C102.074 27.1697 101.738 26.8906 101.469 26.5156C101.205 26.1406 101.073 25.6676 101.073 25.0966V15.3295ZM106.947 27.5V17.6818H108.404V19.1648H108.507C108.686 18.679 109.01 18.2848 109.478 17.9822C109.947 17.6797 110.475 17.5284 111.064 17.5284C111.174 17.5284 111.313 17.5305 111.479 17.5348C111.645 17.5391 111.771 17.5455 111.856 17.554V19.0881C111.805 19.0753 111.688 19.0561 111.505 19.0305C111.326 19.0007 111.136 18.9858 110.936 18.9858C110.458 18.9858 110.032 19.0859 109.657 19.2862C109.287 19.4822 108.993 19.755 108.775 20.1044C108.562 20.4496 108.456 20.8437 108.456 21.2869V27.5H106.947ZM113.644 27.5V17.6818H115.153V27.5H113.644ZM114.411 16.0455C114.117 16.0455 113.864 15.9453 113.651 15.745C113.442 15.5447 113.338 15.304 113.338 15.0227C113.338 14.7415 113.442 14.5007 113.651 14.3004C113.864 14.1001 114.117 14 114.411 14C114.705 14 114.957 14.1001 115.166 14.3004C115.379 14.5007 115.485 14.7415 115.485 15.0227C115.485 15.304 115.379 15.5447 115.166 15.745C114.957 15.9453 114.705 16.0455 114.411 16.0455ZM120.805 27.7301C120.183 27.7301 119.618 27.6129 119.111 27.3786C118.604 27.1399 118.201 26.7969 117.903 26.3494C117.605 25.8977 117.456 25.3523 117.456 24.7131C117.456 24.1506 117.566 23.6946 117.788 23.3452C118.01 22.9915 118.306 22.7145 118.676 22.5142C119.047 22.3139 119.456 22.1648 119.904 22.0668C120.355 21.9645 120.809 21.8835 121.265 21.8239C121.862 21.7472 122.346 21.6896 122.716 21.6513C123.091 21.6087 123.364 21.5384 123.534 21.4403C123.709 21.3423 123.797 21.1719 123.797 20.929V20.8778C123.797 20.2472 123.624 19.7571 123.279 19.4077C122.938 19.0582 122.42 18.8835 121.725 18.8835C121.005 18.8835 120.441 19.0412 120.032 19.3565C119.623 19.6719 119.335 20.0085 119.169 20.3665L117.737 19.8551C117.993 19.2585 118.333 18.794 118.76 18.4616C119.19 18.125 119.659 17.8906 120.166 17.7585C120.677 17.6222 121.18 17.554 121.674 17.554C121.99 17.554 122.352 17.5923 122.761 17.669C123.174 17.7415 123.573 17.8928 123.956 18.1229C124.344 18.353 124.666 18.7003 124.922 19.1648C125.177 19.6293 125.305 20.2514 125.305 21.0312V27.5H123.797V26.1705H123.72C123.618 26.3835 123.447 26.6115 123.208 26.8544C122.97 27.0973 122.652 27.304 122.256 27.4744C121.86 27.6449 121.376 27.7301 120.805 27.7301ZM121.035 26.375C121.632 26.375 122.135 26.2578 122.544 26.0234C122.957 25.7891 123.268 25.4865 123.477 25.1158C123.69 24.745 123.797 24.3551 123.797 23.946V22.5653C123.733 22.642 123.592 22.7124 123.375 22.7763C123.162 22.8359 122.914 22.8892 122.633 22.9361C122.356 22.9787 122.086 23.017 121.821 23.0511C121.561 23.081 121.35 23.1065 121.189 23.1278C120.797 23.179 120.43 23.2621 120.089 23.3771C119.752 23.4879 119.48 23.6562 119.271 23.8821C119.066 24.1037 118.964 24.4062 118.964 24.7898C118.964 25.3139 119.158 25.7102 119.546 25.9787C119.938 26.2429 120.434 26.375 121.035 26.375ZM129.567 21.5938V27.5H128.058V17.6818H129.516V19.2159H129.644C129.874 18.7173 130.223 18.3168 130.692 18.0142C131.161 17.7074 131.766 17.554 132.507 17.554C133.172 17.554 133.754 17.6903 134.252 17.9631C134.751 18.2315 135.139 18.6406 135.416 19.1903C135.693 19.7358 135.831 20.4261 135.831 21.2614V27.5H134.323V21.3636C134.323 20.5923 134.122 19.9915 133.722 19.5611C133.321 19.1264 132.771 18.9091 132.073 18.9091C131.591 18.9091 131.161 19.0135 130.781 19.2223C130.406 19.4311 130.11 19.7358 129.893 20.1364C129.676 20.5369 129.567 21.0227 129.567 21.5938ZM143.65 31.1818V17.6818H145.108V19.2415H145.287C145.397 19.071 145.551 18.8537 145.747 18.5895C145.947 18.321 146.233 18.0824 146.603 17.8736C146.978 17.6605 147.485 17.554 148.125 17.554C148.951 17.554 149.68 17.7607 150.311 18.174C150.941 18.5874 151.434 19.1733 151.787 19.9318C152.141 20.6903 152.318 21.5852 152.318 22.6165C152.318 23.6562 152.141 24.5575 151.787 25.3203C151.434 26.0788 150.944 26.6669 150.317 27.0845C149.691 27.4979 148.968 27.7045 148.15 27.7045C147.52 27.7045 147.015 27.6001 146.635 27.3913C146.256 27.1783 145.964 26.9375 145.76 26.669C145.555 26.3963 145.397 26.1705 145.287 25.9915H145.159V31.1818H143.65ZM145.133 22.5909C145.133 23.3324 145.242 23.9865 145.459 24.5533C145.676 25.1158 145.994 25.5568 146.412 25.8764C146.829 26.1918 147.341 26.3494 147.946 26.3494C148.576 26.3494 149.103 26.1832 149.525 25.8509C149.951 25.5142 150.27 25.0625 150.483 24.4957C150.701 23.9247 150.809 23.2898 150.809 22.5909C150.809 21.9006 150.703 21.2784 150.49 20.7244C150.281 20.1662 149.963 19.7251 149.537 19.4013C149.115 19.0732 148.585 18.9091 147.946 18.9091C147.332 18.9091 146.816 19.0646 146.399 19.3757C145.981 19.6825 145.666 20.1129 145.453 20.6669C145.24 21.2166 145.133 21.858 145.133 22.5909ZM158.608 27.7045C157.721 27.7045 156.944 27.4936 156.275 27.0717C155.61 26.6499 155.09 26.0597 154.715 25.3011C154.344 24.5426 154.159 23.6562 154.159 22.642C154.159 21.6193 154.344 20.7266 154.715 19.9638C155.09 19.201 155.61 18.6087 156.275 18.1868C156.944 17.7649 157.721 17.554 158.608 17.554C159.494 17.554 160.27 17.7649 160.934 18.1868C161.603 18.6087 162.123 19.201 162.494 19.9638C162.869 20.7266 163.056 21.6193 163.056 22.642C163.056 23.6562 162.869 24.5426 162.494 25.3011C162.123 26.0597 161.603 26.6499 160.934 27.0717C160.27 27.4936 159.494 27.7045 158.608 27.7045ZM158.608 26.3494C159.281 26.3494 159.835 26.1768 160.27 25.8317C160.704 25.4865 161.026 25.0327 161.235 24.4702C161.444 23.9077 161.548 23.2983 161.548 22.642C161.548 21.9858 161.444 21.3743 161.235 20.8075C161.026 20.2408 160.704 19.7827 160.27 19.4332C159.835 19.0838 159.281 18.9091 158.608 18.9091C157.934 18.9091 157.38 19.0838 156.946 19.4332C156.511 19.7827 156.189 20.2408 155.98 20.8075C155.772 21.3743 155.667 21.9858 155.667 22.642C155.667 23.2983 155.772 23.9077 155.98 24.4702C156.189 25.0327 156.511 25.4865 156.946 25.8317C157.38 26.1768 157.934 26.3494 158.608 26.3494ZM172.314 19.8807L170.959 20.2642C170.873 20.0384 170.748 19.8189 170.581 19.6058C170.42 19.3885 170.198 19.2095 169.917 19.0689C169.635 18.9283 169.275 18.858 168.836 18.858C168.236 18.858 167.735 18.9964 167.334 19.2734C166.938 19.5462 166.74 19.8935 166.74 20.3153C166.74 20.6903 166.876 20.9865 167.149 21.2038C167.422 21.4212 167.848 21.6023 168.427 21.7472L169.885 22.1051C170.763 22.3182 171.417 22.6442 171.847 23.0831C172.278 23.5178 172.493 24.0781 172.493 24.7642C172.493 25.3267 172.331 25.8295 172.007 26.2727C171.687 26.7159 171.24 27.0653 170.665 27.321C170.089 27.5767 169.42 27.7045 168.657 27.7045C167.656 27.7045 166.827 27.4872 166.171 27.0526C165.515 26.6179 165.099 25.983 164.925 25.1477L166.356 24.7898C166.493 25.3182 166.751 25.7145 167.13 25.9787C167.513 26.2429 168.014 26.375 168.632 26.375C169.335 26.375 169.893 26.2259 170.307 25.9276C170.724 25.625 170.933 25.2628 170.933 24.8409C170.933 24.5 170.814 24.2145 170.575 23.9844C170.336 23.75 169.97 23.5753 169.476 23.4602L167.839 23.0767C166.94 22.8636 166.28 22.5334 165.858 22.0859C165.44 21.6342 165.231 21.0696 165.231 20.392C165.231 19.8381 165.387 19.348 165.698 18.9219C166.013 18.4957 166.442 18.1612 166.983 17.9183C167.528 17.6754 168.146 17.554 168.836 17.554C169.808 17.554 170.571 17.767 171.125 18.1932C171.683 18.6193 172.079 19.1818 172.314 19.8807ZM179.033 17.6818V18.9602H173.945V17.6818H179.033ZM175.428 15.3295H176.937V24.6875C176.937 25.1136 176.999 25.4332 177.122 25.6463C177.25 25.8551 177.412 25.9957 177.608 26.0682C177.808 26.1364 178.019 26.1705 178.241 26.1705C178.407 26.1705 178.543 26.1619 178.65 26.1449C178.756 26.1236 178.842 26.1065 178.906 26.0938L179.212 27.4489C179.11 27.4872 178.967 27.5256 178.784 27.5639C178.601 27.6065 178.369 27.6278 178.087 27.6278C177.661 27.6278 177.244 27.5362 176.835 27.353C176.43 27.1697 176.093 26.8906 175.825 26.5156C175.56 26.1406 175.428 25.6676 175.428 25.0966V15.3295Z" fill="#0E1220"/>
</svg>
