<svg width="184" height="60" viewBox="0 0 184 60" fill="none" xmlns="http://www.w3.org/2000/svg">
<g style="mix-blend-mode:multiply">
<path d="M0 0H42V56C42 58.2091 40.2091 60 38 60H4C1.79086 60 0 58.2091 0 56V0Z" fill="#E22440"/>
<path d="M0.5 0.5H41.5V56C41.5 57.933 39.933 59.5 38 59.5H4C2.067 59.5 0.5 57.933 0.5 56V0.5Z" stroke="url(#paint0_linear_329_409)" stroke-opacity="0.3"/>
</g>
<path d="M24.7478 50.4018L22.1797 47.8118C21.4504 47.0763 20.2712 47.0763 19.5496 47.8118L16.9816 50.4018C16.229 51.1608 15.0032 51.1608 14.2506 50.4018L13.0093 49.1499L16.9428 45.1827C19.1074 42.9996 22.6142 42.9996 24.7788 45.1827L28.7123 49.1499L27.471 50.4018C26.7262 51.1608 25.5081 51.1608 24.7478 50.4018Z" fill="white"/>
<path d="M10.8058 46.9197L9.56442 45.6678C8.81186 44.9088 8.81186 43.6725 9.56442 42.9135L12.1325 40.3235C12.8618 39.588 12.8618 38.3986 12.1325 37.6709L9.56442 35.081C8.81186 34.322 8.81186 33.0857 9.56442 32.3267L10.8058 31.0747L14.7393 35.0418C16.9039 37.2249 16.9039 40.7617 14.7393 42.9448L10.8058 46.9197Z" fill="white"/>
<path d="M20.8994 34.4237C19.4796 34.4237 18.0598 33.8838 16.9814 32.7883L13.0479 28.8212L14.2892 27.5692C15.0418 26.8103 16.2676 26.8103 17.0202 27.5692L19.5882 30.1592C20.3097 30.8869 21.4968 30.8869 22.2183 30.1592L24.7863 27.5692C25.5389 26.8103 26.7647 26.8103 27.5173 27.5692L28.7586 28.8212L24.8251 32.7883C23.7389 33.8681 22.3192 34.4237 20.8994 34.4237Z" fill="white"/>
<path d="M30.9622 46.8885L27.0287 42.9214C24.8641 40.7383 24.8641 37.2015 27.0287 35.0184L30.9622 31.0513L32.2036 32.3032C32.9562 33.0622 32.9562 34.2985 32.2036 35.0575L29.6356 37.6475C28.9063 38.383 28.9063 39.5724 29.6356 40.3001L32.2036 42.8901C32.9562 43.6491 32.9562 44.8854 32.2036 45.6444L30.9622 46.8885Z" fill="white"/>
<g clip-path="url(#clip0_329_409)">
<path d="M48.3087 33.6011C48.5492 33.6011 48.6113 33.6637 48.6811 33.7576L51.8077 37.9673H51.9163L54.9344 33.781C55.0197 33.6715 55.1516 33.6089 55.3223 33.6089H57.2153C57.4093 33.6089 57.4791 33.781 57.386 33.8906L53.1499 39.2583L57.867 45.2364C57.9757 45.3929 57.9136 45.5416 57.7119 45.5416H55.8033C55.6326 45.5416 55.4775 45.479 55.3688 45.3225L51.8465 40.5494H51.7379L48.3785 45.3068C48.2466 45.4633 48.0992 45.5494 47.9208 45.5494H46.0277C45.8725 45.5494 45.7872 45.4164 45.8958 45.2677L50.5431 39.3053L46.3536 33.9375C46.2682 33.781 46.307 33.6089 46.5087 33.6089H48.3087V33.6011Z" fill="#151516"/>
<path d="M67.0375 33.6011C69.6211 33.6011 71.4908 35.4868 71.4908 37.8734C71.4908 40.3303 69.6211 42.1691 67.0375 42.1691H63.2824V45.2364C63.2824 45.432 63.1971 45.5416 63.0187 45.5416H61.6066C61.4127 45.5416 61.304 45.432 61.304 45.2364V33.9141C61.304 33.7184 61.4127 33.6089 61.6066 33.6089H67.0375V33.6011ZM67.0375 40.3069C68.6202 40.3069 69.5124 39.274 69.5124 37.8734C69.5124 36.4962 68.6202 35.4634 67.0375 35.4634H63.2824V40.3069H67.0375Z" fill="#151516"/>
<path d="M75.6417 42.8027C76.4253 42.8027 77.1003 43.46 77.1003 44.2503C77.1003 45.0406 76.4253 45.7214 75.6417 45.7214C74.8581 45.7214 74.2064 45.0406 74.2064 44.2503C74.2064 43.46 74.8581 42.8027 75.6417 42.8027Z" fill="#151516"/>
<path d="M90.1964 45.5416C90.0412 45.5416 89.9171 45.479 89.824 45.346L85.937 40.3929L83.0509 36.3867L82.9423 36.4101L83.0742 39.9626V45.2442C83.0742 45.4398 82.9656 45.5494 82.7483 45.5494H81.3828C81.2121 45.5494 81.119 45.4398 81.119 45.2442V33.9141C81.119 33.7184 81.2044 33.6089 81.3984 33.6089H82.6785C82.8957 33.6089 83.0664 33.6715 83.175 33.828L87.3491 39.0862L89.9559 42.7247L90.0645 42.7012L89.9093 39.1723V33.9141C89.9093 33.7184 90.018 33.6089 90.2119 33.6089H91.5774C91.7714 33.6089 91.8567 33.7184 91.8567 33.9141V45.2442C91.8567 45.4398 91.7714 45.5494 91.5774 45.5494H90.1964V45.5416Z" fill="#151516"/>
<path d="M105.054 33.6011C105.209 33.6011 105.356 33.7341 105.356 33.9062V35.1582C105.356 35.3147 105.201 35.4399 105.054 35.4399H98.1875V38.3976H104.441C104.635 38.3976 104.743 38.5072 104.743 38.7028V39.9547C104.743 40.1504 104.635 40.2364 104.441 40.2364H98.1875V43.6793H105.271C105.465 43.6793 105.55 43.7654 105.55 43.9453V45.2364C105.55 45.432 105.465 45.5416 105.271 45.5416H96.4962C96.3022 45.5416 96.2169 45.432 96.2169 45.2364V33.9141C96.2169 33.7184 96.3022 33.6089 96.4962 33.6089H105.054V33.6011Z" fill="#151516"/>
<path d="M119.128 33.6011C119.321 33.6011 119.43 33.7106 119.43 33.9062V35.1582C119.43 35.3538 119.321 35.4634 119.128 35.4634H115.109V45.2364C115.109 45.3929 115 45.5416 114.806 45.5416H113.441C113.247 45.5416 113.138 45.432 113.138 45.2364V35.4634H109.119C108.925 35.4634 108.817 35.3538 108.817 35.1582V33.9062C108.817 33.7106 108.925 33.6011 109.119 33.6011H119.128Z" fill="#151516"/>
<path d="M124.194 33.6011C124.388 33.6011 124.496 33.6637 124.543 33.8202L127.282 43.2176H127.39L130.02 33.8202C130.067 33.6637 130.175 33.6011 130.323 33.6011H131.781C131.937 33.6011 132.045 33.6637 132.084 33.8202L134.776 43.2176H134.885L137.6 33.8436C137.647 33.6871 137.755 33.6011 137.903 33.6011H139.509C139.703 33.6011 139.773 33.6871 139.703 33.8828L136.01 45.2755C135.948 45.4477 135.816 45.5416 135.637 45.5416H133.837C133.667 45.5416 133.558 45.4555 133.488 45.2599L131.099 36.8718H130.99L128.624 45.2834C128.577 45.4555 128.469 45.5494 128.321 45.5494H126.498C126.304 45.5494 126.172 45.4633 126.11 45.2834L122.394 33.8436C122.332 33.6871 122.394 33.6011 122.588 33.6011H124.194Z" fill="#151516"/>
<path d="M148.765 33.4287C152.194 33.4287 154.871 36.0109 154.871 39.5868C154.871 43.1392 152.202 45.7213 148.765 45.7213C145.335 45.7213 142.659 43.1392 142.659 39.5868C142.659 36.0109 145.328 33.4287 148.765 33.4287ZM144.653 39.5868C144.653 42.0437 146.329 43.859 148.757 43.859C151.193 43.859 152.861 42.0437 152.861 39.5868C152.861 37.1142 151.185 35.291 148.757 35.291C146.329 35.291 144.653 37.1063 144.653 39.5868Z" fill="#151516"/>
<path d="M164.514 33.6011C167.098 33.6011 168.991 35.4868 168.991 37.8734C168.991 39.54 168.099 40.9407 166.733 41.6449L168.712 45.1973C168.82 45.3929 168.712 45.5494 168.471 45.5494H166.888C166.694 45.5494 166.539 45.3929 166.454 45.2442L164.871 42.1535C164.809 42.177 164.7 42.177 164.569 42.177H160.767V45.2442C160.767 45.4399 160.682 45.5494 160.488 45.5494H159.122C158.882 45.5494 158.796 45.3929 158.796 45.2442V33.9141C158.796 33.7184 158.905 33.6089 159.099 33.6089H164.514V33.6011ZM164.514 40.3068C166.097 40.3068 167.012 39.274 167.012 37.8734C167.012 36.4962 166.097 35.4634 164.514 35.4634H160.759V40.3068H164.514Z" fill="#151516"/>
<path d="M174.786 33.6006C174.98 33.6006 175.089 33.7101 175.089 33.9057V39.164L180.69 33.8432C180.846 33.6867 181.063 33.6006 181.319 33.6006H183.274C183.468 33.6006 183.553 33.7962 183.406 33.9527L178.192 38.7492L183.685 45.1655C183.84 45.322 183.747 45.5411 183.514 45.5411H181.777C181.513 45.5411 181.296 45.455 181.125 45.2594L176.757 40.0481L175.081 41.4096V45.2438C175.081 45.4394 174.972 45.5489 174.779 45.5489H173.413C173.219 45.5489 173.11 45.4394 173.11 45.2438V33.9136C173.11 33.718 173.219 33.6084 173.413 33.6084H174.786V33.6006Z" fill="#151516"/>
</g>
<defs>
<linearGradient id="paint0_linear_329_409" x1="19.5" y1="71.5" x2="18" y2="53" gradientUnits="userSpaceOnUse">
<stop/>
<stop offset="1" stop-opacity="0"/>
</linearGradient>
<clipPath id="clip0_329_409">
<rect width="138" height="24" fill="white" transform="translate(46 27)"/>
</clipPath>
</defs>
</svg>
