<svg width="188" height="60" viewBox="0 0 188 60" fill="none" xmlns="http://www.w3.org/2000/svg">
<path d="M52.3088 34.1008C52.5493 34.1008 52.6114 34.1634 52.6812 34.2573L55.8079 38.467H55.9165L58.9345 34.2808C59.0199 34.1713 59.1518 34.1087 59.3224 34.1087H61.2155C61.4095 34.1087 61.4793 34.2808 61.3862 34.3903L57.1501 39.7581L61.8672 45.7362C61.9758 45.8927 61.9138 46.0413 61.712 46.0413H59.8035C59.6328 46.0413 59.4776 45.9787 59.369 45.8222L55.8467 41.0492H55.7381L52.3787 45.8066C52.2468 45.9631 52.0994 46.0492 51.9209 46.0492H50.0279C49.8727 46.0492 49.7873 45.9161 49.896 45.7675L54.5433 39.805L50.3537 34.4373C50.2684 34.2808 50.3072 34.1087 50.5089 34.1087H52.3088V34.1008Z" fill="white"/>
<path d="M71.0377 34.1008C73.6212 34.1008 75.491 35.9866 75.491 38.3731C75.491 40.8301 73.6212 42.6689 71.0377 42.6689H67.2826V45.7362C67.2826 45.9318 67.1973 46.0413 67.0188 46.0413H65.6068C65.4128 46.0413 65.3042 45.9318 65.3042 45.7362V34.4138C65.3042 34.2182 65.4128 34.1087 65.6068 34.1087H71.0377V34.1008ZM71.0377 40.8066C72.6204 40.8066 73.5126 39.7737 73.5126 38.3731C73.5126 36.996 72.6204 35.9631 71.0377 35.9631H67.2826V40.8066H71.0377Z" fill="white"/>
<path d="M79.6419 43.3027C80.4255 43.3027 81.1004 43.96 81.1004 44.7503C81.1004 45.5406 80.4255 46.2214 79.6419 46.2214C78.8583 46.2214 78.2065 45.5406 78.2065 44.7503C78.2065 43.96 78.8583 43.3027 79.6419 43.3027Z" fill="white"/>
<path d="M94.1965 46.0413C94.0413 46.0413 93.9172 45.9787 93.8241 45.8457L89.9371 40.8927L87.051 36.8864L86.9424 36.9099L87.0743 40.4623V45.744C87.0743 45.9396 86.9656 46.0492 86.7484 46.0492H85.3829C85.2122 46.0492 85.1191 45.9396 85.1191 45.744V34.4138C85.1191 34.2182 85.2045 34.1086 85.3984 34.1086H86.6786C86.8958 34.1086 87.0665 34.1712 87.1751 34.3277L91.3491 39.5859L93.956 43.2244L94.0646 43.201L93.9094 39.672V34.4138C93.9094 34.2182 94.018 34.1086 94.212 34.1086H95.5775C95.7714 34.1086 95.8568 34.2182 95.8568 34.4138V45.744C95.8568 45.9396 95.7714 46.0492 95.5775 46.0492H94.1965V46.0413Z" fill="white"/>
<path d="M109.054 34.1008C109.209 34.1008 109.357 34.2338 109.357 34.406V35.6579C109.357 35.8144 109.202 35.9396 109.054 35.9396H102.188V38.8974H108.441C108.635 38.8974 108.744 39.0069 108.744 39.2025V40.4545C108.744 40.6501 108.635 40.7362 108.441 40.7362H102.188V44.1791H109.271C109.465 44.1791 109.551 44.2651 109.551 44.4451V45.7362C109.551 45.9318 109.465 46.0413 109.271 46.0413H100.497C100.303 46.0413 100.217 45.9318 100.217 45.7362V34.4138C100.217 34.2182 100.303 34.1087 100.497 34.1087H109.054V34.1008Z" fill="white"/>
<path d="M123.128 34.1008C123.322 34.1008 123.43 34.2104 123.43 34.406V35.6579C123.43 35.8536 123.322 35.9631 123.128 35.9631H119.109V45.7362C119.109 45.8927 119 46.0413 118.806 46.0413H117.441C117.247 46.0413 117.138 45.9318 117.138 45.7362V35.9631H113.119C112.926 35.9631 112.817 35.8536 112.817 35.6579V34.406C112.817 34.2104 112.926 34.1008 113.119 34.1008H123.128Z" fill="white"/>
<path d="M128.194 34.1008C128.388 34.1008 128.496 34.1634 128.543 34.3199L131.282 43.7174H131.39L134.02 34.3199C134.067 34.1634 134.175 34.1008 134.323 34.1008H135.781C135.937 34.1008 136.045 34.1634 136.084 34.3199L138.776 43.7174H138.885L141.6 34.3434C141.647 34.1869 141.755 34.1008 141.903 34.1008H143.509C143.703 34.1008 143.773 34.1869 143.703 34.3825L140.01 45.7753C139.948 45.9474 139.816 46.0413 139.637 46.0413H137.837C137.667 46.0413 137.558 45.9553 137.488 45.7596L135.099 37.3716H134.99L132.624 45.7831C132.577 45.9553 132.469 46.0492 132.321 46.0492H130.498C130.304 46.0492 130.172 45.9631 130.11 45.7831L126.394 34.3434C126.332 34.1869 126.394 34.1008 126.588 34.1008H128.194Z" fill="white"/>
<path d="M152.765 33.9287C156.194 33.9287 158.871 36.5109 158.871 40.0868C158.871 43.6392 156.202 46.2213 152.765 46.2213C149.336 46.2213 146.659 43.6392 146.659 40.0868C146.659 36.5109 149.328 33.9287 152.765 33.9287ZM148.653 40.0868C148.653 42.5437 150.329 44.359 152.757 44.359C155.193 44.359 156.862 42.5437 156.862 40.0868C156.862 37.6142 155.186 35.791 152.757 35.791C150.329 35.791 148.653 37.6063 148.653 40.0868Z" fill="white"/>
<path d="M168.514 34.1008C171.098 34.1008 172.991 35.9866 172.991 38.3731C172.991 40.0398 172.099 41.4404 170.733 42.1446L172.712 45.697C172.82 45.8927 172.712 46.0492 172.471 46.0492H170.888C170.694 46.0492 170.539 45.8927 170.454 45.744L168.871 42.6532C168.809 42.6767 168.701 42.6767 168.569 42.6767H164.767V45.744C164.767 45.9396 164.682 46.0492 164.488 46.0492H163.122C162.882 46.0492 162.796 45.8927 162.796 45.744V34.4138C162.796 34.2182 162.905 34.1087 163.099 34.1087H168.514V34.1008ZM168.514 40.8066C170.097 40.8066 171.013 39.7737 171.013 38.3731C171.013 36.996 170.097 35.9631 168.514 35.9631H164.759V40.8066H168.514Z" fill="white"/>
<path d="M178.786 34.1008C178.98 34.1008 179.089 34.2104 179.089 34.406V39.6642L184.69 34.3434C184.845 34.1869 185.063 34.1008 185.319 34.1008H187.274C187.468 34.1008 187.553 34.2964 187.406 34.4529L182.192 39.2495L187.685 45.6657C187.84 45.8222 187.747 46.0413 187.514 46.0413H185.776C185.513 46.0413 185.295 45.9553 185.125 45.7596L180.757 40.5484L179.081 41.9099V45.744C179.081 45.9396 178.972 46.0492 178.778 46.0492H177.413C177.219 46.0492 177.11 45.9396 177.11 45.744V34.4138C177.11 34.2182 177.219 34.1087 177.413 34.1087H178.786V34.1008Z" fill="white"/>
<path d="M0 0H42V56C42 58.2091 40.2091 60 38 60H4C1.79086 60 0 58.2091 0 56V0Z" fill="#E22440"/>
<path d="M0.5 0.5H41.5V56C41.5 57.933 39.933 59.5 38 59.5H4C2.067 59.5 0.5 57.933 0.5 56V0.5Z" stroke="url(#paint0_linear_396_435)" stroke-opacity="0.3"/>
<path d="M24.7478 50.4018L22.1797 47.8118C21.4504 47.0763 20.2712 47.0763 19.5496 47.8118L16.9816 50.4018C16.229 51.1608 15.0032 51.1608 14.2506 50.4018L13.0093 49.1499L16.9428 45.1827C19.1074 42.9996 22.6142 42.9996 24.7788 45.1827L28.7123 49.1499L27.471 50.4018C26.7262 51.1608 25.5081 51.1608 24.7478 50.4018Z" fill="white"/>
<path d="M10.8058 46.9197L9.56442 45.6678C8.81186 44.9088 8.81186 43.6725 9.56442 42.9135L12.1325 40.3235C12.8618 39.588 12.8618 38.3986 12.1325 37.6709L9.56442 35.081C8.81186 34.322 8.81186 33.0857 9.56442 32.3267L10.8058 31.0747L14.7393 35.0418C16.9039 37.2249 16.9039 40.7617 14.7393 42.9448L10.8058 46.9197Z" fill="white"/>
<path d="M20.8994 34.4237C19.4796 34.4237 18.0598 33.8838 16.9814 32.7883L13.0479 28.8212L14.2892 27.5692C15.0418 26.8103 16.2676 26.8103 17.0202 27.5692L19.5882 30.1592C20.3097 30.8869 21.4968 30.8869 22.2183 30.1592L24.7863 27.5692C25.5389 26.8103 26.7647 26.8103 27.5173 27.5692L28.7586 28.8212L24.8251 32.7883C23.7389 33.8681 22.3192 34.4237 20.8994 34.4237Z" fill="white"/>
<path d="M30.9622 46.8885L27.0287 42.9214C24.8641 40.7383 24.8641 37.2015 27.0287 35.0184L30.9622 31.0513L32.2036 32.3032C32.9562 33.0622 32.9562 34.2985 32.2036 35.0575L29.6356 37.6475C28.9063 38.383 28.9063 39.5724 29.6356 40.3001L32.2036 42.8901C32.9562 43.6491 32.9562 44.8854 32.2036 45.6444L30.9622 46.8885Z" fill="white"/>
<defs>
<linearGradient id="paint0_linear_396_435" x1="19.5" y1="71.5" x2="18" y2="53" gradientUnits="userSpaceOnUse">
<stop/>
<stop offset="1" stop-opacity="0"/>
</linearGradient>
</defs>
</svg>
