<svg width="167" height="24" viewBox="0 0 167 24" fill="none" xmlns="http://www.w3.org/2000/svg">
<g clip-path="url(#clip0_176_2540)">
<path d="M34.4528 6.10083C34.6874 6.10083 34.748 6.16343 34.8161 6.25732L37.867 10.467H37.973L40.9178 6.2808C41.0011 6.17125 41.1298 6.10865 41.2963 6.10865H43.1435C43.3328 6.10865 43.4009 6.2808 43.31 6.39034L39.1766 11.7581L43.7794 17.7362C43.8854 17.8927 43.8248 18.0413 43.628 18.0413H41.7657C41.5992 18.0413 41.4477 17.9787 41.3418 17.8222L37.9048 13.0492H37.7988L34.5209 17.8066C34.3922 17.9631 34.2484 18.0492 34.0742 18.0492H32.2271C32.0757 18.0492 31.9924 17.9161 32.0984 17.7675L36.633 11.805L32.545 6.43729C32.4618 6.2808 32.4996 6.10865 32.6964 6.10865H34.4528V6.10083Z" fill="white"/>
<path d="M52.7278 6.10083C55.2487 6.10083 57.0731 7.98658 57.0731 10.3731C57.0731 12.8301 55.2487 14.6689 52.7278 14.6689H49.0637V17.7362C49.0637 17.9318 48.9805 18.0413 48.8063 18.0413H47.4285C47.2393 18.0413 47.1333 17.9318 47.1333 17.7362V6.41382C47.1333 6.2182 47.2393 6.10865 47.4285 6.10865H52.7278V6.10083ZM52.7278 12.8066C54.2721 12.8066 55.1427 11.7737 55.1427 10.3731C55.1427 8.99597 54.2721 7.96311 52.7278 7.96311H49.0637V12.8066H52.7278Z" fill="white"/>
<path d="M61.1232 15.3027C61.8878 15.3027 62.5464 15.96 62.5464 16.7503C62.5464 17.5406 61.8878 18.2214 61.1232 18.2214C60.3586 18.2214 59.7227 17.5406 59.7227 16.7503C59.7227 15.96 60.3586 15.3027 61.1232 15.3027Z" fill="white"/>
<path d="M75.3251 18.0413C75.1736 18.0413 75.0525 17.9787 74.9617 17.8457L71.1689 12.8927L68.3528 8.88642L68.2468 8.90989L68.3755 12.4623V17.744C68.3755 17.9396 68.2695 18.0492 68.0575 18.0492H66.7252C66.5586 18.0492 66.4678 17.9396 66.4678 17.744V6.41381C66.4678 6.21819 66.551 6.10864 66.7403 6.10864H67.9894C68.2014 6.10864 68.3679 6.17124 68.4739 6.32773L72.5467 11.5859L75.0904 15.2244L75.1964 15.201L75.045 11.672V6.41381C75.045 6.21819 75.1509 6.10864 75.3402 6.10864H76.6726C76.8618 6.10864 76.9451 6.21819 76.9451 6.41381V17.744C76.9451 17.9396 76.8618 18.0492 76.6726 18.0492H75.3251V18.0413Z" fill="white"/>
<path d="M89.8223 6.10083C89.9737 6.10083 90.1175 6.23385 90.1175 6.40599V7.65795C90.1175 7.81444 89.9661 7.93964 89.8223 7.93964H83.1226V10.8974H89.2242C89.4135 10.8974 89.5195 11.0069 89.5195 11.2025V12.4545C89.5195 12.6501 89.4135 12.7362 89.2242 12.7362H83.1226V16.1791H90.0343C90.2235 16.1791 90.3068 16.2651 90.3068 16.4451V17.7362C90.3068 17.9318 90.2235 18.0413 90.0343 18.0413H81.4722C81.283 18.0413 81.1997 17.9318 81.1997 17.7362V6.41382C81.1997 6.2182 81.283 6.10865 81.4722 6.10865H89.8223V6.10083Z" fill="white"/>
<path d="M103.555 6.10083C103.744 6.10083 103.85 6.21038 103.85 6.40599V7.65795C103.85 7.85356 103.744 7.96311 103.555 7.96311H99.6332V17.7362C99.6332 17.8927 99.5272 18.0413 99.3379 18.0413H98.0056C97.8163 18.0413 97.7103 17.9318 97.7103 17.7362V7.96311H93.7889C93.5996 7.96311 93.4937 7.85356 93.4937 7.65795V6.40599C93.4937 6.21038 93.5996 6.10083 93.7889 6.10083H103.555Z" fill="white"/>
<path d="M108.498 6.10083C108.687 6.10083 108.793 6.16343 108.839 6.31992L111.511 15.7174H111.617L114.183 6.31992C114.229 6.16343 114.335 6.10083 114.479 6.10083H115.902C116.053 6.10083 116.159 6.16343 116.197 6.31992L118.824 15.7174H118.93L121.58 6.3434C121.625 6.1869 121.731 6.10083 121.875 6.10083H123.442C123.631 6.10083 123.699 6.1869 123.631 6.38252L120.028 17.7753C119.967 17.9474 119.839 18.0413 119.664 18.0413H117.908C117.742 18.0413 117.636 17.9553 117.567 17.7596L115.236 9.37156H115.13L112.821 17.7831C112.775 17.9553 112.669 18.0492 112.526 18.0492H110.747C110.557 18.0492 110.429 17.9631 110.368 17.7831L106.742 6.3434C106.681 6.1869 106.742 6.10083 106.931 6.10083H108.498Z" fill="white"/>
<path d="M132.473 5.92871C135.82 5.92871 138.431 8.51087 138.431 12.0868C138.431 15.6392 135.827 18.2213 132.473 18.2213C129.127 18.2213 126.516 15.6392 126.516 12.0868C126.516 8.51087 129.12 5.92871 132.473 5.92871ZM128.461 12.0868C128.461 14.5437 130.096 16.359 132.466 16.359C134.843 16.359 136.471 14.5437 136.471 12.0868C136.471 9.61415 134.835 7.79099 132.466 7.79099C130.096 7.79099 128.461 9.60633 128.461 12.0868Z" fill="white"/>
<path d="M147.841 6.10083C150.362 6.10083 152.209 7.98658 152.209 10.3731C152.209 12.0398 151.339 13.4404 150.006 14.1446L151.937 17.697C152.043 17.8927 151.937 18.0492 151.702 18.0492H150.158C149.968 18.0492 149.817 17.8927 149.734 17.744L148.189 14.6532C148.129 14.6767 148.023 14.6767 147.894 14.6767H144.185V17.744C144.185 17.9396 144.101 18.0492 143.912 18.0492H142.58C142.345 18.0492 142.262 17.8927 142.262 17.744V6.41382C142.262 6.2182 142.368 6.10865 142.557 6.10865H147.841V6.10083ZM147.841 12.8066C149.385 12.8066 150.279 11.7737 150.279 10.3731C150.279 8.99597 149.385 7.96311 147.841 7.96311H144.177V12.8066H147.841Z" fill="white"/>
<path d="M157.864 6.10083C158.053 6.10083 158.159 6.21038 158.159 6.40599V11.6642L163.625 6.3434C163.777 6.1869 163.989 6.10083 164.238 6.10083H166.146C166.335 6.10083 166.419 6.29645 166.275 6.45294L161.188 11.2495L166.547 17.6657C166.699 17.8222 166.608 18.0413 166.381 18.0413H164.685C164.428 18.0413 164.216 17.9553 164.049 17.7596L159.787 12.5484L158.152 13.9099V17.744C158.152 17.9396 158.046 18.0492 157.857 18.0492H156.524C156.335 18.0492 156.229 17.9396 156.229 17.744V6.41382C156.229 6.2182 156.335 6.10865 156.524 6.10865H157.864V6.10083Z" fill="white"/>
<path d="M15.4285 23.4716L12.9227 20.8817C12.2111 20.1461 11.0604 20.1461 10.3564 20.8817L7.85062 23.4716C7.11629 24.2306 5.92018 24.2306 5.18586 23.4716L3.97461 22.2197L7.81276 18.2526C9.92489 16.0695 13.3467 16.0695 15.4588 18.2526L19.2969 22.2197L18.0857 23.4716C17.3589 24.2306 16.1704 24.2306 15.4285 23.4716Z" fill="#E22440"/>
<path d="M1.82449 19.9896L0.613241 18.7376C-0.12108 17.9786 -0.12108 16.7423 0.613241 15.9833L3.11902 13.3933C3.83063 12.6578 3.83063 11.4685 3.11902 10.7408L0.613241 8.15078C-0.12108 7.39179 -0.12108 6.15548 0.613241 5.39649L1.82449 4.14453L5.66265 8.11166C7.77477 10.2948 7.77477 13.8315 5.66265 16.0146L1.82449 19.9896Z" fill="#E22440"/>
<path d="M11.6734 7.49352C10.288 7.49352 8.90264 6.95361 7.85036 5.85815L4.01221 1.89102L5.22346 0.639072C5.95778 -0.119925 7.15389 -0.119925 7.88821 0.639072L10.394 3.22905C11.098 3.95675 12.2563 3.95675 12.9603 3.22905L15.4661 0.639072C16.2004 -0.119925 17.3965 -0.119925 18.1309 0.639072L19.3421 1.89102L15.504 5.85815C14.4441 6.93796 13.0587 7.49352 11.6734 7.49352Z" fill="#E22440"/>
<path d="M21.4921 19.9583L17.6539 15.9912C15.5418 13.8081 15.5418 10.2713 17.6539 8.08822L21.4921 4.12109L22.7033 5.37305C23.4376 6.13204 23.4376 7.36835 22.7033 8.12734L20.1975 10.7173C19.4859 11.4528 19.4859 12.6422 20.1975 13.3699L22.7033 15.9599C23.4376 16.7189 23.4376 17.9552 22.7033 18.7142L21.4921 19.9583Z" fill="#E22440"/>
</g>
<defs>
<clipPath id="clip0_176_2540">
<rect width="166.588" height="24" fill="white"/>
</clipPath>
</defs>
</svg>
