<svg width="352" height="60" viewBox="0 0 352 60" fill="none" xmlns="http://www.w3.org/2000/svg">
<path d="M52.3088 34.1008C52.5493 34.1008 52.6114 34.1634 52.6812 34.2573L55.8079 38.467H55.9165L58.9345 34.2808C59.0199 34.1713 59.1518 34.1087 59.3224 34.1087H61.2155C61.4095 34.1087 61.4793 34.2808 61.3862 34.3903L57.1501 39.7581L61.8672 45.7362C61.9758 45.8927 61.9138 46.0413 61.712 46.0413H59.8035C59.6328 46.0413 59.4776 45.9787 59.369 45.8222L55.8467 41.0492H55.7381L52.3787 45.8066C52.2468 45.9631 52.0994 46.0492 51.9209 46.0492H50.0279C49.8727 46.0492 49.7873 45.9161 49.896 45.7675L54.5433 39.805L50.3537 34.4373C50.2684 34.2808 50.3072 34.1087 50.5089 34.1087H52.3088V34.1008Z" fill="#151516"/>
<path d="M71.0377 34.1008C73.6212 34.1008 75.491 35.9866 75.491 38.3731C75.491 40.8301 73.6212 42.6689 71.0377 42.6689H67.2826V45.7362C67.2826 45.9318 67.1973 46.0413 67.0188 46.0413H65.6068C65.4128 46.0413 65.3042 45.9318 65.3042 45.7362V34.4138C65.3042 34.2182 65.4128 34.1087 65.6068 34.1087H71.0377V34.1008ZM71.0377 40.8066C72.6204 40.8066 73.5126 39.7737 73.5126 38.3731C73.5126 36.996 72.6204 35.9631 71.0377 35.9631H67.2826V40.8066H71.0377V40.8066Z" fill="#151516"/>
<path d="M79.6419 43.3027C80.4255 43.3027 81.1004 43.96 81.1004 44.7503C81.1004 45.5406 80.4255 46.2214 79.6419 46.2214C78.8583 46.2214 78.2065 45.5406 78.2065 44.7503C78.2065 43.96 78.8583 43.3027 79.6419 43.3027Z" fill="#151516"/>
<path d="M94.1965 46.0413C94.0413 46.0413 93.9172 45.9787 93.8241 45.8457L89.9371 40.8927L87.051 36.8864L86.9424 36.9099L87.0743 40.4623V45.744C87.0743 45.9396 86.9656 46.0492 86.7484 46.0492H85.3829C85.2122 46.0492 85.1191 45.9396 85.1191 45.744V34.4138C85.1191 34.2182 85.2045 34.1086 85.3984 34.1086H86.6786C86.8958 34.1086 87.0665 34.1712 87.1751 34.3277L91.3491 39.5859L93.956 43.2244L94.0646 43.201L93.9094 39.672V34.4138C93.9094 34.2182 94.018 34.1086 94.212 34.1086H95.5775C95.7714 34.1086 95.8568 34.2182 95.8568 34.4138V45.744C95.8568 45.9396 95.7714 46.0492 95.5775 46.0492H94.1965V46.0413Z" fill="#151516"/>
<path d="M109.054 34.1008C109.209 34.1008 109.357 34.2338 109.357 34.406V35.6579C109.357 35.8144 109.202 35.9396 109.054 35.9396H102.188V38.8974H108.441C108.635 38.8974 108.744 39.0069 108.744 39.2025V40.4545C108.744 40.6501 108.635 40.7362 108.441 40.7362H102.188V44.1791H109.271C109.465 44.1791 109.551 44.2651 109.551 44.4451V45.7362C109.551 45.9318 109.465 46.0413 109.271 46.0413H100.497C100.303 46.0413 100.217 45.9318 100.217 45.7362V34.4138C100.217 34.2182 100.303 34.1087 100.497 34.1087H109.054V34.1008Z" fill="#151516"/>
<path d="M123.128 34.1008C123.322 34.1008 123.43 34.2104 123.43 34.406V35.6579C123.43 35.8536 123.322 35.9631 123.128 35.9631H119.109V45.7362C119.109 45.8927 119 46.0413 118.806 46.0413H117.441C117.247 46.0413 117.138 45.9318 117.138 45.7362V35.9631H113.119C112.926 35.9631 112.817 35.8536 112.817 35.6579V34.406C112.817 34.2104 112.926 34.1008 113.119 34.1008H123.128Z" fill="#151516"/>
<path d="M128.194 34.1008C128.388 34.1008 128.496 34.1634 128.543 34.3199L131.282 43.7174H131.39L134.02 34.3199C134.067 34.1634 134.175 34.1008 134.323 34.1008H135.781C135.937 34.1008 136.045 34.1634 136.084 34.3199L138.776 43.7174H138.885L141.6 34.3434C141.647 34.1869 141.755 34.1008 141.903 34.1008H143.509C143.703 34.1008 143.773 34.1869 143.703 34.3825L140.01 45.7753C139.948 45.9474 139.816 46.0413 139.637 46.0413H137.837C137.667 46.0413 137.558 45.9553 137.488 45.7596L135.099 37.3716H134.99L132.624 45.7831C132.577 45.9553 132.469 46.0492 132.321 46.0492H130.498C130.304 46.0492 130.172 45.9631 130.11 45.7831L126.394 34.3434C126.332 34.1869 126.394 34.1008 126.588 34.1008H128.194V34.1008Z" fill="#151516"/>
<path d="M152.765 33.9287C156.194 33.9287 158.871 36.5109 158.871 40.0868C158.871 43.6392 156.202 46.2213 152.765 46.2213C149.336 46.2213 146.659 43.6392 146.659 40.0868C146.659 36.5109 149.328 33.9287 152.765 33.9287ZM148.653 40.0868C148.653 42.5437 150.329 44.359 152.757 44.359C155.193 44.359 156.862 42.5437 156.862 40.0868C156.862 37.6141 155.186 35.791 152.757 35.791C150.329 35.791 148.653 37.6063 148.653 40.0868Z" fill="#151516"/>
<path d="M168.514 34.1008C171.098 34.1008 172.991 35.9866 172.991 38.3731C172.991 40.0398 172.099 41.4404 170.733 42.1446L172.712 45.697C172.82 45.8927 172.712 46.0492 172.471 46.0492H170.888C170.694 46.0492 170.539 45.8927 170.454 45.744L168.871 42.6532C168.809 42.6767 168.701 42.6767 168.569 42.6767H164.767V45.744C164.767 45.9396 164.682 46.0492 164.488 46.0492H163.122C162.882 46.0492 162.796 45.8927 162.796 45.744V34.4138C162.796 34.2182 162.905 34.1087 163.099 34.1087H168.514V34.1008ZM168.514 40.8066C170.097 40.8066 171.013 39.7737 171.013 38.3731C171.013 36.996 170.097 35.9631 168.514 35.9631H164.759V40.8066H168.514V40.8066Z" fill="#151516"/>
<path d="M178.786 34.1008C178.98 34.1008 179.089 34.2104 179.089 34.406V39.6642L184.69 34.3434C184.845 34.1869 185.063 34.1008 185.319 34.1008H187.274C187.468 34.1008 187.553 34.2964 187.406 34.4529L182.192 39.2495L187.685 45.6657C187.84 45.8222 187.747 46.0413 187.514 46.0413H185.776C185.513 46.0413 185.295 45.9553 185.125 45.7596L180.757 40.5484L179.081 41.9099V45.744C179.081 45.9396 178.972 46.0492 178.778 46.0492H177.413C177.219 46.0492 177.11 45.9396 177.11 45.744V34.4138C177.11 34.2182 177.219 34.1087 177.413 34.1087H178.786V34.1008Z" fill="#151516"/>
<path fill-rule="evenodd" clip-rule="evenodd" d="M200 48.5V30.5H201V48.5H200Z" fill="#1C1C1C"/>
<path d="M213 39.5C213 34.5294 217.029 30.5 222 30.5V30.5C226.971 30.5 231 34.5294 231 39.5V39.5C231 44.4706 226.971 48.5 222 48.5V48.5C217.029 48.5 213 44.4706 213 39.5V39.5Z" fill="#E22440"/>
<path d="M223.917 45.1166L222.643 43.8424C222.281 43.4805 221.696 43.4805 221.338 43.8424L220.064 45.1166C219.69 45.49 219.082 45.49 218.709 45.1166L218.093 44.5007L220.044 42.5489C221.119 41.4749 222.859 41.4749 223.933 42.5489L225.884 44.5007L225.268 45.1166C224.899 45.49 224.294 45.49 223.917 45.1166Z" fill="white"/>
<path d="M216.999 43.4035L216.384 42.7876C216.01 42.4142 216.01 41.8059 216.384 41.4325L217.658 40.1583C218.02 39.7965 218.02 39.2113 217.658 38.8533L216.384 37.5791C216.01 37.2057 216.01 36.5975 216.384 36.2241L216.999 35.6082L218.951 37.5599C220.025 38.6339 220.025 40.3739 218.951 41.4479L216.999 43.4035Z" fill="white"/>
<path d="M222.008 37.2558C221.303 37.2558 220.599 36.9902 220.064 36.4512L218.112 34.4995L218.728 33.8836C219.101 33.5102 219.709 33.5102 220.083 33.8836L221.357 35.1578C221.715 35.5158 222.304 35.5158 222.662 35.1578L223.936 33.8836C224.31 33.5102 224.918 33.5102 225.291 33.8836L225.907 34.4995L223.955 36.4512C223.416 36.9825 222.712 37.2558 222.008 37.2558Z" fill="white"/>
<path d="M227 43.3879L225.049 41.4362C223.975 40.3622 223.975 38.6222 225.049 37.5482L227 35.5964L227.616 36.2124C227.99 36.5858 227.99 37.194 227.616 37.5674L226.342 38.8416C225.98 39.2035 225.98 39.7886 226.342 40.1466L227.616 41.4208C227.99 41.7942 227.99 42.4024 227.616 42.7759L227 43.3879Z" fill="white"/>
<path opacity="0.9" d="M236.97 34.3182L239.595 38.554H239.674L242.299 34.3182H243.751L240.549 39.4091L243.751 44.5H242.299L239.674 40.3438H239.595L236.97 44.5H235.518L238.799 39.4091L235.518 34.3182H236.97ZM245.776 44.5V34.3182H249.216C250.015 34.3182 250.668 34.4624 251.175 34.7507C251.685 35.0357 252.063 35.4219 252.308 35.9091C252.554 36.3963 252.676 36.9399 252.676 37.5398C252.676 38.1397 252.554 38.6849 252.308 39.1754C252.066 39.666 251.692 40.0571 251.185 40.3487C250.678 40.6371 250.028 40.7812 249.236 40.7812H246.77V39.6875H249.196C249.743 39.6875 250.182 39.593 250.514 39.4041C250.845 39.2152 251.085 38.96 251.234 38.6385C251.387 38.3137 251.463 37.9474 251.463 37.5398C251.463 37.1321 251.387 36.7675 251.234 36.446C251.085 36.1245 250.843 35.8726 250.509 35.6903C250.174 35.5047 249.73 35.4119 249.176 35.4119H247.009V44.5H245.776ZM263.156 34.3182V44.5H261.963L256.415 36.5057H256.315V44.5H255.082V34.3182H256.276L261.844 42.3324H261.943V34.3182H263.156ZM266.043 44.5V34.3182H272.188V35.4119H267.276V38.8523H271.87V39.946H267.276V43.4062H272.268V44.5H266.043ZM274.274 35.4119V34.3182H281.91V35.4119H278.708V44.5H277.475V35.4119H274.274Z" fill="#030303"/>
<path opacity="0.9" d="M291.057 45.7727V33.0455H291.872V45.7727H291.057ZM293.801 36.8636C293.741 36.3598 293.5 35.9688 293.075 35.6903C292.651 35.4119 292.131 35.2727 291.514 35.2727C291.063 35.2727 290.669 35.3456 290.331 35.4915C289.996 35.6373 289.734 35.8378 289.545 36.093C289.36 36.3482 289.267 36.6383 289.267 36.9631C289.267 37.2348 289.332 37.4685 289.461 37.6641C289.594 37.8563 289.763 38.017 289.968 38.1463C290.174 38.2723 290.389 38.3767 290.614 38.4595C290.84 38.5391 291.047 38.6037 291.236 38.6534L292.27 38.9318C292.535 39.0014 292.83 39.0975 293.155 39.2202C293.483 39.3428 293.796 39.5102 294.094 39.7223C294.396 39.9311 294.645 40.1996 294.84 40.5277C295.036 40.8558 295.134 41.2585 295.134 41.7358C295.134 42.286 294.989 42.7831 294.701 43.2273C294.416 43.6714 293.998 44.0244 293.448 44.2862C292.901 44.5481 292.237 44.679 291.455 44.679C290.725 44.679 290.094 44.5613 289.56 44.326C289.03 44.0907 288.612 43.7625 288.308 43.3416C288.006 42.9207 287.835 42.4318 287.795 41.875H289.068C289.101 42.2595 289.231 42.5777 289.456 42.8295C289.685 43.0781 289.973 43.2637 290.321 43.3864C290.672 43.5057 291.05 43.5653 291.455 43.5653C291.925 43.5653 292.348 43.4891 292.722 43.3366C293.097 43.1809 293.393 42.9654 293.612 42.6903C293.831 42.4119 293.94 42.0871 293.94 41.7159C293.94 41.3778 293.846 41.1027 293.657 40.8906C293.468 40.6785 293.219 40.5062 292.911 40.3736C292.603 40.241 292.27 40.125 291.912 40.0256L290.659 39.6676C289.864 39.4389 289.234 39.1125 288.77 38.6882C288.306 38.264 288.074 37.7088 288.074 37.0227C288.074 36.4527 288.228 35.9555 288.536 35.5312C288.848 35.1037 289.265 34.7723 289.789 34.5369C290.316 34.2983 290.904 34.179 291.554 34.179C292.21 34.179 292.794 34.2966 293.304 34.532C293.814 34.764 294.219 35.0821 294.517 35.4865C294.819 35.8909 294.978 36.3499 294.994 36.8636H293.801ZM300.723 44.6392C299.974 44.6392 299.336 44.4354 298.809 44.0277C298.282 43.6167 297.879 43.0218 297.601 42.2429C297.322 41.4607 297.183 40.5161 297.183 39.4091C297.183 38.3087 297.322 37.3691 297.601 36.5902C297.882 35.808 298.287 35.2114 298.814 34.8004C299.344 34.3861 299.98 34.179 300.723 34.179C301.465 34.179 302.1 34.3861 302.627 34.8004C303.157 35.2114 303.562 35.808 303.84 36.5902C304.122 37.3691 304.263 38.3087 304.263 39.4091C304.263 40.5161 304.123 41.4607 303.845 42.2429C303.566 43.0218 303.164 43.6167 302.637 44.0277C302.11 44.4354 301.472 44.6392 300.723 44.6392ZM300.723 43.5455C301.465 43.5455 302.042 43.1875 302.453 42.4716C302.864 41.7557 303.069 40.7348 303.069 39.4091C303.069 38.5275 302.975 37.7768 302.786 37.157C302.6 36.5372 302.332 36.0649 301.981 35.7401C301.633 35.4152 301.213 35.2528 300.723 35.2528C299.987 35.2528 299.412 35.6158 298.998 36.3416C298.583 37.0642 298.376 38.0866 298.376 39.4091C298.376 40.2907 298.469 41.0398 298.655 41.6562C298.84 42.2727 299.107 42.7417 299.455 43.0632C299.806 43.3847 300.229 43.5455 300.723 43.5455ZM307.091 44.5795C306.846 44.5795 306.636 44.4917 306.46 44.3161C306.284 44.1404 306.196 43.9299 306.196 43.6847C306.196 43.4394 306.284 43.2289 306.46 43.0533C306.636 42.8776 306.846 42.7898 307.091 42.7898C307.337 42.7898 307.547 42.8776 307.723 43.0533C307.898 43.2289 307.986 43.4394 307.986 43.6847C307.986 43.8471 307.945 43.9962 307.862 44.1321C307.782 44.268 307.675 44.3774 307.539 44.4602C307.406 44.5398 307.257 44.5795 307.091 44.5795ZM313.457 44.6392C312.708 44.6392 312.07 44.4354 311.543 44.0277C311.016 43.6167 310.614 43.0218 310.335 42.2429C310.057 41.4607 309.917 40.5161 309.917 39.4091C309.917 38.3087 310.057 37.3691 310.335 36.5902C310.617 35.808 311.021 35.2114 311.548 34.8004C312.078 34.3861 312.715 34.179 313.457 34.179C314.2 34.179 314.834 34.3861 315.361 34.8004C315.892 35.2114 316.296 35.808 316.574 36.5902C316.856 37.3691 316.997 38.3087 316.997 39.4091C316.997 40.5161 316.858 41.4607 316.579 42.2429C316.301 43.0218 315.898 43.6167 315.371 44.0277C314.844 44.4354 314.206 44.6392 313.457 44.6392ZM313.457 43.5455C314.2 43.5455 314.776 43.1875 315.187 42.4716C315.598 41.7557 315.804 40.7348 315.804 39.4091C315.804 38.5275 315.709 37.7768 315.52 37.157C315.335 36.5372 315.066 36.0649 314.715 35.7401C314.367 35.4152 313.948 35.2528 313.457 35.2528C312.721 35.2528 312.146 35.6158 311.732 36.3416C311.318 37.0642 311.111 38.0866 311.111 39.4091C311.111 40.2907 311.203 41.0398 311.389 41.6562C311.575 42.2727 311.841 42.7417 312.19 43.0632C312.541 43.3847 312.963 43.5455 313.457 43.5455ZM322.886 34.3182V44.5H321.653V35.6108H321.593L319.107 37.2614V36.0085L321.653 34.3182H322.886ZM326.234 44.5V43.6051L329.595 39.9261C329.989 39.4953 330.314 39.1207 330.569 38.8026C330.824 38.4811 331.013 38.1795 331.136 37.8977C331.262 37.6127 331.325 37.3144 331.325 37.0028C331.325 36.6449 331.239 36.335 331.066 36.0732C330.897 35.8113 330.665 35.6091 330.37 35.4666C330.075 35.3241 329.744 35.2528 329.376 35.2528C328.985 35.2528 328.644 35.334 328.352 35.4964C328.064 35.6555 327.84 35.8793 327.681 36.1676C327.525 36.456 327.447 36.794 327.447 37.1818H326.274C326.274 36.5852 326.411 36.0616 326.686 35.6108C326.962 35.16 327.336 34.8087 327.81 34.5568C328.287 34.3049 328.823 34.179 329.416 34.179C330.012 34.179 330.541 34.3049 331.002 34.5568C331.463 34.8087 331.824 35.1484 332.086 35.576C332.347 36.0036 332.478 36.4792 332.478 37.0028C332.478 37.3774 332.41 37.7436 332.275 38.1016C332.142 38.4562 331.91 38.8523 331.579 39.2898C331.25 39.724 330.795 40.2543 330.211 40.8807L327.924 43.3267V43.4062H332.657V44.5H326.234ZM338.392 44.6392C337.709 44.6392 337.106 44.5182 336.582 44.2763C336.062 44.031 335.656 43.6946 335.364 43.267C335.073 42.8362 334.928 42.3456 334.932 41.7955C334.928 41.3646 335.013 40.9669 335.185 40.6023C335.358 40.2344 335.593 39.9278 335.891 39.6825C336.193 39.4339 336.529 39.2765 336.901 39.2102V39.1506C336.413 39.0246 336.026 38.7512 335.737 38.3303C335.449 37.906 335.306 37.4238 335.31 36.8835C335.306 36.3665 335.437 35.9041 335.702 35.4964C335.968 35.0888 336.332 34.7673 336.796 34.532C337.263 34.2966 337.795 34.179 338.392 34.179C338.982 34.179 339.509 34.2966 339.973 34.532C340.437 34.7673 340.802 35.0888 341.067 35.4964C341.335 35.9041 341.471 36.3665 341.474 36.8835C341.471 37.4238 341.324 37.906 341.032 38.3303C340.744 38.7512 340.361 39.0246 339.883 39.1506V39.2102C340.251 39.2765 340.583 39.4339 340.878 39.6825C341.173 39.9278 341.408 40.2344 341.584 40.6023C341.759 40.9669 341.849 41.3646 341.852 41.7955C341.849 42.3456 341.7 42.8362 341.405 43.267C341.113 43.6946 340.707 44.031 340.187 44.2763C339.67 44.5182 339.071 44.6392 338.392 44.6392ZM338.392 43.5455C338.853 43.5455 339.25 43.4709 339.585 43.3217C339.92 43.1726 340.178 42.9621 340.361 42.6903C340.543 42.4186 340.636 42.1004 340.639 41.7358C340.636 41.3513 340.536 41.0116 340.341 40.7166C340.145 40.4216 339.878 40.1896 339.54 40.0206C339.206 39.8516 338.823 39.767 338.392 39.767C337.958 39.767 337.57 39.8516 337.229 40.0206C336.891 40.1896 336.624 40.4216 336.428 40.7166C336.236 41.0116 336.142 41.3513 336.145 41.7358C336.142 42.1004 336.229 42.4186 336.408 42.6903C336.591 42.9621 336.851 43.1726 337.189 43.3217C337.527 43.4709 337.928 43.5455 338.392 43.5455ZM338.392 38.7131C338.757 38.7131 339.08 38.6402 339.361 38.4943C339.646 38.3485 339.87 38.1446 340.033 37.8828C340.195 37.621 340.278 37.3144 340.281 36.9631C340.278 36.6184 340.197 36.3184 340.038 36.0632C339.878 35.8047 339.658 35.6058 339.376 35.4666C339.095 35.3241 338.767 35.2528 338.392 35.2528C338.011 35.2528 337.678 35.3241 337.393 35.4666C337.108 35.6058 336.887 35.8047 336.731 36.0632C336.576 36.3184 336.499 36.6184 336.503 36.9631C336.499 37.3144 336.577 37.621 336.736 37.8828C336.899 38.1446 337.123 38.3485 337.408 38.4943C337.693 38.6402 338.021 38.7131 338.392 38.7131ZM347.558 44.6392C347.141 44.6326 346.723 44.553 346.305 44.4006C345.888 44.2481 345.507 43.9912 345.162 43.63C344.817 43.2654 344.54 42.7732 344.332 42.1534C344.123 41.5303 344.018 40.7481 344.018 39.8068C344.018 38.9053 344.103 38.1065 344.272 37.4105C344.441 36.7112 344.686 36.1229 345.008 35.6456C345.329 35.165 345.717 34.8004 346.171 34.5518C346.629 34.3033 347.144 34.179 347.717 34.179C348.287 34.179 348.795 34.2933 349.239 34.522C349.686 34.7474 350.051 35.0623 350.332 35.4666C350.614 35.871 350.796 36.3366 350.879 36.8636H349.666C349.554 36.4062 349.335 36.0268 349.01 35.7251C348.685 35.4235 348.254 35.2727 347.717 35.2727C346.929 35.2727 346.307 35.6158 345.853 36.3018C345.402 36.9879 345.175 37.9508 345.172 39.1903H345.251C345.437 38.9086 345.657 38.6683 345.913 38.4695C346.171 38.2673 346.456 38.1115 346.768 38.0021C347.079 37.8928 347.409 37.8381 347.757 37.8381C348.34 37.8381 348.874 37.9839 349.358 38.2756C349.842 38.5639 350.23 38.9633 350.521 39.4737C350.813 39.9808 350.959 40.5625 350.959 41.2188C350.959 41.8485 350.818 42.4252 350.536 42.9489C350.255 43.4692 349.858 43.8835 349.348 44.1918C348.841 44.4967 348.244 44.6458 347.558 44.6392ZM347.558 43.5455C347.976 43.5455 348.35 43.4411 348.682 43.2322C349.017 43.0234 349.28 42.7434 349.472 42.392C349.668 42.0407 349.766 41.6496 349.766 41.2188C349.766 40.7978 349.671 40.415 349.482 40.0703C349.297 39.7223 349.04 39.4455 348.712 39.2401C348.387 39.0346 348.016 38.9318 347.598 38.9318C347.283 38.9318 346.99 38.9948 346.718 39.1207C346.446 39.2434 346.208 39.4124 346.002 39.6278C345.8 39.8433 345.641 40.0902 345.525 40.3686C345.409 40.6437 345.351 40.9337 345.351 41.2386C345.351 41.643 345.445 42.0208 345.634 42.3722C345.826 42.7235 346.088 43.0069 346.42 43.2223C346.755 43.4377 347.134 43.5455 347.558 43.5455Z" fill="#030303"/>
<g style="mix-blend-mode:multiply">
<path d="M0 0H42V56C42 58.2091 40.2091 60 38 60H4C1.79086 60 0 58.2091 0 56V0Z" fill="#E22440"/>
<path d="M0.5 0.5H41.5V56C41.5 57.933 39.933 59.5 38 59.5H4C2.067 59.5 0.5 57.933 0.5 56V0.5Z" stroke="url(#paint0_linear_227_156)" stroke-opacity="0.3"/>
</g>
<path d="M24.7478 50.4018L22.1797 47.8118C21.4504 47.0763 20.2712 47.0763 19.5496 47.8118L16.9816 50.4018C16.229 51.1608 15.0032 51.1608 14.2506 50.4018L13.0093 49.1499L16.9428 45.1827C19.1074 42.9996 22.6142 42.9996 24.7788 45.1827L28.7123 49.1499L27.471 50.4018C26.7262 51.1608 25.5081 51.1608 24.7478 50.4018Z" fill="white"/>
<path d="M10.8058 46.9197L9.56442 45.6678C8.81186 44.9088 8.81186 43.6725 9.56442 42.9135L12.1325 40.3235C12.8618 39.588 12.8618 38.3986 12.1325 37.6709L9.56442 35.081C8.81186 34.322 8.81186 33.0857 9.56442 32.3267L10.8058 31.0747L14.7393 35.0418C16.9039 37.2249 16.9039 40.7617 14.7393 42.9448L10.8058 46.9197Z" fill="white"/>
<path d="M20.8994 34.4237C19.4796 34.4237 18.0598 33.8838 16.9814 32.7883L13.0479 28.8212L14.2892 27.5692C15.0418 26.8103 16.2676 26.8103 17.0202 27.5692L19.5882 30.1592C20.3097 30.8869 21.4968 30.8869 22.2183 30.1592L24.7863 27.5692C25.5389 26.8103 26.7647 26.8103 27.5173 27.5692L28.7586 28.8212L24.8251 32.7883C23.7389 33.8681 22.3192 34.4237 20.8994 34.4237Z" fill="white"/>
<path d="M30.9622 46.8885L27.0287 42.9214C24.8641 40.7383 24.8641 37.2015 27.0287 35.0184L30.9622 31.0513L32.2036 32.3032C32.9562 33.0622 32.9562 34.2985 32.2036 35.0575L29.6356 37.6475C28.9063 38.383 28.9063 39.5724 29.6356 40.3001L32.2036 42.8901C32.9562 43.6491 32.9562 44.8854 32.2036 45.6444L30.9622 46.8885Z" fill="white"/>
<defs>
<linearGradient id="paint0_linear_227_156" x1="19.5" y1="71.5" x2="18" y2="53" gradientUnits="userSpaceOnUse">
<stop/>
<stop offset="1" stop-opacity="0"/>
</linearGradient>
</defs>
</svg>
