<svg width="136" height="147" viewBox="0 0 136 147" fill="none" xmlns="http://www.w3.org/2000/svg">
<path d="M6.20577 4.1326L6.50736 0L6.85989 4.13737C6.92785 5.33568 7.61599 6.29051 8.47401 6.38122L10.9051 6.85863L8.47823 7.27875C7.62871 7.35513 6.93637 8.30519 6.88115 9.49872L6.57956 13.6313L6.227 9.50349C6.16328 8.30518 5.47093 7.35036 4.61291 7.25965L0 6.78224L4.60866 6.36211C5.46668 6.27618 6.15055 5.32613 6.20577 4.1326Z" fill="white"/>
<path d="M125.937 56.0795L98.4339 55.675H72.5484L64.0547 81.1561L135.644 118.771C135.644 112.704 136.291 100.166 134.026 83.9873C131.762 67.8089 127.69 58.6411 125.937 56.0795Z" fill="#555557"/>
<path d="M103.288 92.0764L64.46 75.4935L102.075 57.2927C103.558 58.6409 106.605 63.5214 106.928 72.2578C107.252 80.9942 104.636 89.1103 103.288 92.0764Z" fill="#262628"/>
<path d="M36.5518 18.4649C32.5725 19.5503 24.8224 22.914 19.5645 26.9586L25.6314 29.7898L84.6827 33.0255C84.0086 31.2728 81.6227 28.4539 81.8515 27.7675C82.256 26.5541 91.6934 25.3407 91.1541 24.9362C89.8598 23.9655 69.7177 19.2739 59.6061 17.656C49.4946 16.0382 41.0009 17.2515 36.5518 18.4649Z" fill="#303031"/>
<path d="M9.55813 99.8605L6.61904 103.779C6.27997 104.231 6.49268 104.881 7.03771 105.03C14.0281 106.945 28.5852 110.026 48.7907 115.23C70.1463 120.731 107.303 138.959 121.594 146.374C123.212 144.891 127.094 141.197 129.683 138.284C132.919 134.644 132.11 124.533 132.11 123.319C132.11 122.106 134.536 119.679 135.345 119.275C136.154 118.87 133.323 117.252 132.919 117.252C132.514 117.252 131.301 105.523 130.896 105.119C130.492 104.714 129.278 106.332 127.256 107.141C125.234 107.95 122.403 108.354 121.189 107.545C119.976 106.736 91.2591 91.3669 89.6413 90.1535C88.0234 88.9401 87.2145 74.3795 87.2145 73.5706C87.2145 72.7617 88.0234 71.9528 89.6413 71.5483C91.2591 71.1438 118.358 64.268 121.189 63.8635C121.594 63.8058 124.724 60.5288 123.915 55.2708C122.795 47.9905 116.33 41.2142 112.995 37.8789C110.568 35.4522 107.737 33.0254 95.3037 28.2709C81.9526 23.1651 58.0933 23.4173 44.7461 23.4173C31.3989 23.4173 16.4338 35.9556 13.6026 37.9779C10.7713 40.0002 4.29997 45.6627 3.49105 46.0672C2.68213 46.4716 2.68213 46.4716 3.08659 48.8984C3.41016 50.8398 3.76069 53.2126 3.89551 54.1564C3.4911 54.6957 2.43961 57.9583 1.4689 66.6947C0.498195 75.431 6.45726 92.4454 9.55813 99.8605Z" fill="#404044"/>
<mask id="mask0_214_7101" style="mask-type:alpha" maskUnits="userSpaceOnUse" x="0" y="22" width="136" height="125">
<path d="M9.55813 99.8601L6.61904 103.779C6.27997 104.231 6.49268 104.88 7.03771 105.03C14.0281 106.945 28.5852 110.025 48.7907 115.23C70.1463 120.73 107.303 138.958 121.594 146.373C123.212 144.89 127.094 141.196 129.683 138.284C132.919 134.644 132.11 124.532 132.11 123.319C132.11 122.106 134.536 119.679 135.345 119.274C136.154 118.87 133.323 117.252 132.919 117.252C132.514 117.252 131.301 105.523 130.896 105.118C130.492 104.714 129.278 106.332 127.256 107.141C125.234 107.949 122.403 108.354 121.189 107.545C119.976 106.736 91.2591 91.3665 89.6413 90.1531C88.0234 88.9397 87.2145 74.3791 87.2145 73.5702C87.2145 72.7613 88.0234 71.9524 89.6413 71.5479C91.2591 71.1434 118.358 64.2676 121.189 63.8631C121.594 63.8054 124.02 61.4364 123.212 56.1784C122.403 50.9204 115.222 41.3128 111.887 37.9775L111.887 37.9774C109.46 35.5508 108.246 34.3373 95.3037 28.2705C82.361 22.2035 58.0933 23.4169 44.7461 23.4169C31.3989 23.4169 16.4338 35.9552 13.6026 37.9775C10.7713 39.9998 4.29997 45.6623 3.49105 46.0668C2.68213 46.4712 2.68213 46.4712 3.08659 48.898C3.41016 50.8394 3.76069 53.2122 3.89551 54.156C3.4911 54.6953 2.43961 57.9579 1.4689 66.6943C0.498195 75.4306 6.45726 92.445 9.55813 99.8601Z" fill="#C4C4C4" stroke="black" stroke-width="0.808923"/>
</mask>
<g mask="url(#mask0_214_7101)">
<path d="M19.9682 56.4837C11.07 46.7766 5.81203 45.1588 2.17188 44.3499C2.64573 47.3509 2.57594 52.4391 3.38526 52.0346C4.19458 51.6302 13.9009 56.8882 21.5856 63.3595C29.2704 69.8309 33.8547 75.4934 36.9555 79.1335C34.2591 75.0889 27.0867 64.2493 19.9682 56.4837Z" fill="#F98596"/>
<path d="M19.9682 57.2928C11.07 47.5857 5.81203 45.9679 2.17188 45.1589C2.64573 48.16 2.57594 53.2482 3.38526 52.8437C4.19458 52.4392 13.9009 57.6972 21.5856 64.1686C29.2704 70.64 33.8547 75.4935 36.9555 79.1337C34.2591 75.0891 27.0867 65.0584 19.9682 57.2928Z" fill="#DB233F"/>
<path fill-rule="evenodd" clip-rule="evenodd" d="M124.319 56.0794L58.3918 54.0571L58.3671 54.1675C51.6903 54.4475 46.3633 59.949 46.3633 66.6946C46.3633 72.6084 50.4574 77.5659 55.9659 78.8873L133.112 116.245L124.319 56.0794Z" fill="#333336"/>
<path d="M88.4285 125.341L50.4092 75.9971L140.499 120.389L126.852 144.351L88.4285 125.341Z" fill="#535356"/>
<g style="mix-blend-mode:multiply" opacity="0.3">
<path d="M1.36331 43.9456C24.0131 44.7545 49.8987 43.9456 60.0102 43.9456C70.1217 43.9456 79.4243 49.608 83.469 56.0794C87.5136 62.5508 89.5359 94.0988 91.5582 95.7166C92.9424 96.824 130.386 113.108 150.61 128.478C151.965 130.25 146.558 136.018 141.761 141.285L135.24 150.723L-5.91699 106.233L1.36331 43.9456Z" fill="#262627"/>
</g>
<path fill-rule="evenodd" clip-rule="evenodd" d="M135.034 150.658L135.24 150.723L142.105 141.112C142.341 140.859 142.577 140.606 142.815 140.352C147.637 135.192 152.71 129.762 151.418 128.074C135.595 116.048 108.238 103.709 96.4204 98.3795C93.1346 96.8976 91.0502 95.9575 90.7491 95.7166C89.8847 95.0251 89.1681 88.866 88.3151 81.5342C87.1723 71.7119 85.7847 59.7848 83.4688 56.0794C79.4242 49.608 70.1216 43.9456 60.01 43.9456C57.3116 43.9456 53.4898 44.0032 48.906 44.0723C41.5872 44.1826 32.3256 44.3222 22.5918 44.3034C38.2929 44.6042 53.0339 44.7546 59.2005 44.7546C69.312 44.7546 78.6146 50.4171 82.6592 56.8885C84.9623 60.5734 86.6097 72.3893 87.9747 82.1801C89.0069 89.5835 89.8777 95.8291 90.7484 96.5257C91.0508 96.7676 93.0743 97.7339 96.2633 99.2568C107.671 104.705 133.995 117.275 149.8 129.287C151.092 130.976 146.241 136.294 141.63 141.349C141.403 141.598 141.177 141.847 140.951 142.094L135.034 150.658Z" fill="white"/>
<path d="M55.5614 110.277C44.8836 105.747 11.61 93.8292 0.554688 91.6721L9.04838 99.3569C18.2162 101.379 39.6256 107.123 51.9213 110.682C64.2169 114.241 73.7622 118.636 76.9979 120.389C74.3015 118.906 66.2392 114.807 55.5614 110.277Z" fill="#E22440"/>
<path d="M63.5835 78.2166L61.859 75.8227C61.3693 75.1428 60.4271 74.9937 59.7576 75.4902L57.3784 77.2349C56.6812 77.7462 55.7018 77.5913 55.1964 76.8897L54.3628 75.7325L58.0071 73.0601C60.0126 71.5894 62.8145 72.0327 64.268 74.0506L66.9093 77.7175L65.7593 78.5609C65.0682 79.0731 64.095 78.9192 63.5835 78.2166Z" fill="#272728"/>
<path d="M52.8852 73.6717L52.0516 72.5145C51.5463 71.8129 51.7025 70.8251 52.3998 70.3138L54.779 68.5691C55.4547 68.0736 55.605 67.1233 55.1143 66.4497L53.3899 64.0557C52.8845 63.3542 53.0408 62.3664 53.738 61.8551L54.8881 61.0117L57.5294 64.6786C58.983 66.6965 58.5359 69.5223 56.5305 70.993L52.8852 73.6717Z" fill="#272728"/>
<path d="M62.5282 64.9635C61.3938 64.784 60.3277 64.1731 59.6045 63.1616L56.9631 59.4947L58.1132 58.6513C58.8105 58.14 59.7899 58.2949 60.2952 58.9965L62.0196 61.3905C62.5042 62.0631 63.4526 62.2131 64.1211 61.7229L66.5003 59.9782C67.1975 59.4669 68.1769 59.6219 68.6823 60.3234L69.5158 61.4806L65.8715 64.1531C64.8672 64.8785 63.6626 65.1429 62.5282 64.9635Z" fill="#272728"/>
<path d="M68.9927 76.1948L66.3513 72.5279C64.8978 70.51 65.3449 67.6842 67.3503 66.2135L70.9946 63.5411L71.8282 64.6983C72.3335 65.3998 72.1772 66.3876 71.48 66.8989L69.1008 68.6437C68.4251 69.1391 68.2748 70.0894 68.7655 70.763L70.4899 73.157C70.9953 73.8585 70.839 74.8463 70.1418 75.3576L68.9927 76.1948Z" fill="#272728"/>
<path d="M64.8301 77.5887L64.8293 77.5893C64.2302 78.0334 63.3843 77.9019 62.9376 77.2889C62.9376 77.2888 62.9375 77.2886 62.9374 77.2885L61.2136 74.8954C60.6586 74.125 59.5889 73.9545 58.8281 74.5183C58.8279 74.5184 58.8277 74.5186 58.8276 74.5187L56.4492 76.2628C55.8426 76.7076 54.9906 76.5728 54.5509 75.9624L53.8346 74.9679L57.3172 72.4141C59.232 71.0099 61.9065 71.433 63.2943 73.3597L65.8185 76.8639L64.8301 77.5887Z" fill="#DB233F" stroke="url(#paint0_linear_214_7101)" stroke-width="0.404461"/>
<path d="M53.0471 61.2093L54.0327 60.4866L56.5548 63.988C57.9434 65.9158 57.5162 68.6161 55.6003 70.021L55.6002 70.0212L52.1194 72.579L51.4052 71.5874C50.9647 70.9759 51.1011 70.1137 51.7088 69.6681L54.088 67.9233C54.8526 67.3626 55.0241 66.2867 54.4675 65.5222C54.4674 65.5221 54.4673 65.5219 54.4672 65.5218L52.7434 63.1287C52.3029 62.5172 52.4394 61.655 53.0471 61.2093Z" fill="#DB233F" stroke="url(#paint1_linear_214_7101)" stroke-width="0.404461"/>
<path d="M58.9594 62.2354L58.959 62.2348L56.4349 58.7306L57.4232 58.0058C58.0299 57.5609 58.8819 57.6957 59.3216 58.3061L61.046 60.7001C61.5962 61.4639 62.672 61.6341 63.4311 61.0774L65.8103 59.3327C66.4169 58.8878 67.2689 59.0226 67.7086 59.633L67.8727 59.5148L67.7086 59.633L68.425 60.6275L64.9436 63.1805C64.9433 63.1807 64.9431 63.1809 64.9429 63.181C63.9825 63.8744 62.8323 64.1263 61.7502 63.9551C60.6665 63.7837 59.6495 63.2006 58.9594 62.2354Z" fill="#DB233F" stroke="url(#paint2_linear_214_7101)" stroke-width="0.404461"/>
<path d="M69.2116 74.3855L68.2274 75.1025L65.7049 71.6006C64.3162 69.6728 64.7435 66.9725 66.6594 65.5675L70.1392 63.0157L70.8535 64.0074C71.294 64.6189 71.1576 65.4811 70.5499 65.9268L68.1707 67.6715C67.4061 68.2322 67.2346 69.3081 67.7912 70.0726C67.7913 70.0727 67.7914 70.0729 67.7915 70.073L69.5153 72.4661C69.9557 73.0775 69.8194 73.9396 69.2119 74.3853C69.2118 74.3854 69.2117 74.3854 69.2116 74.3855Z" fill="#DB233F" stroke="url(#paint3_linear_214_7101)" stroke-width="0.404461"/>
</g>
<path fill-rule="evenodd" clip-rule="evenodd" d="M104.432 54.9507L115.855 55.6174C120.854 55.9092 125.397 58.5665 127.073 63.2856C128.754 68.0211 130.597 74.8979 131.87 83.9878C133.778 97.6186 133.619 108.665 133.522 115.435C133.516 115.873 133.51 116.294 133.504 116.696L135.915 117.962C135.915 117.007 135.931 115.891 135.949 114.626C136.046 107.856 136.205 96.8095 134.297 83.1787C132.032 67.0003 127.96 57.8325 126.207 55.2709L104.432 54.9507Z" fill="white"/>
<g clip-path="url(#clip0_214_7101)">
<path d="M126.56 52.0683L126.748 49.5913L126.968 52.0711C127.011 52.7894 127.441 53.3617 127.977 53.416L129.496 53.7022L127.979 53.954C127.449 53.9998 127.016 54.5692 126.982 55.2846L126.793 57.7615L126.573 55.2874C126.533 54.5692 126.101 53.9969 125.565 53.9425L122.683 53.6564L125.562 53.4046C126.098 53.3531 126.525 52.7836 126.56 52.0683Z" fill="white"/>
</g>
<path d="M129.285 16.1083L129.474 13.6313L129.694 16.1112C129.736 16.8294 130.166 17.4017 130.702 17.4561L132.221 17.7422L130.705 17.994C130.174 18.0398 129.742 18.6092 129.707 19.3246L129.519 21.8016L129.299 19.3275C129.259 18.6092 128.826 18.0369 128.29 17.9826L125.408 17.6964L128.287 17.4446C128.824 17.3931 129.251 16.8237 129.285 16.1083Z" fill="white"/>
<path d="M3.87709 77.4579L4.06551 74.981L4.28576 77.4608C4.32822 78.179 4.75814 78.7513 5.29419 78.8057L6.813 79.0918L5.29683 79.3436C4.76609 79.3894 4.33354 79.9588 4.29904 80.6742L4.11062 83.1512L3.89036 80.6771C3.85055 79.9588 3.418 79.3865 2.88195 79.3322L0 79.046L2.87929 78.7942C3.41534 78.7427 3.8426 78.1733 3.87709 77.4579Z" fill="white"/>
<defs>
<linearGradient id="paint0_linear_214_7101" x1="60.535" y1="71.438" x2="59.5963" y2="77.371" gradientUnits="userSpaceOnUse">
<stop stop-color="#FFA4A4"/>
<stop offset="1" stop-color="#FFA4A4" stop-opacity="0"/>
</linearGradient>
<linearGradient id="paint1_linear_214_7101" x1="55.5761" y1="60.44" x2="53.5732" y2="73.0999" gradientUnits="userSpaceOnUse">
<stop stop-color="#FFA4A4"/>
<stop offset="1" stop-color="#FFA4A4" stop-opacity="0"/>
</linearGradient>
<linearGradient id="paint2_linear_214_7101" x1="62.6601" y1="58.2239" x2="61.7217" y2="64.1554" gradientUnits="userSpaceOnUse">
<stop stop-color="#FFA4A4"/>
<stop offset="1" stop-color="#FFA4A4" stop-opacity="0"/>
</linearGradient>
<linearGradient id="paint3_linear_214_7101" x1="68.6855" y1="62.4949" x2="66.6836" y2="75.1486" gradientUnits="userSpaceOnUse">
<stop stop-color="#FFA4A4"/>
<stop offset="1" stop-color="#FFA4A4" stop-opacity="0"/>
</linearGradient>
<clipPath id="clip0_214_7101">
<rect width="8.17879" height="10.9051" fill="white" transform="translate(122.683 48.228)"/>
</clipPath>
</defs>
</svg>
