<svg width="150" height="25" viewBox="0 0 150 25" fill="none" xmlns="http://www.w3.org/2000/svg">
<rect x="0.0513611" width="149.949" height="25" rx="12.5" fill="url(#paint0_linear_2009_4318)"/>
<path d="M18.4185 7.40166V17.5835H16.7779L11.9803 10.6481H11.8958V17.5835H10.0514V7.40166H11.7019L16.4945 14.342H16.584V7.40166H18.4185Z" fill="white"/>
<path d="M20.8483 17.5835V7.40166H27.4705V8.94782H22.6928V11.712H27.1274V13.2582H22.6928V16.0373H27.5102V17.5835H20.8483Z" fill="white"/>
<path d="M31.915 17.5835L29.0414 7.40166H31.0251L32.8596 14.8839H32.954L34.9128 7.40166H36.7175L38.6813 14.8889H38.7708L40.6053 7.40166H42.589L39.7154 17.5835H37.8958L35.8574 10.4393H35.7779L33.7346 17.5835H31.915Z" fill="white"/>
<path d="M56.8958 10.837H55.0364C54.9834 10.5321 54.8856 10.262 54.7431 10.0267C54.6006 9.78802 54.4232 9.58584 54.2111 9.42012C53.999 9.2544 53.757 9.13011 53.4853 9.04725C53.2168 8.96108 52.9268 8.91799 52.6152 8.91799C52.0617 8.91799 51.5712 9.0572 51.1437 9.3356C50.7161 9.6107 50.3813 10.0151 50.1394 10.5487C49.8974 11.079 49.7765 11.7269 49.7765 12.4926C49.7765 13.2714 49.8974 13.9277 50.1394 14.4613C50.3847 14.9916 50.7194 15.3927 51.1437 15.6644C51.5712 15.9329 52.0601 16.0671 52.6103 16.0671C52.9152 16.0671 53.2002 16.0274 53.4654 15.9478C53.7338 15.865 53.9741 15.744 54.1863 15.5849C54.4017 15.4258 54.5823 15.2303 54.7282 14.9982C54.8773 14.7662 54.9801 14.5011 55.0364 14.2028L56.8958 14.2127C56.8262 14.6966 56.6754 15.1507 56.4434 15.575C56.2147 15.9992 55.9147 16.3737 55.5435 16.6985C55.1723 17.02 54.7381 17.2719 54.241 17.4542C53.7438 17.6332 53.1919 17.7227 52.5854 17.7227C51.6905 17.7227 50.8918 17.5155 50.1891 17.1012C49.4865 16.6869 48.9329 16.0887 48.5286 15.3065C48.1242 14.5243 47.9221 13.5863 47.9221 12.4926C47.9221 11.3955 48.1259 10.4575 48.5336 9.67864C48.9412 8.89645 49.4964 8.2982 50.199 7.8839C50.9017 7.4696 51.6972 7.26245 52.5854 7.26245C53.1522 7.26245 53.6792 7.342 54.1664 7.50109C54.6536 7.66018 55.0878 7.89384 55.4689 8.20208C55.8501 8.50701 56.1633 8.88153 56.4086 9.32566C56.6571 9.76648 56.8195 10.2703 56.8958 10.837Z" fill="white"/>
<path d="M60.1894 17.5835H58.2206L61.8051 7.40166H64.0821L67.6716 17.5835H65.7029L62.9834 9.48972H62.9038L60.1894 17.5835ZM60.254 13.5913H65.6233V15.0728H60.254V13.5913Z" fill="white"/>
<path d="M74.802 10.2007C74.7556 9.76648 74.5601 9.42841 74.2154 9.18646C73.874 8.94451 73.4298 8.82353 72.883 8.82353C72.4985 8.82353 72.1687 8.88153 71.8936 8.99754C71.6185 9.11354 71.4081 9.27097 71.2622 9.46984C71.1164 9.6687 71.0418 9.89574 71.0385 10.1509C71.0385 10.3631 71.0866 10.547 71.1827 10.7028C71.2821 10.8586 71.4164 10.9911 71.5854 11.1005C71.7544 11.2066 71.9417 11.2961 72.1472 11.369C72.3527 11.4419 72.5598 11.5032 72.7686 11.5529L73.7232 11.7916C74.1076 11.8811 74.4772 12.002 74.8318 12.1545C75.1898 12.307 75.5096 12.4992 75.7914 12.7312C76.0764 12.9632 76.3018 13.2433 76.4675 13.5714C76.6332 13.8995 76.7161 14.284 76.7161 14.7248C76.7161 15.3214 76.5636 15.8467 76.2587 16.3008C75.9538 16.7516 75.5129 17.1045 74.9362 17.3598C74.3629 17.6116 73.6685 17.7376 72.8531 17.7376C72.061 17.7376 71.3733 17.615 70.7899 17.3697C70.2099 17.1244 69.7558 16.7665 69.4277 16.2958C69.1029 15.8252 68.9272 15.2518 68.9007 14.5757H70.7154C70.7419 14.9303 70.8512 15.2253 71.0435 15.4606C71.2357 15.6959 71.486 15.8716 71.7942 15.9876C72.1058 16.1036 72.4538 16.1616 72.8382 16.1616C73.2393 16.1616 73.5906 16.1019 73.8922 15.9826C74.1971 15.86 74.4358 15.691 74.6081 15.4755C74.7805 15.2568 74.8683 15.0016 74.8716 14.7099C74.8683 14.4447 74.7904 14.226 74.6379 14.0536C74.4855 13.878 74.2717 13.7321 73.9966 13.6161C73.7248 13.4968 73.4066 13.3908 73.0421 13.298L71.8837 12.9997C71.0451 12.7842 70.3823 12.4578 69.895 12.0203C69.4111 11.5794 69.1692 10.9945 69.1692 10.2653C69.1692 9.66539 69.3316 9.14006 69.6564 8.6893C69.9845 8.23854 70.4303 7.88887 70.9938 7.64029C71.5572 7.3884 72.1952 7.26245 72.9078 7.26245C73.6304 7.26245 74.2634 7.3884 74.807 7.64029C75.3539 7.88887 75.7831 8.23523 76.0946 8.67935C76.4062 9.12017 76.5669 9.62727 76.5769 10.2007H74.802Z" fill="white"/>
<path d="M78.7804 17.5835V7.40166H85.4026V8.94782H80.6249V11.712H85.0595V13.2582H80.6249V16.0373H85.4424V17.5835H78.7804Z" fill="white"/>
<path d="M97.1304 10.2007C97.084 9.76648 96.8884 9.42841 96.5437 9.18646C96.2023 8.94451 95.7582 8.82353 95.2113 8.82353C94.8269 8.82353 94.4971 8.88153 94.222 8.99754C93.9469 9.11354 93.7364 9.27097 93.5906 9.46984C93.4448 9.6687 93.3702 9.89574 93.3669 10.1509C93.3669 10.3631 93.4149 10.547 93.511 10.7028C93.6105 10.8586 93.7447 10.9911 93.9137 11.1005C94.0828 11.2066 94.27 11.2961 94.4755 11.369C94.681 11.4419 94.8882 11.5032 95.097 11.5529L96.0515 11.7916C96.436 11.8811 96.8056 12.002 97.1602 12.1545C97.5181 12.307 97.838 12.4992 98.1197 12.7312C98.4047 12.9632 98.6301 13.2433 98.7958 13.5714C98.9616 13.8995 99.0444 14.284 99.0444 14.7248C99.0444 15.3214 98.892 15.8467 98.587 16.3008C98.2821 16.7516 97.8413 17.1045 97.2646 17.3598C96.6912 17.6116 95.9968 17.7376 95.1815 17.7376C94.3894 17.7376 93.7016 17.615 93.1183 17.3697C92.5383 17.1244 92.0842 16.7665 91.7561 16.2958C91.4313 15.8252 91.2556 15.2518 91.2291 14.5757H93.0437C93.0702 14.9303 93.1796 15.2253 93.3718 15.4606C93.5641 15.6959 93.8143 15.8716 94.1226 15.9876C94.4341 16.1036 94.7821 16.1616 95.1666 16.1616C95.5676 16.1616 95.9189 16.1019 96.2206 15.9826C96.5255 15.86 96.7641 15.691 96.9365 15.4755C97.1088 15.2568 97.1967 15.0016 97.2 14.7099C97.1967 14.4447 97.1188 14.226 96.9663 14.0536C96.8138 13.878 96.6001 13.7321 96.325 13.6161C96.0532 13.4968 95.735 13.3908 95.3704 13.298L94.212 12.9997C93.3735 12.7842 92.7106 12.4578 92.2234 12.0203C91.7395 11.5794 91.4976 10.9945 91.4976 10.2653C91.4976 9.66539 91.66 9.14006 91.9848 8.6893C92.3129 8.23854 92.7587 7.88887 93.3221 7.64029C93.8856 7.3884 94.5236 7.26245 95.2362 7.26245C95.9587 7.26245 96.5918 7.3884 97.1353 7.64029C97.6822 7.88887 98.1114 8.23523 98.423 8.67935C98.7345 9.12017 98.8953 9.62727 98.9052 10.2007H97.1304Z" fill="white"/>
<path d="M100.661 8.94782V7.40166H108.785V8.94782H105.638V17.5835H103.808V8.94782H100.661Z" fill="white"/>
<path d="M117.189 7.40166H119.034V14.0536C119.034 14.7828 118.861 15.4241 118.517 15.9777C118.175 16.5312 117.695 16.9637 117.075 17.2752C116.455 17.5835 115.731 17.7376 114.902 17.7376C114.07 17.7376 113.345 17.5835 112.725 17.2752C112.105 16.9637 111.624 16.5312 111.283 15.9777C110.942 15.4241 110.771 14.7828 110.771 14.0536V7.40166H112.615V13.8995C112.615 14.3238 112.708 14.7016 112.894 15.033C113.083 15.3645 113.348 15.6247 113.689 15.8136C114.031 15.9992 114.435 16.092 114.902 16.092C115.37 16.092 115.774 15.9992 116.115 15.8136C116.46 15.6247 116.725 15.3645 116.911 15.033C117.096 14.7016 117.189 14.3238 117.189 13.8995V7.40166Z" fill="white"/>
<path d="M124.909 17.5835H121.459V7.40166H124.978C125.989 7.40166 126.858 7.60549 127.584 8.01316C128.313 8.41752 128.873 8.99919 129.264 9.75819C129.655 10.5172 129.851 11.4253 129.851 12.4826C129.851 13.5432 129.653 14.4547 129.259 15.217C128.868 15.9793 128.303 16.5643 127.564 16.972C126.828 17.3796 125.943 17.5835 124.909 17.5835ZM123.303 15.9876H124.819C125.529 15.9876 126.12 15.8583 126.594 15.5998C127.068 15.338 127.424 14.9485 127.663 14.4315C127.902 13.9111 128.021 13.2615 128.021 12.4826C128.021 11.7037 127.902 11.0574 127.663 10.5437C127.424 10.0267 127.071 9.64053 126.604 9.38532C126.14 9.1268 125.563 8.99754 124.874 8.99754H123.303V15.9876Z" fill="white"/>
<path d="M130.753 7.40166H132.836L135.327 11.9059H135.426L137.917 7.40166H140L136.296 13.7852V17.5835H134.457V13.7852L130.753 7.40166Z" fill="white"/>
<defs>
<linearGradient id="paint0_linear_2009_4318" x1="75.0257" y1="2.25384e-06" x2="118.741" y2="67.363" gradientUnits="userSpaceOnUse">
<stop stop-color="#04ABAB"/>
<stop offset="1" stop-color="#3E64ED"/>
</linearGradient>
</defs>
</svg>
