<svg width="150" height="149" viewBox="0 0 150 149" fill="none" xmlns="http://www.w3.org/2000/svg">
<rect x="81.0215" width="4.01408" height="4.01408" fill="#343435"/>
<rect x="32.8525" width="4.01408" height="4.01408" fill="#343435"/>
<rect x="97.0781" width="4.01408" height="4.01408" fill="#343435"/>
<rect x="48.9087" width="4.01408" height="4.01408" fill="#343435"/>
<rect x="113.134" width="4.01408" height="4.01408" fill="#343435"/>
<rect x="145.247" width="4.01408" height="4.01408" fill="#343435"/>
<rect x="32.8525" width="4.01408" height="4.01408" fill="#23AF5B"/>
<rect x="97.0781" width="4.01408" height="4.01408" fill="#343435"/>
<rect x="48.9087" width="4.01408" height="4.01408" fill="#343435"/>
<rect x="113.134" width="4.01408" height="4.01408" fill="#343435"/>
<rect x="145.247" width="4.01408" height="4.01408" fill="#24B65E"/>
<rect x="64.9648" y="16.0566" width="4.01408" height="4.01408" fill="#343435"/>
<rect x="16.7964" y="16.0566" width="4.01408" height="4.01408" fill="#343435"/>
<rect x="81.0215" y="16.0566" width="4.01408" height="4.01408" fill="#343435"/>
<rect x="97.0781" y="16.0566" width="4.01408" height="4.01408" fill="#343435"/>
<rect x="48.9087" y="16.0566" width="4.01408" height="4.01408" fill="#343435"/>
<rect x="113.134" y="16.0566" width="4.01408" height="4.01408" fill="#343435"/>
<rect x="145.247" y="16.0566" width="4.01408" height="4.01408" fill="#343435"/>
<rect x="97.0781" y="16.0566" width="4.01408" height="4.01408" fill="#24B65E"/>
<rect x="48.9087" y="16.0566" width="4.01408" height="4.01408" fill="#343435"/>
<rect x="113.134" y="16.0566" width="4.01408" height="4.01408" fill="#343435"/>
<rect x="145.247" y="16.0566" width="4.01408" height="4.01408" fill="#343435"/>
<rect x="0.739746" y="32.1125" width="4.01408" height="4.01408" fill="#343435"/>
<rect x="64.9648" y="32.1125" width="4.01408" height="4.01408" fill="#343435"/>
<rect x="16.7964" y="32.1125" width="4.01408" height="4.01408" fill="#23AF5B"/>
<rect x="81.0215" y="32.1125" width="4.01408" height="4.01408" fill="#343435"/>
<rect x="32.8525" y="32.1125" width="4.01408" height="4.01408" fill="#343435"/>
<rect x="97.0781" y="32.1125" width="4.01408" height="4.01408" fill="#343435"/>
<rect x="129.19" y="32.1125" width="4.01408" height="4.01408" fill="#343435"/>
<rect x="48.9087" y="32.1125" width="4.01408" height="4.01408" fill="#343435"/>
<rect x="113.134" y="32.1125" width="4.01408" height="4.01408" fill="#343435"/>
<rect x="145.247" y="32.1125" width="4.01408" height="4.01408" fill="#343435"/>
<rect x="32.8525" y="32.1125" width="4.01408" height="4.01408" fill="#343435"/>
<rect x="97.0781" y="32.1125" width="4.01408" height="4.01408" fill="#343435"/>
<rect x="129.19" y="32.1125" width="4.01408" height="4.01408" fill="#343435"/>
<rect x="48.9087" y="32.1125" width="4.01408" height="4.01408" fill="#343435"/>
<rect x="113.134" y="32.1125" width="4.01408" height="4.01408" fill="#343435"/>
<rect x="145.247" y="32.1125" width="4.01408" height="4.01408" fill="#343435"/>
<rect x="64.9648" y="48.1689" width="4.01408" height="4.01408" fill="#343435"/>
<rect x="16.7964" y="48.1689" width="4.01408" height="4.01408" fill="#343435"/>
<rect x="81.0215" y="48.1689" width="4.01408" height="4.01408" fill="#343435"/>
<rect x="32.8525" y="48.1689" width="4.01408" height="4.01408" fill="#343435"/>
<rect x="97.0781" y="48.1689" width="4.01408" height="4.01408" fill="#343435"/>
<rect x="48.9087" y="48.1689" width="4.01408" height="4.01408" fill="#343435"/>
<rect x="113.134" y="48.1689" width="4.01408" height="4.01408" fill="#343435"/>
<rect x="32.8525" y="48.1689" width="4.01408" height="4.01408" fill="#343435"/>
<rect x="97.0781" y="48.1689" width="4.01408" height="4.01408" fill="#343435"/>
<rect x="48.9087" y="48.1689" width="4.01408" height="4.01408" fill="#343435"/>
<rect x="113.134" y="48.1689" width="4.01408" height="4.01408" fill="#343435"/>
<rect x="0.739746" y="64.2249" width="4.01408" height="4.01408" fill="#343435"/>
<rect x="64.9648" y="64.2249" width="4.01408" height="4.01408" fill="#343435"/>
<rect x="16.7964" y="64.2249" width="4.01408" height="4.01408" fill="#343435"/>
<rect x="81.0215" y="64.2249" width="4.01408" height="4.01408" fill="#343435"/>
<rect x="32.8525" y="64.2249" width="4.01408" height="4.01408" fill="#343435"/>
<rect x="97.0781" y="64.2249" width="4.01408" height="4.01408" fill="#343435"/>
<rect x="129.19" y="64.2249" width="4.01408" height="4.01408" fill="#343435"/>
<rect x="48.9087" y="64.2249" width="4.01408" height="4.01408" fill="#343435"/>
<rect x="113.134" y="64.2249" width="4.01408" height="4.01408" fill="#343435"/>
<rect x="145.247" y="64.2249" width="4.01408" height="4.01408" fill="#343435"/>
<rect x="32.8525" y="64.2249" width="4.01408" height="4.01408" fill="#343435"/>
<rect x="97.0781" y="64.2249" width="4.01408" height="4.01408" fill="#343435"/>
<rect x="129.19" y="64.2249" width="4.01408" height="4.01408" fill="#24B65E"/>
<rect x="48.9087" y="64.2249" width="4.01408" height="4.01408" fill="#343435"/>
<rect x="113.134" y="64.2249" width="4.01408" height="4.01408" fill="#343435"/>
<rect x="64.9648" y="80.2817" width="4.01408" height="4.01408" fill="#343435"/>
<rect x="16.7964" y="80.2817" width="4.01408" height="4.01408" fill="#24B65E"/>
<rect x="81.0215" y="80.2817" width="4.01408" height="4.01408" fill="#343435"/>
<rect x="32.8525" y="80.2817" width="4.01408" height="4.01408" fill="#343435"/>
<rect x="97.0781" y="80.2817" width="4.01408" height="4.01408" fill="#343435"/>
<rect x="129.19" y="80.2817" width="4.01408" height="4.01408" fill="#343435"/>
<rect x="48.9087" y="80.2817" width="4.01408" height="4.01408" fill="#343435"/>
<rect x="113.134" y="80.2817" width="4.01408" height="4.01408" fill="#343435"/>
<rect x="145.247" y="80.2817" width="4.01408" height="4.01408" fill="#343435"/>
<rect x="32.8525" y="80.2817" width="4.01408" height="4.01408" fill="#343435"/>
<rect x="97.0781" y="80.2817" width="4.01408" height="4.01408" fill="#343435"/>
<rect x="129.19" y="80.2817" width="4.01408" height="4.01408" fill="#343435"/>
<rect x="48.9087" y="80.2817" width="4.01408" height="4.01408" fill="#343435"/>
<rect x="113.134" y="80.2817" width="4.01408" height="4.01408" fill="#343435"/>
<rect x="145.247" y="80.2817" width="4.01408" height="4.01408" fill="#343435"/>
<rect x="0.739746" y="96.3379" width="4.01408" height="4.01408" fill="#343435"/>
<rect x="64.9648" y="96.3379" width="4.01408" height="4.01408" fill="#343435"/>
<rect x="16.7964" y="96.3379" width="4.01408" height="4.01408" fill="#343435"/>
<rect x="81.0215" y="96.3379" width="4.01408" height="4.01408" fill="#343435"/>
<rect x="32.8525" y="96.3379" width="4.01408" height="4.01408" fill="#343435"/>
<rect x="97.0781" y="96.3379" width="4.01408" height="4.01408" fill="#343435"/>
<rect x="129.19" y="96.3379" width="4.01408" height="4.01408" fill="#343435"/>
<rect x="48.9087" y="96.3379" width="4.01408" height="4.01408" fill="#343435"/>
<rect x="113.134" y="96.3379" width="4.01408" height="4.01408" fill="#343435"/>
<rect x="32.8525" y="96.3379" width="4.01408" height="4.01408" fill="#343435"/>
<rect x="97.0781" y="96.3379" width="4.01408" height="4.01408" fill="#343435"/>
<rect x="129.19" y="96.3379" width="4.01408" height="4.01408" fill="#343435"/>
<rect x="48.9087" y="96.3379" width="4.01408" height="4.01408" fill="#343435"/>
<rect x="113.134" y="96.3379" width="4.01408" height="4.01408" fill="#24B65E"/>
<rect x="0.739746" y="112.394" width="4.01408" height="4.01408" fill="#24B65E"/>
<rect x="64.9648" y="112.394" width="4.01408" height="4.01408" fill="#343435"/>
<rect x="81.0215" y="112.394" width="4.01408" height="4.01408" fill="#343435"/>
<rect x="32.8525" y="112.394" width="4.01408" height="4.01408" fill="#343435"/>
<rect x="97.0781" y="112.394" width="4.01408" height="4.01408" fill="#343435"/>
<rect x="129.19" y="112.394" width="4.01408" height="4.01408" fill="#343435"/>
<rect x="48.9087" y="112.394" width="4.01408" height="4.01408" fill="#343435"/>
<rect x="113.134" y="112.394" width="4.01408" height="4.01408" fill="#343435"/>
<rect x="145.247" y="112.394" width="4.01408" height="4.01408" fill="#343435"/>
<rect x="32.8525" y="112.394" width="4.01408" height="4.01408" fill="#343435"/>
<rect x="97.0781" y="112.394" width="4.01408" height="4.01408" fill="#343435"/>
<rect x="129.19" y="112.394" width="4.01408" height="4.01408" fill="#343435"/>
<rect x="48.9087" y="112.394" width="4.01408" height="4.01408" fill="#343435"/>
<rect x="113.134" y="112.394" width="4.01408" height="4.01408" fill="#343435"/>
<rect x="64.9648" y="128.45" width="4.01408" height="4.01408" fill="#343435"/>
<rect x="16.7964" y="128.45" width="4.01408" height="4.01408" fill="#343435"/>
<rect x="81.0215" y="128.45" width="4.01408" height="4.01408" fill="#343435"/>
<rect x="32.8525" y="128.45" width="4.01408" height="4.01408" fill="#343435"/>
<rect x="129.19" y="128.45" width="4.01408" height="4.01408" fill="#343435"/>
<rect x="48.9087" y="128.45" width="4.01408" height="4.01408" fill="#343435"/>
<rect x="113.134" y="128.45" width="4.01408" height="4.01408" fill="#343435"/>
<rect x="145.247" y="128.45" width="4.01408" height="4.01408" fill="#343435"/>
<rect x="32.8525" y="128.45" width="4.01408" height="4.01408" fill="#272728"/>
<rect x="129.19" y="128.45" width="4.01408" height="4.01408" fill="#24B65E"/>
<rect x="48.9087" y="128.45" width="4.01408" height="4.01408" fill="#343435"/>
<rect x="113.134" y="128.45" width="4.01408" height="4.01408" fill="#343435"/>
<rect x="145.247" y="128.45" width="4.01408" height="4.01408" fill="#343435"/>
<rect x="0.739746" y="144.507" width="4.01408" height="4.01408" fill="#343435"/>
<rect x="64.9648" y="144.507" width="4.01408" height="4.01408" fill="#24B65E"/>
<rect x="16.7964" y="144.507" width="4.01408" height="4.01408" fill="#24B65E"/>
<rect x="97.0781" y="144.507" width="4.01408" height="4.01408" fill="#343435"/>
<rect x="48.9087" y="144.507" width="4.01408" height="4.01408" fill="#343435"/>
<rect x="113.134" y="144.507" width="4.01408" height="4.01408" fill="#343435"/>
<rect x="97.0781" y="144.507" width="4.01408" height="4.01408" fill="#343435"/>
<rect x="48.9087" y="144.507" width="4.01408" height="4.01408" fill="#343435"/>
<rect x="113.134" y="144.507" width="4.01408" height="4.01408" fill="#343435"/>
<g filter="url(#filter0_dii_419_1337)">
<rect x="30" y="30" width="89" height="89" rx="44.5" fill="#313132"/>
</g>
<g filter="url(#filter1_i_419_1337)">
<rect x="39" y="39" width="71" height="71" rx="35.5" stroke="url(#paint0_linear_419_1337)" stroke-width="2"/>
</g>
<g clip-path="url(#clip0_419_1337)">
<g filter="url(#filter2_dii_419_1337)">
<path d="M69.5777 89.4991C69.1872 89.8896 68.5541 89.8896 68.1635 89.4991L56.3194 77.655C55.9289 77.2645 55.9289 76.6313 56.3194 76.2408L60.8 71.7601C61.1909 71.3692 61.8249 71.3697 62.2152 71.7611L68.1632 77.7259C68.5537 78.1175 69.1879 78.1178 69.5787 77.7265L88.7844 58.5015C89.1748 58.1107 89.8083 58.1105 90.1989 58.5012L94.6802 62.9824C95.0707 63.373 95.0707 64.0061 94.6802 64.3966L69.5777 89.4991Z" fill="#24B65E"/>
</g>
</g>
<defs>
<filter id="filter0_dii_419_1337" x="16" y="20" width="117" height="117" filterUnits="userSpaceOnUse" color-interpolation-filters="sRGB">
<feFlood flood-opacity="0" result="BackgroundImageFix"/>
<feColorMatrix in="SourceAlpha" type="matrix" values="0 0 0 0 0 0 0 0 0 0 0 0 0 0 0 0 0 0 127 0" result="hardAlpha"/>
<feOffset dy="4"/>
<feGaussianBlur stdDeviation="7"/>
<feComposite in2="hardAlpha" operator="out"/>
<feColorMatrix type="matrix" values="0 0 0 0 0 0 0 0 0 0 0 0 0 0 0 0 0 0 0.25 0"/>
<feBlend mode="normal" in2="BackgroundImageFix" result="effect1_dropShadow_419_1337"/>
<feBlend mode="normal" in="SourceGraphic" in2="effect1_dropShadow_419_1337" result="shape"/>
<feColorMatrix in="SourceAlpha" type="matrix" values="0 0 0 0 0 0 0 0 0 0 0 0 0 0 0 0 0 0 127 0" result="hardAlpha"/>
<feOffset dy="4"/>
<feGaussianBlur stdDeviation="2"/>
<feComposite in2="hardAlpha" operator="arithmetic" k2="-1" k3="1"/>
<feColorMatrix type="matrix" values="0 0 0 0 0.239583 0 0 0 0 0.239583 0 0 0 0 0.25 0 0 0 1 0"/>
<feBlend mode="normal" in2="shape" result="effect2_innerShadow_419_1337"/>
<feColorMatrix in="SourceAlpha" type="matrix" values="0 0 0 0 0 0 0 0 0 0 0 0 0 0 0 0 0 0 127 0" result="hardAlpha"/>
<feOffset dy="-3"/>
<feGaussianBlur stdDeviation="2"/>
<feComposite in2="hardAlpha" operator="arithmetic" k2="-1" k3="1"/>
<feColorMatrix type="matrix" values="0 0 0 0 0 0 0 0 0 0 0 0 0 0 0 0 0 0 0.25 0"/>
<feBlend mode="normal" in2="effect2_innerShadow_419_1337" result="effect3_innerShadow_419_1337"/>
</filter>
<filter id="filter1_i_419_1337" x="38" y="38" width="73" height="74" filterUnits="userSpaceOnUse" color-interpolation-filters="sRGB">
<feFlood flood-opacity="0" result="BackgroundImageFix"/>
<feBlend mode="normal" in="SourceGraphic" in2="BackgroundImageFix" result="shape"/>
<feColorMatrix in="SourceAlpha" type="matrix" values="0 0 0 0 0 0 0 0 0 0 0 0 0 0 0 0 0 0 127 0" result="hardAlpha"/>
<feOffset dy="1"/>
<feGaussianBlur stdDeviation="0.5"/>
<feComposite in2="hardAlpha" operator="arithmetic" k2="-1" k3="1"/>
<feColorMatrix type="matrix" values="0 0 0 0 0 0 0 0 0 0 0 0 0 0 0 0 0 0 0.45 0"/>
<feBlend mode="normal" in2="shape" result="effect1_innerShadow_419_1337"/>
</filter>
<filter id="filter2_dii_419_1337" x="32.0264" y="38.2083" width="86.9468" height="79.5837" filterUnits="userSpaceOnUse" color-interpolation-filters="sRGB">
<feFlood flood-opacity="0" result="BackgroundImageFix"/>
<feColorMatrix in="SourceAlpha" type="matrix" values="0 0 0 0 0 0 0 0 0 0 0 0 0 0 0 0 0 0 127 0" result="hardAlpha"/>
<feOffset dy="4"/>
<feGaussianBlur stdDeviation="12"/>
<feComposite in2="hardAlpha" operator="out"/>
<feColorMatrix type="matrix" values="0 0 0 0 0 0 0 0 0 0 0 0 0 0 0 0 0 0 0.25 0"/>
<feBlend mode="normal" in2="BackgroundImageFix" result="effect1_dropShadow_419_1337"/>
<feBlend mode="normal" in="SourceGraphic" in2="effect1_dropShadow_419_1337" result="shape"/>
<feColorMatrix in="SourceAlpha" type="matrix" values="0 0 0 0 0 0 0 0 0 0 0 0 0 0 0 0 0 0 127 0" result="hardAlpha"/>
<feOffset dy="1"/>
<feGaussianBlur stdDeviation="0.5"/>
<feComposite in2="hardAlpha" operator="arithmetic" k2="-1" k3="1"/>
<feColorMatrix type="matrix" values="0 0 0 0 0.300833 0 0 0 0 0.95 0 0 0 0 0.559351 0 0 0 1 0"/>
<feBlend mode="normal" in2="shape" result="effect2_innerShadow_419_1337"/>
<feColorMatrix in="SourceAlpha" type="matrix" values="0 0 0 0 0 0 0 0 0 0 0 0 0 0 0 0 0 0 127 0" result="hardAlpha"/>
<feOffset dy="-1"/>
<feGaussianBlur stdDeviation="2"/>
<feComposite in2="hardAlpha" operator="arithmetic" k2="-1" k3="1"/>
<feColorMatrix type="matrix" values="0 0 0 0 0 0 0 0 0 0 0 0 0 0 0 0 0 0 0.25 0"/>
<feBlend mode="normal" in2="effect2_innerShadow_419_1337" result="effect3_innerShadow_419_1337"/>
</filter>
<linearGradient id="paint0_linear_419_1337" x1="85" y1="116" x2="-28.5" y2="125.5" gradientUnits="userSpaceOnUse">
<stop stop-color="#24B65E"/>
<stop offset="1" stop-color="#24B65E" stop-opacity="0"/>
</linearGradient>
<clipPath id="clip0_419_1337">
<rect width="50" height="50" fill="white" transform="translate(50.5 49)"/>
</clipPath>
</defs>
</svg>
