<svg width="116" height="40" viewBox="0 0 116 40" fill="none" xmlns="http://www.w3.org/2000/svg">
<g clip-path="url(#clip0_575_4124)">
<path d="M57.233 9.04251H50.1037V28.3368H48.353V9.04251H41.2417V7.5625H57.233V9.04251Z" fill="#0E61FF"/>
<path d="M63.8211 28.6436C61.2708 28.6815 58.9244 27.2502 57.7927 24.9634C57.1899 23.7595 56.8867 22.4293 56.9083 21.0829V20.4692C56.8867 19.0849 57.1845 17.7149 57.7747 16.4624C58.2999 15.3253 59.132 14.356 60.1752 13.6648C61.1625 13.0006 62.3248 12.6432 63.5142 12.636C65.3913 12.636 66.8713 13.2677 67.9723 14.5492C69.0733 15.8306 69.6148 17.5814 69.6148 19.8014V20.758H58.5869V21.0829C58.5869 22.8336 59.0923 24.2956 60.0849 25.4507C61.0145 26.5824 62.4115 27.2285 63.8752 27.2015C64.7091 27.2213 65.5375 27.048 66.2938 26.6961C67.0518 26.3225 67.707 25.7702 68.207 25.0897L69.2719 25.9019C68.0445 27.7231 66.2216 28.6436 63.8211 28.6436ZM63.5142 14.0781C62.2797 14.0582 61.0957 14.5708 60.2654 15.4859C59.381 16.4245 58.8576 17.6879 58.6591 19.2762H67.9182V19.0957C67.864 17.6157 67.4489 16.4064 66.6548 15.4679C65.8606 14.5293 64.8138 14.0781 63.5142 14.0781Z" fill="#0E61FF"/>
<path d="M74.6684 26.911H84.7036V28.3549H72.5566V27.0915L81.924 14.385H72.8454V12.905H84.0718V14.1865L74.6684 26.911Z" fill="#0E61FF"/>
<path d="M87.1583 20.3951C87.1367 19.0107 87.4345 17.6408 88.0247 16.3882C88.5589 15.2493 89.4036 14.2873 90.4613 13.6087C91.5316 12.9373 92.7733 12.5925 94.035 12.616C96.0925 12.616 97.753 13.3379 99.0345 14.7819C100.316 16.2258 100.948 18.139 100.948 20.5214V20.8824C100.971 22.2722 100.673 23.6493 100.081 24.9073C99.5525 26.0444 98.706 27.0046 97.6447 27.6706C96.5708 28.3276 95.3309 28.6669 94.0711 28.6452C92.0315 28.6452 90.353 27.9233 89.0715 26.4794C87.79 25.0355 87.1583 23.1223 87.1583 20.7398V20.3951V20.3951ZM88.873 20.8643C88.873 22.7053 89.3603 24.2214 90.2988 25.4127C91.2374 26.6039 92.5008 27.1815 94.053 27.1815C95.5132 27.2158 96.9047 26.5606 97.8072 25.4127C98.7638 24.2214 99.233 22.6692 99.233 20.72V20.3951C99.2439 19.2797 99.0237 18.1714 98.5833 17.1463C98.197 16.2294 97.5581 15.4406 96.7423 14.8721C95.9445 14.3288 94.9988 14.0455 94.035 14.0599C92.5766 14.0328 91.1923 14.6952 90.2988 15.8467C89.3422 17.038 88.8549 18.6082 88.8549 20.5395C88.8549 20.5395 88.873 20.8643 88.873 20.8643Z" fill="#0E61FF"/>
<path d="M113.726 24.4219C113.748 23.6133 113.362 22.8463 112.697 22.3824C112.011 21.877 111.001 21.4619 109.611 21.1731C108.512 20.9674 107.44 20.6353 106.416 20.1804C105.658 19.8014 105.099 19.3502 104.738 18.8087C104.357 18.2239 104.162 17.5381 104.178 16.8414C104.178 15.6141 104.684 14.6214 105.712 13.8272C106.741 13.0331 108.041 12.636 109.629 12.636C111.344 12.636 112.733 13.0692 113.78 13.9175C114.804 14.7188 115.387 15.957 115.35 17.2565H113.636C113.643 16.3649 113.219 15.5256 112.499 15.0004C111.741 14.4048 110.784 14.0979 109.629 14.0979C108.51 14.0979 107.608 14.3506 106.922 14.838C106.272 15.2729 105.886 16.0057 105.893 16.7872C105.859 17.4875 106.178 18.1571 106.741 18.5741C107.301 18.9892 108.348 19.3863 109.846 19.7473C111.344 20.1082 112.463 20.4692 113.221 20.8663C113.887 21.1984 114.459 21.6965 114.881 22.3102C115.892 24.0429 115.45 26.2593 113.852 27.4722C112.806 28.2483 111.434 28.6454 109.737 28.6454C107.932 28.6454 106.47 28.2122 105.369 27.3458C104.268 26.4795 103.691 25.3785 103.691 24.0429H105.406C105.442 24.9742 105.907 25.8352 106.669 26.3712C107.445 26.9307 108.474 27.2015 109.755 27.2015C110.947 27.2015 111.903 26.9307 112.643 26.4254C113.365 25.8821 113.726 25.2143 113.726 24.4219Z" fill="#0E61FF"/>
<path d="M28.6256 29.51C28.2105 22.1641 18.9694 18.825 18.085 18.4821C18.0489 18.464 18.0489 18.4279 18.067 18.3918L27.5968 8.82592V7.79713C27.5914 7.62928 27.4578 7.49571 27.29 7.4903H9.72836V1.7327V0L3.2488 1.35367V2.32831H3.60978C3.60978 2.32831 5.19809 2.32831 5.19809 3.91661V7.47225H0.180489C0.083025 7.47947 0.00721957 7.55527 0 7.65274V9.90885H5.21614V22.1641C5.21614 26.0085 7.68884 28.6797 12.0206 28.3187C12.9122 28.2303 13.7695 27.9199 14.5113 27.4163C14.838 27.2069 15.0347 26.8478 15.0347 26.4597V25.2504C13.6269 26.189 12.4357 26.1348 12.4357 26.1348C9.69227 26.1348 9.74641 22.6514 9.74641 22.6514V9.90885H22.3807L13.284 19.0777C13.266 20.287 13.2479 21.2255 13.2479 21.2436C13.2443 21.2706 13.2641 21.2941 13.2912 21.2977C13.2948 21.2977 13.2984 21.2977 13.302 21.2977C21.6406 22.7055 23.8968 28.1022 23.8968 29.6724C23.8968 29.6724 24.7992 37.3071 17.1645 37.8305C17.1645 37.8305 12.165 38.0471 11.2806 36.0437C11.2481 35.9787 11.277 35.8993 11.3419 35.8686C11.3455 35.8668 11.3492 35.865 11.3528 35.8632C12.2029 35.5076 12.7534 34.6738 12.7425 33.7515C12.7425 32.2715 11.8401 31.0622 9.94495 31.0622C8.41079 31.0622 7.14737 32.2715 7.14737 33.7515C7.14737 33.7515 6.42541 40.1769 17.1465 39.9964C29.3836 39.7798 28.6256 29.51 28.6256 29.51Z" fill="#0E61FF"/>
</g>
<defs>
<clipPath id="clip0_575_4124">
<rect width="115.423" height="40" fill="white"/>
</clipPath>
</defs>
</svg>
