<svg width="112" height="80" viewBox="0 0 112 80" fill="none" xmlns="http://www.w3.org/2000/svg">
<g clip-path="url(#clip0_235_6347)">
<path d="M64.1706 75.1191L5.32031 41.9062L49.8323 16.9463L108.683 50.1591L64.1706 75.1191Z" fill="#282829"/>
<path d="M63.9341 75.1559L5.0791 41.957C5.12079 41.9734 5.16742 41.9734 5.20911 41.957L64.0593 75.1559C64.0186 75.1681 63.9749 75.1681 63.9341 75.1559Z" fill="#A7A7AC"/>
<path d="M64.0592 75.1562L5.20898 41.9574C5.24847 41.9508 5.28614 41.9365 5.31971 41.9153L64.1748 75.1141C64.1376 75.1314 64.0989 75.1455 64.0592 75.1562Z" fill="#DFDFE5"/>
<path d="M108.271 47.438L96.61 53.9749L64.1588 72.1641L5.30859 38.9466L37.5624 20.8649L49.3873 14.2392L49.421 14.2205L59.4404 19.8736L108.271 47.438Z" fill="#D2D3D8"/>
<path d="M62.537 77.4947L3.68678 44.2959C3.45243 44.1357 3.26608 43.918 3.1468 43.6649C3.02752 43.4119 2.9796 43.1326 3.00792 42.8557C3.00963 42.525 3.05823 42.1962 3.15236 41.8784L62.0026 75.0773C61.9112 75.3956 61.8626 75.7241 61.8582 76.0545C61.8313 76.3313 61.8799 76.6101 61.9991 76.8629C62.1182 77.1156 62.3038 77.3335 62.537 77.4947Z" fill="#D2D3D8"/>
<path d="M62.0026 75.063L3.15234 41.8642C3.28937 41.3687 3.50196 40.8958 3.78307 40.4614L62.6333 73.6602C62.353 74.0951 62.1404 74.5678 62.0026 75.063Z" fill="#D2D3D8"/>
<path d="M62.6335 73.679L3.7832 40.4802C4.01837 40.1126 4.29979 39.7749 4.62096 39.4749L63.4712 72.6737C63.1489 72.9727 62.8674 73.3105 62.6335 73.679Z" fill="#ECECEE"/>
<path d="M63.4714 72.6736L4.62109 39.4747C4.83211 39.2818 5.06466 39.1125 5.31441 38.9697L64.1647 72.1686C63.9147 72.311 63.6822 72.4804 63.4714 72.6736Z" fill="#ECECEE"/>
<path d="M108.271 47.4377V49.6354L64.1635 74.3662C64.0658 74.4296 63.9845 74.514 63.926 74.613C63.8676 74.712 63.8335 74.8228 63.8265 74.9367C63.8265 75.1471 63.9806 75.2266 64.1684 75.1237L108.68 50.1638V52.3708L64.1684 77.3261C62.8973 78.0415 61.8525 77.4663 61.8477 76.0402C61.8912 75.2641 62.1227 74.509 62.5235 73.8362C62.9242 73.1635 63.4829 72.5921 64.1539 72.1685L108.271 47.4377Z" fill="#82828B"/>
<path d="M108.271 47.4379L98.4159 53.0233L40.1924 19.4256L49.3875 14.239L59.4406 19.8735L108.271 47.4379Z" fill="#BF1831"/>
<path opacity="0.1" d="M37.2357 38.6752L24.1445 31.3387L37.2357 23.9976L50.3269 31.3387L37.2357 38.6752Z" fill="#282829"/>
<path opacity="0.1" d="M52.2185 32.4001L50.1289 33.5738L75.8539 47.9989L77.9483 46.8253L52.2185 32.4001Z" fill="#282829"/>
<path opacity="0.1" d="M41.2214 38.5676L39.127 39.7413L64.8568 54.1664L66.9464 52.9927L41.2214 38.5676Z" fill="#282829"/>
<path opacity="0.1" d="M44.8865 36.5103L42.7969 37.6839L68.5219 52.109L70.6163 50.9354L44.8865 36.5103Z" fill="#282829"/>
<path opacity="0.1" d="M48.5544 34.4529L46.46 35.6265L72.1898 50.0517L74.2794 48.8827L48.5544 34.4529Z" fill="#282829"/>
<path opacity="0.1" d="M22.569 32.218L20.4746 33.3917L61.1878 56.2194L63.2822 55.0457L22.569 32.218Z" fill="#282829"/>
<path opacity="0.1" d="M11.5681 38.3855L9.47852 39.5591L50.1917 62.3868L52.2813 61.2132L11.5681 38.3855Z" fill="#282829"/>
<path opacity="0.1" d="M15.237 36.3325L13.1426 37.5062L53.8558 60.3339L55.9502 59.1602L15.237 36.3325Z" fill="#282829"/>
<path opacity="0.1" d="M18.9011 34.2754L16.8115 35.449L57.5247 58.2767L59.6143 57.1031L18.9011 34.2754Z" fill="#282829"/>
<path opacity="0.1" d="M83.5246 60.4274L70.0723 52.8852L79.4128 47.6436L92.8651 55.1858L83.5246 60.4274Z" fill="#343436"/>
<path opacity="0.1" d="M82.5428 60.9748L69.0905 53.4326L67.8965 54.1013L81.3488 61.6435L82.5428 60.9748Z" fill="#282829"/>
<path opacity="0.1" d="M80.5301 62.1062L67.0778 54.564L65.8838 55.2326L79.3361 62.7748L80.5301 62.1062Z" fill="#282829"/>
<path opacity="0.1" d="M78.5175 63.2331L65.0651 55.6909L63.8711 56.3596L77.3234 63.9018L78.5175 63.2331Z" fill="#282829"/>
<path opacity="0.1" d="M76.5047 64.3645L63.0524 56.8176L61.8584 57.491L75.3107 65.0332L76.5047 64.3645Z" fill="#282829"/>
<path opacity="0.1" d="M65.1847 70.6957L51.7324 63.1535L61.073 57.9165L74.5253 65.4587L65.1847 70.6957Z" fill="#282829"/>
<path opacity="0.1" d="M20.7936 47.6996L20.3121 47.9615C20.0191 48.1281 19.7448 48.324 19.4936 48.546L19.4166 48.6161C19.0235 48.9766 18.6803 49.3853 18.3959 49.8318C18.0579 50.3516 17.8016 50.9174 17.6351 51.5105C17.5814 51.6982 17.538 51.8887 17.5051 52.0809L6.10871 45.6329C6.0153 45.3296 5.96983 45.0143 5.97388 44.6977C5.97108 44.2708 6.03109 43.8457 6.15205 43.4352C6.31961 42.8425 6.5759 42.2769 6.91276 41.7566C7.19723 41.31 7.54036 40.9014 7.93347 40.5408L8.01052 40.4707L20.7936 47.6996Z" fill="#343436"/>
<path opacity="0.1" d="M31.3856 57.7855L46.5664 66.3564C46.5159 66.4723 46.4725 66.5909 46.4364 66.7118C46.4175 66.7655 46.4014 66.8201 46.3882 66.8754C46.2673 67.2843 46.2073 67.7079 46.2101 68.1333C46.2101 68.18 46.2101 68.2268 46.2101 68.2735L30.6923 59.5156L18.6025 52.7122C18.6687 52.0855 18.9176 51.4902 19.3199 50.9961L31.3856 57.7855Z" fill="#282829"/>
<path opacity="0.1" d="M60.4663 74.2215C59.8548 75.0818 60.2593 76.204 60.2544 76.2508L48.1695 69.3959L47.9576 69.2744C47.9503 69.1638 47.9503 69.0529 47.9576 68.9424C47.9574 68.5156 48.0174 68.0908 48.1358 67.6799C48.1358 67.6284 48.1647 67.5723 48.1888 67.5209C48.2085 67.4525 48.2326 67.3853 48.261 67.3198L48.4054 67.3993L60.4663 74.2215Z" fill="#282829"/>
<path opacity="0.1" d="M33.3929 55.7002L48.1308 64.0186C48.0393 64.1075 47.943 64.1963 47.8563 64.2898C47.6469 64.5171 47.4554 64.7594 47.2834 65.0146L32.3096 56.5606L19.9551 49.5888L20.0321 49.4532C20.2407 49.1343 20.4758 48.8325 20.7351 48.5508L33.3929 55.7002Z" fill="#282829"/>
<path opacity="0.1" d="M62.5033 72.1265C62.4798 72.1344 62.4585 72.1471 62.4407 72.1639C62.1683 72.3162 61.9147 72.4982 61.6848 72.7063L61.6029 72.7765L61.5115 72.87L61.4055 72.9682L61.3189 72.9214L59.7156 72.0143L49.0413 65.9871L48.9258 65.9216C49.1211 65.6181 49.3434 65.3317 49.5902 65.0659L49.7443 64.9116L49.8309 64.9631L60.9048 71.21L62.4599 72.0938L62.5033 72.1265Z" fill="#282829"/>
<path d="M64.1618 67.1925L5.31152 33.9797L49.8235 9.01978L108.674 42.2326L64.1618 67.1925Z" fill="#282829"/>
<path d="M63.9273 67.2303L5.07227 34.0315C5.11396 34.0479 5.16058 34.0479 5.20227 34.0315L64.0525 67.2303C64.0117 67.2426 63.9681 67.2426 63.9273 67.2303Z" fill="#A7A7AC"/>
<path d="M64.0524 67.2307L5.20215 34.0318C5.24163 34.0253 5.27931 34.011 5.31288 33.9897L64.1679 67.1886C64.1308 67.2059 64.0921 67.22 64.0524 67.2307Z" fill="#DFDFE5"/>
<path d="M108.264 39.5115L96.6032 46.0484L64.152 64.2376L5.30176 31.0201L37.5555 12.9384L49.3805 6.31265L49.4142 6.29395L59.4336 11.9471L108.264 39.5115Z" fill="#F1F1F1"/>
<path d="M62.5302 69.5687L3.67995 36.3698C3.44559 36.2097 3.25925 35.992 3.13997 35.7389C3.02069 35.4859 2.97276 35.2066 3.00109 34.9297C3.0028 34.599 3.0514 34.2702 3.14552 33.9524L61.9958 67.1512C61.9044 67.4696 61.8558 67.7981 61.8513 68.1285C61.8245 68.4053 61.8731 68.6841 61.9923 68.9368C62.1114 69.1896 62.2969 69.4075 62.5302 69.5687Z" fill="#E9E9E9"/>
<path d="M61.9958 67.137L3.14551 33.9382C3.28253 33.4426 3.49513 32.9698 3.77623 32.5354L62.6265 65.7342C62.3461 66.169 62.1336 66.6417 61.9958 67.137Z" fill="#E9E9E9"/>
<path d="M62.6266 65.753L3.77637 32.5541C4.01153 32.1865 4.29295 31.8488 4.61412 31.5488L63.4644 64.7477C63.1421 65.0466 62.8605 65.3845 62.6266 65.753Z" fill="#F1F1F1"/>
<path d="M63.4645 64.7475L4.61426 31.5487C4.82528 31.3558 5.05783 31.1864 5.30758 31.0437L64.1578 64.2425C63.9079 64.385 63.6753 64.5544 63.4645 64.7475Z" fill="#F1F1F1"/>
<path d="M108.264 39.5115V41.7092L64.1567 66.4399C64.059 66.5033 63.9777 66.5878 63.9192 66.6867C63.8607 66.7857 63.8267 66.8965 63.8197 67.0104C63.8197 67.2208 63.9737 67.3003 64.1615 67.1974L108.674 42.2375V44.4445L64.1615 69.3998C62.8904 70.1152 61.8456 69.5401 61.8408 68.1139C61.8844 67.3378 62.1159 66.5827 62.5167 65.91C62.9174 65.2372 63.476 64.6658 64.1471 64.2423L108.264 39.5115Z" fill="#A6A6AC"/>
<path d="M108.265 39.5116L98.409 45.097L40.1855 11.4993L49.3806 6.31274L59.4338 11.9472L108.265 39.5116Z" fill="#E22440"/>
<path opacity="0.1" d="M37.2279 30.7489L24.1367 23.4124L37.2279 16.0713L50.3191 23.4124L37.2279 30.7489Z" fill="#282829"/>
<path opacity="0.1" d="M52.2107 24.4736L50.1211 25.6473L75.8461 40.0724L77.9405 38.8988L52.2107 24.4736Z" fill="#282829"/>
<path opacity="0.1" d="M41.2145 30.6414L39.1201 31.815L64.85 46.2401L66.9395 45.0665L41.2145 30.6414Z" fill="#282829"/>
<path opacity="0.1" d="M44.8786 28.584L42.7891 29.7576L68.5141 44.1828L70.6085 43.0091L44.8786 28.584Z" fill="#282829"/>
<path opacity="0.1" d="M48.5465 26.5266L46.4521 27.7003L72.182 42.1254L74.2716 40.9564L48.5465 26.5266Z" fill="#282829"/>
<path opacity="0.1" d="M22.5622 24.2915L20.4678 25.4652L61.181 48.2929L63.2754 47.1192L22.5622 24.2915Z" fill="#282829"/>
<path opacity="0.1" d="M11.5603 30.459L9.4707 31.6326L50.1839 54.4603L52.2735 53.2867L11.5603 30.459Z" fill="#282829"/>
<path opacity="0.1" d="M15.2301 28.4062L13.1357 29.5799L53.849 52.4076L55.9434 51.2339L15.2301 28.4062Z" fill="#282829"/>
<path opacity="0.1" d="M18.8943 26.3489L16.8047 27.5225L57.5179 50.3502L59.6075 49.1766L18.8943 26.3489Z" fill="#282829"/>
<path opacity="0.1" d="M83.5177 52.5012L70.0654 44.959L79.406 39.7173L92.8583 47.2595L83.5177 52.5012Z" fill="#343436"/>
<path opacity="0.1" d="M82.535 53.0483L69.0827 45.5061L67.8887 46.1748L81.341 53.717L82.535 53.0483Z" fill="#282829"/>
<path opacity="0.1" d="M80.5223 54.1797L67.07 46.6375L65.876 47.3061L79.3283 54.8483L80.5223 54.1797Z" fill="#282829"/>
<path opacity="0.1" d="M78.5096 55.3066L65.0573 47.7644L63.8633 48.4331L77.3156 55.9753L78.5096 55.3066Z" fill="#282829"/>
<path opacity="0.1" d="M76.4969 56.438L63.0446 48.8911L61.8506 49.5644L75.3029 57.1067L76.4969 56.438Z" fill="#282829"/>
<path opacity="0.1" d="M65.1779 62.7692L51.7256 55.227L61.0661 49.99L74.5184 57.5322L65.1779 62.7692Z" fill="#282829"/>
<path opacity="0.1" d="M20.7867 39.7734L20.3053 40.0352C20.0123 40.2019 19.7379 40.3978 19.4868 40.6197L19.4097 40.6898C19.0166 41.0503 18.6735 41.459 18.389 41.9056C18.0511 42.4254 17.7947 42.9911 17.6283 43.5842C17.5745 43.772 17.5311 43.9624 17.4983 44.1547L6.10187 37.7066C6.00847 37.4033 5.963 37.088 5.96705 36.7714C5.96424 36.3445 6.02425 35.9194 6.14522 35.5089C6.31277 34.9162 6.56906 34.3507 6.90592 33.8303C7.1904 33.3838 7.53352 32.9751 7.92664 32.6146L8.00369 32.5444L20.7867 39.7734Z" fill="#343436"/>
<path opacity="0.1" d="M31.3778 49.8595L46.5586 58.4304C46.5081 58.5463 46.4647 58.6649 46.4286 58.7858C46.4097 58.8395 46.3936 58.8941 46.3804 58.9494C46.2595 59.3583 46.1995 59.7818 46.2023 60.2072C46.2023 60.254 46.2023 60.3007 46.2023 60.3475L30.6845 51.5895L18.5947 44.7861C18.6609 44.1595 18.9097 43.5642 19.3121 43.0701L31.3778 49.8595Z" fill="#282829"/>
<path opacity="0.1" d="M60.4594 66.2952C59.848 67.1556 60.2524 68.2778 60.2476 68.3245L48.1627 61.4697L47.9508 61.3481C47.9435 61.2375 47.9435 61.1266 47.9508 61.0161C47.9506 60.5893 48.0105 60.1646 48.1289 59.7536C48.1289 59.7022 48.1579 59.6461 48.1819 59.5946C48.2017 59.5262 48.2258 59.4591 48.2541 59.3936L48.3986 59.4731L60.4594 66.2952Z" fill="#282829"/>
<path opacity="0.1" d="M33.3861 47.774L48.124 56.0924C48.0325 56.1812 47.9362 56.27 47.8495 56.3636C47.6401 56.5908 47.4485 56.8331 47.2766 57.0883L32.3028 48.6343L19.9482 41.6626L20.0253 41.527C20.2338 41.208 20.4689 40.9062 20.7282 40.6245L33.3861 47.774Z" fill="#282829"/>
<path opacity="0.1" d="M62.4945 64.2C62.4711 64.2078 62.4497 64.2206 62.4319 64.2374C62.1595 64.3897 61.9059 64.5717 61.676 64.7798L61.5941 64.85L61.5027 64.9435L61.3967 65.0417L61.3101 64.9949L59.7068 64.0878L49.0325 58.0606L48.917 57.9951C49.1123 57.6916 49.3346 57.4052 49.5814 57.1394L49.7355 56.9851L49.8222 57.0365L60.896 63.2835L62.4511 64.1673L62.4945 64.2Z" fill="#282829"/>
<path d="M47.6328 28.1589C49.2939 28.9958 50.3724 31.2076 50.3676 32.9283C50.6801 32.8882 50.9777 32.7742 51.2342 32.5963C51.18 31.6109 50.8871 30.6518 50.3793 29.797C49.8714 28.9423 49.163 28.216 48.3117 27.6772C48.0651 27.8033 47.8369 27.9606 47.6328 28.1448V28.1589Z" fill="#E0DDE1"/>
<path d="M53.9086 26.7855C54.2211 26.7453 54.5187 26.6313 54.7752 26.4535C54.721 25.468 54.4281 24.5089 53.9203 23.6542C53.4124 22.7994 52.704 22.0732 51.8527 21.5344C51.5659 21.6617 50.7702 21.6778 50.5762 21.9191C51.3866 22.4308 52.5382 23.4727 53.0225 24.2852C53.5069 25.0976 53.4583 26.6603 53.5118 27.5976L53.9086 26.7855Z" fill="#444447"/>
<path d="M29.4219 13.6413L29.47 31.2835C29.47 32.8078 30.51 34.3275 32.5707 35.4918C36.721 37.8297 43.4712 37.8297 47.6456 35.4918C49.7448 34.3134 50.7944 32.7704 50.7896 31.2227L50.7414 13.5852C50.7414 15.1282 49.6966 16.676 47.5926 17.8543C43.4182 20.1922 36.668 20.1922 32.5177 17.8543C30.457 16.69 29.4267 15.1657 29.4219 13.6413Z" fill="#282829"/>
<path opacity="0.4" d="M40.6492 37.3386L32.0625 28.7519L61.1253 12.8994L83.5829 25.4493C74.776 29.4124 56.7659 37.3386 55.1806 37.3386C53.5954 37.3386 51.4377 36.8983 50.557 36.6781L40.6492 37.3386Z" fill="#343436"/>
<path d="M29.4219 13.6411L29.47 31.2833C29.47 32.8076 30.51 34.3273 32.5707 35.4916C33.5096 36.0127 34.5148 36.412 35.5606 36.6792L35.5125 19.0418C34.4661 18.7716 33.4597 18.3725 32.5177 17.8541C30.457 16.6898 29.4267 15.1655 29.4219 13.6458V13.6411Z" fill="#282829"/>
<path d="M35.5117 19.0417L35.5599 36.6792C39.5079 37.7266 44.366 37.3291 47.6448 35.4915C48.4238 35.0693 49.1224 34.5205 49.7103 33.8689L49.6622 16.2268C49.0751 16.8823 48.3744 17.433 47.5918 17.854C44.3178 19.6916 39.455 20.0844 35.5117 19.0417Z" fill="#343436"/>
<path d="M49.6631 16.2271L49.7112 33.8692C50.3871 33.1419 50.7701 32.2022 50.7897 31.2227L50.7416 13.5852C50.7166 14.5623 50.3342 15.4988 49.6631 16.2271Z" fill="#282829"/>
<path d="M32.5668 9.3722C28.3924 11.7101 28.3683 15.5116 32.5186 17.8543C36.6689 20.1969 43.4191 20.1922 47.5935 17.8543C51.7678 15.5163 51.7919 11.7148 47.6416 9.3722C43.4913 7.02958 36.7459 7.02958 32.5668 9.3722Z" fill="#444447"/>
<path d="M31.9737 16.1989C32.4192 16.6307 32.9229 17.0019 33.471 17.3025C37.0965 19.3505 42.9945 19.3505 46.6489 17.3025C47.2115 16.9949 47.7282 16.6142 48.1848 16.1709C50.1973 14.1743 49.7014 11.5932 46.6874 9.89117C43.0619 7.8478 37.1639 7.8478 33.5144 9.89117C30.4667 11.6166 29.9515 14.2117 31.9737 16.1989Z" fill="#E22440"/>
<mask id="mask0_235_6347" style="mask-type:alpha" maskUnits="userSpaceOnUse" x="30" y="8" width="20" height="11">
<path d="M31.9746 16.1989C32.4202 16.6307 32.9239 17.0019 33.472 17.3025C37.0975 19.3505 42.9955 19.3505 46.6499 17.3025C47.2124 16.9949 47.7292 16.6142 48.1858 16.1709C50.1983 14.1743 49.7024 11.5932 46.6884 9.89117C43.0629 7.8478 37.1649 7.8478 33.5153 9.89117C30.4676 11.6166 29.9525 14.2117 31.9746 16.1989Z" fill="#E22440"/>
</mask>
<g mask="url(#mask0_235_6347)">
<path d="M37.3477 7.61523L50.558 8.27575L49.237 17.523L37.3477 15.5415V7.61523Z" fill="#FD3E5A"/>
</g>
<path d="M31.9746 16.1988C32.4202 16.6305 32.9239 17.0017 33.472 17.3023C37.0975 19.3503 42.9955 19.3503 46.6498 17.3023C47.2124 16.9947 47.7292 16.614 48.1857 16.1707C47.7413 15.7364 47.2375 15.3635 46.6884 15.0626C43.0629 13.0192 37.1649 13.0192 33.5153 15.0626C32.9511 15.3717 32.4327 15.7539 31.9746 16.1988Z" fill="#282829"/>
<path d="M47.6121 33.6921V32.1397C47.6098 32.1289 47.6098 32.1177 47.6121 32.1069V33.6967V33.6921Z" fill="#959396"/>
<path d="M51.0808 35.6319L47.6143 33.6868L51.0808 35.6319Z" fill="#F1F1F1"/>
<path d="M51.0809 35.6321L47.6143 33.6917L47.778 33.7805L47.9417 33.874L48.1102 33.9675L48.2787 34.0657L48.4472 34.1592L48.6205 34.2574L48.7939 34.351L48.9672 34.4491L49.1405 34.5473L49.3187 34.6455L49.492 34.7437L49.6702 34.8419L49.8483 34.9448L50.0264 35.043L50.2046 35.1458L50.3827 35.2441L50.5657 35.3469L50.7438 35.4451L50.922 35.548L51.1049 35.6462L51.0809 35.6321Z" fill="#959396"/>
<path d="M52.7338 33.1539L49.2432 31.1947C48.9487 31.1581 48.6513 31.2354 48.415 31.4098L52.0164 33.4297C52.2261 33.2775 52.4737 33.1823 52.7338 33.1539Z" fill="#D4CED8"/>
<path d="M48.4013 31.4099L52.0027 33.4299C52.1914 33.3196 52.3915 33.2287 52.5997 33.1587L49.0465 31.1621C48.8167 31.2027 48.5965 31.2835 48.3965 31.4006L48.4013 31.4099Z" fill="#444447"/>
<path d="M49.0469 31.1621L52.5953 33.1494C52.6531 33.1494 52.6964 33.1494 52.7157 33.1494L52.5327 33.0465L52.3546 32.9436L52.1764 32.8454L51.9935 32.7426L51.8153 32.6444L51.6372 32.5415L51.459 32.4433L51.2809 32.3451L51.1027 32.2422L50.9246 32.1441L50.7513 32.0459L50.578 31.9477L50.4046 31.8495L50.2313 31.7559L50.058 31.6578L49.8895 31.5642L49.7209 31.4707L49.5524 31.3772L49.3887 31.2837L49.225 31.1902C49.169 31.1664 49.1073 31.1583 49.0469 31.1668V31.1621Z" fill="#444447"/>
<path d="M51.8153 33.5323L51.9982 33.4294L48.392 31.4094L48.2139 31.5123L51.8153 33.5323Z" fill="#444447"/>
<path d="M51.0878 34.098C51.0878 34.0138 51.4152 33.7613 51.8149 33.5322L48.2134 31.5122C47.8138 31.7413 47.549 32.0266 47.6212 32.1528L51.0878 34.098Z" fill="#444447"/>
<path d="M47.6223 32.0401C47.6974 31.9026 47.8046 31.7841 47.9353 31.6941L51.5271 33.7094C51.3872 33.7961 51.2579 33.8981 51.1419 34.0133C51.1225 34.0309 51.1062 34.0514 51.0938 34.0741L47.6271 32.1289C47.6171 32.1003 47.6155 32.0696 47.6223 32.0401Z" fill="#444447"/>
<path d="M47.9219 31.6943L51.5137 33.7096L51.8025 33.5319L48.2011 31.512C48.1 31.5727 48.0037 31.6335 47.9219 31.6943Z" fill="#444447"/>
<path d="M52.9129 33.4997C53.0506 33.4181 53.1976 33.3521 53.351 33.3033C53.1256 33.3196 52.9012 33.2601 52.7155 33.135C52.4553 33.1634 52.2077 33.2587 51.998 33.4109C52.1287 33.5032 52.2823 33.5601 52.4431 33.5758C52.6038 33.5914 52.766 33.5651 52.9129 33.4997Z" fill="#444447"/>
<path d="M52.9138 33.5C53.0504 33.4163 53.1978 33.3502 53.352 33.3036C53.1277 33.3091 52.9068 33.2506 52.7164 33.1353C52.4563 33.1637 52.2087 33.2589 51.999 33.4111C52.1297 33.5035 52.2833 33.5604 52.444 33.576C52.6048 33.5916 52.767 33.5654 52.9138 33.5Z" fill="#444447"/>
<path d="M52.5957 33.1584C52.6968 33.2239 52.8075 33.2753 52.9135 33.3361C52.9135 33.3361 52.952 33.3642 52.9568 33.3829C52.9616 33.4016 52.9183 33.4577 52.7498 33.5793C52.8071 33.5668 52.8622 33.5464 52.9135 33.5185L52.9616 33.4904L53.0146 33.4624L53.0579 33.439L53.1061 33.4156H53.1494H53.1927H53.2312H53.2649H53.2938H53.3227H53.2168H53.1301C52.9913 33.3838 52.8582 33.3318 52.7353 33.2613C52.7353 33.2613 52.6727 33.2613 52.615 33.2613L52.5957 33.1584Z" fill="#444447"/>
<path d="M52.7351 33.6209L52.9181 33.518C52.7712 33.5834 52.609 33.6097 52.4483 33.5941C52.2875 33.5784 52.1339 33.5215 52.0033 33.4292L51.8203 33.5321C51.9509 33.6244 52.1045 33.6813 52.2653 33.6969C52.4261 33.7125 52.5882 33.6863 52.7351 33.6209Z" fill="#444447"/>
<path d="M52.737 33.6207L52.9199 33.5178C52.8687 33.5457 52.8135 33.5661 52.7562 33.5786L52.5732 33.6815C52.6306 33.669 52.6857 33.6485 52.737 33.6207Z" fill="#444447"/>
<path d="M52.5685 33.6815L52.7514 33.5786C52.4906 33.6264 52.2207 33.5727 52.0003 33.429L51.8174 33.5318C52.038 33.6751 52.3076 33.7288 52.5685 33.6815Z" fill="#444447"/>
<path d="M52.5024 33.2842C52.5114 33.4981 52.4544 33.7098 52.3387 33.892C52.4582 33.7882 52.589 33.6973 52.7287 33.6208C52.5818 33.6862 52.4197 33.7125 52.2589 33.6969C52.0981 33.6812 51.9446 33.6244 51.8139 33.532C51.4143 33.7611 51.0869 33.9996 51.0869 34.0978C51.8717 34.5373 52.5313 34.1819 52.5313 33.3076C52.5249 33.3064 52.5188 33.3036 52.5137 33.2995C52.5087 33.2954 52.5048 33.2901 52.5024 33.2842Z" fill="#444447"/>
<path d="M52.5034 33.2839C52.5101 33.4976 52.4533 33.7087 52.3397 33.8918C52.4592 33.788 52.59 33.697 52.7297 33.6206C52.5828 33.686 52.4207 33.7122 52.2599 33.6966C52.0991 33.681 51.9455 33.6241 51.8149 33.5318C51.4153 33.7609 51.0879 33.9993 51.0879 34.0975C51.8727 34.5371 52.5323 34.1817 52.5323 33.3073L52.5034 33.2839Z" fill="#444447"/>
<path d="M51.1361 34.0134C51.1361 34.0555 51.2228 34.0742 51.2565 34.1022C51.2902 34.1303 51.3287 34.149 51.3383 34.1677C51.2508 34.1528 51.1674 34.121 51.0928 34.0742C51.8776 34.5137 52.5372 34.1583 52.5372 33.2839C52.5372 33.3213 52.5372 33.3634 52.5372 33.3962C52.5296 33.5331 52.497 33.6677 52.4409 33.7936V33.8357L52.4072 33.8825L52.4361 33.8591L52.465 33.8357H52.4987L52.5372 33.8076L52.5757 33.7796L52.619 33.7515L52.6672 33.7235L52.7153 33.6954H52.749C52.6022 33.7608 52.44 33.787 52.2792 33.7714C52.1185 33.7558 51.9649 33.6989 51.8342 33.6066C51.5887 33.7343 51.3606 33.8914 51.1553 34.0742L51.1361 34.0134Z" fill="#444447"/>
<path d="M51.5265 33.7097C51.5265 33.7097 51.5265 33.733 51.5265 33.7424C51.5458 33.7635 51.5621 33.7871 51.5747 33.8125C51.5969 33.8533 51.6162 33.8954 51.6325 33.9388C51.6489 34.0058 51.6838 34.0673 51.7335 34.1165C51.7641 34.1459 51.8015 34.1676 51.8426 34.1798C51.8837 34.1921 51.9272 34.1944 51.9695 34.1866C51.9695 34.1866 52.008 34.1866 52.0176 34.1866C52.0176 34.1866 51.7095 34.4204 51.0547 34.079C51.8395 34.5186 52.4991 34.1632 52.4991 33.2888C52.4991 33.3262 52.4991 33.3683 52.4991 33.401C52.4916 33.538 52.4589 33.6726 52.4028 33.7985V33.8406L52.3691 33.8873L52.398 33.864L52.4269 33.8406H52.4606L52.4991 33.8125L52.5376 33.7845L52.5809 33.7564L52.6291 33.7284L52.6772 33.7003H52.7109C52.5641 33.7657 52.4019 33.7919 52.2411 33.7763C52.0804 33.7607 51.9268 33.7038 51.7961 33.6115L51.5073 33.7891L51.5265 33.7097Z" fill="#444447"/>
<path d="M54.0771 35.4684C54.538 35.2393 54.9296 34.8977 55.2134 34.4771C55.3301 34.2784 55.416 34.0642 55.4686 33.8412C55.4861 33.7688 55.499 33.6954 55.5071 33.6215C55.5071 33.4905 55.536 33.3128 55.5408 33.1772C55.5408 33.2474 55.2905 33.4438 54.9342 33.6448C54.9342 34.5379 54.6068 35.1692 54.0771 35.4684Z" fill="#CBC3D0"/>
<path d="M54.0769 35.4684C55.1313 34.8606 55.5213 34.2808 55.5213 33.1772C55.5213 33.2474 55.2709 33.4438 54.9146 33.6448C54.9146 34.5379 54.5872 35.1692 54.0576 35.4684H54.0769Z" fill="#282829"/>
<path d="M53.8994 35.571L54.0776 35.4681C54.6072 35.1689 54.9346 34.533 54.9346 33.6445L54.7565 33.7474C54.7516 34.6405 54.4242 35.2717 53.8994 35.571Z" fill="#CBC3D0"/>
<path d="M53.8984 35.5712L54.0766 35.4684C54.6062 35.1691 54.9336 34.5332 54.9336 33.6448L54.7555 33.7476C54.7555 34.6407 54.4232 35.272 53.8984 35.5712Z" fill="#282829"/>
<path d="M51.0974 35.6504L51.3141 35.7673C51.4548 35.8307 51.5996 35.8854 51.7474 35.931C52.1814 36.0745 52.652 36.0745 53.0859 35.931C53.3686 35.837 53.6411 35.7164 53.8996 35.5709C54.4244 35.2716 54.7518 34.6357 54.7566 33.7473C54.5001 33.9252 54.2025 34.0392 53.89 34.0793C53.89 35.8 52.6237 36.4967 51.083 35.6317C51.083 35.641 51.0878 35.6457 51.0974 35.6504Z" fill="#CBC3D0"/>
<path d="M51.0965 35.6504C52.122 36.1835 52.8298 36.1647 53.8986 35.5709C54.4234 35.2717 54.7508 34.6357 54.7557 33.7473C54.4991 33.9252 54.2015 34.0392 53.889 34.0793C53.889 35.8 52.6227 36.4967 51.082 35.6317L51.0965 35.6504Z" fill="#282829"/>
<path d="M53.9083 34.0842C53.8746 34.1169 53.9083 34.1964 53.9083 34.2432C53.9076 34.5529 53.8313 34.858 53.6857 35.1336C53.5401 35.4091 53.3293 35.6472 53.0706 35.8283C52.541 36.1182 51.8717 36.0527 51.0869 35.6319L51.3036 35.7488C51.6049 35.8937 51.9315 35.9825 52.2665 36.0106H52.4158H52.6613H52.7721L52.902 35.9873L52.9935 35.9639L53.0946 35.9358L53.1813 35.9078L53.2728 35.875L53.3498 35.8423L53.4365 35.8096L53.5183 35.7722L53.6002 35.7348L53.682 35.6927L53.7639 35.6506L53.8457 35.6085L53.9083 35.5758C54.4331 35.2765 54.7605 34.6406 54.7653 33.7522C54.5082 33.9171 54.2203 34.0315 53.918 34.0889L53.9083 34.0842Z" fill="#282829"/>
<path d="M47.644 20.1033C47.644 20.6316 47.644 21.1647 47.644 21.6931V20.1594C47.6382 20.1411 47.6382 20.1215 47.644 20.1033Z" fill="#BBB5BE"/>
<path d="M47.6462 21.6886V20.1409C47.644 20.1286 47.644 20.1159 47.6462 20.1035V21.6933V21.6886Z" fill="#BBB5BE"/>
<path d="M52.5215 26.0184V33.3081L52.5449 26.0137L52.5215 26.0184Z" fill="#BBB5BE"/>
<path d="M51.118 23.629L47.6514 21.6838L51.118 23.629Z" fill="#F1F1F1"/>
<path d="M51.1228 23.6339L47.6514 21.6887L47.8151 21.7822L47.9788 21.8758L48.1473 21.9693L48.3158 22.0628L48.4891 22.1563L48.6577 22.2545L48.831 22.3527L49.0043 22.4462L49.1776 22.5444L49.3558 22.6426L49.5291 22.7455L49.7073 22.8437L49.8854 22.9419L50.0635 23.0401L50.2417 23.1429L50.4246 23.2411L50.6028 23.344L50.7809 23.4469L50.9639 23.545L51.142 23.6479L51.1228 23.6339Z" fill="#959396"/>
<path d="M55.5413 33.1772V25.8828C55.5413 25.953 55.2957 26.1493 54.9395 26.3504V33.6448C55.2909 33.4437 55.5413 33.2473 55.5413 33.1772Z" fill="#D4CED8"/>
<path d="M54.4893 26.928V33.7492C54.4893 34.2224 55.5641 33.2476 55.5641 33.1774V25.8831C55.5641 25.9532 55.3186 26.1496 54.9623 26.3506L54.4893 26.928Z" fill="#343436"/>
<path d="M52.7338 21.1507L52.0164 20.7486L49.2432 19.1962C49.1132 19.1214 48.7617 19.1962 48.415 19.4113L52.0213 21.4312C52.2304 21.2806 52.4756 21.184 52.7338 21.1507Z" fill="#F1F1F1"/>
<path d="M48.4307 19.4113L52.0369 21.4313C52.2224 21.3182 52.4212 21.2271 52.6291 21.1601L49.0855 19.1729C48.8526 19.2078 48.6297 19.289 48.4307 19.4113Z" fill="#444447"/>
<path d="M49.0859 19.1729L52.6296 21.1601C52.6689 21.1493 52.7106 21.1493 52.75 21.1601L52.5718 21.0619L52.3889 20.959L52.0325 20.758L51.8496 20.6551L51.6714 20.5569L51.4933 20.4587L51.3152 20.3559L51.137 20.2577L50.9637 20.1595L50.7855 20.0613L50.6122 19.9631L50.4389 19.8649L50.2656 19.7667L50.0922 19.6732L49.9237 19.575L49.7552 19.4815L49.5867 19.3879L49.423 19.2944L49.2593 19.2056C49.2031 19.1871 49.1421 19.1871 49.0859 19.2056V19.1729Z" fill="#444447"/>
<path d="M54.751 33.7427L54.9339 33.6399L54.958 26.3455L54.7751 26.4483L54.751 33.7427Z" fill="#343436"/>
<path d="M52.526 26.0182C52.5037 25.542 52.3645 25.078 52.1199 24.6648C51.8753 24.2516 51.5325 23.9012 51.1201 23.6428L51.2308 23.7083L51.3464 23.7878L51.4523 23.8719L51.5582 23.9654L51.6594 24.0683L51.7605 24.1759L51.8519 24.2881L51.9434 24.405L52.0253 24.5266L52.1071 24.6528L52.1793 24.7837C52.1793 24.8211 52.2275 24.8726 52.2467 24.9147L52.3045 25.0456C52.3045 25.0877 52.343 25.1438 52.3575 25.1812L52.4056 25.3168C52.4056 25.3589 52.4345 25.415 52.4442 25.4524L52.4731 25.588C52.4707 25.6332 52.4707 25.6784 52.4731 25.7236V25.8545C52.4755 25.8981 52.4755 25.9418 52.4731 25.9854L52.526 26.0182Z" fill="#959396"/>
<path d="M51.8485 21.5296L52.0314 21.4267L48.43 19.4067L48.2471 19.5096L51.8485 21.5296Z" fill="#444447"/>
<path d="M53.5107 26.1777V34.2223C53.8131 34.1649 54 34.2223 54.7796 33.7478V26.4534C54.5252 26.62 54.2385 26.7346 53.937 26.7901L53.5107 26.1777Z" fill="#343436"/>
<path d="M47.659 20.1546L51.1208 22.0951L47.6445 20.1453L47.659 20.1546Z" fill="#444447"/>
<path d="M47.6493 20.1406L51.1255 22.0905L47.6396 20.1406H47.6493Z" fill="#444447"/>
<path d="M47.6445 20.1217L52.0432 23.3381C52.0534 23.3166 53.8912 21.8214 52.5325 21.4452L47.659 20.0422C47.6502 20.068 47.6502 20.0959 47.659 20.1217H47.6445Z" fill="#444447"/>
<path d="M47.6592 20.0421L51.1739 22.0153C51.2915 21.8985 51.4223 21.7949 51.5639 21.7067L47.9721 19.696C47.8381 19.7825 47.7302 19.9019 47.6592 20.0421Z" fill="#444447"/>
<path d="M47.9727 19.6963L51.5644 21.7069C51.6511 21.6508 51.7474 21.59 51.8533 21.5339L48.2471 19.5139C48.1505 19.567 48.0587 19.628 47.9727 19.6963Z" fill="#444447"/>
<path d="M55.5605 25.8826C55.5621 25.7044 55.5509 25.5263 55.5268 25.3496C55.4882 25.0726 55.4271 24.7989 55.3438 24.5313C55.1952 24.0651 54.9933 23.6166 54.742 23.194C54.2646 22.3613 53.5791 21.6586 52.7487 21.1506C52.4906 21.184 52.2453 21.2805 52.0361 21.4312C52.8869 21.9705 53.5949 22.6969 54.1027 23.5515C54.6105 24.4062 54.9037 25.365 54.9587 26.3502C55.315 26.1492 55.5605 25.9528 55.5605 25.8826Z" fill="#F1F1F1"/>
<path d="M55.5612 25.8826C55.5074 24.934 55.2234 24.0112 54.7322 23.1896C54.241 22.368 53.5566 21.6709 52.735 21.1553C52.4745 21.1824 52.2265 21.2777 52.0176 21.4311C52.8684 21.9704 53.5764 22.6968 54.0841 23.5515C54.5919 24.4061 54.8851 25.3649 54.9401 26.3502C55.2964 26.1491 55.5419 25.9527 55.5419 25.8826H55.5612Z" fill="#444447"/>
<path d="M54.231 24.326L54.414 23.6293C53.829 22.7102 53.0098 21.9533 52.0355 21.4316L51.8525 21.5345C52.7617 22.0893 53.5036 23.361 54.0008 24.2852L54.231 24.326Z" fill="#444447"/>
<path d="M47.6152 33.687L51.0818 35.6322C51.3582 35.8225 51.6794 35.9424 52.0159 35.9808C52.3524 36.0192 52.6935 35.9749 53.0077 35.8519C53.547 35.5854 53.8888 34.9728 53.8888 34.0798C53.8888 31.6483 53.8888 29.2168 53.8888 26.7854C53.8367 25.8483 53.5574 24.9364 53.0738 24.1238C52.5903 23.3113 51.916 22.6212 51.1059 22.1095C49.9022 21.4362 48.6985 20.7581 47.6345 20.1643V21.698L51.0963 23.6385C51.5136 23.8972 51.862 24.2481 52.1131 24.6626C52.3641 25.077 52.5106 25.5433 52.5407 26.0232C52.5407 28.4547 52.5327 30.8861 52.5166 33.3176C52.5379 33.5063 52.4996 33.6968 52.4067 33.8639C52.3138 34.0309 52.1708 34.1666 51.9966 34.2528C51.844 34.2947 51.6839 34.3035 51.5274 34.2784C51.3709 34.2534 51.2221 34.1951 51.0915 34.1078L47.6249 32.1627V32.5087C47.6201 32.8968 47.62 33.3363 47.6152 33.687Z" fill="#343436"/>
<path d="M47.6152 33.6866L51.0818 35.6318C51.3582 35.8222 51.6794 35.9421 52.0159 35.9805C52.3524 36.0189 52.6935 35.9746 53.0077 35.8516C53.2176 35.6436 53.3797 35.3948 53.4835 35.1216C53.5872 34.8484 53.6302 34.557 53.6096 34.2665C53.6096 31.835 53.6096 29.4035 53.6096 26.9721C53.5553 26.0349 53.2747 25.1233 52.7904 24.3109C52.3061 23.4986 51.6318 22.8084 50.8219 22.2962L47.6345 20.5146V21.7023L51.0963 23.6428C51.5136 23.9015 51.862 24.2524 52.1131 24.6669C52.3641 25.0813 52.5106 25.5476 52.5407 26.0275C52.5407 28.459 52.5327 30.8905 52.5166 33.3219C52.5379 33.5106 52.4996 33.7012 52.4067 33.8682C52.3138 34.0353 52.1708 34.1709 51.9966 34.2571C51.8374 34.4012 51.63 34.4848 51.4125 34.4926C51.195 34.5003 50.9819 34.4316 50.8122 34.2992L47.6249 32.513C47.6201 32.8964 47.62 33.3359 47.6152 33.6866Z" fill="#282829"/>
<path d="M52.6299 21.1602C52.6692 21.1494 52.7109 21.1494 52.7503 21.1602L52.9862 21.3051L53.2076 21.4595C53.275 21.5109 53.3665 21.581 53.4291 21.6371L53.641 21.8242C53.7084 21.8803 53.7854 21.9644 53.848 22.0252L54.0454 22.2403L54.238 22.4694L54.4161 22.7032L54.5847 22.9511L54.7435 23.2036L54.8879 23.4607L55.0228 23.7273C55.0613 23.8068 55.1094 23.9143 55.1431 23.9938L55.2491 24.265C55.2828 24.3492 55.3165 24.4567 55.3454 24.5409L55.4224 24.8121L55.485 25.0879L55.5283 25.3591C55.5283 25.4386 55.5283 25.5509 55.5524 25.6304C55.5765 25.7098 55.5524 25.8127 55.5524 25.8922C55.5524 25.9717 55.3068 26.1587 54.9505 26.3598L54.7676 26.4627C54.5132 26.6293 54.2265 26.7439 53.925 26.7993C53.925 26.5936 53.8913 26.3878 53.8913 26.1821C53.8913 26.1166 53.8913 25.7847 53.8913 25.6818C53.8661 25.2721 53.9017 24.8611 53.9972 24.4614C54.1189 24.1005 54.1964 23.727 54.2283 23.3485C54.2268 23.0477 54.1526 22.7514 54.0117 22.4835C53.8512 22.1807 53.6321 21.9108 53.3665 21.6886C53.2453 21.5824 53.1183 21.4825 52.9862 21.3893L52.8032 21.2677C52.7695 21.2444 52.6588 21.1508 52.6299 21.1602Z" fill="#343436"/>
</g>
<defs>
<clipPath id="clip0_235_6347">
<rect width="106" height="71.7059" fill="white" transform="translate(3 6.29419)"/>
</clipPath>
</defs>
</svg>
