<svg width="70" height="18" viewBox="0 0 70 18" fill="none" xmlns="http://www.w3.org/2000/svg">
<path d="M0 9C0 4.02944 4.02944 0 9 0C13.9706 0 18 4.02944 18 9C18 13.9706 13.9706 18 9 18C4.02944 18 0 13.9706 0 9Z" fill="#E22440"/>
<path d="M10.9171 14.6163L9.64288 13.3421C9.28102 12.9803 8.69589 12.9803 8.33788 13.3421L7.06368 14.6163C6.69028 14.9897 6.08205 14.9897 5.70864 14.6163L5.09271 14.0004L7.04443 12.0487C8.11846 10.9747 9.85846 10.9747 10.9325 12.0487L12.8842 14.0004L12.2683 14.6163C11.8987 14.9897 11.2943 14.9897 10.9171 14.6163Z" fill="white"/>
<path d="M3.99944 12.9033L3.38351 12.2873C3.0101 11.9139 3.0101 11.3057 3.38351 10.9323L4.65771 9.65808C5.01957 9.29623 5.01957 8.71109 4.65771 8.35308L3.38351 7.07888C3.0101 6.70548 3.0101 6.09725 3.38351 5.72384L3.99944 5.10791L5.95116 7.05963C7.02519 8.13366 7.02519 9.87366 5.95116 10.9477L3.99944 12.9033Z" fill="white"/>
<path d="M9.0077 6.75578C8.30323 6.75578 7.59876 6.49016 7.06368 5.95122L5.11195 3.9995L5.72788 3.38357C6.10129 3.01016 6.70952 3.01016 7.08292 3.38357L8.35713 4.65777C8.71513 5.01578 9.30412 5.01578 9.66212 4.65777L10.9363 3.38357C11.3097 3.01016 11.918 3.01016 12.2914 3.38357L12.9073 3.9995L10.9556 5.95122C10.4166 6.48246 9.71217 6.75578 9.0077 6.75578Z" fill="white"/>
<path d="M14.0006 12.8882L12.0489 10.9365C10.9748 9.86243 10.9748 8.12243 12.0489 7.0484L14.0006 5.09668L14.6165 5.71261C14.9899 6.08601 14.9899 6.69424 14.6165 7.06765L13.3423 8.34185C12.9804 8.70371 12.9804 9.28884 13.3423 9.64685L14.6165 10.9211C14.9899 11.2945 14.9899 11.9027 14.6165 12.2761L14.0006 12.8882Z" fill="white"/>
<path opacity="0.9" d="M23.9698 3.81818L26.5948 8.05398H26.6743L29.2993 3.81818H30.751L27.5493 8.90909L30.751 14H29.2993L26.6743 9.84375H26.5948L23.9698 14H22.5181L25.7993 8.90909L22.5181 3.81818H23.9698ZM32.7756 14V3.81818H36.216C37.0147 3.81818 37.6677 3.96236 38.1748 4.25071C38.6852 4.53575 39.063 4.92188 39.3083 5.40909C39.5535 5.89631 39.6762 6.43987 39.6762 7.03977C39.6762 7.63968 39.5535 8.1849 39.3083 8.67543C39.0663 9.16596 38.6918 9.55705 38.1847 9.84872C37.6776 10.1371 37.028 10.2812 36.2358 10.2812H33.7699V9.1875H36.1961C36.7429 9.1875 37.1821 9.09304 37.5135 8.90412C37.845 8.7152 38.0853 8.45999 38.2344 8.13849C38.3869 7.81368 38.4631 7.44744 38.4631 7.03977C38.4631 6.6321 38.3869 6.26752 38.2344 5.94602C38.0853 5.62453 37.8433 5.37263 37.5086 5.19034C37.1738 5.00473 36.7297 4.91193 36.1762 4.91193H34.0086V14H32.7756ZM50.1562 3.81818V14H48.963L43.4147 6.00568H43.3153V14H42.0823V3.81818H43.2755L48.8437 11.8324H48.9431V3.81818H50.1562ZM53.0433 14V3.81818H59.1882V4.91193H54.2763V8.35227H58.8701V9.44602H54.2763V12.9062H59.2678V14H53.0433ZM61.2737 4.91193V3.81818H68.9101V4.91193H65.7084V14H64.4754V4.91193H61.2737Z" fill="#030303"/>
</svg>
