<svg width="140" height="44" viewBox="0 0 140 44" fill="none" xmlns="http://www.w3.org/2000/svg">
<rect x="0.255615" width="139.744" height="44" rx="5.95873" fill="#FBFBFB"/>
<rect x="0.255615" width="139.744" height="44" rx="5.95873" fill="#FBFBFB"/>
<g clip-path="url(#clip0_2630_7942)">
<path d="M49.8735 18.8835H50.8328L53.5172 25.1149H52.2499L51.6689 23.6891H48.9669L48.4036 25.1149H47.1626L49.8735 18.8835ZM51.2817 22.7386L50.3223 20.2038L49.3454 22.7386H51.2817Z" fill="black"/>
<path d="M54.7065 18.8835H55.9827L57.6814 23.5923L59.4328 18.8835H60.63L58.1127 25.1149H57.1534L54.7065 18.8835Z" fill="black"/>
<path d="M64.5933 18.8835H65.5529L68.237 25.1149H66.9697L66.3889 23.6891H63.6868L63.1234 25.1149H61.8826L64.5933 18.8835ZM66.0016 22.7386L65.0423 20.2038L64.0653 22.7386H66.0016Z" fill="black"/>
<path d="M70.6902 18.8834H71.7992V24.1114H74.4483V25.1148H70.6902V18.8834Z" fill="black"/>
<path d="M79.0296 18.8834H79.9891L82.6733 25.1148H81.406L80.8252 23.689H78.123L77.5597 25.1148H76.3188L79.0296 18.8834ZM80.4378 22.7384L79.4785 20.2036L78.5016 22.7384H80.4378Z" fill="black"/>
<path d="M85.1265 18.8835H86.5963L89.6151 23.5131H89.6328V18.8835H90.7416V25.1149H89.3336L86.2529 20.3358H86.2355V25.1149H85.1265V18.8835Z" fill="black"/>
<path d="M98.169 20.3445C97.9402 20.0981 97.7173 19.9338 97.5001 19.8517C97.2887 19.7695 97.0746 19.7285 96.8577 19.7285C96.535 19.7285 96.2416 19.7871 95.9775 19.9045C95.7194 20.016 95.4964 20.1744 95.3085 20.3798C95.1207 20.5792 94.9742 20.814 94.8684 21.0839C94.7687 21.3538 94.7189 21.6442 94.7189 21.9552C94.7189 22.2896 94.7687 22.5977 94.8684 22.8793C94.9742 23.161 95.1207 23.4045 95.3085 23.6099C95.4964 23.8152 95.7194 23.9766 95.9775 24.0939C96.2416 24.2113 96.535 24.27 96.8577 24.27C97.11 24.27 97.3534 24.2113 97.5882 24.0939C97.8286 23.9707 98.0516 23.7771 98.2572 23.513L99.1722 24.1643C98.8907 24.5516 98.5475 24.8333 98.1425 25.0093C97.7377 25.1853 97.3064 25.2733 96.8489 25.2733C96.3676 25.2733 95.9247 25.197 95.5199 25.0445C95.1207 24.8861 94.7745 24.666 94.4813 24.3844C94.1937 24.0969 93.9677 23.7536 93.8036 23.3546C93.6392 22.9556 93.5571 22.5126 93.5571 22.0256C93.5571 21.5269 93.6392 21.0751 93.8036 20.6702C93.9677 20.2595 94.1937 19.9103 94.4813 19.6228C94.7745 19.3353 95.1207 19.1153 95.5199 18.9627C95.9247 18.8043 96.3676 18.7251 96.8489 18.7251C97.2713 18.7251 97.6615 18.8014 98.0193 18.9539C98.3831 19.1006 98.7205 19.3529 99.0316 19.7109L98.169 20.3445Z" fill="black"/>
<path d="M101.677 18.8834H102.786V21.3654H105.699V18.8834H106.808V25.1148H105.699V22.3688H102.786V25.1148H101.677V18.8834Z" fill="black"/>
<path d="M109.961 18.8835H114.089V19.8869H111.07V21.4183H113.93V22.4217H111.07V24.1116H114.247V25.1149H109.961V18.8835Z" fill="black"/>
<path fill-rule="evenodd" clip-rule="evenodd" d="M43.8798 22C43.8798 26.9363 39.8781 30.9381 34.9418 30.9381C30.0054 30.9381 26.0037 26.9363 26.0037 22C26.0037 17.0636 30.0054 13.0619 34.9418 13.0619C39.8781 13.0619 43.8798 17.0636 43.8798 22ZM32.409 25.5567H30.6743C30.3099 25.5567 30.1298 25.5567 30.02 25.4864C29.9014 25.4096 29.829 25.2822 29.8202 25.1417C29.8136 25.0122 29.9036 24.8541 30.0837 24.5379L34.3667 16.9885C34.5489 16.6679 34.6412 16.5076 34.7575 16.4483C34.8827 16.3846 35.032 16.3846 35.1572 16.4483C35.2736 16.5076 35.3658 16.6679 35.548 16.9885L36.4285 18.5255L36.433 18.5333C36.6299 18.8773 36.7297 19.0517 36.7732 19.2347C36.8215 19.4345 36.8215 19.6453 36.7732 19.8451C36.7293 20.0296 36.6305 20.2052 36.4307 20.5544L34.181 24.5313L34.1751 24.5415C33.977 24.8882 33.8766 25.064 33.7374 25.1966C33.5859 25.3415 33.4037 25.4469 33.2038 25.5062C33.0216 25.5567 32.8174 25.5567 32.409 25.5567ZM36.7895 25.5569H39.2751C39.6418 25.5569 39.8262 25.5569 39.936 25.4845C40.0546 25.4076 40.1292 25.278 40.1358 25.1375C40.1422 25.0122 40.0541 24.8603 39.8815 24.5625C39.8756 24.5523 39.8696 24.542 39.8635 24.5315L38.6186 22.4016L38.6044 22.3777C38.4294 22.0818 38.3411 21.9324 38.2277 21.8747C38.1025 21.811 37.9555 21.811 37.8303 21.8747C37.7161 21.9339 37.6239 22.0898 37.4416 22.4038L36.201 24.5337L36.1968 24.541C36.0152 24.8545 35.9244 25.0112 35.931 25.1397C35.9398 25.2802 36.0122 25.4098 36.1308 25.4866C36.2384 25.5569 36.4228 25.5569 36.7895 25.5569Z" fill="#E84142"/>
</g>
<defs>
<clipPath id="clip0_2630_7942">
<rect width="88.2481" height="17.8762" fill="white" transform="translate(26.0037 13.0619)"/>
</clipPath>
</defs>
</svg>
