<svg width="140" height="44" viewBox="0 0 140 44" fill="none" xmlns="http://www.w3.org/2000/svg">
<rect x="0.12793" width="139.744" height="44" rx="5.95873" fill="#FBFBFB"/>
<rect x="0.12793" width="139.744" height="44" rx="5.95873" fill="#FBFBFB"/>
<path d="M55.0337 15.0276H58.1495C58.9413 15.0276 59.5202 15.2405 59.8947 15.6065C60.2608 15.9215 60.4226 16.3472 60.4226 16.7643C60.4226 16.9261 60.4226 17.1304 60.3715 17.2922C60.2693 17.5561 60.1076 17.82 59.8947 18.0328C59.7926 18.135 59.6819 18.1946 59.5797 18.2456C59.9458 18.3478 60.2693 18.5606 60.5332 18.8245C60.7461 19.0884 60.8482 19.4034 60.8482 19.8802C60.8482 20.1441 60.7971 20.4591 60.6865 20.6719C60.5843 20.8847 60.3715 21.0976 60.1586 21.2508C59.8947 21.4126 59.6308 21.5147 59.3669 21.6169C59.0519 21.719 58.6773 21.719 58.3113 21.719H55.0848V15.0106H55.0337V15.0276ZM57.8856 17.7689C58.1495 17.7689 58.4134 17.7178 58.6773 17.6071C58.8902 17.505 58.9923 17.2922 58.9923 17.0793C58.9923 16.8665 58.8902 16.6537 58.7284 16.5515C58.5156 16.3898 58.2517 16.3387 57.9878 16.3898H56.5065V17.8115H57.8771V17.7689H57.8856ZM58.2517 20.4676C58.5156 20.4676 58.7795 20.4165 59.0434 20.3058C59.2562 20.2037 59.3584 19.9908 59.3073 19.7269C59.3073 19.5141 59.2052 19.3013 59.0434 19.1991C58.8817 19.097 58.5667 18.9863 58.2006 18.9863H56.4554V20.4676H58.2517Z" fill="#F3BA2F"/>
<path d="M62.6873 15.0276H64.1686V21.7871H62.6873V15.0276Z" fill="#F3BA2F"/>
<path d="M66.4412 15.0276H67.8118L70.9787 19.1991V15.0276H72.4515V21.7871H71.1915L67.8629 17.5049V21.7871H66.4412V15.0276Z" fill="#F3BA2F"/>
<path d="M76.9467 14.9766H78.3173L81.2203 21.7871H79.688L79.058 20.2548H76.2061L75.5761 21.7871H74.0437L76.9467 14.9766ZM78.5302 18.9863L77.6363 16.7728L76.7424 18.9863H78.5302Z" fill="#F3BA2F"/>
<path d="M82.804 15.0276H84.1746L87.3415 19.1991V15.0276H88.8228V21.7871H87.5543L84.2767 17.5049V21.7871H82.804V15.0276Z" fill="#F3BA2F"/>
<path d="M94.2029 21.8893C93.7261 21.8893 93.2494 21.7872 92.8322 21.6254C91.9894 21.2594 91.3509 20.6209 90.9849 19.7781C90.8231 19.3524 90.7209 18.8842 90.7209 18.4074C90.7209 17.5136 91.087 16.6112 91.7255 15.9301C92.0405 15.6151 92.4151 15.3512 92.8322 15.1894C93.309 14.9766 93.7857 14.9255 94.2539 14.9255C94.5178 14.9255 94.8328 14.9255 95.0967 14.9766C95.3606 15.0277 95.5735 15.0788 95.7863 15.1894C95.9991 15.2916 96.212 15.4023 96.3652 15.5044C96.527 15.6066 96.7313 15.7683 96.893 15.9301L95.9991 17.0368C95.7352 16.824 95.4713 16.6112 95.2074 16.4579C94.9435 16.3047 94.6285 16.2451 94.3135 16.2451C94.0496 16.2451 93.7857 16.2962 93.5218 16.4068C93.2579 16.509 93.0451 16.6707 92.8918 16.8836C92.7386 17.0964 92.5768 17.3092 92.4662 17.5731C92.364 17.8371 92.3044 18.101 92.3044 18.3649C92.3044 18.6288 92.3555 18.9438 92.4662 19.2077C92.5768 19.4716 92.679 19.6844 92.8918 19.8972C93.2579 20.3229 93.7857 20.5272 94.3135 20.5272C94.6285 20.5272 95.0031 20.4761 95.3181 20.3144C95.582 20.1526 95.897 19.9483 96.1098 19.7355L97.0548 20.6805C96.893 20.8422 96.6887 21.0465 96.527 21.2083C96.3141 21.37 96.1013 21.4722 95.897 21.5744C95.6841 21.6765 95.4202 21.7872 95.1563 21.8383C94.7817 21.8893 94.4668 21.8893 94.2029 21.8893Z" fill="#F3BA2F"/>
<path d="M98.749 15.0276H103.814V16.3471H100.171V17.7178H103.389V19.0373H100.171V20.4675H103.865V21.7871H98.749V15.0276Z" fill="#F3BA2F"/>
<path d="M56.932 28.436C56.5659 28.436 56.1913 28.3849 55.8763 28.2232C55.5613 28.121 55.2464 27.9082 54.9229 27.6443L55.4507 27.0654C55.6635 27.2782 55.8763 27.3804 56.1402 27.5421C56.4041 27.6443 56.6681 27.7039 56.932 27.7039C57.1448 27.7039 57.3576 27.6528 57.5619 27.5421C57.7237 27.4399 57.7748 27.2782 57.7748 27.1164C57.7748 27.0654 57.7748 26.9547 57.7237 26.9036C57.6726 26.8525 57.6215 26.7419 57.5619 26.6908C57.4598 26.6397 57.3491 26.5886 57.247 26.529C57.0852 26.478 56.8809 26.4269 56.7191 26.3673C56.5063 26.3162 56.2424 26.2651 56.0296 26.1545C55.8678 26.1034 55.6635 25.9927 55.5528 25.8905C55.4507 25.7884 55.34 25.6777 55.2378 25.5245C55.1357 25.3116 55.1357 25.0988 55.1357 24.9456C55.1357 24.7327 55.1868 24.5795 55.2378 24.3667C55.2889 24.2049 55.4507 24.0517 55.5528 23.941C55.7146 23.8389 55.8678 23.7282 56.0806 23.6771C56.2935 23.626 56.5063 23.575 56.7106 23.575C57.0256 23.575 57.3406 23.626 57.6641 23.7367C57.928 23.8389 58.1919 24.0006 58.4558 24.1624L58.0302 24.7923C57.8173 24.6306 57.6045 24.5284 57.4002 24.4263C57.1874 24.3241 56.9745 24.3241 56.7702 24.3241C56.5574 24.3241 56.3446 24.3752 56.1913 24.4859C56.0892 24.588 55.9785 24.7498 55.9785 24.9115C55.9785 25.0137 55.9785 25.0733 56.0296 25.1754C56.0806 25.2265 56.1317 25.3372 56.1913 25.3883C56.2935 25.4393 56.4041 25.4904 56.5574 25.55C56.7191 25.6011 56.8724 25.6522 57.1363 25.7118C57.3491 25.7628 57.5619 25.8139 57.8259 25.9246C57.9876 25.9757 58.1408 26.0863 58.3026 26.1885C58.4048 26.2907 58.5154 26.4524 58.5665 26.5546C58.6176 26.7163 58.6687 26.8696 58.6687 27.0824C58.6687 27.2952 58.6176 27.5081 58.5665 27.6613C58.4643 27.823 58.3537 27.9763 58.2004 28.138C58.0387 28.2402 57.8854 28.3509 57.6726 28.4019C57.4087 28.3849 57.1448 28.436 56.932 28.436Z" fill="#F3BA2F"/>
<path d="M59.5713 23.6345H60.4737L61.8954 25.848L63.3767 23.6345H64.2706V28.3849H63.4278V24.9541L61.9465 27.1675H61.8954L60.4226 24.9541V28.3849H59.5713V23.6345Z" fill="#F3BA2F"/>
<path d="M67.1225 23.5835H67.9142L69.9744 28.3339H69.0805L68.6038 27.1761H66.3903L65.9136 28.3339H65.0708L67.1225 23.5835ZM68.3399 26.4865L67.4971 24.5881L66.7053 26.4865H68.3399Z" fill="#F3BA2F"/>
<path d="M70.8174 23.6344H72.9287C73.1926 23.6344 73.4565 23.6855 73.7204 23.7366C73.9333 23.7876 74.1461 23.9494 74.2993 24.1026C74.4015 24.2048 74.5122 24.3665 74.6143 24.5794C74.6654 24.7411 74.7165 24.9454 74.7165 25.1583C74.7165 25.32 74.6654 25.5243 74.6143 25.6861C74.5632 25.8478 74.4526 25.95 74.4015 26.1117C74.2993 26.2139 74.1887 26.3246 74.0354 26.4267C73.8737 26.5289 73.7204 26.5885 73.5587 26.6396L74.8272 28.4358H73.8226L72.6648 26.8013H71.6092V28.4358H70.7664L70.8174 23.6344ZM72.8776 25.9585C73.1415 25.9585 73.4054 25.9074 73.5672 25.7457C73.7289 25.5839 73.8311 25.3796 73.8311 25.1668C73.8311 24.9539 73.7289 24.7411 73.5672 24.5879C73.3544 24.4261 73.0905 24.375 72.8266 24.375H71.6092V25.9585H72.8776Z" fill="#F3BA2F"/>
<path d="M76.8871 24.375H75.3547V23.6344H79.2112V24.375H77.6788V28.3848H76.836L76.8871 24.375Z" fill="#F3BA2F"/>
<path d="M84.336 28.436C84.021 28.436 83.706 28.3849 83.3825 28.2232C82.8036 27.9593 82.3269 27.5336 82.1141 26.9547C82.0119 26.6397 81.9012 26.3247 81.9523 26.0012C81.9523 25.6862 82.0034 25.3713 82.1141 25.0478C82.3269 24.4689 82.8036 23.9921 83.3825 23.7282C83.6975 23.6261 84.0125 23.5154 84.3871 23.5154C84.5999 23.5154 84.8128 23.5154 84.966 23.5665C85.1277 23.6175 85.281 23.6686 85.4427 23.7282C85.6045 23.7793 85.7066 23.89 85.8684 23.941C85.9706 24.0432 86.1323 24.1539 86.2345 24.256L85.7066 24.886C85.5449 24.7243 85.3406 24.571 85.1278 24.4603C84.9149 24.3582 84.651 24.2986 84.3871 24.2986C84.1743 24.2986 83.9614 24.3497 83.7571 24.4008C83.5443 24.5029 83.3911 24.6136 83.2293 24.7668C83.0676 24.9286 82.9654 25.0818 82.9143 25.2946C82.8632 25.5075 82.8122 25.7203 82.8122 25.9246C82.8122 26.1374 82.8632 26.3503 82.9143 26.5546C82.9654 26.7589 83.0761 26.9207 83.2293 27.0824C83.3911 27.2442 83.5443 27.3463 83.7571 27.4485C83.97 27.5506 84.1828 27.6102 84.3871 27.5506C84.651 27.5506 84.9149 27.4996 85.1278 27.3889C85.3406 27.2867 85.5534 27.125 85.7577 26.9122L86.2855 27.44C86.1834 27.5421 86.0216 27.7039 85.9195 27.806C85.7577 27.9082 85.6556 28.0189 85.4938 28.0699C85.3321 28.121 85.1788 28.2317 84.966 28.2317C84.7532 28.436 84.5403 28.436 84.336 28.436Z" fill="#F3BA2F"/>
<path d="M87.1284 23.6344H87.9201V25.5839H90.1932V23.6344H91.036V28.3848H90.1932V26.3756H87.9201V28.3848H87.1284V23.6344Z" fill="#F3BA2F"/>
<path d="M93.9391 23.5835H94.7309L96.7911 28.3339H95.8972L95.4204 27.1761H93.207L92.7303 28.3339H91.8875L93.9391 23.5835ZM95.1054 26.4865L94.3137 24.5881L93.522 26.4865H95.1054Z" fill="#F3BA2F"/>
<path d="M97.6338 23.6345H98.4851V28.3849H97.6338V23.6345Z" fill="#F3BA2F"/>
<path d="M99.7449 23.6344H100.486L103.022 26.9035V23.6344H103.865V28.3848H103.176L100.596 25.005V28.3848H99.7449V23.6344Z" fill="#F3BA2F"/>
<path d="M45.7459 28.0699V30.1301L43.9496 31.1857L42.2044 30.1301V28.0699L43.9496 29.1255L45.7459 28.0699ZM36.1345 20.9443L37.8797 22V25.5329L40.8849 27.3292V29.3894L36.1345 26.5886V20.9443ZM51.7648 20.9443V26.5971L46.9633 29.3979V27.3377L49.9685 25.5415V22.0085L51.7648 20.9443ZM46.9548 18.1435L48.7511 19.1991V21.2593L45.7459 23.0556V26.6397L44.0007 27.6953L42.264 26.6397V23.0471L39.1482 21.2508V19.1906L40.9445 18.135L43.9496 19.9312L46.9548 18.1435ZM39.1482 22.7321L40.8934 23.7877V25.8479L39.1482 24.7923V22.7321ZM48.7511 22.7321V24.7923L47.0059 25.8479V23.7877L48.7511 22.7321ZM37.8797 16.3472L39.676 17.4028L37.8797 18.4585V20.5187L36.1345 19.463V17.4028L37.8797 16.3472ZM50.0196 16.3472L51.8158 17.4028V19.463L50.0196 20.5187V18.4585L48.2744 17.4028L50.0196 16.3472ZM43.9496 16.3472L45.7459 17.4028L43.9496 18.4585L42.2044 17.4028L43.9496 16.3472ZM43.9496 12.8142L48.7511 15.6151L47.0059 16.6707L44.0007 14.8744L40.936 16.6707L39.1908 15.6151L43.9496 12.8142Z" fill="#F3BA2F"/>
</svg>
