<svg width="140" height="44" viewBox="0 0 140 44" fill="none" xmlns="http://www.w3.org/2000/svg">
<path d="M53.6271 16.361C53.554 16.2879 53.5122 16.2044 53.5122 16.1104C53.5122 16.0164 53.554 15.9329 53.6271 15.8598C53.7838 15.724 54.0137 15.724 54.16 15.8598C54.2331 15.9329 54.2749 16.0164 54.2749 16.1104C54.2749 16.2044 54.2331 16.2879 54.16 16.361C54.0868 16.4237 53.9823 16.455 53.8883 16.455C53.7943 16.4759 53.7002 16.4341 53.6271 16.361ZM52.6867 17.353C52.624 17.2799 52.5927 17.1964 52.5927 17.1024C52.5927 17.0084 52.6345 16.9249 52.6867 16.8518C52.8226 16.716 53.0524 16.716 53.1883 16.8518C53.2509 16.9249 53.2823 17.0084 53.2823 17.1024C53.2823 17.1964 53.2405 17.2799 53.1883 17.353C53.1151 17.4156 53.0315 17.447 52.9375 17.447C52.8435 17.447 52.7599 17.4156 52.6867 17.353ZM51.6628 18.3346C51.6001 18.2719 51.5687 18.1779 51.5687 18.0839C51.5687 17.99 51.6105 17.9064 51.6628 17.8333C51.7986 17.6976 52.0285 17.6976 52.1643 17.8333C52.227 17.896 52.2583 17.99 52.2583 18.0839C52.2583 18.1779 52.2165 18.2615 52.1643 18.3346C52.0912 18.4076 52.0076 18.4285 51.9135 18.4285C51.8195 18.4285 51.7255 18.3972 51.6628 18.3346ZM50.691 19.3161C50.6179 19.2535 50.5761 19.1595 50.5761 19.0655C50.5761 18.9715 50.6179 18.888 50.691 18.8149C50.8478 18.6791 51.0776 18.6791 51.2239 18.8149C51.2971 18.8775 51.3389 18.9715 51.3389 19.0655C51.3389 19.1595 51.2971 19.2535 51.2239 19.3161C51.1508 19.3892 51.0463 19.4101 50.9523 19.4101C50.8582 19.4101 50.7642 19.3892 50.691 19.3161ZM49.7507 20.2872C49.6775 20.2246 49.6566 20.1306 49.6566 20.0366C49.6566 19.9426 49.6984 19.8591 49.7507 19.786C49.8865 19.6503 50.1164 19.6503 50.2522 19.786C50.3253 19.8487 50.3462 19.9426 50.3462 20.0366C50.3462 20.1306 50.3045 20.2246 50.2522 20.2872C50.1895 20.3603 50.0955 20.3812 50.0014 20.3812C49.897 20.4021 49.8029 20.3708 49.7507 20.2872ZM48.6118 21.0182C48.6118 20.9242 48.6536 20.8407 48.7058 20.7676C48.8417 20.6318 49.0715 20.6318 49.2073 20.7676C49.2805 20.8407 49.3014 20.9242 49.3014 21.0182C49.3014 21.1121 49.2596 21.1957 49.2073 21.2688C49.1447 21.3314 49.0506 21.3628 48.9566 21.3628C48.8625 21.3628 48.779 21.321 48.7058 21.2688C48.6536 21.2166 48.6118 21.1121 48.6118 21.0182ZM46.7937 23.1901C46.731 23.1275 46.6997 23.0335 46.6997 22.9395C46.6997 22.8455 46.7415 22.762 46.7937 22.6889C46.9296 22.5532 47.1594 22.5532 47.2953 22.6889C47.3684 22.762 47.3893 22.8455 47.3893 22.9395C47.3893 23.0335 47.3475 23.117 47.2953 23.1901C47.2326 23.2632 47.1385 23.2841 47.0445 23.2841C46.94 23.305 46.8669 23.2632 46.7937 23.1901ZM45.7698 24.1717C45.6966 24.109 45.6548 24.015 45.6548 23.9211C45.6548 23.8271 45.6966 23.7435 45.7698 23.6705C45.9265 23.5347 46.1564 23.5347 46.3026 23.6705C46.3758 23.7435 46.4176 23.8271 46.4176 23.9211C46.4176 24.015 46.3758 24.0986 46.3026 24.1717C46.2295 24.2448 46.125 24.2657 46.031 24.2657C45.9474 24.2865 45.8534 24.2448 45.7698 24.1717ZM44.8294 25.1637C44.7667 25.101 44.7354 25.007 44.7354 24.9131C44.7354 24.8191 44.7772 24.7251 44.8294 24.6624C44.9652 24.5267 45.1951 24.5267 45.3309 24.6624C45.3936 24.7251 45.425 24.8191 45.425 24.9131C45.425 25.007 45.3832 25.0906 45.3309 25.1637C45.2578 25.2368 45.1742 25.2576 45.0802 25.2576C44.9861 25.2576 44.913 25.2263 44.8294 25.1637ZM43.8577 26.1452C43.7845 26.0826 43.7636 25.9886 43.7636 25.8946C43.7636 25.8006 43.8054 25.7171 43.8577 25.644C43.9935 25.5083 44.2234 25.5083 44.3592 25.644C44.4219 25.7171 44.4533 25.8006 44.4533 25.8946C44.4533 25.9886 44.4115 26.0826 44.3592 26.1452C44.2861 26.2183 44.2025 26.2392 44.1084 26.2392C44.004 26.2392 43.9099 26.2183 43.8577 26.1452ZM42.8337 27.1268C42.7606 27.0641 42.7188 26.9701 42.7188 26.8762C42.7188 26.7822 42.7606 26.6987 42.8337 26.6256C42.9905 26.4898 43.2203 26.4898 43.3562 26.6256C43.4293 26.6987 43.4711 26.7822 43.4711 26.8762C43.4711 26.9701 43.4293 27.0641 43.3562 27.1268C43.283 27.1894 43.1785 27.2208 43.0845 27.2208C42.9905 27.2208 42.8964 27.1999 42.8337 27.1268ZM41.8725 28.0979C41.7993 28.0248 41.7784 27.9413 41.7784 27.8473C41.7784 27.7533 41.8202 27.6698 41.8725 27.5967C42.0083 27.4609 42.2382 27.4609 42.374 27.5967C42.4471 27.6698 42.468 27.7533 42.468 27.8473C42.468 27.9413 42.4262 28.0248 42.374 28.0979C42.3113 28.1605 42.2173 28.1919 42.1232 28.1919C42.0501 28.2128 41.956 28.1814 41.8725 28.0979ZM42.374 16.361C42.4367 16.2879 42.468 16.2044 42.468 16.1104C42.468 16.0164 42.4262 15.9329 42.374 15.8598C42.2382 15.724 42.0083 15.724 41.8725 15.8598C41.7993 15.9329 41.7784 16.0164 41.7784 16.1104C41.7784 16.2044 41.8202 16.2879 41.8725 16.361C41.9351 16.4237 42.0292 16.455 42.1232 16.455C42.2173 16.4759 42.3113 16.4341 42.374 16.361ZM43.3562 17.353C43.4293 17.2799 43.4711 17.1964 43.4711 17.1024C43.4711 17.0084 43.4293 16.9249 43.3562 16.8518C43.1994 16.716 42.9696 16.716 42.8233 16.8518C42.7501 16.9249 42.7083 17.0084 42.7083 17.1024C42.7083 17.1964 42.7501 17.2799 42.8233 17.353C42.8964 17.4156 43.0009 17.447 43.0949 17.447C43.1785 17.447 43.2726 17.4156 43.3562 17.353ZM44.3488 18.3346C44.4115 18.2719 44.4428 18.1779 44.4428 18.0839C44.4428 17.99 44.401 17.9064 44.3488 17.8333C44.2129 17.6976 43.9831 17.6976 43.8472 17.8333C43.7845 17.896 43.7532 17.99 43.7532 18.0839C43.7532 18.1779 43.795 18.2615 43.8472 18.3346C43.9204 18.4076 44.004 18.4285 44.098 18.4285C44.1816 18.4285 44.2756 18.3972 44.3488 18.3346ZM45.3309 19.3161C45.3936 19.2535 45.425 19.1595 45.425 19.0655C45.425 18.9715 45.3832 18.888 45.3309 18.8149C45.1951 18.6791 44.9652 18.6791 44.8294 18.8149C44.7667 18.8775 44.7354 18.9715 44.7354 19.0655C44.7354 19.1595 44.7772 19.2535 44.8294 19.3161C44.9025 19.3892 44.9861 19.4101 45.0802 19.4101C45.1533 19.4101 45.2578 19.3892 45.3309 19.3161ZM46.2922 20.2872C46.3653 20.2246 46.4071 20.1306 46.4071 20.0366C46.4071 19.9426 46.3653 19.8591 46.2922 19.786C46.1564 19.6503 45.9056 19.6503 45.7698 19.786C45.6966 19.8487 45.6548 19.9426 45.6548 20.0366C45.6548 20.1306 45.6966 20.2246 45.7698 20.2872C45.8429 20.3603 45.9474 20.3812 46.0414 20.3812C46.1355 20.4021 46.2295 20.3708 46.2922 20.2872ZM47.3893 21.0182C47.3893 20.9242 47.3475 20.8407 47.2953 20.7676C47.1594 20.6318 46.9296 20.6318 46.7937 20.7676C46.7206 20.8407 46.6997 20.9242 46.6997 21.0182C46.6997 21.1121 46.7415 21.1957 46.7937 21.2688C46.8564 21.3314 46.9505 21.3628 47.0445 21.3628C47.1385 21.3628 47.2221 21.321 47.2953 21.2688C47.3684 21.2166 47.3893 21.1121 47.3893 21.0182ZM48.267 22.2712C48.3401 22.1981 48.361 22.1146 48.361 22.0206C48.361 21.9266 48.3192 21.8431 48.267 21.77C48.1311 21.6342 47.9013 21.6342 47.7654 21.77C47.6923 21.8431 47.6714 21.9266 47.6714 22.0206C47.6714 22.1146 47.7132 22.1981 47.7654 22.2712C47.8281 22.3339 47.9222 22.3652 48.0162 22.3652C48.1103 22.3652 48.2147 22.3234 48.267 22.2712ZM49.2491 23.1901C49.3223 23.1275 49.3641 23.0335 49.3641 22.9395C49.3641 22.8455 49.3223 22.762 49.2491 22.6889C49.0924 22.5532 48.8625 22.5532 48.7267 22.6889C48.6536 22.762 48.6118 22.8455 48.6118 22.9395C48.6118 23.0335 48.6536 23.117 48.7267 23.1901C48.7999 23.2632 48.9043 23.2841 48.9984 23.2841C49.0715 23.305 49.176 23.2632 49.2491 23.1901ZM50.2418 24.1717C50.3044 24.109 50.3358 24.015 50.3358 23.9211C50.3358 23.8271 50.294 23.7435 50.2418 23.6705C50.1059 23.5347 49.8761 23.5347 49.7402 23.6705C49.6775 23.7435 49.6462 23.8271 49.6462 23.9211C49.6462 24.015 49.688 24.0986 49.7402 24.1717C49.8134 24.2448 49.897 24.2657 49.991 24.2657C50.0746 24.2865 50.1686 24.2448 50.2418 24.1717ZM51.2239 25.1637C51.2866 25.101 51.318 25.007 51.318 24.9131C51.318 24.8191 51.2762 24.7251 51.2239 24.6624C51.0881 24.5267 50.8582 24.5267 50.7224 24.6624C50.6597 24.7251 50.6284 24.8191 50.6284 24.9131C50.6284 25.007 50.6701 25.0906 50.7224 25.1637C50.7955 25.2368 50.8791 25.2576 50.9732 25.2576C51.0672 25.2576 51.1508 25.2263 51.2239 25.1637ZM52.1434 26.1452C52.2165 26.0826 52.2374 25.9886 52.2374 25.8946C52.2374 25.8006 52.1956 25.7171 52.1434 25.644C52.0076 25.5083 51.7777 25.5083 51.6419 25.644C51.5792 25.7171 51.5478 25.8006 51.5478 25.8946C51.5478 25.9886 51.5896 26.0826 51.6419 26.1452C51.715 26.2183 51.7986 26.2392 51.8926 26.2392C51.9867 26.2392 52.0912 26.2183 52.1434 26.1452ZM53.1883 27.1268C53.2614 27.0641 53.2823 26.9701 53.2823 26.8762C53.2823 26.7822 53.2405 26.6987 53.1883 26.6256C53.0524 26.4898 52.8226 26.4898 52.6867 26.6256C52.6136 26.6987 52.5927 26.7822 52.5927 26.8762C52.5927 26.9701 52.6345 27.0641 52.6867 27.1268C52.7494 27.1894 52.8435 27.2208 52.9375 27.2208C53.0315 27.2208 53.1256 27.1999 53.1883 27.1268ZM54.16 28.0979C54.2331 28.0248 54.2749 27.9413 54.2749 27.8473C54.2749 27.7533 54.2331 27.6698 54.16 27.5967C54.0032 27.4609 53.7734 27.4609 53.6375 27.5967C53.5644 27.6698 53.5226 27.7533 53.5226 27.8473C53.5226 27.9413 53.5644 28.0248 53.6375 28.0979C53.7107 28.1605 53.8152 28.1919 53.9092 28.1919C53.9928 28.2128 54.0868 28.1814 54.16 28.0979ZM44.6936 16.6221C45.6966 15.9746 46.7833 15.6614 47.9953 15.6405C49.1865 15.6405 50.2836 15.9642 51.2971 16.6221L53.4077 14.5128C51.7568 13.2701 49.9701 12.6332 47.9953 12.6332C46.0205 12.6332 44.2129 13.2701 42.6039 14.5128L44.6936 16.6221ZM42.583 25.2785C41.9142 24.2657 41.5799 23.1692 41.5799 21.9997C41.5799 20.8093 41.9038 19.7129 42.583 18.7209L40.4932 16.6325C39.2603 18.2406 38.6543 20.0262 38.6543 22.0206C38.6543 23.9733 39.2708 25.7798 40.5141 27.4087L42.583 25.2785ZM51.3075 27.3774C50.3045 28.0457 49.2178 28.3903 48.0267 28.4112C46.8146 28.4112 45.7071 28.0875 44.704 27.3983L42.5934 29.4867C44.2234 30.7502 46.031 31.3871 48.0267 31.3663C50.0014 31.3454 51.7881 30.7189 53.4077 29.4867L51.3075 27.3774ZM53.3554 18.7C54.0241 19.7129 54.3689 20.8302 54.3585 22.0415C54.3376 23.211 54.0137 24.2865 53.3554 25.2681L55.466 27.3565C56.7094 25.7484 57.3468 23.9628 57.3468 21.9997C57.3677 20.0053 56.7303 18.1988 55.466 16.5698L53.3554 18.7ZM55.5601 28.0248C56.3646 28.0248 57.0438 28.6722 57.0438 29.5076C57.0438 30.3116 56.396 30.9903 55.5601 30.9903C54.7555 30.9903 54.0764 30.3429 54.0764 29.5076C54.0868 28.6826 54.7346 28.0248 55.5601 28.0248ZM40.4723 28.0248C41.2769 28.0248 41.9351 28.6722 41.9351 29.5076C41.9351 30.3116 41.2873 30.9903 40.4723 30.9903C39.6574 30.9903 39.0095 30.3429 39.0095 29.5076C39.0095 28.6826 39.6678 28.0248 40.4723 28.0248ZM55.581 12.9569C56.3855 12.9569 57.0438 13.6043 57.0438 14.4397C57.0438 15.2646 56.396 15.9224 55.581 15.9224C54.766 15.9224 54.1182 15.275 54.1182 14.4397C54.1286 13.6147 54.7764 12.9569 55.581 12.9569ZM40.4515 12.9569C41.256 12.9569 41.9351 13.6043 41.9351 14.4188C41.9351 15.2228 41.2873 15.8807 40.4515 15.8807C39.6469 15.8807 38.9678 15.2333 38.9678 14.4188C38.9782 13.6147 39.626 12.9569 40.4515 12.9569ZM68.276 24.7773L67.5446 24.1299C67.1057 24.652 66.2176 24.9548 65.4758 24.9548C64.2324 24.9548 63.2293 24.203 63.1144 23.0022H68.6417C68.8925 20.4125 67.3774 19.1804 65.3817 19.1804C63.4278 19.1804 62.0068 20.5796 62.0068 22.5532C62.0068 24.6207 63.407 25.9468 65.4444 25.9468C66.4684 25.9364 67.6073 25.55 68.276 24.7773ZM67.6386 22.0728H63.1248C63.3129 20.8302 64.2951 20.1306 65.434 20.1306C66.6983 20.1306 67.5655 20.7989 67.6386 22.031V22.0728ZM71.327 16.5907H70.2508V25.8215H71.327V16.5907ZM74.3779 19.3161H73.3749V25.8215H74.4511V22.1981C74.4511 21.0077 75.3183 20.2559 76.3736 20.2455C76.8125 20.2455 77.1573 20.3603 77.5021 20.6109L77.9827 19.692C77.5752 19.3892 77.0423 19.1908 76.4677 19.2117C75.7154 19.2117 74.9108 19.4414 74.472 20.2872L74.3779 19.3161ZM78.6096 22.574C78.6096 24.5476 80.0306 25.9364 81.9845 25.9364C83.9384 25.9364 85.3594 24.558 85.3594 22.574C85.3594 20.5587 83.9593 19.1595 81.9845 19.1595C80.0515 19.1595 78.6096 20.5587 78.6096 22.574ZM84.2936 22.574C84.2727 23.9315 83.3115 24.9131 81.9741 24.9131C80.6471 24.9131 79.6858 23.9315 79.6858 22.574C79.6858 21.1121 80.668 20.1515 81.995 20.1515C83.2906 20.1619 84.2936 21.133 84.2936 22.574ZM86.9162 19.2952V25.8215H87.9924V22.3234C87.9924 21.1539 88.8179 20.2141 89.9881 20.1932C91.2315 20.1932 91.9629 20.9764 91.9629 22.2294V25.8215H93.0391V22.2294C93.0391 20.3081 91.8271 19.2117 90.1762 19.2117C89.3089 19.2117 88.5044 19.5772 87.9506 20.3394L87.8879 19.3057L86.9162 19.2952ZM101.325 16.5907H100.249V20.4856C99.7889 19.598 98.7336 19.1804 97.8141 19.1804C95.9751 19.1804 94.5332 20.3708 94.5332 22.5532C94.5332 24.7042 95.9751 25.9259 97.835 25.9259C98.7963 25.9259 99.7575 25.5083 100.27 24.5998L100.332 25.7902H101.346L101.325 16.5907ZM97.9081 20.1932C99.1933 20.1932 100.217 21.1539 100.217 22.5323C100.217 23.9524 99.2037 24.9131 97.9081 24.9131C96.6438 24.9131 95.6199 24.0464 95.6199 22.5532C95.6199 21.0391 96.623 20.2141 97.8663 20.1932H97.9081Z" fill="black"/>
</svg>
