<svg width="140" height="44" viewBox="0 0 140 44" fill="none" xmlns="http://www.w3.org/2000/svg">
<rect x="0.255615" width="139.744" height="44" rx="5.95873" fill="#FBFBFB"/>
<rect x="0.255615" width="139.744" height="44" rx="5.95873" fill="#FBFBFB"/>
<path d="M53.8454 16.5204C53.7724 16.4475 53.7308 16.3642 53.7308 16.2704C53.7308 16.1766 53.7724 16.0933 53.8454 16.0204C54.0018 15.885 54.2311 15.885 54.377 16.0204C54.45 16.0933 54.4917 16.1766 54.4917 16.2704C54.4917 16.3642 54.45 16.4475 54.377 16.5204C54.3041 16.5829 54.1998 16.6142 54.106 16.6142C54.0122 16.635 53.9184 16.5933 53.8454 16.5204ZM52.9073 17.5101C52.8447 17.4371 52.8134 17.3538 52.8134 17.2601C52.8134 17.1663 52.8551 17.083 52.9073 17.01C53.0428 16.8746 53.2721 16.8746 53.4076 17.01C53.4702 17.083 53.5014 17.1663 53.5014 17.2601C53.5014 17.3538 53.4597 17.4371 53.4076 17.5101C53.3346 17.5726 53.2513 17.6038 53.1574 17.6038C53.0636 17.6038 52.9802 17.5726 52.9073 17.5101ZM51.8857 18.4893C51.8232 18.4268 51.7919 18.333 51.7919 18.2393C51.7919 18.1455 51.8336 18.0622 51.8857 17.9893C52.0212 17.8538 52.2506 17.8538 52.3861 17.9893C52.4486 18.0518 52.4799 18.1455 52.4799 18.2393C52.4799 18.333 52.4382 18.4164 52.3861 18.4893C52.3131 18.5622 52.2297 18.5831 52.1359 18.5831C52.0421 18.5831 51.9483 18.5518 51.8857 18.4893ZM50.9163 19.4685C50.8433 19.406 50.8016 19.3123 50.8016 19.2185C50.8016 19.1248 50.8433 19.0414 50.9163 18.9685C51.0727 18.8331 51.302 18.8331 51.4479 18.9685C51.5209 19.031 51.5626 19.1248 51.5626 19.2185C51.5626 19.3123 51.5209 19.406 51.4479 19.4685C51.3749 19.5415 51.2707 19.5623 51.1769 19.5623C51.0831 19.5623 50.9893 19.5415 50.9163 19.4685ZM49.9781 20.4374C49.9052 20.3749 49.8843 20.2811 49.8843 20.1873C49.8843 20.0936 49.926 20.0103 49.9781 19.9373C50.1137 19.8019 50.343 19.8019 50.4785 19.9373C50.5515 19.9998 50.5723 20.0936 50.5723 20.1873C50.5723 20.2811 50.5306 20.3749 50.4785 20.4374C50.4159 20.5103 50.3221 20.5311 50.2283 20.5311C50.1241 20.552 50.0303 20.5207 49.9781 20.4374ZM48.8419 21.1666C48.8419 21.0728 48.8836 20.9895 48.9358 20.9166C49.0713 20.7811 49.3006 20.7811 49.4361 20.9166C49.5091 20.9895 49.5299 21.0728 49.5299 21.1666C49.5299 21.2603 49.4882 21.3437 49.4361 21.4166C49.3736 21.4791 49.2797 21.5104 49.1859 21.5104C49.0921 21.5104 49.0087 21.4687 48.9358 21.4166C48.8836 21.3645 48.8419 21.2603 48.8419 21.1666ZM47.0282 23.3334C46.9656 23.2709 46.9344 23.1771 46.9344 23.0834C46.9344 22.9896 46.9761 22.9063 47.0282 22.8334C47.1637 22.6979 47.393 22.6979 47.5285 22.8334C47.6015 22.9063 47.6223 22.9896 47.6223 23.0834C47.6223 23.1771 47.5806 23.2605 47.5285 23.3334C47.466 23.4063 47.3722 23.4272 47.2784 23.4272C47.1741 23.448 47.1011 23.4063 47.0282 23.3334ZM46.0066 24.3126C45.9337 24.2501 45.892 24.1564 45.892 24.0626C45.892 23.9689 45.9337 23.8855 46.0066 23.8126C46.163 23.6772 46.3923 23.6772 46.5383 23.8126C46.6112 23.8855 46.6529 23.9689 46.6529 24.0626C46.6529 24.1564 46.6112 24.2397 46.5383 24.3126C46.4653 24.3856 46.3611 24.4064 46.2672 24.4064C46.1838 24.4272 46.09 24.3856 46.0066 24.3126ZM45.0685 25.3023C45.0059 25.2398 44.9747 25.146 44.9747 25.0523C44.9747 24.9585 45.0164 24.8648 45.0685 24.8023C45.204 24.6668 45.4333 24.6668 45.5688 24.8023C45.6314 24.8648 45.6626 24.9585 45.6626 25.0523C45.6626 25.146 45.621 25.2294 45.5688 25.3023C45.4959 25.3752 45.4125 25.3961 45.3187 25.3961C45.2248 25.3961 45.1519 25.3648 45.0685 25.3023ZM44.0991 26.2815C44.0261 26.219 44.0052 26.1253 44.0052 26.0315C44.0052 25.9378 44.0469 25.8544 44.0991 25.7815C44.2346 25.6461 44.4639 25.6461 44.5994 25.7815C44.662 25.8544 44.6932 25.9378 44.6932 26.0315C44.6932 26.1253 44.6515 26.219 44.5994 26.2815C44.5264 26.3545 44.4431 26.3753 44.3492 26.3753C44.245 26.3753 44.1512 26.3545 44.0991 26.2815ZM43.0775 27.2608C43.0046 27.1983 42.9629 27.1045 42.9629 27.0108C42.9629 26.917 43.0046 26.8337 43.0775 26.7607C43.2339 26.6253 43.4632 26.6253 43.5987 26.7607C43.6717 26.8337 43.7134 26.917 43.7134 27.0108C43.7134 27.1045 43.6717 27.1983 43.5987 27.2608C43.5257 27.3233 43.4215 27.3545 43.3277 27.3545C43.2339 27.3545 43.1401 27.3337 43.0775 27.2608ZM42.1185 28.2296C42.0456 28.1567 42.0247 28.0733 42.0247 27.9796C42.0247 27.8858 42.0664 27.8025 42.1185 27.7296C42.254 27.5941 42.4834 27.5941 42.6189 27.7296C42.6918 27.8025 42.7127 27.8858 42.7127 27.9796C42.7127 28.0733 42.671 28.1567 42.6189 28.2296C42.5563 28.2921 42.4625 28.3234 42.3687 28.3234C42.2957 28.3442 42.2019 28.3129 42.1185 28.2296ZM42.6189 16.5204C42.6814 16.4475 42.7127 16.3642 42.7127 16.2704C42.7127 16.1766 42.671 16.0933 42.6189 16.0204C42.4834 15.885 42.254 15.885 42.1185 16.0204C42.0456 16.0933 42.0247 16.1766 42.0247 16.2704C42.0247 16.3642 42.0664 16.4475 42.1185 16.5204C42.1811 16.5829 42.2749 16.6142 42.3687 16.6142C42.4625 16.635 42.5563 16.5933 42.6189 16.5204ZM43.5987 17.5101C43.6717 17.4371 43.7134 17.3538 43.7134 17.2601C43.7134 17.1663 43.6717 17.083 43.5987 17.01C43.4424 16.8746 43.213 16.8746 43.0671 17.01C42.9941 17.083 42.9524 17.1663 42.9524 17.2601C42.9524 17.3538 42.9941 17.4371 43.0671 17.5101C43.1401 17.5726 43.2443 17.6038 43.3381 17.6038C43.4215 17.6038 43.5153 17.5726 43.5987 17.5101ZM44.589 18.4893C44.6515 18.4268 44.6828 18.333 44.6828 18.2393C44.6828 18.1455 44.6411 18.0622 44.589 17.9893C44.4535 17.8538 44.2241 17.8538 44.0886 17.9893C44.0261 18.0518 43.9948 18.1455 43.9948 18.2393C43.9948 18.333 44.0365 18.4164 44.0886 18.4893C44.1616 18.5622 44.245 18.5831 44.3388 18.5831C44.4222 18.5831 44.516 18.5518 44.589 18.4893ZM45.5688 19.4685C45.6314 19.406 45.6626 19.3123 45.6626 19.2185C45.6626 19.1248 45.621 19.0414 45.5688 18.9685C45.4333 18.8331 45.204 18.8331 45.0685 18.9685C45.0059 19.031 44.9747 19.1248 44.9747 19.2185C44.9747 19.3123 45.0164 19.406 45.0685 19.4685C45.1415 19.5415 45.2248 19.5623 45.3187 19.5623C45.3916 19.5623 45.4959 19.5415 45.5688 19.4685ZM46.5278 20.4374C46.6008 20.3749 46.6425 20.2811 46.6425 20.1873C46.6425 20.0936 46.6008 20.0103 46.5278 19.9373C46.3923 19.8019 46.1421 19.8019 46.0066 19.9373C45.9337 19.9998 45.892 20.0936 45.892 20.1873C45.892 20.2811 45.9337 20.3749 46.0066 20.4374C46.0796 20.5103 46.1838 20.5311 46.2777 20.5311C46.3715 20.552 46.4653 20.5207 46.5278 20.4374ZM47.6223 21.1666C47.6223 21.0728 47.5806 20.9895 47.5285 20.9166C47.393 20.7811 47.1637 20.7811 47.0282 20.9166C46.9552 20.9895 46.9344 21.0728 46.9344 21.1666C46.9344 21.2603 46.9761 21.3437 47.0282 21.4166C47.0907 21.4791 47.1845 21.5104 47.2784 21.5104C47.3722 21.5104 47.4556 21.4687 47.5285 21.4166C47.6015 21.3645 47.6223 21.2603 47.6223 21.1666ZM48.498 22.4167C48.5709 22.3438 48.5918 22.2604 48.5918 22.1667C48.5918 22.0729 48.5501 21.9896 48.498 21.9166C48.3624 21.7812 48.1331 21.7812 47.9976 21.9166C47.9246 21.9896 47.9038 22.0729 47.9038 22.1667C47.9038 22.2604 47.9455 22.3438 47.9976 22.4167C48.0601 22.4792 48.154 22.5104 48.2478 22.5104C48.3416 22.5104 48.4458 22.4688 48.498 22.4167ZM49.4778 23.3334C49.5508 23.2709 49.5925 23.1771 49.5925 23.0834C49.5925 22.9896 49.5508 22.9063 49.4778 22.8334C49.3214 22.6979 49.0921 22.6979 48.9566 22.8334C48.8836 22.9063 48.8419 22.9896 48.8419 23.0834C48.8419 23.1771 48.8836 23.2605 48.9566 23.3334C49.0296 23.4063 49.1338 23.4272 49.2276 23.4272C49.3006 23.448 49.4048 23.4063 49.4778 23.3334ZM50.4681 24.3126C50.5306 24.2501 50.5619 24.1564 50.5619 24.0626C50.5619 23.9689 50.5202 23.8855 50.4681 23.8126C50.3326 23.6772 50.1032 23.6772 49.9677 23.8126C49.9052 23.8855 49.8739 23.9689 49.8739 24.0626C49.8739 24.1564 49.9156 24.2397 49.9677 24.3126C50.0407 24.3856 50.1241 24.4064 50.2179 24.4064C50.3013 24.4272 50.3951 24.3856 50.4681 24.3126ZM51.4479 25.3023C51.5105 25.2398 51.5417 25.146 51.5417 25.0523C51.5417 24.9585 51.5 24.8648 51.4479 24.8023C51.3124 24.6668 51.0831 24.6668 50.9476 24.8023C50.885 24.8648 50.8538 24.9585 50.8538 25.0523C50.8538 25.146 50.8954 25.2294 50.9476 25.3023C51.0205 25.3752 51.1039 25.3961 51.1977 25.3961C51.2916 25.3961 51.3749 25.3648 51.4479 25.3023ZM52.3652 26.2815C52.4382 26.219 52.459 26.1253 52.459 26.0315C52.459 25.9378 52.4173 25.8544 52.3652 25.7815C52.2297 25.6461 52.0004 25.6461 51.8649 25.7815C51.8023 25.8544 51.7711 25.9378 51.7711 26.0315C51.7711 26.1253 51.8128 26.219 51.8649 26.2815C51.9378 26.3545 52.0212 26.3753 52.115 26.3753C52.2089 26.3753 52.3131 26.3545 52.3652 26.2815ZM53.4076 27.2608C53.4806 27.1983 53.5014 27.1045 53.5014 27.0108C53.5014 26.917 53.4597 26.8337 53.4076 26.7607C53.2721 26.6253 53.0428 26.6253 52.9073 26.7607C52.8343 26.8337 52.8134 26.917 52.8134 27.0108C52.8134 27.1045 52.8551 27.1983 52.9073 27.2608C52.9698 27.3233 53.0636 27.3545 53.1574 27.3545C53.2513 27.3545 53.3451 27.3337 53.4076 27.2608ZM54.377 28.2296C54.45 28.1567 54.4917 28.0733 54.4917 27.9796C54.4917 27.8858 54.45 27.8025 54.377 27.7296C54.2207 27.5941 53.9913 27.5941 53.8558 27.7296C53.7829 27.8025 53.7412 27.8858 53.7412 27.9796C53.7412 28.0733 53.7829 28.1567 53.8558 28.2296C53.9288 28.2921 54.033 28.3234 54.1269 28.3234C54.2102 28.3442 54.3041 28.3129 54.377 28.2296ZM44.933 16.7808C45.9337 16.135 47.0178 15.8224 48.2269 15.8016C49.4153 15.8016 50.5098 16.1246 51.5209 16.7808L53.6265 14.6765C51.9795 13.4369 50.197 12.8014 48.2269 12.8014C46.2568 12.8014 44.4535 13.4369 42.8482 14.6765L44.933 16.7808ZM42.8273 25.4169C42.1602 24.4064 41.8267 23.3126 41.8267 22.1458C41.8267 20.9582 42.1498 19.8644 42.8273 18.8748L40.7426 16.7913C39.5125 18.3955 38.908 20.1769 38.908 22.1667C38.908 24.1147 39.523 25.9169 40.7634 27.5421L42.8273 25.4169ZM51.5313 27.5108C50.5306 28.1775 49.4465 28.5213 48.2582 28.5421C47.049 28.5421 45.9441 28.2192 44.9434 27.5316L42.8378 29.6151C44.4639 30.8756 46.2672 31.5111 48.2582 31.4903C50.2283 31.4694 52.0108 30.8444 53.6265 29.6151L51.5313 27.5108ZM53.5744 18.8539C54.2415 19.8644 54.5855 20.9791 54.5751 22.1875C54.5542 23.3542 54.2311 24.4272 53.5744 25.4065L55.68 27.49C56.9205 25.8857 57.5563 24.1043 57.5563 22.1458C57.5772 20.1561 56.9413 18.3539 55.68 16.7288L53.5744 18.8539ZM55.7738 28.1567C56.5765 28.1567 57.254 28.8026 57.254 29.636C57.254 30.4381 56.6077 31.1152 55.7738 31.1152C54.9712 31.1152 54.2936 30.4693 54.2936 29.636C54.3041 28.813 54.9503 28.1567 55.7738 28.1567ZM40.7217 28.1567C41.5244 28.1567 42.1811 28.8026 42.1811 29.636C42.1811 30.4381 41.5348 31.1152 40.7217 31.1152C39.9087 31.1152 39.2624 30.4693 39.2624 29.636C39.2624 28.813 39.9191 28.1567 40.7217 28.1567ZM55.7947 13.1243C56.5973 13.1243 57.254 13.7702 57.254 14.6036C57.254 15.4266 56.6077 16.0829 55.7947 16.0829C54.9816 16.0829 54.3353 15.437 54.3353 14.6036C54.3458 13.7806 54.992 13.1243 55.7947 13.1243ZM40.7009 13.1243C41.5035 13.1243 42.1811 13.7702 42.1811 14.5828C42.1811 15.3849 41.5348 16.0412 40.7009 16.0412C39.8982 16.0412 39.2207 15.3953 39.2207 14.5828C39.2311 13.7806 39.8774 13.1243 40.7009 13.1243ZM68.4597 24.9169L67.7301 24.271C67.2922 24.7918 66.4062 25.094 65.6661 25.094C64.4257 25.094 63.425 24.3439 63.3103 23.1459H68.8246C69.0747 20.5624 67.5633 19.3331 65.5723 19.3331C63.623 19.3331 62.2054 20.7291 62.2054 22.6979C62.2054 24.7606 63.6022 26.0836 65.6348 26.0836C66.6564 26.0732 67.7926 25.6877 68.4597 24.9169ZM67.8239 22.2187H63.3207C63.5084 20.9791 64.4882 20.2811 65.6244 20.2811C66.8857 20.2811 67.7509 20.9478 67.8239 22.1771V22.2187ZM71.5035 16.7496H70.4298V25.9586H71.5035V16.7496ZM74.5473 19.4685H73.5466V25.9586H74.6203V22.3438C74.6203 21.1562 75.4854 20.4061 76.5383 20.3957C76.9761 20.3957 77.32 20.5103 77.664 20.7603L78.1435 19.8436C77.737 19.5415 77.2054 19.3435 76.6321 19.3644C75.8815 19.3644 75.0789 19.5936 74.6411 20.4374L74.5473 19.4685ZM78.769 22.7188C78.769 24.6877 80.1866 26.0732 82.1359 26.0732C84.0852 26.0732 85.5028 24.6981 85.5028 22.7188C85.5028 20.7082 84.106 19.3123 82.1359 19.3123C80.2075 19.3123 78.769 20.7082 78.769 22.7188ZM84.4396 22.7188C84.4187 24.073 83.4597 25.0523 82.1255 25.0523C80.8016 25.0523 79.8426 24.073 79.8426 22.7188C79.8426 21.2603 80.8225 20.3019 82.1463 20.3019C83.4389 20.3124 84.4396 21.2812 84.4396 22.7188ZM87.056 19.4477V25.9586H88.1296V22.4688C88.1296 21.302 88.9531 20.3644 90.1206 20.3436C91.361 20.3436 92.0907 21.1249 92.0907 22.375V25.9586H93.1644V22.375C93.1644 20.4582 91.9552 19.3644 90.3082 19.3644C89.443 19.3644 88.6404 19.729 88.0879 20.4895L88.0254 19.4581L87.056 19.4477ZM101.431 16.7496H100.357V20.6353C99.8982 19.7498 98.8454 19.3331 97.9281 19.3331C96.0935 19.3331 94.655 20.5207 94.655 22.6979C94.655 24.8439 96.0935 26.0628 97.949 26.0628C98.908 26.0628 99.867 25.6461 100.378 24.7398L100.44 25.9274H101.451L101.431 16.7496ZM98.0219 20.3436C99.3041 20.3436 100.326 21.302 100.326 22.6771C100.326 24.0939 99.3145 25.0523 98.0219 25.0523C96.7606 25.0523 95.7391 24.1876 95.7391 22.6979C95.7391 21.1874 96.7398 20.3644 97.9802 20.3436H98.0219Z" fill="black"/>
</svg>
