<svg width="140" height="44" viewBox="0 0 140 44" fill="none" xmlns="http://www.w3.org/2000/svg">
<rect width="139.744" height="44" rx="5.95873" fill="#FBFBFB"/>
<rect width="139.744" height="44" rx="5.95873" fill="#FBFBFB"/>
<path d="M56.3016 22.4932C56.3016 22.6169 56.1979 22.7175 56.074 22.7175H51.6893C51.7987 23.799 52.614 24.7855 53.7606 24.7855C54.5442 24.7855 55.1262 24.4864 55.5641 23.8622C55.6275 23.776 55.7225 23.7213 55.8435 23.7731C55.9098 23.8018 55.9559 23.8622 55.9674 23.9313C55.9789 24.0032 55.9588 24.0434 55.9386 24.0837C55.4978 24.8516 54.6191 25.2284 53.7578 25.2284C52.2827 25.2284 51.2312 23.9111 51.2312 22.5018C51.2312 21.0925 52.2827 19.7752 53.7578 19.7752C55.2328 19.7723 56.2987 21.0867 56.3016 22.4932ZM55.832 22.2803C55.7369 21.1989 54.9072 20.2124 53.7606 20.2124C52.614 20.2124 51.7987 21.1989 51.6893 22.2803H55.832ZM61.6226 19.8816C61.7494 19.8816 61.8416 19.9909 61.8416 20.1002C61.8416 20.2267 61.7465 20.3188 61.6226 20.3188H60.4472V24.9235C60.4472 25.0328 60.3522 25.1421 60.2283 25.1421C60.1015 25.1421 60.0093 25.0328 60.0093 24.9235V20.3188H58.88C58.7533 20.3188 58.6611 20.2239 58.6611 20.1002C58.6611 19.9909 58.7561 19.8816 58.88 19.8816H60.0093V18.1962C60.0093 18.0897 60.0814 17.992 60.1851 17.9747C60.332 17.9517 60.4472 18.0524 60.4472 18.1904V19.8816H61.6226ZM68.7932 22.1078V24.8977C68.7932 25.0242 68.6837 25.1163 68.5743 25.1163C68.4475 25.1163 68.3553 25.0213 68.3553 24.8977V22.1078C68.3553 21.1673 67.8224 20.2267 66.7708 20.2267C65.4226 20.2267 64.8406 21.4031 64.9184 22.6082C64.9184 22.6399 64.9328 22.7808 64.9328 22.7952V24.889C64.9328 24.9955 64.8608 25.0932 64.7571 25.1105C64.6101 25.1335 64.4949 25.0328 64.4949 24.8948V15.7313C64.4949 15.622 64.59 15.5127 64.7139 15.5127C64.8406 15.5127 64.9328 15.622 64.9328 15.7313V20.917C65.3102 20.244 65.9843 19.7896 66.7679 19.7896C68.0557 19.7896 68.7932 20.917 68.7932 22.1078ZM76.6552 22.4932C76.6552 22.6169 76.5515 22.7175 76.4276 22.7175H72.04C72.1495 23.799 72.9648 24.7855 74.1114 24.7855C74.895 24.7855 75.4769 24.4864 75.9148 23.8622C75.9782 23.776 76.0733 23.7213 76.1943 23.7731C76.2605 23.8018 76.3066 23.8622 76.3182 23.9313C76.3297 24.0032 76.3095 24.0434 76.2893 24.0837C75.8486 24.8516 74.9699 25.2284 74.1085 25.2284C72.6335 25.2284 71.5819 23.9111 71.5819 22.5018C71.5819 21.0925 72.6335 19.7752 74.1085 19.7752C75.5864 19.7723 76.6523 21.0867 76.6552 22.4932ZM76.1827 22.2803C76.0877 21.1989 75.258 20.2124 74.1114 20.2124C72.9648 20.2124 72.1495 21.1989 72.04 22.2803H76.1827ZM82.0368 20.0858C82.0368 20.2267 81.959 20.3044 81.8322 20.3217C80.5444 20.5086 79.9654 21.5584 79.9654 22.7808V24.8747C79.9654 24.9811 79.8934 25.0789 79.7896 25.0961C79.6427 25.1191 79.5275 25.0185 79.5275 24.8804V20.1088C79.5275 20.0024 79.5995 19.9046 79.7032 19.8874C79.8501 19.8644 79.9654 19.965 79.9654 20.1031V21.0752C80.3255 20.4655 81.0486 19.8845 81.8005 19.8845C81.91 19.8816 82.0368 19.9621 82.0368 20.0858ZM89.239 22.4932C89.239 22.6169 89.1353 22.7175 89.0114 22.7175H84.6267C84.7362 23.799 85.5515 24.7855 86.6981 24.7855C87.4817 24.7855 88.0636 24.4864 88.5015 23.8622C88.5649 23.776 88.66 23.7213 88.781 23.7731C88.8472 23.8018 88.8933 23.8622 88.9048 23.9313C88.9164 24.0032 88.8962 24.0434 88.876 24.0837C88.4353 24.8516 87.5566 25.2284 86.6952 25.2284C85.2202 25.2284 84.1686 23.9111 84.1686 22.5018C84.1686 21.0925 85.2202 19.7752 86.6952 19.7752C88.1702 19.7723 89.2361 21.0867 89.239 22.4932ZM88.7694 22.2803C88.6744 21.1989 87.8447 20.2124 86.6981 20.2124C85.5515 20.2124 84.7362 21.1989 84.6267 22.2803H88.7694ZM96.3174 20.1405V24.9235C96.3174 25.0501 96.2079 25.1421 96.0985 25.1421C95.9717 25.1421 95.8795 25.0472 95.8795 24.9235V24.0147C95.5194 24.7366 94.8741 25.2514 94.0588 25.2514C92.7566 25.2514 92.0335 24.124 92.0335 22.9332V20.129C92.0335 20.0197 92.1286 19.9104 92.2525 19.9104C92.3792 19.9104 92.4714 20.0197 92.4714 20.129V22.9332C92.4714 23.8737 93.0044 24.8143 94.0559 24.8143C95.5309 24.8143 95.8766 23.4366 95.8766 21.9151V20.129C95.8766 20.0024 96.0034 19.873 96.159 19.919C96.254 19.9506 96.3174 20.0427 96.3174 20.1405ZM107.409 22.0905V24.8948C107.409 25.0213 107.299 25.1134 107.19 25.1134C107.063 25.1134 106.971 25.0185 106.971 24.8948V22.0905C106.971 21.15 106.438 20.2267 105.387 20.2267C104.067 20.2267 103.566 21.6361 103.566 22.7319V24.8948C103.566 25.0213 103.456 25.1134 103.347 25.1134C103.22 25.1134 103.128 25.0185 103.128 24.8948V22.0905C103.128 21.15 102.595 20.2267 101.543 20.2267C100.21 20.2267 99.6593 21.2766 99.7082 22.6715C99.7082 22.7031 99.7227 22.7664 99.7082 22.7808V24.889C99.7082 24.9955 99.6362 25.0932 99.5296 25.1105C99.3827 25.1335 99.2675 25.0328 99.2675 24.8948V20.1088C99.2675 20.0024 99.3395 19.9046 99.4432 19.8874C99.5901 19.8644 99.7054 19.965 99.7054 20.1031V20.9027C100.083 20.2296 100.757 19.7896 101.541 19.7896C102.434 19.7896 103.125 20.3533 103.407 21.1845C103.767 20.3706 104.473 19.7896 105.384 19.7896C106.671 19.7896 107.409 20.8998 107.409 22.0905Z" fill="#3C3C3B"/>
<g opacity="0.6">
<path opacity="0.6" d="M39.6642 18.8951L32.3352 22.2229L39.6642 26.5458L46.9904 22.2229L39.6642 18.8951Z" fill="#010101"/>
</g>
<g opacity="0.45">
<path opacity="0.45" d="M32.3352 22.2229L39.6642 26.5458V10.0825L32.3352 22.2229Z" fill="#010101"/>
</g>
<g opacity="0.8">
<path opacity="0.8" d="M39.6643 10.0825V26.5458L46.9905 22.2229L39.6643 10.0825Z" fill="#010101"/>
</g>
<g opacity="0.45">
<path opacity="0.45" d="M32.3352 23.6091L39.6642 33.9174V27.932L32.3352 23.6091Z" fill="#010101"/>
</g>
<g opacity="0.8">
<path opacity="0.8" d="M39.6643 27.932V33.9174L46.9962 23.6091L39.6643 27.932Z" fill="#010101"/>
</g>
</svg>
