<svg width="210" height="44" viewBox="0 0 210 44" fill="none" xmlns="http://www.w3.org/2000/svg">
<rect width="210" height="44" rx="6.42789" fill="#FBFBFB"/>
<path d="M123.896 24.1051C123.699 24.1051 123.528 24.1753 123.386 24.3164C123.245 24.4577 123.173 24.6244 123.173 24.8176C123.173 25.1119 123.323 25.3409 123.622 25.5045C123.95 25.5933 124.213 25.5355 124.412 25.3342C124.555 25.192 124.625 25.0216 124.625 24.8231C124.625 24.6226 124.555 24.455 124.412 24.3165C124.269 24.1767 124.099 24.107 123.896 24.107V24.1052H123.896V24.1051ZM112.262 18.6432H111.723C111.49 18.6432 111.3 18.8295 111.3 19.0614V19.3602C110.726 18.7676 110.076 18.471 109.349 18.471C108.511 18.471 107.811 18.7807 107.253 19.3985C106.694 20.0162 106.415 20.7888 106.415 21.7153C106.415 22.6578 106.694 23.4464 107.252 24.0768C107.816 24.6949 108.527 25.0033 109.389 25.0033C110.07 25.0033 110.707 24.7273 111.3 24.1765V24.7674C111.3 25.0543 111.535 25.2876 111.824 25.2876H112.745V19.122C112.745 18.8582 112.529 18.6432 112.262 18.6432H112.262ZM110.898 23.1808C110.569 23.5449 110.14 23.7266 109.606 23.7266C109.107 23.7266 108.693 23.5394 108.365 23.1622C108.045 22.7909 107.886 22.3071 107.886 21.7145C107.886 21.1606 108.05 20.6941 108.378 20.3179C108.71 19.9452 109.124 19.7603 109.619 19.7603C110.143 19.7603 110.569 19.9443 110.897 20.3142C111.226 20.6905 111.39 21.1679 111.39 21.7474C111.39 22.3272 111.226 22.8051 110.897 23.1818H110.898V23.1808H110.898ZM106.415 19.6869V19.076C106.415 18.8364 106.22 18.6441 105.979 18.6441H105.411C105.171 18.6441 104.976 18.8355 104.976 19.0751V19.3411C104.456 18.7616 103.803 18.471 103.019 18.471C102.123 18.471 101.402 18.8067 100.857 19.4741C100.349 20.1037 100.095 20.8699 100.095 21.7719C100.095 22.698 100.369 23.4715 100.915 24.0887C101.457 24.6996 102.151 25.0026 103 25.0026C103.745 25.0026 104.404 24.7138 104.976 24.1338V24.9971C104.976 26.2799 104.449 26.9213 103.397 26.9213C102.825 26.9213 102.391 26.7282 102.092 26.3428C102.016 26.2453 101.953 26.1241 101.903 25.9779C101.832 25.7733 101.636 25.6376 101.42 25.6376H100.875C100.6 25.6376 100.395 25.8972 100.465 26.1615C100.614 26.7245 100.902 27.1819 101.33 27.5353C101.868 27.9799 102.553 28.2023 103.383 28.2023C104.368 28.2023 105.142 27.8806 105.705 27.2383C106.004 26.904 106.203 26.504 106.306 26.0384C106.34 25.8708 106.367 25.6736 106.386 25.4508C106.405 25.2294 106.414 24.9725 106.414 24.68V23.7816C106.011 23.2058 105.809 22.5175 105.809 21.7153C105.809 20.9268 106.011 20.253 106.414 19.6868H106.414L106.415 19.6869ZM104.592 23.1321C104.272 23.5289 103.838 23.7266 103.287 23.7266C102.737 23.7266 102.307 23.5307 101.995 23.1357C101.71 22.7768 101.567 22.3148 101.567 21.7527C101.567 21.1806 101.71 20.715 101.995 20.3561C102.311 19.9547 102.741 19.7539 103.287 19.7539C103.799 19.7539 104.219 19.9379 104.547 20.3055C104.871 20.665 105.034 21.1452 105.034 21.7469C105.034 22.3095 104.886 22.7704 104.592 23.1313V23.1322L104.592 23.1321ZM118.377 18.6478V18.6432H115.392V16.8292C115.392 16.596 115.202 16.4074 114.967 16.4074H114.384C114.147 16.4074 113.954 16.5988 113.954 16.8347V18.6432H113.339V19.9747H113.953V25.2868H114.774C115.116 25.2868 115.392 25.0134 115.392 24.6736V19.9757H116.867C116.984 19.7548 117.125 19.5511 117.293 19.3648C117.598 19.0331 117.96 18.7944 118.376 18.6478H118.377L118.377 18.6478ZM125.72 16.4074C125.464 16.4074 125.245 16.499 125.061 16.6817C124.879 16.8634 124.786 17.0798 124.786 17.329C124.786 17.5919 124.878 17.8123 125.061 17.9959C125.245 18.1777 125.467 18.2683 125.727 18.2683C125.987 18.2683 126.207 18.1777 126.384 17.995C126.568 17.8114 126.661 17.5937 126.661 17.3349C126.661 17.0772 126.569 16.8585 126.385 16.6817C126.2 16.4981 125.978 16.4066 125.719 16.4066L125.72 16.4075V16.4074ZM126.011 19.3438H125.489C125.222 19.3438 125.004 19.558 125.004 19.8258V24.3593C125.114 24.4878 125.167 24.6395 125.167 24.8144C125.167 24.9894 125.115 25.1424 125.004 25.2714V25.5265H125.93C126.213 25.5265 126.443 25.2978 126.443 25.0162V19.7703C126.443 19.5343 126.249 19.343 126.011 19.343L126.011 19.3439L126.011 19.3438ZM132.774 20.2185C132.126 19.5889 131.337 19.2737 130.408 19.2737C129.482 19.2737 128.697 19.5862 128.054 20.214C127.411 20.8389 127.088 21.5988 127.088 22.4916C127.088 23.4387 127.403 24.2272 128.035 24.8536C128.666 25.4882 129.449 25.8052 130.382 25.8052C131.324 25.8052 132.119 25.4945 132.767 24.8723C133.409 24.2445 133.733 23.4697 133.733 22.5427C133.733 21.6239 133.413 20.8494 132.774 20.2185V20.2185ZM131.756 23.9894C131.42 24.3498 130.97 24.5279 130.407 24.5279C129.848 24.5279 129.399 24.347 129.057 23.9821C128.725 23.6232 128.558 23.133 128.558 22.5162C128.558 21.9413 128.73 21.4712 129.07 21.1077C129.412 20.7433 129.857 20.5615 130.408 20.5615C130.965 20.5615 131.416 20.7433 131.756 21.1077C132.093 21.4667 132.262 21.9468 132.262 22.5472C132.262 23.1495 132.092 23.6291 131.756 23.9885V23.9904V23.9894H131.756Z" fill="#DE5959"/>
<path d="M118.913 23.7399C118.616 23.442 118.451 23.0356 118.413 22.5273H122.537C122.725 22.5273 122.88 22.3779 122.883 22.1915C122.883 21.1698 122.619 20.3744 122.09 19.7985C121.557 19.2187 120.831 18.929 119.915 18.929C119.008 18.929 118.279 19.2273 117.729 19.8241C117.183 20.4299 116.91 21.2203 116.91 22.1983C116.91 23.1836 117.192 23.9754 117.754 24.5717C118.146 24.9866 118.628 25.255 119.199 25.3798C119.439 25.4358 119.687 25.4654 119.938 25.4618C120.963 25.4828 121.854 25.5037 122.879 25.5247L122.88 25.3753C122.755 25.24 122.692 25.0765 122.692 24.887C122.692 24.702 122.758 24.543 122.886 24.4055L122.887 24.2246C122.079 24.2046 120.12 24.1854 120.042 24.1854C119.583 24.1854 119.206 24.0383 118.913 23.7409V23.7399L118.913 23.7399ZM118.713 20.8846C118.803 20.7442 118.91 20.6258 119.036 20.5265C119.164 20.4254 119.301 20.3507 119.455 20.2979C119.609 20.245 119.773 20.2186 119.949 20.2186C120.715 20.2186 121.2 20.5985 121.402 21.3602H118.509C118.556 21.1825 118.624 21.024 118.713 20.8837V20.8846H118.713Z" fill="#DE5959"/>
<path d="M79.6866 21.7951L79.4614 21.5685C79.2909 21.3982 78.998 21.5188 78.998 21.7602V24.997C78.998 25.1465 79.1207 25.2682 79.2706 25.2682H82.5085C82.7499 25.2682 82.8714 24.9758 82.6998 24.8058C82.5939 24.6999 82.5939 24.5285 82.6998 24.4229L86.1436 20.9688C86.2497 20.8635 86.2497 20.6922 86.1436 20.5858L85.8299 20.2733C85.6594 20.103 85.7809 19.8106 86.0216 19.8106H89.2576C89.4072 19.8106 89.5296 19.9321 89.5296 20.0817V23.3182C89.5296 23.5596 89.2362 23.6805 89.0653 23.51L88.8472 23.292C88.7407 23.1831 88.5693 23.1831 88.465 23.292L82.6587 29.095C82.5533 29.2006 82.3822 29.2006 82.2754 29.095L75.1718 21.9919C75.065 21.8852 75.065 21.7135 75.1718 21.6075L85.0056 11.7749C85.1112 11.669 85.1112 11.4963 85.0056 11.391L82.6933 9.07904C82.5874 8.97365 82.416 8.97365 82.3097 9.07904L69.579 21.809C69.4737 21.9149 69.4737 22.0876 69.579 22.193L82.3084 34.9211C82.4142 35.0263 82.587 35.0263 82.6924 34.9211L95.4211 22.193C95.5263 22.0871 95.5263 21.9153 95.4211 21.8099L87.9323 14.3216C87.8276 14.2163 87.6553 14.2163 87.5492 14.3216L80.0719 21.7952C79.9651 21.902 79.7933 21.902 79.6866 21.7952V21.7951Z" fill="#DE5959"/>
</svg>
