<svg width="139" height="44" viewBox="0 0 139 44" fill="none" xmlns="http://www.w3.org/2000/svg">
<rect width="138.667" height="44" rx="6.42789" fill="#FBFBFB"/>
<path d="M88.2294 24.1051C88.032 24.1051 87.8617 24.1753 87.719 24.3164C87.5781 24.4577 87.5061 24.6244 87.5061 24.8176C87.5061 25.1119 87.6566 25.3409 87.9554 25.5045C88.2831 25.5933 88.5466 25.5355 88.7449 25.3342C88.8885 25.192 88.9587 25.0216 88.9587 24.8231C88.9587 24.6226 88.8885 24.455 88.7449 24.3165C88.6026 24.1767 88.4318 24.107 88.2289 24.107V24.1052H88.2294V24.1051ZM76.5955 18.6432H76.0559C75.8228 18.6432 75.6329 18.8295 75.6329 19.0614V19.3602C75.0595 18.7676 74.4091 18.471 73.6825 18.471C72.8444 18.471 72.1447 18.7807 71.5863 19.3985C71.0269 20.0162 70.7487 20.7888 70.7487 21.7153C70.7487 22.6578 71.0273 23.4464 71.5852 24.0768C72.1493 24.6949 72.8605 25.0033 73.722 25.0033C74.4034 25.0033 75.0407 24.7273 75.6335 24.1765V24.7674C75.6335 25.0543 75.8685 25.2876 76.1569 25.2876H77.0781V19.122C77.0781 18.8582 76.8619 18.6432 76.5955 18.6432H76.5955ZM75.2316 23.1808C74.9026 23.5449 74.4729 23.7266 73.9391 23.7266C73.4399 23.7266 73.026 23.5394 72.6983 23.1622C72.3786 22.7909 72.2189 22.3071 72.2189 21.7145C72.2189 21.1606 72.3834 20.6941 72.711 20.3179C73.0432 19.9452 73.457 19.7603 73.9518 19.7603C74.4764 19.7603 74.9021 19.9443 75.2303 20.3142C75.5591 20.6905 75.7237 21.1679 75.7237 21.7474C75.7237 22.3272 75.5592 22.8051 75.2303 23.1818H75.2317V23.1808H75.2316ZM70.7478 19.6869V19.076C70.7478 18.8364 70.5532 18.6441 70.3126 18.6441H69.7438C69.5041 18.6441 69.3091 18.8355 69.3091 19.0751V19.3411C68.7888 18.7616 68.1364 18.471 67.352 18.471C66.4567 18.471 65.7352 18.8067 65.1899 19.4741C64.6823 20.1037 64.4287 20.8699 64.4287 21.7719C64.4287 22.698 64.702 23.4715 65.2483 24.0887C65.7898 24.6996 66.4845 25.0026 67.3332 25.0026C68.0785 25.0026 68.7376 24.7138 69.3091 24.1338V24.9971C69.3091 26.2799 68.7826 26.9213 67.7298 26.9213C67.1582 26.9213 66.7241 26.7282 66.4257 26.3428C66.3496 26.2453 66.2864 26.1241 66.2361 25.9779C66.1656 25.7733 65.9697 25.6376 65.753 25.6376H65.2078C64.9328 25.6376 64.7284 25.8972 64.7978 26.1615C64.947 26.7245 65.235 27.1819 65.6637 27.5353C66.201 27.9799 66.8858 28.2023 67.7166 28.2023C68.7013 28.2023 69.4754 27.8806 70.0386 27.2383C70.3369 26.904 70.5366 26.504 70.6391 26.0384C70.6734 25.8708 70.7003 25.6736 70.719 25.4508C70.7379 25.2294 70.7472 24.9725 70.7472 24.68V23.7816C70.3445 23.2058 70.1419 22.5175 70.1419 21.7153C70.1419 20.9268 70.344 20.253 70.7472 19.6868H70.7477L70.7478 19.6869ZM68.9251 23.1321C68.6055 23.5289 68.1712 23.7266 67.6205 23.7266C67.0704 23.7266 66.6399 23.5307 66.328 23.1357C66.043 22.7768 65.9002 22.3148 65.9002 21.7527C65.9002 21.1806 66.0429 20.715 66.328 20.3561C66.6443 19.9547 67.0743 19.7539 67.6205 19.7539C68.1318 19.7539 68.552 19.9379 68.8799 20.3055C69.2041 20.665 69.3669 21.1452 69.3669 21.7469C69.3669 22.3095 69.2193 22.7704 68.9251 23.1313V23.1322L68.9251 23.1321ZM82.7101 18.6478V18.6432H79.7257V16.8292C79.7257 16.596 79.5357 16.4074 79.3003 16.4074H78.7176C78.4803 16.4074 78.2875 16.5988 78.2875 16.8347V18.6432H77.6727V19.9747H78.2867V25.2868H79.1073C79.4494 25.2868 79.7249 25.0134 79.7249 24.6736V19.9757H81.2005C81.317 19.7548 81.4582 19.5511 81.626 19.3648C81.9317 19.0331 82.2934 18.7944 82.7092 18.6478H82.7102L82.7101 18.6478ZM90.0529 16.4074C89.7977 16.4074 89.5783 16.499 89.3947 16.6817C89.212 16.8634 89.1193 17.0798 89.1193 17.329C89.1193 17.5919 89.2111 17.8123 89.3947 17.9959C89.5783 18.1777 89.8004 18.2683 90.0602 18.2683C90.3204 18.2683 90.5398 18.1777 90.7175 17.995C90.901 17.8114 90.9938 17.5937 90.9938 17.3349C90.9938 17.0772 90.902 16.8585 90.7179 16.6817C90.5334 16.4981 90.3117 16.4066 90.0519 16.4066L90.0529 16.4075V16.4074ZM90.3444 19.3438H89.8224C89.5549 19.3438 89.3368 19.558 89.3368 19.8258V24.3593C89.447 24.4878 89.4998 24.6395 89.4998 24.8144C89.4998 24.9894 89.4479 25.1424 89.3368 25.2714V25.5265H90.2631C90.5467 25.5265 90.7763 25.2978 90.7763 25.0162V19.7703C90.7763 19.5343 90.5826 19.343 90.3439 19.343L90.3443 19.3439L90.3444 19.3438ZM97.1074 20.2185C96.4593 19.5889 95.6704 19.2737 94.7409 19.2737C93.8156 19.2737 93.0307 19.5862 92.3872 20.214C91.7438 20.8389 91.4215 21.5988 91.4215 22.4916C91.4215 23.4387 91.7364 24.2272 92.368 24.8536C92.9995 25.4882 93.7826 25.8052 94.7151 25.8052C95.657 25.8052 96.452 25.4945 97.1005 24.8723C97.7426 24.2445 98.0658 23.4697 98.0658 22.5427C98.0658 21.6239 97.7464 20.8494 97.1074 20.2185V20.2185ZM96.0894 23.9894C95.7535 24.3498 95.3036 24.5279 94.74 24.5279C94.1809 24.5279 93.7321 24.347 93.3906 23.9821C93.0583 23.6232 92.8912 23.133 92.8912 22.5162C92.8912 21.9413 93.0629 21.4712 93.4034 21.1077C93.7449 20.7433 94.1901 20.5615 94.7409 20.5615C95.2985 20.5615 95.7488 20.7433 96.0893 21.1077C96.4263 21.4667 96.5952 21.9468 96.5952 22.5472C96.5952 23.1495 96.4254 23.6291 96.0894 23.9885V23.9904V23.9894H96.0894Z" fill="#DE5959"/>
<path d="M83.2462 23.7399C82.9496 23.442 82.784 23.0356 82.7459 22.5273H86.8703C87.0585 22.5273 87.2136 22.3779 87.2164 22.1915C87.2164 21.1698 86.952 20.3744 86.4237 19.7985C85.8899 19.2187 85.1638 18.929 84.2485 18.929C83.3416 18.929 82.6119 19.2273 82.062 19.8241C81.5161 20.4299 81.2434 21.2203 81.2434 22.1983C81.2434 23.1836 81.5255 23.9754 82.0868 24.5717C82.4797 24.9866 82.9612 25.255 83.5326 25.3798C83.7722 25.4358 84.0205 25.4654 84.2716 25.4618C85.2961 25.4828 86.1874 25.5037 87.2119 25.5247L87.2137 25.3753C87.0884 25.24 87.0255 25.0765 87.0255 24.887C87.0255 24.702 87.0912 24.543 87.2192 24.4055L87.2201 24.2246C86.4123 24.2046 84.4534 24.1854 84.3754 24.1854C83.9164 24.1854 83.5391 24.0383 83.2463 23.7409V23.7399L83.2462 23.7399ZM83.046 20.8846C83.1365 20.7442 83.2434 20.6258 83.3696 20.5265C83.4968 20.4254 83.6345 20.3507 83.7887 20.2979C83.942 20.245 84.1063 20.2186 84.2826 20.2186C85.0482 20.2186 85.5329 20.5985 85.7348 21.3602H82.8418C82.8891 21.1825 82.957 21.024 83.0461 20.8837V20.8846H83.046Z" fill="#DE5959"/>
<path d="M44.0198 21.7951L43.7946 21.5685C43.6242 21.3982 43.3313 21.5188 43.3313 21.7602V24.997C43.3313 25.1465 43.4539 25.2682 43.6038 25.2682H46.8417C47.0832 25.2682 47.2047 24.9758 47.033 24.8058C46.9272 24.6999 46.9272 24.5285 47.033 24.4229L50.4769 20.9688C50.583 20.8635 50.583 20.6922 50.4769 20.5858L50.1631 20.2733C49.9926 20.103 50.1141 19.8106 50.3549 19.8106H53.5908C53.7405 19.8106 53.8629 19.9321 53.8629 20.0817V23.3182C53.8629 23.5596 53.5695 23.6805 53.3986 23.51L53.1805 23.292C53.0739 23.1831 52.9026 23.1831 52.7983 23.292L46.992 29.095C46.8866 29.2006 46.7154 29.2006 46.6087 29.095L39.505 21.9919C39.3983 21.8852 39.3983 21.7135 39.505 21.6075L49.3389 11.7749C49.4445 11.669 49.4445 11.4963 49.3389 11.391L47.0265 9.07904C46.9207 8.97365 46.7492 8.97365 46.6429 9.07904L33.9123 21.809C33.8069 21.9149 33.8069 22.0876 33.9123 22.193L46.6416 34.9211C46.7475 35.0263 46.9203 35.0263 47.0257 34.9211L59.7543 22.193C59.8596 22.0871 59.8596 21.9153 59.7543 21.8099L52.2656 14.3216C52.1608 14.2163 51.9885 14.2163 51.8824 14.3216L44.4052 21.7952C44.2984 21.902 44.1266 21.902 44.0198 21.7952V21.7951Z" fill="#DE5959"/>
</svg>
