<svg width="140" height="44" viewBox="0 0 140 44" fill="none" xmlns="http://www.w3.org/2000/svg">
<g clip-path="url(#clip0_2639_6144)">
<path d="M106.263 22.0869C105.741 21.7393 105.162 21.5075 104.64 21.2177C104.293 21.0439 103.945 20.8701 103.597 20.5803C103.076 20.1747 103.192 19.3055 103.713 18.9578C104.466 18.4363 105.741 18.726 105.915 19.7691C105.915 19.7691 105.915 19.827 105.973 19.827H107.132C107.19 19.827 107.19 19.827 107.19 19.7691C107.132 19.0737 106.842 18.4363 106.321 18.0886C105.857 17.7409 105.278 17.5092 104.698 17.5092C101.627 17.5092 101.337 20.7542 103.018 21.7393C103.192 21.8552 104.814 22.6664 105.394 23.0141C105.973 23.3618 106.147 23.9992 105.915 24.5207C105.683 24.9843 105.104 25.3319 104.524 25.274C103.887 25.2161 103.365 24.8684 103.192 24.3469C103.134 24.231 103.134 24.0571 103.134 23.9992C103.134 23.9992 103.134 23.9412 103.076 23.9412H101.801C101.801 23.9412 101.743 23.9412 101.743 23.9992C101.743 24.9263 101.975 25.3899 102.612 25.8535C103.192 26.317 103.829 26.4909 104.466 26.4909C106.205 26.4909 107.074 25.5058 107.248 24.5207C107.422 23.5356 107.132 22.6664 106.263 22.0869Z" fill="#161616"/>
<path d="M51.6769 17.6829H51.0974H50.46C50.46 17.6829 50.4021 17.6829 50.4021 17.7409L49.359 21.1597C49.359 21.2177 49.3011 21.2177 49.2431 21.1597L48.2001 17.7409C48.2001 17.7409 48.2001 17.6829 48.1421 17.6829H47.5047H46.9253H46.3458C46.3458 17.6829 46.2878 17.6829 46.2878 17.7409V26.4329C46.2878 26.4329 46.2878 26.4908 46.3458 26.4908H47.6206C47.6206 26.4908 47.6786 26.4908 47.6786 26.4329V19.769C47.6786 19.7111 47.7365 19.7111 47.7945 19.769L48.8375 23.1879L48.8954 23.4197C48.8954 23.4197 48.8954 23.4776 48.9534 23.4776H49.9385C49.9385 23.4776 49.9964 23.4776 49.9964 23.4197L50.0544 23.1879L51.0974 19.769C51.0974 19.7111 51.2133 19.7111 51.2133 19.769V26.3749C51.2133 26.3749 51.2133 26.4329 51.2712 26.4329H52.5461C52.5461 26.4329 52.604 26.4329 52.604 26.3749V17.6829C52.604 17.6829 52.604 17.625 52.5461 17.625H51.6769V17.6829Z" fill="#161616"/>
<path d="M87.0243 17.6829C86.9663 17.6829 86.9663 17.6829 87.0243 17.6829L85.9233 21.1018C85.9233 21.1597 85.8654 21.1597 85.8074 21.1018L84.7644 17.6829C84.7644 17.6829 84.7644 17.625 84.7064 17.625H82.8521C82.8521 17.625 82.7942 17.625 82.7942 17.6829V26.3749C82.7942 26.3749 82.7942 26.4329 82.8521 26.4329H84.127C84.127 26.4329 84.1849 26.4329 84.1849 26.3749V19.769C84.1849 19.7111 84.2429 19.7111 84.3008 19.769L85.3438 23.1879L85.4018 23.4197C85.4018 23.4197 85.4018 23.4776 85.4597 23.4776H86.4448C86.4448 23.4776 86.5028 23.4776 86.5028 23.4197L86.5607 23.1879L87.6038 19.769C87.6038 19.7111 87.7197 19.7111 87.7197 19.769V26.3749C87.7197 26.3749 87.7196 26.4329 87.7776 26.4329H89.0524C89.0524 26.4329 89.1104 26.4329 89.1104 26.3749V17.6829C89.1104 17.6829 89.1104 17.625 89.0524 17.625H87.0243V17.6829Z" fill="#161616"/>
<path d="M70.7993 17.683H68.4814H67.2066H64.8888C64.8888 17.683 64.8308 17.683 64.8308 17.7409V18.8419C64.8308 18.8419 64.8308 18.8999 64.8888 18.8999H67.2066V26.4329C67.2066 26.4329 67.2066 26.4909 67.2646 26.4909H68.5394C68.5394 26.4909 68.5973 26.4909 68.5973 26.4329V18.8999H70.9152C70.9152 18.8999 70.9731 18.8999 70.9731 18.8419L70.7993 17.683C70.8573 17.683 70.7993 17.683 70.7993 17.683Z" fill="#161616"/>
<path d="M78.2166 26.4329H79.3755C79.4335 26.4329 79.4335 26.3749 79.4335 26.3749L77.0577 17.6829C77.0577 17.6829 77.0577 17.625 76.9997 17.625H76.5361H75.7828H75.3193C75.3193 17.625 75.2613 17.625 75.2613 17.6829L72.8855 26.3749C72.8855 26.4329 72.8855 26.4329 72.9434 26.4329H74.1024C74.1024 26.4329 74.1603 26.4329 74.1603 26.3749L74.8557 23.8253C74.8557 23.8253 74.8557 23.7673 74.9136 23.7673H77.4633C77.4633 23.7673 77.5212 23.7673 77.5212 23.8253L78.2166 26.4329C78.1586 26.4329 78.1586 26.4329 78.2166 26.4329ZM75.2034 22.6084L76.1305 19.2475C76.1305 19.1896 76.1885 19.1896 76.2464 19.2475L77.1735 22.6084C77.1735 22.6664 77.1735 22.6664 77.1156 22.6664H75.2613C75.2034 22.6664 75.2034 22.6084 75.2034 22.6084Z" fill="#161616"/>
<path d="M97.6866 26.4329H98.8455C98.9034 26.4329 98.9034 26.3749 98.9034 26.3749L96.5276 17.6829C96.5276 17.6829 96.5276 17.625 96.4697 17.625H96.0061H95.2528H94.7892C94.7892 17.625 94.7313 17.625 94.7313 17.6829L92.3555 26.3749C92.3555 26.4329 92.3555 26.4329 92.4134 26.4329H93.5723C93.5723 26.4329 93.6303 26.4329 93.6303 26.3749L94.3257 23.8253C94.3257 23.8253 94.3257 23.7673 94.3836 23.7673H96.9333C96.9333 23.7673 96.9912 23.7673 96.9912 23.8253L97.6866 26.4329ZM94.7313 22.6084L95.6584 19.2475C95.6584 19.1896 95.7164 19.1896 95.7743 19.2475L96.7015 22.6084C96.7015 22.6664 96.7015 22.6664 96.6435 22.6664H94.7892C94.7313 22.6664 94.7313 22.6084 94.7313 22.6084Z" fill="#161616"/>
<path d="M57.5295 25.1581V22.4926C57.5295 22.4926 57.5295 22.4346 57.5875 22.4346H60.9484C60.9484 22.4346 61.0063 22.4346 61.0063 22.3767V21.2757C61.0063 21.2757 61.0063 21.2177 60.9484 21.2177H57.5875C57.5875 21.2177 57.5295 21.2177 57.5295 21.1598V18.8419C57.5295 18.8419 57.5295 18.784 57.5875 18.784H61.412C61.412 18.784 61.4699 18.784 61.4699 18.726V17.7409C61.4699 17.7409 61.4699 17.683 61.412 17.683H57.5295H56.2547C56.2547 17.683 56.1968 17.683 56.1968 17.7409V18.8419V21.2177V22.3767V25.1581V26.317C56.1968 26.317 56.1968 26.375 56.2547 26.375H57.5295H61.5279C61.5279 26.375 61.5858 26.375 61.5858 26.317V25.1581C61.5858 25.1581 61.5858 25.1001 61.5279 25.1001L57.5295 25.1581C57.5875 25.1581 57.5295 25.1581 57.5295 25.1581Z" fill="#161616"/>
<path d="M117.736 26.375L113.39 21.9131V21.8551L117.331 17.7989C117.389 17.7409 117.331 17.7409 117.273 17.7409H115.65C115.65 17.7409 115.65 17.7409 115.592 17.7409L112.289 21.1598C112.231 21.2177 112.231 21.1598 112.231 21.1018V17.7409C112.231 17.7409 112.231 17.683 112.173 17.683H110.899C110.899 17.683 110.841 17.683 110.841 17.7409V26.4329C110.841 26.4329 110.841 26.4909 110.899 26.4909H112.173C112.173 26.4909 112.231 26.4909 112.231 26.4329V22.6084C112.231 22.5505 112.289 22.5505 112.289 22.5505L116.056 26.4329C116.056 26.4329 116.056 26.4329 116.114 26.4329H117.736C117.736 26.4329 117.794 26.375 117.736 26.375Z" fill="#161616"/>
<path d="M40.6092 12.9894L32.9602 18.6102L34.3509 15.3072L40.6092 12.9894Z" fill="#E17726" stroke="#E17726" stroke-width="0.144866" stroke-linecap="round" stroke-linejoin="round"/>
<path d="M23.0513 12.9894L30.5843 18.6681L29.2516 15.3072L23.0513 12.9894Z" fill="#E27625" stroke="#E27625" stroke-width="0.144866" stroke-linecap="round" stroke-linejoin="round"/>
<path d="M37.8856 26.0852L35.8574 29.1564L40.2034 30.3733L41.4203 26.1432L37.8856 26.0852Z" fill="#E27625" stroke="#E27625" stroke-width="0.144866" stroke-linecap="round" stroke-linejoin="round"/>
<path d="M22.24 26.1432L23.4569 30.3733L27.8029 29.1564L25.7747 26.0852L22.24 26.1432Z" fill="#E27625" stroke="#E27625" stroke-width="0.144866" stroke-linecap="round" stroke-linejoin="round"/>
<path d="M27.5711 20.8122L26.3542 22.6085L30.6423 22.7823L30.5264 18.1466L27.5711 20.8122Z" fill="#E27625" stroke="#E27625" stroke-width="0.144866" stroke-linecap="round" stroke-linejoin="round"/>
<path d="M36.0893 20.8122L33.0761 18.1466L32.9602 22.8403L37.2483 22.6664L36.0893 20.8122Z" fill="#E27625" stroke="#E27625" stroke-width="0.144866" stroke-linecap="round" stroke-linejoin="round"/>
<path d="M27.803 29.1565L30.4106 27.8817L28.1507 26.1433L27.803 29.1565Z" fill="#E27625" stroke="#E27625" stroke-width="0.144866" stroke-linecap="round" stroke-linejoin="round"/>
<path d="M33.25 27.8817L35.8576 29.1565L35.5099 26.1433L33.25 27.8817Z" fill="#E27625" stroke="#E27625" stroke-width="0.144866" stroke-linecap="round" stroke-linejoin="round"/>
<path d="M35.8576 29.1564L33.25 27.8816L33.4818 29.562V30.2574L35.8576 29.1564Z" fill="#D5BFB2" stroke="#D5BFB2" stroke-width="0.144866" stroke-linecap="round" stroke-linejoin="round"/>
<path d="M27.803 29.1565L30.2367 30.3154V29.62L30.4685 27.9396L27.803 29.1565Z" fill="#D5BFB2" stroke="#D5BFB2" stroke-width="0.144866" stroke-linecap="round" stroke-linejoin="round"/>
<path d="M30.2368 25.0422L28.0928 24.4048L29.5994 23.7095L30.2368 25.0422Z" fill="#233447" stroke="#233447" stroke-width="0.144866" stroke-linecap="round" stroke-linejoin="round"/>
<path d="M33.366 25.0422L34.0034 23.7095L35.51 24.4048L33.366 25.0422Z" fill="#233447" stroke="#233447" stroke-width="0.144866" stroke-linecap="round" stroke-linejoin="round"/>
<path d="M27.803 29.1564L28.1507 26.0852L25.7749 26.1432L27.803 29.1564Z" fill="#CC6228" stroke="#CC6228" stroke-width="0.144866" stroke-linecap="round" stroke-linejoin="round"/>
<path d="M35.4519 26.0852L35.7996 29.1564L37.8277 26.1432L35.4519 26.0852Z" fill="#CC6228" stroke="#CC6228" stroke-width="0.144866" stroke-linecap="round" stroke-linejoin="round"/>
<path d="M37.3061 22.6665L33.0181 22.8403L33.4237 25.0423L34.0611 23.7095L35.5677 24.4049L37.3061 22.6665Z" fill="#CC6228" stroke="#CC6228" stroke-width="0.144866" stroke-linecap="round" stroke-linejoin="round"/>
<path d="M28.0926 24.4049L29.5993 23.7095L30.2367 25.0423L30.6423 22.8403L26.3542 22.6665L28.0926 24.4049Z" fill="#CC6228" stroke="#CC6228" stroke-width="0.144866" stroke-linecap="round" stroke-linejoin="round"/>
<path d="M26.3542 22.6665L28.1506 26.2012L28.0926 24.4628L26.3542 22.6665Z" fill="#E27525" stroke="#E27525" stroke-width="0.144866" stroke-linecap="round" stroke-linejoin="round"/>
<path d="M35.5677 24.4047L35.5098 26.1431L37.3061 22.6084L35.5677 24.4047Z" fill="#E27525" stroke="#E27525" stroke-width="0.144866" stroke-linecap="round" stroke-linejoin="round"/>
<path d="M30.6422 22.8402L30.2366 25.0422L30.7581 27.6498L30.874 24.2309L30.6422 22.8402Z" fill="#E27525" stroke="#E27525" stroke-width="0.144866" stroke-linecap="round" stroke-linejoin="round"/>
<path d="M32.9603 22.8402L32.7285 24.2309L32.8444 27.6498L33.3659 25.0422L32.9603 22.8402Z" fill="#E27525" stroke="#E27525" stroke-width="0.144866" stroke-linecap="round" stroke-linejoin="round"/>
<path d="M33.3658 25.0423L32.8442 27.6499L33.1919 27.8817L35.4518 26.1433L35.5098 24.4049L33.3658 25.0423Z" fill="#F5841F" stroke="#F5841F" stroke-width="0.144866" stroke-linecap="round" stroke-linejoin="round"/>
<path d="M28.0928 24.4049L28.1507 26.1433L30.4106 27.8817L30.7583 27.6499L30.2368 25.0423L28.0928 24.4049Z" fill="#F5841F" stroke="#F5841F" stroke-width="0.144866" stroke-linecap="round" stroke-linejoin="round"/>
<path d="M33.4238 30.3154V29.6201L33.25 29.4462H30.3526L30.1788 29.6201V30.3154L27.803 29.1565L28.6722 29.8519L30.3526 31.0108H33.3079L35.0463 29.8519L35.8576 29.1565L33.4238 30.3154Z" fill="#C0AC9D" stroke="#C0AC9D" stroke-width="0.144866" stroke-linecap="round" stroke-linejoin="round"/>
<path d="M33.2499 27.8817L32.9022 27.6499H30.7582L30.4105 27.8817L30.1787 29.5621L30.3526 29.3883H33.2499L33.4237 29.5621L33.2499 27.8817Z" fill="#161616" stroke="#161616" stroke-width="0.144866" stroke-linecap="round" stroke-linejoin="round"/>
<path d="M40.899 19.0158L41.5364 15.8867L40.5513 12.9894L33.25 18.4364L36.0894 20.8122L40.0877 21.9711L40.9569 20.9281L40.5513 20.6963L41.1887 20.1168L40.7251 19.7691L41.3625 19.3056L40.899 19.0158Z" fill="#763E1A" stroke="#763E1A" stroke-width="0.144866" stroke-linecap="round" stroke-linejoin="round"/>
<path d="M22.0664 15.8867L22.7038 19.0158L22.2982 19.3056L22.9356 19.7691L22.472 20.1168L23.1094 20.6963L22.7038 20.986L23.573 22.029L27.5713 20.8701L30.4107 18.4943L23.0515 12.9894L22.0664 15.8867Z" fill="#763E1A" stroke="#763E1A" stroke-width="0.144866" stroke-linecap="round" stroke-linejoin="round"/>
<path d="M40.0875 21.9711L36.0892 20.8121L37.3061 22.6085L35.5098 26.1432L37.8856 26.0853H41.4203L40.0875 21.9711Z" fill="#F5841F" stroke="#F5841F" stroke-width="0.144866" stroke-linecap="round" stroke-linejoin="round"/>
<path d="M27.5711 20.8121L23.5728 21.9711L22.24 26.0853H25.7747L28.1505 26.1432L26.3542 22.6085L27.5711 20.8121Z" fill="#F5841F" stroke="#F5841F" stroke-width="0.144866" stroke-linecap="round" stroke-linejoin="round"/>
<path d="M32.9601 22.8403L33.1919 18.4364L34.3509 15.3073H29.1936L30.3525 18.4364L30.5843 22.8403L30.7002 24.231V27.6499H32.8442V24.231L32.9601 22.8403Z" fill="#F5841F" stroke="#F5841F" stroke-width="0.144866" stroke-linecap="round" stroke-linejoin="round"/>
</g>
<defs>
<clipPath id="clip0_2639_6144">
<rect width="95.7278" height="18.1373" fill="white" transform="translate(22.0083 12.9314)"/>
</clipPath>
</defs>
</svg>
