<svg width="140" height="44" viewBox="0 0 140 44" fill="none" xmlns="http://www.w3.org/2000/svg">
<rect x="0.666748" width="138.667" height="44" rx="6.42789" fill="#FBFBFB"/>
<path d="M66.2023 19.461C66.2029 19.2812 66.1678 19.1031 66.099 18.9369C66.0302 18.7707 65.9292 18.6198 65.8016 18.4928C65.6739 18.3658 65.5224 18.2652 65.3556 18.197C65.1887 18.1287 65.01 18.094 64.8297 18.095H56.6366C56.273 18.095 55.9243 18.2388 55.667 18.4949C55.4097 18.7511 55.2648 19.0985 55.2642 19.461V24.9081C55.2642 25.271 55.4088 25.6191 55.6661 25.8757C55.9235 26.1324 56.2726 26.2766 56.6366 26.2766H64.8297C65.0103 26.2775 65.1892 26.2428 65.3561 26.1744C65.5231 26.1059 65.6747 26.0052 65.8024 25.8779C65.9301 25.7506 66.0311 25.5994 66.0997 25.4329C66.1684 25.2665 66.2032 25.0881 66.2023 24.9081V19.461ZM57.5271 26.0082C57.41 26.0082 57.294 25.9852 57.1858 25.9404C57.0776 25.8956 56.9793 25.83 56.8966 25.7473C56.8138 25.6646 56.7483 25.5664 56.7037 25.4584C56.6591 25.3504 56.6363 25.2347 56.6366 25.1179V19.2512C56.6366 19.0157 56.7304 18.7899 56.8974 18.6234C57.0644 18.4569 57.2909 18.3633 57.5271 18.3633H63.9393C64.1755 18.3633 64.4019 18.4569 64.569 18.6234C64.7359 18.7899 64.8297 19.0157 64.8297 19.2512V25.1203C64.8301 25.2371 64.8073 25.3528 64.7627 25.4609C64.7181 25.5689 64.6525 25.667 64.5698 25.7497C64.4871 25.8325 64.3889 25.8981 64.2806 25.9429C64.1724 25.9876 64.0565 26.0107 63.9393 26.0107L57.5271 26.0082ZM77.61 23.5689V24.913C77.6113 25.092 77.5771 25.2696 77.5094 25.4354C77.4416 25.6012 77.3416 25.752 77.2152 25.8792C77.0888 26.0063 76.9385 26.1074 76.7728 26.1764C76.6071 26.2454 76.4294 26.2811 76.2498 26.2815H68.0444C67.8653 26.2847 67.6874 26.2523 67.5211 26.1862C67.3546 26.1201 67.2031 26.0216 67.0753 25.8965C66.9476 25.7714 66.8461 25.6221 66.7768 25.4574C66.7076 25.2927 66.6719 25.1159 66.6719 24.9374V19.4854C66.67 19.1198 66.8132 18.7684 67.0704 18.5078C67.3276 18.2473 67.6778 18.0989 68.0444 18.095H77.61V18.3877L68.9349 18.4097C68.8191 18.4071 68.704 18.4275 68.5962 18.4699C68.4884 18.5122 68.3902 18.5755 68.3072 18.6562C68.2243 18.7368 68.1584 18.8331 68.1133 18.9395C68.0681 19.0459 68.0447 19.1601 68.0444 19.2756V25.1301C68.0447 25.2456 68.0681 25.3598 68.1133 25.4662C68.1584 25.5726 68.2243 25.6689 68.3072 25.7495C68.3902 25.8302 68.4884 25.8935 68.5962 25.9358C68.704 25.9782 68.8191 25.9986 68.9349 25.996H75.3593C75.5929 25.9954 75.817 25.9033 75.9831 25.7395C76.1492 25.5756 76.2441 25.3533 76.2473 25.1203V23.5665L77.61 23.5689ZM89.0178 23.5689V24.913C89.0191 25.092 88.9849 25.2696 88.9171 25.4354C88.8494 25.6012 88.7494 25.752 88.623 25.8792C88.4966 26.0063 88.3462 26.1074 88.1805 26.1764C88.0149 26.2454 87.8372 26.2811 87.6576 26.2815H79.4522C79.2732 26.2847 79.0952 26.2523 78.9288 26.1862C78.7624 26.1201 78.6109 26.0216 78.4832 25.8965C78.3554 25.7714 78.2539 25.6221 78.1846 25.4574C78.1153 25.2927 78.0797 25.1159 78.0797 24.9374V19.4854C78.0778 19.1198 78.221 18.7684 78.4782 18.5078C78.7354 18.2473 79.0856 18.0989 79.4522 18.095H89.0178V18.3877L80.3427 18.4097C80.2277 18.4071 80.1133 18.4272 80.0063 18.4689C79.8991 18.5107 79.8013 18.5731 79.7185 18.6527C79.6357 18.7323 79.5696 18.8275 79.5239 18.9327C79.4781 19.038 79.4538 19.1512 79.4522 19.2659V25.1203C79.4525 25.2358 79.4759 25.3501 79.521 25.4565C79.5662 25.5628 79.6321 25.6592 79.715 25.7398C79.798 25.8204 79.8962 25.8838 80.004 25.9261C80.1118 25.9684 80.2269 25.9889 80.3427 25.9863H86.7671C86.8842 25.9863 87.0002 25.9632 87.1084 25.9185C87.2166 25.8737 87.3149 25.8081 87.3976 25.7254C87.4804 25.6427 87.5458 25.5445 87.5905 25.4365C87.6351 25.3285 87.6579 25.2127 87.6576 25.0959V23.5421L89.0178 23.5689ZM89.4875 18.0999V18.3926H97.436L89.4875 26.2815H91.4153L96.6556 21.1856C97.1629 20.6348 97.4395 19.9112 97.4287 19.1634C97.4287 18.1218 99.0703 18.1218 99.0703 19.1634V26.2815H100.418V19.4513C100.422 19.2737 100.39 19.0971 100.324 18.9322C100.257 18.7673 100.158 18.6176 100.032 18.492C99.9064 18.3663 99.7562 18.2675 99.5909 18.2013C99.4255 18.1352 99.2484 18.1032 99.0703 18.1072L89.4875 18.0999ZM111.586 18.0999C111.405 18.098 111.225 18.1322 111.057 18.2004C110.889 18.2687 110.736 18.3697 110.608 18.4975L109.575 19.5366C109.332 19.7849 109.141 20.0797 109.015 20.4033C108.889 20.727 108.83 21.0728 108.841 21.4198C108.841 21.6165 108.763 21.8051 108.624 21.9442C108.484 22.0833 108.295 22.1614 108.098 22.1614C107.9 22.1614 107.711 22.0833 107.572 21.9442C107.432 21.8051 107.354 21.6165 107.354 21.4198C107.365 21.0728 107.306 20.7272 107.179 20.4036C107.053 20.0801 106.863 19.7852 106.62 19.5366L105.588 18.4975C105.459 18.3698 105.306 18.2689 105.138 18.2006C104.97 18.1324 104.79 18.0981 104.609 18.0999H102.265C102.085 18.0992 101.907 18.1341 101.74 18.2025C101.573 18.2709 101.422 18.3714 101.294 18.4984C101.167 18.6253 101.066 18.7762 100.997 18.9422C100.928 19.1082 100.893 19.2862 100.893 19.4659V26.2815H102.265V19.2561C102.264 19.0808 102.315 18.9091 102.411 18.7627C102.508 18.6163 102.646 18.502 102.809 18.4342C102.971 18.3665 103.149 18.3484 103.322 18.3822C103.494 18.4161 103.653 18.5004 103.777 18.6243L107.258 22.1199C107.481 22.3364 107.78 22.4576 108.092 22.4576C108.403 22.4576 108.702 22.3364 108.925 22.1199L112.418 18.6243C112.543 18.5027 112.702 18.4205 112.873 18.388C113.045 18.3555 113.222 18.3741 113.384 18.4414C113.545 18.5088 113.683 18.6219 113.78 18.7668C113.877 18.9117 113.929 19.0819 113.93 19.2561V26.2815H115.3V19.461C115.301 19.2814 115.266 19.1035 115.197 18.9375C115.128 18.7715 115.028 18.6206 114.9 18.4937C114.773 18.3667 114.622 18.2661 114.455 18.1977C114.288 18.1292 114.11 18.0943 113.93 18.095L111.586 18.0999Z" fill="url(#paint0_linear_2630_7628)"/>
<path d="M44.0223 13.7288H31.2708H31.267H31.2667H30.7972C29.2812 13.7288 28.4294 14.9557 28.0257 16.4937L24.7576 27.292C24.711 27.4465 24.6901 27.6084 24.7049 27.7692C24.8383 29.1805 26.0356 30.2714 27.4642 30.2714H30.12H30.1202H47.0407C48.4976 30.2714 49.6786 29.1715 49.8018 27.7519C49.8147 27.6033 49.7979 27.4534 49.7584 27.3093L46.7938 16.4937C46.3534 15.0604 45.5619 13.7288 44.0223 13.7288ZM27.7357 28.6814C27.6804 28.7363 27.6029 28.4997 27.5447 28.2782C27.4879 28.0616 27.4914 27.8336 27.5521 27.6183L30.7972 16.0683C31.0499 15.0601 31.3935 14.5026 32.193 14.3194H42.2722L27.7357 28.6814ZM47.0407 27.9318C47.0407 28.9237 46.2346 29.7279 45.2405 29.7279H31.3199C31.0857 29.7279 30.9704 29.4442 31.1379 29.2813L40.7087 19.9677C41.7983 18.9043 42.2722 17.2263 42.2722 15.8795C42.2722 15.0493 42.5542 14.5616 42.8951 14.4032C43.5559 14.669 43.8379 15.2695 44.0223 16.0683L47.0407 27.9318Z" fill="url(#paint1_linear_2630_7628)"/>
<defs>
<linearGradient id="paint0_linear_2630_7628" x1="92.8269" y1="18.095" x2="92.8269" y2="26.2817" gradientUnits="userSpaceOnUse">
<stop stop-color="#060707"/>
<stop offset="0.473958" stop-color="#27292C"/>
<stop offset="1" stop-color="#5B5E62"/>
</linearGradient>
<linearGradient id="paint1_linear_2630_7628" x1="37.2531" y1="13.7288" x2="37.2531" y2="30.2714" gradientUnits="userSpaceOnUse">
<stop stop-color="#090A0A"/>
<stop offset="1" stop-color="#54565A"/>
</linearGradient>
</defs>
</svg>
