<svg width="210" height="44" viewBox="0 0 210 44" fill="none" xmlns="http://www.w3.org/2000/svg">
<rect width="210" height="44" rx="6.42789" fill="#FBFBFB"/>
<path d="M74.2468 26.0944C73.9957 26.0944 73.8702 26.0333 73.7447 25.9722C73.6819 25.85 73.6191 25.7278 73.6191 25.5444V18.7C73.6191 18.5166 73.6819 18.3333 73.7447 18.2722C73.8702 18.15 73.9957 18.0889 74.2468 18.0889H77.1965C78.3262 18.0889 79.1421 18.3333 79.707 18.7611C80.2091 19.25 80.5229 19.9222 80.5229 20.8389C80.5229 21.7555 80.2718 22.4278 79.707 22.9166C79.2049 23.3444 78.3262 23.5889 77.1965 23.5889H76.0668V25.4833C76.0668 25.6666 76.0041 25.85 75.9413 25.9111C75.8158 26.0333 75.6903 26.0333 75.4392 26.0333H74.2468V26.0944ZM77.0083 21.8778C77.3221 21.8778 77.5731 21.8166 77.7614 21.6333C77.9497 21.45 78.0124 21.2055 78.0124 20.8389C78.0124 20.4722 77.9497 20.2278 77.7614 20.0444C77.5731 19.8611 77.3221 19.8 77.0083 19.8H76.0668V21.8778H77.0083Z" fill="#1D1E21"/>
<path d="M83.3474 26.2779C82.5942 26.2779 81.9666 26.0335 81.5273 25.5446C81.088 25.0557 80.8369 24.3835 80.8369 23.5279C80.8369 22.8557 80.9624 22.3057 81.2762 21.8168C81.5901 21.3279 82.0294 20.9612 82.5942 20.6557C83.1591 20.4112 83.8495 20.2279 84.5398 20.2279C85.1674 20.2279 85.6695 20.289 86.1716 20.4112C86.6737 20.5335 87.0503 20.7168 87.4896 20.9612V25.6668C87.4896 25.789 87.4896 25.9112 87.4269 25.9724C87.3641 26.0335 87.2386 26.0335 87.113 26.0335H85.8578C85.7951 26.0335 85.6695 26.0335 85.6695 25.9724C85.6068 25.9112 85.6068 25.9112 85.544 25.8501L85.3557 25.4835C85.1047 25.7279 84.8536 25.9112 84.5398 26.0335C84.226 26.2168 83.7867 26.2779 83.3474 26.2779ZM84.226 24.689C84.5398 24.689 84.7909 24.6279 84.9792 24.4446C85.1674 24.3224 85.2302 24.0779 85.2302 23.8335V22.0001C85.1047 21.939 84.8536 21.8779 84.6654 21.8779C84.226 21.8779 83.9122 22.0001 83.6612 22.3057C83.4101 22.6112 83.2846 22.9779 83.2846 23.5279C83.2846 24.2612 83.5984 24.689 84.226 24.689Z" fill="#1D1E21"/>
<path d="M89.184 26.0944C88.933 26.0944 88.8074 26.0333 88.6819 25.9722C88.5564 25.8499 88.5564 25.7277 88.5564 25.5444V20.7777C88.5564 20.6555 88.5564 20.5333 88.6192 20.4722C88.6819 20.411 88.8074 20.411 88.933 20.411H90.1882C90.3137 20.411 90.3765 20.411 90.3765 20.4722C90.4392 20.4722 90.4392 20.5333 90.502 20.5944L90.5648 20.961C90.8158 20.7166 91.0668 20.5944 91.4434 20.4722C91.82 20.3499 92.1965 20.2888 92.6986 20.2888C93.3262 20.2888 93.8911 20.4722 94.2677 20.8388C94.6442 21.2055 94.8953 21.6944 94.8953 22.4277V25.5444C94.8953 25.7277 94.8325 25.911 94.7698 25.9722C94.707 26.0944 94.5187 26.0944 94.2677 26.0944H93.0752C92.8242 26.0944 92.6986 26.0333 92.5731 25.9722C92.4476 25.8499 92.4476 25.7277 92.4476 25.5444V22.5499C92.4476 22.3055 92.3848 22.1222 92.2593 22.061C92.1338 21.9388 92.0083 21.8777 91.7572 21.8777C91.5062 21.8777 91.3179 21.9388 91.1924 22.061C91.0668 22.1833 91.0041 22.3666 91.0041 22.5499V25.4833C91.0041 25.6666 90.9413 25.8499 90.8786 25.911C90.8158 26.0333 90.6275 26.0333 90.3765 26.0333H89.184V26.0944Z" fill="#1D1E21"/>
<path d="M99.1632 26.2777C98.0335 26.2777 97.1548 26.0333 96.5272 25.4833C95.8996 24.9944 95.5858 24.261 95.5858 23.2833C95.5858 22.6722 95.7113 22.1833 96.0251 21.6944C96.2762 21.2666 96.7155 20.8999 97.2176 20.6555C97.7825 20.411 98.4101 20.2888 99.1004 20.2888C99.6653 20.2888 100.105 20.3499 100.481 20.4722C100.858 20.5944 101.234 20.7166 101.485 20.961C101.548 21.0222 101.611 21.0833 101.611 21.1444C101.611 21.2055 101.548 21.2666 101.485 21.3888L100.983 22.2444C100.921 22.3666 100.858 22.4277 100.795 22.4277C100.732 22.4277 100.669 22.3666 100.544 22.3055C100.356 22.1833 100.105 22.061 99.9163 21.9999C99.7281 21.9388 99.477 21.8777 99.226 21.8777C98.8494 21.8777 98.4728 21.9999 98.2218 22.2444C97.9707 22.4888 97.8452 22.8555 97.8452 23.2833C97.8452 23.711 97.9707 24.0777 98.2218 24.3222C98.4728 24.5666 98.7866 24.6888 99.226 24.6888C99.477 24.6888 99.7281 24.6277 99.9163 24.5666C100.105 24.5055 100.356 24.3833 100.544 24.261C100.669 24.1999 100.732 24.1388 100.795 24.1388C100.858 24.1388 100.921 24.1999 100.983 24.3222L101.548 25.2388C101.611 25.2999 101.611 25.361 101.611 25.4222C101.611 25.4833 101.548 25.5444 101.485 25.6055C101.172 25.7888 100.795 25.9721 100.356 26.0944C100.167 26.2166 99.7281 26.2777 99.1632 26.2777Z" fill="#1D1E21"/>
<path d="M104.874 26.2779C104.121 26.2779 103.493 26.0335 103.054 25.5446C102.615 25.0557 102.364 24.3835 102.364 23.5279C102.364 22.8557 102.489 22.3057 102.803 21.8168C103.117 21.3279 103.556 20.9612 104.121 20.6557C104.686 20.4112 105.376 20.2279 106.067 20.2279C106.694 20.2279 107.196 20.289 107.698 20.4112C108.201 20.5335 108.577 20.7168 109.016 20.9612V25.6668C109.016 25.789 109.016 25.9112 108.954 25.9724C108.891 26.0335 108.765 26.0335 108.64 26.0335H107.385C107.322 26.0335 107.196 26.0335 107.196 25.9724C107.134 25.9112 107.134 25.9112 107.071 25.8501L106.883 25.4835C106.632 25.7279 106.38 25.9112 106.067 26.0335C105.753 26.2168 105.376 26.2779 104.874 26.2779ZM105.816 24.689C106.129 24.689 106.381 24.6279 106.569 24.4446C106.757 24.3224 106.82 24.0779 106.82 23.8335V22.0001C106.694 21.939 106.443 21.8779 106.255 21.8779C105.816 21.8779 105.502 22.0001 105.251 22.3057C105 22.6112 104.874 22.9779 104.874 23.5279C104.811 24.2612 105.125 24.689 105.816 24.689Z" fill="#1D1E21"/>
<path d="M116.674 25.6666C116.736 25.7278 116.736 25.7889 116.736 25.85C116.736 25.9111 116.736 25.9722 116.674 26.0333C116.611 26.0944 116.548 26.0944 116.485 26.0944H114.603C114.477 26.0944 114.414 26.0944 114.352 26.0944C114.289 26.0944 114.226 26.0333 114.163 25.9722L112.531 23.7722V25.4833C112.531 25.6666 112.469 25.85 112.406 25.9111C112.28 26.0333 112.155 26.0333 111.904 26.0333H110.711C110.46 26.0333 110.335 25.9722 110.209 25.9111C110.147 25.7889 110.084 25.6666 110.084 25.4833V18.7C110.084 18.5166 110.147 18.3333 110.209 18.2722C110.335 18.15 110.46 18.0889 110.711 18.0889H111.904C112.155 18.0889 112.28 18.15 112.406 18.2722C112.531 18.3944 112.531 18.5166 112.531 18.7V22.6111L114.1 20.5944C114.163 20.5333 114.226 20.4722 114.289 20.4722C114.352 20.4722 114.414 20.4111 114.54 20.4111H116.423C116.485 20.4111 116.548 20.4111 116.611 20.4722C116.674 20.5333 116.674 20.5944 116.674 20.6555C116.674 20.7166 116.674 20.7778 116.611 20.8389L114.54 23.1611L116.674 25.6666Z" fill="#1D1E21"/>
<path d="M120.565 26.2778C119.875 26.2778 119.31 26.1555 118.745 25.9722C118.243 25.7278 117.803 25.4222 117.49 24.9944C117.176 24.5666 117.05 24.0166 117.05 23.4055C117.05 22.4278 117.364 21.6333 117.929 21.1444C118.494 20.5944 119.372 20.35 120.439 20.35C121.506 20.35 122.322 20.5944 122.824 21.1444C123.389 21.6333 123.64 22.3666 123.64 23.2833C123.64 23.65 123.452 23.8944 123.138 23.8944H119.372C119.372 24.2611 119.498 24.5055 119.749 24.6889C120 24.8722 120.439 24.9333 120.941 24.9333C121.255 24.9333 121.569 24.9333 121.757 24.8722C122.008 24.8111 122.197 24.6889 122.448 24.6278C122.573 24.5666 122.636 24.5666 122.636 24.5666C122.699 24.5666 122.762 24.6278 122.824 24.6889L123.264 25.4222C123.326 25.4833 123.326 25.5444 123.326 25.6055C123.326 25.6666 123.264 25.7278 123.201 25.7889C122.887 25.9722 122.511 26.1555 122.071 26.2778C121.569 26.2166 121.13 26.2778 120.565 26.2778ZM121.506 22.6111C121.506 22.3055 121.444 22.0611 121.255 21.9389C121.067 21.7555 120.816 21.6944 120.439 21.6944C120.063 21.6944 119.812 21.7555 119.624 21.9389C119.435 22.1222 119.372 22.3055 119.372 22.6111H121.506Z" fill="#1D1E21"/>
<path d="M127.845 26.2777C127.155 26.2777 126.527 26.2166 125.899 26.0944C125.272 25.9722 124.833 25.7277 124.456 25.4833C124.33 25.4222 124.268 25.2999 124.268 25.2388C124.268 25.1777 124.268 25.1166 124.33 25.0555L124.895 24.1388C124.958 24.0166 125.021 24.0166 125.084 24.0166C125.146 24.0166 125.209 24.0166 125.272 24.0777C125.586 24.261 125.899 24.3833 126.276 24.5055C126.653 24.6277 127.029 24.6888 127.406 24.6888C127.782 24.6888 128.033 24.6277 128.222 24.5055C128.41 24.3833 128.473 24.1999 128.473 23.9555C128.473 23.711 128.347 23.5277 128.159 23.4055C127.971 23.2833 127.594 23.0999 127.029 22.9166C126.213 22.611 125.586 22.3055 125.146 21.9388C124.707 21.5722 124.456 21.0222 124.456 20.411C124.456 19.6166 124.77 19.0666 125.335 18.6388C125.899 18.211 126.653 18.0277 127.594 18.0277C128.284 18.0277 128.849 18.0888 129.289 18.211C129.791 18.3333 130.167 18.5166 130.481 18.6999C130.607 18.8222 130.669 18.8833 130.669 19.0055C130.669 19.0666 130.669 19.1277 130.607 19.1888L130.042 20.1055C129.979 20.2277 129.916 20.2277 129.853 20.2277C129.791 20.2277 129.728 20.2277 129.665 20.1666C129.226 19.861 128.661 19.7388 127.971 19.7388C127.594 19.7388 127.343 19.7999 127.155 19.9222C126.966 20.0444 126.904 20.2277 126.904 20.4722C126.904 20.6555 126.966 20.7777 127.029 20.8999C127.155 21.0222 127.28 21.0833 127.406 21.2055C127.594 21.2666 127.845 21.3888 128.159 21.511L128.41 21.5722C128.975 21.8166 129.477 21.9999 129.791 22.2444C130.167 22.4277 130.418 22.7333 130.607 23.0388C130.795 23.3444 130.858 23.711 130.858 24.1388C130.858 24.811 130.607 25.4222 130.042 25.7888C129.665 26.0333 128.849 26.2777 127.845 26.2777Z" fill="#1D1E21"/>
<path d="M133.556 26.0945C133.431 26.0945 133.368 26.0945 133.305 26.0334C133.242 25.9722 133.18 25.9111 133.18 25.7889L131.611 20.7167C131.611 20.6556 131.611 20.6556 131.611 20.5945C131.611 20.4722 131.673 20.4111 131.862 20.4111H133.431C133.556 20.4111 133.619 20.4111 133.682 20.4722C133.744 20.5334 133.744 20.5334 133.807 20.6556L134.435 23.3445L135.251 21.2056C135.314 21.0834 135.314 21.0222 135.376 21.0222C135.439 20.9611 135.502 20.9611 135.627 20.9611H136.38C136.506 20.9611 136.569 20.9611 136.632 21.0222C136.694 21.0834 136.694 21.1445 136.757 21.2056L137.573 23.3445L138.263 20.6556C138.263 20.5945 138.326 20.5334 138.389 20.4722C138.452 20.4111 138.514 20.4111 138.577 20.4111H140.209C140.397 20.4111 140.46 20.4722 140.46 20.5945C140.46 20.5945 140.46 20.6556 140.46 20.7167L138.891 25.7889C138.828 25.9111 138.828 25.9722 138.765 26.0334C138.703 26.0945 138.64 26.0945 138.514 26.0945H137.322C137.196 26.0945 137.134 26.0945 137.071 26.0334C137.008 25.9722 136.945 25.9111 136.945 25.7889L136.129 23.65L135.314 25.7889C135.251 25.9111 135.251 25.9722 135.188 26.0334C135.125 26.0945 135.062 26.0945 134.937 26.0945H133.556Z" fill="#1D1E21"/>
<path d="M143.347 26.2779C142.594 26.2779 141.966 26.0335 141.527 25.5446C141.088 25.0557 140.837 24.3835 140.837 23.5279C140.837 22.8557 140.962 22.3057 141.276 21.8168C141.59 21.3279 142.029 20.9612 142.594 20.6557C143.159 20.4112 143.849 20.2279 144.54 20.2279C145.167 20.2279 145.669 20.289 146.171 20.4112C146.673 20.5335 147.05 20.7168 147.489 20.9612V25.6668C147.489 25.789 147.489 25.9112 147.427 25.9724C147.364 26.0335 147.238 26.0335 147.113 26.0335H145.858C145.795 26.0335 145.732 26.0335 145.669 25.9724C145.607 25.9112 145.607 25.9112 145.544 25.8501L145.355 25.4835C145.104 25.7279 144.853 25.9112 144.54 26.0335C144.226 26.2168 143.849 26.2779 143.347 26.2779ZM144.289 24.689C144.602 24.689 144.853 24.6279 145.042 24.4446C145.23 24.3224 145.293 24.0779 145.293 23.8335V22.0001C145.167 21.939 144.916 21.8779 144.728 21.8779C144.289 21.8779 143.975 22.0001 143.724 22.3057C143.473 22.6112 143.347 22.9779 143.347 23.5279C143.284 24.2612 143.598 24.689 144.289 24.689Z" fill="#1D1E21"/>
<path d="M149.184 28.4778C148.933 28.4778 148.807 28.4166 148.682 28.3555C148.619 28.2333 148.556 28.1111 148.556 27.9278V21.2055C148.933 20.9611 149.372 20.7166 149.937 20.5944C150.502 20.4111 151.067 20.35 151.631 20.35C154.079 20.35 155.272 21.3278 155.272 23.3444C155.272 24.2611 155.021 24.9944 154.518 25.5444C154.016 26.0944 153.263 26.3389 152.322 26.3389C152.071 26.3389 151.82 26.2778 151.569 26.2166C151.318 26.1555 151.129 26.0944 150.941 25.9722V27.9278C150.941 28.1111 150.878 28.2944 150.816 28.3555C150.69 28.4778 150.565 28.4778 150.313 28.4778H149.184ZM151.82 24.6889C152.196 24.6889 152.447 24.5666 152.573 24.3222C152.761 24.0778 152.824 23.7111 152.824 23.2833C152.824 22.7944 152.698 22.4278 152.51 22.1833C152.322 22 152.008 21.8778 151.569 21.8778C151.318 21.8778 151.067 21.9389 150.941 22V23.8333C150.941 24.0778 151.004 24.3222 151.192 24.4444C151.318 24.6278 151.569 24.6889 151.82 24.6889Z" fill="#1D1E21"/>
<path fill-rule="evenodd" clip-rule="evenodd" d="M57.615 16.7444C57.364 15.5222 58.3682 14.3611 59.6234 14.3611C60.7531 14.3611 61.6945 15.2778 61.6945 16.3778V18.8222C62.0083 18.8222 62.2594 18.8222 62.5732 18.8222C62.8242 18.8222 63.138 18.8222 63.3891 18.8222V16.3778C63.3891 15.2778 64.3305 14.3611 65.4602 14.3611C66.7154 14.3611 67.7196 15.5222 67.4686 16.7444L66.9037 19.6166C68.7865 20.4111 70.2301 21.8166 70.2301 23.5889V24.6278C70.2301 26.0944 69.2259 27.3166 67.8451 28.1111C66.4644 28.9666 64.5815 29.4555 62.5104 29.4555C60.4393 29.4555 58.5565 28.9666 57.1757 28.1111C55.795 27.3166 54.7908 26.0944 54.7908 24.6278V23.5889C54.7908 21.8166 56.2343 20.4111 58.1171 19.6166L57.615 16.7444ZM66.2133 20.0444L66.8409 16.6833C67.0292 15.8278 66.3389 15.0333 65.4602 15.0333C64.6443 15.0333 64.0167 15.6444 64.0167 16.4389V19.5555C63.8284 19.5555 63.5774 19.4944 63.3891 19.4944C63.138 19.4944 62.8242 19.4944 62.5732 19.4944C62.2594 19.4944 62.0083 19.4944 61.6945 19.5555C61.5062 19.5555 61.2552 19.6166 61.0669 19.6166V16.5C61.0669 15.7055 60.4393 15.0944 59.6234 15.0944C58.7447 15.0944 58.0544 15.8889 58.2426 16.7444L58.8703 20.1666C56.8619 20.9 55.4811 22.2444 55.4811 23.7722V24.8111C55.4811 27.1333 58.6192 29.0278 62.5104 29.0278C66.4016 29.0278 69.5397 27.1333 69.5397 24.8111V23.7722C69.6024 22.1222 68.2217 20.7778 66.2133 20.0444Z" fill="#633001"/>
<path d="M69.6027 24.6889C69.6027 27.0111 66.4647 28.9056 62.5735 28.9056C58.6823 28.9056 55.5442 27.0111 55.5442 24.6889V23.65H69.6655V24.6889H69.6027Z" fill="#FEDC90"/>
<path fill-rule="evenodd" clip-rule="evenodd" d="M58.2427 16.6223C58.0544 15.7667 58.7448 14.9723 59.6234 14.9723C60.4393 14.9723 61.0669 15.5834 61.0669 16.3778V19.5556C61.569 19.4945 62.0711 19.4334 62.5732 19.4334C63.0753 19.4334 63.5774 19.4945 64.0167 19.4945V16.3778C64.0167 15.5834 64.6443 14.9723 65.4602 14.9723C66.3389 14.9723 67.0292 15.7667 66.841 16.6223L66.2134 19.9834C68.2845 20.7167 69.6652 22.0612 69.6652 23.589C69.6652 25.9112 66.5272 27.8056 62.636 27.8056C58.7448 27.8056 55.6067 25.9112 55.6067 23.589C55.6067 22.0612 56.9874 20.7167 58.9958 19.9834L58.2427 16.6223Z" fill="#D1884F"/>
<path d="M60.6276 23.3445C60.6276 23.9556 60.251 24.5056 59.8745 24.5056C59.4979 24.5056 59.1213 24.0167 59.1213 23.3445C59.1213 22.7334 59.4979 22.1833 59.8745 22.1833C60.251 22.1833 60.6276 22.6722 60.6276 23.3445Z" fill="#633001"/>
<path d="M66.0251 23.3445C66.0251 23.9556 65.6485 24.5056 65.2719 24.5056C64.8326 24.5056 64.5188 24.0167 64.5188 23.3445C64.5188 22.7334 64.8954 22.1833 65.2719 22.1833C65.6485 22.1833 66.0251 22.6722 66.0251 23.3445Z" fill="#633001"/>
</svg>
