<svg width="140" height="44" viewBox="0 0 140 44" fill="none" xmlns="http://www.w3.org/2000/svg">
<rect width="139.744" height="44" rx="5.95873" fill="#FBFBFB"/>
<rect width="139.744" height="44" rx="5.95873" fill="#FBFBFB"/>
<path d="M47.554 19.2184C47.3993 19.1292 47.2238 19.0823 47.0452 19.0823C46.8666 19.0823 46.6912 19.1292 46.5364 19.2184L44.2018 20.6092L42.6155 21.5162L40.2809 22.907C40.1261 22.9962 39.9507 23.0431 39.7721 23.0431C39.5935 23.0431 39.418 22.9962 39.2632 22.907L37.4075 21.8186C37.2553 21.7276 37.1286 21.5994 37.0396 21.446C36.9506 21.2926 36.9021 21.1191 36.8987 20.9417V18.7951C36.8958 18.6165 36.9416 18.4405 37.0312 18.286C37.1209 18.1315 37.251 18.0044 37.4075 17.9183L39.2333 16.8601C39.3881 16.7709 39.5635 16.724 39.7421 16.724C39.9207 16.724 40.0962 16.7709 40.251 16.8601L42.0767 17.9183C42.229 18.0093 42.3556 18.1375 42.4446 18.2909C42.5336 18.4443 42.5821 18.6178 42.5855 18.7951V20.1859L44.1719 19.2486V17.8578C44.1748 17.6792 44.129 17.5032 44.0394 17.3487C43.9497 17.1942 43.8196 17.0671 43.6631 16.981L40.2809 14.9856C40.1261 14.8964 39.9507 14.8495 39.7721 14.8495C39.5934 14.8495 39.418 14.8964 39.2632 14.9856L35.8212 16.9811C35.6647 17.0671 35.5346 17.1942 35.4449 17.3487C35.3553 17.5032 35.3094 17.6792 35.3124 17.8578V21.879C35.3094 22.0576 35.3552 22.2336 35.4449 22.3881C35.5346 22.5426 35.6647 22.6697 35.8212 22.7558L39.2632 24.7512C39.418 24.8404 39.5935 24.8874 39.7721 24.8874C39.9507 24.8874 40.1261 24.8404 40.2809 24.7512L42.6155 23.3907L44.2018 22.4535L46.5364 21.0929C46.6912 21.0037 46.8666 20.9568 47.0452 20.9568C47.2238 20.9568 47.3993 21.0037 47.5541 21.0929L49.3798 22.1511C49.5321 22.2421 49.6587 22.3703 49.7477 22.5237C49.8367 22.677 49.8852 22.8506 49.8886 23.0279V25.1745C49.8916 25.3531 49.8458 25.5292 49.7561 25.6837C49.6665 25.8382 49.5364 25.9653 49.3798 26.0513L47.5541 27.1398C47.3993 27.229 47.2238 27.2759 47.0452 27.2759C46.8666 27.2759 46.6912 27.229 46.5364 27.1398L44.7106 26.0816C44.5584 25.9907 44.4317 25.8624 44.3427 25.709C44.2537 25.5556 44.2052 25.3821 44.2018 25.2048V23.814L42.6155 24.7512V26.142C42.6125 26.3206 42.6583 26.4967 42.748 26.6512C42.8376 26.8057 42.9677 26.9328 43.1243 27.0188L46.5663 29.0143C46.7211 29.1035 46.8965 29.1504 47.0751 29.1504C47.2537 29.1504 47.4292 29.1035 47.584 29.0143L51.026 27.0188C51.1783 26.9279 51.3049 26.7997 51.3939 26.6463C51.4829 26.4929 51.5314 26.3194 51.5348 26.142V22.1209C51.5378 21.9423 51.492 21.7662 51.4023 21.6117C51.3126 21.4572 51.1825 21.3301 51.026 21.2441L47.554 19.2184Z" fill="#7B3FE4"/>
<path d="M57.8556 27.8628V24.5244C58.0845 24.768 58.3643 24.958 58.6752 25.0808C58.986 25.2036 59.3201 25.2563 59.6536 25.235C61.6139 25.235 62.9387 23.8541 62.9387 21.7492C62.9387 19.6443 61.722 18.2633 59.8158 18.2633C59.446 18.2424 59.0763 18.3078 58.7361 18.4544C58.3959 18.601 58.0945 18.8248 57.8556 19.108V18.3706H55.9766V27.8628H57.8556ZM59.4238 23.6262C58.4099 23.6262 57.7475 22.8754 57.7475 21.7492C57.7475 20.6096 58.4099 19.8588 59.4238 19.8588C60.4107 19.8588 61.0866 20.6096 61.0866 21.7492C61.0866 22.8754 60.4107 23.6262 59.4238 23.6262Z" fill="black"/>
<path d="M67.2055 25.2349C67.8903 25.2136 68.5537 24.9911 69.1128 24.5951C69.6719 24.1991 70.102 23.6471 70.3493 23.0082C70.5967 22.3693 70.6504 21.6716 70.5037 21.0024C70.357 20.3331 70.0164 19.7219 69.5244 19.245C69.0325 18.7681 68.411 18.4467 67.7375 18.3209C67.064 18.1951 66.3683 18.2704 65.7374 18.5375C65.1065 18.8047 64.5682 19.2517 64.1898 19.8228C63.8113 20.394 63.6095 21.064 63.6095 21.7491C63.6005 22.2188 63.6882 22.6853 63.8671 23.1196C64.0461 23.5539 64.3125 23.9468 64.6498 24.2737C64.9871 24.6007 65.388 24.8547 65.8277 25.0201C66.2674 25.1855 66.7364 25.2586 67.2055 25.2349ZM67.2055 23.6261C66.1916 23.6261 65.5021 22.8619 65.5021 21.7491C65.5021 20.6229 66.1916 19.8587 67.2055 19.8587C68.2194 19.8587 68.9088 20.6229 68.9088 21.7491C68.9088 22.8619 68.2194 23.6261 67.2055 23.6261Z" fill="black"/>
<path d="M73.8163 25.1277V15.4344H71.9373V25.1277H73.8163Z" fill="black"/>
<path d="M79.4649 18.3705L78.0455 22.7278L76.6125 18.3705H74.6929L77.1668 25.074L76.1664 27.8627H77.9644L78.9242 25.1008L81.398 18.3705H79.4649Z" fill="black"/>
<path d="M86.6754 19.0408C86.439 18.7805 86.1479 18.5757 85.823 18.4412C85.4981 18.3068 85.1474 18.246 84.7961 18.2632C82.8088 18.2632 81.6057 19.6442 81.6057 21.7491C81.6057 23.854 82.8088 25.2349 84.8234 25.2349C85.1743 25.2561 85.5254 25.1958 85.849 25.0585C86.1727 24.9213 86.4601 24.7109 86.6888 24.4439V25.3287C86.6993 25.4651 86.6816 25.6021 86.6369 25.7313C86.5922 25.8605 86.5213 25.9791 86.4287 26.0797C86.3362 26.1803 86.2239 26.2608 86.0988 26.3161C85.9738 26.3715 85.8387 26.4005 85.702 26.4013H82.5657V27.8627H85.9992C87.5406 27.8627 88.568 26.9376 88.568 25.5299V18.3705H86.6754V19.0408ZM85.1206 23.6261C84.1204 23.6261 83.4577 22.8887 83.4577 21.7491C83.4577 20.6095 84.1204 19.8587 85.1206 19.8587C86.1346 19.8587 86.7969 20.6095 86.7969 21.7491C86.7969 22.8887 86.1346 23.6261 85.1206 23.6261V23.6261Z" fill="black"/>
<path d="M93.3056 25.2349C93.9905 25.2137 94.6538 24.9912 95.213 24.5952C95.7721 24.1992 96.2022 23.6473 96.4496 23.0083C96.697 22.3694 96.7507 21.6718 96.604 21.0025C96.4573 20.3332 96.1168 19.722 95.6248 19.2451C95.1329 18.7682 94.5114 18.4468 93.8379 18.3209C93.1644 18.1951 92.4687 18.2704 91.8378 18.5375C91.2068 18.8046 90.6685 19.2517 90.2901 19.8228C89.9117 20.394 89.7099 21.064 89.7099 21.7491C89.7008 22.2187 89.7885 22.6852 89.9675 23.1195C90.1465 23.5538 90.4128 23.9466 90.7501 24.2736C91.0874 24.6005 91.4883 24.8546 91.9279 25.02C92.3675 25.1854 92.8365 25.2585 93.3056 25.2349ZM93.3056 23.6261C92.2916 23.6261 91.6025 22.8619 91.6025 21.7491C91.6025 20.6229 92.2916 19.8587 93.3056 19.8587C94.3196 19.8587 95.0092 20.6229 95.0092 21.7491C95.0092 22.8619 94.3196 23.6261 93.3056 23.6261Z" fill="black"/>
<path d="M99.8216 25.1277V21.4273C99.8079 21.2347 99.8341 21.0413 99.8986 20.8592C99.9631 20.6772 100.065 20.5104 100.197 20.3694C100.329 20.2284 100.488 20.1162 100.666 20.0399C100.843 19.9635 101.034 19.9247 101.228 19.9257C101.409 19.9239 101.588 19.9598 101.754 20.0311C101.921 20.1025 102.071 20.2078 102.194 20.3402C102.317 20.4727 102.412 20.6295 102.471 20.8005C102.531 20.9715 102.554 21.153 102.539 21.3335V25.1277H104.432V20.9179C104.432 19.3626 103.431 18.2633 101.89 18.2633C101.484 18.2378 101.078 18.3213 100.714 18.5051C100.35 18.6889 100.042 18.9664 99.8216 19.309V18.3705H97.9294V25.1277H99.8216Z" fill="black"/>
</svg>
