<svg width="140" height="44" viewBox="0 0 140 44" fill="none" xmlns="http://www.w3.org/2000/svg">
<rect x="0.12793" width="139.744" height="44" rx="5.95873" fill="#FBFBFB"/>
<rect x="0.12793" width="139.744" height="44" rx="5.95873" fill="#FBFBFB"/>
<path d="M64.1948 20.1357H63.1987V26.6396H64.1948V20.1357Z" fill="#262729"/>
<path d="M68.6571 17.3806H60.5378V18.3767H68.6571V17.3806Z" fill="#262729"/>
<path d="M65.9939 20.1359H64.9978V26.6398H65.9939V20.1359Z" fill="#262729"/>
<path d="M93.5129 26.646H94.518V22.7288L93.5129 21.6116V26.646Z" fill="#262729"/>
<path d="M98.8057 17.3806V24.6428L91.696 16.7412V26.6462H92.6989V19.3818L99.813 27.2856V17.3806H98.8057Z" fill="#262729"/>
<path d="M85.1873 17.376C82.6319 17.376 80.5544 19.4535 80.5544 22.0088C80.5544 24.5641 82.6319 26.6416 85.1873 26.6416C87.7426 26.6416 89.8201 24.5641 89.8201 22.0088C89.8201 19.4557 87.7426 17.376 85.1873 17.376ZM85.1873 25.6433C83.1838 25.6433 81.5528 24.0145 81.5528 22.0088C81.5528 20.0031 83.1816 18.3743 85.1873 18.3743C87.1907 18.3743 88.8217 20.0031 88.8217 22.0088C88.8217 24.0122 87.1907 25.6433 85.1873 25.6433Z" fill="#262729"/>
<path d="M85.1873 21.3425C84.8194 21.3425 84.521 21.6409 84.521 22.0088C84.521 22.3768 84.8194 22.6752 85.1873 22.6752C85.5552 22.6752 85.8536 22.3768 85.8536 22.0088C85.8536 21.6409 85.5552 21.3425 85.1873 21.3425Z" fill="#262729"/>
<path d="M78.8111 20.2231C78.8111 18.6571 77.5458 17.3828 75.991 17.3828H70.6919V26.6485H71.6813V18.3879H75.991C76.9894 18.3879 77.8015 19.2113 77.8015 20.2231C77.8015 21.2304 77.0006 22.0493 76.0112 22.0605L72.4957 22.0583V26.6485H73.485V23.0633H75.8026L77.6961 26.6462H78.847L76.8705 22.922C78.0124 22.5429 78.8111 21.4391 78.8111 20.2231Z" fill="#262729"/>
<path d="M53.6886 15.5454L40.1873 13.0619L47.2924 30.9381L57.1907 18.877L53.6886 15.5454ZM53.4732 16.6403L55.5395 18.6033L49.8904 19.6264L53.4732 16.6403ZM48.6632 19.4222L42.7089 14.4843L52.439 16.2746L48.6632 19.4222ZM48.2369 20.2972L47.2677 28.3222L42.0337 15.1483L48.2369 20.2972ZM49.1343 20.7212L55.3892 19.5882L48.2167 28.3289L49.1343 20.7212Z" fill="#EB0029"/>
</svg>
