<svg width="140" height="44" viewBox="0 0 140 44" fill="none" xmlns="http://www.w3.org/2000/svg">
<mask id="mask0_2639_6169" style="mask-type:alpha" maskUnits="userSpaceOnUse" x="27" y="11" width="21" height="22">
<rect x="27.0496" y="11.9309" width="20.3723" height="20.1381" rx="4.68329" fill="#D9D9D9"/>
</mask>
<g mask="url(#mask0_2639_6169)">
<rect x="27.0496" y="11.9309" width="20.3723" height="20.1381" rx="4.68329" fill="#125ECD"/>
<path fill-rule="evenodd" clip-rule="evenodd" d="M30.3916 16.4449L52.1565 20.8253L45.6624 26.4027L52.8793 25.4747L41.5389 38.2732L42.6709 27.5073L33.718 20.2228L39.2815 33.7477L37.7655 34.3713L30.3916 16.4449ZM34.8232 19.0089L48.5411 21.7697L43.5182 26.0835L34.8232 19.0089ZM44.2422 28.2379L43.7039 33.3582L48.755 27.6577L44.2422 28.2379Z" fill="white"/>
</g>
<g opacity="0.9">
<path d="M53.3806 17.8026V16.6307H61.5624V17.8026H58.132V27.5398H56.811V17.8026H53.3806Z" fill="black"/>
<path d="M62.5812 27.5398V19.358H63.7957V20.5938H63.8809C64.03 20.1889 64.2999 19.8605 64.6905 19.6083C65.0812 19.3562 65.5215 19.2301 66.0116 19.2301C66.1039 19.2301 66.2193 19.2319 66.3578 19.2355C66.4963 19.239 66.6011 19.2443 66.6721 19.2514V20.5299C66.6295 20.5192 66.5318 20.5032 66.3791 20.4819C66.23 20.4571 66.0719 20.4446 65.905 20.4446C65.5073 20.4446 65.1522 20.5281 64.8397 20.695C64.5307 20.8583 64.2857 21.0856 64.1046 21.3768C63.927 21.6644 63.8383 21.9929 63.8383 22.3622V27.5398H62.5812Z" fill="black"/>
<path d="M71.2371 27.7102C70.4984 27.7102 69.8503 27.5345 69.2928 27.1829C68.7388 26.8313 68.3056 26.3395 67.9931 25.7074C67.6841 25.0753 67.5297 24.3367 67.5297 23.4915C67.5297 22.6392 67.6841 21.8953 67.9931 21.2596C68.3056 20.624 68.7388 20.1303 69.2928 19.7788C69.8503 19.4272 70.4984 19.2514 71.2371 19.2514C71.9757 19.2514 72.622 19.4272 73.176 19.7788C73.7335 20.1303 74.1667 20.624 74.4757 21.2596C74.7882 21.8953 74.9444 22.6392 74.9444 23.4915C74.9444 24.3367 74.7882 25.0753 74.4757 25.7074C74.1667 26.3395 73.7335 26.8313 73.176 27.1829C72.622 27.5345 71.9757 27.7102 71.2371 27.7102ZM71.2371 26.581C71.7981 26.581 72.2598 26.4372 72.622 26.1495C72.9842 25.8619 73.2523 25.4837 73.4263 25.0149C73.6003 24.5462 73.6873 24.0384 73.6873 23.4915C73.6873 22.9446 73.6003 22.435 73.4263 21.9627C73.2523 21.4904 72.9842 21.1087 72.622 20.8175C72.2598 20.5263 71.7981 20.3807 71.2371 20.3807C70.676 20.3807 70.2143 20.5263 69.8521 20.8175C69.4899 21.1087 69.2218 21.4904 69.0478 21.9627C68.8738 22.435 68.7868 22.9446 68.7868 23.4915C68.7868 24.0384 68.8738 24.5462 69.0478 25.0149C69.2218 25.4837 69.4899 25.8619 69.8521 26.1495C70.2143 26.4372 70.676 26.581 71.2371 26.581Z" fill="black"/>
<path d="M78.1205 22.6179V27.5398H76.8634V19.358H78.0779V20.6364H78.1844C78.3762 20.2209 78.6674 19.8871 79.058 19.635C79.4486 19.3793 79.9529 19.2514 80.5708 19.2514C81.1248 19.2514 81.6095 19.3651 82.025 19.5924C82.4405 19.8161 82.7636 20.157 82.9944 20.6151C83.2253 21.0696 83.3407 21.6449 83.3407 22.3409V27.5398H82.0836V22.4262C82.0836 21.7834 81.9167 21.2827 81.5829 20.924C81.249 20.5618 80.7909 20.3807 80.2086 20.3807C79.8073 20.3807 79.4486 20.4677 79.1326 20.6417C78.8201 20.8157 78.5733 21.0696 78.3922 21.4034C78.211 21.7372 78.1205 22.1421 78.1205 22.6179Z" fill="black"/>
<path d="M85.8083 27.5398V16.6307H87.1293V26.3679H92.2003V27.5398H85.8083Z" fill="black"/>
<path d="M94.0753 27.5398V19.358H95.3324V27.5398H94.0753ZM94.7145 17.9943C94.4695 17.9943 94.2582 17.9109 94.0806 17.744C93.9066 17.5771 93.8196 17.3764 93.8196 17.1421C93.8196 16.9077 93.9066 16.7071 94.0806 16.5401C94.2582 16.3732 94.4695 16.2898 94.7145 16.2898C94.9595 16.2898 95.1691 16.3732 95.3431 16.5401C95.5206 16.7071 95.6094 16.9077 95.6094 17.1421C95.6094 17.3764 95.5206 17.5771 95.3431 17.744C95.1691 17.9109 94.9595 17.9943 94.7145 17.9943Z" fill="black"/>
<path d="M98.892 22.6179V27.5398H97.6349V19.358H98.8494V20.6364H98.9559C99.1477 20.2209 99.4389 19.8871 99.8295 19.635C100.22 19.3793 100.724 19.2514 101.342 19.2514C101.896 19.2514 102.381 19.3651 102.796 19.5924C103.212 19.8161 103.535 20.157 103.766 20.6151C103.997 21.0696 104.112 21.6449 104.112 22.3409V27.5398H102.855V22.4262C102.855 21.7834 102.688 21.2827 102.354 20.924C102.021 20.5618 101.562 20.3807 100.98 20.3807C100.579 20.3807 100.22 20.4677 99.9041 20.6417C99.5916 20.8157 99.3447 21.0696 99.1636 21.4034C98.9825 21.7372 98.892 22.1421 98.892 22.6179Z" fill="black"/>
<path d="M107.581 24.5568L107.56 23.0014H107.816L111.395 19.358H112.95L109.137 23.2145H109.03L107.581 24.5568ZM106.409 27.5398V16.6307H107.666V27.5398H106.409ZM111.608 27.5398L108.412 23.4915L109.307 22.6179L113.206 27.5398H111.608Z" fill="black"/>
</g>
</svg>
