<svg width="36" height="19" viewBox="0 0 36 19" fill="none" xmlns="http://www.w3.org/2000/svg">
<path d="M6 11C7.65 11 9 9.65 9 8C9 6.35 7.65 5 6 5C4.35 5 3 6.35 3 8C3 9.65 4.35 11 6 11ZM7.695 12.65C7.14 12.56 6.585 12.5 6 12.5C4.515 12.5 3.105 12.815 1.83 13.37C0.72 13.85 0 14.93 0 16.145V18.5H6.75V16.085C6.75 14.84 7.095 13.67 7.695 12.65ZM30 11C31.65 11 33 9.65 33 8C33 6.35 31.65 5 30 5C28.35 5 27 6.35 27 8C27 9.65 28.35 11 30 11ZM36 16.145C36 14.93 35.28 13.85 34.17 13.37C32.895 12.815 31.485 12.5 30 12.5C29.415 12.5 28.86 12.56 28.305 12.65C28.905 13.67 29.25 14.84 29.25 16.085V18.5H36V16.145ZM24.36 11.975C22.605 11.195 20.445 10.625 18 10.625C15.555 10.625 13.395 11.21 11.64 11.975C10.02 12.695 9 14.315 9 16.085V18.5H27V16.085C27 14.315 25.98 12.695 24.36 11.975ZM12.105 15.5C12.24 15.155 12.3 14.915 13.47 14.465C14.925 13.895 16.455 13.625 18 13.625C19.545 13.625 21.075 13.895 22.53 14.465C23.685 14.915 23.745 15.155 23.895 15.5H12.105ZM18 3.5C18.825 3.5 19.5 4.175 19.5 5C19.5 5.825 18.825 6.5 18 6.5C17.175 6.5 16.5 5.825 16.5 5C16.5 4.175 17.175 3.5 18 3.5ZM18 0.5C15.51 0.5 13.5 2.51 13.5 5C13.5 7.49 15.51 9.5 18 9.5C20.49 9.5 22.5 7.49 22.5 5C22.5 2.51 20.49 0.5 18 0.5Z" fill="white"/>
</svg>
