<svg width="36" height="35" viewBox="0 0 36 35" fill="none" xmlns="http://www.w3.org/2000/svg">
<g clip-path="url(#clip0_78_1221)">
<path d="M33.646 31.9998V31.9985H33.6538V20.996C33.6538 15.6135 32.4505 11.4673 25.9159 11.4673C22.7746 11.4673 20.6665 13.1273 19.8059 14.701H19.715V11.9698H13.5193V31.9985H19.9707V22.081C19.9707 19.4698 20.4848 16.9448 23.8429 16.9448C27.1517 16.9448 27.201 19.9248 27.201 22.2485V31.9998H33.646Z" fill="#E22440"/>
<path d="M3.01416 11.9712H9.47339V31.9999H3.01416V11.9712Z" fill="#E22440"/>
<path d="M6.24106 2C4.17582 2 2.5 3.61375 2.5 5.6025C2.5 7.59125 4.17582 9.23875 6.24106 9.23875C8.3063 9.23875 9.98211 7.59125 9.98211 5.6025C9.98082 3.61375 8.305 2 6.24106 2V2Z" fill="#E22440"/>
</g>
<defs>
<clipPath id="clip0_78_1221">
<rect width="31.1538" height="30" fill="white" transform="translate(2.5 2)"/>
</clipPath>
</defs>
</svg>
