<svg width="24" height="20" viewBox="0 0 24 20" fill="none" xmlns="http://www.w3.org/2000/svg">
<path d="M23.3212 8.81673C23.4174 9.83767 22.9352 10.5952 22.1407 11.1797C21.9499 11.32 21.8909 11.4379 21.9247 11.6816C22.1737 13.5082 21.6376 15.1094 20.4277 16.4867C18.902 18.223 16.9201 19.1707 14.6945 19.6692C13.148 20.0152 11.5825 20.0892 10.0082 19.8938C8.20848 19.6692 6.492 19.1785 4.94465 18.2092C3.58898 17.3604 2.4727 16.2844 1.82393 14.796C1.3677 13.7493 1.25061 12.6612 1.43882 11.5395C1.45877 11.419 1.43449 11.3527 1.32347 11.2796C0.650404 10.8319 0.162087 10.2423 0.0363217 9.42706C-0.28373 7.35333 1.57413 6.09136 3.13883 6.50283C3.59158 6.62163 4.01051 6.86696 4.43985 7.06409C4.5448 7.1123 4.61505 7.14329 4.72954 7.06581C5.9846 6.21618 7.36455 5.66008 8.84858 5.34846C9.67603 5.17458 10.5104 5.05578 11.357 5.06181C11.5244 5.06267 11.5573 4.97314 11.5963 4.84919C12.0474 3.4228 12.5019 1.99813 12.9546 0.572604C13.1151 0.0664381 13.3588 -0.0755984 13.8801 0.0354481C15.1351 0.301443 16.3902 0.563134 17.6435 0.836016C17.7988 0.869588 17.8872 0.841181 17.9913 0.720665C19.0555 -0.507733 20.707 0.0535252 21.2387 0.991825C21.903 2.16599 21.1589 3.63198 19.7876 3.85149C18.7901 4.01074 17.8022 3.3832 17.5368 2.39841C17.4804 2.19009 17.3816 2.12123 17.1829 2.08077C16.215 1.88536 15.2513 1.67274 14.2869 1.467C14.2105 1.45065 14.1325 1.44204 14.0353 1.42654C13.6311 2.67474 13.2313 3.91089 12.8202 5.17974C13.063 5.20471 13.2747 5.22709 13.4863 5.24861C15.3762 5.43885 17.1292 6.02163 18.7199 7.06237C18.8205 7.12779 18.8803 7.12435 18.9783 7.04515C19.8362 6.3496 20.7928 6.22651 21.7929 6.66381C22.7166 7.07098 23.2266 7.81559 23.3212 8.81673ZM15.2661 12.8187C16.1048 12.8178 16.8507 12.0801 16.8473 11.2554C16.8438 10.3774 16.1265 9.65948 15.2574 9.66206C14.4135 9.66464 13.678 10.3809 13.6788 11.1978C13.6797 12.0913 14.3935 12.8196 15.2661 12.8187ZM15.6408 15.8092C15.8229 15.6 15.7761 15.3513 15.6087 15.1868C15.3762 14.9579 15.0761 14.8942 14.8428 15.0267C14.7492 15.0801 14.6633 15.1464 14.5713 15.2023C12.9642 16.1716 11.285 16.3223 9.54506 15.6043C9.18858 15.4571 8.86072 15.2385 8.52506 15.0448C8.27526 14.9002 7.96128 14.951 7.7219 15.1911C7.56404 15.3487 7.54409 15.6198 7.70195 15.8419C7.79128 15.9667 7.91185 16.0795 8.03848 16.1673C9.12613 16.9248 10.3491 17.2408 11.7637 17.2571C11.9173 17.2459 12.1688 17.2322 12.4203 17.2089C13.2998 17.1289 14.1385 16.899 14.8975 16.4462C15.1742 16.2792 15.4274 16.052 15.6408 15.8092ZM8.12521 12.8187C8.91363 12.817 9.66909 12.0491 9.66562 11.252C9.66215 10.3877 8.93098 9.66206 8.06537 9.66292C7.21103 9.66292 6.48332 10.3912 6.48506 11.2443C6.48766 12.1068 7.23098 12.8204 8.12521 12.8187Z" fill="#C0253C"/>
</svg>
