<svg width="18" height="18" viewBox="0 0 18 18" fill="none" xmlns="http://www.w3.org/2000/svg">
<path d="M17.6045 3.70098C16.969 3.97977 16.2918 4.16455 15.5857 4.25428C16.3121 3.82061 16.8664 3.13915 17.1271 2.31775C16.4499 2.72151 15.7022 3.0067 14.9053 3.16585C14.2623 2.48118 13.3459 2.05713 12.3461 2.05713C10.4064 2.05713 8.84477 3.63156 8.84477 5.56167C8.84477 5.83938 8.86827 6.10642 8.92594 6.36063C6.01315 6.21857 3.43575 4.82252 1.7043 2.69587C1.40202 3.22032 1.22471 3.82061 1.22471 4.46683C1.22471 5.68023 1.84957 6.75584 2.78098 7.37856C2.21807 7.36788 1.66585 7.20446 1.19801 6.94704C1.19801 6.95772 1.19801 6.9716 1.19801 6.98549C1.19801 8.68809 2.41247 10.1023 4.00506 10.4281C3.71987 10.5061 3.40904 10.5434 3.08647 10.5434C2.86216 10.5434 2.63571 10.5306 2.42316 10.4836C2.87711 11.8711 4.16528 12.8912 5.69698 12.9243C4.50495 13.8568 2.9914 14.4186 1.35289 14.4186C1.06556 14.4186 0.789982 14.4058 0.514404 14.3706C2.0664 15.3714 3.90572 15.9428 5.88925 15.9428C12.3365 15.9428 15.8613 10.6022 15.8613 5.9729C15.8613 5.81802 15.856 5.66848 15.8485 5.52001C16.5439 5.02654 17.1281 4.41022 17.6045 3.70098Z" fill="#E22440"/>
</svg>
