<svg width="18" height="16" viewBox="0 0 18 16" fill="none" xmlns="http://www.w3.org/2000/svg">
<path d="M12.506 5.10382C10.8348 5.19078 9.38222 5.6976 8.20211 6.84211C7.00958 7.9982 6.46548 9.41516 6.61455 11.1717C5.96114 11.0905 5.36653 11.0019 4.76861 10.9514C4.56157 10.934 4.31644 10.9588 4.1417 11.0574C3.56117 11.3853 3.00382 11.7555 2.34379 12.1679C2.4647 11.6197 2.54337 11.1402 2.6825 10.6789C2.78436 10.3394 2.73716 10.1514 2.42494 9.93027C0.419168 8.51414 -0.426372 6.39491 0.206334 4.21273C0.791007 2.19454 2.22867 0.969703 4.18228 0.332029C6.84892 -0.539183 9.84516 0.34942 11.4667 2.46617C12.0513 3.23055 12.4108 4.08934 12.506 5.10382ZM4.81498 4.42391C4.83072 4.02474 4.48455 3.66533 4.07379 3.6529C3.65309 3.64048 3.30775 3.9618 3.29533 4.37671C3.28291 4.79658 3.60423 5.13364 4.02741 5.1444C4.44728 5.15517 4.79925 4.83302 4.81498 4.42391ZM8.82736 3.6529C8.41495 3.66036 8.06712 4.01149 8.07375 4.41232C8.0812 4.82722 8.42323 5.15268 8.84724 5.14771C9.27208 5.14274 9.59506 4.81397 9.59092 4.38996C9.58761 3.97423 9.24724 3.64545 8.82736 3.6529Z" fill="white"/>
<path d="M16.2592 15.5212C15.73 15.286 15.2447 14.9324 14.7279 14.8785C14.2128 14.8247 13.6721 15.122 13.1338 15.1767C11.4932 15.3448 10.0232 14.8876 8.81165 13.7663C6.50691 11.6347 6.83651 8.36596 9.50233 6.61856C11.8725 5.06578 15.3482 5.58338 17.0186 7.73822C18.477 9.61812 18.3055 12.1133 16.525 13.6926C16.0099 14.1497 15.8244 14.5257 16.1548 15.1286C16.217 15.2404 16.2236 15.3812 16.2592 15.5212ZM10.2361 9.69017C10.5731 9.69017 10.8506 9.42682 10.863 9.0939C10.8762 8.74194 10.593 8.44629 10.2402 8.44463C9.89073 8.44298 9.59839 8.74277 9.61081 9.08976C9.62241 9.42185 9.90149 9.68934 10.2361 9.69017ZM14.1184 8.44629C13.7913 8.4438 13.5139 8.7113 13.5006 9.04173C13.4865 9.39452 13.7607 9.6852 14.1101 9.68603C14.448 9.68686 14.7155 9.43179 14.7271 9.09556C14.7412 8.74111 14.4662 8.44877 14.1184 8.44629Z" fill="white"/>
</svg>
