<svg width="16" height="16" viewBox="0 0 16 16" fill="none" xmlns="http://www.w3.org/2000/svg">
<g clip-path="url(#clip0_494_20995)">
<path d="M14.7085 4.53341C14.5471 3.93388 14.0744 3.46118 13.4748 3.29976C12.3795 3 7.99835 3 7.99835 3C7.99835 3 3.61718 3 2.52188 3.28824C1.93388 3.44965 1.44965 3.93388 1.28824 4.53341C1 5.62871 1 7.9 1 7.9C1 7.9 1 10.1828 1.28824 11.2666C1.44965 11.8661 1.92235 12.3388 2.52188 12.5002C3.62871 12.8 7.99835 12.8 7.99835 12.8C7.99835 12.8 12.3795 12.8 13.4748 12.5118C14.0744 12.3504 14.5471 11.8776 14.7085 11.2781C14.9967 10.1828 14.9967 7.91153 14.9967 7.91153C14.9967 7.91153 15.0082 5.62871 14.7085 4.53341Z" fill="white"/>
<path d="M10.2468 7.89999L6.60352 5.80164V9.99834L10.2468 7.89999Z" fill="#282829"/>
</g>
<defs>
<clipPath id="clip0_494_20995">
<rect width="13.9968" height="9.8" fill="white" transform="translate(1 3)"/>
</clipPath>
</defs>
</svg>
