<svg width="82" height="44" viewBox="0 0 82 44" fill="none" xmlns="http://www.w3.org/2000/svg">
<rect width="81.6" height="43.8785" rx="6.42789" fill="#FBFBFB"/>
<path d="M27.0998 17.1694V26.6168H25.1858V17.1694H27.0998Z" fill="black"/>
<path d="M34.9004 20.2438V26.63C34.9004 28.6092 33.3665 29.8231 31.4918 29.8231C29.6826 29.8231 28.3323 28.6883 28.2012 27.0918L30.1021 27.105C30.1808 27.7779 30.7707 28.0814 31.5573 28.0814C32.2915 28.0814 32.9864 27.6855 32.9864 26.6432V25.8383C32.5013 26.155 31.872 26.3397 31.1772 26.3397C29.4335 26.3397 28.0308 24.9147 28.0308 23.2785C28.0308 21.3785 29.4335 20.0986 31.1772 20.0986C31.872 20.0986 32.5013 20.2834 32.9864 20.6V20.257L34.9004 20.2438ZM32.9864 24.0042V22.4473C32.5931 21.8799 32.0555 21.682 31.518 21.682C30.5741 21.682 29.9317 22.3153 29.9317 23.2785C29.9317 23.991 30.5872 24.7563 31.518 24.7563C32.0555 24.7695 32.6061 24.5716 32.9864 24.0042Z" fill="black"/>
<path d="M42.5306 23.3577C42.5306 25.3237 41.0885 26.7223 39.1482 26.7223C37.1948 26.7223 35.7527 25.3237 35.7527 23.3577C35.7527 21.4049 37.1948 19.9798 39.1482 19.9798C41.0885 19.9798 42.5306 21.4049 42.5306 23.3577ZM40.6821 23.3577C40.6821 22.4341 40.079 21.682 39.1482 21.682C38.2043 21.682 37.6012 22.4341 37.6012 23.3577C37.6012 24.3077 38.2043 25.0202 39.1482 25.0202C40.079 25.007 40.6821 24.3077 40.6821 23.3577Z" fill="black"/>
<path d="M54.4082 20.257V26.6036L52.5335 26.6168V26.2605C52.0484 26.5772 51.4191 26.7751 50.7243 26.7751C48.9806 26.7751 47.5779 25.2841 47.5779 23.4501C47.5779 21.6028 48.9806 20.1118 50.7243 20.1118C51.4191 20.1118 52.0484 20.3098 52.5335 20.6264V20.2702L54.4082 20.257ZM52.5203 24.4133V22.4737C52.127 21.9063 51.5764 21.748 51.0258 21.748C50.0687 21.748 49.4001 22.5265 49.4001 23.4501C49.4001 24.3605 50.0687 25.139 51.0258 25.139C51.5764 25.139 52.127 24.9807 52.5203 24.4133Z" fill="black"/>
<path d="M62.1172 23.173V26.6168H60.2687V23.3973C60.2687 22.3549 59.7574 21.814 58.8396 21.814C58.3677 21.814 57.8302 22.091 57.3844 22.6188V26.6168H55.4966V20.2702H57.3844V20.7452C57.8957 20.3362 58.4988 20.1118 59.2067 20.1118C60.8848 20.1118 62.1172 21.2994 62.1172 23.173Z" fill="black"/>
<path d="M24.3076 26.6036H22.3674L21.0957 21.8667L18.3688 26.6036H16.1925L20.4009 19.2674L19.7191 16.7076L14.0425 26.6036H11.8662L19.0636 14.0555H20.9777L21.8036 17.1826H23.7701L22.4329 19.5312L24.3076 26.6036Z" fill="black"/>
<path d="M69.7339 17.1694V26.6168H67.8199V26.2605C67.3348 26.5772 66.7055 26.7751 66.0107 26.7751C64.267 26.7751 62.8643 25.2841 62.8643 23.4369C62.8643 21.6028 64.267 20.1118 66.0107 20.1118C66.7055 20.1118 67.3348 20.3098 67.8199 20.6264V17.1694H69.7339ZM67.8199 24.4133V22.4605C67.4266 21.8931 66.8628 21.7348 66.3122 21.7348C65.3421 21.7348 64.6734 22.5133 64.6734 23.4369C64.6734 24.3737 65.3421 25.1522 66.3122 25.1522C66.8628 25.1522 67.4134 24.9938 67.8199 24.4133Z" fill="black"/>
<path d="M47.224 21.8667C46.8045 21.9195 45.8343 21.9723 45.2575 22.764V26.6168H43.3696V20.2834H45.2575V20.7584C45.6901 20.3889 46.3325 20.1646 47.224 20.257" fill="black"/>
</svg>
