<svg width="210" height="44" viewBox="0 0 210 44" fill="none" xmlns="http://www.w3.org/2000/svg">
<rect width="210" height="44" rx="10" fill="#FBFBFB"/>
<path d="M104.632 16.5252C104.673 16.5252 104.713 16.5415 104.742 16.5706C104.771 16.5997 104.787 16.6392 104.787 16.6803V23.1136C104.787 26.1627 102.878 27.6655 100.361 27.6655C97.8438 27.6655 95.9346 26.1627 95.9346 23.1136V16.6772C95.9346 16.6361 95.9509 16.5966 95.98 16.5675C96.0091 16.5384 96.0485 16.5221 96.0897 16.5221H97.5848C97.6259 16.5221 97.6653 16.5384 97.6944 16.5675C97.7235 16.5966 97.7399 16.6361 97.7399 16.6772V23.0003C97.7399 25.1282 98.8503 25.9719 100.369 25.9719C101.887 25.9719 102.985 25.1282 102.985 23.0003V16.6772C102.985 16.6361 103.001 16.5966 103.031 16.5675C103.06 16.5384 103.099 16.5221 103.14 16.5221L104.632 16.5252Z" fill="#101820"/>
<path d="M130.838 22C130.823 25.2213 128.366 27.6625 125.16 27.6625C121.954 27.6625 119.482 25.2213 119.482 22C119.482 18.7787 121.954 16.3376 125.16 16.3376C128.366 16.3376 130.823 18.7787 130.838 22ZM121.266 22C121.266 24.283 122.939 25.9719 125.16 25.9719C127.381 25.9719 129.037 24.283 129.037 22C129.037 19.717 127.364 18.0281 125.16 18.0281C122.956 18.0281 121.266 19.717 121.266 22Z" fill="#101820"/>
<path d="M146.375 27.4748H144.824C144.8 27.474 144.776 27.4675 144.754 27.4557C144.733 27.4439 144.714 27.4272 144.701 27.4069C144.687 27.3866 144.678 27.3634 144.675 27.339C144.672 27.3147 144.675 27.29 144.683 27.267L148.779 16.6865C148.796 16.6436 148.825 16.6067 148.863 16.5807C148.901 16.5547 148.946 16.5407 148.992 16.5407H150.929C150.975 16.5405 151.02 16.5544 151.058 16.5804C151.096 16.6065 151.125 16.6435 151.141 16.6865L155.24 27.2732C155.249 27.2962 155.251 27.3209 155.248 27.3452C155.245 27.3696 155.237 27.3928 155.223 27.4131C155.209 27.4334 155.191 27.4501 155.169 27.4619C155.148 27.4737 155.124 27.4802 155.099 27.481H153.545C153.514 27.4806 153.484 27.4709 153.459 27.4532C153.433 27.4355 153.414 27.4106 153.402 27.3817L150.099 18.6701C150.087 18.6426 150.067 18.6192 150.042 18.6028C150.017 18.5864 149.987 18.5776 149.957 18.5776C149.927 18.5776 149.898 18.5864 149.872 18.6028C149.847 18.6192 149.827 18.6426 149.815 18.6701L146.512 27.3817C146.5 27.4085 146.481 27.4315 146.457 27.4479C146.433 27.4644 146.404 27.4737 146.375 27.4748Z" fill="#101820"/>
<path d="M84.3737 27.4748H82.8228C82.7983 27.474 82.7743 27.4675 82.7528 27.4557C82.7313 27.4439 82.7129 27.4272 82.6992 27.4069C82.6854 27.3866 82.6766 27.3634 82.6736 27.339C82.6705 27.3147 82.6733 27.29 82.6816 27.267L86.7776 16.6865C86.794 16.6435 86.8232 16.6065 86.8611 16.5804C86.8991 16.5544 86.9441 16.5405 86.9901 16.5407H88.9272C88.9732 16.5407 89.0181 16.5547 89.056 16.5807C89.094 16.6067 89.1231 16.6436 89.1397 16.6865L93.2326 27.2732C93.241 27.2962 93.2437 27.3209 93.2407 27.3452C93.2376 27.3696 93.2289 27.3928 93.2151 27.4131C93.2013 27.4334 93.1829 27.4501 93.1615 27.4619C93.14 27.4737 93.116 27.4802 93.0915 27.481H91.5406C91.5096 27.4806 91.4794 27.4709 91.454 27.4532C91.4286 27.4355 91.409 27.4106 91.3979 27.3817L88.0959 18.6639C88.0838 18.6364 88.0639 18.613 88.0387 18.5966C88.0135 18.5802 87.9841 18.5714 87.954 18.5714C87.9239 18.5714 87.8945 18.5802 87.8693 18.5966C87.8441 18.613 87.8242 18.6364 87.8121 18.6639L84.5086 27.3755C84.498 27.4032 84.4796 27.4273 84.4557 27.4449C84.4318 27.4625 84.4033 27.4729 84.3737 27.4748Z" fill="#101820"/>
<path d="M141.823 27.2282L138.751 23.3043C140.485 22.9755 141.499 21.8046 141.499 20.0086C141.499 17.9459 140.156 16.5407 137.777 16.5407H133.496C133.436 16.5407 133.378 16.5647 133.335 16.6075C133.292 16.6502 133.268 16.7082 133.268 16.7687C133.268 17.1558 133.422 17.527 133.696 17.8007C133.969 18.0744 134.341 18.2281 134.728 18.2281H137.595C139.032 18.2281 139.719 18.9617 139.719 20.0241C139.719 21.0865 139.047 21.8356 137.595 21.8356H133.496C133.436 21.8356 133.378 21.8596 133.335 21.9024C133.292 21.9451 133.268 22.0031 133.268 22.0636V27.3228C133.268 27.3639 133.285 27.4034 133.314 27.4325C133.343 27.4615 133.382 27.4779 133.423 27.4779H134.884C134.926 27.4779 134.965 27.4615 134.994 27.4325C135.023 27.4034 135.039 27.3639 135.039 27.3228V23.3958H136.727L139.394 26.8777C139.536 27.0629 139.718 27.2129 139.927 27.3162C140.136 27.4195 140.366 27.4732 140.6 27.4732H141.71C141.737 27.471 141.764 27.4615 141.786 27.4458C141.809 27.43 141.827 27.4086 141.838 27.3837C141.85 27.3588 141.854 27.3313 141.852 27.3039C141.849 27.2766 141.839 27.2505 141.823 27.2282Z" fill="#101820"/>
<path d="M117.019 27.2282L113.947 23.3043C115.681 22.9755 116.697 21.8046 116.697 20.0086C116.697 17.9459 115.354 16.5407 112.974 16.5407H108.692C108.632 16.5407 108.574 16.5647 108.531 16.6075C108.488 16.6502 108.464 16.7082 108.464 16.7687C108.465 17.1556 108.619 17.5266 108.892 17.8002C109.166 18.0738 109.537 18.2277 109.924 18.2281H112.791C114.229 18.2281 114.916 18.9617 114.916 20.0241C114.916 21.0865 114.245 21.8356 112.791 21.8356H108.692C108.632 21.8356 108.574 21.8596 108.531 21.9024C108.488 21.9451 108.464 22.0031 108.464 22.0636V27.3228C108.464 27.3639 108.481 27.4034 108.51 27.4325C108.539 27.4615 108.578 27.4779 108.619 27.4779H110.082C110.123 27.4779 110.163 27.4615 110.192 27.4325C110.221 27.4034 110.237 27.3639 110.237 27.3228V23.3958H111.923L114.591 26.8777C114.732 27.0626 114.915 27.2125 115.124 27.3158C115.333 27.419 115.563 27.4729 115.796 27.4732H116.906C116.933 27.471 116.96 27.4615 116.982 27.4458C117.005 27.43 117.023 27.4086 117.034 27.3837C117.046 27.3588 117.05 27.3313 117.048 27.3039C117.045 27.2766 117.035 27.2505 117.019 27.2282Z" fill="#101820"/>
<path d="M65.9177 12.5393C66.3787 12.5378 66.831 12.6655 67.2232 12.9078C67.6155 13.1501 67.932 13.4974 68.1371 13.9103L75.1163 27.8687C75.3056 28.2471 75.395 28.6675 75.3761 29.0902C75.3572 29.5128 75.2305 29.9236 75.0081 30.2835C74.7857 30.6435 74.475 30.9405 74.1055 31.1466C73.736 31.3526 73.3199 31.4607 72.8969 31.4607H58.9385C58.5154 31.4607 58.0994 31.3526 57.7298 31.1466C57.3603 30.9405 57.0496 30.6435 56.8272 30.2835C56.6048 29.9236 56.4782 29.5128 56.4593 29.0902C56.4403 28.6675 56.5298 28.2471 56.7191 27.8687L63.6983 13.9103C63.9033 13.4974 64.2199 13.1501 64.6121 12.9078C65.0044 12.6655 65.4566 12.5378 65.9177 12.5393ZM65.9177 10.8333C65.1401 10.8332 64.3778 11.0496 63.7163 11.4583C63.0547 11.867 62.5201 12.4518 62.1722 13.1473L55.193 27.1057C54.8736 27.7441 54.7227 28.4537 54.7547 29.1668C54.7867 29.88 55.0005 30.5732 55.3758 31.1805C55.7511 31.7878 56.2754 32.2891 56.8989 32.6367C57.5225 32.9843 58.2246 33.1668 58.9385 33.1667H72.8969C73.6108 33.1668 74.3129 32.9843 74.9364 32.6367C75.56 32.2891 76.0843 31.7878 76.4596 31.1805C76.8349 30.5732 77.0487 29.88 77.0807 29.1668C77.1126 28.4537 76.9618 27.7441 76.6424 27.1057L69.6632 13.1473C69.3153 12.4518 68.7806 11.867 68.1191 11.4583C67.4575 11.0496 66.6953 10.8332 65.9177 10.8333Z" fill="#70D44B"/>
</svg>
