<svg width="210" height="43" viewBox="0 0 210 43" fill="none" xmlns="http://www.w3.org/2000/svg">
<rect width="210" height="43" rx="10" fill="#FBFBFB"/>
<path d="M162.168 17.7655C162.36 17.7655 162.494 17.8423 162.571 17.9767C162.609 18.0535 162.667 18.2071 162.513 18.4183L160.344 21.74V24.0057C160.344 24.3129 160.152 24.5049 159.864 24.5049H159.556C159.249 24.5049 159.076 24.3129 159.076 24.0057V21.74L156.888 18.4183C156.753 18.1879 156.792 18.0343 156.83 17.9575C156.888 17.8231 157.041 17.7463 157.233 17.7463H157.636C157.886 17.7463 158.04 17.8423 158.155 18.0535L159.71 20.5688L161.285 18.0535C161.4 17.8615 161.573 17.7655 161.803 17.7655H162.168ZM109.346 17.7655H105.929C105.622 17.7655 105.449 17.9575 105.449 18.2647V24.0249C105.449 24.3321 105.641 24.5241 105.929 24.5241H106.236C106.543 24.5241 106.716 24.3321 106.716 24.0249V21.7592H108.943C109.25 21.7592 109.423 21.548 109.423 21.26V21.1256C109.423 20.8184 109.231 20.6264 108.943 20.6264H106.716V18.8599H109.346C109.654 18.8599 109.827 18.6679 109.827 18.3607V18.2263C109.846 17.9383 109.654 17.7655 109.346 17.7655ZM96.1172 17.7655H94.3699C94.0627 17.7655 93.8899 17.9575 93.8899 18.2647V24.0249C93.8899 24.3321 94.0819 24.5241 94.3699 24.5241H96.1364C98.1717 24.5241 99.5733 23.1417 99.5733 21.164C99.5541 19.1479 98.1525 17.7655 96.1172 17.7655ZM98.2485 21.1256C98.2485 22.4505 97.3652 23.3721 96.098 23.3721H95.1571V18.8599H96.098C97.3652 18.8791 98.2485 19.8008 98.2485 21.1256ZM117.564 17.7655H117.872C118.179 17.7655 118.352 17.9575 118.352 18.2647V24.0249C118.352 24.3321 118.16 24.5241 117.872 24.5241H117.564C117.257 24.5241 117.084 24.3321 117.084 24.0249V18.2647C117.065 17.9383 117.257 17.7655 117.564 17.7655ZM130.429 17.7655H130.122C129.814 17.7655 129.642 17.9575 129.642 18.2647V22.1049L126.666 18.0535C126.531 17.8615 126.358 17.7847 126.147 17.7847H126.013C125.706 17.7847 125.533 17.9767 125.533 18.2839V24.0441C125.533 24.3513 125.725 24.5433 126.013 24.5433H126.32C126.627 24.5433 126.8 24.3513 126.8 24.0441V20.1848L129.776 24.2553C129.91 24.4473 130.083 24.5241 130.295 24.5241H130.429C130.736 24.5241 130.909 24.3321 130.909 24.0249V18.2647C130.909 17.9383 130.717 17.7655 130.429 17.7655ZM138.551 17.7655H138.858C139.146 17.7655 139.338 17.9575 139.338 18.2647V24.0249C139.338 24.3321 139.146 24.5241 138.858 24.5241H138.551C138.244 24.5241 138.071 24.3321 138.071 24.0249V18.2647C138.071 17.9383 138.244 17.7655 138.551 17.7655ZM150.993 17.7655H146.481C146.193 17.7655 146.001 17.9575 146.001 18.2647V18.3991C146.001 18.6871 146.193 18.8983 146.481 18.8983H148.094V24.0249C148.094 24.3321 148.286 24.5241 148.574 24.5241H148.881C149.188 24.5241 149.361 24.3321 149.361 24.0249V18.8983H150.974C151.281 18.8983 151.454 18.7063 151.454 18.3991V18.2647C151.492 17.9383 151.3 17.7655 150.993 17.7655Z" fill="#181818"/>
<path d="M75.8412 12.2932C73.7484 12.2932 71.4635 13.4069 69.0442 15.6149C67.8921 16.6518 66.8937 17.7654 66.1641 18.6679C66.1641 18.6679 67.3353 19.9927 68.6218 21.4136C69.313 20.5495 70.3306 19.3783 71.4827 18.3222C73.6332 16.3638 75.0348 15.9606 75.8412 15.9606C78.8558 15.9606 81.3135 18.4375 81.3135 21.5096C81.3135 24.5433 78.875 27.0202 75.8412 27.0586C75.7068 27.0586 75.5148 27.0394 75.3228 27.001C76.2061 27.4042 77.1469 27.6922 78.0493 27.6922C83.5791 27.6922 84.6544 23.9481 84.7312 23.6793C84.8848 22.988 84.9808 22.2776 84.9808 21.5288C84.9424 16.4214 80.8718 12.2932 75.8412 12.2932Z" fill="url(#paint0_linear_2630_7459)"/>
<path d="M56.5253 30.7067C58.6182 30.7067 60.9031 29.593 63.3224 27.385C64.4744 26.3481 65.4729 25.2345 66.2025 24.332C66.2025 24.332 65.0312 23.0072 63.7448 21.5863C63.0536 22.4504 62.0359 23.6216 60.8839 24.6776C58.7334 26.6361 57.3317 27.0393 56.5253 27.0393C53.5108 27.0393 51.0531 24.5624 51.0531 21.4903C51.0531 18.4566 53.4916 15.9797 56.5253 15.9413C56.6597 15.9413 56.8517 15.9605 57.0437 15.9989C56.1605 15.5957 55.2196 15.3077 54.3172 15.3077C48.7874 15.3077 47.7122 19.0518 47.6354 19.3206C47.4817 20.0119 47.3857 20.7223 47.3857 21.4711C47.4049 26.5593 51.4947 30.7067 56.5253 30.7067Z" fill="url(#paint1_linear_2630_7459)"/>
<path d="M60.7303 18.3991C60.1351 17.823 57.1782 15.4805 54.3365 15.4037C49.2867 15.2885 47.8082 18.8599 47.693 19.3399C48.6531 15.3077 52.2628 12.3124 56.5446 12.2932C60.0391 12.2932 63.5529 15.6341 66.1642 18.6679C66.1642 18.6679 66.1642 18.6487 66.1834 18.6487C66.1834 18.6487 67.3546 19.9735 68.6411 21.3944C68.6411 21.3944 70.1003 23.084 71.6556 24.5817C72.2508 25.1577 75.2077 27.481 78.0302 27.5578C83.2144 27.6922 84.6353 23.9097 84.7313 23.6217C83.7712 27.673 80.1615 30.6875 75.8797 30.7067C72.3852 30.7067 68.8715 27.3466 66.241 24.3321L66.2218 24.3513C66.2218 24.3513 65.0505 23.0264 63.7641 21.6056C63.7449 21.5864 62.2856 19.8967 60.7303 18.3991ZM47.6738 19.3591C47.6738 19.3591 47.6738 19.3399 47.6738 19.3207C47.693 19.3399 47.693 19.3591 47.6738 19.3591Z" fill="#29ABE2"/>
<defs>
<linearGradient id="paint0_linear_2630_7459" x1="71.0359" y1="13.6498" x2="83.6619" y2="26.6578" gradientUnits="userSpaceOnUse">
<stop offset="0.21" stop-color="#F15A24"/>
<stop offset="0.6841" stop-color="#FBB03B"/>
</linearGradient>
<linearGradient id="paint1_linear_2630_7459" x1="61.329" y1="29.3453" x2="48.7028" y2="16.3374" gradientUnits="userSpaceOnUse">
<stop offset="0.21" stop-color="#ED1E79"/>
<stop offset="0.8929" stop-color="#522785"/>
</linearGradient>
</defs>
</svg>
