<svg width="210" height="44" viewBox="0 0 210 44" fill="none" xmlns="http://www.w3.org/2000/svg">
<rect width="210" height="44" rx="10" fill="#FBFBFB"/>
<g clip-path="url(#clip0_2630_7515)">
<path d="M71.5093 11.5689C72.0263 11.2972 72.8129 11.2972 73.3298 11.5689L78.6049 14.3409C78.9162 14.5045 79.0872 14.7484 79.1179 15H79.1229V28.9339C79.116 29.2085 78.9434 29.4811 78.6049 29.6591L73.3298 32.4312C72.8129 32.7029 72.0263 32.7029 71.5093 32.4312L66.2343 29.6591C65.8971 29.482 65.7354 29.2073 65.7274 28.9339C65.7266 28.907 65.7265 28.8846 65.7272 28.866L65.7272 15.0895C65.7267 15.0744 65.7266 15.0594 65.727 15.0444L65.7274 15L65.7297 15C65.7531 14.7456 65.9164 14.508 66.2343 14.3409L71.5093 11.5689ZM78.2925 22.7737L73.3298 25.3816C72.8129 25.6533 72.0263 25.6533 71.5093 25.3816L66.5575 22.7795V28.9064L71.5093 31.4948C71.7889 31.6435 72.0792 31.7884 72.3629 31.8069L72.4196 31.8087C72.7153 31.8097 73.0024 31.6603 73.2935 31.5189L78.2925 28.8841V22.7737ZM64.8694 28.631C64.8694 29.1648 64.9317 29.5157 65.0555 29.763C65.1582 29.9679 65.3122 30.1244 65.5933 30.315L65.6094 30.3258C65.6711 30.3672 65.739 30.4105 65.8218 30.4614L65.9194 30.5209L66.219 30.7008L65.7892 31.4077L65.4539 31.2062L65.3975 31.1718C65.3006 31.1121 65.2202 31.0611 65.1452 31.0107C64.3439 30.4732 64.045 29.8873 64.0392 28.6681L64.0391 28.631H64.8694ZM72.0043 19.039C71.9659 19.0521 71.9299 19.0673 71.8971 19.0845L66.622 21.8566C66.6165 21.8595 66.6112 21.8624 66.6062 21.8652L66.6017 21.8678L66.61 21.8725L66.622 21.879L71.8971 24.6511C71.9299 24.6684 71.9659 24.6835 72.0043 24.6967V19.039ZM72.8349 19.039V24.6967C72.8733 24.6835 72.9093 24.6684 72.9421 24.6511L78.2171 21.879C78.2227 21.8761 78.2279 21.8732 78.233 21.8704L78.2374 21.8678L78.2291 21.8631L78.2171 21.8566L72.9421 19.0845C72.9093 19.0673 72.8733 19.0521 72.8349 19.039ZM78.2925 15.9885L73.5604 18.4752L78.2925 20.9619V15.9885ZM66.5575 15.9943V20.9561L71.2786 18.4752L66.5575 15.9943ZM72.9421 12.2993C72.6677 12.1552 72.1714 12.1552 71.8971 12.2993L66.622 15.0714C66.6165 15.0743 66.6112 15.0772 66.6062 15.0801L66.6017 15.0826L66.61 15.0874L66.622 15.0939L71.8971 17.8659C72.1714 18.0101 72.6677 18.0101 72.9421 17.8659L78.2171 15.0939C78.2227 15.0909 78.2279 15.0881 78.233 15.0852L78.2374 15.0826L78.2291 15.0779L78.2171 15.0714L72.9421 12.2993ZM79.0721 12.6033L79.4074 12.8049L79.4638 12.8393C79.5607 12.8988 79.6411 12.95 79.7161 13.0003C80.5174 13.5378 80.8163 14.1238 80.8221 15.3429L80.8222 15.38H79.9919C79.9919 14.8462 79.9296 14.4953 79.8058 14.2481C79.7031 14.0432 79.5492 13.8866 79.268 13.6961L79.2519 13.6853C79.1902 13.6439 79.1223 13.6005 79.0395 13.5496L78.9419 13.4901L78.6423 13.3102L79.0721 12.6033Z" fill="#1F6AF8"/>
<path d="M89.257 28.353V20.5823H91.4119V19.1595H89.257V18.138C89.257 16.9828 89.7623 16.4052 90.7728 16.4052C91.0649 16.4052 91.3755 16.4538 91.7042 16.5511V15.0371C91.3024 14.9155 90.858 14.8547 90.371 14.8547C89.4336 14.8547 88.7061 15.1222 88.1887 15.6573C87.6712 16.1923 87.4125 16.9706 87.4125 17.9921V19.1595H85.6411V20.5823H87.4125V28.353H89.257ZM96.7444 28.4806C97.4507 28.4806 98.0685 28.3347 98.5981 28.0428C99.1276 27.751 99.5265 27.3314 99.7943 26.7842V28.353H101.621V19.1595H99.7943V20.6553C99.5142 20.1081 99.1125 19.6855 98.5889 19.3875C98.0655 19.0896 97.4507 18.9406 96.7444 18.9406C95.9531 18.9406 95.2469 19.1413 94.6261 19.5426C94.0051 19.9439 93.5212 20.5094 93.1743 21.239C92.8273 21.9686 92.6538 22.8077 92.6538 23.7562C92.6538 24.7048 92.8242 25.5347 93.1651 26.2461C93.5059 26.9575 93.9839 27.5078 94.5987 27.8969C95.2135 28.286 95.9287 28.4806 96.7444 28.4806ZM97.1828 27.0214C96.3426 27.0214 95.6883 26.7356 95.2197 26.164C94.7509 25.5925 94.5164 24.7899 94.5164 23.7562C94.5164 22.7104 94.7509 21.8926 95.2197 21.3028C95.6883 20.713 96.3367 20.4182 97.1645 20.4182C98.0045 20.4182 98.6529 20.7039 99.1094 21.2755C99.566 21.847 99.7943 22.6618 99.7943 23.7198C99.7943 24.7656 99.566 25.5773 99.1094 26.1549C98.6529 26.7325 98.0107 27.0214 97.1828 27.0214ZM106.149 28.353V23.1178C106.149 22.303 106.384 21.6524 106.853 21.166C107.321 20.6796 107.945 20.4364 108.724 20.4364C109.406 20.4364 109.902 20.6188 110.213 20.9836C110.523 21.3484 110.678 21.9321 110.678 22.7347V28.353H112.523V22.6253C112.523 20.1689 111.421 18.9406 109.218 18.9406C108.511 18.9406 107.881 19.0957 107.327 19.4058C106.773 19.7159 106.35 20.1628 106.058 20.7465L105.894 19.1595H104.177C104.275 19.9256 104.323 20.789 104.323 21.7497V28.353H106.149ZM118.696 28.4806C119.207 28.4806 119.663 28.4138 120.065 28.2801V26.7842C119.736 26.8815 119.414 26.9301 119.097 26.9301C118.61 26.9301 118.23 26.7994 117.956 26.538C117.682 26.2765 117.545 25.8296 117.545 25.1973V20.5823H120.084V19.1595H117.545V16.2227L115.701 16.8612V19.1595H113.911V20.5823H115.701V25.3432C115.701 26.3647 115.962 27.143 116.486 27.678C117.009 28.2131 117.746 28.4806 118.696 28.4806ZM125.745 28.4806C126.633 28.4806 127.419 28.286 128.101 27.8969C128.782 27.5078 129.309 26.9545 129.68 26.237C130.052 25.5195 130.237 24.6804 130.237 23.7198C130.237 22.7591 130.052 21.9169 129.68 21.1934C129.309 20.4698 128.782 19.9135 128.101 19.5243C127.419 19.1352 126.633 18.9406 125.745 18.9406C124.844 18.9406 124.053 19.1352 123.371 19.5243C122.689 19.9135 122.162 20.4698 121.791 21.1934C121.42 21.9169 121.234 22.7591 121.234 23.7198C121.234 24.6804 121.42 25.5195 121.791 26.237C122.162 26.9545 122.689 27.5078 123.371 27.8969C124.053 28.286 124.844 28.4806 125.745 28.4806ZM125.726 27.0214C124.886 27.0214 124.238 26.7417 123.781 26.1823C123.325 25.6229 123.097 24.8021 123.097 23.7198C123.097 22.6618 123.328 21.847 123.791 21.2755C124.253 20.7039 124.905 20.4182 125.745 20.4182C126.573 20.4182 127.215 20.7039 127.671 21.2755C128.128 21.847 128.356 22.6618 128.356 23.7198C128.356 24.8021 128.131 25.6229 127.68 26.1823C127.23 26.7417 126.579 27.0214 125.726 27.0214ZM134.218 28.353V23.1543C134.218 22.3152 134.425 21.6524 134.839 21.166C135.253 20.6796 135.813 20.4364 136.519 20.4364C137.128 20.4364 137.569 20.6188 137.843 20.9836C138.117 21.3484 138.254 21.9261 138.254 22.7165V28.353H140.099V23.1543C140.099 22.3152 140.303 21.6524 140.711 21.166C141.118 20.6796 141.675 20.4364 142.382 20.4364C142.99 20.4364 143.432 20.6188 143.705 20.9836C143.979 21.3484 144.116 21.9261 144.116 22.7165V28.353H145.961V22.6253C145.961 20.1689 144.938 18.9406 142.893 18.9406C142.211 18.9406 141.599 19.0987 141.058 19.4149C140.516 19.7311 140.105 20.1628 139.825 20.71C139.387 19.5304 138.455 18.9406 137.031 18.9406C136.361 18.9406 135.777 19.0926 135.277 19.3967C134.778 19.7007 134.395 20.1324 134.127 20.6918L133.963 19.1595H132.246C132.343 19.9256 132.392 20.789 132.392 21.7497V28.353H134.218Z" fill="#1F6AF8"/>
</g>
<defs>
<clipPath id="clip0_2630_7515">
<rect width="81.9219" height="21.2698" fill="white" transform="translate(64.0391 11.3651)"/>
</clipPath>
</defs>
</svg>
