<svg width="82" height="44" viewBox="0 0 82 44" fill="none" xmlns="http://www.w3.org/2000/svg">
<rect x="0.400024" width="81.6" height="43.8785" rx="6.42789" fill="#FBFBFB"/>
<g clip-path="url(#clip0_2625_7138)">
<mask id="mask0_2625_7138" style="mask-type:alpha" maskUnits="userSpaceOnUse" x="17" y="24" width="12" height="5">
<path d="M17.0409 24.0105H28.7948V28.4685H17.0409V24.0105Z" fill="white"/>
</mask>
<g mask="url(#mask0_2625_7138)">
<path fill-rule="evenodd" clip-rule="evenodd" d="M22.9064 26.2795C22.4923 26.2795 22.1074 26.1932 21.7932 26.03L18.4105 24.2729L17.3968 24.8781C16.915 25.1656 16.9234 25.6065 17.4156 25.8622L22.0943 28.2925C22.3215 28.4105 22.612 28.4686 22.9064 28.4686C23.2502 28.4686 23.599 28.3895 23.8586 28.2346L28.4389 25.5001C28.9207 25.2124 28.9123 24.7715 28.4201 24.516L27.4474 24.0105L24.1931 25.9535C23.8409 26.1636 23.384 26.2795 22.9064 26.2795Z" fill="url(#paint0_linear_2625_7138)"/>
</g>
<path fill-rule="evenodd" clip-rule="evenodd" d="M28.4501 21.6064L27.6379 21.1783L25.7466 22.3239L25.4219 22.5206L25.0973 22.7172L24.2119 23.2536C23.8588 23.4676 23.4006 23.5853 22.9219 23.5853C22.5066 23.5853 22.1207 23.4976 21.8057 23.3317L20.7914 22.797L20.4556 22.6202L20.1199 22.4432L18.2508 21.4579L17.3977 21.9748C16.9146 22.2674 16.9229 22.7157 17.4164 22.9759L18.3918 23.4899L18.7276 23.6669L19.0631 23.8438L22.1076 25.4484C22.3352 25.5684 22.6267 25.6273 22.9219 25.6273C23.2664 25.6273 23.6162 25.547 23.8764 25.3895L26.8033 23.6164L27.128 23.4198L27.4526 23.2231L28.4689 22.6075C28.952 22.315 28.9435 21.8665 28.4501 21.6064Z" fill="url(#paint1_linear_2625_7138)"/>
<path fill-rule="evenodd" clip-rule="evenodd" d="M28.4501 18.9833L23.7589 16.5539C23.5312 16.4358 23.2399 16.3779 22.9446 16.3779C22.6001 16.3779 22.2502 16.4569 21.9901 16.6118L17.3977 19.3454C16.9146 19.6328 16.9229 20.0733 17.4164 20.3289L18.2286 20.7496L18.5643 20.9235L18.9001 21.0974L20.7691 22.0654L21.1049 22.2391L21.4406 22.4131L22.1076 22.7586C22.3352 22.8765 22.6267 22.9344 22.9219 22.9344C23.2664 22.9344 23.6162 22.8554 23.8764 22.7006L24.4258 22.3735L24.7505 22.1802L25.0751 21.987L26.9664 20.8613L27.2911 20.668L27.6157 20.4748L28.4689 19.967C28.952 19.6795 28.9435 19.2389 28.4501 18.9833Z" fill="url(#paint2_linear_2625_7138)"/>
<mask id="mask1_2625_7138" style="mask-type:alpha" maskUnits="userSpaceOnUse" x="32" y="15" width="7" height="14">
<path d="M32.2074 15.4154H38.9169V28.05H32.2074V15.4154Z" fill="white"/>
</mask>
<g mask="url(#mask1_2625_7138)">
<path fill-rule="evenodd" clip-rule="evenodd" d="M37.0949 17.3723C36.4789 17.3482 35.9598 17.8197 35.9353 18.4258C35.9353 18.4279 35.9351 18.4297 35.9351 18.4318V19.4914H38.4201V21.2848H35.9351V28.0498H33.6983V21.2848H32.2074V19.4914H33.6983V18.2674C33.6983 16.5558 35.1894 15.4159 36.846 15.4159C37.6048 15.3999 38.3427 15.6614 38.9169 16.1495L38.0886 17.698C37.7905 17.5085 37.4486 17.3962 37.0946 17.3719" fill="#1E1E1E"/>
</g>
<path fill-rule="evenodd" clip-rule="evenodd" d="M47.6819 19.4221V28.004H45.9666L45.6396 27.0235H45.3956C45.0687 27.4321 44.3338 28.086 42.8633 28.086C40.5761 28.086 39.4324 26.4512 39.4324 24.0808V19.4221H41.8022V23.5086C41.8022 24.5711 41.8837 26.0423 43.3545 26.0423C44.0897 26.0423 45.3151 25.6336 45.3151 23.4272V19.4221H47.6819Z" fill="#1E1E1E"/>
<path fill-rule="evenodd" clip-rule="evenodd" d="M52.5377 21.1454C51.7925 21.1454 51.4616 21.4736 51.4616 21.8842C51.4616 22.4588 52.2068 22.6228 52.786 22.7867C54.3587 23.1151 55.9313 23.6074 55.9313 25.4125C55.9313 27.2179 54.4415 28.2031 52.6203 28.2031C50.6336 28.2031 49.061 26.972 48.9781 25.1665H51.1301C51.2115 25.9076 51.8702 26.4515 52.6199 26.3974C53.5304 26.3974 53.696 25.9051 53.696 25.5769C53.696 24.9203 53.1166 24.7561 52.4543 24.5921C51.461 24.3468 49.226 23.9354 49.226 21.9659C49.2257 20.2427 50.8823 19.4221 52.5377 19.4221C54.5244 19.4221 55.766 20.5711 55.8486 22.0479H53.6966C53.6966 21.6377 53.4494 21.1454 52.5377 21.1454Z" fill="#1E1E1E"/>
<path fill-rule="evenodd" clip-rule="evenodd" d="M65.3277 24.3459H59.0098C59.2548 25.6467 60.3224 26.1347 61.307 26.1347C61.9408 26.1651 62.5509 25.893 62.9481 25.4028H65.1636C64.5568 27.0333 62.9789 28.1083 61.2252 28.0857C58.8155 28.0789 56.8673 26.1379 56.874 23.7502C56.8742 23.7049 56.875 23.6598 56.8767 23.6143C56.7964 21.3152 58.6126 19.3869 60.933 19.3074C61.003 19.305 61.0732 19.3045 61.1434 19.3055C63.3588 19.3055 65.6561 20.8504 65.3277 24.3462V24.3459ZM59.1739 22.6387H63.0305C62.8584 21.7979 62.0899 21.2094 61.2252 21.2566C60.3025 21.1967 59.4569 21.7664 59.1739 22.6387Z" fill="#1E1E1E"/>
</g>
<defs>
<linearGradient id="paint0_linear_2625_7138" x1="22.9178" y1="16.7667" x2="22.9178" y2="28.4686" gradientUnits="userSpaceOnUse">
<stop stop-color="#B3F9BA"/>
<stop offset="1" stop-color="#F6FB8C"/>
</linearGradient>
<linearGradient id="paint1_linear_2625_7138" x1="22.9333" y1="16.7759" x2="22.9333" y2="28.1994" gradientUnits="userSpaceOnUse">
<stop stop-color="#B1FFBF"/>
<stop offset="1" stop-color="#FFF16D"/>
</linearGradient>
<linearGradient id="paint2_linear_2625_7138" x1="22.9333" y1="16.3779" x2="22.9333" y2="28.2323" gradientUnits="userSpaceOnUse">
<stop stop-color="#B3F9BA"/>
<stop offset="1" stop-color="#F6FB8C"/>
</linearGradient>
<clipPath id="clip0_2625_7138">
<rect width="48.3185" height="13.2301" fill="white" transform="translate(17.0408 15.3242)"/>
</clipPath>
</defs>
</svg>
