<svg width="83" height="44" viewBox="0 0 83 44" fill="none" xmlns="http://www.w3.org/2000/svg">
<rect x="0.800049" width="81.6" height="43.8785" rx="6.42789" fill="#FBFBFB"/>
<path d="M33.8568 18.35C34.0188 18.35 34.0998 18.4311 34.0998 18.5931V25.8691C34.0998 26.0366 34.0188 26.1122 33.8568 26.1122H32.6738C32.5063 26.1122 32.4199 26.0312 32.4199 25.8691V18.5931C32.4199 18.4257 32.5063 18.35 32.6738 18.35H33.8568Z" fill="url(#paint0_linear_2625_7105)"/>
<path d="M41.1274 20.0244C41.619 20.0244 42.0295 20.0623 42.3644 20.1487C42.6993 20.2351 42.964 20.3647 43.1693 20.5484C43.3745 20.7321 43.5096 20.9643 43.6014 21.2506C43.6932 21.5369 43.731 21.8772 43.731 22.2769V23.8704C43.731 24.2701 43.6878 24.6104 43.6014 24.8967C43.5096 25.183 43.3691 25.4153 43.1693 25.5989C42.9694 25.7826 42.6993 25.9122 42.3644 25.9933C42.0295 26.0743 41.619 26.1121 41.1274 26.1121H38.0323C37.5354 26.1121 37.1194 26.0743 36.7899 25.9933C36.4604 25.9122 36.1903 25.7826 35.9905 25.5989C35.7906 25.4153 35.6502 25.183 35.5584 24.8967C35.4719 24.6104 35.4287 24.2701 35.4287 23.8704V22.2769C35.4287 21.8772 35.4719 21.5369 35.5584 21.2506C35.6502 20.9643 35.7906 20.7321 35.9905 20.5484C36.1903 20.3647 36.455 20.2351 36.7899 20.1487C37.1248 20.0623 37.5354 20.0244 38.0323 20.0244H41.1274ZM36.9898 23.5949C36.9898 23.8326 37.006 24.0271 37.0438 24.1837C37.0816 24.3404 37.1464 24.4646 37.2329 24.5564C37.3247 24.6483 37.4489 24.7185 37.6002 24.7563C37.7514 24.7941 37.9513 24.8211 38.1781 24.8211H40.9762C41.2193 24.8211 41.4137 24.8049 41.565 24.7563C41.7162 24.7185 41.8405 24.6483 41.9323 24.5564C42.0241 24.4646 42.0889 24.3404 42.1213 24.1837C42.1592 24.0325 42.1754 23.8326 42.1754 23.5949V22.5416C42.1754 22.3147 42.1592 22.1203 42.1213 21.969C42.0835 21.8178 42.0187 21.6882 41.9323 21.5909C41.8405 21.4937 41.7162 21.4235 41.565 21.3911C41.4137 21.3586 41.2139 21.3316 40.9762 21.3316H38.1835C37.9459 21.3316 37.7568 21.3478 37.6056 21.3911C37.4543 21.4289 37.3301 21.4937 37.2383 21.5909C37.1464 21.6882 37.0816 21.8124 37.0492 21.969C37.0114 22.1203 36.9952 22.3147 36.9952 22.5416V23.5949H36.9898Z" fill="url(#paint1_linear_2625_7105)"/>
<path d="M53.3947 18.3499C53.5622 18.3499 53.6486 18.4309 53.6486 18.593V19.6787C53.6486 19.8515 53.5622 19.9326 53.3947 19.9326H49.9539V25.8636C49.9539 26.031 49.8728 26.1066 49.7108 26.1066H48.517C48.355 26.1066 48.2739 26.0256 48.2739 25.8636V19.9326H44.8331C44.6656 19.9326 44.5792 19.8461 44.5792 19.6787V18.593C44.5792 18.4255 44.6656 18.3499 44.8331 18.3499H53.3893H53.3947Z" fill="url(#paint2_linear_2625_7105)"/>
<path d="M59.9468 20.0244C60.3195 20.0244 60.6274 20.0515 60.8759 20.1163C61.1244 20.1811 61.3134 20.2837 61.4539 20.4296C61.5943 20.57 61.6969 20.7591 61.7564 20.9913C61.8104 21.2236 61.8482 21.5099 61.8482 21.8394V22.8927C61.8482 23.1304 61.7996 23.2924 61.6969 23.3897C61.5943 23.4815 61.4377 23.5247 61.227 23.5247H55.6903V23.7948C55.6903 24.1405 55.7767 24.3944 55.9388 24.5456C56.1008 24.6969 56.4249 24.7779 56.8949 24.7779H61.4593C61.5889 24.7779 61.6537 24.8481 61.6537 24.9778V25.9122C61.6537 26.0419 61.5889 26.1121 61.4593 26.1121H56.7382C56.2413 26.1121 55.8254 26.0743 55.4959 25.9933C55.1664 25.9122 54.9017 25.7826 54.6964 25.5989C54.4966 25.4153 54.3561 25.183 54.2643 24.8967C54.1725 24.6104 54.1346 24.2701 54.1346 23.8704V22.2769C54.1346 21.8772 54.1779 21.5369 54.2643 21.2506C54.3561 20.9643 54.4966 20.7321 54.6964 20.5484C54.8963 20.3647 55.161 20.2351 55.4959 20.1487C55.8254 20.0623 56.2413 20.0244 56.7382 20.0244H59.9468ZM55.6849 22.5416H60.1197C60.2439 22.5416 60.3033 22.4768 60.3033 22.3526V21.888C60.3033 21.6611 60.2601 21.4937 60.1629 21.3965C60.0656 21.2992 59.8928 21.256 59.6389 21.256H56.8895C56.4195 21.256 56.0954 21.3316 55.9334 21.4829C55.7713 21.6341 55.6849 21.888 55.6849 22.2391V22.5416Z" fill="url(#paint3_linear_2625_7105)"/>
<path d="M71.571 18.3499C71.6737 18.3499 71.7277 18.3823 71.7385 18.4579C71.7493 18.5282 71.7277 18.5876 71.6791 18.6416L68.3193 22.0933L71.8357 25.8258C71.8843 25.8744 71.9114 25.9392 71.8951 26.0094C71.8843 26.0797 71.8303 26.1175 71.7277 26.1175H70.226C70.1342 26.1175 70.0694 26.1067 70.0154 26.0851C69.9668 26.0635 69.9127 26.0202 69.8749 25.9662L67.1687 23.0926L64.4517 25.9608C64.4031 26.0202 64.3491 26.0635 64.3058 26.0797C64.2626 26.1013 64.187 26.1121 64.0898 26.1121H62.6691C62.5719 26.1121 62.5233 26.0797 62.5125 26.004C62.5017 25.9338 62.5233 25.8744 62.5719 25.8204L66.1748 22.0284L62.923 18.6362C62.8798 18.5876 62.8636 18.5228 62.869 18.4525C62.8744 18.3823 62.9284 18.3445 63.031 18.3445H64.5327C64.6245 18.3445 64.6894 18.3553 64.7434 18.3823C64.792 18.4039 64.846 18.4471 64.8838 18.4958L67.2713 21.0669L69.7993 18.4958C69.8425 18.4471 69.8911 18.4039 69.9398 18.3823C69.9884 18.3553 70.0586 18.3445 70.1504 18.3445H71.571V18.3499Z" fill="url(#paint4_linear_2625_7105)"/>
<path d="M21.9841 13.6396V17.6315L25.4682 15.6383L21.9841 13.6396Z" fill="url(#paint5_linear_2625_7105)"/>
<path opacity="0.9" d="M25.4683 15.6383V19.6355L28.9577 17.6315L25.4683 15.6383Z" fill="url(#paint6_linear_2625_7105)"/>
<path opacity="0.8" d="M21.9841 17.6315V21.6287L25.4682 19.6355L21.9841 17.6315Z" fill="url(#paint7_linear_2625_7105)"/>
<path opacity="0.8" d="M25.4683 19.6355V23.6273L28.9577 21.6287L25.4683 19.6355Z" fill="url(#paint8_linear_2625_7105)"/>
<path opacity="0.8" d="M21.9841 21.6287V25.6259L25.4682 23.6273L21.9841 21.6287Z" fill="url(#paint9_linear_2625_7105)"/>
<path d="M25.4683 23.6273V27.6245L28.9577 25.6259L25.4683 23.6273Z" fill="url(#paint10_linear_2625_7105)"/>
<path opacity="0.4" d="M12.9744 17.5018V21.4936L16.4584 19.495L12.9744 17.5018Z" fill="url(#paint11_linear_2625_7105)"/>
<path opacity="0.2" d="M17.3708 18.9818V22.9791L20.8495 20.9859L17.3708 18.9818Z" fill="url(#paint12_linear_2625_7105)"/>
<path opacity="0.3" d="M14.7893 21.5099V25.5071L18.2734 23.5085L14.7893 21.5099Z" fill="url(#paint13_linear_2625_7105)"/>
<path opacity="0.9" d="M17.085 24.524V28.5212L20.5636 26.5226L17.085 24.524Z" fill="url(#paint14_linear_2625_7105)"/>
<path opacity="0.7" d="M21.9573 26.2471V30.2389L25.4359 28.2403L21.9573 26.2471Z" fill="url(#paint15_linear_2625_7105)"/>
<path opacity="0.9" d="M17.9546 17.0103V21.0075L21.4332 19.0143L17.9546 17.0103Z" fill="url(#paint16_linear_2625_7105)"/>
<path opacity="0.8" d="M21.9841 13.6396V17.6315L18.5 15.6383L21.9841 13.6396Z" fill="url(#paint17_linear_2625_7105)"/>
<path opacity="0.6" d="M17.9545 15.3358V19.333L14.4651 17.329L17.9545 15.3358Z" fill="url(#paint18_linear_2625_7105)"/>
<path opacity="0.6" d="M21.4386 17.3127V21.31L17.9546 19.3114L21.4386 17.3127Z" fill="url(#paint19_linear_2625_7105)"/>
<path opacity="0.95" d="M17.3549 18.9818V22.9791L13.8708 20.9859L17.3549 18.9818Z" fill="url(#paint20_linear_2625_7105)"/>
<path opacity="0.6" d="M21.9843 21.6287V25.6259L18.5056 23.6273L21.9843 21.6287Z" fill="url(#paint21_linear_2625_7105)"/>
<path opacity="0.55" d="M14.7893 22.5578V26.555L11.2998 24.5564L14.7893 22.5578Z" fill="url(#paint22_linear_2625_7105)"/>
<path d="M28.9577 17.6315V21.6287L25.4683 19.6355L28.9577 17.6315Z" fill="url(#paint23_linear_2625_7105)"/>
<path opacity="0.95" d="M25.4682 19.6355V23.6273L21.9841 21.6287L25.4682 19.6355Z" fill="url(#paint24_linear_2625_7105)"/>
<path opacity="0.9" d="M28.9577 21.6287V25.6259L25.4683 23.6273L28.9577 21.6287Z" fill="url(#paint25_linear_2625_7105)"/>
<path opacity="0.7" d="M25.4682 23.6273V27.6245L21.9841 25.6259L25.4682 23.6273Z" fill="url(#paint26_linear_2625_7105)"/>
<path opacity="0.4" d="M21.2116 25.291V29.2882L17.7275 27.295L21.2116 25.291Z" fill="url(#paint27_linear_2625_7105)"/>
<path d="M25.4682 15.6383V19.6355L21.9841 17.6315L25.4682 15.6383Z" fill="url(#paint28_linear_2625_7105)"/>
<defs>
<linearGradient id="paint0_linear_2625_7105" x1="30.3593" y1="21.6025" x2="72.3879" y2="22.0274" gradientUnits="userSpaceOnUse">
<stop stop-color="#00DCB3"/>
<stop offset="1" stop-color="#00D3DC"/>
</linearGradient>
<linearGradient id="paint1_linear_2625_7105" x1="30.4684" y1="21.0901" x2="69.6687" y2="36.9673" gradientUnits="userSpaceOnUse">
<stop stop-color="#00DCB3"/>
<stop offset="1" stop-color="#00D3DC"/>
</linearGradient>
<linearGradient id="paint2_linear_2625_7105" x1="31.137" y1="17.9262" x2="72.1879" y2="30.0505" gradientUnits="userSpaceOnUse">
<stop stop-color="#00DCB3"/>
<stop offset="1" stop-color="#00D3DC"/>
</linearGradient>
<linearGradient id="paint3_linear_2625_7105" x1="31.2891" y1="17.2109" x2="71.5133" y2="31.2425" gradientUnits="userSpaceOnUse">
<stop stop-color="#00DCB3"/>
<stop offset="1" stop-color="#00D3DC"/>
</linearGradient>
<linearGradient id="paint4_linear_2625_7105" x1="31.8477" y1="14.5713" x2="72.582" y2="27.4871" gradientUnits="userSpaceOnUse">
<stop stop-color="#00DCB3"/>
<stop offset="1" stop-color="#00D3DC"/>
</linearGradient>
<linearGradient id="paint5_linear_2625_7105" x1="12.8004" y1="10.3592" x2="33.8536" y2="19.5656" gradientUnits="userSpaceOnUse">
<stop stop-color="#00DC9C"/>
<stop offset="1" stop-color="#00D3DC"/>
</linearGradient>
<linearGradient id="paint6_linear_2625_7105" x1="12.8006" y1="10.3556" x2="33.856" y2="19.5643" gradientUnits="userSpaceOnUse">
<stop stop-color="#00DC9C"/>
<stop offset="1" stop-color="#00D3DC"/>
</linearGradient>
<linearGradient id="paint7_linear_2625_7105" x1="10.9571" y1="13.2953" x2="32.0104" y2="22.5017" gradientUnits="userSpaceOnUse">
<stop stop-color="#00DC9C"/>
<stop offset="1" stop-color="#00D3DC"/>
</linearGradient>
<linearGradient id="paint8_linear_2625_7105" x1="10.9557" y1="13.2908" x2="32.0111" y2="22.4995" gradientUnits="userSpaceOnUse">
<stop stop-color="#00DC9C"/>
<stop offset="1" stop-color="#00D3DC"/>
</linearGradient>
<linearGradient id="paint9_linear_2625_7105" x1="9.09821" y1="16.2223" x2="30.1514" y2="25.4287" gradientUnits="userSpaceOnUse">
<stop stop-color="#00DC9C"/>
<stop offset="1" stop-color="#00D3DC"/>
</linearGradient>
<linearGradient id="paint10_linear_2625_7105" x1="9.09664" y1="16.2178" x2="30.152" y2="25.4265" gradientUnits="userSpaceOnUse">
<stop stop-color="#00DC9C"/>
<stop offset="1" stop-color="#00D3DC"/>
</linearGradient>
<linearGradient id="paint11_linear_2625_7105" x1="9.2431" y1="17.3495" x2="30.2964" y2="26.5559" gradientUnits="userSpaceOnUse">
<stop stop-color="#00DC9C"/>
<stop offset="1" stop-color="#00D3DC"/>
</linearGradient>
<linearGradient id="paint12_linear_2625_7105" x1="10.2822" y1="16.9092" x2="31.3453" y2="26.0914" gradientUnits="userSpaceOnUse">
<stop stop-color="#00DC9C"/>
<stop offset="1" stop-color="#00D3DC"/>
</linearGradient>
<linearGradient id="paint13_linear_2625_7105" x1="7.00355" y1="19.0338" x2="28.0589" y2="28.2425" gradientUnits="userSpaceOnUse">
<stop stop-color="#00DC9C"/>
<stop offset="1" stop-color="#00D3DC"/>
</linearGradient>
<linearGradient id="paint14_linear_2625_7105" x1="6.72356" y1="20.5692" x2="27.7867" y2="29.7513" gradientUnits="userSpaceOnUse">
<stop stop-color="#00DC9C"/>
<stop offset="1" stop-color="#00D3DC"/>
</linearGradient>
<linearGradient id="paint15_linear_2625_7105" x1="6.83868" y1="19.5575" x2="27.9018" y2="28.7396" gradientUnits="userSpaceOnUse">
<stop stop-color="#00DC9C"/>
<stop offset="1" stop-color="#00D3DC"/>
</linearGradient>
<linearGradient id="paint16_linear_2625_7105" x1="10.1365" y1="14.5193" x2="31.1975" y2="23.6991" gradientUnits="userSpaceOnUse">
<stop stop-color="#00DC9C"/>
<stop offset="1" stop-color="#00D3DC"/>
</linearGradient>
<linearGradient id="paint17_linear_2625_7105" x1="12.6835" y1="10.2979" x2="33.7388" y2="19.5066" gradientUnits="userSpaceOnUse">
<stop stop-color="#00DC9C"/>
<stop offset="1" stop-color="#00D3DC"/>
</linearGradient>
<linearGradient id="paint18_linear_2625_7105" x1="11.0125" y1="13.3489" x2="32.0678" y2="22.5576" gradientUnits="userSpaceOnUse">
<stop stop-color="#00DC9C"/>
<stop offset="1" stop-color="#00D3DC"/>
</linearGradient>
<linearGradient id="paint19_linear_2625_7105" x1="10.798" y1="13.2005" x2="31.8512" y2="22.4069" gradientUnits="userSpaceOnUse">
<stop stop-color="#00DC9C"/>
<stop offset="1" stop-color="#00D3DC"/>
</linearGradient>
<linearGradient id="paint20_linear_2625_7105" x1="9.53761" y1="16.495" x2="30.593" y2="25.7037" gradientUnits="userSpaceOnUse">
<stop stop-color="#00DC9C"/>
<stop offset="1" stop-color="#00D3DC"/>
</linearGradient>
<linearGradient id="paint21_linear_2625_7105" x1="8.989" y1="16.1637" x2="30.0521" y2="25.3459" gradientUnits="userSpaceOnUse">
<stop stop-color="#00DC9C"/>
<stop offset="1" stop-color="#00D3DC"/>
</linearGradient>
<linearGradient id="paint22_linear_2625_7105" x1="7.73769" y1="20.5072" x2="28.7918" y2="29.7127" gradientUnits="userSpaceOnUse">
<stop stop-color="#00DC9C"/>
<stop offset="1" stop-color="#00D3DC"/>
</linearGradient>
<linearGradient id="paint23_linear_2625_7105" x1="12.6873" y1="10.2905" x2="33.7427" y2="19.4992" gradientUnits="userSpaceOnUse">
<stop stop-color="#00DC9C"/>
<stop offset="1" stop-color="#00D3DC"/>
</linearGradient>
<linearGradient id="paint24_linear_2625_7105" x1="10.8367" y1="13.2261" x2="31.8898" y2="22.4325" gradientUnits="userSpaceOnUse">
<stop stop-color="#00DC9C"/>
<stop offset="1" stop-color="#00D3DC"/>
</linearGradient>
<linearGradient id="paint25_linear_2625_7105" x1="10.8441" y1="13.2268" x2="31.8995" y2="22.4354" gradientUnits="userSpaceOnUse">
<stop stop-color="#00DC9C"/>
<stop offset="1" stop-color="#00D3DC"/>
</linearGradient>
<linearGradient id="paint26_linear_2625_7105" x1="8.99149" y1="16.1609" x2="30.0447" y2="25.3673" gradientUnits="userSpaceOnUse">
<stop stop-color="#00DC9C"/>
<stop offset="1" stop-color="#00D3DC"/>
</linearGradient>
<linearGradient id="paint27_linear_2625_7105" x1="7.31965" y1="19.3134" x2="28.3729" y2="28.5198" gradientUnits="userSpaceOnUse">
<stop stop-color="#00DC9C"/>
<stop offset="1" stop-color="#00D3DC"/>
</linearGradient>
<linearGradient id="paint28_linear_2625_7105" x1="12.6957" y1="10.2992" x2="33.7489" y2="19.5056" gradientUnits="userSpaceOnUse">
<stop stop-color="#00DC9C"/>
<stop offset="1" stop-color="#00D3DC"/>
</linearGradient>
</defs>
</svg>
