<svg width="83" height="44" viewBox="0 0 83 44" fill="none" xmlns="http://www.w3.org/2000/svg">
<rect x="0.600098" width="81.6" height="43.8785" rx="6.42789" fill="#FBFBFB"/>
<g clip-path="url(#clip0_2625_7093)">
<path d="M41.1828 16.9627H37.9448V25.7257H37.1497V16.9627H33.9199V16.2905H41.1828V16.9627Z" fill="#0E61FF"/>
<path d="M44.1748 25.865C43.0165 25.8822 41.9508 25.2322 41.4368 24.1936C41.163 23.6468 41.0253 23.0427 41.0352 22.4312V22.1524C41.0253 21.5237 41.1606 20.9015 41.4286 20.3326C41.6672 19.8162 42.0451 19.376 42.5189 19.062C42.9673 18.7604 43.4952 18.5981 44.0354 18.5948C44.8879 18.5948 45.5601 18.8817 46.0602 19.4637C46.5602 20.0457 46.8061 20.8409 46.8061 21.8491V22.2836H41.7975V22.4312C41.7975 23.2263 42.0271 23.8903 42.4779 24.4149C42.9001 24.9289 43.5345 25.2224 44.1994 25.2101C44.5781 25.2191 44.9543 25.1404 45.2978 24.9805C45.6421 24.8108 45.9397 24.56 46.1667 24.251L46.6504 24.6198C46.0929 25.447 45.265 25.865 44.1748 25.865ZM44.0354 19.2498C43.4747 19.2407 42.937 19.4735 42.5599 19.8892C42.1582 20.3154 41.9205 20.8892 41.8303 21.6106H46.0356V21.5286C46.011 20.8564 45.8224 20.3072 45.4617 19.881C45.1011 19.4547 44.6256 19.2498 44.0354 19.2498Z" fill="#0E61FF"/>
<path d="M49.1014 25.078H53.6592V25.7338H48.1423V25.16L52.3968 19.3891H48.2735V18.7169H53.3722V19.2989L49.1014 25.078Z" fill="#0E61FF"/>
<path d="M54.7739 22.1187C54.7641 21.49 54.8994 20.8678 55.1674 20.2989C55.4101 19.7816 55.7937 19.3447 56.2741 19.0365C56.7602 18.7316 57.3241 18.575 57.8971 18.5857C58.8316 18.5857 59.5858 18.9135 60.1678 19.5693C60.7498 20.2251 61.0367 21.094 61.0367 22.1761V22.34C61.0474 22.9712 60.9121 23.5967 60.6432 24.1681C60.4031 24.6845 60.0186 25.1206 59.5366 25.4231C59.0489 25.7215 58.4857 25.8756 57.9135 25.8657C56.9872 25.8657 56.2249 25.5378 55.6429 24.8821C55.0608 24.2263 54.7739 23.3573 54.7739 22.2753V22.1187ZM55.5527 22.3319C55.5527 23.168 55.774 23.8566 56.2003 24.3976C56.6265 24.9386 57.2004 25.2009 57.9053 25.2009C58.5685 25.2165 59.2005 24.9189 59.6104 24.3976C60.0448 23.8566 60.258 23.1516 60.258 22.2663V22.1187C60.2629 21.6121 60.1629 21.1088 59.9629 20.6432C59.7874 20.2268 59.4973 19.8685 59.1267 19.6103C58.7644 19.3636 58.3349 19.2349 57.8971 19.2414C57.2348 19.2291 56.606 19.53 56.2003 20.053C55.7658 20.594 55.5445 21.3072 55.5445 22.1843L55.5527 22.3319Z" fill="#0E61FF"/>
<path d="M66.8404 23.9477C66.8503 23.5804 66.6749 23.232 66.3732 23.0214C66.0617 22.7918 65.6026 22.6033 64.9714 22.4721C64.4722 22.3787 63.9853 22.2279 63.5205 22.0213C63.1762 21.8491 62.9221 21.6442 62.7582 21.3983C62.5852 21.1327 62.4967 20.8212 62.504 20.5048C62.504 19.9474 62.7336 19.4965 63.2008 19.1358C63.6681 18.7751 64.2583 18.5948 64.9796 18.5948C65.7584 18.5948 66.3896 18.7915 66.865 19.1768C67.3298 19.5408 67.5946 20.1031 67.5782 20.6933H66.7995C66.8027 20.2884 66.6101 19.9072 66.283 19.6686C65.9387 19.3981 65.5043 19.2588 64.9796 19.2588C64.4714 19.2588 64.0615 19.3735 63.75 19.5949C63.4549 19.7924 63.2795 20.1252 63.2828 20.4802C63.2672 20.7982 63.4123 21.1024 63.6681 21.2917C63.9222 21.4803 64.3976 21.6606 65.078 21.8245C65.7584 21.9885 66.2666 22.1524 66.6109 22.3328C66.9134 22.4836 67.1733 22.7099 67.3651 22.9886C67.8241 23.7755 67.6233 24.7822 66.8978 25.333C66.4224 25.6855 65.7994 25.8658 65.0288 25.8658C64.2091 25.8658 63.5451 25.6691 63.0451 25.2756C62.545 24.8822 62.2827 24.3821 62.2827 23.7755H63.0615C63.0779 24.1985 63.2893 24.5895 63.6353 24.833C63.9878 25.0871 64.455 25.2101 65.037 25.2101C65.578 25.2101 66.0125 25.0871 66.3486 24.8576C66.6765 24.6108 66.8404 24.3075 66.8404 23.9477Z" fill="#0E61FF"/>
<path d="M28.19 26.2585C28.0014 22.9221 23.8044 21.4056 23.4027 21.2499C23.3863 21.2417 23.3863 21.2253 23.3945 21.2089L27.7227 16.8643V16.397C27.7203 16.3208 27.6596 16.2601 27.5834 16.2577H19.6073V13.6427V12.8558L16.6645 13.4706V13.9132H16.8284C16.8284 13.9132 17.5498 13.9132 17.5498 14.6346V16.2495H15.2709C15.2267 16.2528 15.1922 16.2872 15.189 16.3315V17.3561H17.558V22.9221C17.558 24.6682 18.681 25.8814 20.6484 25.7174C21.0534 25.6773 21.4427 25.5363 21.7796 25.3076C21.928 25.2125 22.0174 25.0493 22.0174 24.8731V24.3239C21.378 24.7501 20.8369 24.7256 20.8369 24.7256C19.5909 24.7256 19.6155 23.1435 19.6155 23.1435V17.3561H25.3537L21.2222 21.5204C21.214 22.0696 21.2058 22.4959 21.2058 22.5041C21.2042 22.5164 21.2132 22.527 21.2255 22.5287C21.2271 22.5287 21.2288 22.5287 21.2304 22.5287C25.0176 23.1681 26.0423 25.6191 26.0423 26.3322C26.0423 26.3322 26.4521 29.7997 22.9847 30.0374C22.9847 30.0374 20.714 30.1358 20.3123 29.2259C20.2976 29.1964 20.3107 29.1603 20.3402 29.1464C20.3418 29.1456 20.3435 29.1447 20.3451 29.1439C20.7312 28.9824 20.9812 28.6037 20.9763 28.1848C20.9763 27.5127 20.5664 26.9634 19.7057 26.9634C19.0089 26.9634 18.4351 27.5127 18.4351 28.1848C18.4351 28.1848 18.1072 31.1031 22.9765 31.0211C28.5343 30.9228 28.19 26.2585 28.19 26.2585Z" fill="#0E61FF"/>
</g>
<defs>
<clipPath id="clip0_2625_7093">
<rect width="52.4221" height="18.167" fill="white" transform="translate(15.189 12.8558)"/>
</clipPath>
</defs>
</svg>
