<svg width="210" height="43" viewBox="0 0 210 43" fill="none" xmlns="http://www.w3.org/2000/svg">
<rect width="210" height="43" rx="10" fill="#FBFBFB"/>
<circle cx="85.5406" cy="21.5" r="10.1695" fill="#1E96C8"/>
<path fill-rule="evenodd" clip-rule="evenodd" d="M86.5412 26.9041C86.0964 27.6744 84.9845 27.6744 84.5398 26.9041L79.9651 18.9806C79.5204 18.2102 80.0763 17.2473 80.9658 17.2473H90.1151C91.0046 17.2473 91.5606 18.2102 91.1158 18.9806L86.5412 26.9041ZM85.0452 25.7987V18.2378H80.9658C80.8388 18.2378 80.7593 18.3753 80.8229 18.4854L85.0452 25.7987ZM86.0356 25.7988L90.2581 18.4854C90.3216 18.3753 90.2422 18.2378 90.1151 18.2378H86.0356V25.7988Z" fill="white"/>
<path d="M103.216 27.2453H105.35V17.5602H109.159V15.7545H99.408V17.5602H103.216V27.2453Z" fill="#101010"/>
<path d="M115.968 27.4094C119.53 27.4094 122.156 24.9143 122.156 21.4999C122.156 18.0855 119.53 15.5904 115.968 15.5904C112.406 15.5904 109.779 18.1019 109.779 21.4999C109.779 24.8979 112.406 27.4094 115.968 27.4094ZM115.968 25.5381C113.653 25.5381 111.93 23.8473 111.93 21.4999C111.93 19.1525 113.653 17.4617 115.968 17.4617C118.282 17.4617 120.006 19.1525 120.006 21.4999C120.006 23.8473 118.282 25.5381 115.968 25.5381Z" fill="#101010"/>
<path d="M132.511 15.7545V23.5354L126.175 15.7545H124.418V27.2453H126.536V19.4644L132.872 27.2453H134.629V15.7545H132.511Z" fill="#101010"/>
</svg>
