<svg width="82" height="44" viewBox="0 0 82 44" fill="none" xmlns="http://www.w3.org/2000/svg">
<rect x="0.199951" width="81.6" height="43.8785" rx="6.42789" fill="#FBFBFB"/>
<path d="M36.4986 17.9752L34.0962 24.2089L31.719 17.9752V17.9626H29.8477L29.8603 17.9752L33.2743 26.3205V26.3332H34.956V26.3205L38.37 17.9752L38.3826 17.9626L36.4986 17.9752ZM34.9307 26.3332H33.2616L31.3903 21.7686L33.2616 26.3332H34.9307ZM70.7774 23.8296C70.7774 24.4239 70.6131 24.9423 70.2717 25.3596C69.9429 25.7642 69.5004 26.0803 69.0072 26.2447C68.4635 26.4343 67.8819 26.5228 67.3002 26.5102C65.4668 26.5102 64.253 25.8148 63.7092 24.4492L63.684 24.3986V24.3859H63.6966L65.0748 23.6652H65.0875V23.6779L65.1128 23.7411C65.2645 24.1457 65.568 24.4745 65.9473 24.6768C66.3772 24.8917 66.845 25.0055 67.3129 24.9929C67.8313 24.9929 68.2612 24.8917 68.6026 24.702C68.9314 24.5124 69.0957 24.2342 69.0957 23.8422C69.0957 23.2227 68.4888 22.8433 67.2876 22.7169C66.883 22.679 66.4657 22.6031 66.0737 22.5019C65.7197 22.4134 65.3909 22.2743 65.0622 22.0973C64.7334 21.9203 64.4679 21.6548 64.3035 21.326C64.1265 21.0099 64.0506 20.6179 64.0506 20.1627C64.0506 19.619 64.215 19.1512 64.5564 18.7592C64.8725 18.3799 65.2898 18.1017 65.7576 17.95C66.2381 17.7982 66.7439 17.7097 67.2623 17.7097C68.8808 17.7097 69.9682 18.2661 70.5119 19.3788L70.5372 19.4294V19.442H70.5246L69.2095 20.1248H69.1969V20.1121L69.1716 20.0616C69.0325 19.8213 68.7923 19.619 68.4509 19.442C68.0968 19.265 67.7175 19.1765 67.3255 19.1765C66.7945 19.1765 66.3899 19.2776 66.1243 19.4673C65.8588 19.6569 65.7323 19.8972 65.7323 20.188C65.7323 20.2892 65.745 20.3777 65.7956 20.4662C65.8335 20.5547 65.8967 20.6306 65.9726 20.6811C66.1496 20.8202 66.3519 20.9214 66.5669 20.972C66.8703 21.0478 67.1612 21.0984 67.4646 21.1363C67.844 21.1869 68.1727 21.2375 68.4635 21.3007C68.767 21.3639 69.0705 21.4651 69.3486 21.5915C69.6268 21.7053 69.8797 21.8571 70.1073 22.0594C70.3223 22.2617 70.4866 22.5146 70.5878 22.7801C70.7142 23.1341 70.7774 23.4882 70.7774 23.8296ZM46.2095 17.9752L46.2221 19.619H41.6828V21.3513H46.0577V22.9318H41.6828V24.6262H46.2221V26.2952H40.0264V17.9626H46.2095V17.9752ZM59.7642 17.9879L58.0825 17.9752V17.9879L54.6685 26.3332L54.6559 26.3458H56.5273V26.3332L58.9297 20.0995L61.3068 26.3332V26.3458H63.1782L63.1655 26.3332L59.7642 17.9879ZM59.7516 17.9879L61.6229 22.5525L59.7516 17.9879ZM49.5476 24.6388H53.7076V24.74V26.3079H47.8785V17.9752H49.5476V24.6388Z" fill="#1D1D1B"/>
<path d="M20.8827 20.403L18.2527 25.0435L15.6226 20.403H20.8827ZM23.5127 18.8477H12.98L18.2527 28.1287L23.5127 18.8477ZM11.2224 15.7498L12.0949 17.2925H24.3852L25.2577 15.7498H11.2224Z" fill="#0037C1"/>
</svg>
