<svg width="21" height="21" viewBox="0 0 21 21" fill="none" xmlns="http://www.w3.org/2000/svg">
<g clip-path="url(#clip0_3741_4617)">
<path d="M20.8888 15.5001C20.8888 16.0894 20.6547 16.6547 20.238 17.0714C19.8212 17.4882 19.256 17.7223 18.6666 17.7223H14.2222V3.27783H18.6666C19.256 3.27783 19.8212 3.51196 20.238 3.92871C20.6547 4.34545 20.8888 4.91068 20.8888 5.50005V15.5001Z" fill="#ED2939"/>
<path d="M3.11089 3.27783C2.52152 3.27783 1.95629 3.51196 1.53955 3.92871C1.1228 4.34545 0.888672 4.91068 0.888672 5.50005L0.888672 15.5001C0.888672 16.0894 1.1228 16.6547 1.53955 17.0714C1.95629 17.4882 2.52152 17.7223 3.11089 17.7223H7.55534V3.27783H3.11089Z" fill="#002495"/>
<path d="M7.55518 3.27783H14.2218V17.7223H7.55518V3.27783Z" fill="#EEEEEE"/>
</g>
<defs>
<clipPath id="clip0_3741_4617">
<rect width="20" height="20" fill="white" transform="translate(0.888672 0.5)"/>
</clipPath>
</defs>
</svg>
