<svg width="21" height="21" viewBox="0 0 21 21" fill="none" xmlns="http://www.w3.org/2000/svg">
<g clip-path="url(#clip0_3489_2532)">
<path d="M0.890137 15.4999C0.890137 16.0893 1.12426 16.6545 1.54101 17.0713C1.95776 17.488 2.52299 17.7222 3.11236 17.7222H18.6679C19.2573 17.7222 19.8225 17.488 20.2393 17.0713C20.656 16.6545 20.8901 16.0893 20.8901 15.4999V13.2777H0.890137V15.4999Z" fill="#FFCD05"/>
<path d="M0.890137 8.27771H20.8901V13.2777H0.890137V8.27771Z" fill="#ED1F24"/>
<path d="M18.6679 3.27771H3.11236C2.52299 3.27771 1.95776 3.51184 1.54101 3.92858C1.12426 4.34533 0.890137 4.91056 0.890137 5.49993L0.890137 8.27771H20.8901V5.49993C20.8901 4.91056 20.656 4.34533 20.2393 3.92858C19.8225 3.51184 19.2573 3.27771 18.6679 3.27771Z" fill="#141414"/>
</g>
<defs>
<clipPath id="clip0_3489_2532">
<rect width="20" height="20" fill="white" transform="translate(0.890137 0.499878)"/>
</clipPath>
</defs>
</svg>
