<svg width="21" height="21" viewBox="0 0 21 21" fill="none" xmlns="http://www.w3.org/2000/svg">
<g clip-path="url(#clip0_3489_1848)">
<path d="M12.3695 11.0555L12.11 11.505H12.6289L12.3695 11.0555ZM10.8884 12.51L11.1478 12.0605H10.6289L10.8884 12.51Z" fill="#EDECEC"/>
<path d="M0.888672 14.3889H20.8887V6.61117H0.888672V14.3889ZM1.05201 4.66672H20.7259C20.5599 4.25646 20.2753 3.9051 19.9084 3.65766C19.5414 3.41021 19.109 3.27795 18.6665 3.27783H3.11089C2.66842 3.27799 2.23607 3.41027 1.86925 3.65772C1.50244 3.90516 1.21786 4.25651 1.05201 4.66672Z" fill="#EEEEEE"/>
<path d="M12.6295 9.49499H12.1107L12.3701 9.94443L12.6295 9.49499ZM9.66733 9.49499H9.14844L9.40788 9.94443L9.66733 9.49499ZM11.469 11.505L12.0495 10.5L11.469 9.49499H10.309L9.72844 10.5L10.309 11.505H11.469ZM9.40788 11.0555L9.14844 11.505H9.66733L9.40788 11.0555ZM10.889 8.48999L10.6295 8.93943H11.1484L10.889 8.48999Z" fill="#EDECEC"/>
<path d="M1.05201 4.66663C0.944257 4.93125 0.888791 5.21424 0.888672 5.49996L0.888672 6.61107H20.8887V5.49996C20.8887 5.20496 20.8298 4.9244 20.7253 4.66663H1.05201Z" fill="#0038B8"/>
<path d="M1.05176 16.3334H20.7256C20.5597 16.7436 20.275 17.095 19.9081 17.3424C19.5412 17.5899 19.1088 17.7221 18.6662 17.7223H3.11065C2.66817 17.7221 2.23582 17.5898 1.86901 17.3424C1.50219 17.0949 1.21762 16.7436 1.05176 16.3334Z" fill="#EEEEEE"/>
<path d="M1.05201 16.3334C0.944257 16.0687 0.888791 15.7857 0.888672 15.5L0.888672 14.3889H20.8887V15.5C20.8887 15.795 20.8298 16.0756 20.7253 16.3334H1.05201ZM9.98756 12.0606L10.8887 13.6211L11.7898 12.0606H13.5914L12.6909 10.5L13.592 8.93946H11.7903L10.8887 7.37891L9.98756 8.93946H8.18589L9.08645 10.5L8.18534 12.0606H9.98756ZM10.8887 12.51L10.6292 12.0606H11.1481L10.8887 12.51ZM12.6292 9.49502L12.3698 9.94446L12.1103 9.49557H12.6292V9.49502ZM12.3698 11.0556L12.6292 11.5045H12.1103L12.3698 11.0556ZM10.8887 8.49002L11.1481 8.93946H10.6292L10.8887 8.49002ZM10.3087 9.49502H11.4692L12.0492 10.5L11.4692 11.505H10.3087L9.72812 10.5L10.3087 9.49502ZM9.66701 9.49502L9.40756 9.94446L9.14812 9.49557H9.66701V9.49502ZM9.40756 11.0556L9.66701 11.5045H9.14812L9.40756 11.0556Z" fill="#0038B8"/>
</g>
<defs>
<clipPath id="clip0_3489_1848">
<rect width="20" height="20" fill="white" transform="translate(0.888672 0.5)"/>
</clipPath>
</defs>
</svg>
