<svg width="17" height="17" viewBox="0 0 17 17" fill="none" xmlns="http://www.w3.org/2000/svg">
<path d="M3.55538 3.64307C3.06284 3.64307 2.59047 3.83873 2.24219 4.18701C1.8939 4.53529 1.69824 5.00766 1.69824 5.50021V11.5002C1.69824 11.9928 1.8939 12.4651 2.24219 12.8134C2.59047 13.1617 3.06284 13.3574 3.55538 13.3574H8.98396C9.4765 13.3574 9.94887 13.1617 10.2972 12.8134C10.6454 12.4651 10.8411 11.9928 10.8411 11.5002V5.50021C10.8411 5.00766 10.6454 4.53529 10.2972 4.18701C9.94887 3.83873 9.4765 3.64307 8.98396 3.64307H3.55538ZM13.7685 12.2962L11.6982 10.2676V6.78592L13.7622 4.71278C14.212 4.26135 14.9828 4.57964 14.9828 5.21678V11.7859C14.9828 12.4191 14.2205 12.7391 13.7685 12.2962Z" fill="#0E1220"/>
</svg>
