<svg width="60" height="59" viewBox="0 0 60 59" fill="none" xmlns="http://www.w3.org/2000/svg">
<circle cx="30.3887" cy="29.5005" r="29.5" fill="#E22440" fill-opacity="0.8"/>
<path d="M36.7836 27.4639L27.5777 22.3784C27.2771 22.2102 26.9363 22.123 26.59 22.1255C26.2438 22.1281 25.9044 22.2205 25.6064 22.3932C25.3161 22.5558 25.0749 22.7907 24.9073 23.0741C24.7398 23.3574 24.6518 23.6792 24.6523 24.0067L24.6523 34.1776C24.6518 34.5051 24.7398 34.8268 24.9073 35.1102C25.0749 35.3936 25.3161 35.6285 25.6064 35.7911C25.9044 35.9637 26.2438 36.056 26.59 36.0586C26.9363 36.0612 27.2771 35.974 27.5777 35.8058L36.7836 30.7204C37.0805 30.5593 37.328 30.3234 37.5003 30.0371C37.6726 29.7508 37.7635 29.4245 37.7635 29.0921C37.7635 28.7598 37.6726 28.4335 37.5003 28.1472C37.328 27.8609 37.0805 27.6249 36.7836 27.4639V27.4639Z" fill="white"/>
</svg>
