<svg width="21" height="21" viewBox="0 0 21 21" fill="none" xmlns="http://www.w3.org/2000/svg">
<g clip-path="url(#clip0_3501_3679)">
<path d="M20.8901 15.4999C20.8901 16.0892 20.656 16.6545 20.2393 17.0712C19.8225 17.488 19.2573 17.7221 18.6679 17.7221H3.11236C2.52299 17.7221 1.95776 17.488 1.54101 17.0712C1.12426 16.6545 0.890137 16.0892 0.890137 15.4999V5.49987C0.890137 4.9105 1.12426 4.34527 1.54101 3.92852C1.95776 3.51178 2.52299 3.27765 3.11236 3.27765H18.6679C19.2573 3.27765 19.8225 3.51178 20.2393 3.92852C20.656 4.34527 20.8901 4.9105 20.8901 5.49987V15.4999Z" fill="#006600"/>
<path d="M18.6681 3.27765H9.22363V17.7221H18.6681C19.2574 17.7221 19.8227 17.488 20.2394 17.0712C20.6562 16.6545 20.8903 16.0892 20.8903 15.4999V5.49987C20.8903 4.9105 20.6562 4.34527 20.2394 3.92852C19.8227 3.51178 19.2574 3.27765 18.6681 3.27765Z" fill="#D52B1E"/>
<path d="M9.22325 6.05542C8.04451 6.05542 6.91405 6.52367 6.08056 7.35717C5.24706 8.19066 4.77881 9.32112 4.77881 10.4999C4.77881 11.6786 5.24706 12.8091 6.08056 13.6426C6.91405 14.4761 8.04451 14.9443 9.22325 14.9443C10.402 14.9443 11.5325 14.4761 12.366 13.6426C13.1994 12.8091 13.6677 11.6786 13.6677 10.4999C13.6677 9.32112 13.1994 8.19066 12.366 7.35717C11.5325 6.52367 10.402 6.05542 9.22325 6.05542ZM5.82714 8.60764L6.71714 9.49764L5.35048 10.181C5.39458 9.62839 5.55715 9.09179 5.82714 8.60764ZM5.35048 10.8182L7.79492 12.0443L6.29159 13.0465L6.29936 13.0582C5.75041 12.433 5.41765 11.6475 5.35048 10.8182ZM8.6677 14.3443C8.15842 14.2716 7.66882 14.0979 7.2277 13.8332H8.6677V14.3443ZM8.6677 13.2776H6.94603L8.6677 12.1299V13.2776ZM8.6677 11.4621L8.33048 11.6871L5.95548 10.4999L7.13103 9.91209L8.6677 11.4482V11.4621ZM8.6677 10.6626L6.69936 8.69431L8.6677 9.02209V10.6626ZM8.6677 8.44486L6.20548 8.04875C6.82157 7.29093 7.70083 6.79337 8.6677 6.65542V8.44486ZM12.6194 8.60764C12.8894 9.09196 13.052 9.62876 13.096 10.1815L11.7294 9.4982L12.6194 8.60764ZM9.77881 6.65542C10.7456 6.79358 11.6248 7.2911 12.241 8.04875L9.77881 8.44486V6.65542ZM9.77881 9.02209L11.7471 8.69375L9.77881 10.6626V9.02209ZM9.77881 11.4482L11.3149 9.91209L12.491 10.4999L10.1166 11.6871L9.77881 11.4621V11.4482ZM9.77881 14.3443V13.8332H11.2188C10.7777 14.0979 10.2881 14.2716 9.77881 14.3443ZM9.77881 13.2776V12.1299L11.5005 13.2776H9.77881ZM12.1477 13.0582L12.1555 13.0465L10.6521 12.0443L13.0966 10.8182C13.0289 11.6474 12.6962 12.4327 12.1477 13.0582Z" fill="#FFCC4D"/>
<path d="M7.00146 7.72211V11.611C7.00146 12.2004 7.23559 12.7656 7.65234 13.1823C8.06909 13.5991 8.63432 13.8332 9.22369 13.8332C9.81306 13.8332 10.3783 13.5991 10.795 13.1823C11.2118 12.7656 11.4459 12.2004 11.4459 11.611V7.72211H7.00146Z" fill="#D52B1E"/>
<path d="M7.55664 8.27765V11.611C7.55664 12.053 7.73224 12.4769 8.0448 12.7895C8.35736 13.1021 8.78128 13.2776 9.22331 13.2776C9.66533 13.2776 10.0893 13.1021 10.4018 12.7895C10.7144 12.4769 10.89 12.053 10.89 11.611V8.27765H7.55664Z" fill="white"/>
<path d="M8.1123 9.94434H10.3345V11.0554H8.1123V9.94434Z" fill="#829ACD"/>
<path d="M8.66797 9.38876H9.77908V11.611H8.66797V9.38876Z" fill="#829ACD"/>
<path d="M7.55664 9.94432H8.1122V11.0554H7.55664V9.94432ZM8.66775 9.94432H9.77886V11.0554H8.66775V9.94432ZM10.3344 9.94432H10.89V11.0554H10.3344V9.94432ZM8.66775 11.611H9.77886V12.7221H8.66775V11.611ZM8.66775 8.27765H9.77886V9.38876H8.66775V8.27765Z" fill="#003399"/>
</g>
<defs>
<clipPath id="clip0_3501_3679">
<rect width="20" height="20" fill="white" transform="translate(0.890137 0.499878)"/>
</clipPath>
</defs>
</svg>
