<svg width="21" height="21" viewBox="0 0 21 21" fill="none" xmlns="http://www.w3.org/2000/svg">
<g clip-path="url(#clip0_3489_1805)">
<path d="M0.888672 7.72205H20.8887V13.2776H0.888672V7.72205Z" fill="#0C4076"/>
<path d="M0.888672 15.4999C0.888672 16.0893 1.1228 16.6545 1.53955 17.0713C1.95629 17.488 2.52152 17.7222 3.11089 17.7222H18.6665C19.2558 17.7222 19.8211 17.488 20.2378 17.0713C20.6545 16.6545 20.8887 16.0893 20.8887 15.4999V13.2777H0.888672V15.4999Z" fill="#EEEEEE"/>
<path d="M20.8887 5.49993C20.8887 4.91056 20.6545 4.34533 20.2378 3.92858C19.8211 3.51184 19.2558 3.27771 18.6665 3.27771H3.11089C2.52152 3.27771 1.95629 3.51184 1.53955 3.92858C1.1228 4.34533 0.888672 4.91056 0.888672 5.49993L0.888672 7.72215H20.8887V5.49993ZM4.77756 7.72215V12.9999C4.77756 13.8103 5.09948 14.5875 5.67251 15.1605C6.24554 15.7336 7.02273 16.0555 7.83312 16.0555C8.6435 16.0555 9.42069 15.7336 9.99372 15.1605C10.5667 14.5875 10.8887 13.8103 10.8887 12.9999V7.72215H4.77756Z" fill="#C6363C"/>
<path d="M7.83337 4.42322C5.64559 4.42322 4.96004 5.35211 5.14226 5.69933C5.32448 6.04655 5.87115 6.94044 5.87115 6.94044C5.87115 6.94044 5.69782 7.00988 5.87115 7.35711C6.04448 7.70433 6.72171 7.46988 7.83282 7.46988C8.94393 7.46988 9.62115 7.70433 9.79448 7.35711C9.96782 7.00988 9.79448 6.94044 9.79448 6.94044C9.79448 6.94044 10.3411 6.04655 10.5239 5.69933C10.7067 5.35211 10.0211 4.42322 7.83337 4.42322ZM5.92337 6.07266C5.76615 6.12155 5.92337 6.60211 5.86782 6.39433C5.82226 6.22266 5.64559 6.151 5.64559 6.24655C5.64559 6.34211 5.57615 6.24655 5.59337 6.07322C5.61059 5.89933 5.55893 5.79544 5.45448 5.64766C5.35059 5.49988 5.35059 5.36988 5.48115 5.28266C5.61115 5.196 5.89782 5.12655 5.89782 5.12655C5.89782 5.12655 6.01059 5.62155 6.07115 5.73433C6.13171 5.84711 6.24448 5.921 6.24448 5.921C6.24448 5.921 6.19226 6.00322 6.24448 6.04655C6.29671 6.08988 6.35726 6.19433 6.35726 6.19433C6.35726 6.19433 6.16671 6.03822 6.13226 6.07266C6.09782 6.10711 6.17559 6.151 6.16671 6.21155C6.15782 6.27266 6.06226 6.02933 5.92337 6.07266ZM7.69448 6.08155C7.65115 6.12488 7.61615 6.04655 7.52948 5.986C7.44282 5.92544 7.39059 5.96044 7.40782 6.02988C7.42504 6.09933 7.30337 6.09044 7.30337 6.19488C7.30337 6.29933 7.19059 6.25544 7.19059 6.25544C7.19059 6.25544 7.32948 5.891 7.09504 5.89933C6.96226 5.90433 7.00837 6.17711 7.09504 6.27266C7.0567 6.21433 6.94726 6.21211 6.85615 6.14266C6.76504 6.07322 6.86893 5.95988 6.79948 5.986C6.73004 6.01211 6.68671 6.12488 6.61726 6.151C6.54782 6.17711 6.58282 6.07211 6.61726 5.986C6.62746 5.96316 6.62902 5.93739 6.62167 5.91349C6.61431 5.88958 6.59853 5.86915 6.57726 5.856C6.57726 5.856 6.58282 5.79544 6.63504 5.76044C6.68726 5.726 6.70448 5.66488 6.63504 5.59544C6.56559 5.526 6.31448 5.13544 6.39226 5.00488C6.47059 4.87488 6.73059 4.72711 7.46004 4.74433C7.59004 5.34322 7.39059 5.63822 7.39059 5.63822C7.39059 5.63822 7.53837 5.73377 7.58171 5.786C7.47726 5.82988 7.55559 5.87322 7.62504 5.93377C7.69448 5.99488 7.73782 6.03822 7.69448 6.08155ZM9.04893 5.986C9.08337 6.07266 9.11837 6.17711 9.04893 6.151C8.97948 6.12488 8.93615 6.01211 8.86671 5.986C8.79726 5.95988 8.90115 6.07322 8.81004 6.14266C8.71893 6.21211 8.61004 6.21433 8.57115 6.27266C8.65782 6.17711 8.70393 5.90433 8.57115 5.89933C8.33671 5.89044 8.47559 6.25544 8.47559 6.25544C8.47559 6.25544 8.36282 6.29877 8.36282 6.19488C8.36282 6.091 8.24115 6.09933 8.25837 6.02988C8.27559 5.96044 8.22393 5.92544 8.13671 5.986C8.05004 6.04655 8.01504 6.12488 7.97171 6.08155C7.92837 6.03822 7.97171 5.99488 8.04115 5.93377C8.11115 5.87322 8.18948 5.82988 8.08504 5.78655C8.12837 5.73433 8.27615 5.63877 8.27615 5.63877C8.27615 5.63877 8.07671 5.34377 8.20671 4.74488C8.93559 4.72766 9.19615 4.87488 9.27448 5.00544C9.35282 5.13544 9.10115 5.52655 9.03115 5.59544C8.96115 5.66433 8.97893 5.72544 9.03115 5.76044C9.08337 5.79488 9.08893 5.856 9.08893 5.856C9.08893 5.856 9.01393 5.89933 9.04893 5.986ZM10.2117 5.64766C10.1073 5.79544 10.0556 5.89933 10.0728 6.07322C10.09 6.24655 10.0206 6.34211 10.0206 6.24655C10.0206 6.151 9.84393 6.22322 9.79837 6.39433C9.74282 6.60211 9.90004 6.12211 9.74282 6.07266C9.60393 6.02933 9.42171 6.446 9.46504 6.40266C9.50837 6.35933 9.56948 6.10766 9.53448 6.07266C9.50004 6.03766 9.30893 6.19433 9.30893 6.19433C9.30893 6.19433 9.36948 6.08988 9.42171 6.04655C9.47393 6.00322 9.42171 5.921 9.42171 5.921C9.42171 5.921 9.53448 5.84711 9.59504 5.73433C9.65559 5.62155 9.76837 5.12655 9.76837 5.12655C9.76837 5.12655 10.055 5.196 10.185 5.28266C10.315 5.36933 10.3161 5.49988 10.2117 5.64766Z" fill="#EDB92E"/>
<path d="M7.89336 4.52318C7.89336 4.5497 7.88282 4.57513 7.86407 4.59389C7.84532 4.61264 7.81988 4.62318 7.79336 4.62318C7.76684 4.62318 7.7414 4.61264 7.72265 4.59389C7.7039 4.57513 7.69336 4.5497 7.69336 4.52318V3.64651C7.69336 3.61999 7.7039 3.59455 7.72265 3.5758C7.7414 3.55704 7.76684 3.54651 7.79336 3.54651C7.81988 3.54651 7.84532 3.55704 7.86407 3.5758C7.88282 3.59455 7.89336 3.61999 7.89336 3.64651V4.52318Z" fill="#FFAC33"/>
<path d="M8.09365 3.88103C8.09373 3.89301 8.09142 3.90489 8.08687 3.91598C8.08231 3.92707 8.07561 3.93714 8.06713 3.94562C8.05866 3.95409 8.04858 3.9608 8.03749 3.96535C8.02641 3.96991 8.01453 3.97221 8.00254 3.97214H7.56865C7.55667 3.97221 7.54479 3.96991 7.5337 3.96535C7.52261 3.9608 7.51254 3.95409 7.50406 3.94562C7.49559 3.93714 7.48888 3.92707 7.48433 3.91598C7.47977 3.90489 7.47747 3.89301 7.47754 3.88103C7.47754 3.83047 7.5181 3.78992 7.56865 3.78992H8.00254C8.0531 3.78992 8.09365 3.83047 8.09365 3.88103Z" fill="#EDB92E"/>
<path d="M8.12024 4.42319C8.12024 4.51189 8.08501 4.59696 8.02229 4.65968C7.95957 4.7224 7.8745 4.75763 7.7858 4.75763C7.6971 4.75763 7.61203 4.7224 7.54931 4.65968C7.48659 4.59696 7.45135 4.51189 7.45135 4.42319C7.45135 4.33449 7.48659 4.24942 7.54931 4.1867C7.61203 4.12398 7.6971 4.08875 7.7858 4.08875C7.8745 4.08875 7.95957 4.12398 8.02229 4.1867C8.08501 4.24942 8.12024 4.33449 8.12024 4.42319ZM6.22469 7.31986C6.22469 7.40152 6.1308 7.46763 6.01469 7.46763C5.89858 7.46763 5.80469 7.40152 5.80469 7.31986C5.80469 7.23874 5.89858 7.17263 6.01469 7.17263C6.1308 7.17263 6.22469 7.23819 6.22469 7.31986Z" fill="#0C4076"/>
<path d="M7.06941 7.26929C7.06941 7.35096 6.97552 7.41707 6.85941 7.41707C6.7433 7.41707 6.64941 7.35096 6.64941 7.26929C6.64941 7.18818 6.7433 7.12207 6.85941 7.12207C6.97497 7.12207 7.06941 7.18818 7.06941 7.26929ZM8.94441 7.26929C8.94441 7.35096 8.85052 7.41707 8.73441 7.41707C8.6183 7.41707 8.52441 7.35096 8.52441 7.26929C8.52441 7.18818 8.6183 7.12207 8.73441 7.12207C8.84997 7.12207 8.94441 7.18818 8.94441 7.26929Z" fill="#C6363C"/>
<path d="M9.81176 7.31991C9.81176 7.40157 9.71787 7.46768 9.60176 7.46768C9.48565 7.46768 9.39176 7.40157 9.39176 7.31991C9.39176 7.23879 9.48565 7.17268 9.60176 7.17268C9.71787 7.17268 9.81176 7.23824 9.81176 7.31991ZM8.00398 7.25879C8.00398 7.34046 7.9101 7.40657 7.79398 7.40657C7.67787 7.40657 7.58398 7.34046 7.58398 7.25879C7.58398 7.17713 7.67787 7.11157 7.79398 7.11157C7.9101 7.11157 8.00398 7.17713 8.00398 7.25879Z" fill="#0C4076"/>
<path d="M6.60265 13.0343C6.41265 13.4654 6.39265 13.6776 6.16765 13.6626C5.94209 13.6476 5.7832 13.6093 5.7832 13.7004C5.7832 13.791 6.14154 13.7532 6.14154 13.7532C6.14154 13.7532 5.8032 13.8976 5.86987 14.0637C5.93598 14.2304 6.2282 13.8521 6.2282 13.8521C6.2282 13.8521 6.28765 13.8671 6.40043 13.776C6.5132 13.6854 6.81154 13.2465 6.81154 13.2465L6.60265 13.0343ZM9.05376 13.0343C9.24376 13.4654 9.26376 13.6776 9.48876 13.6626C9.71431 13.6476 9.8732 13.6093 9.8732 13.7004C9.8732 13.791 9.51543 13.7532 9.51543 13.7532C9.51543 13.7532 9.85376 13.8976 9.78709 14.0637C9.72098 14.2304 9.42876 13.8521 9.42876 13.8521C9.42876 13.8521 9.36931 13.8671 9.25654 13.776C9.14376 13.6854 8.84543 13.2465 8.84543 13.2465L9.05376 13.0343Z" fill="#EDB92E"/>
<path d="M10.396 9.21545C10.2982 8.54434 9.66654 8.75267 9.3982 9.21545C9.12987 9.67823 8.8982 9.95601 8.64987 9.63212C8.40154 9.30823 8.23765 8.96101 8.59654 8.52101L8.95542 8.08101C8.90431 7.8149 8.68931 7.87268 8.38154 7.9999C8.07376 8.12712 7.87931 8.06934 7.90987 8.20823C7.94098 8.34712 8.0532 8.35879 8.0532 8.35879C8.0532 8.35879 7.85931 8.54768 7.8082 9.19934C7.75709 8.54768 7.5632 8.35879 7.5632 8.35879C7.5632 8.35879 7.67598 8.34712 7.70654 8.20823C7.73709 8.06934 7.54265 8.12712 7.23487 7.9999C6.92709 7.87268 6.71209 7.8149 6.66098 8.08101L7.01987 8.52101C7.37876 8.96101 7.21487 9.30823 6.96654 9.63212C6.71876 9.95601 6.48654 9.71323 6.2182 9.2499C5.94987 8.78712 5.31765 8.57879 5.22042 9.2499C5.12265 9.92101 5.23598 11.0899 5.23598 11.0899C5.23598 11.0899 5.17431 11.7266 5.29765 12.2705C5.42042 12.8143 5.49265 13.3005 5.29765 13.7171C5.51265 13.6593 5.64598 13.3816 5.64598 13.3816C5.64598 13.3816 5.57431 13.7171 5.70765 13.6827C5.84098 13.6482 5.87154 13.3932 5.97376 13.3005C6.07654 13.2082 6.15876 12.9999 6.15876 12.9999C6.15876 12.9999 6.37431 12.9188 6.15876 13.2777C6.3332 13.2893 6.44598 13.1732 6.44598 13.1732L6.50709 13.4977L6.60987 13.3243L6.66098 13.6366L6.84542 13.3355L6.96654 13.4743C6.96654 13.4743 6.98931 12.8843 7.1532 12.9999C7.31709 13.1155 7.32709 13.4977 7.21487 13.7288C7.10209 13.9599 7.21487 14.0532 7.21487 14.0532C7.21487 14.0532 7.05098 14.2966 6.96709 14.4355C6.8832 14.5743 7.01042 14.736 7.01042 14.736C7.01042 14.736 6.69265 15.2105 6.78098 15.396C6.86654 15.5738 7.39598 15.6871 7.7832 15.6955L7.78654 15.6971L7.8082 15.6966L7.82987 15.6971L7.8332 15.6955C8.22042 15.6871 8.74987 15.5738 8.83542 15.396C8.92431 15.211 8.60598 14.736 8.60598 14.736C8.60598 14.736 8.73265 14.5743 8.64931 14.4355C8.56542 14.2966 8.40098 14.0532 8.40098 14.0532C8.40098 14.0532 8.51376 13.9599 8.40098 13.7288C8.28876 13.4977 8.29876 13.1155 8.46265 12.9999C8.62654 12.8843 8.64876 13.4743 8.64876 13.4743L8.76987 13.3355L8.95431 13.6366L9.00542 13.3243L9.1082 13.4977L9.16931 13.1732C9.16931 13.1732 9.28209 13.2888 9.45654 13.2777C9.24098 12.9188 9.45654 12.9999 9.45654 12.9999C9.45654 12.9999 9.53876 13.2082 9.64098 13.301C9.7432 13.3938 9.77431 13.6482 9.90765 13.6832C10.041 13.7177 9.96931 13.3821 9.96931 13.3821C9.96931 13.3821 10.1026 13.6599 10.3176 13.7177C10.1232 13.301 10.1949 12.8143 10.3176 12.271C10.441 11.7271 10.3793 11.0905 10.3793 11.0905C10.3793 11.0905 10.4938 9.88656 10.396 9.21545Z" fill="white"/>
<path d="M7.49438 8.45095C7.24993 8.2165 6.63993 7.91261 6.43771 7.95595C6.23549 7.99983 6.07327 8.13872 6.22382 8.35595C6.37438 8.57317 6.43771 8.56428 6.43771 8.56428C6.43771 8.56428 6.67827 8.34706 6.78271 8.46872C6.88715 8.59039 6.79993 8.63372 6.60938 8.65095C6.41827 8.66817 6.22438 8.53817 6.22438 8.53817C6.22438 8.53817 6.28715 8.76372 6.55215 8.78983C6.73049 8.96317 6.95549 8.83317 7.06882 8.83317C7.18215 8.83317 7.71104 8.65983 7.49438 8.45095ZM8.12271 8.45095C8.36715 8.2165 8.97715 7.91261 9.17938 7.95595C9.3816 7.99928 9.54382 8.13817 9.39327 8.35539C9.24271 8.57261 9.17938 8.56372 9.17938 8.56372C9.17938 8.56372 8.93882 8.3465 8.83438 8.46817C8.72993 8.58983 8.81715 8.63317 9.00771 8.65039C9.19882 8.66761 9.39271 8.53761 9.39271 8.53761C9.39271 8.53761 9.32993 8.76317 9.06493 8.78928C8.8866 8.96317 8.6616 8.83317 8.54827 8.83317C8.43493 8.83317 7.90549 8.65983 8.12271 8.45095ZM6.4266 14.4993C6.50271 14.3237 6.44938 14.2987 6.38827 14.2376C6.34823 14.1956 6.31689 14.1462 6.29604 14.0921C6.29604 14.0921 6.26549 14.1765 6.20382 14.2376C6.14215 14.2982 6.08882 14.3232 6.16493 14.4993C5.97993 14.3898 5.94938 14.5904 6.03438 14.7121C6.05827 14.6026 6.20382 14.6276 6.20382 14.7609C6.20382 14.8943 6.08327 14.8337 6.09771 14.8882C6.11271 14.9432 6.22271 15.0582 6.29549 15.0582C6.36827 15.0582 6.47882 14.9432 6.49327 14.8882C6.50827 14.8332 6.38771 14.8943 6.38771 14.7609C6.38771 14.6276 6.53271 14.6026 6.55715 14.7121C6.64271 14.5904 6.61215 14.3898 6.4266 14.4993ZM9.44771 14.4993C9.52382 14.3237 9.47049 14.2987 9.40882 14.2376C9.36879 14.1956 9.33745 14.1462 9.3166 14.0921C9.3166 14.0921 9.28604 14.1765 9.22438 14.2376C9.16271 14.2982 9.10938 14.3232 9.18549 14.4993C9.00049 14.3898 8.96993 14.5904 9.05493 14.7121C9.07882 14.6026 9.22438 14.6276 9.22438 14.7609C9.22438 14.8943 9.10382 14.8337 9.11882 14.8882C9.13326 14.9432 9.24382 15.0582 9.3166 15.0582C9.38938 15.0582 9.49993 14.9432 9.51438 14.8882C9.52938 14.8332 9.40882 14.8943 9.40882 14.7609C9.40882 14.6276 9.55382 14.6026 9.57827 14.7121C9.66327 14.5904 9.63326 14.3898 9.44771 14.4993Z" fill="#EDB92E"/>
<path d="M6.58008 9.87488V12.0188C6.58008 12.3479 6.71084 12.6636 6.94359 12.8964C7.17634 13.1291 7.49203 13.2599 7.82119 13.2599C8.15035 13.2599 8.46603 13.1291 8.69879 12.8964C8.93154 12.6636 9.0623 12.3479 9.0623 12.0188V9.87488H6.58008Z" fill="#C6363C"/>
<path d="M9.06174 11.151H8.08841V9.87488H7.55397V11.151H6.58008V11.686H7.55397V13.2299C7.64008 13.2488 7.72897 13.2604 7.82119 13.2604C7.91341 13.2604 8.0023 13.2488 8.08897 13.2299V11.686H9.06286V11.151H9.06174Z" fill="#EEEEEE"/>
</g>
<defs>
<clipPath id="clip0_3489_1805">
<rect width="20" height="20" fill="white" transform="translate(0.888672 0.499878)"/>
</clipPath>
</defs>
</svg>
