<svg width="21" height="21" viewBox="0 0 21 21" fill="none" xmlns="http://www.w3.org/2000/svg">
<g clip-path="url(#clip0_3501_3602)">
<path d="M20.8901 15.4999C20.8901 16.0892 20.656 16.6545 20.2393 17.0712C19.8225 17.488 19.2573 17.7221 18.6679 17.7221H3.11236C2.52299 17.7221 1.95776 17.488 1.54101 17.0712C1.12426 16.6545 0.890137 16.0892 0.890137 15.4999V5.49987C0.890137 4.9105 1.12426 4.34527 1.54101 3.92852C1.95776 3.51178 2.52299 3.27765 3.11236 3.27765H18.6679C19.2573 3.27765 19.8225 3.51178 20.2393 3.92852C20.656 4.34527 20.8901 4.9105 20.8901 5.49987V15.4999Z" fill="#EEEEEE"/>
<path d="M20.8901 10.4999V5.49987C20.8901 4.9105 20.656 4.34527 20.2393 3.92852C19.8225 3.51178 19.2573 3.27765 18.6679 3.27765H3.11236C2.52299 3.27765 1.95776 3.51178 1.54101 3.92852C1.12426 4.34527 0.890137 4.9105 0.890137 5.49987L0.890137 10.4999H20.8901Z" fill="#ED2939"/>
<path d="M4.22331 6.88875C4.22331 5.45264 5.12553 4.25097 6.33997 3.9243C6.10192 3.86481 5.85757 3.83422 5.6122 3.83319C4.80181 3.83319 4.02462 4.15511 3.45159 4.72814C2.87856 5.30117 2.55664 6.07836 2.55664 6.88875C2.55664 7.69913 2.87856 8.47632 3.45159 9.04935C4.02462 9.62238 4.80181 9.9443 5.6122 9.9443C5.86331 9.9443 6.10609 9.91097 6.33997 9.85319C5.12553 9.52652 4.22331 8.32486 4.22331 6.88875Z" fill="white"/>
<path d="M7.55682 4.38879L7.68182 4.77268H8.08515L7.75848 5.00991L7.88348 5.39379L7.55682 5.15657L7.23015 5.39379L7.35515 5.00991L7.02848 4.77268H7.43182L7.55682 4.38879ZM6.44571 8.27768L6.57071 8.66157H6.97404L6.64737 8.89879L6.77237 9.28268L6.44571 9.04546L6.11904 9.28268L6.24404 8.89879L5.91737 8.66157H6.32071L6.44571 8.27768ZM8.66793 8.27768L8.79293 8.66157H9.19626L8.86959 8.89879L8.99459 9.28268L8.66793 9.04546L8.34126 9.28268L8.46626 8.89879L8.13959 8.66157H8.54293L8.66793 8.27768ZM5.89015 6.05546L6.01515 6.43935H6.41848L6.09182 6.67657L6.21682 7.06046L5.89015 6.82324L5.56348 7.06046L5.68848 6.67657L5.36182 6.43935H5.76515L5.89015 6.05546ZM9.22348 6.05546L9.34848 6.43935H9.75182L9.42515 6.67657L9.55015 7.06046L9.22348 6.82324L8.89682 7.06046L9.02182 6.67657L8.69515 6.43935H9.09848L9.22348 6.05546Z" fill="#EEEEEE"/>
</g>
<defs>
<clipPath id="clip0_3501_3602">
<rect width="20" height="20" fill="white" transform="translate(0.890137 0.499878)"/>
</clipPath>
</defs>
</svg>
