<svg width="21" height="21" viewBox="0 0 21 21" fill="none" xmlns="http://www.w3.org/2000/svg">
<path d="M20 13.83C20 15.8237 18.9986 17.44 17.0312 17.44H3.96875C2.00136 17.44 1 15.8237 1 13.83V6.61C1 4.6163 2.00136 3 3.96875 3H17.0312C18.9986 3 20 4.6163 20 6.61V13.83Z" fill="#EC1C24"/>
<path fill-rule="evenodd" clip-rule="evenodd" d="M12.3208 12.0358C11.6014 13.158 10.1036 13.8658 8.5364 13.408C7.05733 12.9749 6.0414 11.5417 6.12546 9.99612C6.20733 8.44362 7.37359 7.12331 8.88921 6.85549C10.4951 6.57018 11.7851 7.43112 12.3361 8.33237C11.6833 7.69049 10.9242 7.40143 10.0355 7.50299C9.33921 7.58299 8.75733 7.89768 8.30171 8.42893C7.40983 9.46706 7.44265 11.0239 8.3739 12.0036C8.90796 12.5655 9.56483 12.8596 10.3401 12.8667C11.1148 12.8724 11.772 12.5792 12.3226 12.0374" fill="white"/>
<path d="M13.7121 8.93456L14.3464 9.52331L15.1927 9.33581L14.828 10.1233L15.2683 10.8674L14.4089 10.7639L13.8343 11.4139L13.6683 10.5633L12.8721 10.2183L13.6289 9.79831L13.7121 8.93456Z" fill="white"/>
</svg>
