<svg width="19" height="15" viewBox="0 0 19 15" fill="none" xmlns="http://www.w3.org/2000/svg">
<path d="M18.134 2.08337C17.4957 2.36994 16.8145 2.56211 16.1035 2.65868C16.832 2.21518 17.385 1.52332 17.6407 0.692943C16.9614 1.10587 16.2101 1.39988 15.4081 1.56723C14.7539 0.882523 13.8262 0.462939 12.8183 0.4716C10.8627 0.488404 9.3019 2.08926 9.31862 4.03519C9.32103 4.31518 9.34703 4.58419 9.40739 4.83999C6.46949 4.722 3.85888 3.33684 2.09483 1.20777C1.79462 1.73913 1.62105 2.34588 1.62665 2.99739C1.63716 4.22073 2.27646 5.29974 3.22089 5.91949C2.65328 5.9136 2.09512 5.75362 1.62121 5.49815C1.62131 5.50892 1.62143 5.52291 1.62155 5.53691C1.6363 7.25347 2.87296 8.66874 4.48142 8.98339C4.19457 9.06448 3.88152 9.10486 3.5563 9.10765C3.33015 9.1096 3.10174 9.09864 2.88704 9.05309C3.35673 10.448 4.66429 11.4653 6.20883 11.4854C5.0151 12.4359 3.49403 13.0154 1.84209 13.0296C1.55241 13.0321 1.27446 13.0216 0.996318 12.9884C2.5697 13.984 4.42904 14.5442 6.42882 14.527C12.9289 14.4712 16.4363 9.05622 16.3962 4.389C16.3949 4.23285 16.3882 4.08214 16.3794 3.93252C17.0762 3.42897 17.6599 2.80255 18.134 2.08337Z" fill="#1C9BEF"/>
</svg>
