<svg width="21" height="21" viewBox="0 0 21 21" fill="none" xmlns="http://www.w3.org/2000/svg">
<g clip-path="url(#clip0_3501_3640)">
<path d="M18.6679 3.27765H5.89014V8.27765H20.8901V5.49987C20.8901 4.9105 20.656 4.34527 20.2393 3.92852C19.8225 3.51178 19.2573 3.27765 18.6679 3.27765Z" fill="#068241"/>
<path d="M5.89014 8.27765H20.8901V12.7221H5.89014V8.27765Z" fill="#EEEEEE"/>
<path d="M5.89014 17.7221H18.6679C19.2573 17.7221 19.8225 17.488 20.2393 17.0712C20.656 16.6545 20.8901 16.0893 20.8901 15.4999V12.7221H5.89014V17.7221Z" fill="#141414"/>
<path d="M3.11236 3.27765C2.52299 3.27765 1.95776 3.51178 1.54101 3.92852C1.12426 4.34527 0.890137 4.9105 0.890137 5.49987L0.890137 15.4999C0.890137 16.0892 1.12426 16.6545 1.54101 17.0712C1.95776 17.488 2.52299 17.7221 3.11236 17.7221H5.89014V3.27765H3.11236Z" fill="#EC2028"/>
</g>
<defs>
<clipPath id="clip0_3501_3640">
<rect width="20" height="20" fill="white" transform="translate(0.890137 0.499878)"/>
</clipPath>
</defs>
</svg>
