<svg width="21" height="21" viewBox="0 0 21 21" fill="none" xmlns="http://www.w3.org/2000/svg">
<g clip-path="url(#clip0_3501_3755)">
<path d="M0.890137 5.53266V7.7221H4.0168L0.890137 5.53266ZM3.48125 17.7221H8.11236V14.4793L3.48125 17.7221ZM13.6679 14.4799V17.7221H18.2985L13.6679 14.4799ZM0.890137 13.2777V15.4671L4.01791 13.2777H0.890137ZM18.2996 3.27766H13.6679V6.52043L18.2996 3.27766ZM20.8901 15.4677V13.2777H17.7618L20.8901 15.4677ZM20.8901 7.7221V5.53266L17.7629 7.7221H20.8901ZM8.11236 3.27766H3.48125L8.11236 6.52043V3.27766Z" fill="#00247D"/>
<path d="M14.857 13.2777L20.2525 17.056C20.516 16.7845 20.7054 16.45 20.8025 16.0843L16.7942 13.2777H14.857ZM8.11254 13.2777H6.9231L1.52809 17.0554C1.81754 17.3499 2.18865 17.5604 2.60476 17.6582L8.11254 13.8015V13.2777ZM13.6681 7.7221H14.8575L20.2525 3.94432C19.9581 3.64559 19.585 3.43656 19.1764 3.34155L13.6681 7.19821V7.7221ZM6.9231 7.7221L1.52809 3.94432C1.26474 4.21598 1.07521 4.55046 0.977539 4.91599L4.98587 7.7221H6.9231Z" fill="#CF1B2B"/>
<path d="M20.8901 12.1665H12.5568V17.7221H13.6679V14.4799L18.2985 17.7221H18.6679C18.9631 17.7221 19.2552 17.6632 19.5273 17.5489C19.7994 17.4345 20.0459 17.2669 20.2524 17.056L14.8568 13.2777H16.794L20.8024 16.0843C20.854 15.8971 20.8901 15.7032 20.8901 15.4999V15.4677L17.7618 13.2777H20.8901V12.1665ZM0.890137 12.1665V13.2777H4.01791L0.890137 15.4671V15.4999C0.890137 16.106 1.13403 16.6543 1.52791 17.0554L6.92291 13.2777H8.11236V13.8015L2.60458 17.6577C2.76791 17.6965 2.9368 17.7221 3.11236 17.7221H3.48125L8.11236 14.4793V17.7221H9.22347V12.1665H0.890137ZM20.8901 5.49988C20.8905 4.91764 20.6613 4.35874 20.2524 3.94432L14.8574 7.7221H13.6679V7.19821L19.1762 3.34154C19.0098 3.30073 18.8393 3.27929 18.6679 3.27765H18.2996L13.6679 6.52043V3.27765H12.5568V8.83321H20.8901V7.7221H17.7629L20.8901 5.53266V5.49988ZM8.11236 3.27765V6.52043L3.48125 3.27765H3.11236C2.81715 3.27753 2.5249 3.33644 2.25279 3.45093C1.98069 3.56542 1.73423 3.73317 1.52791 3.94432L6.92291 7.7221H4.98569L0.977359 4.91599C0.922237 5.10583 0.8929 5.30222 0.890137 5.49988L0.890137 5.53266L4.0168 7.7221H0.890137V8.83321H9.22347V3.27765H8.11236Z" fill="#EEEEEE"/>
<path d="M12.5568 8.83321V3.27766H9.22347V8.83321H0.890137V12.1665H9.22347V17.7221H12.5568V12.1665H20.8901V8.83321H12.5568Z" fill="#CF1B2B"/>
</g>
<defs>
<clipPath id="clip0_3501_3755">
<rect width="20" height="20" fill="white" transform="translate(0.890137 0.499878)"/>
</clipPath>
</defs>
</svg>
