<svg width="17" height="17" viewBox="0 0 17 17" fill="none" xmlns="http://www.w3.org/2000/svg">
<path d="M8.88965 10.25C10.3568 10.25 11.5459 9.075 11.5459 7.625V4.125C11.5459 2.675 10.3568 1.5 8.88965 1.5C7.42246 1.5 6.2334 2.675 6.2334 4.125V7.625C6.2334 9.075 7.42246 10.25 8.88965 10.25ZM14.0459 7.59375C14.0459 7.525 13.9896 7.46875 13.9209 7.46875H12.9834C12.9146 7.46875 12.8584 7.525 12.8584 7.59375C12.8584 9.78594 11.0818 11.5625 8.88965 11.5625C6.69746 11.5625 4.9209 9.78594 4.9209 7.59375C4.9209 7.525 4.86465 7.46875 4.7959 7.46875H3.8584C3.78965 7.46875 3.7334 7.525 3.7334 7.59375C3.7334 10.2297 5.71152 12.4047 8.26465 12.7125V14.3125H5.99434C5.78027 14.3125 5.6084 14.5359 5.6084 14.8125V15.375C5.6084 15.4438 5.65215 15.5 5.70527 15.5H12.074C12.1271 15.5 12.1709 15.4438 12.1709 15.375V14.8125C12.1709 14.5359 11.999 14.3125 11.785 14.3125H9.45215V12.7203C12.035 12.4391 14.0459 10.2516 14.0459 7.59375Z" fill="#0E1220"/>
</svg>
