<svg width="18" height="19" viewBox="0 0 18 19" fill="none" xmlns="http://www.w3.org/2000/svg">
<g clip-path="url(#clip0_3501_2918)">
<path d="M17.6255 5.72509C17.5235 5.36152 17.325 5.03235 17.051 4.77259C16.7692 4.50485 16.4238 4.31332 16.0475 4.21609C14.639 3.84484 8.99596 3.84484 8.99596 3.84484C6.64346 3.81808 4.29153 3.9358 1.95346 4.19734C1.57711 4.30175 1.23239 4.49756 0.949963 4.76734C0.672463 5.03434 0.471463 5.36359 0.366463 5.72434C0.114233 7.08315 -0.0083181 8.46285 0.000462887 9.84484C-0.00853711 11.2256 0.113713 12.6048 0.366463 13.9653C0.469213 14.3246 0.669463 14.6523 0.947713 14.9171C1.22596 15.1818 1.57246 15.3731 1.95346 15.4743C3.38071 15.8448 8.99596 15.8448 8.99596 15.8448C11.3515 15.8716 13.7064 15.7539 16.0475 15.4923C16.4238 15.3951 16.7692 15.2036 17.051 14.9358C17.3249 14.6761 17.5232 14.3469 17.6247 13.9833C17.8835 12.6251 18.0094 11.2448 18.0005 9.86209C18.0199 8.47355 17.8942 7.08677 17.6255 5.72434V5.72509ZM7.20196 12.4128V7.27759L11.897 9.8456L7.20196 12.4128Z" fill="#E22440"/>
</g>
<defs>
<clipPath id="clip0_3501_2918">
<rect width="18" height="18" fill="white" transform="translate(0 0.844849)"/>
</clipPath>
</defs>
</svg>
