<svg width="198" height="37" viewBox="0 0 198 37" fill="none" xmlns="http://www.w3.org/2000/svg">
<path d="M14.4862 9.17569C14.4139 9.988 14.3598 10.7732 14.3237 11.5314C14.3056 12.2895 14.2966 12.8762 14.2966 13.2914C14.2966 13.6885 14.3056 14.0676 14.3237 14.4286C14.3417 14.7896 14.3598 15.0965 14.3778 15.3492H13.7551C13.5204 13.9412 13.1955 12.8401 12.7803 12.0458C12.3651 11.2335 11.8507 10.6559 11.2369 10.3129C10.6412 9.96995 9.92821 9.79846 9.09785 9.79846H8.20431C7.68082 9.79846 7.28369 9.84359 7.01292 9.93385C6.74215 10.0241 6.56164 10.2046 6.47138 10.4754C6.38113 10.7462 6.336 11.1613 6.336 11.7209V25.3135C6.336 26.0175 6.40821 26.541 6.55262 26.884C6.69703 27.227 6.97682 27.4526 7.392 27.5609C7.80718 27.6692 8.42092 27.7324 9.23323 27.7505V28.3462C8.67364 28.3281 7.95159 28.3101 7.06708 28.292C6.18256 28.2739 5.25292 28.2649 4.27815 28.2649C3.50195 28.2649 2.74379 28.2739 2.00369 28.292C1.26359 28.3101 0.595692 28.3281 0 28.3462V27.8046C0.577641 27.7685 1.01087 27.6963 1.29969 27.588C1.58851 27.4797 1.77805 27.2631 1.86831 26.9382C1.97662 26.6132 2.03077 26.1258 2.03077 25.476V12.0458C2.03077 11.3779 1.97662 10.8906 1.86831 10.5837C1.77805 10.2588 1.57949 10.0422 1.27262 9.93385C0.983795 9.80749 0.55959 9.73528 0 9.71723V9.17569C0.740103 9.19374 1.52533 9.21179 2.35569 9.22985C3.18605 9.22985 4.00738 9.23887 4.81969 9.25692C5.632 9.25692 6.39015 9.25692 7.09415 9.25692C7.79815 9.25692 8.3758 9.25692 8.82708 9.25692C9.65744 9.25692 10.5961 9.25692 11.6431 9.25692C12.7081 9.23887 13.6558 9.21179 14.4862 9.17569ZM10.4517 18.5443C10.4517 18.5443 10.4517 18.6346 10.4517 18.8151C10.4517 18.9956 10.4517 19.0858 10.4517 19.0858H5.52369C5.52369 19.0858 5.52369 18.9956 5.52369 18.8151C5.52369 18.6346 5.52369 18.5443 5.52369 18.5443H10.4517ZM11.1286 14.9702C11.0564 15.9991 11.0203 16.7843 11.0203 17.3258C11.0384 17.8674 11.0474 18.3638 11.0474 18.8151C11.0474 19.2664 11.0564 19.7628 11.0745 20.3043C11.0925 20.8458 11.1376 21.6311 11.2098 22.66H10.5871C10.4788 22.0282 10.3073 21.4415 10.0726 20.9C9.83795 20.3585 9.49497 19.9252 9.04369 19.6003C8.59241 19.2573 8.00574 19.0858 7.28369 19.0858V18.5443C7.82523 18.5443 8.27651 18.436 8.63754 18.2194C9.01662 17.9847 9.33251 17.6869 9.58523 17.3258C9.83795 16.9468 10.0365 16.5496 10.1809 16.1345C10.3253 15.7193 10.4336 15.3312 10.5058 14.9702H11.1286Z" fill="black"/>
<path d="M22.0516 13.9683C23.3694 13.9683 24.5246 14.212 25.5175 14.6994C26.5103 15.1868 27.2865 15.972 27.8461 17.0551C28.4057 18.1382 28.6855 19.5732 28.6855 21.3603C28.6855 23.1474 28.4057 24.5825 27.8461 25.6655C27.2865 26.7306 26.5103 27.5068 25.5175 27.9942C24.5246 28.4815 23.3694 28.7252 22.0516 28.7252C20.77 28.7252 19.6237 28.4815 18.6128 27.9942C17.62 27.5068 16.8348 26.7306 16.2572 25.6655C15.6976 24.5825 15.4178 23.1474 15.4178 21.3603C15.4178 19.5732 15.6976 18.1382 16.2572 17.0551C16.8348 15.972 17.62 15.1868 18.6128 14.6994C19.6237 14.212 20.77 13.9683 22.0516 13.9683ZM22.0516 14.5098C21.3296 14.5098 20.7248 15.0514 20.2375 16.1345C19.7501 17.1995 19.5064 18.9414 19.5064 21.3603C19.5064 23.7792 19.7501 25.5211 20.2375 26.5862C20.7248 27.6512 21.3296 28.1837 22.0516 28.1837C22.7917 28.1837 23.3964 27.6512 23.8658 26.5862C24.3532 25.5211 24.5968 23.7792 24.5968 21.3603C24.5968 18.9414 24.3532 17.1995 23.8658 16.1345C23.3964 15.0514 22.7917 14.5098 22.0516 14.5098Z" fill="black"/>
<path d="M39.6903 13.9683C40.268 13.9683 40.7373 14.0947 41.0983 14.3474C41.4594 14.5821 41.7211 14.8889 41.8836 15.268C42.0641 15.6471 42.1543 16.0442 42.1543 16.4594C42.1543 17.1273 41.9558 17.6778 41.5586 18.1111C41.1796 18.5263 40.6741 18.7338 40.0423 18.7338C39.4105 18.7338 38.9141 18.5804 38.5531 18.2735C38.2101 17.9486 38.0386 17.5244 38.0386 17.0009C38.0386 16.4955 38.1469 16.0803 38.3636 15.7554C38.5982 15.4124 38.887 15.1236 39.23 14.8889C38.9773 14.8167 38.7246 14.8257 38.4719 14.916C38.1289 14.9702 37.804 15.1146 37.4971 15.3492C37.1902 15.5658 36.9285 15.8456 36.7119 16.1886C36.4953 16.5135 36.3238 16.8746 36.1974 17.2717C36.071 17.6508 36.0079 18.0208 36.0079 18.3818V25.5572C36.0079 26.4237 36.2155 27.0104 36.6306 27.3172C37.0639 27.6241 37.7047 27.7775 38.5531 27.7775V28.3462C38.1379 28.3281 37.5332 28.3101 36.7389 28.292C35.9447 28.2559 35.1143 28.2378 34.2479 28.2378C33.5258 28.2378 32.7947 28.2559 32.0546 28.292C31.3145 28.3101 30.7549 28.3281 30.3759 28.3462V27.7775C31.0077 27.7775 31.4499 27.6422 31.7026 27.3714C31.9734 27.1006 32.1088 26.5862 32.1088 25.828V17.2988C32.1088 16.4865 31.9824 15.8908 31.7297 15.5117C31.495 15.1146 31.0438 14.916 30.3759 14.916V14.3474C30.9535 14.4015 31.5131 14.4286 32.0546 14.4286C32.8128 14.4286 33.5168 14.4015 34.1666 14.3474C34.8345 14.2752 35.4483 14.1759 36.0079 14.0495V16.5677C36.2245 16.0803 36.5133 15.6381 36.8743 15.2409C37.2354 14.8438 37.6505 14.5369 38.1199 14.3203C38.5892 14.0856 39.1127 13.9683 39.6903 13.9683Z" fill="black"/>
<path d="M49.6309 13.9683C51.2195 13.9683 52.465 14.4376 53.3676 15.3763C54.2701 16.315 54.7214 17.8493 54.7214 19.9794H45.8131L45.7589 19.4649H51.3097C51.3278 18.5804 51.2736 17.7681 51.1473 17.028C51.0209 16.2698 50.8223 15.6651 50.5516 15.2138C50.2808 14.7626 49.9198 14.5369 49.4685 14.5369C48.8367 14.5369 48.2952 14.934 47.8439 15.7283C47.4106 16.5226 47.1489 17.8403 47.0586 19.6815L47.1399 19.844C47.1218 20.0606 47.1038 20.2863 47.0857 20.5209C47.0857 20.7556 47.0857 20.9993 47.0857 21.252C47.0857 22.4975 47.2572 23.5084 47.6002 24.2846C47.9612 25.0608 48.4125 25.6294 48.954 25.9905C49.4956 26.3334 50.0461 26.5049 50.6057 26.5049C50.9848 26.5049 51.3729 26.4508 51.77 26.3425C52.1852 26.2161 52.6004 25.9995 53.0156 25.6926C53.4307 25.3677 53.8188 24.9164 54.1799 24.3388L54.6673 24.5012C54.4506 25.1872 54.1077 25.8551 53.6383 26.5049C53.169 27.1548 52.5733 27.6873 51.8513 28.1025C51.1292 28.5176 50.2627 28.7252 49.2519 28.7252C48.0244 28.7252 46.9413 28.4635 46.0026 27.94C45.064 27.4165 44.3239 26.6223 43.7823 25.5572C43.2588 24.4922 42.9971 23.1384 42.9971 21.4957C42.9971 19.8169 43.2769 18.4179 43.8365 17.2988C44.4141 16.1796 45.1994 15.3492 46.1922 14.8077C47.203 14.2481 48.3493 13.9683 49.6309 13.9683Z" fill="black"/>
<path d="M61.6506 13.9683C62.4087 13.9683 63.0676 14.0676 63.6272 14.2662C64.2048 14.4467 64.62 14.6272 64.8727 14.8077C65.4865 15.2229 65.8655 14.9521 66.0099 13.9954H66.5786C66.5425 14.5008 66.5154 15.1236 66.4973 15.8637C66.4793 16.5857 66.4703 17.5515 66.4703 18.7609H65.9016C65.8114 18.093 65.6399 17.4342 65.3872 16.7843C65.1345 16.1345 64.7644 15.6019 64.277 15.1868C63.8077 14.7716 63.1939 14.564 62.4358 14.564C61.9123 14.564 61.47 14.7174 61.109 15.0243C60.748 15.3131 60.5675 15.7373 60.5675 16.2969C60.5675 16.8385 60.7299 17.3168 61.0549 17.732C61.3798 18.1291 61.795 18.5172 62.3004 18.8963C62.8239 19.2573 63.3654 19.6454 63.925 20.0606C64.5207 20.5119 65.0623 20.9632 65.5496 21.4145C66.037 21.8477 66.4251 22.3261 66.7139 22.8495C67.0028 23.373 67.1472 23.9958 67.1472 24.7178C67.1472 25.5302 66.9125 26.2432 66.4432 26.8569C65.9738 27.4526 65.3511 27.9129 64.5749 28.2378C63.8167 28.5628 62.9683 28.7252 62.0296 28.7252C61.4881 28.7252 61.0007 28.6711 60.5675 28.5628C60.1523 28.4545 59.7913 28.3191 59.4844 28.1566C59.2497 28.0483 59.0241 27.949 58.8075 27.8588C58.6089 27.7505 58.4194 27.6602 58.2389 27.588C58.0584 27.5338 57.8959 27.597 57.7515 27.7775C57.6251 27.9581 57.5258 28.2108 57.4536 28.5357H56.885C56.9211 27.9581 56.9482 27.2541 56.9663 26.4237C56.9843 25.5933 56.9933 24.4922 56.9933 23.1203H57.5619C57.6703 24.0951 57.8688 24.9615 58.1576 25.7197C58.4465 26.4598 58.8346 27.0465 59.3219 27.4797C59.8274 27.8949 60.4592 28.1025 61.2173 28.1025C61.5242 28.1025 61.822 28.0393 62.1109 27.9129C62.3997 27.7866 62.6344 27.579 62.8149 27.2902C63.0134 27.0013 63.1127 26.6313 63.1127 26.18C63.1127 25.3857 62.851 24.7269 62.3275 24.2034C61.8221 23.6799 61.1722 23.1113 60.3779 22.4975C59.8003 22.0282 59.2497 21.5679 58.7263 21.1166C58.2208 20.6473 57.8056 20.1418 57.4807 19.6003C57.1558 19.0407 56.9933 18.4089 56.9933 17.7049C56.9933 16.8926 57.2099 16.2067 57.6432 15.6471C58.0764 15.0875 58.645 14.6723 59.349 14.4015C60.0711 14.1127 60.8383 13.9683 61.6506 13.9683Z" fill="black"/>
<path d="M74.2932 9.90677V14.3474H77.4882V14.8889H74.2932V25.828C74.2932 26.3695 74.3924 26.7576 74.591 26.9923C74.7896 27.2089 75.0874 27.3172 75.4845 27.3172C75.8095 27.3172 76.1344 27.1999 76.4593 26.9652C76.7842 26.7125 77.0731 26.2883 77.3258 25.6926L77.7861 25.9363C77.4973 26.7486 77.055 27.4165 76.4593 27.94C75.8817 28.4635 75.0874 28.7252 74.0765 28.7252C73.4808 28.7252 72.9574 28.644 72.5061 28.4815C72.0548 28.3371 71.6757 28.1115 71.3688 27.8046C70.9717 27.4075 70.71 26.9201 70.5836 26.3425C70.4573 25.7468 70.3941 24.9796 70.3941 24.0409V14.8889H68.1196V14.3474H70.3941V10.7732C71.1522 10.7732 71.8472 10.71 72.479 10.5837C73.1288 10.4393 73.7336 10.2136 74.2932 9.90677Z" fill="black"/>
<path d="M90.5121 8.65385L96.3582 25.2308H96.589L102.435 8.65385H104.935L97.7044 28.3462H95.2428L88.0121 8.65385H90.5121ZM96.4736 37C94.4287 37 92.48 36.6891 90.6275 36.0673C88.7813 35.4455 87.0858 34.5673 85.5409 33.4327C84.0025 32.3045 82.6659 30.9679 81.5313 29.4231C80.4031 27.8846 79.5281 26.1923 78.9063 24.3462C78.2845 22.4936 77.9736 20.5449 77.9736 18.5C77.9736 16.4551 78.2845 14.5096 78.9063 12.6635C79.5281 10.8109 80.4031 9.11538 81.5313 7.57692C82.6659 6.03205 84.0025 4.69551 85.5409 3.56731C87.0858 2.43269 88.7813 1.55449 90.6275 0.932692C92.48 0.310897 94.4287 0 96.4736 0C98.5185 0 100.464 0.310897 102.31 0.932692C104.163 1.55449 105.858 2.43269 107.397 3.56731C108.942 4.69551 110.278 6.03205 111.406 7.57692C112.541 9.11538 113.419 10.8109 114.041 12.6635C114.663 14.5096 114.974 16.4551 114.974 18.5C114.974 20.5449 114.663 22.4936 114.041 24.3462C113.419 26.1923 112.541 27.8846 111.406 29.4231C110.278 30.9679 108.942 32.3045 107.397 33.4327C105.858 34.5673 104.163 35.4455 102.31 36.0673C100.464 36.6891 98.5185 37 96.4736 37ZM96.4736 34.7692C98.2749 34.7692 99.9864 34.4936 101.608 33.9423C103.236 33.3974 104.727 32.625 106.079 31.625C107.438 30.6314 108.615 29.4583 109.608 28.1058C110.608 26.7468 111.381 25.2564 111.926 23.6346C112.47 22.0064 112.743 20.2949 112.743 18.5C112.743 16.6987 112.47 14.9872 111.926 13.3654C111.381 11.7372 110.608 10.2468 109.608 8.89423C108.615 7.53526 107.438 6.35897 106.079 5.36538C104.727 4.36538 103.236 3.59295 101.608 3.04808C99.9864 2.5032 98.2749 2.23077 96.4736 2.23077C94.6723 2.23077 92.9576 2.5032 91.3294 3.04808C89.7076 3.59295 88.2172 4.36538 86.8582 5.36538C85.5057 6.35897 84.3294 7.53526 83.3294 8.89423C82.3358 10.2468 81.5666 11.7372 81.0217 13.3654C80.4768 14.9872 80.2044 16.6987 80.2044 18.5C80.2044 20.2949 80.4768 22.0064 81.0217 23.6346C81.5666 25.2564 82.3358 26.7468 83.3294 28.1058C84.3294 29.4583 85.5057 30.6314 86.8582 31.625C88.2172 32.625 89.7076 33.3974 91.3294 33.9423C92.9576 34.4936 94.6723 34.7692 96.4736 34.7692Z" fill="black"/>
<path d="M134.058 9.17569V9.71723C133.48 9.78944 133.047 9.94287 132.758 10.1775C132.469 10.3942 132.271 10.7462 132.162 11.2335C132.072 11.7209 132.027 12.4069 132.027 13.2914V28.4003C131.81 28.3823 131.585 28.3732 131.35 28.3732C131.133 28.3732 130.899 28.3823 130.646 28.4003L118.895 13.508V23.9055C118.895 24.8984 118.949 25.6655 119.057 26.2071C119.165 26.7306 119.4 27.1096 119.761 27.3443C120.14 27.5609 120.727 27.7144 121.521 27.8046V28.3462C121.178 28.3101 120.727 28.292 120.167 28.292C119.608 28.2739 119.084 28.2649 118.597 28.2649C118.182 28.2649 117.757 28.2739 117.324 28.292C116.891 28.292 116.53 28.3101 116.241 28.3462V27.8046C116.819 27.7144 117.252 27.5609 117.541 27.3443C117.83 27.1277 118.019 26.7757 118.109 26.2883C118.218 25.7829 118.272 25.0969 118.272 24.2305V12.0458C118.272 11.3779 118.218 10.8906 118.109 10.5837C118.019 10.2588 117.821 10.0422 117.514 9.93385C117.225 9.80749 116.801 9.73528 116.241 9.71723V9.17569C116.53 9.19374 116.891 9.21179 117.324 9.22985C117.757 9.2479 118.182 9.25692 118.597 9.25692C119.03 9.25692 119.445 9.2479 119.842 9.22985C120.239 9.21179 120.6 9.19374 120.925 9.17569L131.404 22.0914V13.6163C131.404 12.6235 131.35 11.8653 131.242 11.3418C131.133 10.8003 130.89 10.4122 130.511 10.1775C130.15 9.94287 129.572 9.78944 128.778 9.71723V9.17569C129.121 9.19374 129.572 9.21179 130.131 9.22985C130.691 9.2479 131.215 9.25692 131.702 9.25692C132.135 9.25692 132.559 9.2479 132.975 9.22985C133.408 9.21179 133.769 9.19374 134.058 9.17569Z" fill="black"/>
<path d="M138.665 28.5357C137.853 28.5357 137.176 28.3823 136.635 28.0754C136.093 27.7685 135.696 27.3624 135.443 26.8569C135.19 26.3334 135.064 25.7648 135.064 25.1511C135.064 24.3749 135.236 23.7431 135.579 23.2557C135.94 22.7683 136.4 22.3712 136.96 22.0643C137.519 21.7574 138.106 21.5047 138.72 21.3062C139.351 21.1076 139.947 20.9181 140.507 20.7375C141.084 20.539 141.545 20.3133 141.888 20.0606C142.249 19.7898 142.429 19.4469 142.429 19.0317V16.9197C142.429 16.4504 142.348 16.0352 142.185 15.6742C142.041 15.2951 141.806 15.0063 141.481 14.8077C141.174 14.6091 140.768 14.5098 140.263 14.5098C139.902 14.5098 139.541 14.564 139.18 14.6723C138.819 14.7626 138.521 14.925 138.286 15.1597C138.792 15.3402 139.18 15.62 139.451 15.9991C139.739 16.3601 139.884 16.7753 139.884 17.2446C139.884 17.8584 139.667 18.3457 139.234 18.7068C138.819 19.0678 138.322 19.2483 137.745 19.2483C137.095 19.2483 136.598 19.0497 136.256 18.6526C135.931 18.2374 135.768 17.741 135.768 17.1634C135.768 16.6399 135.894 16.2067 136.147 15.8637C136.418 15.5207 136.788 15.1958 137.257 14.8889C137.763 14.6001 138.368 14.3745 139.072 14.212C139.794 14.0495 140.57 13.9683 141.4 13.9683C142.23 13.9683 142.98 14.0586 143.648 14.2391C144.315 14.4015 144.875 14.7084 145.326 15.1597C145.741 15.5749 146.012 16.0893 146.139 16.7031C146.265 17.2988 146.328 18.0569 146.328 18.9775V26.3425C146.328 26.7937 146.373 27.1096 146.464 27.2902C146.554 27.4526 146.707 27.5338 146.924 27.5338C147.086 27.5338 147.24 27.4887 147.384 27.3985C147.547 27.3082 147.718 27.1999 147.899 27.0735L148.169 27.5338C147.79 27.8588 147.348 28.1115 146.843 28.292C146.355 28.4545 145.805 28.5357 145.191 28.5357C144.523 28.5357 143.99 28.4454 143.593 28.2649C143.196 28.0664 142.907 27.8046 142.727 27.4797C142.564 27.1548 142.483 26.7757 142.483 26.3425C142.05 27.0284 141.526 27.5699 140.913 27.9671C140.299 28.3462 139.55 28.5357 138.665 28.5357ZM140.588 26.8028C140.949 26.8028 141.274 26.7215 141.563 26.5591C141.869 26.3786 142.158 26.0897 142.429 25.6926V20.1418C142.267 20.4126 142.041 20.6563 141.752 20.8729C141.463 21.0895 141.156 21.3152 140.832 21.5498C140.507 21.7665 140.191 22.0102 139.884 22.2809C139.595 22.5517 139.36 22.8856 139.18 23.2828C138.999 23.6799 138.909 24.1583 138.909 24.7178C138.909 25.4218 139.062 25.9453 139.369 26.2883C139.676 26.6313 140.082 26.8028 140.588 26.8028Z" fill="black"/>
<path d="M154.44 9.90677V14.3474H157.635V14.8889H154.44V25.828C154.44 26.3695 154.539 26.7576 154.738 26.9923C154.936 27.2089 155.234 27.3172 155.631 27.3172C155.956 27.3172 156.281 27.1999 156.606 26.9652C156.931 26.7125 157.22 26.2883 157.472 25.6926L157.933 25.9363C157.644 26.7486 157.202 27.4165 156.606 27.94C156.028 28.4635 155.234 28.7252 154.223 28.7252C153.627 28.7252 153.104 28.644 152.653 28.4815C152.201 28.3371 151.822 28.1115 151.515 27.8046C151.118 27.4075 150.857 26.9201 150.73 26.3425C150.604 25.7468 150.541 24.9796 150.541 24.0409V14.8889H148.266V14.3474H150.541V10.7732C151.299 10.7732 151.994 10.71 152.626 10.5837C153.275 10.4393 153.88 10.2136 154.44 9.90677Z" fill="black"/>
<path d="M161.982 7.36154C162.741 7.36154 163.336 7.55108 163.769 7.93015C164.221 8.29118 164.446 8.79662 164.446 9.44646C164.446 10.0963 164.221 10.6108 163.769 10.9898C163.336 11.3509 162.741 11.5314 161.982 11.5314C161.224 11.5314 160.62 11.3509 160.168 10.9898C159.735 10.6108 159.518 10.0963 159.518 9.44646C159.518 8.79662 159.735 8.29118 160.168 7.93015C160.62 7.55108 161.224 7.36154 161.982 7.36154ZM164.094 14.0495V25.828C164.094 26.5862 164.221 27.1006 164.473 27.3714C164.744 27.6422 165.196 27.7775 165.827 27.7775V28.3462C165.502 28.3281 164.997 28.3101 164.311 28.292C163.625 28.2559 162.93 28.2378 162.226 28.2378C161.522 28.2378 160.809 28.2559 160.087 28.292C159.365 28.3101 158.823 28.3281 158.462 28.3462V27.7775C159.094 27.7775 159.536 27.6422 159.789 27.3714C160.06 27.1006 160.195 26.5862 160.195 25.828V17.2988C160.195 16.4865 160.069 15.8908 159.816 15.5117C159.582 15.1146 159.13 14.916 158.462 14.916V14.3474C159.04 14.4015 159.6 14.4286 160.141 14.4286C160.899 14.4286 161.603 14.4015 162.253 14.3474C162.921 14.2752 163.535 14.1759 164.094 14.0495Z" fill="black"/>
<path d="M173.989 13.9683C175.307 13.9683 176.462 14.212 177.455 14.6994C178.448 15.1868 179.224 15.972 179.784 17.0551C180.343 18.1382 180.623 19.5732 180.623 21.3603C180.623 23.1474 180.343 24.5825 179.784 25.6655C179.224 26.7306 178.448 27.5068 177.455 27.9942C176.462 28.4815 175.307 28.7252 173.989 28.7252C172.707 28.7252 171.561 28.4815 170.55 27.9942C169.558 27.5068 168.772 26.7306 168.195 25.6655C167.635 24.5825 167.355 23.1474 167.355 21.3603C167.355 19.5732 167.635 18.1382 168.195 17.0551C168.772 15.972 169.558 15.1868 170.55 14.6994C171.561 14.212 172.707 13.9683 173.989 13.9683ZM173.989 14.5098C173.267 14.5098 172.662 15.0514 172.175 16.1345C171.688 17.1995 171.444 18.9414 171.444 21.3603C171.444 23.7792 171.688 25.5211 172.175 26.5862C172.662 27.6512 173.267 28.1837 173.989 28.1837C174.729 28.1837 175.334 27.6512 175.803 26.5862C176.291 25.5211 176.534 23.7792 176.534 21.3603C176.534 18.9414 176.291 17.1995 175.803 16.1345C175.334 15.0514 174.729 14.5098 173.989 14.5098Z" fill="black"/>
<path d="M192.386 13.9683C193.144 13.9683 193.758 14.0676 194.227 14.2662C194.715 14.4467 195.094 14.6994 195.364 15.0243C195.653 15.3673 195.861 15.8095 195.987 16.3511C196.132 16.8926 196.204 17.6237 196.204 18.5443V25.828C196.204 26.5862 196.33 27.1006 196.583 27.3714C196.854 27.6422 197.305 27.7775 197.937 27.7775V28.3462C197.594 28.3281 197.079 28.3101 196.393 28.292C195.707 28.2559 195.031 28.2378 194.363 28.2378C193.677 28.2378 193 28.2559 192.332 28.292C191.682 28.3101 191.186 28.3281 190.843 28.3462V27.7775C191.384 27.7775 191.763 27.6422 191.98 27.3714C192.196 27.1006 192.305 26.5862 192.305 25.828V17.4071C192.305 16.9558 192.26 16.5677 192.169 16.2428C192.079 15.8998 191.917 15.6381 191.682 15.4575C191.447 15.259 191.095 15.1597 190.626 15.1597C190.139 15.1597 189.687 15.2951 189.272 15.5658C188.875 15.8366 188.55 16.2157 188.297 16.7031C188.063 17.1724 187.945 17.7049 187.945 18.3006V25.828C187.945 26.5862 188.054 27.1006 188.27 27.3714C188.505 27.6422 188.884 27.7775 189.408 27.7775V28.3462C189.083 28.3281 188.604 28.3101 187.972 28.292C187.359 28.2559 186.718 28.2378 186.05 28.2378C185.364 28.2378 184.66 28.2559 183.938 28.292C183.216 28.3101 182.674 28.3281 182.313 28.3462V27.7775C182.945 27.7775 183.387 27.6422 183.64 27.3714C183.911 27.1006 184.046 26.5862 184.046 25.828V17.2988C184.046 16.4865 183.92 15.8908 183.667 15.5117C183.433 15.1146 182.981 14.916 182.313 14.916V14.3474C182.891 14.4015 183.451 14.4286 183.992 14.4286C184.75 14.4286 185.454 14.4015 186.104 14.3474C186.772 14.2752 187.386 14.1759 187.945 14.0495V16.4865C188.397 15.5658 189.01 14.916 189.787 14.5369C190.563 14.1578 191.429 13.9683 192.386 13.9683Z" fill="black"/>
</svg>
