<svg width="96" height="44" viewBox="0 0 96 44" fill="none" xmlns="http://www.w3.org/2000/svg">
<rect width="95.6667" height="44" rx="6.42789" fill="#FBFBFB"/>
<path d="M32.0531 16.506V27.3878H29.8484V16.506H32.0531Z" fill="black"/>
<path d="M41.038 20.0471V27.4029C41.038 29.6827 39.2712 31.0809 37.1118 31.0809C35.0279 31.0809 33.4725 29.7738 33.3215 27.9349L35.5111 27.9501C35.6017 28.7252 36.2813 29.0747 37.1873 29.0747C38.0329 29.0747 38.8333 28.6188 38.8333 27.4181V26.4911C38.2745 26.8558 37.5497 27.0686 36.7494 27.0686C34.741 27.0686 33.1252 25.4272 33.1252 23.5426C33.1252 21.3541 34.741 19.8799 36.7494 19.8799C37.5497 19.8799 38.2745 20.0927 38.8333 20.4574V20.0623L41.038 20.0471ZM38.8333 24.3785V22.5851C38.3803 21.9316 37.7611 21.7037 37.142 21.7037C36.0547 21.7037 35.3148 22.4332 35.3148 23.5426C35.3148 24.3633 36.0699 25.2448 37.142 25.2448C37.7611 25.26 38.3953 25.032 38.8333 24.3785Z" fill="black"/>
<path d="M49.8265 23.6338C49.8265 25.8983 48.1654 27.5093 45.9305 27.5093C43.6805 27.5093 42.0194 25.8983 42.0194 23.6338C42.0194 21.3845 43.6805 19.743 45.9305 19.743C48.1654 19.743 49.8265 21.3845 49.8265 23.6338ZM47.6973 23.6338C47.6973 22.5699 47.0026 21.7036 45.9305 21.7036C44.8433 21.7036 44.1486 22.5699 44.1486 23.6338C44.1486 24.728 44.8433 25.5487 45.9305 25.5487C47.0026 25.5335 47.6973 24.728 47.6973 23.6338Z" fill="black"/>
<path d="M63.5078 20.0623V27.3726L61.3484 27.3878V26.9775C60.7897 27.3422 60.0649 27.5702 59.2645 27.5702C57.2561 27.5702 55.6404 25.8528 55.6404 23.7403C55.6404 21.6125 57.2561 19.8951 59.2645 19.8951C60.0649 19.8951 60.7897 20.1231 61.3484 20.4879V20.0775L63.5078 20.0623ZM61.3333 24.8497V22.6156C60.8803 21.9621 60.2461 21.7797 59.6118 21.7797C58.5095 21.7797 57.7393 22.6764 57.7393 23.7403C57.7393 24.7889 58.5095 25.6856 59.6118 25.6856C60.2461 25.6856 60.8803 25.5032 61.3333 24.8497Z" fill="black"/>
<path d="M72.3873 23.4211V27.3878H70.2581V23.6795C70.2581 22.4788 69.6692 21.8557 68.6121 21.8557C68.0685 21.8557 67.4494 22.1749 66.936 22.7828V27.3878H64.7615V20.0775H66.936V20.6246C67.5249 20.1535 68.2196 19.8951 69.035 19.8951C70.9679 19.8951 72.3873 21.263 72.3873 23.4211Z" fill="black"/>
<path d="M28.8367 27.3726H26.6019L25.1371 21.9165L21.9961 27.3726H19.4895L24.3368 18.9224L23.5515 15.974L17.0129 27.3726H14.5062L22.7965 12.9192H25.0012L25.9525 16.5211H28.2176L26.6774 19.2264L28.8367 27.3726Z" fill="black"/>
<path d="M81.1604 16.506V27.3878H78.9557V26.9775C78.397 27.3422 77.6722 27.5702 76.8718 27.5702C74.8634 27.5702 73.2477 25.8528 73.2477 23.7251C73.2477 21.6125 74.8634 19.8952 76.8718 19.8952C77.6722 19.8952 78.397 20.1231 78.9557 20.4879V16.506H81.1604ZM78.9557 24.8497V22.6004C78.5027 21.9469 77.8534 21.7645 77.2191 21.7645C76.1017 21.7645 75.3316 22.6612 75.3316 23.7251C75.3316 24.8041 76.1017 25.7008 77.2191 25.7008C77.8534 25.7008 78.4876 25.5185 78.9557 24.8497Z" fill="black"/>
<path d="M55.2327 21.9164C54.7495 21.9772 53.632 22.038 52.9676 22.9499V27.3877H50.7931V20.0927H52.9676V20.6398C53.4659 20.2142 54.2059 19.9559 55.2327 20.0623" fill="black"/>
</svg>
