<svg width="146" height="43" viewBox="0 0 146 43" fill="none" xmlns="http://www.w3.org/2000/svg">
<rect width="145.5" height="43" rx="10" fill="#FBFBFB"/>
<path d="M129.918 17.7655C130.11 17.7655 130.244 17.8423 130.321 17.9767C130.359 18.0535 130.417 18.2071 130.263 18.4183L128.094 21.74V24.0057C128.094 24.3129 127.902 24.5049 127.614 24.5049H127.306C126.999 24.5049 126.826 24.3129 126.826 24.0057V21.74L124.638 18.4183C124.503 18.1879 124.542 18.0343 124.58 17.9575C124.638 17.8231 124.791 17.7463 124.983 17.7463H125.386C125.636 17.7463 125.79 17.8423 125.905 18.0535L127.46 20.5688L129.035 18.0535C129.15 17.8615 129.323 17.7655 129.553 17.7655H129.918ZM77.0965 17.7655H73.6788C73.3715 17.7655 73.1987 17.9575 73.1987 18.2647V24.0249C73.1987 24.3321 73.3907 24.5241 73.6788 24.5241H73.986C74.2932 24.5241 74.466 24.3321 74.466 24.0249V21.7592H76.6933C77.0005 21.7592 77.1733 21.548 77.1733 21.26V21.1256C77.1733 20.8184 76.9813 20.6264 76.6933 20.6264H74.466V18.8599H77.0965C77.4037 18.8599 77.5765 18.6679 77.5765 18.3607V18.2263C77.5957 17.9383 77.4037 17.7655 77.0965 17.7655ZM63.8672 17.7655H62.1199C61.8127 17.7655 61.6399 17.9575 61.6399 18.2647V24.0249C61.6399 24.3321 61.8319 24.5241 62.1199 24.5241H63.8864C65.9217 24.5241 67.3233 23.1417 67.3233 21.164C67.3041 19.1479 65.9025 17.7655 63.8672 17.7655ZM65.9985 21.1256C65.9985 22.4505 65.1152 23.3721 63.848 23.3721H62.9071V18.8599H63.848C65.1152 18.8791 65.9985 19.8008 65.9985 21.1256ZM85.3144 17.7655H85.6216C85.9288 17.7655 86.1016 17.9575 86.1016 18.2647V24.0249C86.1016 24.3321 85.9096 24.5241 85.6216 24.5241H85.3144C85.0072 24.5241 84.8344 24.3321 84.8344 24.0249V18.2647C84.8152 17.9383 85.0072 17.7655 85.3144 17.7655ZM98.1789 17.7655H97.8717C97.5645 17.7655 97.3917 17.9575 97.3917 18.2647V22.1049L94.4156 18.0535C94.2812 17.8615 94.1084 17.7847 93.8972 17.7847H93.7627C93.4555 17.7847 93.2827 17.9767 93.2827 18.2839V24.0441C93.2827 24.3513 93.4747 24.5433 93.7627 24.5433H94.07C94.3772 24.5433 94.55 24.3513 94.55 24.0441V20.1848L97.5261 24.2553C97.6605 24.4473 97.8333 24.5241 98.0445 24.5241H98.1789C98.4861 24.5241 98.6589 24.3321 98.6589 24.0249V18.2647C98.6589 17.9383 98.4669 17.7655 98.1789 17.7655ZM106.301 17.7655H106.608C106.896 17.7655 107.088 17.9575 107.088 18.2647V24.0249C107.088 24.3321 106.896 24.5241 106.608 24.5241H106.301C105.994 24.5241 105.821 24.3321 105.821 24.0249V18.2647C105.821 17.9383 105.994 17.7655 106.301 17.7655ZM118.743 17.7655H114.231C113.943 17.7655 113.751 17.9575 113.751 18.2647V18.3991C113.751 18.6871 113.943 18.8983 114.231 18.8983H115.844V24.0249C115.844 24.3321 116.036 24.5241 116.324 24.5241H116.631C116.938 24.5241 117.111 24.3321 117.111 24.0249V18.8983H118.724C119.031 18.8983 119.204 18.7063 119.204 18.3991V18.2647C119.242 17.9383 119.05 17.7655 118.743 17.7655Z" fill="#181818"/>
<path d="M43.5912 12.2932C41.4984 12.2932 39.2135 13.4069 36.7942 15.6149C35.6421 16.6518 34.6437 17.7654 33.9141 18.6679C33.9141 18.6679 35.0853 19.9927 36.3718 21.4136C37.063 20.5495 38.0806 19.3783 39.2327 18.3222C41.3832 16.3638 42.7848 15.9606 43.5912 15.9606C46.6058 15.9606 49.0635 18.4375 49.0635 21.5096C49.0635 24.5433 46.625 27.0202 43.5912 27.0586C43.4568 27.0586 43.2648 27.0394 43.0728 27.001C43.9561 27.4042 44.8969 27.6922 45.7993 27.6922C51.3291 27.6922 52.4044 23.9481 52.4812 23.6793C52.6348 22.988 52.7308 22.2776 52.7308 21.5288C52.6924 16.4214 48.6218 12.2932 43.5912 12.2932Z" fill="url(#paint0_linear_2639_1902)"/>
<path d="M24.2753 30.7067C26.3682 30.7067 28.6531 29.593 31.0724 27.385C32.2244 26.3481 33.2229 25.2345 33.9525 24.332C33.9525 24.332 32.7812 23.0072 31.4948 21.5863C30.8036 22.4504 29.7859 23.6216 28.6339 24.6776C26.4834 26.6361 25.0817 27.0393 24.2753 27.0393C21.2608 27.0393 18.8031 24.5624 18.8031 21.4903C18.8031 18.4566 21.2416 15.9797 24.2753 15.9413C24.4097 15.9413 24.6017 15.9605 24.7937 15.9989C23.9105 15.5957 22.9696 15.3077 22.0672 15.3077C16.5374 15.3077 15.4622 19.0518 15.3854 19.3206C15.2317 20.0119 15.1357 20.7223 15.1357 21.4711C15.1549 26.5593 19.2447 30.7067 24.2753 30.7067Z" fill="url(#paint1_linear_2639_1902)"/>
<path d="M28.4803 18.3991C27.8851 17.823 24.9282 15.4805 22.0865 15.4037C17.0367 15.2885 15.5582 18.8599 15.443 19.3399C16.4031 15.3077 20.0128 12.3124 24.2946 12.2932C27.7891 12.2932 31.3029 15.6341 33.9142 18.6679C33.9142 18.6679 33.9142 18.6487 33.9334 18.6487C33.9334 18.6487 35.1046 19.9735 36.3911 21.3944C36.3911 21.3944 37.8503 23.084 39.4056 24.5817C40.0008 25.1577 42.9577 27.481 45.7802 27.5578C50.9644 27.6922 52.3853 23.9097 52.4813 23.6217C51.5212 27.673 47.9115 30.6875 43.6297 30.7067C40.1352 30.7067 36.6215 27.3466 33.991 24.3321L33.9718 24.3513C33.9718 24.3513 32.8005 23.0264 31.5141 21.6056C31.4949 21.5864 30.0356 19.8967 28.4803 18.3991ZM15.4238 19.3591C15.4238 19.3591 15.4238 19.3399 15.4238 19.3207C15.443 19.3399 15.443 19.3591 15.4238 19.3591Z" fill="#29ABE2"/>
<defs>
<linearGradient id="paint0_linear_2639_1902" x1="38.7859" y1="13.6498" x2="51.4119" y2="26.6578" gradientUnits="userSpaceOnUse">
<stop offset="0.21" stop-color="#F15A24"/>
<stop offset="0.6841" stop-color="#FBB03B"/>
</linearGradient>
<linearGradient id="paint1_linear_2639_1902" x1="29.079" y1="29.3453" x2="16.4528" y2="16.3374" gradientUnits="userSpaceOnUse">
<stop offset="0.21" stop-color="#ED1E79"/>
<stop offset="0.8929" stop-color="#522785"/>
</linearGradient>
</defs>
</svg>
