<svg width="146" height="44" viewBox="0 0 146 44" fill="none" xmlns="http://www.w3.org/2000/svg">
<rect x="0.5" width="145.5" height="44" rx="6.42789" fill="#FBFBFB"/>
<g clip-path="url(#clip0_2639_2134)">
<mask id="mask0_2639_2134" style="mask-type:alpha" maskUnits="userSpaceOnUse" x="41" y="24" width="16" height="7">
<path d="M41.2501 24.8181H56.8187V30.8833H41.2501V24.8181Z" fill="white"/>
</mask>
<g mask="url(#mask0_2639_2134)">
<path fill-rule="evenodd" clip-rule="evenodd" d="M49.0193 27.9051C48.4707 27.9051 47.9609 27.7877 47.5448 27.5657L43.0642 25.1751L41.7216 25.9985C41.0834 26.3897 41.0945 26.9894 41.7464 27.3373L47.9436 30.644C48.2445 30.8044 48.6293 30.8834 49.0193 30.8834C49.4746 30.8834 49.9366 30.7759 50.2805 30.5652L56.3472 26.8447C56.9854 26.4533 56.9743 25.8535 56.3224 25.5058L55.034 24.8181L50.7236 27.4616C50.2571 27.7475 49.6519 27.9051 49.0193 27.9051Z" fill="url(#paint0_linear_2639_2134)"/>
</g>
<path fill-rule="evenodd" clip-rule="evenodd" d="M56.3621 21.5472L55.2864 20.9647L52.7812 22.5235L52.3511 22.791L51.9213 23.0585L50.7485 23.7883C50.2808 24.0795 49.6738 24.2397 49.0398 24.2397C48.4897 24.2397 47.9786 24.1203 47.5614 23.8946L46.2178 23.1671L45.7731 22.9265L45.3284 22.6858L42.8527 21.3452L41.7228 22.0484C41.0829 22.4466 41.0939 23.0565 41.7475 23.4105L43.0395 24.1099L43.4842 24.3506L43.9287 24.5914L47.9612 26.7744C48.2628 26.9376 48.6488 27.0178 49.0398 27.0178C49.4961 27.0178 49.9595 26.9086 50.3041 26.6942L54.1809 24.282L54.611 24.0144L55.0409 23.7469L56.3871 22.9093C57.0269 22.5113 57.0158 21.9011 56.3621 21.5472Z" fill="url(#paint1_linear_2639_2134)"/>
<path fill-rule="evenodd" clip-rule="evenodd" d="M56.3621 17.9782L50.1484 14.673C49.8469 14.5124 49.4611 14.4336 49.0699 14.4336C48.6136 14.4336 48.1501 14.5411 47.8056 14.7518L41.7228 18.4709C41.0829 18.862 41.0939 19.4613 41.7475 19.8091L42.8233 20.3814L43.268 20.618L43.7127 20.8546L46.1884 22.1716L46.6331 22.4079L47.0778 22.6447L47.9612 23.1148C48.2628 23.2752 48.6488 23.3539 49.0398 23.3539C49.4961 23.3539 49.9595 23.2464 50.3041 23.0358L51.0318 22.5907L51.4619 22.3279L51.8918 22.065L54.3969 20.5333L54.827 20.2705L55.2569 20.0076L56.3871 19.3166C57.0269 18.9255 57.0158 18.326 56.3621 17.9782Z" fill="url(#paint2_linear_2639_2134)"/>
<mask id="mask1_2639_2134" style="mask-type:alpha" maskUnits="userSpaceOnUse" x="61" y="13" width="10" height="18">
<path d="M61.3389 13.124H70.226V30.3139H61.3389V13.124Z" fill="white"/>
</mask>
<g mask="url(#mask1_2639_2134)">
<path fill-rule="evenodd" clip-rule="evenodd" d="M67.8126 15.7865C66.9967 15.7537 66.3091 16.3952 66.2766 17.2199C66.2766 17.2227 66.2764 17.2251 66.2764 17.228V18.6696H69.5678V21.1095H66.2764V30.3137H63.3137V21.1095H61.3389V18.6696H63.3137V17.0043C63.3137 14.6756 65.2887 13.1247 67.483 13.1247C68.488 13.103 69.4653 13.4587 70.226 14.1228L69.1288 16.2296C68.734 15.9718 68.2811 15.819 67.8121 15.7859" fill="#1E1E1E"/>
</g>
<path fill-rule="evenodd" clip-rule="evenodd" d="M81.8355 18.5753V30.2514H79.5636L79.1304 28.9173H78.8073C78.3743 29.4732 77.4009 30.3629 75.4532 30.3629C72.4237 30.3629 70.9087 28.1388 70.9087 24.9138V18.5753H74.0476V24.1352C74.0476 25.5808 74.1555 27.5824 76.1037 27.5824C77.0775 27.5824 78.7007 27.0264 78.7007 24.0245V18.5753H81.8355Z" fill="#1E1E1E"/>
<path fill-rule="evenodd" clip-rule="evenodd" d="M88.2673 20.92C87.2803 20.92 86.842 21.3665 86.842 21.9251C86.842 22.7069 87.829 22.9301 88.5962 23.153C90.6793 23.5998 92.7623 24.2696 92.7623 26.7256C92.7623 29.1818 90.7889 30.5222 88.3766 30.5222C85.7452 30.5222 83.6623 28.8473 83.5525 26.3908H86.4028C86.5107 27.3991 87.3831 28.1392 88.3762 28.0655C89.5821 28.0655 89.8015 27.3958 89.8015 26.9492C89.8015 26.0559 89.034 25.8325 88.1568 25.6093C86.8411 25.2756 83.8808 24.7159 83.8808 22.0363C83.8803 19.6919 86.0746 18.5753 88.2673 18.5753C90.8987 18.5753 92.5433 20.1386 92.6527 22.1479H89.8023C89.8023 21.5897 89.4749 20.92 88.2673 20.92Z" fill="#1E1E1E"/>
<path fill-rule="evenodd" clip-rule="evenodd" d="M105.208 25.2743H96.8399C97.1644 27.0441 98.5785 27.7081 99.8827 27.7081C100.722 27.7493 101.53 27.3793 102.056 26.7123H104.991C104.187 28.9306 102.097 30.3932 99.7743 30.3624C96.5825 30.3533 94.002 27.7124 94.011 24.4638C94.0112 24.4022 94.0123 24.3408 94.0145 24.279C93.9082 21.151 96.3138 18.5274 99.3873 18.4193C99.48 18.416 99.573 18.4153 99.6659 18.4166C102.6 18.4166 105.643 20.5185 105.208 25.2748V25.2743ZM97.0573 22.9516H102.165C101.938 21.8077 100.92 21.007 99.7743 21.0712C98.5521 20.9898 97.4321 21.7649 97.0573 22.9516Z" fill="#1E1E1E"/>
</g>
<defs>
<linearGradient id="paint0_linear_2639_2134" x1="49.0344" y1="14.9626" x2="49.0344" y2="30.8834" gradientUnits="userSpaceOnUse">
<stop stop-color="#B3F9BA"/>
<stop offset="1" stop-color="#F6FB8C"/>
</linearGradient>
<linearGradient id="paint1_linear_2639_2134" x1="49.0549" y1="14.9751" x2="49.0549" y2="30.5173" gradientUnits="userSpaceOnUse">
<stop stop-color="#B1FFBF"/>
<stop offset="1" stop-color="#FFF16D"/>
</linearGradient>
<linearGradient id="paint2_linear_2639_2134" x1="49.0549" y1="14.4336" x2="49.0549" y2="30.5619" gradientUnits="userSpaceOnUse">
<stop stop-color="#B3F9BA"/>
<stop offset="1" stop-color="#F6FB8C"/>
</linearGradient>
<clipPath id="clip0_2639_2134">
<rect width="64" height="18" fill="white" transform="translate(41.25 13)"/>
</clipPath>
</defs>
</svg>
