<svg width="146" height="44" viewBox="0 0 146 44" fill="none" xmlns="http://www.w3.org/2000/svg">
<rect width="145.5" height="44" rx="6.42789" fill="#FBFBFB"/>
<path d="M61.8974 16.9691C62.1246 16.9691 62.2381 17.0827 62.2381 17.3098V27.5079C62.2381 27.7426 62.1246 27.8486 61.8974 27.8486H60.2394C60.0047 27.8486 59.8835 27.7351 59.8835 27.5079V17.3098C59.8835 17.0751 60.0047 16.9691 60.2394 16.9691H61.8974Z" fill="url(#paint0_linear_2639_2101)"/>
<path d="M72.0881 19.316C72.7771 19.316 73.3524 19.369 73.8218 19.4902C74.2912 19.6113 74.6622 19.793 74.9499 20.0504C75.2376 20.3078 75.4269 20.6334 75.5556 21.0347C75.6843 21.4359 75.7373 21.9129 75.7373 22.4731V24.7066C75.7373 25.2668 75.6767 25.7438 75.5556 26.1451C75.4269 26.5463 75.2301 26.8719 74.9499 27.1293C74.6698 27.3867 74.2912 27.5684 73.8218 27.682C73.3524 27.7955 72.7771 27.8485 72.0881 27.8485H67.7499C67.0534 27.8485 66.4704 27.7955 66.0086 27.682C65.5468 27.5684 65.1682 27.3867 64.8881 27.1293C64.608 26.8719 64.4111 26.5463 64.2824 26.1451C64.1613 25.7438 64.1007 25.2668 64.1007 24.7066V22.4731C64.1007 21.9129 64.1613 21.4359 64.2824 21.0347C64.4111 20.6334 64.608 20.3078 64.8881 20.0504C65.1682 19.793 65.5392 19.6113 66.0086 19.4902C66.478 19.369 67.0534 19.316 67.7499 19.316H72.0881ZM66.2887 24.3205C66.2887 24.6536 66.3114 24.9261 66.3644 25.1457C66.4174 25.3653 66.5083 25.5394 66.6294 25.6681C66.7581 25.7968 66.9323 25.8952 67.1442 25.9482C67.3562 26.0012 67.6364 26.0391 67.9543 26.0391H71.8761C72.2168 26.0391 72.4894 26.0164 72.7013 25.9482C72.9133 25.8952 73.0875 25.7968 73.2162 25.6681C73.3449 25.5394 73.4357 25.3653 73.4812 25.1457C73.5342 24.9337 73.5569 24.6536 73.5569 24.3205V22.8441C73.5569 22.5261 73.5342 22.2536 73.4812 22.0416C73.4282 21.8296 73.3373 21.6479 73.2162 21.5116C73.0875 21.3753 72.9133 21.2769 72.7013 21.2315C72.4894 21.1861 72.2092 21.1482 71.8761 21.1482H67.9619C67.6288 21.1482 67.3638 21.1709 67.1518 21.2315C66.9398 21.2845 66.7657 21.3753 66.637 21.5116C66.5083 21.6479 66.4174 21.822 66.372 22.0416C66.319 22.2536 66.2963 22.5261 66.2963 22.8441V24.3205H66.2887Z" fill="url(#paint1_linear_2639_2101)"/>
<path d="M89.282 16.969C89.5167 16.969 89.6378 17.0826 89.6378 17.3097V18.8315C89.6378 19.0737 89.5167 19.1873 89.282 19.1873H84.4593V27.5002C84.4593 27.7349 84.3457 27.8409 84.1186 27.8409H82.4454C82.2183 27.8409 82.1047 27.7274 82.1047 27.5002V19.1873H77.282C77.0473 19.1873 76.9261 19.0662 76.9261 18.8315V17.3097C76.9261 17.075 77.0473 16.969 77.282 16.969H89.2744H89.282Z" fill="url(#paint2_linear_2639_2101)"/>
<path d="M98.4655 19.316C98.9879 19.316 99.4194 19.3539 99.7677 19.4447C100.116 19.5356 100.381 19.6794 100.578 19.8839C100.775 20.0807 100.918 20.3457 101.002 20.6712C101.077 20.9968 101.13 21.3981 101.13 21.8599V23.3362C101.13 23.6694 101.062 23.8965 100.918 24.0328C100.775 24.1615 100.555 24.222 100.26 24.222H92.4995V24.6006C92.4995 25.0851 92.6207 25.441 92.8478 25.6529C93.0749 25.8649 93.5292 25.9785 94.1879 25.9785H100.585C100.767 25.9785 100.858 26.0769 100.858 26.2586V27.5684C100.858 27.7501 100.767 27.8485 100.585 27.8485H93.9683C93.2718 27.8485 92.6888 27.7955 92.227 27.682C91.7651 27.5684 91.3942 27.3867 91.1065 27.1293C90.8263 26.8719 90.6295 26.5463 90.5008 26.1451C90.3721 25.7438 90.3191 25.2668 90.3191 24.7066V22.4731C90.3191 21.9129 90.3797 21.4359 90.5008 21.0347C90.6295 20.6334 90.8263 20.3078 91.1065 20.0504C91.3866 19.793 91.7576 19.6113 92.227 19.4902C92.6888 19.369 93.2718 19.316 93.9683 19.316H98.4655ZM92.492 22.8441H98.7077C98.8819 22.8441 98.9652 22.7533 98.9652 22.5791V21.928C98.9652 21.61 98.9046 21.3753 98.7683 21.2391C98.632 21.1028 98.3898 21.0422 98.0339 21.0422H94.1803C93.5216 21.0422 93.0674 21.1482 92.8402 21.3602C92.6131 21.5722 92.492 21.928 92.492 22.4201V22.8441Z" fill="url(#paint3_linear_2639_2101)"/>
<path d="M114.758 16.969C114.902 16.969 114.978 17.0144 114.993 17.1204C115.008 17.2188 114.978 17.3021 114.91 17.3778L110.2 22.2157L115.129 27.4472C115.197 27.5154 115.235 27.6062 115.212 27.7046C115.197 27.8031 115.122 27.8561 114.978 27.8561H112.873C112.744 27.8561 112.653 27.8409 112.578 27.8106C112.51 27.7804 112.434 27.7198 112.381 27.6441L108.588 23.6163L104.78 27.6365C104.711 27.7198 104.636 27.7804 104.575 27.8031C104.515 27.8334 104.409 27.8485 104.272 27.8485H102.281C102.145 27.8485 102.077 27.8031 102.062 27.6971C102.046 27.5987 102.077 27.5154 102.145 27.4397L107.195 22.1248L102.637 17.3703C102.576 17.3021 102.554 17.2113 102.561 17.1128C102.569 17.0144 102.645 16.9614 102.788 16.9614H104.893C105.022 16.9614 105.113 16.9766 105.188 17.0144C105.257 17.0447 105.332 17.1053 105.385 17.1734L108.732 20.7772L112.275 17.1734C112.335 17.1053 112.404 17.0447 112.472 17.0144C112.54 16.9766 112.638 16.9614 112.767 16.9614H114.758V16.969Z" fill="url(#paint4_linear_2639_2101)"/>
<path d="M45.2565 10.3672V15.9621L50.1398 13.1685L45.2565 10.3672Z" fill="url(#paint5_linear_2639_2101)"/>
<path opacity="0.9" d="M50.14 13.1686V18.7711L55.0309 15.9623L50.14 13.1686Z" fill="url(#paint6_linear_2639_2101)"/>
<path opacity="0.8" d="M45.2565 15.9622V21.5647L50.1398 18.771L45.2565 15.9622Z" fill="url(#paint7_linear_2639_2101)"/>
<path opacity="0.8" d="M50.14 18.771V24.366L55.0309 21.5647L50.14 18.771Z" fill="url(#paint8_linear_2639_2101)"/>
<path opacity="0.8" d="M45.2565 21.5648V27.1673L50.1398 24.3661L45.2565 21.5648Z" fill="url(#paint9_linear_2639_2101)"/>
<path d="M50.14 24.366V29.9685L55.0309 27.1672L50.14 24.366Z" fill="url(#paint10_linear_2639_2101)"/>
<path opacity="0.4" d="M32.6284 15.7804V21.3753L37.5117 18.5741L32.6284 15.7804Z" fill="url(#paint11_linear_2639_2101)"/>
<path opacity="0.2" d="M38.7908 17.8549V23.4574L43.6665 20.6637L38.7908 17.8549Z" fill="url(#paint12_linear_2639_2101)"/>
<path opacity="0.3" d="M35.1721 21.3982V27.0007L40.0554 24.1995L35.1721 21.3982Z" fill="url(#paint13_linear_2639_2101)"/>
<path opacity="0.9" d="M38.3899 25.6228V31.2253L43.2656 28.4241L38.3899 25.6228Z" fill="url(#paint14_linear_2639_2101)"/>
<path opacity="0.7" d="M45.2188 28.0378V33.6328L50.0945 30.8315L45.2188 28.0378Z" fill="url(#paint15_linear_2639_2101)"/>
<path opacity="0.9" d="M39.6088 15.0914V20.694L44.4845 17.9003L39.6088 15.0914Z" fill="url(#paint16_linear_2639_2101)"/>
<path opacity="0.8" d="M45.2567 10.3672V15.9621L40.3734 13.1685L45.2567 10.3672Z" fill="url(#paint17_linear_2639_2101)"/>
<path opacity="0.6" d="M39.6089 12.7445V18.347L34.718 15.5382L39.6089 12.7445Z" fill="url(#paint18_linear_2639_2101)"/>
<path opacity="0.6" d="M44.492 15.5154V21.1179L39.6088 18.3166L44.492 15.5154Z" fill="url(#paint19_linear_2639_2101)"/>
<path opacity="0.95" d="M38.7683 17.8549V23.4574L33.885 20.6637L38.7683 17.8549Z" fill="url(#paint20_linear_2639_2101)"/>
<path opacity="0.6" d="M45.2568 21.5648V27.1673L40.3811 24.3661L45.2568 21.5648Z" fill="url(#paint21_linear_2639_2101)"/>
<path opacity="0.55" d="M35.1722 22.8668V28.4693L30.2814 25.6681L35.1722 22.8668Z" fill="url(#paint22_linear_2639_2101)"/>
<path d="M55.0309 15.9622V21.5647L50.14 18.771L55.0309 15.9622Z" fill="url(#paint23_linear_2639_2101)"/>
<path opacity="0.95" d="M50.1398 18.771V24.366L45.2565 21.5647L50.1398 18.771Z" fill="url(#paint24_linear_2639_2101)"/>
<path opacity="0.9" d="M55.0309 21.5648V27.1673L50.14 24.3661L55.0309 21.5648Z" fill="url(#paint25_linear_2639_2101)"/>
<path opacity="0.7" d="M50.1398 24.366V29.9685L45.2565 27.1672L50.1398 24.366Z" fill="url(#paint26_linear_2639_2101)"/>
<path opacity="0.4" d="M44.1738 26.6979V32.3004L39.2905 29.5067L44.1738 26.6979Z" fill="url(#paint27_linear_2639_2101)"/>
<path d="M50.1398 13.1686V18.7711L45.2565 15.9623L50.1398 13.1686Z" fill="url(#paint28_linear_2639_2101)"/>
<defs>
<linearGradient id="paint0_linear_2639_2101" x1="56.9954" y1="21.5279" x2="115.903" y2="22.1233" gradientUnits="userSpaceOnUse">
<stop stop-color="#00DCB3"/>
<stop offset="1" stop-color="#00D3DC"/>
</linearGradient>
<linearGradient id="paint1_linear_2639_2101" x1="57.1483" y1="20.8097" x2="112.092" y2="43.0633" gradientUnits="userSpaceOnUse">
<stop stop-color="#00DCB3"/>
<stop offset="1" stop-color="#00D3DC"/>
</linearGradient>
<linearGradient id="paint2_linear_2639_2101" x1="58.0855" y1="16.3752" x2="115.623" y2="33.3686" gradientUnits="userSpaceOnUse">
<stop stop-color="#00DCB3"/>
<stop offset="1" stop-color="#00D3DC"/>
</linearGradient>
<linearGradient id="paint3_linear_2639_2101" x1="58.2986" y1="15.3726" x2="114.677" y2="35.0394" gradientUnits="userSpaceOnUse">
<stop stop-color="#00DCB3"/>
<stop offset="1" stop-color="#00D3DC"/>
</linearGradient>
<linearGradient id="paint4_linear_2639_2101" x1="59.0816" y1="11.6729" x2="116.175" y2="29.7757" gradientUnits="userSpaceOnUse">
<stop stop-color="#00DCB3"/>
<stop offset="1" stop-color="#00D3DC"/>
</linearGradient>
<linearGradient id="paint5_linear_2639_2101" x1="32.3844" y1="5.76934" x2="61.8928" y2="18.6731" gradientUnits="userSpaceOnUse">
<stop stop-color="#00DC9C"/>
<stop offset="1" stop-color="#00D3DC"/>
</linearGradient>
<linearGradient id="paint6_linear_2639_2101" x1="32.385" y1="5.76428" x2="61.8963" y2="18.6713" gradientUnits="userSpaceOnUse">
<stop stop-color="#00DC9C"/>
<stop offset="1" stop-color="#00D3DC"/>
</linearGradient>
<linearGradient id="paint7_linear_2639_2101" x1="29.8009" y1="9.88446" x2="59.3093" y2="22.7882" gradientUnits="userSpaceOnUse">
<stop stop-color="#00DC9C"/>
<stop offset="1" stop-color="#00D3DC"/>
</linearGradient>
<linearGradient id="paint8_linear_2639_2101" x1="29.7992" y1="9.8782" x2="59.3104" y2="22.7851" gradientUnits="userSpaceOnUse">
<stop stop-color="#00DC9C"/>
<stop offset="1" stop-color="#00D3DC"/>
</linearGradient>
<linearGradient id="paint9_linear_2639_2101" x1="27.1955" y1="13.9872" x2="56.7038" y2="26.8909" gradientUnits="userSpaceOnUse">
<stop stop-color="#00DC9C"/>
<stop offset="1" stop-color="#00D3DC"/>
</linearGradient>
<linearGradient id="paint10_linear_2639_2101" x1="27.1934" y1="13.9808" x2="56.7048" y2="26.8877" gradientUnits="userSpaceOnUse">
<stop stop-color="#00DC9C"/>
<stop offset="1" stop-color="#00D3DC"/>
</linearGradient>
<linearGradient id="paint11_linear_2639_2101" x1="27.3987" y1="15.5669" x2="56.907" y2="28.4706" gradientUnits="userSpaceOnUse">
<stop stop-color="#00DC9C"/>
<stop offset="1" stop-color="#00D3DC"/>
</linearGradient>
<linearGradient id="paint12_linear_2639_2101" x1="28.8553" y1="14.9498" x2="58.3775" y2="27.8196" gradientUnits="userSpaceOnUse">
<stop stop-color="#00DC9C"/>
<stop offset="1" stop-color="#00D3DC"/>
</linearGradient>
<linearGradient id="paint13_linear_2639_2101" x1="24.2595" y1="17.9278" x2="53.7709" y2="30.8348" gradientUnits="userSpaceOnUse">
<stop stop-color="#00DC9C"/>
<stop offset="1" stop-color="#00D3DC"/>
</linearGradient>
<linearGradient id="paint14_linear_2639_2101" x1="23.8673" y1="20.0797" x2="53.3895" y2="32.9495" gradientUnits="userSpaceOnUse">
<stop stop-color="#00DC9C"/>
<stop offset="1" stop-color="#00D3DC"/>
</linearGradient>
<linearGradient id="paint15_linear_2639_2101" x1="24.0284" y1="18.6617" x2="53.5507" y2="31.5314" gradientUnits="userSpaceOnUse">
<stop stop-color="#00DC9C"/>
<stop offset="1" stop-color="#00D3DC"/>
</linearGradient>
<linearGradient id="paint16_linear_2639_2101" x1="28.6509" y1="11.6" x2="58.1701" y2="24.4665" gradientUnits="userSpaceOnUse">
<stop stop-color="#00DC9C"/>
<stop offset="1" stop-color="#00D3DC"/>
</linearGradient>
<linearGradient id="paint17_linear_2639_2101" x1="32.221" y1="5.68338" x2="61.7323" y2="18.5903" gradientUnits="userSpaceOnUse">
<stop stop-color="#00DC9C"/>
<stop offset="1" stop-color="#00D3DC"/>
</linearGradient>
<linearGradient id="paint18_linear_2639_2101" x1="29.8788" y1="9.95965" x2="59.3902" y2="22.8666" gradientUnits="userSpaceOnUse">
<stop stop-color="#00DC9C"/>
<stop offset="1" stop-color="#00D3DC"/>
</linearGradient>
<linearGradient id="paint19_linear_2639_2101" x1="29.578" y1="9.75168" x2="59.0863" y2="22.6554" gradientUnits="userSpaceOnUse">
<stop stop-color="#00DC9C"/>
<stop offset="1" stop-color="#00D3DC"/>
</linearGradient>
<linearGradient id="paint20_linear_2639_2101" x1="27.8115" y1="14.3693" x2="57.3228" y2="27.2763" gradientUnits="userSpaceOnUse">
<stop stop-color="#00DC9C"/>
<stop offset="1" stop-color="#00D3DC"/>
</linearGradient>
<linearGradient id="paint21_linear_2639_2101" x1="27.0425" y1="13.9051" x2="56.5648" y2="26.7748" gradientUnits="userSpaceOnUse">
<stop stop-color="#00DC9C"/>
<stop offset="1" stop-color="#00D3DC"/>
</linearGradient>
<linearGradient id="paint22_linear_2639_2101" x1="25.2887" y1="19.9927" x2="54.7983" y2="32.8953" gradientUnits="userSpaceOnUse">
<stop stop-color="#00DC9C"/>
<stop offset="1" stop-color="#00D3DC"/>
</linearGradient>
<linearGradient id="paint23_linear_2639_2101" x1="32.2261" y1="5.6729" x2="61.7375" y2="18.5799" gradientUnits="userSpaceOnUse">
<stop stop-color="#00DC9C"/>
<stop offset="1" stop-color="#00D3DC"/>
</linearGradient>
<linearGradient id="paint24_linear_2639_2101" x1="29.6321" y1="9.78747" x2="59.1404" y2="22.6913" gradientUnits="userSpaceOnUse">
<stop stop-color="#00DC9C"/>
<stop offset="1" stop-color="#00D3DC"/>
</linearGradient>
<linearGradient id="paint25_linear_2639_2101" x1="29.6428" y1="9.7886" x2="59.1541" y2="22.6955" gradientUnits="userSpaceOnUse">
<stop stop-color="#00DC9C"/>
<stop offset="1" stop-color="#00D3DC"/>
</linearGradient>
<linearGradient id="paint26_linear_2639_2101" x1="27.0459" y1="13.901" x2="56.5542" y2="26.8048" gradientUnits="userSpaceOnUse">
<stop stop-color="#00DC9C"/>
<stop offset="1" stop-color="#00D3DC"/>
</linearGradient>
<linearGradient id="paint27_linear_2639_2101" x1="24.7028" y1="18.3196" x2="54.2111" y2="31.2234" gradientUnits="userSpaceOnUse">
<stop stop-color="#00DC9C"/>
<stop offset="1" stop-color="#00D3DC"/>
</linearGradient>
<linearGradient id="paint28_linear_2639_2101" x1="32.2377" y1="5.68524" x2="61.7461" y2="18.589" gradientUnits="userSpaceOnUse">
<stop stop-color="#00DC9C"/>
<stop offset="1" stop-color="#00D3DC"/>
</linearGradient>
</defs>
</svg>
