<svg width="97" height="44" viewBox="0 0 97 44" fill="none" xmlns="http://www.w3.org/2000/svg">
<rect x="0.666626" width="95.6667" height="44" rx="6.42789" fill="#FBFBFB"/>
<g clip-path="url(#clip0_2639_1984)">
<path d="M48.2141 15.4255H43.9521V27.0021H42.9055V15.4255H38.6544V14.5375H48.2141V15.4255Z" fill="#0E61FF"/>
<path d="M52.1522 27.1862C50.6276 27.209 49.2249 26.3502 48.5484 24.9781C48.188 24.2558 48.0068 23.4577 48.0197 22.6498V22.2816C48.0068 21.451 48.1848 20.629 48.5376 19.8775C48.8516 19.1952 49.349 18.6137 49.9726 18.1989C50.5628 17.8004 51.2577 17.586 51.9687 17.5817C53.0909 17.5817 53.9756 17.9607 54.6338 18.7296C55.292 19.4985 55.6156 20.5489 55.6156 21.8809V22.4549H49.0231V22.6498C49.0231 23.7002 49.3253 24.5774 49.9187 25.2705C50.4744 25.9495 51.3095 26.3372 52.1845 26.3209C52.683 26.3329 53.1783 26.2289 53.6303 26.0177C54.0835 25.7936 54.4752 25.4622 54.774 25.0539L55.4106 25.5412C54.6769 26.6339 53.5872 27.1862 52.1522 27.1862ZM51.9687 18.4469C51.2307 18.435 50.5229 18.7426 50.0266 19.2916C49.4979 19.8547 49.185 20.6128 49.0663 21.5658H54.6014V21.4575C54.569 20.5695 54.3209 19.8439 53.8461 19.2808C53.3714 18.7177 52.7456 18.4469 51.9687 18.4469Z" fill="#0E61FF"/>
<path d="M58.637 26.1465H64.6361V27.0128H57.3746V26.2548L62.9745 18.6309H57.5473V17.7429H64.2584V18.5118L58.637 26.1465Z" fill="#0E61FF"/>
<path d="M66.1032 22.2371C66.0903 21.4065 66.2683 20.5845 66.6211 19.833C66.9405 19.1496 67.4454 18.5724 68.0777 18.1653C68.7175 17.7624 69.4599 17.5556 70.2141 17.5696C71.4441 17.5696 72.4367 18.0028 73.2028 18.8692C73.9689 19.7355 74.3465 20.8834 74.3465 22.3129V22.5295C74.3605 23.3633 74.1825 24.1896 73.8286 24.9444C73.5125 25.6267 73.0064 26.2028 72.372 26.6024C71.73 26.9966 70.9888 27.2002 70.2356 27.1872C69.0164 27.1872 68.013 26.754 67.2469 25.8877C66.4808 25.0213 66.1032 23.8734 66.1032 22.4439V22.2371ZM67.1282 22.5187C67.1282 23.6233 67.4195 24.5329 67.9806 25.2477C68.5417 25.9624 69.2969 26.3089 70.2248 26.3089C71.0977 26.3295 71.9296 25.9364 72.4691 25.2477C73.041 24.5329 73.3215 23.6016 73.3215 22.432V22.2371C73.328 21.5678 73.1963 20.9029 72.9331 20.2878C72.7022 19.7377 72.3202 19.2644 71.8325 18.9233C71.3556 18.5973 70.7902 18.4273 70.2141 18.436C69.3423 18.4197 68.5147 18.8172 67.9806 19.5081C67.4087 20.2228 67.1174 21.165 67.1174 22.3237L67.1282 22.5187Z" fill="#0E61FF"/>
<path d="M81.9856 24.6532C81.9986 24.1681 81.7677 23.7078 81.3706 23.4295C80.9606 23.1263 80.3564 22.8772 79.5256 22.7039C78.8685 22.5805 78.2276 22.3812 77.6158 22.1083C77.1626 21.8809 76.8282 21.6102 76.6124 21.2853C76.3847 20.9344 76.2682 20.5229 76.2779 20.1049C76.2779 19.3685 76.58 18.7729 77.195 18.2964C77.81 17.8199 78.5869 17.5817 79.5364 17.5817C80.5614 17.5817 81.3922 17.8416 82.018 18.3505C82.6298 18.8314 82.9783 19.5743 82.9567 20.354H81.9317C81.936 19.819 81.6824 19.3154 81.2519 19.0003C80.7988 18.6429 80.2269 18.4588 79.5364 18.4588C78.8674 18.4588 78.3279 18.6105 77.9179 18.9028C77.5295 19.1638 77.2986 19.6035 77.3029 20.0724C77.2824 20.4926 77.4734 20.8944 77.81 21.1445C78.1445 21.3936 78.7703 21.6318 79.6658 21.8484C80.5614 22.065 81.2303 22.2816 81.6835 22.5198C82.0817 22.7191 82.4237 23.018 82.6762 23.3862C83.2804 24.4258 83.016 25.7557 82.0612 26.4834C81.4354 26.9491 80.6153 27.1873 79.6011 27.1873C78.5221 27.1873 77.6482 26.9274 76.99 26.4076C76.3318 25.8878 75.9866 25.2272 75.9866 24.4258H77.0116C77.0332 24.9846 77.3115 25.5012 77.7669 25.8228C78.2308 26.1585 78.8458 26.3209 79.6119 26.3209C80.324 26.3209 80.8959 26.1585 81.3382 25.8553C81.7698 25.5293 81.9856 25.1286 81.9856 24.6532Z" fill="#0E61FF"/>
<path d="M31.1124 27.706C30.8643 23.2984 25.34 21.295 24.8113 21.0893C24.7897 21.0784 24.7897 21.0568 24.8005 21.0351L30.4974 15.2956V14.6783C30.4942 14.5776 30.4143 14.4974 30.314 14.4942H19.8156V11.0396V10L15.9421 10.8122V11.397H16.1579C16.1579 11.397 17.1074 11.397 17.1074 12.35V14.4834H14.1079C14.0496 14.4877 14.0043 14.5332 14 14.5916V15.9453H17.1182V23.2984C17.1182 25.6051 18.5964 27.2078 21.1859 26.9912C21.7189 26.9382 22.2314 26.7519 22.6749 26.4498C22.8702 26.3242 22.9878 26.1087 22.9878 25.8758V25.1503C22.1462 25.7134 21.4341 25.6809 21.4341 25.6809C19.7941 25.6809 19.8264 23.5908 19.8264 23.5908V15.9453H27.3792L21.9412 21.4466C21.9304 22.1722 21.9196 22.7353 21.9196 22.7461C21.9175 22.7624 21.9293 22.7765 21.9455 22.7786C21.9477 22.7786 21.9498 22.7786 21.952 22.7786C26.9368 23.6233 28.2855 26.8613 28.2855 27.8034C28.2855 27.8034 28.825 32.3843 24.261 32.6983C24.261 32.6983 21.2722 32.8283 20.7435 31.6262C20.7241 31.5872 20.7414 31.5396 20.7802 31.5212C20.7824 31.5201 20.7846 31.519 20.7867 31.5179C21.2949 31.3046 21.624 30.8043 21.6175 30.2509C21.6175 29.3629 21.078 28.6373 19.9451 28.6373C19.028 28.6373 18.2727 29.3629 18.2727 30.2509C18.2727 30.2509 17.8411 34.1061 24.2502 33.9978C31.5656 33.8679 31.1124 27.706 31.1124 27.706Z" fill="#0E61FF"/>
</g>
<defs>
<clipPath id="clip0_2639_1984">
<rect width="69" height="24" fill="white" transform="translate(14 10)"/>
</clipPath>
</defs>
</svg>
