<svg width="146" height="43" viewBox="0 0 146 43" fill="none" xmlns="http://www.w3.org/2000/svg">
<rect x="0.5" width="145.5" height="43" rx="10" fill="#FBFBFB"/>
<circle cx="53.7907" cy="21.5" r="10.1695" fill="#1E96C8"/>
<path fill-rule="evenodd" clip-rule="evenodd" d="M54.7913 26.9042C54.3465 27.6745 53.2346 27.6745 52.7899 26.9041L48.2152 18.9806C47.7705 18.2103 48.3264 17.2474 49.216 17.2474H58.3652C59.2547 17.2474 59.8107 18.2103 59.3659 18.9806L54.7913 26.9042ZM53.2953 25.7987V18.2378H49.216C49.0889 18.2378 49.0095 18.3754 49.073 18.4854L53.2953 25.7987ZM54.2858 25.7989L58.5082 18.4854C58.5717 18.3754 58.4923 18.2378 58.3652 18.2378H54.2858V25.7989Z" fill="white"/>
<path d="M71.4664 27.2453H73.6004V17.5602H77.4088V15.7545H67.6581V17.5602H71.4664V27.2453Z" fill="#101010"/>
<path d="M84.2178 27.4094C87.78 27.4094 90.4064 24.9143 90.4064 21.4999C90.4064 18.0855 87.78 15.5904 84.2178 15.5904C80.6557 15.5904 78.0292 18.1019 78.0292 21.4999C78.0292 24.8979 80.6557 27.4094 84.2178 27.4094ZM84.2178 25.5381C81.9033 25.5381 80.1797 23.8473 80.1797 21.4999C80.1797 19.1525 81.9033 17.4617 84.2178 17.4617C86.5324 17.4617 88.256 19.1525 88.256 21.4999C88.256 23.8473 86.5324 25.5381 84.2178 25.5381Z" fill="#101010"/>
<path d="M100.761 15.7545V23.5354L94.4248 15.7545H92.6684V27.2453H94.786V19.4644L101.122 27.2453H102.879V15.7545H100.761Z" fill="#101010"/>
</svg>
