<svg width="96" height="44" viewBox="0 0 96 44" fill="none" xmlns="http://www.w3.org/2000/svg">
<rect x="0.333374" width="95.6667" height="44" rx="6.42789" fill="#FBFBFB"/>
<path d="M42.2576 16.7963L39.1039 24.9795L35.9833 16.7963V16.7797H33.5267L33.5433 16.7963L38.025 27.7515V27.7681H40.2326V27.7515L44.7143 16.7963L44.7308 16.7797L42.2576 16.7963ZM40.1994 27.7681H38.0084L35.5518 21.7759L38.0084 27.7681H40.1994ZM87.2567 24.4815C87.2567 25.2617 87.0409 25.9422 86.5928 26.49C86.1612 27.0211 85.5802 27.4361 84.9329 27.6519C84.2191 27.9009 83.4556 28.017 82.6921 28.0004C80.2853 28.0004 78.6918 27.0875 77.978 25.2949L77.9448 25.2285V25.2119H77.9614L79.7707 24.2657H79.7873V24.2823L79.8205 24.3653C80.0197 24.8965 80.418 25.3281 80.916 25.5936C81.4804 25.8758 82.0945 26.0252 82.7087 26.0086C83.3892 26.0086 83.9536 25.8758 84.4017 25.6268C84.8333 25.3779 85.0491 25.0127 85.0491 24.4981C85.0491 23.6848 84.2523 23.1868 82.6755 23.0208C82.1443 22.971 81.5965 22.8714 81.082 22.7387C80.6172 22.6225 80.1857 22.4399 79.7541 22.2075C79.3225 21.9751 78.974 21.6265 78.7582 21.195C78.5258 20.78 78.4262 20.2655 78.4262 19.6679C78.4262 18.9542 78.642 18.34 79.0901 17.8254C79.5051 17.3275 80.0529 16.9623 80.667 16.7631C81.2978 16.5639 81.9617 16.4478 82.6423 16.4478C84.7669 16.4478 86.1944 17.1781 86.9081 18.6388L86.9413 18.7052V18.7218H86.9247L85.1985 19.6181H85.1819V19.6015L85.1487 19.5351C84.9661 19.2197 84.6507 18.9542 84.2025 18.7218C83.7378 18.4894 83.2398 18.3732 82.7253 18.3732C82.0281 18.3732 81.497 18.506 81.1484 18.755C80.7998 19.004 80.6338 19.3193 80.6338 19.7011C80.6338 19.8339 80.6504 19.9501 80.7168 20.0663C80.7666 20.1825 80.8496 20.2821 80.9492 20.3484C81.1816 20.531 81.4472 20.6638 81.7293 20.7302C82.1277 20.8298 82.5095 20.8962 82.9078 20.946C83.4058 21.0124 83.8374 21.0788 84.2192 21.1618C84.6175 21.2448 85.0159 21.3776 85.3811 21.5436C85.7462 21.6929 86.0782 21.8921 86.377 22.1577C86.6592 22.4233 86.8749 22.7553 87.0077 23.1038C87.1737 23.5686 87.2567 24.0334 87.2567 24.4815ZM55.0054 16.7963L55.022 18.9542H49.0631V21.2282H54.8063V23.303H49.0631V25.5272H55.022V27.7183H46.8887V16.7797H55.0054V16.7963ZM72.7992 16.8129L70.5916 16.7963V16.8129L66.11 27.7681L66.0934 27.7847H68.55V27.7681L71.7037 19.5849L74.8243 27.7681V27.7847H77.2809L77.2643 27.7681L72.7992 16.8129ZM72.7826 16.8129L75.2393 22.8051L72.7826 16.8129ZM59.3875 25.5438H64.8485V25.6766V27.7349H57.1965V16.7963H59.3875V25.5438Z" fill="#1D1D1B"/>
<path d="M21.7582 19.9833L18.3057 26.075L14.8531 19.9833H21.7582ZM25.2107 17.9417H11.384L18.3057 30.1251L25.2107 17.9417ZM9.07678 13.875L10.2221 15.9H26.356L27.5013 13.875H9.07678Z" fill="#0037C1"/>
</svg>
