<svg width="184" height="66" viewBox="0 0 184 66" fill="none" xmlns="http://www.w3.org/2000/svg">
<path d="M91.5861 26.8707C91.6322 26.8707 91.6764 26.889 91.709 26.9215C91.7416 26.9541 91.7599 26.9982 91.7599 27.0443V34.2457C91.7599 37.6589 89.621 39.3411 86.801 39.3411C83.981 39.3411 81.8422 37.6589 81.8422 34.2457V27.0408C81.8422 26.9948 81.8605 26.9506 81.8931 26.918C81.9256 26.8855 81.9698 26.8672 82.0159 26.8672H83.6909C83.737 26.8672 83.7811 26.8855 83.8137 26.918C83.8463 26.9506 83.8646 26.9948 83.8646 27.0408V34.1189C83.8646 36.5009 85.1087 37.4453 86.8097 37.4453C88.5107 37.4453 89.7409 36.5009 89.7409 34.1189V27.0408C89.7409 26.9948 89.7592 26.9506 89.7918 26.918C89.8244 26.8855 89.8685 26.8672 89.9146 26.8672L91.5861 26.8707Z" fill="#EFF4FD"/>
<path d="M120.945 33.0006C120.928 36.6065 118.175 39.3392 114.584 39.3392C110.993 39.3392 108.223 36.6065 108.223 33.0006C108.223 29.3947 110.993 26.6621 114.584 26.6621C118.175 26.6621 120.928 29.3947 120.945 33.0006ZM110.221 33.0006C110.221 35.5562 112.096 37.4468 114.584 37.4468C117.072 37.4468 118.928 35.5562 118.928 33.0006C118.928 30.4451 117.053 28.5545 114.584 28.5545C112.115 28.5545 110.221 30.4451 110.221 33.0006Z" fill="#EFF4FD"/>
<path d="M138.352 39.1282H136.614C136.587 39.1274 136.56 39.1201 136.536 39.1069C136.512 39.0937 136.491 39.075 136.476 39.0523C136.46 39.0295 136.45 39.0035 136.447 38.9763C136.444 38.9491 136.447 38.9214 136.456 38.8956L141.045 27.0519C141.063 27.0039 141.096 26.9626 141.139 26.9334C141.181 26.9043 141.231 26.8887 141.283 26.8887H143.453C143.505 26.8885 143.555 26.904 143.597 26.9331C143.64 26.9623 143.673 27.0037 143.691 27.0519L148.283 38.9026C148.293 38.9284 148.296 38.956 148.292 38.9832C148.289 39.0105 148.279 39.0365 148.264 39.0592C148.248 39.0819 148.228 39.1006 148.204 39.1138C148.179 39.127 148.153 39.1344 148.125 39.1352H146.384C146.349 39.1347 146.316 39.1239 146.287 39.1041C146.259 39.0843 146.237 39.0564 146.224 39.0241L142.523 29.2724C142.51 29.2415 142.488 29.2154 142.459 29.197C142.431 29.1786 142.398 29.1688 142.364 29.1688C142.331 29.1688 142.298 29.1786 142.27 29.197C142.241 29.2154 142.219 29.2415 142.205 29.2724L138.505 39.0241C138.492 39.0541 138.47 39.0798 138.443 39.0982C138.416 39.1166 138.384 39.127 138.352 39.1282Z" fill="#EFF4FD"/>
<path d="M68.8907 39.1282H67.1532C67.1258 39.1274 67.0989 39.1201 67.0748 39.1069C67.0508 39.0937 67.0302 39.075 67.0148 39.0523C66.9993 39.0295 66.9895 39.0035 66.9861 38.9763C66.9827 38.9491 66.9858 38.9214 66.9951 38.8956L71.5839 27.0519C71.6023 27.0037 71.6349 26.9623 71.6774 26.9331C71.7199 26.904 71.7703 26.8885 71.8219 26.8887H73.9921C74.0436 26.8887 74.0939 26.9043 74.1364 26.9334C74.1789 26.9626 74.2115 27.0039 74.2301 27.0519L78.8154 38.9026C78.8247 38.9284 78.8278 38.956 78.8244 38.9832C78.821 39.0105 78.8112 39.0365 78.7958 39.0592C78.7803 39.0819 78.7597 39.1006 78.7357 39.1138C78.7116 39.127 78.6847 39.1344 78.6573 39.1352H76.9198C76.8851 39.1347 76.8513 39.1239 76.8228 39.1041C76.7943 39.0843 76.7724 39.0564 76.7599 39.0241L73.0608 29.2654C73.0472 29.2346 73.0249 29.2084 72.9967 29.19C72.9684 29.1716 72.9355 29.1618 72.9018 29.1618C72.8681 29.1618 72.8351 29.1716 72.8069 29.19C72.7787 29.2084 72.7564 29.2346 72.7428 29.2654L69.0419 39.0171C69.03 39.0482 69.0094 39.0751 68.9826 39.0948C68.9558 39.1145 68.9239 39.1261 68.8907 39.1282Z" fill="#EFF4FD"/>
<path d="M133.252 38.8522L129.81 34.4599C131.753 34.0918 132.889 32.781 132.889 30.7706C132.889 28.4616 131.385 26.8887 128.719 26.8887H123.924C123.856 26.8887 123.791 26.9156 123.743 26.9634C123.695 27.0113 123.668 27.0762 123.668 27.1439C123.668 27.5772 123.841 27.9927 124.147 28.2991C124.454 28.6054 124.87 28.7776 125.303 28.7776H128.516C130.125 28.7776 130.895 29.5987 130.895 30.788C130.895 31.9772 130.142 32.8158 128.516 32.8158H123.924C123.856 32.8158 123.791 32.8426 123.743 32.8905C123.695 32.9384 123.668 33.0033 123.668 33.071V38.9581C123.668 39.0042 123.687 39.0483 123.719 39.0809C123.752 39.1134 123.796 39.1317 123.842 39.1317H125.479C125.525 39.1317 125.569 39.1134 125.602 39.0809C125.634 39.0483 125.653 39.0042 125.653 38.9581V34.5623H127.543L130.532 38.4598C130.69 38.6672 130.894 38.8352 131.129 38.9508C131.363 39.0664 131.62 39.1265 131.882 39.1265H133.126C133.156 39.124 133.186 39.1134 133.211 39.0958C133.236 39.0782 133.256 39.0542 133.269 39.0263C133.282 38.9984 133.287 38.9676 133.284 38.937C133.281 38.9064 133.27 38.8772 133.252 38.8522Z" fill="#EFF4FD"/>
<path d="M105.463 38.8522L102.021 34.4599C103.964 34.0918 105.102 32.781 105.102 30.7706C105.102 28.4616 103.597 26.8887 100.932 26.8887H96.1347C96.0669 26.8887 96.002 26.9156 95.9541 26.9634C95.9062 27.0113 95.8793 27.0762 95.8793 27.1439C95.8797 27.577 96.0521 27.9923 96.3587 28.2986C96.6652 28.6048 97.0808 28.7771 97.5143 28.7776H100.727C102.338 28.7776 103.107 29.5987 103.107 30.788C103.107 31.9772 102.355 32.8158 100.727 32.8158H96.1347C96.0669 32.8158 96.002 32.8426 95.9541 32.8905C95.9062 32.9384 95.8793 33.0033 95.8793 33.071V38.9581C95.8793 39.0042 95.8976 39.0483 95.9302 39.0809C95.9627 39.1134 96.0069 39.1317 96.053 39.1317H97.6915C97.7376 39.1317 97.7818 39.1134 97.8144 39.0809C97.8469 39.0483 97.8652 39.0042 97.8652 38.9581V34.5623H99.7539L102.742 38.4598C102.901 38.6669 103.106 38.8346 103.34 38.9502C103.574 39.0658 103.831 39.1261 104.092 39.1265H105.337C105.367 39.124 105.397 39.1134 105.422 39.0958C105.447 39.0782 105.467 39.0542 105.48 39.0263C105.493 38.9984 105.498 38.9676 105.495 38.937C105.492 38.9064 105.481 38.8772 105.463 38.8522Z" fill="#EFF4FD"/>
<path d="M48.2141 22.4097C48.7306 22.4081 49.2373 22.551 49.6767 22.8222C50.1161 23.0934 50.4708 23.4822 50.7005 23.9444L58.5192 39.5694C58.7313 39.993 58.8316 40.4636 58.8104 40.9368C58.7891 41.4099 58.6472 41.8697 58.3981 42.2726C58.149 42.6755 57.8009 43.008 57.3869 43.2387C56.9729 43.4693 56.5068 43.5903 56.0329 43.5903H40.3953C39.9213 43.5903 39.4552 43.4693 39.0412 43.2387C38.6273 43.008 38.2792 42.6755 38.0301 42.2726C37.7809 41.8697 37.639 41.4099 37.6178 40.9368C37.5966 40.4636 37.6968 39.993 37.9089 39.5694L45.7277 23.9444C45.9574 23.4822 46.3121 23.0934 46.7515 22.8222C47.1909 22.551 47.6976 22.4081 48.2141 22.4097ZM48.2141 20.5C47.3429 20.4999 46.489 20.7422 45.7479 21.1997C45.0067 21.6572 44.4078 22.3118 44.018 23.0903L36.1992 38.7153C35.8414 39.43 35.6724 40.2242 35.7082 41.0226C35.744 41.8209 35.9836 42.5968 36.404 43.2767C36.8244 43.9565 37.4118 44.5176 38.1104 44.9067C38.809 45.2959 39.5955 45.5001 40.3953 45.5H56.0329C56.8327 45.5001 57.6192 45.2959 58.3178 44.9067C59.0163 44.5176 59.6037 43.9565 60.0242 43.2767C60.4446 42.5968 60.6841 41.8209 60.72 41.0226C60.7558 40.2242 60.5868 39.43 60.2289 38.7153L52.4102 23.0903C52.0204 22.3118 51.4214 21.6572 50.6803 21.1997C49.9392 20.7422 49.0852 20.4999 48.2141 20.5Z" fill="#70D44B"/>
</svg>
