<svg width="184" height="66" viewBox="0 0 184 66" fill="none" xmlns="http://www.w3.org/2000/svg">
<path d="M175.802 27.5257C176.084 27.5257 176.281 27.6383 176.393 27.8353C176.45 27.9479 176.534 28.1731 176.309 28.4827L173.128 33.352V36.6733C173.128 37.1236 172.847 37.4051 172.425 37.4051H171.974C171.524 37.4051 171.271 37.1236 171.271 36.6733V33.352L168.062 28.4827C167.865 28.1449 167.921 27.9198 167.978 27.8072C168.062 27.6101 168.287 27.4976 168.569 27.4976H169.16C169.526 27.4976 169.751 27.6383 169.92 27.9479L172.2 31.6351L174.508 27.9479C174.676 27.6664 174.93 27.5257 175.268 27.5257H175.802V27.5257ZM98.3716 27.5257H93.3616C92.9112 27.5257 92.6579 27.8072 92.6579 28.2575V36.7014C92.6579 37.1518 92.9394 37.4332 93.3616 37.4332H93.8119C94.2623 37.4332 94.5156 37.1518 94.5156 36.7014V33.3802H97.7806C98.2309 33.3802 98.4842 33.0705 98.4842 32.6484V32.4513C98.4842 32.001 98.2028 31.7195 97.7806 31.7195H94.5156V29.1301H98.3716C98.822 29.1301 99.0753 28.8486 99.0753 28.3982V28.2012C99.1035 27.779 98.822 27.5257 98.3716 27.5257ZM78.9788 27.5257H76.4175C75.9671 27.5257 75.7138 27.8072 75.7138 28.2575V36.7014C75.7138 37.1518 75.9953 37.4332 76.4175 37.4332H79.0069C81.9904 37.4332 84.0451 35.4067 84.0451 32.5076C84.017 29.5522 81.9623 27.5257 78.9788 27.5257ZM82.103 32.4513C82.103 34.3934 80.8083 35.7445 78.9506 35.7445H77.5715V29.1301H78.9506C80.8083 29.1582 82.103 30.5092 82.103 32.4513ZM110.418 27.5257H110.869C111.319 27.5257 111.572 27.8072 111.572 28.2575V36.7014C111.572 37.1518 111.291 37.4332 110.869 37.4332H110.418C109.968 37.4332 109.715 37.1518 109.715 36.7014V28.2575C109.686 27.779 109.968 27.5257 110.418 27.5257ZM129.276 27.5257H128.826C128.376 27.5257 128.122 27.8072 128.122 28.2575V33.8868L123.76 27.9479C123.563 27.6664 123.309 27.5539 123 27.5539H122.803C122.352 27.5539 122.099 27.8353 122.099 28.2857V36.7296C122.099 37.1799 122.381 37.4614 122.803 37.4614H123.253C123.703 37.4614 123.957 37.1799 123.957 36.7296V31.0722L128.319 37.0392C128.516 37.3207 128.77 37.4332 129.079 37.4332H129.276C129.727 37.4332 129.98 37.1518 129.98 36.7014V28.2575C129.98 27.779 129.699 27.5257 129.276 27.5257ZM141.182 27.5257H141.633C142.055 27.5257 142.336 27.8072 142.336 28.2575V36.7014C142.336 37.1518 142.055 37.4332 141.633 37.4332H141.182C140.732 37.4332 140.479 37.1518 140.479 36.7014V28.2575C140.479 27.779 140.732 27.5257 141.182 27.5257ZM159.421 27.5257H152.807C152.385 27.5257 152.103 27.8072 152.103 28.2575V28.4545C152.103 28.8767 152.385 29.1863 152.807 29.1863H155.171V36.7014C155.171 37.1518 155.453 37.4332 155.875 37.4332H156.325C156.775 37.4332 157.029 37.1518 157.029 36.7014V29.1863H159.393C159.843 29.1863 160.097 28.9049 160.097 28.4545V28.2575C160.153 27.779 159.871 27.5257 159.421 27.5257Z" fill="#DFE0E2"/>
<path d="M49.2562 19.5039C46.1882 19.5039 42.8388 21.1364 39.2924 24.3732C37.6036 25.8931 36.14 27.5256 35.0704 28.8485C35.0704 28.8485 36.7873 30.7906 38.6731 32.8734C39.6864 31.6069 41.1782 29.8899 42.867 28.3419C46.0193 25.4709 48.074 24.8799 49.2562 24.8799C53.6752 24.8799 57.2779 28.5107 57.2779 33.0142C57.2779 37.4613 53.7033 41.0922 49.2562 41.1485C49.0592 41.1485 48.7777 41.1203 48.4962 41.064C49.791 41.6551 51.1701 42.0773 52.493 42.0773C60.5992 42.0773 62.1754 36.5888 62.288 36.1947C62.5131 35.1814 62.6539 34.14 62.6539 33.0423C62.5976 25.5554 56.6305 19.5039 49.2562 19.5039Z" fill="url(#paint0_linear_2302_2050)"/>
<path d="M20.9409 46.4962C24.0089 46.4962 27.3583 44.8638 30.9047 41.6269C32.5935 40.107 34.0571 38.4745 35.1267 37.1517C35.1267 37.1517 33.4098 35.2095 31.524 33.1267C30.5107 34.3933 29.0189 36.1102 27.3302 37.6583C24.1778 40.5292 22.1231 41.1203 20.9409 41.1203C16.5219 41.1203 12.9192 37.4894 12.9192 32.986C12.9192 28.5389 16.4938 24.908 20.9409 24.8517C21.1379 24.8517 21.4194 24.8798 21.7009 24.9361C20.4061 24.345 19.027 23.9229 17.7041 23.9229C9.59793 23.9229 8.02173 29.4114 7.90915 29.8054C7.68398 30.8187 7.54324 31.8601 7.54324 32.9578C7.57139 40.4166 13.5666 46.4962 20.9409 46.4962Z" fill="url(#paint1_linear_2302_2050)"/>
<path d="M27.105 28.4545C26.2324 27.6101 21.8979 24.1762 17.7322 24.0636C10.3297 23.8947 8.16245 29.13 7.99357 29.8336C9.40089 23.9229 14.6924 19.5321 20.9691 19.5039C26.0917 19.5039 31.2425 24.4014 35.0704 28.8485C35.0704 28.8485 35.0704 28.8204 35.0985 28.8204C35.0985 28.8204 36.8155 30.7625 38.7013 32.8453C38.7013 32.8453 40.8404 35.3222 43.1203 37.5176C43.9928 38.362 48.3273 41.7677 52.4649 41.8803C60.0644 42.0773 62.1472 36.5325 62.2879 36.1103C60.8806 42.0492 55.5891 46.4681 49.3125 46.4963C44.1898 46.4963 39.039 41.5707 35.183 37.1517L35.1548 37.1798C35.1548 37.1798 33.4379 35.2377 31.5521 33.1549C31.5239 33.1268 29.3848 30.6499 27.105 28.4545ZM7.96542 29.8618C7.96542 29.8618 7.96542 29.8336 7.96542 29.8055C7.99357 29.8336 7.99357 29.8618 7.96542 29.8618Z" fill="#29ABE2"/>
<defs>
<linearGradient id="paint0_linear_2302_2050" x1="42.212" y1="21.4926" x2="60.7205" y2="40.5609" gradientUnits="userSpaceOnUse">
<stop offset="0.21" stop-color="#F15A24"/>
<stop offset="0.6841" stop-color="#FBB03B"/>
</linearGradient>
<linearGradient id="paint1_linear_2302_2050" x1="27.9826" y1="44.5006" x2="9.47395" y2="25.4323" gradientUnits="userSpaceOnUse">
<stop offset="0.21" stop-color="#ED1E79"/>
<stop offset="0.8929" stop-color="#522785"/>
</linearGradient>
</defs>
</svg>
