<svg width="184" height="66" viewBox="0 0 184 66" fill="none" xmlns="http://www.w3.org/2000/svg">
<path d="M47.9533 27.5173L40.8981 31.2212V35.5163L43.3248 34.2258V36.7164L36.4871 40.6609L30.9915 37.4907C30.5831 37.2552 30.244 36.9164 30.0083 36.5083C29.7725 36.1003 29.6485 35.6375 29.6486 35.1664V28.8275L35.3201 25.556C35.6747 25.3515 36.0769 25.2439 36.4863 25.2439C36.8958 25.2439 37.298 25.3515 37.6526 25.556L43.324 28.8275L46.7958 26.8247L37.9606 21.7282C37.512 21.4699 37.0033 21.334 36.4856 21.334C35.9679 21.334 35.4592 21.4699 35.0106 21.7282L26.1769 26.8254V37.1648C26.1769 38.1272 26.6907 39.0153 27.5241 39.4965L36.4871 44.6658L45.4369 39.5038C45.8503 39.2654 46.1936 38.9224 46.4323 38.5094C46.671 38.0964 46.7966 37.6279 46.7965 37.151V32.3812L47.9525 31.7673V27.5173H47.9533Z" fill="#C45F5A"/>
<path d="M63.8671 40.987C62.8032 40.987 61.8093 40.7981 60.8853 40.4201C59.9614 40.0281 59.1494 39.4891 58.4495 38.8032C57.7635 38.1032 57.2246 37.2983 56.8326 36.3883C56.4406 35.4784 56.2446 34.4915 56.2446 33.4275C56.2446 32.3636 56.4406 31.3766 56.8326 30.4667C57.2246 29.5568 57.7635 28.7588 58.4495 28.0729C59.1494 27.3729 59.9614 26.8339 60.8853 26.456C61.8093 26.064 62.8032 25.868 63.8671 25.868C64.5531 25.868 65.2181 25.945 65.862 26.099C66.506 26.253 67.0869 26.477 67.6049 26.7709C67.7869 26.8689 67.9199 27.0019 68.0039 27.1699C68.0879 27.3239 68.1299 27.4779 68.1299 27.6319C68.1299 27.9259 68.0319 28.1849 67.8359 28.4088C67.6539 28.6188 67.4229 28.7238 67.1429 28.7238C67.0449 28.7238 66.94 28.7098 66.828 28.6818C66.73 28.6538 66.639 28.6188 66.555 28.5768C66.163 28.3808 65.743 28.2338 65.2951 28.1359C64.8471 28.0239 64.3711 27.9679 63.8671 27.9679C62.8592 27.9679 61.9493 28.2128 61.1373 28.7028C60.3254 29.1788 59.6814 29.8297 59.2054 30.6557C58.7435 31.4816 58.5125 32.4056 58.5125 33.4275C58.5125 34.4355 58.7435 35.3594 59.2054 36.1993C59.6814 37.0253 60.3254 37.6832 61.1373 38.1732C61.9493 38.6492 62.8592 38.8872 63.8671 38.8872C64.3571 38.8872 64.8751 38.8312 65.421 38.7192C65.967 38.5932 66.429 38.4322 66.807 38.2362L66.639 38.8032V34.8134L66.975 35.1074H64.2241C63.9161 35.1074 63.6572 35.0094 63.4472 34.8134C63.2512 34.6174 63.1532 34.3655 63.1532 34.0575C63.1532 33.7495 63.2512 33.4975 63.4472 33.3015C63.6572 33.1055 63.9161 33.0075 64.2241 33.0075H67.8569C68.1509 33.0075 68.3959 33.1125 68.5918 33.3225C68.8018 33.5185 68.9068 33.7705 68.9068 34.0785V38.7402C68.9068 38.9642 68.8508 39.1532 68.7388 39.3071C68.6268 39.4611 68.5009 39.5871 68.3609 39.6851C67.7309 40.0771 67.0309 40.3921 66.261 40.6301C65.505 40.868 64.7071 40.987 63.8671 40.987Z" fill="#F7F7F9"/>
<path d="M80.7703 29.5638C81.0782 29.5638 81.3302 29.6688 81.5262 29.8787C81.7222 30.0747 81.8202 30.3267 81.8202 30.6347V39.7061C81.8202 40.0141 81.7222 40.2731 81.5262 40.4831C81.3302 40.6791 81.0782 40.7771 80.7703 40.7771C80.4763 40.7771 80.2243 40.6791 80.0143 40.4831C79.8183 40.2731 79.7203 40.0141 79.7203 39.7061V38.1942L80.1613 38.2572C80.1613 38.5092 80.0563 38.7892 79.8463 39.0972C79.6503 39.4051 79.3773 39.7061 79.0274 40.0001C78.6774 40.2801 78.2644 40.5181 77.7884 40.7141C77.3125 40.896 76.8015 40.987 76.2555 40.987C75.2896 40.987 74.4217 40.7421 73.6517 40.2521C72.8818 39.7481 72.2728 39.0622 71.8248 38.1942C71.3769 37.3263 71.1529 36.3393 71.1529 35.2334C71.1529 34.0995 71.3769 33.1055 71.8248 32.2516C72.2728 31.3836 72.8748 30.7047 73.6307 30.2147C74.4007 29.7248 75.2546 29.4798 76.1925 29.4798C76.7945 29.4798 77.3475 29.5778 77.8514 29.7737C78.3694 29.9697 78.8174 30.2217 79.1954 30.5297C79.5733 30.8377 79.8603 31.1667 80.0563 31.5166C80.2663 31.8526 80.3713 32.1746 80.3713 32.4826L79.7203 32.5456V30.6347C79.7203 30.3407 79.8183 30.0887 80.0143 29.8787C80.2243 29.6688 80.4763 29.5638 80.7703 29.5638ZM76.4865 39.0552C77.1445 39.0552 77.7254 38.8872 78.2294 38.5512C78.7334 38.2152 79.1254 37.7602 79.4053 37.1863C79.6853 36.5983 79.8253 35.9474 79.8253 35.2334C79.8253 34.5055 79.6853 33.8545 79.4053 33.2805C79.1254 32.7066 78.7334 32.2516 78.2294 31.9156C77.7254 31.5796 77.1445 31.4116 76.4865 31.4116C75.8426 31.4116 75.2686 31.5796 74.7646 31.9156C74.2747 32.2516 73.8827 32.7066 73.5887 33.2805C73.3087 33.8545 73.1687 34.5055 73.1687 35.2334C73.1687 35.9474 73.3087 36.5983 73.5887 37.1863C73.8827 37.7602 74.2747 38.2152 74.7646 38.5512C75.2686 38.8872 75.8426 39.0552 76.4865 39.0552Z" fill="#F7F7F9"/>
<path d="M84.615 29.8577H89.5497C89.8297 29.8577 90.0606 29.9557 90.2426 30.1517C90.4386 30.3337 90.5366 30.5647 90.5366 30.8447C90.5366 31.1107 90.4386 31.3347 90.2426 31.5166C90.0606 31.6986 89.8297 31.7896 89.5497 31.7896H84.615C84.335 31.7896 84.097 31.6986 83.901 31.5166C83.719 31.3207 83.628 31.0897 83.628 30.8237C83.628 30.5437 83.719 30.3127 83.901 30.1307C84.097 29.9487 84.335 29.8577 84.615 29.8577ZM86.8198 27.1279C87.1278 27.1279 87.3798 27.2329 87.5758 27.4429C87.7718 27.6389 87.8698 27.8909 87.8698 28.1988V37.9422C87.8698 38.1942 87.9118 38.3972 87.9958 38.5512C88.0798 38.7052 88.1918 38.8102 88.3317 38.8662C88.4857 38.9222 88.6397 38.9502 88.7937 38.9502C88.9477 38.9502 89.0807 38.9222 89.1927 38.8662C89.3187 38.8102 89.4657 38.7822 89.6337 38.7822C89.8017 38.7822 89.9556 38.8592 90.0956 39.0132C90.2356 39.1672 90.3056 39.3771 90.3056 39.6431C90.3056 39.9791 90.1236 40.2521 89.7597 40.4621C89.3957 40.6721 89.0037 40.7771 88.5837 40.7771C88.3457 40.7771 88.0658 40.7561 87.7438 40.7141C87.4218 40.6721 87.1068 40.5671 86.7988 40.3991C86.5049 40.2311 86.2599 39.9651 86.0639 39.6011C85.8679 39.2232 85.7699 38.6982 85.7699 38.0262V28.1988C85.7699 27.8909 85.8679 27.6389 86.0639 27.4429C86.2739 27.2329 86.5259 27.1279 86.8198 27.1279Z" fill="#F7F7F9"/>
<path d="M97.9042 40.987C96.7423 40.987 95.7343 40.7491 94.8804 40.2731C94.0264 39.7831 93.3615 39.1182 92.8855 38.2782C92.4235 37.4243 92.1925 36.4513 92.1925 35.3594C92.1925 34.1275 92.4375 33.0775 92.9275 32.2096C93.4315 31.3277 94.0824 30.6557 94.8804 30.1937C95.6783 29.7178 96.5253 29.4798 97.4212 29.4798C98.1072 29.4798 98.7581 29.6198 99.3741 29.8997C99.9901 30.1657 100.536 30.5437 101.012 31.0337C101.502 31.5096 101.887 32.0766 102.167 32.7346C102.447 33.3785 102.594 34.0855 102.608 34.8554C102.594 35.1354 102.482 35.3664 102.272 35.5484C102.062 35.7304 101.817 35.8214 101.537 35.8214H93.3685L92.8645 34.0365H100.76L100.361 34.4145V33.8895C100.333 33.3995 100.172 32.9725 99.8781 32.6086C99.5841 32.2306 99.2201 31.9436 98.7861 31.7476C98.3522 31.5376 97.8972 31.4326 97.4212 31.4326C97.0012 31.4326 96.5953 31.5026 96.2033 31.6426C95.8253 31.7686 95.4823 31.9786 95.1744 32.2726C94.8804 32.5666 94.6424 32.9585 94.4604 33.4485C94.2924 33.9245 94.2084 34.5195 94.2084 35.2334C94.2084 36.0034 94.3694 36.6753 94.6914 37.2493C95.0134 37.8232 95.4473 38.2712 95.9933 38.5932C96.5393 38.9012 97.1412 39.0552 97.7992 39.0552C98.3172 39.0552 98.7441 39.0062 99.0801 38.9082C99.4161 38.7962 99.6961 38.6632 99.9201 38.5092C100.144 38.3552 100.34 38.2082 100.508 38.0682C100.718 37.9422 100.928 37.8792 101.138 37.8792C101.39 37.8792 101.6 37.9702 101.768 38.1522C101.936 38.3202 102.02 38.5232 102.02 38.7612C102.02 39.0692 101.866 39.3491 101.558 39.6011C101.18 39.9651 100.655 40.2871 99.9831 40.5671C99.3251 40.847 98.6321 40.987 97.9042 40.987Z" fill="#F7F7F9"/>
<path d="M115.649 26.9179C115.957 27.0719 116.132 27.3099 116.174 27.6319C116.23 27.9539 116.153 28.2478 115.943 28.5138C115.789 28.7238 115.586 28.8428 115.334 28.8708C115.096 28.8988 114.858 28.8498 114.62 28.7238C114.214 28.5138 113.787 28.3458 113.339 28.2198C112.891 28.0939 112.415 28.0309 111.911 28.0309C111.113 28.0309 110.392 28.1639 109.748 28.4298C109.118 28.6818 108.572 29.0528 108.11 29.5428C107.648 30.0187 107.291 30.5857 107.039 31.2437C106.801 31.9016 106.682 32.6296 106.682 33.4275C106.682 34.3095 106.815 35.0934 107.081 35.7794C107.347 36.4513 107.711 37.0253 108.173 37.5013C108.649 37.9632 109.202 38.3132 109.832 38.5512C110.476 38.7752 111.169 38.8872 111.911 38.8872C112.387 38.8872 112.849 38.8312 113.297 38.7192C113.759 38.6072 114.193 38.4392 114.599 38.2152C114.851 38.0892 115.096 38.0472 115.334 38.0892C115.586 38.1172 115.789 38.2362 115.943 38.4462C116.181 38.7402 116.265 39.0412 116.195 39.3491C116.139 39.6431 115.964 39.8671 115.67 40.0211C115.32 40.2171 114.935 40.3851 114.515 40.5251C114.095 40.6651 113.668 40.7771 113.234 40.861C112.8 40.945 112.359 40.987 111.911 40.987C110.903 40.987 109.951 40.8191 109.055 40.4831C108.159 40.1471 107.361 39.6571 106.661 39.0132C105.961 38.3692 105.408 37.5783 105.002 36.6403C104.61 35.7024 104.414 34.6314 104.414 33.4275C104.414 32.3496 104.596 31.3556 104.96 30.4457C105.338 29.5218 105.863 28.7308 106.535 28.0729C107.221 27.4009 108.019 26.8829 108.929 26.519C109.839 26.141 110.833 25.952 111.911 25.952C112.583 25.952 113.234 26.036 113.864 26.204C114.508 26.372 115.103 26.6099 115.649 26.9179Z" fill="#F7F7F9"/>
<path d="M123.896 29.5428C124.862 29.5428 125.611 29.7528 126.143 30.1727C126.675 30.5787 127.046 31.1317 127.256 31.8316C127.48 32.5316 127.592 33.3015 127.592 34.1415V39.7061C127.592 40.0141 127.487 40.2731 127.277 40.4831C127.081 40.6791 126.836 40.7771 126.542 40.7771C126.234 40.7771 125.982 40.6791 125.786 40.4831C125.59 40.2731 125.492 40.0141 125.492 39.7061V34.1415C125.492 33.6515 125.422 33.2035 125.282 32.7976C125.156 32.3916 124.925 32.0696 124.589 31.8316C124.267 31.5936 123.812 31.4746 123.224 31.4746C122.678 31.4746 122.188 31.5936 121.754 31.8316C121.334 32.0696 121.005 32.3916 120.767 32.7976C120.543 33.2035 120.431 33.6515 120.431 34.1415V39.7061C120.431 40.0141 120.326 40.2731 120.116 40.4831C119.92 40.6791 119.675 40.7771 119.381 40.7771C119.073 40.7771 118.821 40.6791 118.625 40.4831C118.429 40.2731 118.331 40.0141 118.331 39.7061V26.309C118.331 26.001 118.429 25.749 118.625 25.553C118.821 25.343 119.073 25.238 119.381 25.238C119.675 25.238 119.92 25.343 120.116 25.553C120.326 25.749 120.431 26.001 120.431 26.309V32.0416L120.053 32.2516C120.151 31.9436 120.312 31.6286 120.536 31.3067C120.774 30.9847 121.061 30.6907 121.397 30.4247C121.747 30.1587 122.132 29.9487 122.552 29.7947C122.972 29.6268 123.42 29.5428 123.896 29.5428Z" fill="#F7F7F9"/>
<path d="M139.562 29.5638C139.87 29.5638 140.122 29.6688 140.318 29.8787C140.514 30.0747 140.612 30.3267 140.612 30.6347V39.7061C140.612 40.0141 140.514 40.2731 140.318 40.4831C140.122 40.6791 139.87 40.7771 139.562 40.7771C139.268 40.7771 139.016 40.6791 138.806 40.4831C138.61 40.2731 138.512 40.0141 138.512 39.7061V38.1942L138.953 38.2572C138.953 38.5092 138.848 38.7892 138.638 39.0972C138.443 39.4051 138.17 39.7061 137.82 40.0001C137.47 40.2801 137.057 40.5181 136.581 40.7141C136.105 40.896 135.594 40.987 135.048 40.987C134.082 40.987 133.214 40.7421 132.444 40.2521C131.674 39.7481 131.065 39.0622 130.617 38.1942C130.169 37.3263 129.945 36.3393 129.945 35.2334C129.945 34.0995 130.169 33.1055 130.617 32.2516C131.065 31.3836 131.667 30.7047 132.423 30.2147C133.193 29.7248 134.047 29.4798 134.985 29.4798C135.587 29.4798 136.14 29.5778 136.644 29.7737C137.162 29.9697 137.61 30.2217 137.988 30.5297C138.366 30.8377 138.652 31.1667 138.848 31.5166C139.058 31.8526 139.163 32.1746 139.163 32.4826L138.512 32.5456V30.6347C138.512 30.3407 138.61 30.0887 138.806 29.8787C139.016 29.6688 139.268 29.5638 139.562 29.5638ZM135.279 39.0552C135.937 39.0552 136.518 38.8872 137.022 38.5512C137.526 38.2152 137.918 37.7602 138.198 37.1863C138.478 36.5983 138.618 35.9474 138.618 35.2334C138.618 34.5055 138.478 33.8545 138.198 33.2805C137.918 32.7066 137.526 32.2516 137.022 31.9156C136.518 31.5796 135.937 31.4116 135.279 31.4116C134.635 31.4116 134.061 31.5796 133.557 31.9156C133.067 32.2516 132.675 32.7066 132.381 33.2805C132.101 33.8545 131.961 34.5055 131.961 35.2334C131.961 35.9474 132.101 36.5983 132.381 37.1863C132.675 37.7602 133.067 38.2152 133.557 38.5512C134.061 38.8872 134.635 39.0552 135.279 39.0552Z" fill="#F7F7F9"/>
<path d="M145.528 39.7061C145.528 40.0141 145.43 40.2731 145.234 40.4831C145.038 40.6791 144.786 40.7771 144.478 40.7771C144.184 40.7771 143.932 40.6791 143.722 40.4831C143.526 40.2731 143.428 40.0141 143.428 39.7061V30.7187C143.428 30.4107 143.526 30.1587 143.722 29.9627C143.932 29.7528 144.184 29.6478 144.478 29.6478C144.786 29.6478 145.038 29.7528 145.234 29.9627C145.43 30.1587 145.528 30.4107 145.528 30.7187V39.7061ZM144.457 28.2618C144.051 28.2618 143.757 28.1919 143.575 28.0519C143.393 27.8979 143.302 27.6459 143.302 27.2959V26.9599C143.302 26.6099 143.4 26.365 143.596 26.225C143.792 26.085 144.086 26.015 144.478 26.015C144.898 26.015 145.199 26.092 145.381 26.246C145.563 26.386 145.654 26.6239 145.654 26.9599V27.2959C145.654 27.6599 145.556 27.9119 145.36 28.0519C145.178 28.1919 144.877 28.2618 144.457 28.2618Z" fill="#F7F7F9"/>
<path d="M154.043 29.4798C155.037 29.4798 155.807 29.6898 156.353 30.1097C156.899 30.5157 157.277 31.0687 157.487 31.7686C157.711 32.4546 157.823 33.2245 157.823 34.0785V39.7061C157.823 40.0141 157.718 40.2731 157.508 40.4831C157.312 40.6791 157.067 40.7771 156.773 40.7771C156.465 40.7771 156.213 40.6791 156.017 40.4831C155.821 40.2731 155.723 40.0141 155.723 39.7061V34.0995C155.723 33.5955 155.653 33.1475 155.513 32.7556C155.373 32.3496 155.128 32.0276 154.778 31.7896C154.442 31.5376 153.966 31.4116 153.35 31.4116C152.776 31.4116 152.272 31.5376 151.838 31.7896C151.404 32.0276 151.062 32.3496 150.81 32.7556C150.572 33.1475 150.453 33.5955 150.453 34.0995V39.7061C150.453 40.0141 150.348 40.2731 150.138 40.4831C149.942 40.6791 149.697 40.7771 149.403 40.7771C149.095 40.7771 148.843 40.6791 148.647 40.4831C148.451 40.2731 148.353 40.0141 148.353 39.7061V30.8027C148.353 30.4947 148.451 30.2427 148.647 30.0467C148.843 29.8367 149.095 29.7318 149.403 29.7318C149.697 29.7318 149.942 29.8367 150.138 30.0467C150.348 30.2427 150.453 30.4947 150.453 30.8027V31.9786L150.075 32.1886C150.173 31.8806 150.341 31.5726 150.579 31.2647C150.831 30.9427 151.132 30.6487 151.481 30.3827C151.831 30.1027 152.223 29.8857 152.657 29.7318C153.091 29.5638 153.553 29.4798 154.043 29.4798Z" fill="#F7F7F9"/>
</svg>
