<svg width="184" height="66" viewBox="0 0 184 66" fill="none" xmlns="http://www.w3.org/2000/svg">
<path d="M47.9805 20.5C45.0679 20.5 42.6407 22.9272 42.5193 25.8398V31.7864C42.0339 31.7864 41.4271 31.9078 40.8203 31.9078C40.2135 31.9078 39.6067 31.9078 39.1213 32.0291V25.8398C39.1213 22.9272 36.6941 20.5 33.6601 20.5C30.7475 20.5 28.4417 22.9272 28.3203 25.8398V40.1602C28.4417 43.0728 30.7475 45.5 33.7815 45.5C36.6941 45.3786 39.1213 43.0728 39.1213 40.1602V34.2136C39.6067 34.2136 40.2135 34.0922 40.8203 34.0922C41.4271 34.0922 42.0339 34.0922 42.5193 33.9709V40.0388C42.6407 42.9515 44.9465 45.3786 47.9805 45.3786C50.8931 45.2573 53.3203 42.9515 53.3203 40.0388V25.8398C53.3203 22.9272 50.8931 20.5 47.9805 20.5ZM33.7815 22.6845C35.6019 22.6845 36.9368 24.1408 36.9368 25.8398V32.1505C35.3591 32.3932 33.7815 32.8786 32.3252 33.4854C31.7184 33.8495 31.1116 34.0922 30.5048 34.5777V25.8398C30.6261 24.1408 31.9611 22.6845 33.7815 22.6845ZM36.9368 40.1602C36.9368 41.9806 35.4805 43.3155 33.7815 43.3155C32.0824 43.3155 30.6261 41.8592 30.6261 40.1602V38.7039C30.6261 37.4903 31.597 36.2767 33.296 35.5485C34.5096 35.0631 35.7232 34.699 37.0582 34.4563L36.9368 40.1602ZM47.9805 43.3155C46.1601 43.3155 44.8252 41.8592 44.8252 40.1602V33.8495C46.4028 33.6068 47.9805 33.1214 49.4368 32.5146C50.0436 32.1505 50.6504 31.9078 51.2572 31.4223V40.1602C51.1358 41.9806 49.6795 43.3155 47.9805 43.3155ZM48.4659 30.4515C47.2523 30.9369 46.0388 31.301 44.7038 31.5437V25.8398C44.7038 24.0194 46.1601 22.6845 47.8591 22.6845C49.5582 22.6845 51.0145 24.1408 51.0145 25.8398V27.2961C51.1358 28.5097 50.165 29.7233 48.4659 30.4515Z" fill="#00E8A2"/>
<path d="M125.65 29.1172C122.252 29.1172 119.461 31.7871 119.582 35.3065C119.582 38.7046 122.252 41.4958 125.771 41.3745C129.169 41.3745 131.839 38.7046 131.839 35.1852C131.718 31.9085 129.048 29.1172 125.65 29.1172ZM129.776 35.3065C129.776 37.6123 127.956 39.4327 125.65 39.4327C123.344 39.4327 121.524 37.6123 121.524 35.3065C121.524 33.0007 123.344 31.1803 125.65 31.1803C127.956 31.1803 129.776 33.0007 129.776 35.3065Z" fill="white"/>
<path d="M89 29.2376C88.5146 29.2376 88.0291 29.723 88.0291 30.2084V30.6939C85.6019 28.388 81.5971 28.6308 79.4126 31.0579C77.1068 33.4851 77.3495 37.49 79.7767 39.6745C82.0825 41.8589 85.7233 41.8589 88.0291 39.6745V40.1599C88.0291 40.6453 88.3932 41.1308 89 41.1308C89.4854 41.1308 89.9709 40.7667 89.9709 40.1599V40.0385V29.9657C89.9709 29.6016 89.4854 29.2376 89 29.2376ZM87.9078 35.3055C87.9078 37.6113 86.0874 39.4317 83.7816 39.4317C81.4757 39.4317 79.6553 37.6113 79.6553 35.3055C79.6553 32.9997 81.4757 31.1793 83.7816 31.1793C86.0874 31.1793 87.9078 32.9997 87.9078 35.3055Z" fill="white"/>
<path d="M99.5576 30.0881C99.5576 30.5735 99.0722 31.0589 98.5868 31.0589H98.4654C96.1596 31.0589 94.3392 32.8793 94.3392 35.1851C94.2178 35.4279 94.3392 38.5832 94.3392 40.4036C94.2178 40.889 93.8538 41.3745 93.247 41.2531C92.7615 41.1318 92.3975 40.7677 92.3975 40.2822V30.2094C92.3975 29.724 92.8829 29.2385 93.3683 29.2385H93.4897C93.9751 29.3599 94.4606 29.724 94.4606 30.2094V30.6949C95.5528 29.724 97.0091 29.1172 98.5868 29.1172H98.7081C99.0722 29.1172 99.5576 29.6026 99.5576 30.0881Z" fill="white"/>
<path d="M143.49 34.2132V40.2812C143.49 40.7666 143.005 41.2521 142.519 41.2521C142.034 41.2521 141.548 40.7666 141.548 40.2812V39.3103V34.2132C141.548 32.5142 140.092 31.0579 138.393 31.0579C138.272 31.0579 138.272 31.0579 138.15 31.0579C136.573 31.1793 135.238 32.6356 135.238 34.2132V35.4268V39.189V40.1598C135.238 40.6453 134.752 41.1307 134.267 41.1307C133.781 41.1307 133.296 40.6453 133.296 40.1598V30.087C133.296 29.6016 133.781 29.1162 134.267 29.1162C134.752 29.1162 135.238 29.6016 135.238 30.087V30.2084C135.966 29.6016 137.058 29.2375 138.15 29.1162C140.942 28.9948 143.369 31.1793 143.49 33.9705C143.49 34.0919 143.49 34.2132 143.49 34.2132Z" fill="white"/>
<path d="M75.7717 25.5959V40.4017C75.7717 40.8871 75.2863 41.3726 74.8009 41.3726C74.3154 41.3726 73.83 40.8871 73.83 40.4017V33.7269H63.7572V40.4017C63.7572 40.8871 63.2717 41.3726 62.7863 41.3726C62.3009 41.3726 61.8154 40.8871 61.8154 40.4017V25.5959C61.8154 25.1104 62.3009 24.625 62.7863 24.625C63.2717 24.625 63.7572 25.1104 63.7572 25.5959V32.0279H73.9514V25.5959C73.9514 25.1104 74.4368 24.625 74.9222 24.625C75.2863 24.625 75.7717 25.1104 75.7717 25.5959Z" fill="white"/>
<path d="M118.126 34.6992V40.2818C118.126 40.7672 117.641 41.2526 117.156 41.2526C116.67 41.2526 116.185 40.7672 116.185 40.2818V35.1847V33.8497C116.185 32.2721 114.971 31.0585 113.515 31.0585C112.059 31.0585 110.724 32.2721 110.724 33.7284C110.724 33.8497 110.724 33.8497 110.724 33.8497V40.2818C110.724 40.7672 110.359 41.2526 109.753 41.2526C109.267 41.2526 108.782 40.8886 108.782 40.2818V40.1604V34.942V33.607C108.782 32.0293 107.568 30.8157 106.112 30.8157C104.656 30.8157 103.321 32.0293 103.321 33.4856C103.321 33.607 103.321 33.607 103.321 33.607V40.039C103.321 40.5245 102.957 41.0099 102.35 41.0099C101.864 41.0099 101.379 40.6458 101.379 40.039V39.9177V29.8449C101.379 29.3594 101.864 28.874 102.35 28.874C102.835 28.874 103.321 29.2381 103.321 29.7235C105.384 28.2672 108.296 28.6313 109.874 30.6944C111.452 28.6313 114.486 28.2672 116.427 29.8449C117.641 30.8157 118.248 32.1507 118.248 33.607L118.126 34.6992Z" fill="white"/>
<path d="M155.626 30.573L148.951 45.0148C148.587 45.5002 147.98 45.6216 147.495 45.3788C147.131 45.1361 146.888 44.6507 147.009 44.1652L148.83 40.2818L144.339 30.573C143.975 30.0876 144.218 29.4808 144.703 29.1167C145.189 28.7526 145.796 28.9953 146.16 29.4808C146.16 29.6021 146.281 29.6021 146.281 29.6021L150.043 37.7332L153.805 29.6021C153.927 29.1167 154.534 28.874 155.019 28.9953C155.504 29.1167 155.747 29.7235 155.626 30.2089C155.747 30.4517 155.626 30.573 155.626 30.573Z" fill="white"/>
</svg>
