<svg width="184" height="66" viewBox="0 0 184 66" fill="none" xmlns="http://www.w3.org/2000/svg">
<path d="M80.3389 27.5935C80.583 27.5935 80.705 27.7155 80.705 27.9596V38.9179C80.705 39.1701 80.583 39.284 80.3389 39.284H78.5573C78.3051 39.284 78.1749 39.1619 78.1749 38.9179V27.9596C78.1749 27.7074 78.3051 27.5935 78.5573 27.5935H80.3389Z" fill="url(#paint0_linear_2302_2074)"/>
<path d="M91.289 30.1169C92.0293 30.1169 92.6476 30.1739 93.152 30.3041C93.6563 30.4342 94.055 30.6295 94.3641 30.9061C94.6733 31.1827 94.8766 31.5325 95.0149 31.9637C95.1532 32.3948 95.2102 32.9074 95.2102 33.5094V35.9093C95.2102 36.5113 95.1451 37.0238 95.0149 37.455C94.8766 37.8862 94.6651 38.236 94.3641 38.5126C94.0631 38.7892 93.6563 38.9844 93.152 39.1065C92.6476 39.2285 92.0293 39.2855 91.289 39.2855H86.6274C85.879 39.2855 85.2526 39.2285 84.7563 39.1065C84.26 38.9844 83.8533 38.7892 83.5523 38.5126C83.2513 38.236 83.0397 37.8862 82.9014 37.455C82.7713 37.0238 82.7062 36.5113 82.7062 35.9093V33.5094C82.7062 32.9074 82.7713 32.3948 82.9014 31.9637C83.0397 31.5325 83.2513 31.1827 83.5523 30.9061C83.8533 30.6295 84.2519 30.4342 84.7563 30.3041C85.2607 30.1739 85.879 30.1169 86.6274 30.1169H91.289ZM85.0573 35.4944C85.0573 35.8523 85.0817 36.1452 85.1387 36.3811C85.1956 36.6171 85.2932 36.8042 85.4234 36.9425C85.5617 37.0808 85.7488 37.1865 85.9766 37.2435C86.2044 37.3004 86.5054 37.3411 86.8471 37.3411H91.0612C91.4273 37.3411 91.7201 37.3167 91.9479 37.2435C92.1757 37.1865 92.3628 37.0808 92.5011 36.9425C92.6394 36.8042 92.7371 36.6171 92.7859 36.3811C92.8428 36.1534 92.8672 35.8523 92.8672 35.4944V33.908C92.8672 33.5663 92.8428 33.2734 92.7859 33.0457C92.7289 32.8179 92.6313 32.6226 92.5011 32.4762C92.3628 32.3298 92.1757 32.224 91.9479 32.1752C91.7201 32.1264 91.4191 32.0857 91.0612 32.0857H86.8552C86.4973 32.0857 86.2125 32.1101 85.9847 32.1752C85.7569 32.2321 85.5698 32.3298 85.4315 32.4762C85.2932 32.6226 85.1956 32.8097 85.1468 33.0457C85.0899 33.2734 85.0654 33.5663 85.0654 33.908V35.4944H85.0573Z" fill="url(#paint1_linear_2302_2074)"/>
<path d="M109.764 27.5935C110.016 27.5935 110.147 27.7155 110.147 27.9596V29.5948C110.147 29.8551 110.016 29.9772 109.764 29.9772H104.582V38.9097C104.582 39.1619 104.46 39.2758 104.216 39.2758H102.418C102.174 39.2758 102.052 39.1538 102.052 38.9097V29.9772H96.8698C96.6176 29.9772 96.4874 29.847 96.4874 29.5948V27.9596C96.4874 27.7074 96.6176 27.5935 96.8698 27.5935H109.756H109.764Z" fill="url(#paint2_linear_2302_2074)"/>
<path d="M119.633 30.1169C120.194 30.1169 120.658 30.1576 121.032 30.2552C121.406 30.3529 121.691 30.5074 121.902 30.7271C122.114 30.9386 122.269 31.2233 122.358 31.5732C122.439 31.923 122.496 32.3542 122.496 32.8504V34.4368C122.496 34.7948 122.423 35.0388 122.269 35.1852C122.114 35.3236 121.878 35.3886 121.561 35.3886H113.222V35.7954C113.222 36.3161 113.352 36.6984 113.596 36.9262C113.84 37.154 114.328 37.276 115.036 37.276H121.911C122.106 37.276 122.203 37.3818 122.203 37.577V38.9844C122.203 39.1797 122.106 39.2855 121.911 39.2855H114.8C114.052 39.2855 113.425 39.2285 112.929 39.1065C112.433 38.9844 112.034 38.7892 111.725 38.5126C111.424 38.236 111.213 37.8862 111.074 37.455C110.936 37.0238 110.879 36.5113 110.879 35.9093V33.5094C110.879 32.9074 110.944 32.3948 111.074 31.9637C111.213 31.5325 111.424 31.1827 111.725 30.9061C112.026 30.6295 112.425 30.4342 112.929 30.3041C113.425 30.1739 114.052 30.1169 114.8 30.1169H119.633ZM113.214 33.908H119.893C120.08 33.908 120.17 33.8104 120.17 33.6233V32.9236C120.17 32.5819 120.105 32.3298 119.958 32.1833C119.812 32.0369 119.551 31.9718 119.169 31.9718H115.028C114.32 31.9718 113.832 32.0857 113.588 32.3135C113.344 32.5413 113.214 32.9236 113.214 33.4524V33.908Z" fill="url(#paint3_linear_2302_2074)"/>
<path d="M137.139 27.5938C137.294 27.5938 137.375 27.6426 137.392 27.7565C137.408 27.8623 137.375 27.9518 137.302 28.0331L132.242 33.2316L137.538 38.8531C137.611 38.9263 137.652 39.024 137.628 39.1297C137.611 39.2355 137.53 39.2924 137.375 39.2924H135.114C134.975 39.2924 134.878 39.2762 134.796 39.2436C134.723 39.2111 134.642 39.146 134.585 39.0646L130.509 34.7366L126.417 39.0565C126.344 39.146 126.262 39.2111 126.197 39.2355C126.132 39.268 126.018 39.2843 125.872 39.2843H123.732C123.586 39.2843 123.513 39.2355 123.496 39.1216C123.48 39.0158 123.513 38.9263 123.586 38.845L129.012 33.134L124.115 28.025C124.05 27.9518 124.025 27.8542 124.033 27.7484C124.042 27.6426 124.123 27.5857 124.277 27.5857H126.539C126.677 27.5857 126.775 27.602 126.856 27.6426C126.93 27.6752 127.011 27.7403 127.068 27.8135L130.664 31.6859L134.471 27.8135C134.536 27.7403 134.609 27.6752 134.683 27.6426C134.756 27.602 134.861 27.5857 135 27.5857H137.139V27.5938Z" fill="url(#paint4_linear_2302_2074)"/>
<path d="M62.4572 20.4998V26.5118L67.7045 23.5098L62.4572 20.4998Z" fill="url(#paint5_linear_2302_2074)"/>
<path opacity="0.9" d="M67.7042 23.5095V29.5297L72.9597 26.5115L67.7042 23.5095Z" fill="url(#paint6_linear_2302_2074)"/>
<path opacity="0.8" d="M62.4572 26.5115V32.5316L67.7045 29.5297L62.4572 26.5115Z" fill="url(#paint7_linear_2302_2074)"/>
<path opacity="0.8" d="M67.7042 29.531V35.543L72.9597 32.5329L67.7042 29.531Z" fill="url(#paint8_linear_2302_2074)"/>
<path opacity="0.8" d="M62.4572 32.531V38.5511L67.7045 35.5411L62.4572 32.531Z" fill="url(#paint9_linear_2302_2074)"/>
<path d="M67.7042 35.5427V41.5629L72.9597 38.5528L67.7042 35.5427Z" fill="url(#paint10_linear_2302_2074)"/>
<path opacity="0.4" d="M48.8869 26.3162V32.3282L54.1341 29.3181L48.8869 26.3162Z" fill="url(#paint11_linear_2302_2074)"/>
<path opacity="0.2" d="M55.5089 28.5466V34.5668L60.7481 31.5648L55.5089 28.5466Z" fill="url(#paint12_linear_2302_2074)"/>
<path opacity="0.3" d="M51.6212 32.3533V38.3734L56.8685 35.3633L51.6212 32.3533Z" fill="url(#paint13_linear_2302_2074)"/>
<path opacity="0.9" d="M55.0783 36.8923V42.9125L60.3174 39.9024L55.0783 36.8923Z" fill="url(#paint14_linear_2302_2074)"/>
<path opacity="0.7" d="M62.4162 39.488V45.5L67.6553 42.49L62.4162 39.488Z" fill="url(#paint15_linear_2302_2074)"/>
<path opacity="0.9" d="M56.3878 25.5759V31.5961L61.627 28.5941L56.3878 25.5759Z" fill="url(#paint16_linear_2302_2074)"/>
<path opacity="0.8" d="M62.4574 20.4998V26.5118L57.2101 23.5098L62.4574 20.4998Z" fill="url(#paint17_linear_2302_2074)"/>
<path opacity="0.6" d="M56.3884 23.0544V29.0746L51.133 26.0564L56.3884 23.0544Z" fill="url(#paint18_linear_2302_2074)"/>
<path opacity="0.6" d="M61.6351 26.031V32.0511L56.3878 29.0411L61.6351 26.031Z" fill="url(#paint19_linear_2302_2074)"/>
<path opacity="0.95" d="M55.4847 28.5466V34.5668L50.2374 31.5648L55.4847 28.5466Z" fill="url(#paint20_linear_2302_2074)"/>
<path opacity="0.6" d="M62.4571 32.531V38.5511L57.2179 35.5411L62.4571 32.531Z" fill="url(#paint21_linear_2302_2074)"/>
<path opacity="0.55" d="M51.6208 33.9294V39.9496L46.3654 36.9395L51.6208 33.9294Z" fill="url(#paint22_linear_2302_2074)"/>
<path d="M72.9597 26.5115V32.5316L67.7042 29.5297L72.9597 26.5115Z" fill="url(#paint23_linear_2302_2074)"/>
<path opacity="0.95" d="M67.7045 29.531V35.543L62.4572 32.5329L67.7045 29.531Z" fill="url(#paint24_linear_2302_2074)"/>
<path opacity="0.9" d="M72.9597 32.531V38.5511L67.7042 35.5411L72.9597 32.531Z" fill="url(#paint25_linear_2302_2074)"/>
<path opacity="0.7" d="M67.7045 35.5427V41.5629L62.4572 38.5528L67.7045 35.5427Z" fill="url(#paint26_linear_2302_2074)"/>
<path opacity="0.4" d="M61.2933 38.0466V44.0668L56.046 41.0648L61.2933 38.0466Z" fill="url(#paint27_linear_2302_2074)"/>
<path d="M67.7045 23.5095V29.5297L62.4572 26.5115L67.7045 23.5095Z" fill="url(#paint28_linear_2302_2074)"/>
<defs>
<linearGradient id="paint0_linear_2302_2074" x1="75.0715" y1="32.4921" x2="138.37" y2="33.1319" gradientUnits="userSpaceOnUse">
<stop stop-color="#00DCB3"/>
<stop offset="1" stop-color="#00D3DC"/>
</linearGradient>
<linearGradient id="paint1_linear_2302_2074" x1="75.2355" y1="31.7219" x2="134.274" y2="55.6344" gradientUnits="userSpaceOnUse">
<stop stop-color="#00DCB3"/>
<stop offset="1" stop-color="#00D3DC"/>
</linearGradient>
<linearGradient id="paint2_linear_2302_2074" x1="76.2424" y1="26.9554" x2="138.068" y2="45.2156" gradientUnits="userSpaceOnUse">
<stop stop-color="#00DCB3"/>
<stop offset="1" stop-color="#00D3DC"/>
</linearGradient>
<linearGradient id="paint3_linear_2302_2074" x1="76.4718" y1="25.8796" x2="137.053" y2="47.0123" gradientUnits="userSpaceOnUse">
<stop stop-color="#00DCB3"/>
<stop offset="1" stop-color="#00D3DC"/>
</linearGradient>
<linearGradient id="paint4_linear_2302_2074" x1="77.3127" y1="21.903" x2="138.662" y2="41.3552" gradientUnits="userSpaceOnUse">
<stop stop-color="#00DCB3"/>
<stop offset="1" stop-color="#00D3DC"/>
</linearGradient>
<linearGradient id="paint5_linear_2302_2074" x1="48.6256" y1="15.5592" x2="80.3336" y2="29.4248" gradientUnits="userSpaceOnUse">
<stop stop-color="#00DC9C"/>
<stop offset="1" stop-color="#00D3DC"/>
</linearGradient>
<linearGradient id="paint6_linear_2302_2074" x1="48.6258" y1="15.5533" x2="80.3369" y2="29.4224" gradientUnits="userSpaceOnUse">
<stop stop-color="#00DC9C"/>
<stop offset="1" stop-color="#00D3DC"/>
</linearGradient>
<linearGradient id="paint7_linear_2302_2074" x1="45.8495" y1="19.9807" x2="77.5575" y2="33.8463" gradientUnits="userSpaceOnUse">
<stop stop-color="#00DC9C"/>
<stop offset="1" stop-color="#00D3DC"/>
</linearGradient>
<linearGradient id="paint8_linear_2302_2074" x1="45.8472" y1="19.9753" x2="77.5582" y2="33.8444" gradientUnits="userSpaceOnUse">
<stop stop-color="#00DC9C"/>
<stop offset="1" stop-color="#00D3DC"/>
</linearGradient>
<linearGradient id="paint9_linear_2302_2074" x1="43.0499" y1="24.3885" x2="74.7578" y2="38.2541" gradientUnits="userSpaceOnUse">
<stop stop-color="#00DC9C"/>
<stop offset="1" stop-color="#00D3DC"/>
</linearGradient>
<linearGradient id="paint10_linear_2302_2074" x1="43.0472" y1="24.3834" x2="74.7584" y2="38.2524" gradientUnits="userSpaceOnUse">
<stop stop-color="#00DC9C"/>
<stop offset="1" stop-color="#00D3DC"/>
</linearGradient>
<linearGradient id="paint11_linear_2302_2074" x1="43.2673" y1="26.0867" x2="74.9752" y2="39.9523" gradientUnits="userSpaceOnUse">
<stop stop-color="#00DC9C"/>
<stop offset="1" stop-color="#00D3DC"/>
</linearGradient>
<linearGradient id="paint12_linear_2302_2074" x1="44.8328" y1="25.4251" x2="76.5556" y2="39.2542" gradientUnits="userSpaceOnUse">
<stop stop-color="#00DC9C"/>
<stop offset="1" stop-color="#00D3DC"/>
</linearGradient>
<linearGradient id="paint13_linear_2302_2074" x1="39.8952" y1="28.6242" x2="71.6064" y2="42.4933" gradientUnits="userSpaceOnUse">
<stop stop-color="#00DC9C"/>
<stop offset="1" stop-color="#00D3DC"/>
</linearGradient>
<linearGradient id="paint14_linear_2302_2074" x1="39.4731" y1="30.9361" x2="71.196" y2="44.7651" gradientUnits="userSpaceOnUse">
<stop stop-color="#00DC9C"/>
<stop offset="1" stop-color="#00D3DC"/>
</linearGradient>
<linearGradient id="paint15_linear_2302_2074" x1="39.6463" y1="29.413" x2="71.3691" y2="43.242" gradientUnits="userSpaceOnUse">
<stop stop-color="#00DC9C"/>
<stop offset="1" stop-color="#00D3DC"/>
</linearGradient>
<linearGradient id="paint16_linear_2302_2074" x1="44.6131" y1="21.8243" x2="76.3328" y2="35.6498" gradientUnits="userSpaceOnUse">
<stop stop-color="#00DC9C"/>
<stop offset="1" stop-color="#00D3DC"/>
</linearGradient>
<linearGradient id="paint17_linear_2302_2074" x1="48.45" y1="15.4668" x2="80.1611" y2="29.3358" gradientUnits="userSpaceOnUse">
<stop stop-color="#00DC9C"/>
<stop offset="1" stop-color="#00D3DC"/>
</linearGradient>
<linearGradient id="paint18_linear_2302_2074" x1="45.933" y1="20.062" x2="77.6442" y2="33.9311" gradientUnits="userSpaceOnUse">
<stop stop-color="#00DC9C"/>
<stop offset="1" stop-color="#00D3DC"/>
</linearGradient>
<linearGradient id="paint19_linear_2302_2074" x1="45.6094" y1="19.8377" x2="77.3173" y2="33.7033" gradientUnits="userSpaceOnUse">
<stop stop-color="#00DC9C"/>
<stop offset="1" stop-color="#00D3DC"/>
</linearGradient>
<linearGradient id="paint20_linear_2302_2074" x1="43.7112" y1="24.8013" x2="75.4224" y2="38.6704" gradientUnits="userSpaceOnUse">
<stop stop-color="#00DC9C"/>
<stop offset="1" stop-color="#00D3DC"/>
</linearGradient>
<linearGradient id="paint21_linear_2302_2074" x1="42.8851" y1="24.3003" x2="74.608" y2="38.1293" gradientUnits="userSpaceOnUse">
<stop stop-color="#00DC9C"/>
<stop offset="1" stop-color="#00D3DC"/>
</linearGradient>
<linearGradient id="paint22_linear_2302_2074" x1="41.0005" y1="30.841" x2="72.7098" y2="44.7054" gradientUnits="userSpaceOnUse">
<stop stop-color="#00DC9C"/>
<stop offset="1" stop-color="#00D3DC"/>
</linearGradient>
<linearGradient id="paint23_linear_2302_2074" x1="48.4551" y1="15.4552" x2="80.1662" y2="29.3243" gradientUnits="userSpaceOnUse">
<stop stop-color="#00DC9C"/>
<stop offset="1" stop-color="#00D3DC"/>
</linearGradient>
<linearGradient id="paint24_linear_2302_2074" x1="45.6682" y1="19.8778" x2="77.376" y2="33.7435" gradientUnits="userSpaceOnUse">
<stop stop-color="#00DC9C"/>
<stop offset="1" stop-color="#00D3DC"/>
</linearGradient>
<linearGradient id="paint25_linear_2302_2074" x1="45.6791" y1="19.877" x2="77.3902" y2="33.7459" gradientUnits="userSpaceOnUse">
<stop stop-color="#00DC9C"/>
<stop offset="1" stop-color="#00D3DC"/>
</linearGradient>
<linearGradient id="paint26_linear_2302_2074" x1="42.8892" y1="24.2977" x2="74.5971" y2="38.1633" gradientUnits="userSpaceOnUse">
<stop stop-color="#00DC9C"/>
<stop offset="1" stop-color="#00D3DC"/>
</linearGradient>
<linearGradient id="paint27_linear_2302_2074" x1="40.3709" y1="29.0439" x2="72.0788" y2="42.9095" gradientUnits="userSpaceOnUse">
<stop stop-color="#00DC9C"/>
<stop offset="1" stop-color="#00D3DC"/>
</linearGradient>
<linearGradient id="paint28_linear_2302_2074" x1="48.468" y1="15.4684" x2="80.1759" y2="29.334" gradientUnits="userSpaceOnUse">
<stop stop-color="#00DC9C"/>
<stop offset="1" stop-color="#00D3DC"/>
</linearGradient>
</defs>
</svg>
