<svg width="184" height="66" viewBox="0 0 184 66" fill="none" xmlns="http://www.w3.org/2000/svg">
<path d="M36.8372 23.7344V42.2656H41.6112V32.1681H45.2709L36.8372 23.7344Z" fill="white"/>
<path d="M50.7165 23.7344V33.832H47.0569L55.4904 42.2656V23.7344H50.7165Z" fill="white"/>
<path d="M74.2604 26.4314V33.8605L64.3083 26.4314V39.1426H67.033V31.7137L76.9849 39.1426V26.4314H74.2604Z" fill="white"/>
<path d="M79.4944 39.1426V26.4314H90.5334V28.764H82.3431V31.4338H90.5334V33.7664H82.3431V36.8101H90.5334V39.1426H79.4944Z" fill="white"/>
<path d="M110.383 39.1426L104.917 26.4314H108.103L112.073 36.3286L116.062 26.4314H119.14L113.675 39.1426H110.383Z" fill="white"/>
<path d="M144.083 30.0096C143.876 29.454 143.478 28.99 142.961 28.7001C142.461 28.4339 141.767 28.3009 140.878 28.3009C139.868 28.3009 139.097 28.4255 138.564 28.6747C138.03 28.9225 137.762 29.2855 137.762 29.7598C137.748 29.9546 137.786 30.1494 137.872 30.3246C137.959 30.4998 138.09 30.6491 138.252 30.7573C138.579 30.9707 139.175 31.1428 140.041 31.2734L142.658 31.6837C144.212 31.9318 145.351 32.3677 146.076 32.9914C146.8 33.6152 147.162 34.473 147.163 35.5647C147.163 36.7993 146.638 37.7574 145.587 38.4388C144.537 39.1208 143.038 39.4618 141.092 39.4618C139.678 39.4618 138.506 39.2958 137.576 38.9639C136.644 38.6321 135.931 38.1276 135.438 37.4504C134.946 36.7736 134.652 35.9134 134.557 34.8697H137.424C137.543 35.7015 137.893 36.31 138.475 36.6954C139.056 37.0801 139.929 37.2728 141.092 37.2734C142.135 37.2734 142.923 37.133 143.45 36.8542C143.979 36.5768 144.243 36.1628 144.243 35.6175C144.25 35.415 144.206 35.214 144.114 35.0335C144.022 34.8529 143.886 34.6987 143.718 34.5852C143.368 34.3356 142.811 34.1567 142.053 34.0509L139.915 33.7483C138.183 33.5112 136.916 33.0808 136.115 32.4571C135.314 31.835 134.914 30.9596 134.913 29.831C134.901 29.1075 135.155 28.4047 135.626 27.8559C136.1 27.2977 136.791 26.8673 137.7 26.5645C138.752 26.241 139.849 26.0877 140.949 26.1106C142.682 26.1106 144.023 26.3987 144.973 26.9749C145.921 27.5495 146.544 28.4541 146.842 29.6886L144.083 30.0096Z" fill="white"/>
<path d="M133.543 32.7871C133.543 34.1276 133.25 35.2996 132.663 36.3032C132.064 37.3163 131.178 38.1284 130.117 38.6359C129.008 39.1864 127.687 39.4617 126.156 39.4618C124.684 39.4618 123.399 39.1979 122.302 38.6702C121.239 38.1748 120.347 37.376 119.738 36.3744C119.127 35.3712 118.821 34.1754 118.82 32.7871C118.82 31.4448 119.115 30.2728 119.703 29.271C120.301 28.2579 121.188 27.4458 122.249 26.9383C123.358 26.386 124.679 26.1101 126.21 26.1106C127.68 26.1106 128.965 26.375 130.064 26.9038C131.126 27.3999 132.018 28.1986 132.628 29.1999C133.239 30.2031 133.544 31.3988 133.543 32.7871V32.7871ZM130.589 32.7871C130.589 31.4101 130.203 30.342 129.431 29.5828C128.659 28.8222 127.574 28.4423 126.174 28.4431C124.786 28.4431 123.706 28.8261 122.933 29.5919C122.162 30.3561 121.776 31.4212 121.777 32.7871C121.777 34.1641 122.162 35.2322 122.933 35.9914C123.704 36.75 124.791 37.1299 126.192 37.1311C127.58 37.1311 128.659 36.7481 129.431 35.9821C130.202 35.2162 130.588 34.1513 130.589 32.7871" fill="white"/>
<path d="M102.076 39.1428L99.2984 34.3886H95.5779V39.1428H92.8369V26.4316H99.085C102.634 26.4316 104.409 27.755 104.408 30.4018C104.408 31.2552 104.21 31.9671 103.812 32.5375C103.415 33.1082 102.806 33.5531 101.986 33.8724L105.191 39.1428H102.076ZM98.8715 32.1999C99.8089 32.1999 100.5 32.054 100.945 31.7623C101.39 31.4723 101.613 31.0126 101.613 30.3835C101.613 29.7544 101.402 29.3034 100.982 29.0303C100.56 28.7568 99.8691 28.6206 98.9081 28.6219H95.5779V32.1999H98.8715Z" fill="white"/>
</svg>
