<svg width="184" height="66" viewBox="0 0 184 66" fill="none" xmlns="http://www.w3.org/2000/svg">
<path d="M71.6061 20.035C68.1508 16.5648 63.5539 14.6719 58.6564 14.6719C48.5611 14.6719 40.3436 22.8894 40.3436 32.9997C40.3436 43.1101 48.5611 51.3276 58.6564 51.3276C63.5539 51.3276 68.1508 49.4197 71.6061 45.9494C75.0613 42.4792 76.9692 37.8822 76.9692 32.9847C76.9692 28.0873 75.0613 23.5053 71.6061 20.035ZM58.6564 50.0657C49.2521 50.0657 41.6055 42.404 41.6055 32.9997C41.6055 23.5954 49.2521 15.9338 58.6564 15.9338C68.0607 15.9338 75.7073 23.5954 75.7073 32.9997C75.7073 42.404 68.0607 50.0657 58.6564 50.0657Z" fill="#EFF4FD"/>
<path d="M64.6647 33.4359C63.4929 32.3843 61.9606 31.6932 60.4734 31.0022H60.4583C57.8293 29.8004 55.5609 28.7638 55.7261 26.3151C55.8013 25.3837 56.4773 24.8128 57.0331 24.5123C57.6641 24.1668 58.4903 23.9565 59.2565 23.9565C59.3466 23.9565 59.4368 23.9565 59.5269 23.9565C61.7653 24.1067 63.538 25.0532 65.2656 27.0211L65.3708 27.1413L65.491 27.0362L66.167 26.4503L66.2872 26.3451L66.182 26.2249C64.2591 24.0166 62.1709 22.9049 59.6171 22.7396C59.5119 22.7246 59.3917 22.7246 59.2565 22.7246C59.1814 22.7246 59.0913 22.7246 59.0011 22.7246H58.896C57.2134 22.7246 55.3806 23.2805 53.9835 24.1968C52.316 25.2935 51.3845 26.8108 51.3545 28.4784C51.2944 32.5045 54.5694 33.8565 57.4838 35.0584L57.5139 35.0734C60.0828 36.14 62.2911 37.0564 62.2461 39.5051C62.231 41.1276 59.9025 42.0139 58.3101 42.0139H58.25H58.0997C55.7261 41.9388 53.6079 40.9173 51.8052 38.9793L51.7 38.8591L51.5798 38.9643L50.9188 39.5802L50.7986 39.6854L50.9038 39.8056C52.9619 42.0139 55.4858 43.2007 58.235 43.2308H58.3551C60.1278 43.2308 62.0508 42.7501 63.508 41.9539C65.3257 40.9623 66.3924 39.5051 66.4975 37.8827C66.6177 36.11 66.0168 34.6377 64.6647 33.4359ZM56.1618 29.9356C57.2134 30.8369 58.6255 31.4679 59.9926 32.0838L60.0227 32.0989C61.4649 32.7599 62.847 33.3908 63.8385 34.2772C64.9351 35.2386 65.4009 36.3654 65.3107 37.8075C65.2206 39.2347 64.154 40.1812 63.1925 40.767C63.3728 40.3915 63.4779 39.9708 63.4929 39.5352C63.508 38.0479 62.9521 36.8761 61.7503 35.9147C60.6987 35.0734 59.3166 34.5025 57.9796 33.9467C55.1853 32.8049 52.5563 31.7083 52.6014 28.5084C52.6164 27.2765 53.3525 26.1047 54.6896 25.2334C54.7346 25.2034 54.7797 25.1733 54.8248 25.1433C54.6745 25.4888 54.5844 25.8494 54.5544 26.2249C54.4342 27.6972 54.96 28.914 56.1618 29.9356Z" fill="#EFF4FD"/>
<path d="M88.4471 30.9872C87.7861 30.9872 87.1251 30.882 86.4791 30.6717C85.8481 30.4614 85.2923 30.1459 84.8416 29.7553L85.6078 28.4784C86.0885 28.8239 86.5692 29.0793 87.035 29.2595C87.5007 29.4248 87.9514 29.53 88.4171 29.53C88.8227 29.53 89.1382 29.4548 89.3785 29.3046C89.6189 29.1544 89.7241 28.9441 89.7241 28.6436C89.7241 28.3582 89.5888 28.1479 89.3184 28.0277C89.048 27.9075 88.5973 27.7422 87.9814 27.562C87.4556 27.4117 87.0199 27.2765 86.6594 27.1564C86.2988 27.0211 85.9984 26.8709 85.773 26.7057C85.5477 26.5404 85.3824 26.3451 85.2923 26.1348C85.1871 25.9095 85.1421 25.6541 85.1421 25.3536C85.1421 24.948 85.2172 24.5874 85.3824 24.2569C85.5327 23.9415 85.758 23.656 86.0434 23.4307C86.3289 23.2053 86.6594 23.0251 87.035 22.9049C87.4105 22.7847 87.8312 22.7246 88.2819 22.7246C88.8828 22.7246 89.4386 22.7997 89.9644 22.98C90.4902 23.1452 90.971 23.4307 91.3916 23.8213L90.5353 25.0381C90.1297 24.7377 89.7391 24.5123 89.3635 24.3771C88.9729 24.2269 88.5973 24.1668 88.2368 24.1668C87.8913 24.1668 87.6058 24.2419 87.3655 24.3771C87.1251 24.5274 87.0199 24.7527 87.0199 25.0682C87.0199 25.2184 87.05 25.3236 87.095 25.4137C87.1551 25.5038 87.2453 25.579 87.3655 25.6541C87.4856 25.7292 87.6509 25.7893 87.8462 25.8494C88.0415 25.9095 88.2969 25.9846 88.5823 26.0447C89.1231 26.1949 89.6039 26.3301 89.9945 26.4803C90.3851 26.6306 90.7005 26.7808 90.9559 26.9611C91.1963 27.1413 91.3916 27.3516 91.4968 27.592C91.6169 27.8324 91.662 28.1178 91.662 28.4483C91.662 29.2295 91.3616 29.8454 90.7907 30.2961C90.2198 30.7769 89.4386 30.9872 88.4471 30.9872Z" fill="white"/>
<path d="M101.502 27.3976H95.1323C95.2375 27.9985 95.538 28.4642 96.0037 28.8248C96.4844 29.1703 97.0703 29.3506 97.7613 29.3506C98.6627 29.3506 99.3838 29.0501 99.9547 28.4642L100.976 29.636C100.616 30.0717 100.15 30.4022 99.5941 30.6275C99.0383 30.8529 98.4073 30.958 97.7163 30.958C96.8149 30.958 96.0337 30.7928 95.3577 30.4322C94.6817 30.0717 94.1558 29.5759 93.7803 28.945C93.4047 28.314 93.2244 27.5929 93.2244 26.7967C93.2244 26.0005 93.4047 25.2944 93.7653 24.6635C94.1258 24.0325 94.6216 23.5367 95.2675 23.1762C95.8985 22.8156 96.6346 22.6504 97.4158 22.6504C98.212 22.6504 98.9181 22.8156 99.534 23.1762C100.15 23.5217 100.631 24.0175 100.991 24.6484C101.337 25.2794 101.517 26.0155 101.517 26.8418C101.532 26.9619 101.517 27.1422 101.502 27.3976ZM95.8835 24.6935C95.4628 25.054 95.2075 25.5348 95.1173 26.1207H99.7143C99.6392 25.5348 99.3838 25.054 98.9632 24.6935C98.5425 24.3329 98.0318 24.1377 97.4158 24.1377C96.8149 24.1527 96.3041 24.3329 95.8835 24.6935Z" fill="white"/>
<path d="M105.408 30.4166C104.747 30.056 104.222 29.5603 103.846 28.9293C103.471 28.2984 103.275 27.5773 103.275 26.7811C103.275 25.9849 103.471 25.2638 103.846 24.6328C104.222 24.0018 104.747 23.5061 105.408 23.1606C106.069 22.8 106.836 22.6348 107.677 22.6348C108.473 22.6348 109.179 22.8 109.78 23.1155C110.381 23.446 110.847 23.9117 111.147 24.5126L109.69 25.3689C109.45 24.9934 109.164 24.7079 108.819 24.5276C108.473 24.3323 108.083 24.2422 107.662 24.2422C106.956 24.2422 106.37 24.4676 105.904 24.9333C105.438 25.399 105.198 26.0149 105.198 26.7811C105.198 27.5472 105.423 28.1632 105.889 28.6289C106.355 29.0946 106.941 29.3199 107.662 29.3199C108.067 29.3199 108.458 29.2298 108.819 29.0345C109.164 28.8392 109.45 28.5688 109.69 28.1932L111.147 29.0495C110.832 29.6655 110.366 30.1312 109.765 30.4617C109.164 30.7922 108.473 30.9574 107.677 30.9574C106.821 30.9424 106.084 30.7771 105.408 30.4166Z" fill="white"/>
<path d="M118.072 22.6348V24.4375C117.907 24.4075 117.757 24.3924 117.636 24.3924C116.9 24.3924 116.314 24.6178 115.909 25.0384C115.488 25.4741 115.293 26.09 115.293 26.9013V30.8372H113.37V22.7099H115.173V23.8967C115.729 23.0554 116.69 22.6348 118.072 22.6348Z" fill="white"/>
<path d="M127.672 27.3976H121.302C121.407 27.9985 121.708 28.4642 122.174 28.8248C122.654 29.1703 123.24 29.3506 123.931 29.3506C124.833 29.3506 125.554 29.0501 126.125 28.4642L127.146 29.636C126.786 30.0717 126.32 30.4022 125.764 30.6275C125.208 30.8529 124.577 30.958 123.886 30.958C122.985 30.958 122.204 30.7928 121.528 30.4322C120.852 30.0717 120.326 29.5759 119.95 28.945C119.575 28.314 119.394 27.5929 119.394 26.7967C119.394 26.0005 119.575 25.2944 119.935 24.6635C120.296 24.0325 120.791 23.5367 121.437 23.1762C122.068 22.8156 122.804 22.6504 123.586 22.6504C124.382 22.6504 125.088 22.8156 125.704 23.1762C126.32 23.5217 126.801 24.0175 127.161 24.6484C127.507 25.2794 127.687 26.0155 127.687 26.8418C127.717 26.9619 127.702 27.1422 127.672 27.3976ZM122.068 24.6935C121.648 25.054 121.392 25.5348 121.302 26.1207H125.899C125.824 25.5348 125.569 25.054 125.148 24.6935C124.727 24.3329 124.217 24.1377 123.601 24.1377C123 24.1527 122.489 24.3329 122.068 24.6935Z" fill="white"/>
<path d="M135.003 30.4019C134.778 30.5822 134.507 30.7174 134.192 30.8075C133.876 30.8977 133.531 30.9427 133.17 30.9427C132.269 30.9427 131.593 30.7024 131.112 30.2366C130.631 29.7709 130.376 29.0949 130.376 28.1935V24.2876H129.039V22.7853H130.376V20.9375H132.269V22.7853H134.447V24.3026H132.269V28.1635C132.269 28.5541 132.374 28.8545 132.569 29.0649C132.764 29.2752 133.05 29.3803 133.41 29.3803C133.846 29.3803 134.192 29.2752 134.477 29.0498L135.003 30.4019Z" fill="white"/>
<path d="M91.542 36.0953C92.143 36.6812 92.4284 37.5225 92.4284 38.6492V43.2913H91.3467V38.7544C91.3467 37.9281 91.1364 37.2972 90.7308 36.8465C90.3102 36.4108 89.7243 36.1855 88.9431 36.1855C88.0868 36.1855 87.3957 36.4409 86.9 36.9516C86.4042 37.4624 86.1488 38.1685 86.1488 39.0699V43.2612H85.0672V35.2691H86.1038V36.7413C86.4042 36.2606 86.8099 35.87 87.3357 35.6146C87.8614 35.3442 88.4624 35.209 89.1534 35.209C90.1449 35.224 90.9411 35.5094 91.542 36.0953Z" fill="white"/>
<path d="M102.238 39.6101H95.5528C95.6129 40.4363 95.9434 41.1124 96.5142 41.6231C97.0851 42.1339 97.8212 42.3893 98.7076 42.3893C99.2033 42.3893 99.654 42.2992 100.075 42.1189C100.48 41.9536 100.856 41.6832 101.156 41.3377L101.772 42.0438C101.412 42.4794 100.976 42.7949 100.435 43.0203C99.9094 43.2456 99.3235 43.3508 98.6775 43.3508C97.8513 43.3508 97.1302 43.1855 96.4992 42.825C95.8683 42.4794 95.3725 41.9987 95.0119 41.3678C94.6514 40.7518 94.4861 40.0457 94.4861 39.2646C94.4861 38.4834 94.6514 37.7773 94.9969 37.1614C95.3274 36.5454 95.7931 36.0647 96.394 35.7192C96.995 35.3736 97.656 35.1934 98.3921 35.1934C99.1282 35.1934 99.8042 35.3586 100.39 35.7192C100.976 36.0647 101.442 36.5454 101.772 37.1463C102.103 37.7623 102.268 38.4683 102.268 39.2495L102.238 39.6101ZM96.4391 36.8909C95.9133 37.3867 95.6129 38.0177 95.5528 38.8139H101.231C101.156 38.0177 100.871 37.3867 100.345 36.8909C99.8193 36.3952 99.1733 36.1548 98.3921 36.1548C97.5959 36.1398 96.9499 36.3952 96.4391 36.8909Z" fill="white"/>
<path d="M108.308 42.797C108.112 42.9773 107.842 43.1125 107.556 43.2177C107.256 43.3228 106.941 43.3679 106.625 43.3679C105.874 43.3679 105.303 43.1726 104.897 42.752C104.492 42.3463 104.281 41.7755 104.281 41.0394V36.202H102.854V35.2856H104.281V33.543H105.363V35.2856H107.797V36.202H105.363V40.9793C105.363 41.46 105.483 41.8205 105.724 42.0609C105.964 42.3013 106.31 42.4365 106.745 42.4365C106.971 42.4365 107.181 42.4064 107.391 42.3313C107.602 42.2562 107.782 42.1661 107.932 42.0309L108.308 42.797Z" fill="white"/>
<path d="M119.545 35.3438H120.837L117.472 43.2908H116.375L114.783 39.4149L113.205 43.2908H112.108L108.728 35.3438H110.005L112.739 41.9538L114.076 38.6488L112.709 35.3438H113.806L114.783 37.8826L115.759 35.3438H116.856L115.489 38.6488L116.826 41.9538L119.545 35.3438Z" fill="white"/>
<path d="M125.163 43.3958C124.592 43.3958 124.067 43.2907 123.586 43.0653C123.105 42.84 122.7 42.5546 122.339 42.179C121.994 41.8034 121.723 41.3677 121.528 40.872C121.333 40.3762 121.227 39.8504 121.227 39.3096C121.227 38.7538 121.333 38.228 121.528 37.7322C121.723 37.2365 122.009 36.8008 122.354 36.4252C122.7 36.0497 123.12 35.7492 123.601 35.5239C124.082 35.2985 124.592 35.1934 125.163 35.1934C125.734 35.1934 126.26 35.2985 126.726 35.5239C127.206 35.7492 127.627 36.0497 127.973 36.4252C128.318 36.8008 128.589 37.2365 128.799 37.7322C128.994 38.228 129.099 38.7538 129.099 39.3096C129.099 39.8655 128.994 40.3762 128.799 40.872C128.604 41.3677 128.333 41.8034 127.988 42.179C127.642 42.5546 127.221 42.855 126.741 43.0653C126.26 43.2756 125.734 43.3958 125.163 43.3958ZM122.279 39.3096C122.279 39.7603 122.354 40.1659 122.504 40.5565C122.655 40.9471 122.865 41.2626 123.12 41.563C123.376 41.8635 123.691 42.0738 124.037 42.2391C124.382 42.4043 124.758 42.4794 125.148 42.4794C125.539 42.4794 125.914 42.4043 126.26 42.2391C126.606 42.0738 126.921 41.8485 127.176 41.548C127.447 41.2476 127.657 40.9321 127.792 40.5265C127.943 40.1359 128.018 39.7303 128.018 39.2796C128.018 38.8439 127.943 38.4233 127.792 38.0327C127.642 37.6421 127.432 37.2966 127.176 37.0111C126.906 36.7107 126.606 36.4853 126.26 36.3201C125.914 36.1548 125.539 36.0797 125.148 36.0797C124.758 36.0797 124.382 36.1548 124.052 36.3201C123.706 36.4853 123.406 36.7257 123.135 37.0111C122.865 37.3116 122.655 37.6571 122.519 38.0327C122.369 38.4533 122.279 38.874 122.279 39.3096Z" fill="white"/>
<path d="M134.778 36.2759C134.072 36.2909 133.471 36.4862 132.946 36.8468C132.42 37.2073 132.059 37.7181 131.849 38.3491V43.2766H130.812V35.3595H131.789V37.2674C132.089 36.6515 132.48 36.1858 132.976 35.8403C133.471 35.4947 134.012 35.3145 134.568 35.3145C134.643 35.3145 134.718 35.3295 134.763 35.3295L134.778 36.2759Z" fill="white"/>
<path d="M142.53 43.2913L139.615 39.2352L137.903 40.8126V43.2913H136.866V32.1895H137.903V39.7309L142.349 35.3893H143.521L140.291 38.6192L143.656 43.2913H142.53Z" fill="white"/>
</svg>
