<svg width="184" height="66" viewBox="0 0 184 66" fill="none" xmlns="http://www.w3.org/2000/svg">
<circle cx="66.0476" cy="33" r="13.5628" fill="#1E96C8"/>
<path fill-rule="evenodd" clip-rule="evenodd" d="M67.3822 40.2074C66.789 41.2348 65.3061 41.2348 64.713 40.2074L58.6119 29.64C58.0187 28.6126 58.7602 27.3284 59.9465 27.3284H72.1487C73.335 27.3284 74.0764 28.6126 73.4833 29.64L67.3822 40.2074ZM65.3871 38.7332V28.6493H59.9465C59.777 28.6493 59.6711 28.8328 59.7558 28.9795L65.3871 38.7332ZM66.708 38.7332L72.3393 28.9795C72.424 28.8328 72.3181 28.6493 72.1487 28.6493H66.708V38.7332Z" fill="white"/>
<path d="M89.6214 40.6623H92.4674V27.7455H97.5465V25.3373H84.5422V27.7455H89.6214V40.6623Z" fill="white"/>
<path d="M106.628 40.8812C111.378 40.8812 114.881 37.5535 114.881 32.9998C114.881 28.4461 111.378 25.1184 106.628 25.1184C101.877 25.1184 98.374 28.468 98.374 32.9998C98.374 37.5316 101.877 40.8812 106.628 40.8812ZM106.628 38.3854C103.541 38.3854 101.242 36.1305 101.242 32.9998C101.242 29.8691 103.541 27.6142 106.628 27.6142C109.714 27.6142 112.013 29.8691 112.013 32.9998C112.013 36.1305 109.714 38.3854 106.628 38.3854Z" fill="white"/>
<path d="M128.691 25.3373V35.7145L120.24 25.3373H117.898V40.6623H120.722V30.2851L129.173 40.6623H131.515V25.3373H128.691Z" fill="white"/>
</svg>
