<svg width="184" height="66" viewBox="0 0 184 66" fill="none" xmlns="http://www.w3.org/2000/svg">
<g clip-path="url(#clip0_2302_2219)">
<path d="M84.6967 36.8732C83.5003 39.8564 80.5003 41.9119 77.0896 41.6209C73.4467 41.2935 70.5181 38.2375 70.286 34.5267C70.0181 30.1064 73.4646 26.4138 77.7503 26.4138C80.8931 26.4138 83.5896 28.3965 84.6967 31.1978C84.8217 31.5071 84.661 31.8527 84.3396 31.9618L83.911 32.1073C83.6253 32.1983 83.3396 32.0528 83.2146 31.7799C82.286 29.4516 79.9467 27.8508 77.286 28.0509C74.5003 28.2692 72.1967 30.5248 71.8753 33.3625C71.4824 36.9823 74.2681 40.0565 77.7324 40.0565C80.1967 40.0565 82.3039 38.5103 83.1967 36.3275C83.3039 36.0546 83.6074 35.9091 83.8931 36.0001L84.3217 36.1456C84.661 36.2184 84.8217 36.564 84.6967 36.8732ZM120.429 29.3606C118.947 27.4142 116.554 26.2137 113.893 26.432C110.215 26.723 107.268 29.7426 106.982 33.4716C106.643 37.9646 110.143 41.73 114.482 41.73C116.893 41.73 119.036 40.5658 120.411 38.765V41.1843C120.411 41.4572 120.625 41.6572 120.875 41.6572H121.518C121.786 41.6572 121.982 41.439 121.982 41.1843V28.5602C121.982 28.2874 121.768 28.0873 121.518 28.0873H120.875C120.607 28.0873 120.411 28.3056 120.411 28.5602V29.3606H120.429ZM114.5 40.1111C111.232 40.1111 108.572 37.4007 108.572 34.0719C108.572 30.7431 111.232 28.0327 114.5 28.0327C117.768 28.0327 120.429 30.7431 120.429 34.0719C120.429 37.4007 117.768 40.1111 114.5 40.1111ZM130.072 41.6572H130.715C130.982 41.6572 131.179 41.439 131.179 41.1843V28.5602C131.179 28.2874 130.965 28.0873 130.715 28.0873H130.072C129.804 28.0873 129.607 28.3056 129.607 28.5602V41.1843C129.607 41.4572 129.822 41.6572 130.072 41.6572ZM95.8931 27.0323C93.7503 26.9777 91.8217 27.96 90.5538 29.5061V24.7767C90.5538 24.5038 90.3396 24.3037 90.0896 24.3037H89.4467C89.1789 24.3037 88.9824 24.522 88.9824 24.7767V41.1843C88.9824 41.4572 89.1967 41.6572 89.4467 41.6572H90.0896C90.3574 41.6572 90.5538 41.439 90.5538 41.1843V34.0537C90.5538 31.0887 92.9288 28.5966 95.8396 28.6512C98.661 28.7058 100.947 31.0523 100.947 33.9446V41.1843C100.947 41.4572 101.161 41.6572 101.411 41.6572H102.054C102.322 41.6572 102.518 41.439 102.518 41.1843V34.0719C102.536 30.2883 99.6074 27.105 95.8931 27.0323ZM130.072 26.3592H130.715C130.982 26.3592 131.179 26.1409 131.179 25.8863V24.7949C131.179 24.522 130.965 24.3219 130.715 24.3219H130.072C129.804 24.3219 129.607 24.5402 129.607 24.7949V25.8863C129.607 26.1409 129.822 26.3592 130.072 26.3592ZM145.411 27.0504C143.268 26.9959 141.34 27.9782 140.072 29.5243V28.5602C140.072 28.2874 139.857 28.0873 139.607 28.0873H138.965C138.697 28.0873 138.5 28.3056 138.5 28.5602V41.1843C138.5 41.4572 138.715 41.6572 138.965 41.6572H139.607C139.875 41.6572 140.072 41.439 140.072 41.1843V34.0719C140.072 31.1069 142.447 28.6148 145.357 28.6694C148.179 28.724 150.465 31.0705 150.465 33.9628V41.1843C150.465 41.4572 150.679 41.6572 150.929 41.6572H151.572C151.84 41.6572 152.036 41.439 152.036 41.1843V34.0901C152.054 30.3065 149.125 27.1232 145.411 27.0504ZM65.5717 36.8004C65.6788 36.5276 65.536 36.2002 65.2503 36.1274L64.6967 35.9455C64.4467 35.8727 64.1788 36.0001 64.0896 36.2547C63.1967 38.5467 61.0538 40.0565 58.6074 40.0565C55.3574 40.0565 52.6967 37.3643 52.6967 34.0355C52.6967 33.6353 52.7324 33.217 52.8217 32.8168C53.3753 30.0337 55.8217 28.0145 58.6074 28.0145C60.8931 28.0145 62.9467 29.3788 63.9288 31.3979C64.0717 31.7072 63.911 32.071 63.5896 32.1255L58.8753 33.126C58.6074 33.1806 58.4288 33.4534 58.4824 33.7263L58.6074 34.3084C58.661 34.5812 58.9288 34.7631 59.1967 34.7086L65.6074 33.3625C65.8753 33.3079 66.0538 33.0351 66.0003 32.7622L65.9467 32.4711C65.2324 28.9604 62.1431 26.4138 58.6074 26.4138C55.0717 26.4138 51.9824 28.9786 51.2681 32.5075C51.161 33.0169 51.1074 33.5262 51.1074 34.0355C51.1074 38.2375 54.4646 41.6572 58.5896 41.6572C61.7324 41.6572 64.4646 39.7291 65.5717 36.8004Z" fill="#15BDFF"/>
<path d="M39.0624 40.9917L32.036 26.4132C31.9219 26.1806 32.0935 25.9053 32.3465 25.9053H34.7812C34.9118 25.9053 35.0342 25.9806 35.0917 26.0969L40.2231 36.6733C40.6806 37.6221 42.0039 37.6221 42.4614 36.6733L47.5764 26.1053C47.6339 25.9889 47.7563 25.9136 47.8869 25.9136H48.1891C48.369 25.9136 48.4832 26.1053 48.4019 26.2634L41.3016 40.9917C40.8441 41.9397 39.5199 41.9397 39.0624 40.9917Z" fill="url(#paint0_linear_2302_2219)"/>
<path opacity="0.1" d="M39.0619 40.9911L35.0912 26.1047C35.0337 25.98 34.9031 25.9131 34.7971 25.9131H32.3542C32.0848 25.9131 31.9296 26.1875 32.0355 26.421L39.0619 40.9911Z" fill="white"/>
<path opacity="0.1" d="M40.2236 36.6808L32.0366 26.4132C31.9388 26.1722 32.0859 25.9304 32.3142 25.9053H34.79C34.9288 25.9136 35.0347 26.0048 35.084 26.0969L40.2236 36.6808Z" fill="white"/>
<g style="mix-blend-mode:multiply" opacity="0.69">
<path d="M84.6967 36.8732C83.5003 39.8564 80.5003 41.9119 77.0896 41.6209C73.4467 41.2935 70.5181 38.2375 70.286 34.5267C70.0181 30.1064 73.4646 26.4138 77.7503 26.4138C80.8931 26.4138 83.5896 28.3965 84.6967 31.1978C84.8217 31.5071 84.661 31.8527 84.3396 31.9618L83.911 32.1073C83.6253 32.1983 83.3396 32.0528 83.2146 31.7799C82.286 29.4516 79.9467 27.8508 77.286 28.0509C74.5003 28.2692 72.1967 30.5248 71.8753 33.3625C71.4824 36.9823 74.2681 40.0565 77.7324 40.0565C80.1967 40.0565 82.3039 38.5103 83.1967 36.3275C83.3039 36.0546 83.6074 35.9091 83.8931 36.0001L84.3217 36.1456C84.661 36.2184 84.8217 36.564 84.6967 36.8732ZM120.429 29.3606C118.947 27.4142 116.554 26.2137 113.893 26.432C110.215 26.723 107.268 29.7426 106.982 33.4716C106.643 37.9646 110.143 41.73 114.482 41.73C116.893 41.73 119.036 40.5658 120.411 38.765V41.1843C120.411 41.4572 120.625 41.6572 120.875 41.6572H121.518C121.786 41.6572 121.982 41.439 121.982 41.1843V28.5602C121.982 28.2874 121.768 28.0873 121.518 28.0873H120.875C120.607 28.0873 120.411 28.3056 120.411 28.5602V29.3606H120.429ZM114.5 40.1111C111.232 40.1111 108.572 37.4007 108.572 34.0719C108.572 30.7431 111.232 28.0327 114.5 28.0327C117.768 28.0327 120.429 30.7431 120.429 34.0719C120.429 37.4007 117.768 40.1111 114.5 40.1111ZM130.072 41.6572H130.715C130.982 41.6572 131.179 41.439 131.179 41.1843V28.5602C131.179 28.2874 130.965 28.0873 130.715 28.0873H130.072C129.804 28.0873 129.607 28.3056 129.607 28.5602V41.1843C129.607 41.4572 129.822 41.6572 130.072 41.6572ZM95.8931 27.0323C93.7503 26.9777 91.8217 27.96 90.5538 29.5061V24.7767C90.5538 24.5038 90.3396 24.3037 90.0896 24.3037H89.4467C89.1789 24.3037 88.9824 24.522 88.9824 24.7767V41.1843C88.9824 41.4572 89.1967 41.6572 89.4467 41.6572H90.0896C90.3574 41.6572 90.5538 41.439 90.5538 41.1843V34.0537C90.5538 31.0887 92.9288 28.5966 95.8396 28.6512C98.661 28.7058 100.947 31.0523 100.947 33.9446V41.1843C100.947 41.4572 101.161 41.6572 101.411 41.6572H102.054C102.322 41.6572 102.518 41.439 102.518 41.1843V34.0719C102.536 30.2883 99.6074 27.105 95.8931 27.0323ZM130.072 26.3592H130.715C130.982 26.3592 131.179 26.1409 131.179 25.8863V24.7949C131.179 24.522 130.965 24.3219 130.715 24.3219H130.072C129.804 24.3219 129.607 24.5402 129.607 24.7949V25.8863C129.607 26.1409 129.822 26.3592 130.072 26.3592ZM145.411 27.0504C143.268 26.9959 141.34 27.9782 140.072 29.5243V28.5602C140.072 28.2874 139.857 28.0873 139.607 28.0873H138.965C138.697 28.0873 138.5 28.3056 138.5 28.5602V41.1843C138.5 41.4572 138.715 41.6572 138.965 41.6572H139.607C139.875 41.6572 140.072 41.439 140.072 41.1843V34.0719C140.072 31.1069 142.447 28.6148 145.357 28.6694C148.179 28.724 150.465 31.0705 150.465 33.9628V41.1843C150.465 41.4572 150.679 41.6572 150.929 41.6572H151.572C151.84 41.6572 152.036 41.439 152.036 41.1843V34.0901C152.054 30.3065 149.125 27.1232 145.411 27.0504ZM65.5717 36.8004C65.6788 36.5276 65.536 36.2002 65.2503 36.1274L64.6967 35.9455C64.4467 35.8727 64.1788 36.0001 64.0896 36.2547C63.1967 38.5467 61.0538 40.0565 58.6074 40.0565C55.3574 40.0565 52.6967 37.3643 52.6967 34.0355C52.6967 33.6353 52.7324 33.217 52.8217 32.8168C53.3753 30.0337 55.8217 28.0145 58.6074 28.0145C60.8931 28.0145 62.9467 29.3788 63.9288 31.3979C64.0717 31.7072 63.911 32.071 63.5896 32.1255L58.8753 33.126C58.6074 33.1806 58.4288 33.4534 58.4824 33.7263L58.6074 34.3084C58.661 34.5812 58.9288 34.7631 59.1967 34.7086L65.6074 33.3625C65.8753 33.3079 66.0538 33.0351 66.0003 32.7622L65.9467 32.4711C65.2324 28.9604 62.1431 26.4138 58.6074 26.4138C55.0717 26.4138 51.9824 28.9786 51.2681 32.5075C51.161 33.0169 51.1074 33.5262 51.1074 34.0355C51.1074 38.2375 54.4646 41.6572 58.5896 41.6572C61.7324 41.6572 64.4646 39.7291 65.5717 36.8004Z" fill="#15BDFF"/>
<path d="M39.0624 40.9917L32.036 26.4132C31.9219 26.1806 32.0935 25.9053 32.3465 25.9053H34.7812C34.9118 25.9053 35.0342 25.9806 35.0917 26.0969L40.2231 36.6733C40.6806 37.6221 42.0039 37.6221 42.4614 36.6733L47.5764 26.1053C47.6339 25.9889 47.7563 25.9136 47.8869 25.9136H48.1891C48.369 25.9136 48.4832 26.1053 48.4019 26.2634L41.3016 40.9917C40.8441 41.9397 39.5199 41.9397 39.0624 40.9917Z" fill="url(#paint1_linear_2302_2219)"/>
<path opacity="0.1" d="M39.0619 40.9911L35.0912 26.1047C35.0337 25.98 34.9031 25.9131 34.7971 25.9131H32.3542C32.0848 25.9131 31.9296 26.1875 32.0355 26.421L39.0619 40.9911Z" fill="white"/>
<path opacity="0.1" d="M40.2236 36.6808L32.0366 26.4132C31.9388 26.1722 32.0859 25.9304 32.3142 25.9053H34.79C34.9288 25.9136 35.0347 26.0048 35.084 26.0969L40.2236 36.6808Z" fill="white"/>
</g>
</g>
<defs>
<linearGradient id="paint0_linear_2302_2219" x1="32" y1="33.804" x2="48.4286" y2="33.804" gradientUnits="userSpaceOnUse">
<stop stop-color="#9D4ABE"/>
<stop offset="0.03" stop-color="#9055C4"/>
<stop offset="0.15" stop-color="#6B74D6"/>
<stop offset="0.26" stop-color="#4C8FE5"/>
<stop offset="0.39" stop-color="#34A3F0"/>
<stop offset="0.52" stop-color="#22B2F9"/>
<stop offset="0.66" stop-color="#18BAFD"/>
<stop offset="0.83" stop-color="#15BDFF"/>
<stop offset="1" stop-color="#28BAD5"/>
</linearGradient>
<linearGradient id="paint1_linear_2302_2219" x1="32" y1="33.804" x2="48.4286" y2="33.804" gradientUnits="userSpaceOnUse">
<stop stop-color="#9D4ABE"/>
<stop offset="0.03" stop-color="#9055C4"/>
<stop offset="0.15" stop-color="#6B74D6"/>
<stop offset="0.26" stop-color="#4C8FE5"/>
<stop offset="0.39" stop-color="#34A3F0"/>
<stop offset="0.52" stop-color="#22B2F9"/>
<stop offset="0.66" stop-color="#18BAFD"/>
<stop offset="0.83" stop-color="#15BDFF"/>
<stop offset="1" stop-color="#28BAD5"/>
</linearGradient>
<clipPath id="clip0_2302_2219">
<rect width="120" height="17.4627" fill="white" transform="translate(32 24.2686)"/>
</clipPath>
</defs>
</svg>
