<svg width="184" height="66" viewBox="0 0 184 66" fill="none" xmlns="http://www.w3.org/2000/svg">
<path d="M82.9092 24.9952L78.0574 37.5846L73.2565 24.9952V24.9697H69.4772L69.5027 24.9952L76.3975 41.8492V41.8747H79.7938V41.8492L86.6886 24.9952L86.7141 24.9697L82.9092 24.9952ZM152.138 36.8185C152.138 38.0187 151.806 39.0657 151.117 39.9084C150.453 40.7256 149.559 41.364 148.563 41.696C147.465 42.079 146.29 42.2578 145.116 42.2322C141.413 42.2322 138.961 40.8277 137.863 38.0698L137.812 37.9677V37.9421H137.838L140.621 36.4866H140.647V36.5121L140.698 36.6398C141.004 37.4569 141.617 38.1209 142.383 38.5295C143.251 38.9636 144.196 39.1934 145.141 39.1679C146.188 39.1679 147.056 38.9636 147.746 38.5805C148.41 38.1975 148.742 37.6357 148.742 36.8441C148.742 35.5928 147.516 34.8267 145.09 34.5713C144.273 34.4947 143.43 34.3415 142.639 34.1372C141.924 33.9585 141.26 33.6776 140.596 33.3201C139.932 32.9626 139.395 32.4263 139.063 31.7624C138.706 31.124 138.553 30.3323 138.553 29.413C138.553 28.315 138.885 27.3701 139.574 26.5785C140.213 25.8124 141.055 25.2506 142 24.9442C142.971 24.6377 143.992 24.459 145.039 24.459C148.308 24.459 150.504 25.5826 151.602 27.8298L151.653 27.9319V27.9575H151.627L148.972 29.3364H148.946V29.3109L148.895 29.2087C148.614 28.7235 148.129 28.315 147.439 27.9575C146.724 27.5999 145.958 27.4212 145.167 27.4212C144.094 27.4212 143.277 27.6255 142.741 28.0085C142.204 28.3916 141.949 28.8768 141.949 29.4641C141.949 29.6684 141.975 29.8471 142.077 30.0259C142.153 30.2046 142.281 30.3579 142.434 30.46C142.792 30.7409 143.2 30.9452 143.634 31.0473C144.247 31.2006 144.835 31.3027 145.448 31.3793C146.214 31.4815 146.878 31.5836 147.465 31.7113C148.078 31.839 148.691 32.0433 149.252 32.2986C149.814 32.5284 150.325 32.8349 150.785 33.2435C151.219 33.652 151.551 34.1628 151.755 34.699C152.01 35.414 152.138 36.1291 152.138 36.8185ZM102.521 24.9952L102.547 28.315H93.3791V31.8134H102.215V35.0055H93.3791V38.4273H102.547V41.7981H90.0339V24.9697H102.521V24.9952ZM129.896 25.0208L126.5 24.9952V25.0208L119.605 41.8747L119.579 41.9003H123.359V41.8747L128.211 29.2853L133.011 41.8747V41.9003H136.791L136.765 41.8747L129.896 25.0208ZM109.263 38.4529H117.664V38.6571V41.8236H105.892V24.9952H109.263V38.4529Z" fill="white"/>
<path d="M51.3716 29.8973L46.0601 39.2692L40.7486 29.8973H51.3716ZM56.6832 26.7564H35.4115L46.0601 45.5L56.6832 26.7564ZM31.8619 20.5L33.6239 23.6154H58.4452L60.2072 20.5H31.8619Z" fill="#1D22FF"/>
</svg>
