<svg width="341" height="42" viewBox="0 0 341 42" fill="none" xmlns="http://www.w3.org/2000/svg">
<g opacity="0.7">
<path d="M146.928 7.33046H145.909L148.199 0.966126H149.308L151.599 7.33046H150.579L148.78 2.12215H148.73L146.928 7.33046ZM147.099 4.83818H150.405V5.64615H147.099V4.83818Z" fill="white"/>
<path d="M155.681 5.35093V2.55721H156.614V7.33046H155.7V6.50384H155.65C155.54 6.75866 155.364 6.97101 155.122 7.1409C154.882 7.30871 154.582 7.39261 154.224 7.39261C153.917 7.39261 153.646 7.32528 153.41 7.19062C153.176 7.05388 152.991 6.85189 152.857 6.58464C152.724 6.31739 152.658 5.98695 152.658 5.59332V2.55721H153.587V5.48145C153.587 5.80671 153.677 6.06567 153.857 6.25834C154.037 6.45101 154.272 6.54735 154.56 6.54735C154.734 6.54735 154.907 6.50384 155.079 6.41683C155.253 6.32982 155.397 6.19826 155.51 6.02217C155.626 5.84607 155.683 5.62232 155.681 5.35093Z" fill="white"/>
<path d="M159.864 7.42369C159.478 7.42369 159.134 7.32528 158.832 7.12847C158.532 6.92958 158.295 6.64679 158.123 6.2801C157.954 5.91133 157.869 5.46902 157.869 4.95316C157.869 4.4373 157.955 3.99602 158.126 3.62933C158.301 3.26263 158.539 2.98191 158.841 2.78717C159.144 2.59243 159.487 2.49506 159.87 2.49506C160.166 2.49506 160.404 2.54478 160.585 2.64422C160.767 2.74159 160.908 2.85554 161.007 2.98606C161.109 3.11657 161.187 3.23155 161.243 3.331H161.299V0.966126H162.229V7.33046H161.321V6.58775H161.243C161.187 6.68926 161.107 6.80528 161.001 6.9358C160.897 7.06631 160.754 7.18026 160.572 7.27763C160.39 7.375 160.154 7.42369 159.864 7.42369ZM160.069 6.63125C160.336 6.63125 160.562 6.56081 160.746 6.41994C160.933 6.27699 161.074 6.07914 161.169 5.82639C161.266 5.57364 161.315 5.27945 161.315 4.94383C161.315 4.61236 161.267 4.32232 161.172 4.07371C161.077 3.8251 160.937 3.6314 160.752 3.49259C160.568 3.35379 160.34 3.28438 160.069 3.28438C159.789 3.28438 159.556 3.35689 159.37 3.50191C159.183 3.64694 159.042 3.84478 158.947 4.09546C158.854 4.34614 158.807 4.62893 158.807 4.94383C158.807 5.26288 158.855 5.54981 158.95 5.80464C159.045 6.05946 159.186 6.26145 159.373 6.41061C159.561 6.55771 159.793 6.63125 160.069 6.63125Z" fill="white"/>
<path d="M163.769 7.33046V2.55721H164.698V7.33046H163.769ZM164.239 1.82071C164.077 1.82071 163.938 1.76685 163.822 1.65912C163.708 1.54932 163.651 1.4188 163.651 1.26756C163.651 1.11425 163.708 0.983735 163.822 0.876005C163.938 0.766204 164.077 0.711304 164.239 0.711304C164.4 0.711304 164.538 0.766204 164.652 0.876005C164.768 0.983735 164.826 1.11425 164.826 1.26756C164.826 1.4188 164.768 1.54932 164.652 1.65912C164.538 1.76685 164.4 1.82071 164.239 1.82071Z" fill="white"/>
<path d="M168.391 2.55721V3.30303H165.784V2.55721H168.391ZM166.483 1.41362H167.412V5.92894C167.412 6.10918 167.439 6.24488 167.493 6.33603C167.547 6.42512 167.616 6.48623 167.701 6.51938C167.788 6.55046 167.883 6.56599 167.984 6.56599C168.059 6.56599 168.124 6.56081 168.18 6.55046C168.236 6.5401 168.279 6.53181 168.311 6.52559L168.478 7.29317C168.424 7.31389 168.348 7.3346 168.248 7.35532C168.149 7.37811 168.025 7.39054 167.875 7.39261C167.631 7.39675 167.403 7.35325 167.192 7.26209C166.98 7.17094 166.81 7.03006 166.679 6.83946C166.549 6.64886 166.483 6.40958 166.483 6.12161V1.41362Z" fill="white"/>
<path d="M171.64 7.42679C171.169 7.42679 170.764 7.32632 170.425 7.12536C170.087 6.92233 169.826 6.63747 169.642 6.27077C169.459 5.90201 169.368 5.47005 169.368 4.97491C169.368 4.48598 169.459 4.05506 169.642 3.68215C169.826 3.30924 170.083 3.01817 170.412 2.80892C170.744 2.59968 171.131 2.49506 171.574 2.49506C171.844 2.49506 172.105 2.5396 172.358 2.62868C172.61 2.71777 172.837 2.85761 173.038 3.04821C173.239 3.23881 173.398 3.48638 173.514 3.79092C173.63 4.09339 173.688 4.46112 173.688 4.89411V5.22352H169.893V4.52742H172.777C172.777 4.28295 172.727 4.06646 172.628 3.87793C172.529 3.68733 172.389 3.53713 172.208 3.42733C172.03 3.31753 171.821 3.26263 171.581 3.26263C171.32 3.26263 171.092 3.32685 170.897 3.4553C170.704 3.58168 170.555 3.74741 170.45 3.95251C170.346 4.15554 170.294 4.37618 170.294 4.61443V5.15826C170.294 5.4773 170.35 5.7487 170.462 5.97244C170.576 6.19619 170.734 6.36711 170.937 6.4852C171.14 6.60121 171.378 6.65922 171.649 6.65922C171.825 6.65922 171.986 6.63436 172.131 6.58464C172.276 6.53285 172.401 6.45619 172.507 6.35468C172.612 6.25316 172.693 6.12782 172.749 5.97866L173.629 6.13715C173.558 6.39611 173.432 6.62297 173.249 6.81771C173.069 7.01038 172.842 7.16058 172.569 7.26831C172.298 7.37397 171.988 7.42679 171.64 7.42679Z" fill="white"/>
<path d="M176.72 7.42369C176.335 7.42369 175.991 7.32528 175.688 7.12847C175.388 6.92958 175.152 6.64679 174.98 6.2801C174.81 5.91133 174.725 5.46902 174.725 4.95316C174.725 4.4373 174.811 3.99602 174.983 3.62933C175.157 3.26263 175.395 2.98191 175.698 2.78717C176 2.59243 176.343 2.49506 176.726 2.49506C177.023 2.49506 177.261 2.54478 177.441 2.64422C177.623 2.74159 177.764 2.85554 177.864 2.98606C177.965 3.11657 178.044 3.23155 178.1 3.331H178.156V0.966126H179.085V7.33046H178.178V6.58775H178.1C178.044 6.68926 177.963 6.80528 177.857 6.9358C177.754 7.06631 177.611 7.18026 177.429 7.27763C177.246 7.375 177.01 7.42369 176.72 7.42369ZM176.925 6.63125C177.192 6.63125 177.418 6.56081 177.603 6.41994C177.789 6.27699 177.93 6.07914 178.025 5.82639C178.123 5.57364 178.171 5.27945 178.171 4.94383C178.171 4.61236 178.124 4.32232 178.028 4.07371C177.933 3.8251 177.793 3.6314 177.609 3.49259C177.424 3.35379 177.197 3.28438 176.925 3.28438C176.646 3.28438 176.412 3.35689 176.226 3.50191C176.04 3.64694 175.899 3.84478 175.803 4.09546C175.71 4.34614 175.664 4.62893 175.664 4.94383C175.664 5.26288 175.711 5.54981 175.806 5.80464C175.902 6.05946 176.043 6.26145 176.229 6.41061C176.418 6.55771 176.65 6.63125 176.925 6.63125Z" fill="white"/>
<path d="M183.231 7.33046V0.966126H184.16V3.331H184.216C184.27 3.23155 184.348 3.11657 184.449 2.98606C184.551 2.85554 184.692 2.74159 184.872 2.64422C185.052 2.54478 185.29 2.49506 185.586 2.49506C185.972 2.49506 186.316 2.59243 186.618 2.78717C186.921 2.98191 187.158 3.26263 187.33 3.62933C187.504 3.99602 187.591 4.4373 187.591 4.95316C187.591 5.46902 187.505 5.91133 187.333 6.2801C187.161 6.64679 186.925 6.92958 186.624 7.12847C186.324 7.32528 185.981 7.42369 185.596 7.42369C185.306 7.42369 185.069 7.375 184.884 7.27763C184.702 7.18026 184.559 7.06631 184.455 6.9358C184.352 6.80528 184.272 6.68926 184.216 6.58775H184.138V7.33046H183.231ZM184.141 4.94383C184.141 5.27945 184.19 5.57364 184.288 5.82639C184.385 6.07914 184.526 6.27699 184.71 6.41994C184.895 6.56081 185.12 6.63125 185.388 6.63125C185.665 6.63125 185.897 6.55771 186.084 6.41061C186.27 6.26145 186.411 6.05946 186.506 5.80464C186.604 5.54981 186.652 5.26288 186.652 4.94383C186.652 4.62893 186.605 4.34614 186.509 4.09546C186.416 3.84478 186.275 3.64694 186.087 3.50191C185.9 3.35689 185.667 3.28438 185.388 3.28438C185.118 3.28438 184.89 3.35379 184.704 3.49259C184.52 3.6314 184.38 3.8251 184.284 4.07371C184.189 4.32232 184.141 4.61236 184.141 4.94383Z" fill="white"/>
<path d="M189.274 9.12043C189.135 9.12043 189.009 9.10903 188.895 9.08624C188.781 9.06553 188.696 9.04274 188.64 9.01788L188.864 8.25652C189.034 8.3021 189.185 8.32178 189.317 8.31556C189.45 8.30935 189.567 8.25963 189.669 8.1664C189.772 8.07317 189.863 7.9209 189.942 7.70958L190.057 7.39261L188.311 2.55721H189.305L190.514 6.26145H190.564L191.772 2.55721H192.77L190.803 7.96751C190.712 8.21612 190.596 8.4264 190.455 8.59835C190.314 8.77238 190.146 8.9029 189.951 8.98991C189.757 9.07692 189.531 9.12043 189.274 9.12043Z" fill="white"/>
<path d="M194.47 7.3895C194.3 7.3895 194.154 7.32942 194.032 7.20926C193.91 7.08703 193.848 6.93994 193.848 6.76799C193.848 6.5981 193.91 6.45308 194.032 6.33292C194.154 6.21069 194.3 6.14958 194.47 6.14958C194.64 6.14958 194.786 6.21069 194.908 6.33292C195.03 6.45308 195.091 6.5981 195.091 6.76799C195.091 6.88193 195.062 6.98655 195.004 7.08185C194.949 7.17508 194.874 7.24966 194.781 7.3056C194.688 7.36153 194.584 7.3895 194.47 7.3895ZM194.47 3.91522C194.3 3.91522 194.154 3.85411 194.032 3.73188C193.91 3.60964 193.848 3.46359 193.848 3.29371C193.848 3.12383 193.91 2.9788 194.032 2.85864C194.154 2.73641 194.3 2.6753 194.47 2.6753C194.64 2.6753 194.786 2.73641 194.908 2.85864C195.03 2.9788 195.091 3.12383 195.091 3.29371C195.091 3.40765 195.062 3.51227 195.004 3.60757C194.949 3.7008 194.874 3.77538 194.781 3.83132C194.688 3.88726 194.584 3.91522 194.47 3.91522Z" fill="white"/>
<path d="M145.579 19.2836V22.3061L142.525 19.2836H140.384V26.0318H142.525V22.9778L145.6 26.0318H147.72V19.2836H145.579Z" fill="white"/>
<path d="M108.857 26.0318H114.525V24.1532H108.857V21.1936H114.535V19.2836H108.857H106.968H106.748V26.0318H106.968H108.857Z" fill="white"/>
<path d="M131.526 26.0318H136.753V24.1532H131.526V23.597H136.753V21.7079H131.526V21.1727H136.753V19.2836H131.526H129.585H129.406V26.0318H129.627H131.526Z" fill="white"/>
<path d="M97.8376 24.5205H100.986V26.0318H103.096V19.2836H102.781H100.986H97.8376H96.1689H95.7281V22.642V24.5205V26.0318H97.8376V24.5205ZM97.8376 21.1622H100.986V22.642H97.8376V21.1622Z" fill="white"/>
<path d="M86.8705 23.6389H89.956V26.0318H92.076V19.2835H89.956V21.6344H86.8705V19.2835H84.7505V26.0318H86.8705V23.6389Z" fill="white"/>
<path d="M120.307 23.618H123.582L125.681 21.6134H125.702V19.2836H123.582V21.6134H120.307V19.2836H118.187V26.0318H120.307V23.618Z" fill="white"/>
<path d="M125.702 23.618H123.582V26.0318H125.702V23.618Z" fill="white"/>
<g clip-path="url(#clip0_4706_11071)">
<path d="M214.041 17.258H212.604V25.1499L213.813 26.3224L216.351 26.3828V24.8116H214.041V20.5264H215.807V19.1702H214.041V17.258Z" fill="white"/>
<path d="M207.286 20.4833L208.576 19.1313H211.033V20.4833H208.576V26.3828H207.286V20.4833Z" fill="white"/>
<path d="M188.432 26.3828H186.74V20.4607L188.13 19.1313H191.152L191.937 19.8564L192.663 19.1313H195.321L196.47 20.4607V26.3828H194.898V20.4607H192.421V26.3828H190.85V20.4607H188.432V26.3828Z" fill="white"/>
<path d="M179.368 20.642H183.357L183.876 21.065L184.747 20.1586L183.659 19.1917H179.18L177.858 20.4607V22.0923L179.18 23.4822H183.659V24.9929H179.731L179.006 24.3886L178.099 25.3555L179.18 26.2619H183.876L185.169 25.0533V23.4822L183.876 22.0923H179.368V20.642Z" fill="white"/>
<path fill-rule="evenodd" clip-rule="evenodd" d="M198.343 20.1586L199.31 21.1859L199.794 20.7024H203.48V22.0319H199.31L197.981 23.2405V24.9325L199.431 26.3828H202.755L203.903 25.5972L204.507 26.2619H205.776V24.9929H205.051V20.5212L203.842 19.1313H199.31L198.343 20.1586ZM199.612 23.4822H203.48V24.5095L202.755 24.9325H199.612V23.4822Z" fill="white"/>
<path d="M230.87 17.258H229.434V25.1499L230.642 26.3224L233.18 26.3828V24.8116H230.87V20.5265H232.637V19.1702H230.87V17.258Z" fill="white"/>
<path d="M245.132 17.258H243.695V25.1499L244.904 26.3224L247.442 26.3828V24.8116H245.132V20.5265H246.898V19.1702H245.132V17.258Z" fill="white"/>
<path d="M222.243 20.7629H226.231L226.751 21.1859L227.621 20.2794L226.533 19.3126H222.054L220.732 20.5816V22.2132L222.054 23.603H226.533V25.1138H222.605L221.88 24.5095L220.974 25.4763L222.054 26.3828H226.751L228.044 25.1742V23.603L226.751 22.2132H222.243V20.7629Z" fill="white"/>
<path fill-rule="evenodd" clip-rule="evenodd" d="M255.902 25.4763L254.875 24.4491L254.271 25.0533H250.343V23.5426H254.452L255.781 22.334V20.642L254.331 19.1917H250.343L248.771 20.7629V25.0533L250.101 26.4432H254.875L255.902 25.4763ZM254.271 20.7629H250.403V22.334H254.271V20.7629Z" fill="white"/>
<path fill-rule="evenodd" clip-rule="evenodd" d="M234.872 20.219L235.839 21.2463L236.323 20.7629H240.009V22.0923H235.839L234.51 23.3009V24.9929L235.96 26.4432H239.284L240.432 25.6576L241.036 26.3224H242.305V25.0533H241.58V20.5816L240.372 19.1917H235.839L234.872 20.219ZM236.141 23.5426H240.009V24.5699L239.284 24.9929H236.141V23.5426Z" fill="white"/>
<path d="M174.182 24.2999L174.183 22.1497L172.543 21.2347L170.607 22.3047L168.983 25.2145L169.059 27.4775L170.699 28.3926L172.661 27.0244L174.182 24.2999Z" fill="white"/>
<path d="M163.271 24.2999L163.269 22.1497L164.909 21.2347L166.845 22.3047L168.469 25.2145L168.393 27.4775L166.753 28.3926L164.791 27.0244L163.271 24.2999Z" fill="white"/>
<path d="M167.044 21.7646L165.166 20.718V18.8403L167.044 17.6706H170.376L172.315 18.8403V20.718L170.164 21.7646H167.044Z" fill="white"/>
</g>
</g>
<defs>
<clipPath id="clip0_4706_11071">
<rect width="93.7633" height="11.0744" fill="white" transform="translate(162.486 17.1204)"/>
</clipPath>
</defs>
</svg>
