<svg width="41" height="41" viewBox="0 0 41 41" fill="none" xmlns="http://www.w3.org/2000/svg">
<ellipse cx="20.68" cy="20.701" rx="20.0878" ry="20.251" fill="#E22440" fill-opacity="0.8"/>
<path d="M25.0349 19.3029L18.7662 15.8119C18.5615 15.6964 18.3294 15.6365 18.0936 15.6383C17.8578 15.64 17.6267 15.7034 17.4238 15.822C17.2262 15.9336 17.0619 16.0949 16.9478 16.2894C16.8337 16.4839 16.7738 16.7048 16.7742 16.9296V23.9117C16.7738 24.1365 16.8337 24.3574 16.9478 24.5519C17.0619 24.7465 17.2262 24.9077 17.4238 25.0193C17.6268 25.1378 17.8579 25.2012 18.0936 25.203C18.3294 25.2048 18.5615 25.1449 18.7662 25.0295L25.0349 21.5384C25.2371 21.4279 25.4056 21.2659 25.5229 21.0693C25.6402 20.8728 25.7021 20.6488 25.7021 20.4207C25.7021 20.1925 25.6402 19.9685 25.5229 19.772C25.4056 19.5754 25.2371 19.4135 25.0349 19.3029Z" fill="white"/>
</svg>
