<svg width="131" height="39" viewBox="0 0 131 39" fill="none" xmlns="http://www.w3.org/2000/svg">
<path d="M10.1139 0H26.0818C31.6849 0 36.1957 4.85828 36.1957 10.893V28.107C36.1957 34.1417 31.6849 39 26.0818 39H10.1139C4.51082 39 0 34.1417 0 28.107V10.893C0 4.85828 4.51082 0 10.1139 0Z" fill="url(#paint0_linear_1446_1037)"/>
<path d="M26.832 26.8914C26.2459 26.8348 26.1508 27.1178 25.2875 27.1017C24.1743 27.0822 22.6962 26.9285 21.6713 26.36C20.6465 25.7917 19.655 24.6285 17.869 22.4126C17.507 20.8629 16.4696 20.184 15.6717 19.2018C13.6567 15.759 11.5316 14.6612 10.1054 14.5231C9.07238 13.551 8.42441 13.7076 9.4675 12.3624C10.1419 12.4275 9.40202 11.8577 10.2194 11.89C11.1204 11.9256 12.9013 11.7914 14.2272 12.554C15.5531 13.3165 16.5439 14.2864 18.3299 16.5023C18.8253 17.8581 19.5329 18.7576 20.5259 19.7129C22.5409 23.1558 24.6673 24.2536 26.0935 24.3918C27.3173 25.2223 27.8375 25 26.7946 26.4347L26.832 26.8914Z" fill="white" fill-opacity="0.496124"/>
<path d="M9.84448 11.8717C8.90546 11.8717 7.83332 11.879 6.90779 12.1769C6.10909 12.4327 4.92083 12.9246 4.12986 14.188C3.2443 15.6026 3.26173 17.5897 3.34648 20.21V22.2578C3.34648 23.7639 3.84651 25.0939 4.84633 25.9126C4.84767 25.9132 4.85039 25.9119 4.85175 25.9126C5.84774 26.7319 7.21733 27.0516 8.92087 27.0517C10.6 27.0517 12.0692 26.8933 13.2091 26.3944C14.6045 25.7838 16.1198 24.5006 18.0826 22.4656C19.0653 21.3202 19.7052 20.5219 20.5378 19.4793C22.8306 16.2443 25.0383 15.3556 26.4702 15.3554C27.9021 15.3551 28.406 15.4568 28.6905 15.5588C28.9672 15.6581 29.0749 15.7645 29.1523 15.898L29.1569 15.9029L29.1614 15.9078C29.2366 16.0341 29.3174 16.2892 29.3174 16.7261V17.4949H27.7244C26.3452 17.4949 25.2105 17.6261 24.2864 17.9288C23.3573 18.2329 22.5816 18.7618 22.0833 19.5385C21.5889 20.3088 21.3799 21.2705 21.3799 22.3495C21.3799 23.7704 21.8317 25.0415 22.738 25.8996L22.7426 25.9045C23.6528 26.7557 24.898 27.1282 26.3511 27.1284H26.3525C27.2915 27.1284 28.3636 27.1211 29.2892 26.8231C30.0878 26.5673 31.2761 26.0754 32.0671 24.812C32.9526 23.3974 32.9352 21.4103 32.8505 18.7901V16.7423C32.8505 15.2362 32.3504 13.9062 31.3506 13.0876C31.3493 13.0869 31.3461 13.0882 31.3438 13.0876C30.3478 12.2682 28.9782 11.9484 27.2747 11.9484C25.5955 11.9484 24.1264 12.1068 22.9864 12.6056C21.591 13.2163 20.0757 14.4995 18.1129 16.5345C17.1883 17.6421 16.5026 18.4766 15.6591 19.5208C13.3663 22.7558 11.1573 23.6445 9.72533 23.6447C8.29335 23.645 7.78943 23.5432 7.50502 23.4413C7.22824 23.342 7.1206 23.2356 7.04313 23.1021L7.03905 23.0972L7.03498 23.0923C6.95973 22.966 6.87883 22.7107 6.87883 22.2739V21.505H8.47184C9.85102 21.505 10.9858 21.3738 11.9098 21.0712C12.8389 20.7671 13.6146 20.2381 14.113 19.4615C14.6073 18.6911 14.8163 17.7295 14.8163 16.6505C14.8163 15.2296 14.3646 13.9585 13.4582 13.1003L13.4527 13.0954C12.5426 12.2443 11.2974 11.8718 9.84422 11.8716L9.84448 11.8717ZM9.41145 15.279C10.1438 15.279 10.591 15.4508 10.8575 15.6804C11.1211 15.9151 11.2341 16.1578 11.2341 16.6909C11.2341 17.1518 11.1472 17.4065 11.0438 17.5573C10.942 17.7058 10.7491 17.8646 10.3536 17.9855H10.3495C9.94277 18.1145 9.30874 18.2004 8.48628 18.2004H6.87228V16.9426C6.87228 16.3493 7.0053 16.0731 7.39453 15.7752C7.77231 15.4877 8.42828 15.2792 9.41138 15.2792L9.41145 15.279ZM27.7114 20.7993H29.3253V22.0571C29.3253 22.6504 29.1924 22.9266 28.8031 23.2245C28.4253 23.512 27.7694 23.7205 26.7863 23.7205C26.0539 23.7205 25.6067 23.5488 25.3402 23.3192C25.0766 23.0845 24.9636 22.8418 24.9636 22.3087C24.9636 21.8478 25.0506 21.5932 25.1539 21.4423C25.2558 21.2938 25.4486 21.135 25.8441 21.0141H25.8486C26.2555 20.8851 26.8895 20.7992 27.7119 20.7992L27.7114 20.7993Z" fill="white"/>
<path d="M39.8682 24.1008H42.8206V27.097H39.8682V24.1008Z" fill="#1C1A1A"/>
<path d="M56.7957 26.8143H54.7749V14.2504H49.8148V26.8143H47.8071V14.2504H45.4189V12.5261H47.8071V10.7737C47.8071 9.95401 47.8552 9.29453 47.9514 8.79517C48.0475 8.28639 48.1787 7.89535 48.345 7.62212C48.52 7.34889 48.7387 7.12277 49.0011 6.94375C49.2898 6.74589 49.6397 6.59987 50.0509 6.50566C50.4708 6.4021 51.0263 6.35034 51.7173 6.35034C52.0673 6.35034 52.3472 6.36448 52.5571 6.39274C52.7758 6.421 53.0252 6.45869 53.3051 6.50591V8.25835C53.2264 8.24923 53.0558 8.23038 52.7934 8.20176C52.5397 8.16402 52.181 8.14517 51.7173 8.14517C51.035 8.14517 50.5714 8.2441 50.3264 8.44196C50.1427 8.59274 50.0115 8.77646 49.9328 8.99314C49.8629 9.20042 49.8279 9.50659 49.8279 9.91171V12.5263H56.7956L56.7957 26.8143ZM55.7721 10.0671C55.326 10.0671 55.0111 9.97758 54.8274 9.79854C54.6524 9.6195 54.5649 9.30389 54.5649 8.85167C54.5649 8.37116 54.6524 8.01783 54.8274 7.79172C55.0023 7.5656 55.3172 7.45253 55.7721 7.45253C56.2708 7.45253 56.6076 7.57028 56.7825 7.80582C56.9313 8.0131 57.0057 8.36175 57.0057 8.85167C57.0057 9.16259 56.9708 9.40752 56.9009 9.58655C56.831 9.75611 56.7085 9.87862 56.5334 9.95403C56.3585 10.0293 56.1048 10.0669 55.7724 10.0669L55.7721 10.0671Z" fill="#1C1A1A"/>
<path d="M61.2168 12.5261H62.8702L63.0276 14.5471C63.465 13.6803 64.0424 13.0679 64.7597 12.7099C65.4771 12.3424 66.4568 12.1587 67.699 12.1587C68.8363 12.1587 69.7461 12.3566 70.4284 12.7523C71.1195 13.148 71.6225 13.7793 71.9374 14.6461C72.2523 15.5129 72.4098 16.6623 72.4098 18.0944V26.8143H70.389V18.0944C70.389 17.0957 70.2797 16.2995 70.061 15.706C69.8423 15.103 69.4924 14.6648 69.0112 14.3916C68.5388 14.1184 67.9046 13.9818 67.1085 13.9818C66.1725 13.9818 65.4202 14.1231 64.8516 14.4058C64.2917 14.6885 63.8805 15.1359 63.6181 15.7484C63.3644 16.3608 63.2376 17.1805 63.2376 18.2075V26.8143H61.2168L61.2168 12.5261Z" fill="#1C1A1A"/>
<path d="M87.107 27.1535C86.4684 27.1535 85.9523 26.9698 85.5586 26.6023C85.1737 26.2349 84.9813 25.7497 84.9813 25.1467C84.5439 25.7873 83.9271 26.282 83.1311 26.6306C82.3438 26.9698 81.434 27.1394 80.4017 27.1394C78.9233 27.1394 77.7861 26.7672 76.99 26.0228C76.194 25.2691 75.7959 24.2045 75.7959 22.8289C75.7959 21.7642 76.0015 20.9116 76.4127 20.2709C76.8238 19.6302 77.4755 19.1638 78.3678 18.8717C79.2601 18.5796 80.4498 18.4336 81.937 18.4336H84.6926V16.5257C84.6926 15.9039 84.5832 15.4092 84.3645 15.0418C84.1458 14.6649 83.8003 14.3916 83.3279 14.222C82.8555 14.0525 82.2257 13.9677 81.4384 13.9677C80.6248 13.9677 79.973 14.0478 79.4832 14.2081C78.9933 14.3684 78.6346 14.6275 78.4072 14.9854C78.1797 15.334 78.066 15.8004 78.066 16.3846H76.2421C76.2421 14.9619 76.6664 13.9114 77.5149 13.233C78.3635 12.5546 79.6713 12.2155 81.4384 12.2155C83.2317 12.2155 84.557 12.5688 85.4143 13.2754C86.2803 13.982 86.7134 15.0702 86.7134 16.54V23.8325C86.7134 24.4072 86.7789 24.7983 86.9101 25.0055C87.0501 25.2128 87.3126 25.3164 87.6975 25.3164C87.8375 25.3164 87.9468 25.3119 88.0255 25.3027V27.027C87.8681 27.0835 87.7281 27.1165 87.6056 27.126C87.4918 27.1447 87.3256 27.1542 87.107 27.1542L87.107 27.1535ZM80.8872 25.4152C82.112 25.4152 83.0524 25.1655 83.7084 24.6662C84.3733 24.1574 84.7057 23.4366 84.7057 22.5039V20.0448H81.9238C80.9441 20.0448 80.1568 20.1389 79.5619 20.3274C78.9758 20.5064 78.5471 20.7938 78.276 21.1895C78.0048 21.5852 77.8692 22.1175 77.8692 22.7865C77.8692 23.625 78.1316 24.2751 78.6565 24.7368C79.1814 25.189 79.925 25.4152 80.8872 25.4152V25.4152Z" fill="#1C1A1A"/>
<path d="M91.1875 12.5261H92.8409L92.9983 14.5471C93.4357 13.6803 94.0131 13.0679 94.7304 12.7099C95.4478 12.3424 96.4275 12.1587 97.6697 12.1587C98.807 12.1587 99.7168 12.3566 100.399 12.7523C101.09 13.148 101.593 13.7793 101.908 14.6461C102.223 15.5129 102.381 16.6623 102.381 18.0944V26.8143H100.36V18.0944C100.36 17.0957 100.25 16.2995 100.032 15.706C99.813 15.103 99.4631 14.6648 98.9819 14.3916C98.5095 14.1184 97.8753 13.9818 97.0793 13.9818C96.1432 13.9818 95.3909 14.1231 94.8223 14.4058C94.2624 14.6885 93.8513 15.1359 93.5888 15.7484C93.3351 16.3608 93.2083 17.1805 93.2083 18.2075V26.8143H91.1875L91.1875 12.5261Z" fill="#1C1A1A"/>
<path d="M112.052 27.1394C110.565 27.1394 109.375 26.8897 108.483 26.3903C107.6 25.8815 106.952 25.0806 106.541 23.9877C106.139 22.8948 105.938 21.4391 105.938 19.6207C105.938 17.8211 106.143 16.3797 106.554 15.2962C106.965 14.2126 107.613 13.4259 108.496 12.936C109.389 12.4366 110.578 12.1869 112.065 12.1869C113.798 12.1869 115.084 12.5732 115.923 13.3458C116.772 14.109 117.209 15.2914 117.236 16.8931H115.175C115.123 16.177 114.983 15.607 114.755 15.1831C114.537 14.7591 114.204 14.4482 113.758 14.2503C113.312 14.0524 112.73 13.9535 112.013 13.9535C110.972 13.9535 110.163 14.1279 109.585 14.4765C109.017 14.8251 108.606 15.4092 108.352 16.2289C108.107 17.0392 107.985 18.1792 107.985 19.649C107.985 21.2413 108.098 22.4426 108.326 23.2528C108.553 24.0631 108.956 24.6332 109.533 24.963C110.11 25.2833 110.959 25.4434 112.079 25.4434C112.813 25.4434 113.404 25.3445 113.85 25.1467C114.296 24.9394 114.624 24.619 114.834 24.1856C115.044 23.7428 115.158 23.1586 115.175 22.4332H117.236C117.227 23.5732 117.048 24.4871 116.697 25.1749C116.348 25.8532 115.796 26.3526 115.044 26.673C114.292 26.9839 113.295 27.1394 112.052 27.1394V27.1394Z" fill="#1C1A1A"/>
<path d="M125.436 27.1395C123.992 27.1395 122.838 26.8897 121.972 26.3904C121.106 25.891 120.471 25.0996 120.069 24.0161C119.675 22.9326 119.479 21.4864 119.479 19.6774C119.479 17.9815 119.675 16.5871 120.069 15.4941C120.463 14.3918 121.093 13.5673 121.959 13.0208C122.825 12.4744 123.966 12.2012 125.383 12.2012C126.739 12.2012 127.824 12.4178 128.638 12.8513C129.46 13.2847 130.059 13.9725 130.435 14.9147C130.811 15.8474 131 17.0958 131 18.6598L130.987 20.0307H121.526C121.526 21.3403 121.657 22.3909 121.92 23.1823C122.191 23.9643 122.611 24.539 123.179 24.9065C123.757 25.2645 124.526 25.4435 125.489 25.4435C126.267 25.4435 126.893 25.3587 127.365 25.1891C127.846 25.0196 128.201 24.7511 128.428 24.3836C128.664 24.0067 128.796 23.5074 128.822 22.8855H130.882C130.882 24.3365 130.436 25.4106 129.543 26.1078C128.66 26.7956 127.291 27.1395 125.436 27.1395H125.436ZM128.939 18.4195C128.966 17.336 128.861 16.4692 128.625 15.8191C128.388 15.169 128.003 14.6932 127.47 14.3917C126.936 14.0902 126.223 13.9395 125.331 13.9395C124.395 13.9395 123.66 14.0761 123.126 14.3494C122.602 14.6226 122.217 15.0795 121.972 15.7202C121.727 16.3609 121.587 17.2606 121.552 18.4195H128.939Z" fill="#1C1A1A"/>
<defs>
<linearGradient id="paint0_linear_1446_1037" x1="1.81129e-05" y1="1.44509e-05" x2="48.397" y2="47.2236" gradientUnits="userSpaceOnUse">
<stop stop-color="#001486"/>
<stop offset="1" stop-color="#7E00E6"/>
</linearGradient>
</defs>
</svg>
