<svg width="2236" height="1449" viewBox="0 0 2236 1449" fill="none" xmlns="http://www.w3.org/2000/svg">
<g style="mix-blend-mode:hard-light">
<g style="mix-blend-mode:hard-light">
<path d="M-207.096 200.424C-102.428 213.486 -130.725 378.979 104.108 266.498C509.913 72.1247 805.358 41.0815 1248.2 256.971C1854.38 552.483 1612.14 210.451 2285.08 458.671" stroke="url(#paint0_linear_1398_24461)"/>
</g>
<g style="mix-blend-mode:hard-light">
<path d="M-197.962 219.29C-93.2938 232.353 -121.591 397.845 113.242 285.365C519.047 90.9911 814.491 59.948 1257.34 275.837C1863.51 571.349 1621.27 229.318 2294.21 477.537" stroke="url(#paint1_linear_1398_24461)"/>
</g>
<g style="mix-blend-mode:hard-light">
<path d="M-188.828 238.157C-84.1595 251.219 -112.457 416.712 122.376 304.231C528.181 109.858 823.626 78.8144 1266.47 294.703C1872.65 590.216 1630.4 248.184 2303.35 496.404" stroke="url(#paint2_linear_1398_24461)"/>
</g>
<g style="mix-blend-mode:hard-light">
<path d="M-179.693 257.023C-75.0253 270.086 -103.323 435.578 131.51 323.098C537.316 128.724 832.76 97.6809 1275.61 313.57C1881.78 609.082 1639.54 267.051 2312.48 515.27" stroke="url(#paint3_linear_1398_24461)"/>
</g>
<g style="mix-blend-mode:hard-light">
<path d="M-170.559 275.89C-65.891 288.952 -94.1884 454.445 140.644 341.964C546.45 147.59 841.894 116.547 1284.74 332.436C1890.92 627.949 1648.67 285.917 2321.62 534.137" stroke="url(#paint4_linear_1398_24461)"/>
</g>
<g style="mix-blend-mode:hard-light">
<path d="M-161.425 294.756C-56.7572 307.819 -85.0546 473.311 149.778 360.83C555.584 166.457 851.028 135.414 1293.88 351.303C1900.05 646.815 1657.81 304.783 2330.75 553.003" stroke="url(#paint5_linear_1398_24461)"/>
</g>
<g style="mix-blend-mode:hard-light">
<path d="M-152.291 313.622C-47.6229 326.685 -75.9203 492.177 158.912 379.697C564.718 185.323 860.162 154.28 1303.01 370.169C1909.18 665.681 1666.94 323.65 2339.88 571.869" stroke="url(#paint6_linear_1398_24461)"/>
</g>
<g style="mix-blend-mode:hard-light">
<path d="M-143.157 332.489C-38.4886 345.551 -66.7861 511.044 168.047 398.563C573.852 204.19 869.297 173.147 1312.14 389.036C1918.32 684.548 1676.08 342.516 2349.02 590.736" stroke="url(#paint7_linear_1398_24461)"/>
</g>
<g style="mix-blend-mode:hard-light">
<path d="M-134.022 351.356C-29.3544 364.418 -57.6518 529.91 177.181 417.43C582.987 223.056 878.431 192.013 1321.28 407.902C1927.45 703.414 1685.21 361.383 2358.15 609.602" stroke="url(#paint8_linear_1398_24461)"/>
</g>
</g>
<defs>
<linearGradient id="paint0_linear_1398_24461" x1="1936.92" y1="223.922" x2="-532.742" y2="541.042" gradientUnits="userSpaceOnUse">
<stop stop-color="#E43DFF" stop-opacity="0.26"/>
<stop offset="1" stop-color="#00F0FF" stop-opacity="0"/>
</linearGradient>
<linearGradient id="paint1_linear_1398_24461" x1="1946.05" y1="242.789" x2="-523.608" y2="559.908" gradientUnits="userSpaceOnUse">
<stop stop-color="#E43DFF" stop-opacity="0.26"/>
<stop offset="1" stop-color="#00F0FF" stop-opacity="0"/>
</linearGradient>
<linearGradient id="paint2_linear_1398_24461" x1="1955.19" y1="261.655" x2="-514.474" y2="578.775" gradientUnits="userSpaceOnUse">
<stop stop-color="#E43DFF" stop-opacity="0.26"/>
<stop offset="1" stop-color="#00F0FF" stop-opacity="0"/>
</linearGradient>
<linearGradient id="paint3_linear_1398_24461" x1="1964.32" y1="280.522" x2="-505.339" y2="597.641" gradientUnits="userSpaceOnUse">
<stop stop-color="#E43DFF" stop-opacity="0.26"/>
<stop offset="1" stop-color="#00F0FF" stop-opacity="0"/>
</linearGradient>
<linearGradient id="paint4_linear_1398_24461" x1="1973.46" y1="299.388" x2="-496.205" y2="616.508" gradientUnits="userSpaceOnUse">
<stop stop-color="#E43DFF" stop-opacity="0.26"/>
<stop offset="1" stop-color="#00F0FF" stop-opacity="0"/>
</linearGradient>
<linearGradient id="paint5_linear_1398_24461" x1="1982.59" y1="318.254" x2="-487.071" y2="635.374" gradientUnits="userSpaceOnUse">
<stop stop-color="#E43DFF" stop-opacity="0.26"/>
<stop offset="1" stop-color="#00F0FF" stop-opacity="0"/>
</linearGradient>
<linearGradient id="paint6_linear_1398_24461" x1="1991.72" y1="337.121" x2="-477.937" y2="654.24" gradientUnits="userSpaceOnUse">
<stop stop-color="#E43DFF" stop-opacity="0.26"/>
<stop offset="1" stop-color="#00F0FF" stop-opacity="0"/>
</linearGradient>
<linearGradient id="paint7_linear_1398_24461" x1="2000.86" y1="355.987" x2="-468.803" y2="673.107" gradientUnits="userSpaceOnUse">
<stop stop-color="#E43DFF" stop-opacity="0.26"/>
<stop offset="1" stop-color="#00F0FF" stop-opacity="0"/>
</linearGradient>
<linearGradient id="paint8_linear_1398_24461" x1="2009.99" y1="374.854" x2="-459.668" y2="691.973" gradientUnits="userSpaceOnUse">
<stop stop-color="#E43DFF" stop-opacity="0.26"/>
<stop offset="1" stop-color="#00F0FF" stop-opacity="0"/>
</linearGradient>
</defs>
</svg>
