<svg width="138" height="50" viewBox="0 0 138 50" fill="none" xmlns="http://www.w3.org/2000/svg">
<path d="M17.002 10.1021C19.9836 7.68736 23.7213 6.3855 27.5639 6.3855C31.4065 6.3855 35.1231 7.72936 38.1048 10.1441C38.1048 10.2491 38.0208 10.2911 37.9578 10.3541C36.7189 11.614 35.459 12.8528 34.2202 14.1127C34.1992 14.1547 34.1572 14.1967 34.1152 14.2177C34.0732 14.2387 34.0312 14.2597 33.9682 14.2597C33.9262 14.2597 33.8632 14.2597 33.8212 14.2387C33.7792 14.2177 33.7372 14.1967 33.6952 14.1547C31.8684 12.9998 29.7476 12.3909 27.5849 12.3699C25.4221 12.3489 23.3013 12.9368 21.4535 14.0497C21.3485 14.1127 21.2435 14.1757 21.1385 14.2597C21.1175 14.2597 21.1385 14.2597 21.1385 14.2597L17.002 10.1021Z" fill="white"/>
<path d="M38.0625 18.4381C39.4274 17.0522 40.7922 15.6454 42.1571 14.2385C47.5745 20.9368 46.6086 30.2389 42.1571 35.5723C40.7922 34.1865 39.4484 32.8006 38.0625 31.4147C40.6032 27.1312 40.6452 22.7846 38.0625 18.4381Z" fill="white"/>
<path d="M38.0418 39.856C35.0601 42.2708 31.3225 43.5937 27.4799 43.5937C23.6373 43.5937 19.9207 42.2708 16.918 39.856C18.2828 38.4702 19.6477 37.1053 21.0125 35.7195C25.3171 38.4072 29.6216 38.3652 33.9052 35.7405C35.2911 37.0843 36.6769 38.4702 38.0418 39.856Z" fill="white"/>
<path d="M16.8776 18.4171C14.3159 22.7636 14.3159 27.1102 16.8776 31.4567L12.783 35.5723C8.05851 29.8609 7.80653 20.4749 12.783 14.3015C14.1479 15.6874 15.5127 17.0522 16.8776 18.4171Z" fill="white"/>
<path d="M132.112 33.9766H130.159C130.033 33.2627 130.138 32.5487 130.012 31.7928C129.844 31.9398 129.718 32.1078 129.592 32.2968C128.689 33.3887 127.408 34.0606 126.023 34.1866C124.91 34.3336 123.776 34.1866 122.747 33.7876C121.739 33.4097 120.836 32.7797 120.164 31.9398C119.492 31.0999 119.051 30.092 118.925 29.0211C118.673 27.7192 118.757 26.3754 119.135 25.0945C119.45 24.0026 120.059 23.0157 120.92 22.2598C121.781 21.5039 122.852 21.0419 123.986 20.895C125.309 20.643 126.673 20.811 127.87 21.3779C128.542 21.6929 129.151 22.1758 129.613 22.7428C129.76 22.9317 129.886 23.1207 129.991 23.3517V15.6455H132.112V33.9766ZM125.393 32.1708C126.526 32.1918 127.618 31.7928 128.458 31.0159C129.298 30.26 129.802 29.1891 129.886 28.0552C130.012 27.1523 129.886 26.2284 129.487 25.4095C129.088 24.5906 128.458 23.8977 127.681 23.4357C127.093 23.0997 126.443 22.9107 125.771 22.8478C125.099 22.7848 124.427 22.8898 123.797 23.1207C123.167 23.3307 122.6 23.6667 122.138 24.1496C121.676 24.6326 121.34 25.1995 121.172 25.8504C120.857 26.9003 120.836 28.0342 121.151 29.1051C121.403 30.008 121.97 30.8269 122.747 31.3729C123.503 31.9398 124.448 32.2128 125.393 32.1708Z" fill="white"/>
<path d="M68.0272 28.391H57.2133C57.2763 29.168 57.5492 29.8819 58.0112 30.5118C58.4731 31.1208 59.1031 31.6037 59.817 31.8557C60.5309 32.1496 61.3078 32.2756 62.0848 32.2336C63.1977 32.1916 64.2685 31.8347 65.1924 31.2257C65.4444 31.0578 65.6754 30.8478 65.8644 30.5958C66.3473 31.0368 66.8093 31.4567 67.2922 31.9187C66.9983 32.2966 66.6623 32.6116 66.2843 32.8636C65.0035 33.7665 63.4706 34.2284 61.8958 34.2494C60.9929 34.2914 60.069 34.1444 59.2081 33.8295C58.1162 33.4515 57.1503 32.7796 56.4154 31.8767C55.6804 30.9738 55.2395 29.8819 55.1135 28.727C54.8615 27.3621 55.0085 25.9343 55.5545 24.6534C55.9744 23.6035 56.6673 22.7006 57.5702 22.0287C58.4731 21.3568 59.544 20.9368 60.6569 20.8108C61.7278 20.6639 62.8197 20.7478 63.8486 21.0418C64.8985 21.3148 65.8434 21.8817 66.5573 22.6796C67.2922 23.4776 67.7542 24.4854 67.9222 25.5353C68.1531 26.5012 68.1741 27.4461 68.0272 28.391ZM65.9904 26.5222C65.9904 26.3752 66.0114 26.2703 65.9904 26.1443C65.9274 25.4513 65.6964 24.8004 65.2764 24.2545C64.8565 23.7085 64.2895 23.2886 63.6596 23.0576C62.9457 22.8056 62.2108 22.7006 61.4548 22.7426C60.7829 22.7426 60.111 22.9106 59.523 23.2256C58.9141 23.5405 58.4102 23.9815 58.0112 24.5274C57.5912 25.0944 57.3393 25.7663 57.2553 26.4802C60.153 26.5222 63.0507 26.5222 65.9904 26.5222Z" fill="white"/>
<path d="M94.1703 34.2495C93.2884 34.2705 92.4065 34.1235 91.5666 33.7876C90.7477 33.4516 89.9918 32.9686 89.3618 32.3387C88.3329 31.2888 87.703 29.903 87.577 28.4331C87.388 27.0053 87.64 25.5774 88.2699 24.2965C88.7319 23.3516 89.4248 22.5327 90.2857 21.9238C91.1466 21.3149 92.1545 20.9369 93.2044 20.8319C94.4223 20.6429 95.6822 20.7899 96.816 21.2519C97.8659 21.6508 98.7898 22.3438 99.4618 23.2257C100.155 24.1076 100.575 25.1785 100.701 26.2913C100.932 27.5092 100.827 28.7691 100.428 29.924C100.071 31.0158 99.4198 32.0027 98.5379 32.7377C97.6559 33.4726 96.5851 33.9555 95.4512 34.1235C95.0312 34.2285 94.5903 34.2495 94.1703 34.2495ZM98.6848 27.5512C98.7058 26.9633 98.6008 26.3753 98.4119 25.8084C98.1599 25.0945 97.7609 24.4645 97.194 23.9396C96.6271 23.4146 95.9761 23.0577 95.2412 22.8897C94.5063 22.7007 93.7503 22.7007 93.0154 22.8897C92.2805 23.0787 91.6296 23.4566 91.0626 23.9606C90.3697 24.6955 89.9078 25.5984 89.7398 26.5853C89.5508 27.5722 89.6558 28.5801 90.0337 29.525C91.1886 32.3597 94.5903 32.8217 96.6481 31.4778C97.299 31.0578 97.8239 30.4699 98.1809 29.777C98.5379 29.084 98.7058 28.3281 98.6848 27.5512Z" fill="white"/>
<path d="M115.838 33.9976H113.781C113.718 33.8716 113.718 33.7246 113.739 33.5776V26.8163C113.739 26.3123 113.655 25.7874 113.508 25.3045C113.34 24.7375 113.025 24.2126 112.584 23.8136C112.143 23.4146 111.597 23.1417 111.009 23.0157C110.316 22.8057 109.602 22.8057 108.909 22.9947C108.216 23.1837 107.586 23.5616 107.103 24.0866C106.368 24.8425 105.969 25.8504 105.99 26.9003C105.969 29.1261 105.99 31.3308 105.99 33.5566C106.011 33.7036 105.99 33.8506 105.969 33.9976H103.891V21.0629H105.843C105.885 21.7138 105.906 22.3438 105.948 22.9527C106.053 22.9737 106.074 22.8897 106.116 22.8477C106.704 22.1128 107.46 21.5458 108.321 21.2099C109.182 20.8739 110.127 20.7689 111.051 20.9159C111.765 20.9789 112.458 21.1889 113.088 21.5248C113.718 21.8608 114.264 22.3438 114.705 22.9107C115.397 23.8346 115.796 24.9265 115.859 26.0604C115.88 26.4173 115.901 26.7533 115.901 27.0893V33.5566C115.901 33.7036 115.88 33.8506 115.838 33.9976Z" fill="white"/>
<path d="M77.3081 21.0839H79.3029C79.3449 21.6509 79.4079 22.2388 79.4709 22.8687C79.8488 22.2178 80.4158 21.6929 81.0667 21.3359C81.7386 20.9789 82.4736 20.79 83.2295 20.8319C84.3634 20.79 85.4552 21.1259 86.3582 21.7978C86.0432 22.4068 85.7282 23.0157 85.4133 23.6037C85.2663 23.6037 85.1193 23.5407 85.0143 23.4357C84.1954 22.9737 83.2085 22.8267 82.2846 23.0577C81.3607 23.2677 80.5628 23.8346 80.0168 24.6116C79.5969 25.2625 79.3869 26.0184 79.4079 26.7953V33.5566C79.4289 33.7036 79.4079 33.8506 79.3659 33.9976H77.2871V21.0839H77.3081Z" fill="white"/>
<path d="M73.2775 33.9976H71.1777V15.7085H73.2775V33.9976Z" fill="white"/>
<path d="M45.244 39.856C45.244 40.4229 45.055 40.9898 44.7401 41.4728C44.4251 41.9557 43.9631 42.3127 43.4172 42.5227C42.8923 42.7327 42.3043 42.7957 41.7374 42.6697C41.1704 42.5437 40.6665 42.2707 40.2675 41.8508C39.8686 41.4308 39.5956 40.9268 39.4906 40.3599C39.3856 39.793 39.4486 39.205 39.6796 38.6801C39.9106 38.1551 40.2885 37.6932 40.7505 37.3782C41.2334 37.0633 41.8004 36.8953 42.3673 36.8953C42.7453 36.8953 43.1232 36.9793 43.4802 37.1262C43.8372 37.2732 44.1521 37.4832 44.4251 37.7772C44.6981 38.0501 44.9081 38.3651 45.055 38.7221C45.181 39.1 45.265 39.478 45.244 39.856Z" fill="white"/>
<path d="M12.7604 42.7747C12.1725 42.7957 11.6055 42.6277 11.1226 42.3127C10.6396 41.9977 10.2407 41.5358 10.0097 41.0108C9.7787 40.4859 9.71571 39.877 9.8207 39.31C9.92569 38.7431 10.1987 38.2181 10.6186 37.7982C11.0386 37.3782 11.5425 37.1053 12.1305 36.9793C12.6974 36.8743 13.2853 36.9163 13.8313 37.1472C14.3772 37.3782 14.8182 37.7562 15.1541 38.2391C15.4691 38.7221 15.6371 39.289 15.6371 39.877C15.6371 40.2549 15.5741 40.6329 15.4271 40.9898C15.2801 41.3468 15.0701 41.6618 14.8182 41.9348C14.5452 42.2077 14.2302 42.4177 13.8943 42.5647C13.5163 42.6907 13.1384 42.7537 12.7604 42.7747Z" fill="white"/>
<path d="M45.2446 9.95507C45.2656 10.333 45.2027 10.711 45.0557 11.089C44.9297 11.4459 44.7197 11.7819 44.4467 12.0549C44.1738 12.3278 43.8588 12.5588 43.5018 12.7058C43.1449 12.8528 42.7669 12.9368 42.3889 12.9368C42.011 12.9368 41.633 12.8738 41.2761 12.7058C40.9191 12.5588 40.6041 12.3488 40.3312 12.0759C40.0582 11.8029 39.8482 11.4669 39.7222 11.11C39.5752 10.753 39.5122 10.375 39.5332 9.99707C39.5122 9.61911 39.5752 9.24115 39.7222 8.86319C39.8482 8.50623 40.0582 8.17026 40.3312 7.89729C40.6041 7.62432 40.9191 7.39334 41.2761 7.24636C41.633 7.09937 42.011 7.01538 42.3889 7.01538C42.7669 7.01538 43.1449 7.07838 43.5018 7.24636C43.8588 7.39334 44.1738 7.60332 44.4467 7.87629C44.7197 8.14926 44.9297 8.48523 45.0557 8.84219C45.2027 9.17815 45.2656 9.55611 45.2446 9.95507Z" fill="white"/>
<path d="M15.6165 9.93408C15.6165 10.501 15.4485 11.068 15.1125 11.5299C14.7975 12.0129 14.3356 12.3698 13.8106 12.5798C13.2857 12.7898 12.6978 12.8528 12.1308 12.7478C11.5639 12.6428 11.0599 12.3488 10.661 11.9499C10.262 11.5509 9.98905 11.026 9.86306 10.459C9.75807 9.89209 9.80006 9.32515 10.031 8.7792C10.262 8.23326 10.619 7.7923 11.1019 7.47734C11.5849 7.16237 12.1308 6.99438 12.6978 6.99438C13.0757 6.99438 13.4537 7.05738 13.8106 7.20436C14.1676 7.35135 14.4826 7.56133 14.7555 7.8343C15.0285 8.10727 15.2385 8.42224 15.3855 8.7792C15.5535 9.17816 15.6165 9.55612 15.6165 9.93408Z" fill="white"/>
<path d="M24.4147 21.1048C24.4147 21.2938 24.3307 21.4828 24.1837 21.6298C24.0367 21.7558 23.8477 21.8398 23.6588 21.8398C23.4698 21.8398 23.2808 21.7558 23.1338 21.6298C22.9868 21.4828 22.9238 21.2938 22.9238 21.1048C22.9448 20.9159 23.0288 20.7269 23.1548 20.6009C23.3018 20.4749 23.4908 20.3909 23.6797 20.4119C23.8687 20.4119 24.0577 20.4749 24.2047 20.6219C24.3307 20.7269 24.4147 20.9159 24.4147 21.1048Z" fill="white"/>
<path d="M17.9268 14.5327C18.0318 14.5327 18.1158 14.5537 18.1998 14.5747C18.2838 14.6167 18.3678 14.6587 18.4308 14.7217C18.4938 14.7847 18.5568 14.8687 18.5988 14.9527C18.6407 15.0367 18.6617 15.1417 18.6617 15.2256C18.6617 15.4146 18.5778 15.6036 18.4308 15.7296C18.2838 15.8556 18.0948 15.9396 17.9058 15.9186C17.8008 15.9186 17.7168 15.9186 17.6119 15.8766C17.5279 15.8346 17.4439 15.7926 17.3599 15.7296C17.2969 15.6666 17.2339 15.5826 17.1919 15.4986C17.1499 15.4146 17.1289 15.3096 17.1289 15.2046C17.1289 15.0997 17.1499 15.0157 17.1919 14.9107C17.2339 14.8267 17.2969 14.7427 17.3599 14.6797C17.4229 14.6167 17.5279 14.5537 17.6119 14.5327C17.7168 14.5327 17.8218 14.5327 17.9268 14.5327Z" fill="white"/>
<path d="M23.6797 29.525C23.4908 29.525 23.3018 29.441 23.1548 29.315C23.0078 29.1891 22.9238 29.0001 22.9238 28.8111C22.9238 28.6221 23.0078 28.4331 23.1548 28.2862C23.3018 28.1602 23.4908 28.0762 23.6797 28.0762C23.7847 28.0762 23.8687 28.0972 23.9527 28.1182C24.0367 28.1602 24.1207 28.2022 24.1837 28.2652C24.2467 28.3282 24.3097 28.4121 24.3517 28.4961C24.3937 28.5801 24.4147 28.6851 24.4147 28.7691C24.4147 28.8741 24.3937 28.9581 24.3517 29.0421C24.3097 29.1261 24.2677 29.2101 24.1837 29.273C24.1207 29.336 24.0367 29.399 23.9317 29.42C23.8687 29.525 23.7847 29.525 23.6797 29.525Z" fill="white"/>
<path d="M17.1484 34.6485C17.1694 34.4595 17.2534 34.2705 17.3794 34.1445C17.5264 34.0186 17.6944 33.9346 17.8834 33.9346C17.9883 33.9346 18.0723 33.9556 18.1773 33.9766C18.2613 34.0186 18.3453 34.0606 18.4293 34.1235C18.4923 34.1865 18.5553 34.2705 18.5973 34.3545C18.6393 34.4385 18.6603 34.5435 18.6603 34.6485C18.6603 34.7535 18.6393 34.8375 18.5973 34.9215C18.5553 35.0054 18.4923 35.0894 18.4293 35.1524C18.3663 35.2154 18.2823 35.2784 18.1773 35.2994C18.0933 35.3414 17.9883 35.3414 17.8834 35.3414C17.6944 35.3414 17.5054 35.2574 17.3794 35.1314C17.2324 35.0264 17.1484 34.8375 17.1484 34.6485Z" fill="white"/>
<path d="M29.4537 27.5721C29.2647 27.5721 29.0757 27.4881 28.9497 27.3622C28.8027 27.2362 28.7397 27.0472 28.7188 26.8582C28.7188 26.7532 28.7397 26.6692 28.7817 26.5852C28.8237 26.5012 28.8867 26.4173 28.9497 26.3543C29.0337 26.2913 29.1177 26.2493 29.2017 26.2073C29.2857 26.1863 29.3907 26.1653 29.4957 26.1653C29.6007 26.1653 29.6846 26.1863 29.7686 26.2073C29.8526 26.2493 29.9366 26.2913 29.9996 26.3753C30.0626 26.4383 30.1256 26.5222 30.1466 26.6062C30.1886 26.6902 30.1886 26.7952 30.1886 26.8792C30.1676 27.0682 30.0836 27.2572 29.9576 27.3832C29.8316 27.5091 29.6427 27.5721 29.4537 27.5721Z" fill="white"/>
<path d="M39.1339 35.8873C39.2598 35.9083 39.4068 35.9713 39.5118 36.0553C39.6168 36.1393 39.7008 36.2653 39.7218 36.3913C39.7638 36.5173 39.7638 36.6643 39.7218 36.7902C39.6798 36.9162 39.6168 37.0422 39.5118 37.1262C39.4068 37.2102 39.2808 37.2732 39.1339 37.2942C39.0079 37.3152 38.8609 37.2942 38.7349 37.2312C38.6089 37.1682 38.5039 37.0842 38.4409 36.9582C38.3779 36.8322 38.3359 36.7063 38.3359 36.5593C38.3359 36.4543 38.3779 36.3703 38.4199 36.2863C38.4619 36.2023 38.5249 36.1183 38.6089 36.0553C38.6929 35.9923 38.7769 35.9503 38.8609 35.9083C38.9449 35.8663 39.0499 35.8873 39.1339 35.8873Z" fill="white"/>
<path d="M33.2954 19.866C33.1904 19.866 33.1064 19.845 33.0014 19.824C32.9174 19.782 32.8335 19.74 32.7495 19.677C32.6865 19.614 32.6235 19.53 32.5815 19.446C32.5395 19.362 32.5185 19.2571 32.5395 19.1521C32.5395 19.0471 32.5605 18.9631 32.6025 18.8791C32.6445 18.7951 32.7075 18.7111 32.7705 18.6481C32.8335 18.5851 32.9384 18.5431 33.0224 18.5011C33.1064 18.4801 33.2114 18.4591 33.3164 18.4801C33.4214 18.4801 33.5054 18.5011 33.5894 18.5221C33.6734 18.5641 33.7574 18.6061 33.8204 18.6691C33.8833 18.7321 33.9463 18.8161 33.9883 18.9001C34.0303 18.9841 34.0513 19.0891 34.0303 19.1731C34.0303 19.278 34.0093 19.362 33.9673 19.446C33.9253 19.53 33.8624 19.614 33.7994 19.677C33.7364 19.74 33.6524 19.782 33.5474 19.824C33.5054 19.866 33.4004 19.866 33.2954 19.866Z" fill="white"/>
<path d="M39.0723 12.6008C39.2613 12.6008 39.4503 12.6638 39.5973 12.7898C39.7443 12.9158 39.8282 13.1048 39.8492 13.2938C39.8492 13.3987 39.8283 13.4827 39.7863 13.5877C39.7443 13.6717 39.6813 13.7557 39.6183 13.8187C39.5553 13.8817 39.4713 13.9447 39.3663 13.9657C39.2823 14.0077 39.1773 14.0077 39.0723 14.0077C38.8833 14.0077 38.6944 13.9447 38.5474 13.7977C38.4004 13.6717 38.3164 13.4827 38.3164 13.2938C38.3164 13.1888 38.3374 13.1048 38.3794 13.0208C38.4214 12.9368 38.4634 12.8528 38.5474 12.7898C38.6104 12.7268 38.6944 12.6638 38.7784 12.6428C38.8833 12.6218 38.9883 12.6008 39.0723 12.6008Z" fill="white"/>
<path d="M37.9165 15.2464C37.9165 15.3934 37.8745 15.5194 37.8115 15.6454C37.7275 15.7713 37.6225 15.8553 37.4965 15.9183C37.3705 15.9813 37.2235 15.9813 37.0976 15.9603C36.9506 15.9393 36.8246 15.8763 36.7406 15.7713C36.6356 15.6664 36.5726 15.5404 36.5516 15.4144C36.5306 15.2674 36.5306 15.1414 36.5936 15.0154C36.6356 14.8894 36.7406 14.7844 36.8456 14.7005C36.9716 14.6165 37.0976 14.5745 37.2445 14.5745C37.4335 14.5745 37.6015 14.6375 37.7485 14.7844C37.8325 14.8684 37.9165 15.0574 37.9165 15.2464Z" fill="white"/>
<path d="M35.1866 17.9132C34.9976 17.9132 34.8296 17.8292 34.6826 17.7032C34.5566 17.5772 34.4727 17.3883 34.4727 17.1993C34.4727 17.0103 34.5356 16.8213 34.6826 16.6953C34.8086 16.5693 34.9976 16.4854 35.1866 16.4854C35.3756 16.4854 35.5435 16.5693 35.6905 16.6953C35.8165 16.8213 35.9005 17.0103 35.9005 17.1993C35.9005 17.3883 35.8375 17.5772 35.6905 17.7032C35.5645 17.8292 35.3756 17.9132 35.1866 17.9132Z" fill="white"/>
<path d="M32.1427 21.0838C32.1427 21.1678 32.1427 21.2728 32.1007 21.3568C32.0587 21.4408 32.0167 21.5248 31.9537 21.5877C31.8907 21.6507 31.8067 21.7137 31.7227 21.7557C31.6387 21.7977 31.5548 21.8187 31.4498 21.8187C31.3448 21.8187 31.2608 21.7977 31.1768 21.7767C31.0928 21.7347 31.0088 21.6927 30.9458 21.6297C30.8828 21.5668 30.8198 21.4828 30.7778 21.3988C30.7358 21.3148 30.7148 21.2098 30.7148 21.1258C30.7148 20.9368 30.7988 20.7688 30.9248 20.6218C31.0508 20.4959 31.2398 20.4119 31.4078 20.3909C31.5968 20.3909 31.7647 20.4749 31.9117 20.6008C32.0587 20.7268 32.1427 20.8948 32.1427 21.0838Z" fill="white"/>
<path d="M37.1608 35.3625C36.9718 35.3415 36.8038 35.2575 36.6778 35.1105C36.5518 34.9635 36.4888 34.7746 36.5098 34.5856C36.5308 34.3966 36.6148 34.2076 36.7618 34.1026C36.9088 33.9766 37.0978 33.9136 37.2868 33.9346C37.4757 33.9556 37.6437 34.0396 37.7697 34.1866C37.8957 34.3336 37.9587 34.5226 37.9377 34.6906C37.9167 34.8795 37.8327 35.0475 37.7067 35.1735C37.5387 35.3205 37.3498 35.3835 37.1608 35.3625Z" fill="white"/>
<path d="M29.4131 23.7715C29.2242 23.7715 29.0562 23.6875 28.9092 23.5616C28.7832 23.4356 28.6992 23.2466 28.6992 23.0576C28.6992 22.9526 28.7202 22.8686 28.7412 22.7846C28.7832 22.7007 28.8252 22.6167 28.8882 22.5537C28.9512 22.4907 29.0352 22.4277 29.1192 22.4067C29.2032 22.3647 29.3082 22.3437 29.3921 22.3647C29.4971 22.3647 29.5811 22.3857 29.6651 22.4277C29.7491 22.4697 29.8331 22.5117 29.8961 22.5957C29.9591 22.6587 30.0221 22.7426 30.0431 22.8266C30.0851 22.9106 30.0851 23.0156 30.0851 23.0996C30.0851 23.2886 30.0011 23.4566 29.8751 23.5826C29.7701 23.6876 29.6021 23.7715 29.4131 23.7715Z" fill="white"/>
<path d="M26.3463 23.0577C26.3463 23.2467 26.2623 23.4146 26.1363 23.5616C26.0103 23.6876 25.8214 23.7716 25.6324 23.7716C25.4434 23.7716 25.2754 23.6876 25.1494 23.5616C25.0234 23.4356 24.9395 23.2467 24.9395 23.0577C24.9395 22.8687 25.0024 22.7007 25.1494 22.5537C25.2754 22.4277 25.4644 22.3438 25.6324 22.3438C25.7164 22.3438 25.8214 22.3647 25.9054 22.4067C25.9893 22.4487 26.0733 22.4907 26.1363 22.5537C26.1993 22.6167 26.2623 22.7007 26.2833 22.7847C26.3463 22.8687 26.3463 22.9737 26.3463 23.0577Z" fill="white"/>
<path d="M32.1426 28.8321C32.1426 28.9371 32.1216 29.0211 32.1006 29.1051C32.0586 29.1891 32.0166 29.273 31.9326 29.336C31.8696 29.399 31.7856 29.462 31.7016 29.483C31.6177 29.525 31.5127 29.525 31.4287 29.525C31.3237 29.525 31.2397 29.504 31.1557 29.462C31.0717 29.42 30.9877 29.357 30.9247 29.294C30.8617 29.2311 30.8197 29.1471 30.7777 29.0421C30.7567 28.9581 30.7357 28.8531 30.7567 28.7691C30.7567 28.5801 30.8407 28.4121 30.9877 28.2861C31.1347 28.1602 31.3027 28.0972 31.4917 28.0972C31.6806 28.0972 31.8486 28.1812 31.9746 28.3281C32.0796 28.4541 32.1426 28.6431 32.1426 28.8321Z" fill="white"/>
<path d="M25.6529 26.1445C25.8419 26.1445 26.0098 26.2075 26.1568 26.3545C26.2828 26.4805 26.3668 26.6695 26.3668 26.8375C26.3668 27.0264 26.3038 27.1944 26.1778 27.3414C26.0518 27.4674 25.8839 27.5514 25.6949 27.5724C25.5899 27.5724 25.5059 27.5514 25.4219 27.5304C25.3379 27.4884 25.2539 27.4464 25.1909 27.3834C25.1279 27.3204 25.0649 27.2364 25.0439 27.1524C25.002 27.0684 25.002 26.9635 25.002 26.8795C25.002 26.7955 25.023 26.6905 25.0439 26.6065C25.0859 26.5225 25.1279 26.4385 25.1909 26.3755C25.2539 26.3125 25.3379 26.2495 25.4219 26.2285C25.4639 26.1655 25.5689 26.1445 25.6529 26.1445Z" fill="white"/>
<path d="M35.207 33.4096C35.06 33.4096 34.934 33.3676 34.808 33.3047C34.682 33.2207 34.598 33.1157 34.535 32.9897C34.472 32.8637 34.472 32.7167 34.493 32.5697C34.514 32.4228 34.577 32.2968 34.682 32.1918C34.787 32.0868 34.913 32.0238 35.039 31.9818C35.186 31.9608 35.3119 31.9608 35.4589 32.0238C35.5849 32.0868 35.7109 32.1708 35.7739 32.2758C35.8579 32.4017 35.8999 32.5277 35.8999 32.6747C35.8999 32.8637 35.8369 33.0527 35.6899 33.1787C35.5639 33.3257 35.3959 33.4096 35.207 33.4096Z" fill="white"/>
<path d="M20.5729 32.7586C20.5729 32.8426 20.5519 32.9476 20.5099 33.0316C20.4679 33.1156 20.4259 33.1786 20.3419 33.2416C20.2789 33.3046 20.1949 33.3466 20.1109 33.3885C20.0269 33.4095 19.9429 33.4305 19.8379 33.4305C19.649 33.4095 19.481 33.3256 19.355 33.1996C19.229 33.0526 19.166 32.8846 19.166 32.6956C19.166 32.5906 19.187 32.5066 19.229 32.4226C19.271 32.3387 19.334 32.2547 19.397 32.1917C19.46 32.1287 19.544 32.0867 19.649 32.0447C19.733 32.0237 19.8379 32.0027 19.9219 32.0027C20.0059 32.0027 20.1109 32.0447 20.1949 32.0867C20.2789 32.1287 20.3419 32.1917 20.4049 32.2547C20.4679 32.3177 20.5099 32.4016 20.5309 32.4856C20.5729 32.5696 20.5939 32.6746 20.5729 32.7586Z" fill="white"/>
<path d="M19.8575 17.9132C19.6685 17.9132 19.5005 17.8292 19.3745 17.6822C19.2485 17.5562 19.1855 17.3673 19.1855 17.1783C19.1855 17.0733 19.2065 16.9893 19.2275 16.9053C19.2695 16.8213 19.3115 16.7373 19.3745 16.6743C19.4375 16.6113 19.5215 16.5483 19.6055 16.5273C19.6895 16.4853 19.7945 16.4854 19.8785 16.4854C19.9625 16.4854 20.0675 16.5063 20.1514 16.5483C20.2354 16.5903 20.3194 16.6533 20.3824 16.7163C20.4454 16.7793 20.4874 16.8633 20.5294 16.9683C20.5504 17.0523 20.5714 17.1573 20.5714 17.2413C20.5714 17.4303 20.4874 17.5982 20.3404 17.7242C20.2144 17.8502 20.0465 17.9132 19.8575 17.9132Z" fill="white"/>
<path d="M21.8326 30.071C21.9166 30.071 22.0216 30.092 22.1056 30.134C22.1895 30.176 22.2735 30.218 22.3365 30.281C22.3995 30.344 22.4415 30.4279 22.4835 30.5119C22.5255 30.5959 22.5255 30.6799 22.5255 30.7849C22.5255 30.9739 22.4415 31.1419 22.2945 31.2679C22.1685 31.3939 21.9796 31.4568 21.7906 31.4568C21.6016 31.4568 21.4336 31.3729 21.3076 31.2469C21.1816 31.1209 21.0977 30.9319 21.0977 30.7639C21.0977 30.6589 21.1187 30.5749 21.1606 30.4909C21.2026 30.4069 21.2446 30.323 21.3286 30.26C21.3916 30.197 21.4756 30.155 21.5806 30.113C21.6436 30.071 21.7276 30.05 21.8326 30.071Z" fill="white"/>
<path d="M33.3389 30.071C33.4439 30.071 33.5279 30.071 33.6119 30.113C33.6959 30.155 33.7799 30.197 33.8639 30.26C33.9269 30.323 33.9899 30.407 34.0319 30.491C34.0738 30.575 34.0948 30.68 34.0738 30.764C34.0738 30.953 33.9899 31.1209 33.8429 31.2469C33.7169 31.3729 33.5279 31.4359 33.3389 31.4359C33.1499 31.4359 32.982 31.3729 32.835 31.2259C32.709 31.0999 32.625 30.911 32.625 30.722C32.625 30.638 32.646 30.533 32.667 30.449C32.709 30.365 32.751 30.281 32.814 30.218C32.877 30.155 32.961 30.092 33.045 30.071C33.1499 30.092 33.2549 30.071 33.3389 30.071Z" fill="white"/>
<path d="M16.0162 14.0077C15.8272 14.0077 15.6592 13.9447 15.5122 13.8187C15.3862 13.6927 15.3022 13.5247 15.2812 13.3358C15.2812 13.2308 15.3022 13.1468 15.3442 13.0628C15.3862 12.9788 15.4282 12.8948 15.5122 12.8318C15.5752 12.7688 15.6592 12.7058 15.7432 12.6848C15.8272 12.6428 15.9322 12.6428 16.0162 12.6428C16.1002 12.6428 16.2052 12.6638 16.2891 12.6848C16.3731 12.7058 16.4571 12.7688 16.5201 12.8318C16.5831 12.8948 16.6461 12.9788 16.6671 13.0628C16.7091 13.1468 16.7091 13.2308 16.7091 13.3358C16.7091 13.4197 16.6881 13.5247 16.6671 13.6087C16.6251 13.6927 16.5831 13.7767 16.5201 13.8397C16.4571 13.9027 16.3731 13.9657 16.2891 13.9867C16.2052 13.9867 16.1212 14.0077 16.0162 14.0077Z" fill="white"/>
<path d="M16.0152 35.9084C16.0992 35.9084 16.2042 35.9084 16.2882 35.9504C16.3722 35.9924 16.4561 36.0344 16.5191 36.0974C16.5821 36.1604 16.6451 36.2444 16.6871 36.3284C16.7291 36.4124 16.7501 36.4964 16.7501 36.6014C16.7501 36.7904 16.6661 36.9583 16.5401 37.0843C16.4141 37.2103 16.2252 37.2943 16.0572 37.2943C15.8682 37.2943 15.7002 37.2313 15.5532 37.1053C15.4273 36.9793 15.3433 36.8114 15.3223 36.6224C15.3223 36.5384 15.3433 36.4334 15.3643 36.3494C15.4063 36.2654 15.4483 36.1814 15.5112 36.1184C15.5742 36.0554 15.6582 35.9924 15.7422 35.9714C15.8262 35.9294 15.9102 35.9084 16.0152 35.9084Z" fill="white"/>
<path d="M27.5865 25.7032C27.5025 25.7032 27.3975 25.7032 27.3135 25.6612C27.2295 25.6402 27.1455 25.5772 27.0825 25.5142C27.0195 25.4513 26.9566 25.3673 26.9146 25.2833C26.8726 25.1993 26.8516 25.1153 26.8516 25.0103C26.8516 24.9263 26.8726 24.8213 26.8936 24.7373C26.9356 24.6533 26.9775 24.5694 27.0405 24.5064C27.1035 24.4434 27.1875 24.3804 27.2715 24.3384C27.3555 24.2964 27.4395 24.2754 27.5445 24.2754C27.6495 24.2754 27.7335 24.2754 27.8175 24.3174C27.9014 24.3594 27.9854 24.4014 28.0694 24.4644C28.1324 24.5274 28.1954 24.6114 28.2374 24.6953C28.2794 24.7793 28.3004 24.8843 28.3004 24.9683C28.3004 25.0523 28.2794 25.1573 28.2584 25.2413C28.2164 25.3253 28.1744 25.4093 28.1114 25.4722C28.0484 25.5352 27.9644 25.5982 27.8804 25.6192C27.7755 25.6822 27.6915 25.7032 27.5865 25.7032Z" fill="white"/>
<path d="M21.7906 19.8451C21.7066 19.8451 21.6016 19.8241 21.5176 19.8031C21.4336 19.7611 21.3496 19.7191 21.2866 19.6561C21.2236 19.5931 21.1606 19.5091 21.1397 19.4251C21.0977 19.3411 21.0977 19.2361 21.0977 19.1522C21.0977 19.0472 21.1187 18.9632 21.1606 18.8792C21.2026 18.7952 21.2446 18.7112 21.3286 18.6482C21.3916 18.5852 21.4756 18.5222 21.5596 18.5012C21.6436 18.4592 21.7486 18.4592 21.8326 18.4592C21.9166 18.4592 22.0216 18.4802 22.1056 18.5222C22.1895 18.5642 22.2735 18.6062 22.3365 18.6902C22.3995 18.7532 22.4415 18.8372 22.4835 18.9212C22.5255 19.0052 22.5255 19.1102 22.5255 19.1942C22.5255 19.2781 22.5045 19.3831 22.4835 19.4671C22.4415 19.5511 22.3995 19.6351 22.3155 19.6981C22.2525 19.7611 22.1685 19.8031 22.0846 19.8451C21.9586 19.8451 21.8746 19.8661 21.7906 19.8451Z" fill="white"/>
</svg>
