<svg width="113" height="112" viewBox="0 0 113 112" fill="none" xmlns="http://www.w3.org/2000/svg">
<g clip-path="url(#clip0_1014_2928)">
<path opacity="0.44" d="M56.4648 100.893C81.2583 100.893 101.357 80.7935 101.357 56C101.357 31.2065 81.2583 11.1074 56.4648 11.1074C31.6714 11.1074 11.5723 31.2065 11.5723 56C11.5723 80.7935 31.6714 100.893 56.4648 100.893Z" fill="#E3E7F2"/>
<path fill-rule="evenodd" clip-rule="evenodd" d="M56.4649 111.537C87.1373 111.537 112.002 86.6723 112.002 56C112.002 25.3276 87.1373 0.462769 56.4649 0.462769C25.7926 0.462769 0.927734 25.3276 0.927734 56C0.927734 86.6723 25.7926 111.537 56.4649 111.537Z" stroke="#1A45C2" stroke-width="2"/>
<path fill-rule="evenodd" clip-rule="evenodd" d="M16.8945 16.4297H96.035V95.5702H16.8945V16.4297Z" stroke="#A4C2F7"/>
<path fill-rule="evenodd" clip-rule="evenodd" d="M66.1841 56C66.1841 86.2889 61.8328 110.843 56.4651 110.843C51.0974 110.843 46.7461 86.2889 46.7461 56C46.7461 25.711 51.0974 1.15698 56.4651 1.15698C61.8328 1.15698 66.1841 25.711 66.1841 56Z" stroke="#A4C2F7"/>
<path fill-rule="evenodd" clip-rule="evenodd" d="M56.4641 65.719C86.753 65.719 111.307 61.3677 111.307 56C111.307 50.6324 86.753 46.281 56.4641 46.281C26.1751 46.281 1.62109 50.6324 1.62109 56C1.62109 61.3677 26.1751 65.719 56.4641 65.719Z" stroke="#A4C2F7"/>
<path d="M16.7539 15.972L96.6072 95.7448" stroke="#A4C2F7"/>
<path fill-rule="evenodd" clip-rule="evenodd" d="M96.6912 15.972L16.8379 95.7448L96.6912 15.972Z" stroke="#A4C2F7"/>
<path d="M17.0747 22.1019C19.858 22.1019 22.1143 19.8479 22.1143 17.0674C22.1143 14.287 19.858 12.033 17.0747 12.033C14.2914 12.033 12.0352 14.287 12.0352 17.0674C12.0352 19.8479 14.2914 22.1019 17.0747 22.1019Z" fill="#1B46C2"/>
<path d="M96.2153 21.6391C98.9986 21.6391 101.255 19.3851 101.255 16.6047C101.255 13.8242 98.9986 11.5702 96.2153 11.5702C93.4321 11.5702 91.1758 13.8242 91.1758 16.6047C91.1758 19.3851 93.4321 21.6391 96.2153 21.6391Z" fill="#1B46C2"/>
<path d="M96.2154 17.9398C96.9535 17.9398 97.5519 17.3421 97.5519 16.6047C97.5519 15.8673 96.9535 15.2695 96.2154 15.2695C95.4773 15.2695 94.8789 15.8673 94.8789 16.6047C94.8789 17.3421 95.4773 17.9398 96.2154 17.9398Z" fill="white"/>
<path d="M96.2153 100.317C98.9986 100.317 101.255 98.0629 101.255 95.2824C101.255 92.5019 98.9986 90.2479 96.2153 90.2479C93.4321 90.2479 91.1758 92.5019 91.1758 95.2824C91.1758 98.0629 93.4321 100.317 96.2153 100.317Z" fill="#1B46C2"/>
<path d="M17.0747 100.78C19.858 100.78 22.1143 98.5256 22.1143 95.7452C22.1143 92.9647 19.858 90.7107 17.0747 90.7107C14.2914 90.7107 12.0352 92.9647 12.0352 95.7452C12.0352 98.5256 14.2914 100.78 17.0747 100.78Z" fill="#1B46C2"/>
<path d="M17.0748 18.4026C17.8129 18.4026 18.4113 17.8048 18.4113 17.0675C18.4113 16.3301 17.8129 15.7323 17.0748 15.7323C16.3367 15.7323 15.7383 16.3301 15.7383 17.0675C15.7383 17.8048 16.3367 18.4026 17.0748 18.4026Z" fill="white"/>
<path d="M96.2154 96.6176C96.9535 96.6176 97.5519 96.0198 97.5519 95.2824C97.5519 94.545 96.9535 93.9473 96.2154 93.9473C95.4773 93.9473 94.8789 94.545 94.8789 95.2824C94.8789 96.0198 95.4773 96.6176 96.2154 96.6176Z" fill="white"/>
<path d="M17.0748 97.0803C17.8129 97.0803 18.4113 96.4826 18.4113 95.7452C18.4113 95.0078 17.8129 94.41 17.0748 94.41C16.3367 94.41 15.7383 95.0078 15.7383 95.7452C15.7383 96.4826 16.3367 97.0803 17.0748 97.0803Z" fill="white"/>
</g>
<defs>
<clipPath id="clip0_1014_2928">
<rect width="112" height="112" fill="white" transform="translate(0.464844)"/>
</clipPath>
</defs>
</svg>
