<svg width="119" height="121" viewBox="0 0 119 121" fill="none" xmlns="http://www.w3.org/2000/svg">
<g clip-path="url(#clip0_1014_2914)">
<path fill-rule="evenodd" clip-rule="evenodd" d="M59.4651 35.1404L79.8013 42.4448V64.5136C76.5597 74.4568 69.89 81.4589 59.792 85.5199L59.4651 85.6499L59.1381 85.5199C49.0402 81.4589 42.3704 74.4568 39.1289 64.5136V42.4448L59.4651 35.1404Z" fill="#F3F5F9"/>
<path fill-rule="evenodd" clip-rule="evenodd" d="M59.4916 120.57C84.0475 110.929 100.237 94.1546 108.076 70.2331V17.6532L59.4912 0.267578L10.9062 17.6532V70.2331C18.6767 93.9447 34.6513 110.634 58.8459 120.314L58.8451 120.314L59.4916 120.57Z" stroke="#A4C2F7"/>
<path fill-rule="evenodd" clip-rule="evenodd" d="M59.04 97.2074C44.1878 91.2649 34.3789 81.012 29.6133 66.4486V34.1462L59.4916 23.4546L89.3699 34.1462V66.4486C84.5562 81.1591 74.5967 91.4716 59.4916 97.3861L59.04 97.2074Z" stroke="#1B46C2" stroke-width="2"/>
<path d="M53.8343 70.4822C85.7943 86.8328 114.267 95.0355 117.429 88.8035C120.592 82.5714 97.2469 64.2646 65.2868 47.914C33.3267 31.5634 4.85422 23.3607 1.69168 29.5927C-1.47086 35.8247 21.8742 54.1316 53.8343 70.4822Z" stroke="#1B46C2" stroke-width="1.86624" stroke-linecap="round" stroke-linejoin="round"/>
<path d="M16.8633 25.3105V25.4428" stroke="#9B9B9B" stroke-width="0.5" stroke-dasharray="0.23 0.23 0.23 0.23"/>
<path d="M30.0972 62.5007C33.2899 62.5007 35.8781 59.9046 35.8781 56.7022C35.8781 53.4999 33.2899 50.9038 30.0972 50.9038C26.9046 50.9038 24.3164 53.4999 24.3164 56.7022C24.3164 59.9046 26.9046 62.5007 30.0972 62.5007Z" fill="#1B46C2"/>
<path d="M30.0975 58.2401C30.9442 58.2401 31.6306 57.5516 31.6306 56.7023C31.6306 55.853 30.9442 55.1646 30.0975 55.1646C29.2508 55.1646 28.5645 55.853 28.5645 56.7023C28.5645 57.5516 29.2508 58.2401 30.0975 58.2401Z" fill="white"/>
<path d="M89.4664 66.5195C92.659 66.5195 95.2472 63.9234 95.2472 60.721C95.2472 57.5187 92.659 54.9226 89.4664 54.9226C86.2737 54.9226 83.6855 57.5187 83.6855 60.721C83.6855 63.9234 86.2737 66.5195 89.4664 66.5195Z" fill="#1B46C2"/>
<path d="M89.4667 62.2587C90.3134 62.2587 90.9998 61.5703 90.9998 60.721C90.9998 59.8717 90.3134 59.1832 89.4667 59.1832C88.62 59.1832 87.9336 59.8717 87.9336 60.721C87.9336 61.5703 88.62 62.2587 89.4667 62.2587Z" fill="white"/>
</g>
<defs>
<clipPath id="clip0_1014_2914">
<rect width="118" height="121" fill="white" transform="translate(0.464844)"/>
</clipPath>
</defs>
</svg>
