<svg width="120" height="123" viewBox="0 0 120 123" fill="none" xmlns="http://www.w3.org/2000/svg">
<g clip-path="url(#clip0_1014_2894)">
<mask id="mask0_1014_2894" style="mask-type:alpha" maskUnits="userSpaceOnUse" x="50" y="21" width="52" height="67">
<path d="M50.0195 21.8899H101.826V72.5188L83.3035 87.5594H51.0768L50.8125 71.9238L50.0195 71.6632V21.8899Z" fill="white"/>
</mask>
<g mask="url(#mask0_1014_2894)">
<path d="M51.1885 122.288C78.8087 122.288 101.199 99.9159 101.199 72.319C101.199 44.722 78.8087 22.3502 51.1885 22.3502C23.5683 22.3502 1.17773 44.722 1.17773 72.319C1.17773 99.9159 23.5683 122.288 51.1885 122.288Z" stroke="#A4C2F7"/>
<path d="M51.8456 111.013C73.596 111.013 91.2282 93.3953 91.2282 71.6632C91.2282 49.931 73.596 32.3136 51.8456 32.3136C30.0951 32.3136 12.4629 49.931 12.4629 71.6632C12.4629 93.3953 30.0951 111.013 51.8456 111.013Z" fill="#F3F5F9"/>
</g>
<mask id="mask1_1014_2894" style="mask-type:alpha" maskUnits="userSpaceOnUse" x="-2" y="71" width="54" height="53">
<path d="M51.2447 71.6024H-1.07422V123.365H51.2447V71.6024Z" fill="white"/>
</mask>
<g mask="url(#mask1_1014_2894)">
<path d="M51.2438 122.488C79.0056 122.488 101.511 100.001 101.511 72.2626C101.511 44.5241 79.0056 22.0376 51.2438 22.0376C23.482 22.0376 0.976562 44.5241 0.976562 72.2626C0.976562 100.001 23.482 122.488 51.2438 122.488Z" stroke="#1B46C2" stroke-width="2"/>
</g>
<path fill-rule="evenodd" clip-rule="evenodd" d="M65.1619 72.4363H51.0975V91.3331L50.2327 90.5188C48.8209 89.1894 46.9668 88.4371 44.9937 88.4371C40.7638 88.4371 37.334 91.8779 37.334 96.1234C37.334 100.369 40.7637 103.81 44.9937 103.81C46.9669 103.81 48.821 103.058 50.2327 101.728L51.0975 100.914V122.481C78.433 121.999 100.502 99.8611 100.983 72.4363H82.8008C83.3849 73.7024 83.6934 75.0868 83.6934 76.5148C83.6934 81.8944 79.3455 86.2562 73.9812 86.2562C68.6171 86.2562 64.2694 81.8944 64.2694 76.5148C64.2694 75.0868 64.5779 73.7025 65.1619 72.4363Z" fill="white" stroke="#1B46C2" stroke-width="2"/>
<path fill-rule="evenodd" clip-rule="evenodd" d="M35.7118 71.4113H50.0484V52.8898L50.9123 53.6998C52.2998 55.0008 54.1223 55.737 56.0619 55.737C60.2195 55.737 63.5898 52.3706 63.5898 48.218C63.5898 44.0649 60.2196 40.6984 56.0619 40.6984C54.1223 40.6984 52.2998 41.4346 50.9123 42.7357L50.0484 43.5458L50.0484 22.4089C23.1651 22.8852 1.46317 44.5599 0.984055 71.4113L18.8503 71.4113C18.2796 70.1737 17.9782 68.8213 17.9782 67.4264C17.9782 62.0433 22.1399 57.8181 27.4446 58.0575C32.8194 58.3001 36.5838 62.1558 36.5838 67.4264C36.5838 68.8212 36.2824 70.1736 35.7118 71.4113Z" fill="white" stroke="#1B46C2" stroke-width="2"/>
<path fill-rule="evenodd" clip-rule="evenodd" d="M69.3145 31.7371V50.7789L84.3655 50.8213L84.147 51.2035C83.3239 52.6426 83.2539 55.0203 83.6542 57.0197C84.475 61.1207 88.5646 64.1104 93.0527 64.1104C97.3612 64.1104 100.919 61.3365 102.195 56.9996C102.656 55.3873 102.277 52.8823 101.43 51.1909L101.244 50.8187L118.875 50.8787C118.533 23.2222 96.5341 0.871254 69.3145 0.519588V20.899C69.396 20.8426 69.4845 20.7795 69.5834 20.7076C69.6639 20.6491 69.9898 20.4096 69.9412 20.4452C70.092 20.3346 70.2078 20.251 70.3247 20.1688C71.6558 19.2328 72.818 18.7739 74.3829 18.7832C74.4339 18.7835 74.4768 18.7817 74.5775 18.7756C74.6834 18.7693 74.7324 18.7671 74.7959 18.7671C77.3673 18.7671 79.3541 19.8241 80.7068 21.6391C81.7634 23.0568 82.3551 24.8865 82.3551 26.32C82.3551 31.0851 78.9284 34.449 73.7243 33.8713C72.3532 33.7191 71.4395 33.2856 70.2087 32.3853C70.1457 32.3391 69.7438 32.0416 69.6288 31.9583C69.5155 31.8762 69.4121 31.8033 69.3145 31.7371Z" fill="white" stroke="#A4C2F7"/>
<path d="M74.0771 82.5135C77.3384 82.5135 79.9823 79.8746 79.9823 76.6193C79.9823 73.3639 77.3384 70.725 74.0771 70.725C70.8157 70.725 68.1719 73.3639 68.1719 76.6193C68.1719 79.8746 70.8157 82.5135 74.0771 82.5135Z" fill="#1B46C2"/>
<path d="M74.0778 78.1824C74.9427 78.1824 75.6439 77.4825 75.6439 76.6192C75.6439 75.7559 74.9427 75.056 74.0778 75.056C73.2129 75.056 72.5117 75.7559 72.5117 76.6192C72.5117 77.4825 73.2129 78.1824 74.0778 78.1824Z" fill="white"/>
</g>
<defs>
<clipPath id="clip0_1014_2894">
<rect width="119" height="123" fill="white" transform="translate(0.464844)"/>
</clipPath>
</defs>
</svg>
