<svg width="296" height="183" viewBox="0 0 296 183" fill="none" xmlns="http://www.w3.org/2000/svg">
<g opacity="0.1" clip-path="url(#clip0_235_5842)">
<path d="M213.1 148.1L274.4 112.7L335.3 148.1L274.5 183.2L274 183.5L213.1 148.1ZM274.4 114.9L217 148.1L274 181.2L331.4 148.1L274.4 114.9Z" fill="white"/>
<path d="M273.4 114.4L273.2 32.6L334.1 68L334.3 149.8L273.4 114.4ZM275.2 36L275.4 113.3L332.4 146.4L332.2 69.2L275.2 36Z" fill="white"/>
<path d="M213.9 68.5V67.9L275.2 32.5L275.4 113.7V114.3L214.1 149.7L213.9 68.5ZM273.2 36L215.8 69.1L216 146.4L273.4 113.3L273.2 36Z" fill="white"/>
<path d="M0 23.2L46.3 -3.5L92.3 23.2L46.4 49.7L46 49.9L0 23.2ZM46.3 -1.8L3 23.2L46 48.2L89.3 23.2L46.3 -1.8Z" fill="white"/>
<path d="M45.4998 -2.3L45.2998 -64L91.2998 -37.3L91.4998 24.4L45.4998 -2.3ZM46.7998 -61.4L46.9998 -3.1L89.9998 21.9L89.7998 -36.4L46.7998 -61.4Z" fill="white"/>
<path d="M0.600098 -36.9V-37.3L46.8001 -64L47.0001 -2.7V-2.3L0.700098 24.4L0.600098 -36.9ZM45.4001 -61.4L2.0001 -36.4L2.2001 21.9L45.5001 -3.1L45.4001 -61.4Z" fill="white"/>
<path d="M90.0742 21.7329L89.9336 22.1074L215.759 69.3355L215.899 68.9611L90.0742 21.7329Z" fill="#60A2D8"/>
</g>
<defs>
<clipPath id="clip0_235_5842">
<rect width="296" height="183" fill="white"/>
</clipPath>
</defs>
</svg>
