<svg width="196" height="159" viewBox="0 0 196 159" fill="none" xmlns="http://www.w3.org/2000/svg">
<g opacity="0.1" clip-path="url(#clip0_308_5032)">
<path d="M140.783 148.1L181.225 112.7L221.403 148.1L181.291 183.2L180.961 183.5L140.783 148.1ZM181.225 114.9L143.356 148.1L180.961 181.2L218.83 148.1L181.225 114.9Z" fill="white"/>
<path d="M180.566 114.4L180.434 32.6L220.611 68L220.743 149.8L180.566 114.4ZM181.753 36L181.885 113.3L219.49 146.4L219.358 69.2L181.753 36Z" fill="white"/>
<path d="M141.311 68.5V67.9L181.752 32.5L181.884 113.7V114.3L141.443 149.7L141.311 68.5ZM180.433 36L142.564 69.1L142.696 146.4L180.565 113.3L180.433 36Z" fill="white"/>
<path d="M0.193359 23.2L30.7391 -3.5L61.0869 23.2L30.8051 49.7L30.5412 49.9L0.193359 23.2ZM30.7391 -1.8L2.17256 23.2L30.5412 48.2L59.1077 23.2L30.7391 -1.8Z" fill="white"/>
<path d="M30.211 -2.3L30.0791 -64L60.4269 -37.3L60.5589 24.4L30.211 -2.3ZM31.0687 -61.4L31.2007 -3.1L59.5693 21.9L59.4373 -36.4L31.0687 -61.4Z" fill="white"/>
<path d="M0.588867 -36.9V-37.3L31.0686 -64L31.2006 -2.7V-2.3L0.654841 24.4L0.588867 -36.9ZM30.145 -61.4L1.5125 -36.4L1.64444 21.9L30.211 -3.1L30.145 -61.4Z" fill="white"/>
<path d="M59.6181 21.7329L59.5254 22.1074L142.537 69.3356L142.629 68.9611L59.6181 21.7329Z" fill="#60A2D8"/>
</g>
<defs>
<clipPath id="clip0_308_5032">
<rect width="196" height="159" fill="white"/>
</clipPath>
</defs>
</svg>
