<svg width="157" height="192" viewBox="0 0 157 192" fill="none" xmlns="http://www.w3.org/2000/svg">
<path d="M0 45.4505L78.1226 90.901L156.748 45.4505L78.6258 0L0 45.4505Z" fill="#F96F83"/>
<path opacity="0.4" d="M60.3845 134.589C58.7491 134.589 57.1137 134.337 55.6041 133.582C50.9494 131.693 47.9302 127.161 47.9302 122.125V53.8859C47.9302 48.8498 50.9494 44.3174 55.6041 42.4289C60.0071 40.5403 65.165 41.4217 68.6874 44.6951L118.505 79.1922C123.285 83.9764 123.285 91.9082 118.505 96.6925L117.75 97.322L68.6874 131.19C66.423 133.456 63.4037 134.589 60.3845 134.589ZM60.3845 52.7528C60.2587 52.7528 60.1329 52.7528 59.8813 52.8787C59.2523 53.1305 59.2523 53.76 59.2523 53.8859V122.125C59.2523 122.251 59.2523 122.88 59.8813 123.132C60.5103 123.384 60.8877 123.006 61.0135 122.88L61.7683 122.251L110.705 88.5089C110.831 88.1312 110.831 87.7535 110.705 87.5017L61.1393 53.1305C61.0135 53.0046 60.7619 52.7528 60.3845 52.7528Z" fill="white"/>
<path d="M0 45.4505L0.251603 146.55L78.3742 192L78.1226 90.901L0 45.4505Z" fill="#E22440"/>
<path opacity="0.5" d="M60.3845 134.589C58.7491 134.589 57.1137 134.337 55.6041 133.582C50.9494 131.693 47.9302 127.161 47.9302 122.125V53.8859C47.9302 48.8498 50.9494 44.3174 55.6041 42.4289C60.0071 40.5403 65.165 41.4217 68.6874 44.6951L118.505 79.1922C123.285 83.9764 123.285 91.9082 118.505 96.6925L117.75 97.322L68.6874 131.19C66.423 133.456 63.4037 134.589 60.3845 134.589ZM60.3845 52.7528C60.2587 52.7528 60.1329 52.7528 59.8813 52.8787C59.2523 53.1305 59.2523 53.76 59.2523 53.8859V122.125C59.2523 122.251 59.2523 122.88 59.8813 123.132C60.5103 123.384 60.8877 123.006 61.0135 122.88L61.7683 122.251L110.705 88.5089C110.831 88.1312 110.831 87.7535 110.705 87.5017L61.1393 53.1305C61.0135 53.0046 60.7619 52.7528 60.3845 52.7528Z" fill="white"/>
<path d="M78.1226 90.901L78.3742 192L157 146.55L156.748 45.4505L78.1226 90.901Z" fill="#ED445D"/>
<path opacity="0.4" d="M60.3845 134.589C58.7491 134.589 57.1137 134.337 55.6041 133.582C50.9494 131.693 47.9302 127.161 47.9302 122.125V53.8859C47.9302 48.8498 50.9494 44.3174 55.6041 42.4289C60.0071 40.5403 65.165 41.4217 68.6874 44.6951L118.505 79.1922C123.285 83.9764 123.285 91.9082 118.505 96.6925L117.75 97.322L68.6874 131.19C66.423 133.456 63.4037 134.589 60.3845 134.589ZM60.3845 52.7528C60.2587 52.7528 60.1329 52.7528 59.8813 52.8787C59.2523 53.1305 59.2523 53.76 59.2523 53.8859V122.125C59.2523 122.251 59.2523 122.88 59.8813 123.132C60.5103 123.384 60.8877 123.006 61.0135 122.88L61.7683 122.251L110.705 88.5089C110.831 88.1312 110.831 87.7535 110.705 87.5017L61.1393 53.1305C61.0135 53.0046 60.7619 52.7528 60.3845 52.7528Z" fill="white"/>
</svg>
