<svg width="132" height="39" viewBox="0 0 132 39" fill="none" xmlns="http://www.w3.org/2000/svg">
<g clip-path="url(#clip0_235_5873)">
<g style="mix-blend-mode:difference">
<g style="mix-blend-mode:difference">
<g style="mix-blend-mode:difference">
<path d="M17.9996 14.1099L22.7709 16.8055V22.1967L17.9996 24.8923L13.2284 22.1967V16.8042L17.9996 14.1099ZM17.9996 13.1437C17.8268 13.1435 17.6569 13.188 17.5061 13.2729L12.7348 15.9685C12.5859 16.0513 12.4617 16.1725 12.3749 16.3196C12.2882 16.4667 12.242 16.6345 12.2412 16.8055V22.1967C12.2421 22.3678 12.2883 22.5355 12.375 22.6826C12.4618 22.8297 12.586 22.9509 12.7348 23.0337L17.5061 25.7293C17.657 25.8143 17.827 25.8589 18 25.8589C18.1729 25.8589 18.343 25.8143 18.4939 25.7293L23.2652 23.0337C23.414 22.9509 23.5382 22.8297 23.6249 22.6826C23.7117 22.5355 23.7579 22.3678 23.7588 22.1967V16.8042C23.7579 16.6331 23.7117 16.4654 23.6249 16.3183C23.5382 16.1712 23.414 16.05 23.2652 15.9672L18.4939 13.2716C18.3431 13.1867 18.1731 13.1422 18.0003 13.1423" fill="white"/>
</g>
<g style="mix-blend-mode:difference">
<path d="M18.0003 1.77177L33.6895 10.6361V28.3639L18.0003 37.2282L11.2017 33.3859V28.0836L16.9534 31.3331C17.2739 31.5133 17.6351 31.608 18.0024 31.608C18.3697 31.608 18.7308 31.5133 19.0514 31.3331L27.9501 26.3057C28.2664 26.1299 28.5303 25.8725 28.7147 25.56C28.8991 25.2475 28.9973 24.8912 28.9992 24.5277V14.4757C28.9972 14.1123 28.899 13.756 28.7146 13.4435C28.5302 13.131 28.2663 12.8736 27.9501 12.6978L19.0487 7.66693C18.7281 7.48666 18.3669 7.39201 17.9997 7.39201C17.6324 7.39201 17.2712 7.48666 16.9506 7.66693L8.05191 12.6943C7.73571 12.8701 7.47181 13.1275 7.28743 13.4401C7.10304 13.7526 7.00482 14.1089 7.00288 14.4723V31.0151L2.31183 28.3639V10.6361L18.0003 1.77177ZM18.0003 1.23387e-06C17.6832 -0.00036623 17.3714 0.0813487 17.0948 0.237285L1.40558 9.10157C1.1326 9.25324 0.904772 9.47538 0.745591 9.74511C0.58641 10.0148 0.501633 10.3224 0.5 10.6361L0.5 28.3639C0.501633 28.6776 0.58641 28.9852 0.745591 29.2549C0.904772 29.5246 1.1326 29.7468 1.40558 29.8984L6.09663 32.5496C6.37326 32.7052 6.68492 32.7869 7.00187 32.7869C7.31881 32.7869 7.63047 32.7052 7.9071 32.5496C8.18008 32.3979 8.40791 32.1758 8.56709 31.906C8.72627 31.6363 8.81105 31.3288 8.81268 31.0151V14.4723C8.81312 14.4225 8.82669 14.3737 8.85201 14.3309C8.87734 14.2882 8.9135 14.2529 8.95681 14.2288L17.8555 9.20141C17.8994 9.17661 17.949 9.16359 17.9993 9.16359C18.0497 9.16359 18.0992 9.17661 18.1431 9.20141L27.0418 14.2288C27.085 14.253 27.121 14.2883 27.1462 14.3311C27.1714 14.3738 27.1849 14.4225 27.1853 14.4723V24.5243C27.1849 24.5741 27.1714 24.6229 27.146 24.6657C27.1207 24.7085 27.0845 24.7437 27.0412 24.7678L18.1438 29.7986C18.0999 29.8233 18.0504 29.8363 18 29.8363C17.9497 29.8363 17.9001 29.8233 17.8562 29.7986L12.1046 26.5491C11.828 26.3934 11.5163 26.3117 11.1993 26.3117C10.8824 26.3117 10.5707 26.3934 10.2941 26.5491C10.0211 26.7007 9.79321 26.9228 9.63402 27.1926C9.47483 27.4623 9.39008 27.7699 9.38852 28.0836V33.3859C9.39016 33.6995 9.47493 34.0071 9.63411 34.2768C9.79329 34.5466 10.0211 34.7687 10.2941 34.9204L17.0927 38.7627C17.3693 38.9184 17.681 39.0001 17.998 39.0001C18.3149 39.0001 18.6266 38.9184 18.9032 38.7627L34.5944 29.8984C34.8674 29.7468 35.0952 29.5246 35.2544 29.2549C35.4136 28.9852 35.4984 28.6776 35.5 28.3639V10.6361C35.4984 10.3224 35.4137 10.0148 35.2545 9.74506C35.0953 9.47531 34.8675 9.25318 34.5944 9.10157L18.9052 0.237285C18.6288 0.0815481 18.3172 -0.000156998 18.0003 1.23387e-06Z" fill="white"/>
</g>
</g>
</g>
</g>
<path d="M60.9375 20C60.9375 21.6875 60.6328 23.1458 60.0234 24.375C59.4141 25.6042 58.5781 26.5521 57.5156 27.2188C56.4531 27.8854 55.2396 28.2187 53.875 28.2187C52.5104 28.2187 51.2969 27.8854 50.2344 27.2188C49.1719 26.5521 48.3359 25.6042 47.7266 24.375C47.1172 23.1458 46.8125 21.6875 46.8125 20C46.8125 18.3125 47.1172 16.8542 47.7266 15.625C48.3359 14.3958 49.1719 13.4479 50.2344 12.7812C51.2969 12.1146 52.5104 11.7812 53.875 11.7812C55.2396 11.7812 56.4531 12.1146 57.5156 12.7812C58.5781 13.4479 59.4141 14.3958 60.0234 15.625C60.6328 16.8542 60.9375 18.3125 60.9375 20ZM59.0625 20C59.0625 18.6146 58.8307 17.4453 58.3672 16.4922C57.9089 15.5391 57.2865 14.8177 56.5 14.3281C55.7188 13.8385 54.8438 13.5937 53.875 13.5937C52.9063 13.5937 52.0286 13.8385 51.2422 14.3281C50.4609 14.8177 49.8385 15.5391 49.375 16.4922C48.9167 17.4453 48.6875 18.6146 48.6875 20C48.6875 21.3854 48.9167 22.5547 49.375 23.5078C49.8385 24.4609 50.4609 25.1823 51.2422 25.6719C52.0286 26.1615 52.9063 26.4062 53.875 26.4062C54.8438 26.4062 55.7188 26.1615 56.5 25.6719C57.2865 25.1823 57.9089 24.4609 58.3672 23.5078C58.8307 22.5547 59.0625 21.3854 59.0625 20ZM63.9453 32.5V16H65.7266V17.9062H65.9453C66.0807 17.6979 66.2682 17.4323 66.5078 17.1094C66.7526 16.7812 67.1016 16.4896 67.5547 16.2344C68.013 15.974 68.6328 15.8438 69.4141 15.8438C70.4245 15.8438 71.3151 16.0964 72.0859 16.6016C72.8568 17.1068 73.4583 17.8229 73.8906 18.75C74.3229 19.6771 74.5391 20.7708 74.5391 22.0313C74.5391 23.3021 74.3229 24.4036 73.8906 25.3359C73.4583 26.263 72.8594 26.9818 72.0938 27.4922C71.3281 27.9974 70.4453 28.25 69.4453 28.25C68.6745 28.25 68.0573 28.1224 67.5938 27.8672C67.1302 27.6068 66.7734 27.3125 66.5234 26.9844C66.2734 26.651 66.0807 26.375 65.9453 26.1562H65.7891V32.5H63.9453ZM65.7578 22C65.7578 22.9062 65.8906 23.7057 66.1562 24.3984C66.4219 25.0859 66.8099 25.625 67.3203 26.0156C67.8307 26.401 68.4557 26.5938 69.1953 26.5938C69.9661 26.5938 70.6094 26.3906 71.125 25.9844C71.6458 25.5729 72.0365 25.0208 72.2969 24.3281C72.5625 23.6302 72.6953 22.8542 72.6953 22C72.6953 21.1562 72.5651 20.3958 72.3047 19.7187C72.0495 19.0365 71.6615 18.4974 71.1406 18.1016C70.625 17.7005 69.9766 17.5 69.1953 17.5C68.4453 17.5 67.8151 17.6901 67.3047 18.0703C66.7943 18.4453 66.4089 18.9714 66.1484 19.6484C65.888 20.3203 65.7578 21.1042 65.7578 22ZM84.9141 23.0937V16H86.7578V28H84.9141V25.9687H84.7891C84.5078 26.5781 84.0703 27.0964 83.4766 27.5234C82.8828 27.9453 82.1328 28.1563 81.2266 28.1563C80.4766 28.1563 79.8099 27.9922 79.2266 27.6641C78.6432 27.3307 78.1849 26.8307 77.8516 26.1641C77.5182 25.4922 77.3516 24.6458 77.3516 23.625V16H79.1953V23.5C79.1953 24.375 79.4401 25.0729 79.9297 25.5938C80.4245 26.1146 81.0547 26.375 81.8203 26.375C82.2786 26.375 82.7448 26.2578 83.2188 26.0234C83.6979 25.7891 84.099 25.4297 84.4219 24.9453C84.75 24.4609 84.9141 23.8437 84.9141 23.0937ZM91.9785 12V28H90.1348V12H91.9785ZM100.23 28.25C99.1471 28.25 98.1966 27.9922 97.3789 27.4766C96.5664 26.9609 95.931 26.2396 95.4727 25.3125C95.0195 24.3854 94.793 23.3021 94.793 22.0625C94.793 20.8125 95.0195 19.7214 95.4727 18.7891C95.931 17.8568 96.5664 17.1328 97.3789 16.6172C98.1966 16.1016 99.1471 15.8438 100.23 15.8438C101.314 15.8438 102.262 16.1016 103.074 16.6172C103.892 17.1328 104.527 17.8568 104.98 18.7891C105.439 19.7214 105.668 20.8125 105.668 22.0625C105.668 23.3021 105.439 24.3854 104.98 25.3125C104.527 26.2396 103.892 26.9609 103.074 27.4766C102.262 27.9922 101.314 28.25 100.23 28.25ZM100.23 26.5938C101.053 26.5938 101.73 26.3828 102.262 25.9609C102.793 25.5391 103.186 24.9844 103.441 24.2969C103.697 23.6094 103.824 22.8646 103.824 22.0625C103.824 21.2604 103.697 20.513 103.441 19.8203C103.186 19.1276 102.793 18.5677 102.262 18.1406C101.73 17.7135 101.053 17.5 100.23 17.5C99.4076 17.5 98.7305 17.7135 98.1992 18.1406C97.668 18.5677 97.2747 19.1276 97.0195 19.8203C96.7643 20.513 96.6367 21.2604 96.6367 22.0625C96.6367 22.8646 96.7643 23.6094 97.0195 24.2969C97.2747 24.9844 97.668 25.5391 98.1992 25.9609C98.7305 26.3828 99.4076 26.5938 100.23 26.5938ZM116.045 23.0937V16H117.889V28H116.045V25.9687H115.92C115.639 26.5781 115.201 27.0964 114.607 27.5234C114.014 27.9453 113.264 28.1563 112.357 28.1563C111.607 28.1563 110.941 27.9922 110.357 27.6641C109.774 27.3307 109.316 26.8307 108.982 26.1641C108.649 25.4922 108.482 24.6458 108.482 23.625V16H110.326V23.5C110.326 24.375 110.571 25.0729 111.061 25.5938C111.555 26.1146 112.186 26.375 112.951 26.375C113.41 26.375 113.876 26.2578 114.35 26.0234C114.829 25.7891 115.23 25.4297 115.553 24.9453C115.881 24.4609 116.045 23.8437 116.045 23.0937ZM129.766 18.6875L128.109 19.1562C128.005 18.8802 127.852 18.612 127.648 18.3516C127.451 18.0859 127.18 17.8672 126.836 17.6953C126.492 17.5234 126.052 17.4375 125.516 17.4375C124.781 17.4375 124.169 17.6068 123.68 17.9453C123.195 18.2786 122.953 18.7031 122.953 19.2187C122.953 19.6771 123.12 20.0391 123.453 20.3047C123.786 20.5703 124.307 20.7917 125.016 20.9687L126.797 21.4063C127.87 21.6667 128.669 22.0651 129.195 22.6016C129.721 23.1328 129.984 23.8177 129.984 24.6562C129.984 25.3437 129.786 25.9583 129.391 26.5C129 27.0417 128.453 27.4688 127.75 27.7813C127.047 28.0938 126.229 28.25 125.297 28.25C124.073 28.25 123.06 27.9844 122.258 27.4531C121.456 26.9219 120.948 26.1458 120.734 25.125L122.484 24.6875C122.651 25.3333 122.966 25.8177 123.43 26.1406C123.898 26.4635 124.51 26.625 125.266 26.625C126.125 26.625 126.807 26.4427 127.312 26.0781C127.823 25.7083 128.078 25.2656 128.078 24.75C128.078 24.3333 127.932 23.9844 127.641 23.7031C127.349 23.4167 126.901 23.2031 126.297 23.0625L124.297 22.5937C123.198 22.3333 122.391 21.9297 121.875 21.3828C121.365 20.8307 121.109 20.1406 121.109 19.3125C121.109 18.6354 121.299 18.0365 121.68 17.5156C122.065 16.9948 122.589 16.5859 123.25 16.2891C123.917 15.9922 124.672 15.8438 125.516 15.8438C126.703 15.8438 127.635 16.1042 128.313 16.625C128.995 17.1458 129.479 17.8333 129.766 18.6875Z" fill="white"/>
<defs>
<clipPath id="clip0_235_5873">
<rect width="35" height="39" fill="white" transform="translate(0.5)"/>
</clipPath>
</defs>
</svg>
