<svg width="36" height="36" viewBox="0 0 36 36" fill="none" xmlns="http://www.w3.org/2000/svg">
<path fill-rule="evenodd" clip-rule="evenodd" d="M20.3392 1.88277C20.7046 1.99768 21.0239 2.22617 21.2505 2.53501C21.4771 2.84384 21.5993 3.21692 21.5992 3.59997V12.6H28.7992C29.1285 12.5998 29.4515 12.69 29.733 12.8607C30.0146 13.0313 30.244 13.2759 30.3962 13.5679C30.5484 13.8599 30.6176 14.188 30.5963 14.5165C30.5749 14.8451 30.4639 15.1615 30.2752 15.4314L17.6752 33.4314C17.4559 33.7455 17.1421 33.9815 16.7795 34.105C16.4168 34.2285 16.0241 34.2331 15.6587 34.118C15.2932 34.003 14.974 33.7743 14.7475 33.4653C14.521 33.1563 14.399 32.7831 14.3992 32.4V23.4H7.19924C6.86999 23.4001 6.547 23.3099 6.26543 23.1393C5.98386 22.9686 5.7545 22.724 5.6023 22.432C5.4501 22.1401 5.38089 21.812 5.40222 21.4834C5.42354 21.1548 5.53458 20.8384 5.72324 20.5686L18.3232 2.56857C18.5429 2.25498 18.8567 2.01959 19.2193 1.89659C19.5818 1.77358 19.9741 1.76937 20.3392 1.88457V1.88277Z" fill="white"/>
</svg>
