<svg width="27" height="26" viewBox="0 0 27 26" fill="none" xmlns="http://www.w3.org/2000/svg">
<path d="M25.9279 5.34589C25.0099 5.74858 24.0317 6.01549 23.0119 6.14509C24.061 5.51869 24.8618 4.53435 25.2382 3.34789C24.2601 3.93109 23.1801 4.34304 22.0291 4.57292C21.1003 3.58395 19.7765 2.97144 18.3324 2.97144C15.5306 2.97144 13.2749 5.24561 13.2749 8.03355C13.2749 8.43469 13.3089 8.82041 13.3922 9.18761C9.18482 8.98241 5.4619 6.96589 2.96093 3.89406C2.5243 4.65161 2.26819 5.51869 2.26819 6.45212C2.26819 8.20481 3.17076 9.75846 4.51613 10.6579C3.70305 10.6425 2.90539 10.4065 2.22962 10.0346C2.22962 10.0501 2.22962 10.0701 2.22962 10.0902C2.22962 12.5495 3.98384 14.5922 6.28425 15.0628C5.8723 15.1754 5.42333 15.2294 4.95739 15.2294C4.63339 15.2294 4.3063 15.2109 3.99927 15.143C4.65499 17.1472 6.51567 18.6206 8.72813 18.6685C7.0063 20.0154 4.82007 20.8269 2.45333 20.8269C2.0383 20.8269 1.64024 20.8084 1.24219 20.7575C3.48396 22.2031 6.14076 23.0286 9.00585 23.0286C18.3185 23.0286 23.41 15.3143 23.41 8.62755C23.41 8.40384 23.4022 8.18784 23.3914 7.97338C24.3958 7.26058 25.2398 6.37035 25.9279 5.34589Z" fill="#E22440"/>
</svg>
