<svg width="126" height="30" viewBox="0 0 126 30" fill="none" xmlns="http://www.w3.org/2000/svg">
<path d="M32.4678 15.1589C32.4148 15.1868 32.412 15.2454 32.3869 15.2901C32.2251 15.5885 31.9043 15.7308 31.5835 15.6471C31.2654 15.5634 31.0478 15.2705 31.059 14.9386C31.0702 14.615 31.3017 14.3332 31.6141 14.2718C31.9461 14.2049 32.2697 14.3723 32.4092 14.6819C32.4287 14.7238 32.4259 14.7768 32.4678 14.8074C32.4678 14.9246 32.4678 15.0418 32.4678 15.1589Z" fill="#0033AC"/>
<path d="M0 14.8746C0.0195276 14.8327 0.0418448 14.7881 0.0613724 14.7462C0.203645 14.4422 0.518876 14.2776 0.845266 14.3445C1.16887 14.4115 1.40599 14.6904 1.41436 15.0168C1.41994 15.3432 1.19397 15.6445 0.884321 15.7226C0.560721 15.8035 0.239911 15.6557 0.0809003 15.3572C0.0557934 15.3125 0.0530032 15.254 0.0027894 15.2233C-2.55442e-07 15.1061 0 14.9889 0 14.8746Z" fill="#0033AC"/>
<path d="M8.89844 15.0168C8.90123 13.7949 9.87482 12.8213 11.0967 12.8213C12.3074 12.8241 13.2782 13.8033 13.2726 15.0195C13.267 16.247 12.2962 17.1955 11.0437 17.1955C9.86924 17.1927 8.89565 16.2052 8.89844 15.0168Z" fill="#0033AC"/>
<path d="M11.4766 19.4551C11.4794 18.2528 12.4669 17.2764 13.6776 17.2792C14.8855 17.282 15.8563 18.2639 15.8536 19.4774C15.8508 20.6854 14.8688 21.6589 13.6553 21.6534C12.4474 21.6506 11.471 20.6658 11.4766 19.4551Z" fill="#0033AC"/>
<path d="M15.8324 10.5448C15.8296 11.7583 14.856 12.7291 13.6425 12.7235C12.4346 12.7207 11.4526 11.7332 11.461 10.5281C11.4694 9.32294 12.4569 8.33819 13.6565 8.34377C14.8644 8.34656 15.838 9.33131 15.8324 10.5448Z" fill="#0033AC"/>
<path d="M16.6289 19.4495C16.6345 18.2388 17.6193 17.268 18.83 17.2736C20.0379 17.2792 21.0171 18.2695 21.0059 19.4746C20.9947 20.6742 20.0156 21.6478 18.8132 21.645C17.6109 21.645 16.6234 20.6519 16.6289 19.4495Z" fill="#0033AC"/>
<path d="M21.3726 17.1675C20.1953 17.1815 19.2162 16.2135 19.1994 15.0195C19.1827 13.8088 20.134 12.824 21.3391 12.8045C22.5554 12.785 23.5457 13.7335 23.5597 14.933C23.5764 16.18 22.6251 17.1508 21.3726 17.1675Z" fill="#0033AC"/>
<path d="M16.6133 10.5282C16.6133 9.32307 17.598 8.3439 18.806 8.34669C20.0027 8.34948 20.9819 9.33423 20.9791 10.531C20.9763 11.7333 19.9999 12.7125 18.8004 12.7125C17.5925 12.7125 16.6133 11.7361 16.6133 10.5282Z" fill="#0033AC"/>
<path d="M8.58571 9.32301C9.29707 9.3258 9.86616 9.89768 9.86616 10.6063C9.86337 11.3232 9.28591 11.8979 8.57176 11.8923C7.86877 11.8839 7.2941 11.3037 7.29689 10.6007C7.29967 9.8921 7.87713 9.32022 8.58571 9.32301Z" fill="#0033AC"/>
<path d="M23.8792 20.677C23.1679 20.6715 22.5988 20.0996 22.6016 19.391C22.6044 18.6741 23.1846 18.0994 23.8988 18.1078C24.6018 18.1161 25.1764 18.6992 25.1708 19.4022C25.1653 20.1107 24.5878 20.6826 23.8792 20.677Z" fill="#0033AC"/>
<path d="M17.4454 23.8238C17.4454 24.5436 16.8763 25.1126 16.1594 25.1126C15.4536 25.1126 14.8761 24.5352 14.8789 23.8322C14.8817 23.1152 15.4452 22.5462 16.151 22.5462C16.8735 22.5434 17.4454 23.1069 17.4454 23.8238Z" fill="#0033AC"/>
<path d="M16.209 7.45407C15.4893 7.45128 14.9258 6.88498 14.9258 6.16525C14.9258 5.45388 15.4977 4.88479 16.2062 4.88758C16.9204 4.89037 17.4895 5.45667 17.4923 6.16246C17.4895 6.88498 16.9232 7.45686 16.209 7.45407Z" fill="#0033AC"/>
<path d="M8.59965 20.7133C7.89107 20.7105 7.3192 20.1414 7.31641 19.4356C7.31641 18.7243 7.90223 18.1384 8.60802 18.1468C9.31101 18.1552 9.89126 18.7382 9.88568 19.4384C9.8801 20.1414 9.30543 20.7161 8.59965 20.7133Z" fill="#0033AC"/>
<path d="M25.1474 10.5616C25.1474 11.2674 24.5755 11.8477 23.8753 11.8532C23.1695 11.8588 22.5781 11.2702 22.5781 10.5672C22.5809 9.86143 23.1528 9.28955 23.8614 9.28955C24.5755 9.28955 25.1474 9.85585 25.1474 10.5616Z" fill="#0033AC"/>
<path d="M20.8906 24.9145C20.8878 24.3119 21.3705 23.8181 21.9702 23.8154C22.5812 23.8098 23.0777 24.298 23.0805 24.9005C23.0833 25.5087 22.5923 26.0024 21.9842 26.0024C21.3872 25.9997 20.8962 25.5115 20.8906 24.9145Z" fill="#0033AC"/>
<path d="M10.5372 23.8404C11.1398 23.846 11.6252 24.3369 11.6196 24.9339C11.614 25.5365 11.1119 26.0303 10.5093 26.0247C9.90673 26.0191 9.42691 25.5281 9.4297 24.9256C9.43249 24.3174 9.92347 23.8348 10.5372 23.8404Z" fill="#0033AC"/>
<path d="M21.9401 6.15953C21.3375 6.15953 20.8466 5.67692 20.8438 5.07714C20.841 4.47458 21.3375 3.97802 21.9401 3.97523C22.5454 3.97244 23.0364 4.469 23.0308 5.07714C23.0308 5.67971 22.5482 6.15953 21.9401 6.15953Z" fill="#0033AC"/>
<path d="M4.77435 16.1185C4.16899 16.1157 3.68638 15.6359 3.68359 15.0334C3.68359 14.4252 4.17178 13.9342 4.77993 13.937C5.39087 13.9398 5.87348 14.428 5.8679 15.0389C5.86511 15.6471 5.3825 16.1213 4.77435 16.1185Z" fill="#0033AC"/>
<path d="M27.6997 13.8869C28.3022 13.8925 28.7876 14.3807 28.7821 14.9804C28.7765 15.583 28.2716 16.0824 27.6746 16.0712C27.0636 16.06 26.5894 15.5691 26.5978 14.9581C26.6089 14.3556 27.0943 13.8813 27.6997 13.8869Z" fill="#0033AC"/>
<path d="M11.5744 5.09945C11.5716 5.70481 11.0862 6.18742 10.4836 6.18463C9.88106 6.18184 9.39566 5.69086 9.39845 5.09109C9.40124 4.48852 9.89222 4.00033 10.492 4.00591C11.0946 4.0087 11.5772 4.49689 11.5744 5.09945Z" fill="#0033AC"/>
<path d="M4.03054 21.1791C4.52989 21.1763 4.93718 21.5696 4.94276 22.0634C4.94834 22.5655 4.54663 22.9784 4.04449 22.9784C3.55072 22.9812 3.14343 22.5767 3.14064 22.0857C3.13785 21.5892 3.53677 21.1819 4.03054 21.1791Z" fill="#0033AC"/>
<path d="M29.358 22.0244C29.358 22.5154 28.9563 22.9199 28.4625 22.9255C27.9631 22.931 27.5531 22.521 27.5587 22.0216C27.5614 21.5306 27.9687 21.1289 28.4625 21.1289C28.9563 21.1289 29.358 21.5306 29.358 22.0244Z" fill="#0033AC"/>
<path d="M3.10939 7.97008C3.10939 7.4791 3.51389 7.07739 4.00766 7.0746C4.50143 7.07181 4.90314 7.47352 4.90872 7.96729C4.91151 8.46385 4.50143 8.87393 4.00208 8.87114C3.50552 8.86835 3.1066 8.46664 3.10939 7.97008Z" fill="#0033AC"/>
<path d="M16.1773 30.0001C15.6835 30.0029 15.2734 29.5984 15.2734 29.1102C15.2734 28.6109 15.6835 28.198 16.1773 28.198C16.6627 28.2008 17.07 28.6109 17.0728 29.1018C17.0783 29.59 16.6711 29.9973 16.1773 30.0001Z" fill="#0033AC"/>
<path d="M17.0991 0.889902C17.0991 1.38925 16.689 1.80212 16.1952 1.80212C15.7098 1.80212 15.3025 1.38925 15.2969 0.898271C15.2914 0.41008 15.6986 0.00278966 16.1924 0C16.689 0 17.0991 0.401712 17.0991 0.889902Z" fill="#0033AC"/>
<path d="M28.4206 8.82088C27.9212 8.8181 27.5195 8.42196 27.5195 7.93098C27.5195 7.42605 27.9212 7.02713 28.4262 7.02992C28.9255 7.03271 29.3244 7.43442 29.3217 7.92819C29.3161 8.42475 28.9172 8.82367 28.4206 8.82088Z" fill="#0033AC"/>
<path d="M24.6677 1.53159C24.6705 1.91935 24.3525 2.24016 23.9647 2.24574C23.5742 2.24853 23.2589 1.92493 23.2617 1.52043C23.2645 1.13267 23.5686 0.828595 23.9591 0.825806C24.3413 0.825806 24.6649 1.14662 24.6677 1.53159Z" fill="#0033AC"/>
<path d="M9.14322 1.55946C9.14601 1.9528 8.83636 2.27082 8.4486 2.2764C8.06642 2.28198 7.74003 1.96117 7.73445 1.57341C7.72887 1.18006 8.03852 0.862043 8.43186 0.859253C8.8252 0.859253 9.14043 1.16612 9.14322 1.55946Z" fill="#0033AC"/>
<path d="M24.7294 28.449C24.7238 28.8395 24.4002 29.1492 24.0097 29.138C23.6135 29.1269 23.3095 28.8088 23.3206 28.4155C23.3318 28.0222 23.6526 27.7125 24.0403 27.7209C24.4253 27.732 24.735 28.0584 24.7294 28.449Z" fill="#0033AC"/>
<path d="M9.20174 28.4658C9.19895 28.848 8.87535 29.166 8.49038 29.166C8.10262 29.1632 7.79297 28.848 7.79297 28.4546C7.79576 28.0669 8.11378 27.7516 8.50154 27.7544C8.8893 27.7572 9.20174 28.078 9.20174 28.4658Z" fill="#0033AC"/>
<path fill-rule="evenodd" clip-rule="evenodd" d="M78.8412 18.7939L76.6513 18.7744L76.6596 11.3176L78.5622 11.3204C80.6405 11.3232 81.9181 11.9453 82.4538 13.912C83.2265 16.7435 81.3686 18.7939 78.8412 18.7939ZM73.9062 21.1707L77.4017 21.1818C79.1648 21.1874 80.8999 21.0535 82.1357 20.4705C84.002 19.5917 85.4554 17.731 85.4387 14.9469C85.422 10.2129 81.8596 8.88502 78.0907 8.87665L73.9369 8.86829L73.9062 21.1707Z" fill="#0033AC"/>
<path fill-rule="evenodd" clip-rule="evenodd" d="M65.0285 15.2733L65.0313 11.1697L67.4248 11.1502C68.7667 11.139 69.8658 11.7471 69.9049 13.1503C69.9355 14.2523 69.4083 14.919 68.4626 15.1617C68.2422 15.2175 67.8238 15.2816 67.3495 15.2789L65.0285 15.2733ZM70.4572 16.9778C72.7559 15.8145 73.4645 11.8002 71.3164 10.012C70.2647 9.13603 69.0847 8.9268 67.3105 8.92959L62.2891 8.97702L62.3253 21.0256L65.0257 20.9809L65.0341 17.5469L67.8879 17.5385L69.7096 21.0311L72.8173 20.9893L70.4572 16.9778Z" fill="#0033AC"/>
<path fill-rule="evenodd" clip-rule="evenodd" d="M52.7128 16.484L54.462 12.1294L56.2194 16.4896C55.0478 16.4896 53.8789 16.4952 52.7128 16.484ZM51.7392 18.7186L57.1874 18.7214L58.1722 21.0284L61.0985 21.0145C61.0651 20.61 58.9254 15.6918 58.5906 14.9525L56.0604 8.92407L53.0755 8.9436C52.4646 10.5337 47.9704 20.3979 47.9453 21.0312L50.7294 21.0172L51.7392 18.7186Z" fill="#0033AC"/>
<path fill-rule="evenodd" clip-rule="evenodd" d="M46.2417 12.6957L47.6895 10.7932C47.0451 9.71355 44.6962 8.77344 43.201 8.77344C33.8054 8.77344 34.9352 21.1539 42.4589 21.1679C45.8902 21.1735 46.5569 19.9907 47.7091 19.1621L46.1692 17.3042C45.6252 17.4604 43.9319 19.3044 41.6332 18.4033C37.2144 16.6682 39.6999 9.58244 44.3643 11.485C45.2932 11.8616 45.7507 12.1963 46.2417 12.6957Z" fill="#0033AC"/>
<path fill-rule="evenodd" clip-rule="evenodd" d="M90.2832 16.537L92.0295 12.1824L93.787 16.5426C92.6181 16.5426 91.452 16.5482 90.2832 16.537ZM89.3096 18.7715L94.7578 18.7743L95.7425 21.0814L98.6689 21.0674C98.6354 20.6629 96.4957 15.7448 96.161 15.0055L93.6307 8.97705L90.6458 8.99658C90.0349 10.5867 85.5407 20.4509 85.5156 21.0842L88.3025 21.0702L89.3096 18.7715Z" fill="#0033AC"/>
<path fill-rule="evenodd" clip-rule="evenodd" d="M100.008 8.92139H102.53L108.343 16.6515L108.382 8.92139H110.904L110.874 20.9309L108.371 20.9281L102.555 13.2426L102.468 20.9058H100.1L100.008 8.92139Z" fill="#0033AC"/>
<path fill-rule="evenodd" clip-rule="evenodd" d="M118.835 8.88232C122.387 8.88232 125.268 11.6469 125.268 15.0531C125.268 18.462 122.389 21.2266 118.835 21.2266C115.284 21.2266 112.402 18.462 112.402 15.0531C112.402 11.6469 115.281 8.88232 118.835 8.88232ZM118.835 11.2201C120.886 11.2201 122.546 12.9357 122.546 15.0558C122.546 17.1732 120.883 18.8916 118.835 18.8916C116.785 18.8916 115.125 17.176 115.125 15.0558C115.125 12.9385 116.785 11.2201 118.835 11.2201Z" fill="#0033AC"/>
</svg>
