<svg width="123" height="24" viewBox="0 0 123 24" fill="none" xmlns="http://www.w3.org/2000/svg">
<path d="M18.8738 0C16.0777 0 13.7476 2.33009 13.6311 5.12621V10.835C13.1651 10.835 12.5825 10.9515 12 10.9515C11.4175 10.9515 10.835 10.9515 10.3689 11.068V5.12621C10.3689 2.33009 8.03883 0 5.12621 0C2.3301 0 0.116505 2.33009 0 5.12621V18.8738C0.116505 21.6699 2.3301 24 5.24272 24C8.03884 23.8835 10.3689 21.6699 10.3689 18.8738V13.165C10.835 13.165 11.4175 13.0485 12 13.0485C12.5825 13.0485 13.1651 13.0485 13.6311 12.932V18.7573C13.7476 21.5534 15.9612 23.8835 18.8738 23.8835C21.6699 23.767 24 21.5534 24 18.7573V5.12621C24 2.33009 21.6699 0 18.8738 0ZM5.24272 2.09709C6.99029 2.09709 8.27185 3.49514 8.27185 5.12621V11.1845C6.75728 11.4175 5.24272 11.8835 3.84466 12.466C3.26214 12.8155 2.67961 13.0485 2.09709 13.5146V5.12621C2.21359 3.49514 3.49515 2.09709 5.24272 2.09709ZM8.27185 18.8738C8.27185 20.6214 6.87379 21.9029 5.24272 21.9029C3.61165 21.9029 2.21359 20.5049 2.21359 18.8738V17.4757C2.21359 16.3107 3.14563 15.1456 4.7767 14.4466C5.94175 13.9806 7.1068 13.6311 8.38835 13.3981L8.27185 18.8738ZM18.8738 21.9029C17.1262 21.9029 15.8447 20.5049 15.8447 18.8738V12.8155C17.3592 12.5825 18.8738 12.1165 20.2718 11.534C20.8544 11.1845 21.4369 10.9515 22.0194 10.4854V18.8738C21.9029 20.6214 20.5049 21.9029 18.8738 21.9029ZM19.3398 9.5534C18.1748 10.0194 17.0097 10.3689 15.7282 10.6019V5.12621C15.7282 3.37864 17.1262 2.09709 18.7573 2.09709C20.3883 2.09709 21.7864 3.49514 21.7864 5.12621V6.52427C21.9029 7.68932 20.9709 8.85437 19.3398 9.5534Z" fill="url(#paint0_linear_3992_4044)"/>
<path d="M93.4383 8.27185C90.1761 8.27185 87.4965 10.835 87.613 14.2136C87.613 17.4757 90.1761 20.1553 93.5548 20.0388C96.8169 20.0388 99.38 17.4757 99.38 14.0971C99.2635 10.9515 96.7004 8.27185 93.4383 8.27185ZM97.3994 14.2136C97.3994 16.4272 95.6519 18.1748 93.4383 18.1748C91.2247 18.1748 89.4771 16.4272 89.4771 14.2136C89.4771 12 91.2247 10.2524 93.4383 10.2524C95.6519 10.2524 97.3994 12 97.3994 14.2136Z" fill="#293258"/>
<path d="M58.2517 8.38842C57.7857 8.38842 57.3197 8.85445 57.3197 9.32047V9.78648C54.9896 7.57289 51.1449 7.8059 49.0478 10.136C46.8342 12.4661 47.0673 16.3108 49.3974 18.4078C51.6109 20.5049 55.1061 20.5049 57.3197 18.4078V18.8739C57.3197 19.3399 57.6692 19.8059 58.2517 19.8059C58.7177 19.8059 59.1838 19.4564 59.1838 18.8739V18.7574V9.08746C59.1838 8.73794 58.7177 8.38842 58.2517 8.38842ZM57.2032 14.2137C57.2032 16.4273 55.4556 18.1748 53.242 18.1748C51.0284 18.1748 49.2808 16.4273 49.2808 14.2137C49.2808 12.0001 51.0284 10.2525 53.242 10.2525C55.4556 10.2525 57.2032 12.0001 57.2032 14.2137Z" fill="#293258"/>
<path d="M68.3894 9.20389C68.3894 9.66991 67.9234 10.1359 67.4574 10.1359H67.3409C65.1273 10.1359 63.3797 11.8835 63.3797 14.0971C63.2632 14.3301 63.3797 17.3592 63.3797 19.1068C63.2632 19.5728 62.9137 20.0388 62.3312 19.9223C61.8651 19.8058 61.5156 19.4563 61.5156 18.9903V9.3204C61.5156 8.85438 61.9816 8.38835 62.4477 8.38835H62.5642C63.0302 8.50486 63.4962 8.85438 63.4962 9.3204V9.78641C64.5447 8.85437 65.9428 8.27185 67.4574 8.27185H67.5739C67.9234 8.27185 68.3894 8.73787 68.3894 9.20389Z" fill="#293258"/>
<path d="M110.564 13.1649V18.9902C110.564 19.4562 110.098 19.9222 109.632 19.9222C109.166 19.9222 108.7 19.4562 108.7 18.9902V18.0581V13.1649C108.7 11.5339 107.302 10.1358 105.671 10.1358C105.554 10.1358 105.554 10.1358 105.438 10.1358C103.923 10.2523 102.641 11.6504 102.641 13.1649V14.33V17.9416V18.8737C102.641 19.3397 102.175 19.8057 101.709 19.8057C101.243 19.8057 100.777 19.3397 100.777 18.8737V9.20376C100.777 8.73774 101.243 8.27172 101.709 8.27172C102.175 8.27172 102.641 8.73774 102.641 9.20376V9.32026C103.34 8.73774 104.389 8.38822 105.438 8.27172C108.117 8.15521 110.447 10.2523 110.564 12.9319C110.564 13.0484 110.564 13.1649 110.564 13.1649Z" fill="#293258"/>
<path d="M45.5543 4.8931V19.1067C45.5543 19.5727 45.0883 20.0387 44.6223 20.0387C44.1563 20.0387 43.6902 19.5727 43.6902 19.1067V12.6989H34.0203V19.1067C34.0203 19.5727 33.5543 20.0387 33.0883 20.0387C32.6223 20.0387 32.1562 19.5727 32.1562 19.1067V4.8931C32.1562 4.42708 32.6223 3.96106 33.0883 3.96106C33.5543 3.96106 34.0203 4.42708 34.0203 4.8931V11.0679H43.8067V4.8931C43.8067 4.42708 44.2728 3.96106 44.7388 3.96106C45.0883 3.96106 45.5543 4.42708 45.5543 4.8931Z" fill="#293258"/>
<path d="M86.2144 13.631V18.9902C86.2144 19.4562 85.7484 19.9222 85.2824 19.9222C84.8163 19.9222 84.3503 19.4562 84.3503 18.9902V14.097V12.8154C84.3503 11.3009 83.1853 10.1358 81.7872 10.1358C80.3891 10.1358 79.1076 11.3009 79.1076 12.6989C79.1076 12.8154 79.1076 12.8154 79.1076 12.8154V18.9902C79.1076 19.4562 78.7581 19.9222 78.1756 19.9222C77.7095 19.9222 77.2435 19.5727 77.2435 18.9902V18.8737V13.864V12.5824C77.2435 11.0679 76.0785 9.9028 74.6804 9.9028C73.2824 9.9028 72.0008 11.0678 72.0008 12.4659C72.0008 12.5824 72.0008 12.5824 72.0008 12.5824V18.7572C72.0008 19.2232 71.6513 19.6892 71.0688 19.6892C70.6027 19.6892 70.1367 19.3397 70.1367 18.7572V18.6407V8.97076C70.1367 8.50474 70.6027 8.03872 71.0688 8.03872C71.5348 8.03872 72.0008 8.38824 72.0008 8.85426C73.9814 7.4562 76.7775 7.80571 78.2921 9.7863C79.8066 7.80571 82.7192 7.4562 84.5833 8.97076C85.7484 9.9028 86.3309 11.1844 86.3309 12.5824L86.2144 13.631Z" fill="#293258"/>
<path d="M122.214 9.66998L115.806 23.5341C115.457 24.0001 114.874 24.1166 114.408 23.8836C114.059 23.6506 113.826 23.1845 113.942 22.7185L115.69 18.9904L111.379 9.66998C111.03 9.20396 111.263 8.62144 111.729 8.27192C112.195 7.92241 112.777 8.15542 113.127 8.62144C113.127 8.73794 113.243 8.73794 113.243 8.73794L116.855 16.5438L120.467 8.73794C120.583 8.27192 121.166 8.03891 121.632 8.15542C122.098 8.27192 122.331 8.85445 122.214 9.32047C122.331 9.55348 122.214 9.66998 122.214 9.66998Z" fill="#293258"/>
<defs>
<linearGradient id="paint0_linear_3992_4044" x1="18.0065" y1="5.97612" x2="1.44291" y2="22.5398" gradientUnits="userSpaceOnUse">
<stop stop-color="#00E8A2"/>
<stop offset="1" stop-color="#00ADE8"/>
</linearGradient>
</defs>
</svg>
