<svg width="191" height="32" viewBox="0 0 191 32" fill="none" xmlns="http://www.w3.org/2000/svg">
<path d="M8.18592 1.17999H8.29668C10.4935 2.46302 12.0258 4.36449 12.8934 6.88439C13.1888 7.64128 13.3365 8.32433 13.3365 8.93354V9.0443C13.198 10.0781 13.0873 10.595 13.0042 10.595C12.4319 10.7427 11.8227 10.8165 11.1766 10.8165C9.94893 10.8165 9.00742 10.4473 8.35207 9.70889L8.40745 9.65351C8.74897 9.8012 9.06281 9.87504 9.34895 9.87504H9.62586C9.95816 9.87504 10.1243 9.65351 10.1243 9.21045C10.1243 8.47202 9.21972 7.77051 7.41056 7.10592L6.91212 7.05054C6.71828 7.05054 6.5706 7.14284 6.46906 7.32745V7.65974C6.48752 8.49971 8.22284 10.955 11.675 15.0256C13.6134 17.2409 14.8687 18.3486 15.441 18.3486L15.6626 18.4039H16.0502V18.5147C14.9426 19.1701 13.5396 20.6469 11.8412 22.9453C10.0505 24.8652 9.03512 25.8252 8.79513 25.8252L8.73974 25.7698L8.85051 25.4375C8.85051 24.856 7.65055 24.1176 5.25065 23.2222C4.20761 22.6684 3.13688 21.69 2.03846 20.2869C1.44772 19.4377 1.15234 18.7178 1.15234 18.127V17.8501C1.15234 17.2132 1.52156 16.5671 2.25999 15.9117H2.31538V15.9671C2.05692 16.3086 1.9277 16.5671 1.9277 16.7425V17.0194C1.9277 17.6747 3.23842 18.3209 5.85985 18.9578C6.36753 19.2439 6.84751 19.6131 7.2998 20.0654L7.24442 20.1208C6.43214 19.8993 5.63832 19.7885 4.86297 19.7885C3.93993 19.7885 3.47841 20.01 3.47841 20.4531C3.76455 21.0346 4.65067 21.5515 6.13677 22.0038C6.29368 22.0776 6.58906 22.1146 7.02289 22.1146H7.24442C8.6659 22.1146 9.69971 21.2469 10.3458 19.5116V19.0131C10.3458 18.164 9.64432 17.0563 8.2413 15.6902C5.31526 12.4319 3.70917 10.2166 3.42303 9.0443C3.23842 8.65663 3.14611 8.34279 3.14611 8.1028C4.21684 7.92742 4.7522 7.72436 4.7522 7.4936V7.32745C4.70605 6.99515 4.31838 6.62594 3.58917 6.2198L3.31226 6.16442V6.05365H3.36764C6.07215 6.05365 8.08438 6.3121 9.40433 6.82901H9.62586C9.99508 6.82901 10.1797 6.40441 10.1797 5.55521C10.1797 4.01373 9.5151 2.55532 8.18592 1.17999Z" fill="white"/>
<path d="M16.6517 2.95223H16.7071C17.5193 4.10603 18.4424 5.10292 19.4762 5.94289C20.7961 6.79208 22.3284 7.21668 24.0729 7.21668H24.7375C26.0021 7.21668 27.3128 6.90285 28.6697 6.27518L28.9466 5.8875C29.925 6.81054 30.8111 7.41975 31.6049 7.71512C33.0449 8.68432 33.7649 9.79197 33.7649 11.0381V11.1488C33.7649 11.9796 33.3403 12.7734 32.4911 13.5303L32.4357 13.4749L32.5465 13.1426C32.5465 12.1088 31.7157 11.1858 30.0542 10.3735L29.0574 9.54275L29.1127 9.48736L29.5004 9.54275H29.6666C29.9527 9.54275 30.1373 9.45044 30.2204 9.26583C30.2204 8.98892 29.8881 8.65663 29.2235 8.26895L28.2266 8.1028C27.4882 8.2228 27.119 8.55509 27.119 9.09969L27.0636 19.2901C27.2574 19.807 27.4974 20.0654 27.7836 20.0654H27.9497C28.1712 20.0654 28.4112 19.9731 28.6697 19.7885H28.7251V19.8439C28.7251 20.2223 27.9128 21.1823 26.2882 22.7238C24.9683 24.6899 24.1191 26.979 23.7406 29.5912H23.6299L23.8514 8.4351L23.796 8.37971H23.6299C23.076 8.37971 22.393 8.32433 21.5807 8.21357C21.1377 8.45356 20.9161 9.00738 20.9161 9.87504C21.1007 10.7981 21.47 11.2596 22.0238 11.2596V11.3704C20.2331 11.3704 18.627 9.50583 17.2055 5.77674C16.984 5.066 16.7994 4.12449 16.6517 2.95223Z" fill="white"/>
<path d="M40.7076 1.85843C41.0676 2.84608 41.2476 3.65836 41.2476 4.29526L40.8045 6.39979V6.56594C40.8045 6.97208 41.2753 7.17515 42.2168 7.17515H42.5906C43.3383 7.17515 43.9336 6.75055 44.3767 5.90135C46.352 7.68282 47.7227 9.25199 48.4888 10.6089C48.9965 11.4488 49.2504 12.1688 49.2504 12.7688V12.9349C49.2504 13.4149 49.195 13.6549 49.0842 13.6549C48.9088 13.2118 48.6181 12.9903 48.2119 12.9903C47.7689 12.9903 46.9058 13.5072 45.6228 14.541C44.8659 14.8733 44.3259 15.0395 44.0029 15.0395C48.1566 20.2269 50.5703 23.1438 51.2441 23.7899C52.9241 25.3406 54.7425 26.116 56.6993 26.116L58.0562 26.0052V26.0606C56.6255 27.2421 55.0055 27.8328 53.1964 27.8328H52.9194C50.7965 27.8328 48.4012 26.8728 45.7336 24.9529C44.6167 24.3622 43.9844 24.0668 43.8367 24.0668V23.956L45.3044 24.0114H45.3459C46.2505 24.0114 46.7028 23.6791 46.7028 23.0145C46.7028 22.6361 46.1443 22.3592 45.0274 22.1838L40.5415 14.7072H40.4861V14.7625L40.5415 19.4147V20.5223C40.5415 23.6422 41.0814 25.6914 42.1614 26.6698V26.7252C40.1584 25.9406 38.3908 24.4637 36.8585 22.2946L35.5709 20.8546V20.7992H35.6263L35.8893 20.8546C36.637 20.8546 37.0893 20.3193 37.2462 19.2485V17.2548L37.3016 9.50121C35.7509 10.4612 34.9755 11.3104 34.9755 12.0488H34.9201L34.8094 11.938V11.5504C34.8094 10.1658 35.6217 8.7997 37.2462 7.45206C39.48 5.48598 40.5968 3.99065 40.5968 2.96608L40.6522 2.07996L40.5968 1.91381L40.6522 1.85843H40.7076ZM40.4307 8.11665V13.0457C41.0307 13.4518 41.7506 13.6549 42.5906 13.6549C43.7444 13.6549 44.5198 13.0826 44.9167 11.938V11.7719C44.9167 11.135 44.5013 10.3043 43.6706 9.27968C42.6091 8.39356 41.6907 7.9505 40.9153 7.9505H40.763C40.5415 7.96896 40.4307 8.02434 40.4307 8.11665Z" fill="white"/>
<path d="M70.1633 6.05365C70.7356 6.05365 71.1602 6.18288 71.4371 6.44133V6.49671H71.1602C70.6341 6.49671 69.2311 7.4936 66.9512 9.48736C64.9389 10.7058 63.6651 11.315 63.1298 11.315V11.2042C63.979 10.5396 64.4036 9.78274 64.4036 8.93354C64.4036 8.63817 63.9605 8.49048 63.0744 8.49048H62.7975C61.2468 8.49048 60.4714 8.65663 60.4714 8.98892V12.8657H60.5268C61.3298 12.4596 62.1975 12.2565 63.1298 12.2565H63.7943C65.5574 12.2565 66.6096 12.8657 66.9512 14.0841C67.025 14.0841 67.0619 14.2318 67.0619 14.5272H66.9512C66.5727 13.678 65.8527 13.2534 64.7912 13.2534C62.7329 13.2534 61.3298 14.1395 60.5822 15.9117C60.3976 16.2071 60.3053 16.9086 60.3053 18.0163V19.4562C60.4529 21.5238 60.9514 22.5576 61.8006 22.5576L62.0221 22.613C62.5021 22.613 63.1482 22.2069 63.9605 21.3946C62.299 21.1546 61.4683 20.7485 61.4683 20.1762L61.5237 20.1208H61.5791C61.5791 20.2869 61.8744 20.4346 62.4652 20.5639C63.1205 20.5639 64.062 20.01 65.2897 18.9024C66.2035 18.2747 67.1819 17.9609 68.225 17.9609H68.2803V18.0163C67.3573 18.5147 66.8958 19.567 66.8958 21.1731V21.2838L67.0065 22.3361C66.2773 22.6961 64.8189 23.8407 62.6313 25.7698L61.7452 26.4344L61.6898 26.379H61.6344L61.6898 26.3236V25.9913C61.6898 24.7914 60.5083 23.9237 58.1453 23.3884C55.967 22.5853 54.8778 21.3854 54.8778 19.7885H54.9885C55.3393 20.6377 55.8008 21.0623 56.3731 21.0623H56.65C56.9085 20.8408 57.0377 20.49 57.0377 20.01V9.0443C56.3916 8.68432 55.0808 8.07511 53.1055 7.21668V7.10592H63.6836C65.5481 7.10592 67.3758 6.79208 69.1665 6.16442L70.1633 6.05365Z" fill="white"/>
<path d="M86.9642 6.05365C87.5364 6.05365 87.961 6.18288 88.238 6.44133V6.49671H87.961C87.4349 6.49671 86.0319 7.4936 83.752 9.48736C81.7397 10.7058 80.466 11.315 79.9306 11.315V11.2042C80.7798 10.5396 81.2044 9.78274 81.2044 8.93354C81.2044 8.63817 80.7613 8.49048 79.8752 8.49048H79.5983C78.0476 8.49048 77.2722 8.65663 77.2722 8.98892V12.8657H77.3276C78.1307 12.4596 78.9983 12.2565 79.9306 12.2565H80.5952C82.3582 12.2565 83.4105 12.8657 83.752 14.0841C83.8258 14.0841 83.8627 14.2318 83.8627 14.5272H83.752C83.3735 13.678 82.6536 13.2534 81.5921 13.2534C79.5337 13.2534 78.1307 14.1395 77.383 15.9117C77.1984 16.2071 77.1061 16.9086 77.1061 18.0163V19.4562C77.2538 21.5238 77.7522 22.5576 78.6014 22.5576L78.8229 22.613C79.3029 22.613 79.9491 22.2069 80.7613 21.3946C79.0999 21.1546 78.2691 20.7485 78.2691 20.1762L78.3245 20.1208H78.3799C78.3799 20.2869 78.6753 20.4346 79.266 20.5639C79.9214 20.5639 80.8629 20.01 82.0905 18.9024C83.0043 18.2747 83.9827 17.9609 85.0258 17.9609H85.0812V18.0163C84.1581 18.5147 83.6966 19.567 83.6966 21.1731V21.2838L83.8074 22.3361C83.0782 22.6961 81.6198 23.8407 79.4321 25.7698L78.546 26.4344L78.4906 26.379H78.4353L78.4906 26.3236V25.9913C78.4906 24.7914 77.3092 23.9237 74.9462 23.3884C72.7678 22.5853 71.6786 21.3854 71.6786 19.7885H71.7894C72.1401 20.6377 72.6016 21.0623 73.1739 21.0623H73.4508C73.7093 20.8408 73.8385 20.49 73.8385 20.01V9.0443C73.1924 8.68432 71.8817 8.07511 69.9064 7.21668V7.10592H80.4844C82.349 7.10592 84.1766 6.79208 85.9673 6.16442L86.9642 6.05365Z" fill="white"/>
<path d="M87.981 2.95223H88.0364C88.8486 4.10603 89.7717 5.10292 90.8055 5.94289C92.1254 6.79208 93.6577 7.21668 95.4022 7.21668H96.0668C97.3314 7.21668 98.6421 6.90285 99.999 6.27518L100.276 5.8875C101.254 6.81054 102.14 7.41975 102.934 7.71512C104.374 8.68432 105.094 9.79197 105.094 11.0381V11.1488C105.094 11.9796 104.67 12.7734 103.82 13.5303L103.765 13.4749L103.876 13.1426C103.876 12.1088 103.045 11.1858 101.384 10.3735L100.387 9.54275L100.442 9.48736L100.83 9.54275H100.996C101.282 9.54275 101.467 9.45044 101.55 9.26583C101.55 8.98892 101.217 8.65663 100.553 8.26895L99.5559 8.1028C98.8175 8.2228 98.4483 8.55509 98.4483 9.09969L98.3929 19.2901C98.5867 19.807 98.8267 20.0654 99.1129 20.0654H99.279C99.5005 20.0654 99.7405 19.9731 99.999 19.7885H100.054V19.8439C100.054 20.2223 99.2421 21.1823 97.6175 22.7238C96.2976 24.6899 95.4484 26.979 95.0699 29.5912H94.9592L95.1807 8.4351L95.1253 8.37971H94.9592C94.4053 8.37971 93.7223 8.32433 92.91 8.21357C92.467 8.45356 92.2454 9.00738 92.2454 9.87504C92.43 10.7981 92.7993 11.2596 93.3531 11.2596V11.3704C91.5624 11.3704 89.9563 9.50583 88.5348 5.77674C88.3133 5.066 88.1287 4.12449 87.981 2.95223Z" fill="white"/>
<path d="M106.208 1.1523H106.319C106.319 2.02919 106.799 3.063 107.759 4.25372C108.506 4.95523 109.466 5.54598 110.639 6.02596C110.915 6.24749 111.1 6.35825 111.192 6.35825V6.46902L110.86 6.41364C110.528 6.49671 110.362 6.58901 110.362 6.69055C110.362 7.01361 110.62 7.19822 111.137 7.24437H111.248C112.097 7.24437 113.278 6.8567 114.792 6.08134L115.9 5.19522C117.598 6.75516 118.706 7.95512 119.223 8.79508C119.924 10.0227 120.275 11.2596 120.275 12.5057V14.0564L120.164 14.1672C119.777 13.8718 119.389 13.7241 119.001 13.7241C118.291 13.7241 116.943 14.4256 114.958 15.8287C114.377 16.1979 113.657 16.3825 112.798 16.3825L111.968 16.2163V16.0502H112.355C113.74 16.0502 114.94 15.2933 115.955 13.7795C116.251 13.1611 116.398 12.5519 116.398 11.9519C116.398 10.5027 115.955 9.45044 115.069 8.79508C114.645 8.57355 114.238 8.46279 113.851 8.46279C112.669 8.69355 112.078 9.11815 112.078 9.73658C111.931 10.4473 111.857 11.3888 111.857 12.5611V17.324L111.802 21.4223C111.958 22.1607 112.254 22.5299 112.688 22.5299C113.011 22.5299 113.325 22.2715 113.629 21.7546H113.685V22.253L113.463 24.9114V25.0221C113.463 27.6251 114.423 29.8773 116.343 31.7788H116.232C113.611 30.3389 111.802 28.5112 110.805 26.2959C109.771 24.3299 108.571 23.0007 107.205 22.3084V22.1976C107.869 22.1976 108.257 21.6069 108.368 20.4254C108.368 17.7578 108.442 14.3426 108.589 10.1796C108.589 9.61659 108.239 8.67509 107.537 7.35514C106.651 5.5829 106.208 3.81066 106.208 2.03842V1.1523Z" fill="white"/>
<path d="M121.486 3.58913C122.224 3.72759 123.443 4.79831 125.141 6.80131C126.082 7.68743 126.802 9.27506 127.301 11.5642C127.485 12.6349 127.578 13.4288 127.578 13.9457C127.578 14.5641 127.245 16.244 126.581 18.9855L126.526 19.7608V20.0931C126.59 20.8315 126.83 21.2008 127.245 21.2008H127.412C128.196 21.2008 128.953 20.8315 129.682 20.0931C129.904 19.5485 130.015 19.1608 130.015 18.9301L130.07 9.84735V9.12738C130.07 8.15818 129.775 7.45667 129.184 7.02284V6.91208H129.239C129.682 7.05977 130.107 7.13361 130.513 7.13361C131.307 7.13361 132.839 6.65363 135.11 5.69366C135.904 5.43521 136.494 5.30599 136.882 5.30599H137.325C137.602 5.30599 137.75 5.36137 137.768 5.47213C135.885 6.36748 134.611 7.47513 133.947 8.79508L133.725 9.6812L133.614 16.8809C133.614 18.727 133.799 19.9085 134.168 20.4254C134.51 20.8038 135.045 21.0623 135.774 21.2008V21.3115C135.064 21.3115 134.141 21.9761 133.005 23.3053C131.907 24.3391 130.781 24.856 129.627 24.856L129.461 24.9114V24.856C130.162 24.1637 130.513 23.2222 130.513 22.0315V21.9207C130.513 21.6346 130.421 21.45 130.236 21.3669H130.181C129.488 21.3669 128.898 22.013 128.409 23.3053V23.8591C128.953 25.6221 129.655 26.7482 130.513 27.2374V27.3482C129.239 27.1082 127.707 26.2406 125.916 24.7452C124.929 23.8591 124.024 22.5299 123.203 20.7577C122.926 20.2962 122.538 19.7608 122.04 19.1516V19.0408C122.658 19.0408 123.378 17.9517 124.199 15.7733C124.975 13.1611 125.362 11.0935 125.362 9.57044C125.326 9.09046 125.233 8.85047 125.086 8.85047C124.864 9.15507 124.753 9.63505 124.753 10.2904C124.753 10.6689 124.809 10.9458 124.919 11.1211L124.864 11.1765C124.439 10.9919 124.052 10.4012 123.701 9.40429C123.295 6.98592 122.649 5.2506 121.763 4.19834L121.43 3.64451L121.486 3.58913Z" fill="white"/>
<path d="M147.383 1H147.494C147.725 2.1538 149.792 5.10753 153.697 9.8612L153.641 9.91658H153.586C153.586 9.80581 153.235 9.69505 152.534 9.58428C152.201 9.58428 152.035 9.97196 152.035 10.7473V10.9135L152.091 11.0796L152.035 11.3565C152.035 16.7379 152.275 19.507 152.755 19.6639C152.755 19.8577 152.995 20.0054 153.475 20.107V20.3285C153.475 21.7038 152.866 23.0699 151.648 24.4268C151.463 24.8975 151.371 25.3221 151.371 25.7006C151.371 26.0606 151.426 26.3929 151.537 26.6975L151.481 26.7528H151.426C151.057 25.9867 150.872 25.396 150.872 24.9806V24.8698L151.038 22.9315V22.5992C151.038 21.7407 150.448 21.0761 149.266 20.6054H149.1L149.045 20.6608H148.989L148.934 20.6054V20.2177C148.657 17.8363 147.199 14.7902 144.559 11.0796C143.728 10.1289 143.229 9.63043 143.063 9.58428H143.008L143.063 13.1841V18.5009C143.156 20.3469 143.414 21.3069 143.839 21.3808L143.949 21.0485V20.9931C143.949 20.4762 143.857 19.9777 143.672 19.4977L143.728 19.4424H143.783C144.448 20.107 144.78 21.4915 144.78 23.596C144.78 25.5621 145.426 27.6113 146.719 29.7435L147.715 30.8512V30.9065H147.66C145.057 29.4943 143.229 27.3713 142.177 24.5375C141.226 22.4422 140.377 21.0208 139.63 20.2731C139.463 20.0608 139.02 19.6731 138.3 19.1101L138.356 19.0547L138.411 19.1101H138.467C139.205 19.0547 139.574 18.8147 139.574 18.3901C139.666 18.3901 139.74 17.947 139.796 17.0609L139.685 7.6459C139.205 5.88289 138.337 4.55371 137.082 3.65836C136.953 3.54759 136.824 3.49221 136.694 3.49221V3.32606H136.86C137.433 3.32606 138.356 3.82451 139.63 4.82139C141.005 5.55982 142.186 5.92904 143.174 5.92904L144.116 5.70751C143.451 6.39979 143.119 6.89823 143.119 7.20284C143.119 7.34129 143.949 8.26433 145.611 9.97196L148.934 14.4579V10.0827C148.934 7.74743 148.749 6.34441 148.38 5.87366H148.325C148.14 6.27057 148.048 6.73209 148.048 7.25822V7.59051C148.048 7.96896 148.14 8.28279 148.325 8.53202V8.5874H148.269C147.457 8.09819 147.051 7.17515 147.051 5.81827V5.65213L147.439 1.60921L147.383 1Z" fill="white"/>
<path d="M172.754 2.79993H172.865L173.031 3.8522C173.031 4.98754 172.441 6.13211 171.259 7.28591C170.336 8.49509 169.874 9.39968 169.874 9.99965V10.055C169.874 10.6089 170.281 10.9781 171.093 11.1627V11.2734C169.385 12.7688 167.262 14.0426 164.724 15.0948L171.204 21.8515C172.385 23.0699 173.474 23.6791 174.471 23.6791H174.97C175.699 23.6791 176.345 23.4576 176.908 23.0145H176.963V23.0699C176.077 24.3622 174.564 25.0083 172.422 25.0083H171.924C170.742 25.0083 169.136 24.5283 167.105 23.5684C166.376 23.3468 165.767 23.2361 165.278 23.2361H165.056C164.585 23.2361 164.161 23.3468 163.782 23.5684L163.727 23.4022C163.93 22.8115 164.669 22.4792 165.942 22.4053C167.013 22.313 167.548 22.1653 167.548 21.9623C167.548 21.7223 166.976 21.4269 165.832 21.0761C165.536 21.0761 165.389 21.0208 165.389 20.91C165.389 20.4577 164.484 18.7409 162.675 15.7594H162.232L162.287 19.1931V20.3008C162.287 20.4116 162.416 20.4669 162.675 20.4669V20.5223C162.906 20.4485 163.256 20.4116 163.727 20.4116L163.782 20.4669V20.5223C163.081 20.9285 162.195 21.87 161.124 23.3468C159.85 25.0083 158.004 25.839 155.586 25.839H154.81L154.423 25.7837V25.6729H154.478C155.826 25.6729 157.007 25.0452 158.023 23.7899C158.65 22.9038 158.964 21.6484 158.964 20.0239V16.8117L159.02 13.9872L158.964 11.3288V9.27968C158.964 8.05203 158.281 7.29514 156.915 7.009L156.693 6.95362V6.78747H156.749C159.813 6.47363 161.346 6.21518 161.346 6.01211C161.613 6.01211 161.909 5.71674 162.232 5.12599H162.287L162.232 5.40291L162.287 9.77812V13.9318L162.232 14.7625C165.296 13.9872 166.828 12.8611 166.828 11.3842C166.718 10.4243 166.441 9.94427 165.998 9.94427H165.832C165.435 9.94427 165.139 10.1843 164.945 10.6642H164.835V10.5535C164.835 9.11353 166.625 7.50744 170.207 5.7352C171.905 4.66447 172.754 3.68605 172.754 2.79993Z" fill="white"/>
<path d="M181.982 1.17999H182.092C184.289 2.46302 185.822 4.36449 186.689 6.88439C186.985 7.64128 187.132 8.32433 187.132 8.93354V9.0443C186.994 10.0781 186.883 10.595 186.8 10.595C186.228 10.7427 185.618 10.8165 184.972 10.8165C183.745 10.8165 182.803 10.4473 182.148 9.70889L182.203 9.65351C182.545 9.8012 182.859 9.87504 183.145 9.87504H183.422C183.754 9.87504 183.92 9.65351 183.92 9.21045C183.92 8.47202 183.015 7.77051 181.206 7.10592L180.708 7.05054C180.514 7.05054 180.366 7.14284 180.265 7.32745V7.65974C180.283 8.49971 182.019 10.955 185.471 15.0256C187.409 17.2409 188.664 18.3486 189.237 18.3486L189.458 18.4039H189.846V18.5147C188.738 19.1701 187.335 20.6469 185.637 22.9453C183.846 24.8652 182.831 25.8252 182.591 25.8252L182.535 25.7698L182.646 25.4375C182.646 24.856 181.446 24.1176 179.046 23.2222C178.003 22.6684 176.933 21.69 175.834 20.2869C175.243 19.4377 174.948 18.7178 174.948 18.127V17.8501C174.948 17.2132 175.317 16.5671 176.056 15.9117H176.111V15.9671C175.853 16.3086 175.723 16.5671 175.723 16.7425V17.0194C175.723 17.6747 177.034 18.3209 179.656 18.9578C180.163 19.2439 180.643 19.6131 181.096 20.0654L181.04 20.1208C180.228 19.8993 179.434 19.7885 178.659 19.7885C177.736 19.7885 177.274 20.01 177.274 20.4531C177.56 21.0346 178.446 21.5515 179.932 22.0038C180.089 22.0776 180.385 22.1146 180.819 22.1146H181.04C182.462 22.1146 183.495 21.2469 184.142 19.5116V19.0131C184.142 18.164 183.44 17.0563 182.037 15.6902C179.111 12.4319 177.505 10.2166 177.219 9.0443C177.034 8.65663 176.942 8.34279 176.942 8.1028C178.013 7.92742 178.548 7.72436 178.548 7.4936V7.32745C178.502 6.99515 178.114 6.62594 177.385 6.2198L177.108 6.16442V6.05365H177.163C179.868 6.05365 181.88 6.3121 183.2 6.82901H183.422C183.791 6.82901 183.975 6.40441 183.975 5.55521C183.975 4.01373 183.311 2.55532 181.982 1.17999Z" fill="white"/>
<path d="M8.18592 1.17999H8.29668C10.4935 2.46302 12.0258 4.36449 12.8934 6.88439C13.1888 7.64128 13.3365 8.32433 13.3365 8.93354V9.0443C13.198 10.0781 13.0873 10.595 13.0042 10.595C12.4319 10.7427 11.8227 10.8165 11.1766 10.8165C9.94893 10.8165 9.00742 10.4473 8.35207 9.70889L8.40745 9.65351C8.74897 9.8012 9.06281 9.87504 9.34895 9.87504H9.62586C9.95816 9.87504 10.1243 9.65351 10.1243 9.21045C10.1243 8.47202 9.21972 7.77051 7.41056 7.10592L6.91212 7.05054C6.71828 7.05054 6.5706 7.14284 6.46906 7.32745V7.65974C6.48752 8.49971 8.22284 10.955 11.675 15.0256C13.6134 17.2409 14.8687 18.3486 15.441 18.3486L15.6626 18.4039H16.0502V18.5147C14.9426 19.1701 13.5396 20.6469 11.8412 22.9453C10.0505 24.8652 9.03512 25.8252 8.79513 25.8252L8.73974 25.7698L8.85051 25.4375C8.85051 24.856 7.65055 24.1176 5.25065 23.2222C4.20761 22.6684 3.13688 21.69 2.03846 20.2869C1.44772 19.4377 1.15234 18.7178 1.15234 18.127V17.8501C1.15234 17.2132 1.52156 16.5671 2.25999 15.9117H2.31538V15.9671C2.05692 16.3086 1.9277 16.5671 1.9277 16.7425V17.0194C1.9277 17.6747 3.23842 18.3209 5.85985 18.9578C6.36753 19.2439 6.84751 19.6131 7.2998 20.0654L7.24442 20.1208C6.43214 19.8993 5.63832 19.7885 4.86297 19.7885C3.93993 19.7885 3.47841 20.01 3.47841 20.4531C3.76455 21.0346 4.65067 21.5515 6.13677 22.0038C6.29368 22.0776 6.58906 22.1146 7.02289 22.1146H7.24442C8.6659 22.1146 9.69971 21.2469 10.3458 19.5116V19.0131C10.3458 18.164 9.64432 17.0563 8.2413 15.6902C5.31526 12.4319 3.70917 10.2166 3.42303 9.0443C3.23842 8.65663 3.14611 8.34279 3.14611 8.1028C4.21684 7.92742 4.7522 7.72436 4.7522 7.4936V7.32745C4.70605 6.99515 4.31838 6.62594 3.58917 6.2198L3.31226 6.16442V6.05365H3.36764C6.07215 6.05365 8.08438 6.3121 9.40433 6.82901H9.62586C9.99508 6.82901 10.1797 6.40441 10.1797 5.55521C10.1797 4.01373 9.5151 2.55532 8.18592 1.17999Z" stroke="white" stroke-width="0.405083"/>
<path d="M16.6517 2.95223H16.7071C17.5193 4.10603 18.4424 5.10292 19.4762 5.94289C20.7961 6.79208 22.3284 7.21668 24.0729 7.21668H24.7375C26.0021 7.21668 27.3128 6.90285 28.6697 6.27518L28.9466 5.8875C29.925 6.81054 30.8111 7.41975 31.6049 7.71512C33.0449 8.68432 33.7649 9.79197 33.7649 11.0381V11.1488C33.7649 11.9796 33.3403 12.7734 32.4911 13.5303L32.4357 13.4749L32.5465 13.1426C32.5465 12.1088 31.7157 11.1858 30.0542 10.3735L29.0574 9.54275L29.1127 9.48736L29.5004 9.54275H29.6666C29.9527 9.54275 30.1373 9.45044 30.2204 9.26583C30.2204 8.98892 29.8881 8.65663 29.2235 8.26895L28.2266 8.1028C27.4882 8.2228 27.119 8.55509 27.119 9.09969L27.0636 19.2901C27.2574 19.807 27.4974 20.0654 27.7836 20.0654H27.9497C28.1712 20.0654 28.4112 19.9731 28.6697 19.7885H28.7251V19.8439C28.7251 20.2223 27.9128 21.1823 26.2882 22.7238C24.9683 24.6899 24.1191 26.979 23.7406 29.5912H23.6299L23.8514 8.4351L23.796 8.37971H23.6299C23.076 8.37971 22.393 8.32433 21.5807 8.21357C21.1377 8.45356 20.9161 9.00738 20.9161 9.87504C21.1007 10.7981 21.47 11.2596 22.0238 11.2596V11.3704C20.2331 11.3704 18.627 9.50583 17.2055 5.77674C16.984 5.066 16.7994 4.12449 16.6517 2.95223Z" stroke="white" stroke-width="0.405083"/>
<path d="M40.7076 1.85843C41.0676 2.84608 41.2476 3.65836 41.2476 4.29526L40.8045 6.39979V6.56594C40.8045 6.97208 41.2753 7.17515 42.2168 7.17515H42.5906C43.3383 7.17515 43.9336 6.75055 44.3767 5.90135C46.352 7.68282 47.7227 9.25199 48.4888 10.6089C48.9965 11.4488 49.2504 12.1688 49.2504 12.7688V12.9349C49.2504 13.4149 49.195 13.6549 49.0842 13.6549C48.9088 13.2118 48.6181 12.9903 48.2119 12.9903C47.7689 12.9903 46.9058 13.5072 45.6228 14.541C44.8659 14.8733 44.3259 15.0395 44.0029 15.0395C48.1566 20.2269 50.5703 23.1438 51.2441 23.7899C52.9241 25.3406 54.7425 26.116 56.6993 26.116L58.0562 26.0052V26.0606C56.6255 27.2421 55.0055 27.8328 53.1964 27.8328H52.9194C50.7965 27.8328 48.4012 26.8728 45.7336 24.9529C44.6167 24.3622 43.9844 24.0668 43.8367 24.0668V23.956L45.3044 24.0114H45.3459C46.2505 24.0114 46.7028 23.6791 46.7028 23.0145C46.7028 22.6361 46.1443 22.3592 45.0274 22.1838L40.5415 14.7072H40.4861V14.7625L40.5415 19.4147V20.5223C40.5415 23.6422 41.0814 25.6914 42.1614 26.6698V26.7252C40.1584 25.9406 38.3908 24.4637 36.8585 22.2946L35.5709 20.8546V20.7992H35.6263L35.8893 20.8546C36.637 20.8546 37.0893 20.3193 37.2462 19.2485V17.2548L37.3016 9.50121C35.7509 10.4612 34.9755 11.3104 34.9755 12.0488H34.9201L34.8094 11.938V11.5504C34.8094 10.1658 35.6217 8.7997 37.2462 7.45206C39.48 5.48598 40.5968 3.99065 40.5968 2.96608L40.6522 2.07996L40.5968 1.91381L40.6522 1.85843H40.7076ZM40.4307 8.11665V13.0457C41.0307 13.4518 41.7506 13.6549 42.5906 13.6549C43.7444 13.6549 44.5198 13.0826 44.9167 11.938V11.7719C44.9167 11.135 44.5013 10.3043 43.6706 9.27968C42.6091 8.39356 41.6907 7.9505 40.9153 7.9505H40.763C40.5415 7.96896 40.4307 8.02434 40.4307 8.11665Z" stroke="white" stroke-width="0.405083"/>
<path d="M70.1633 6.05365C70.7356 6.05365 71.1602 6.18288 71.4371 6.44133V6.49671H71.1602C70.6341 6.49671 69.2311 7.4936 66.9512 9.48736C64.9389 10.7058 63.6651 11.315 63.1298 11.315V11.2042C63.979 10.5396 64.4036 9.78274 64.4036 8.93354C64.4036 8.63817 63.9605 8.49048 63.0744 8.49048H62.7975C61.2468 8.49048 60.4714 8.65663 60.4714 8.98892V12.8657H60.5268C61.3298 12.4596 62.1975 12.2565 63.1298 12.2565H63.7943C65.5574 12.2565 66.6096 12.8657 66.9512 14.0841C67.025 14.0841 67.0619 14.2318 67.0619 14.5272H66.9512C66.5727 13.678 65.8527 13.2534 64.7912 13.2534C62.7329 13.2534 61.3298 14.1395 60.5822 15.9117C60.3976 16.2071 60.3053 16.9086 60.3053 18.0163V19.4562C60.4529 21.5238 60.9514 22.5576 61.8006 22.5576L62.0221 22.613C62.5021 22.613 63.1482 22.2069 63.9605 21.3946C62.299 21.1546 61.4683 20.7485 61.4683 20.1762L61.5237 20.1208H61.5791C61.5791 20.2869 61.8744 20.4346 62.4652 20.5639C63.1205 20.5639 64.062 20.01 65.2897 18.9024C66.2035 18.2747 67.1819 17.9609 68.225 17.9609H68.2803V18.0163C67.3573 18.5147 66.8958 19.567 66.8958 21.1731V21.2838L67.0065 22.3361C66.2773 22.6961 64.8189 23.8407 62.6313 25.7698L61.7452 26.4344L61.6898 26.379H61.6344L61.6898 26.3236V25.9913C61.6898 24.7914 60.5083 23.9237 58.1453 23.3884C55.967 22.5853 54.8778 21.3854 54.8778 19.7885H54.9885C55.3393 20.6377 55.8008 21.0623 56.3731 21.0623H56.65C56.9085 20.8408 57.0377 20.49 57.0377 20.01V9.0443C56.3916 8.68432 55.0808 8.07511 53.1055 7.21668V7.10592H63.6836C65.5481 7.10592 67.3758 6.79208 69.1665 6.16442L70.1633 6.05365Z" stroke="white" stroke-width="0.405083"/>
<path d="M86.9642 6.05365C87.5364 6.05365 87.961 6.18288 88.238 6.44133V6.49671H87.961C87.4349 6.49671 86.0319 7.4936 83.752 9.48736C81.7397 10.7058 80.466 11.315 79.9306 11.315V11.2042C80.7798 10.5396 81.2044 9.78274 81.2044 8.93354C81.2044 8.63817 80.7613 8.49048 79.8752 8.49048H79.5983C78.0476 8.49048 77.2722 8.65663 77.2722 8.98892V12.8657H77.3276C78.1307 12.4596 78.9983 12.2565 79.9306 12.2565H80.5952C82.3582 12.2565 83.4105 12.8657 83.752 14.0841C83.8258 14.0841 83.8627 14.2318 83.8627 14.5272H83.752C83.3735 13.678 82.6536 13.2534 81.5921 13.2534C79.5337 13.2534 78.1307 14.1395 77.383 15.9117C77.1984 16.2071 77.1061 16.9086 77.1061 18.0163V19.4562C77.2538 21.5238 77.7522 22.5576 78.6014 22.5576L78.8229 22.613C79.3029 22.613 79.9491 22.2069 80.7613 21.3946C79.0999 21.1546 78.2691 20.7485 78.2691 20.1762L78.3245 20.1208H78.3799C78.3799 20.2869 78.6753 20.4346 79.266 20.5639C79.9214 20.5639 80.8629 20.01 82.0905 18.9024C83.0043 18.2747 83.9827 17.9609 85.0258 17.9609H85.0812V18.0163C84.1581 18.5147 83.6966 19.567 83.6966 21.1731V21.2838L83.8074 22.3361C83.0782 22.6961 81.6198 23.8407 79.4321 25.7698L78.546 26.4344L78.4906 26.379H78.4353L78.4906 26.3236V25.9913C78.4906 24.7914 77.3092 23.9237 74.9462 23.3884C72.7678 22.5853 71.6786 21.3854 71.6786 19.7885H71.7894C72.1401 20.6377 72.6016 21.0623 73.1739 21.0623H73.4508C73.7093 20.8408 73.8385 20.49 73.8385 20.01V9.0443C73.1924 8.68432 71.8817 8.07511 69.9064 7.21668V7.10592H80.4844C82.349 7.10592 84.1766 6.79208 85.9673 6.16442L86.9642 6.05365Z" stroke="white" stroke-width="0.405083"/>
<path d="M87.981 2.95223H88.0364C88.8486 4.10603 89.7717 5.10292 90.8055 5.94289C92.1254 6.79208 93.6577 7.21668 95.4022 7.21668H96.0668C97.3314 7.21668 98.6421 6.90285 99.999 6.27518L100.276 5.8875C101.254 6.81054 102.14 7.41975 102.934 7.71512C104.374 8.68432 105.094 9.79197 105.094 11.0381V11.1488C105.094 11.9796 104.67 12.7734 103.82 13.5303L103.765 13.4749L103.876 13.1426C103.876 12.1088 103.045 11.1858 101.384 10.3735L100.387 9.54275L100.442 9.48736L100.83 9.54275H100.996C101.282 9.54275 101.467 9.45044 101.55 9.26583C101.55 8.98892 101.217 8.65663 100.553 8.26895L99.5559 8.1028C98.8175 8.2228 98.4483 8.55509 98.4483 9.09969L98.3929 19.2901C98.5867 19.807 98.8267 20.0654 99.1129 20.0654H99.279C99.5005 20.0654 99.7405 19.9731 99.999 19.7885H100.054V19.8439C100.054 20.2223 99.2421 21.1823 97.6175 22.7238C96.2976 24.6899 95.4484 26.979 95.0699 29.5912H94.9592L95.1807 8.4351L95.1253 8.37971H94.9592C94.4053 8.37971 93.7223 8.32433 92.91 8.21357C92.467 8.45356 92.2454 9.00738 92.2454 9.87504C92.43 10.7981 92.7993 11.2596 93.3531 11.2596V11.3704C91.5624 11.3704 89.9563 9.50583 88.5348 5.77674C88.3133 5.066 88.1287 4.12449 87.981 2.95223Z" stroke="white" stroke-width="0.405083"/>
<path d="M106.208 1.1523H106.319C106.319 2.02919 106.799 3.063 107.759 4.25372C108.506 4.95523 109.466 5.54598 110.639 6.02596C110.915 6.24749 111.1 6.35825 111.192 6.35825V6.46902L110.86 6.41364C110.528 6.49671 110.362 6.58901 110.362 6.69055C110.362 7.01361 110.62 7.19822 111.137 7.24437H111.248C112.097 7.24437 113.278 6.8567 114.792 6.08134L115.9 5.19522C117.598 6.75516 118.706 7.95512 119.223 8.79508C119.924 10.0227 120.275 11.2596 120.275 12.5057V14.0564L120.164 14.1672C119.777 13.8718 119.389 13.7241 119.001 13.7241C118.291 13.7241 116.943 14.4256 114.958 15.8287C114.377 16.1979 113.657 16.3825 112.798 16.3825L111.968 16.2163V16.0502H112.355C113.74 16.0502 114.94 15.2933 115.955 13.7795C116.251 13.1611 116.398 12.5519 116.398 11.9519C116.398 10.5027 115.955 9.45044 115.069 8.79508C114.645 8.57355 114.238 8.46279 113.851 8.46279C112.669 8.69355 112.078 9.11815 112.078 9.73658C111.931 10.4473 111.857 11.3888 111.857 12.5611V17.324L111.802 21.4223C111.958 22.1607 112.254 22.5299 112.688 22.5299C113.011 22.5299 113.325 22.2715 113.629 21.7546H113.685V22.253L113.463 24.9114V25.0221C113.463 27.6251 114.423 29.8773 116.343 31.7788H116.232C113.611 30.3389 111.802 28.5112 110.805 26.2959C109.771 24.3299 108.571 23.0007 107.205 22.3084V22.1976C107.869 22.1976 108.257 21.6069 108.368 20.4254C108.368 17.7578 108.442 14.3426 108.589 10.1796C108.589 9.61659 108.239 8.67509 107.537 7.35514C106.651 5.5829 106.208 3.81066 106.208 2.03842V1.1523Z" stroke="white" stroke-width="0.405083"/>
<path d="M121.486 3.58913C122.224 3.72759 123.443 4.79831 125.141 6.80131C126.082 7.68743 126.802 9.27506 127.301 11.5642C127.485 12.6349 127.578 13.4288 127.578 13.9457C127.578 14.5641 127.245 16.244 126.581 18.9855L126.526 19.7608V20.0931C126.59 20.8315 126.83 21.2008 127.245 21.2008H127.412C128.196 21.2008 128.953 20.8315 129.682 20.0931C129.904 19.5485 130.015 19.1608 130.015 18.9301L130.07 9.84735V9.12738C130.07 8.15818 129.775 7.45667 129.184 7.02284V6.91208H129.239C129.682 7.05977 130.107 7.13361 130.513 7.13361C131.307 7.13361 132.839 6.65363 135.11 5.69366C135.904 5.43521 136.494 5.30599 136.882 5.30599H137.325C137.602 5.30599 137.75 5.36137 137.768 5.47213C135.885 6.36748 134.611 7.47513 133.947 8.79508L133.725 9.6812L133.614 16.8809C133.614 18.727 133.799 19.9085 134.168 20.4254C134.51 20.8038 135.045 21.0623 135.774 21.2008V21.3115C135.064 21.3115 134.141 21.9761 133.005 23.3053C131.907 24.3391 130.781 24.856 129.627 24.856L129.461 24.9114V24.856C130.162 24.1637 130.513 23.2222 130.513 22.0315V21.9207C130.513 21.6346 130.421 21.45 130.236 21.3669H130.181C129.488 21.3669 128.898 22.013 128.409 23.3053V23.8591C128.953 25.6221 129.655 26.7482 130.513 27.2374V27.3482C129.239 27.1082 127.707 26.2406 125.916 24.7452C124.929 23.8591 124.024 22.5299 123.203 20.7577C122.926 20.2962 122.538 19.7608 122.04 19.1516V19.0408C122.658 19.0408 123.378 17.9517 124.199 15.7733C124.975 13.1611 125.362 11.0935 125.362 9.57044C125.326 9.09046 125.233 8.85047 125.086 8.85047C124.864 9.15507 124.753 9.63505 124.753 10.2904C124.753 10.6689 124.809 10.9458 124.919 11.1211L124.864 11.1765C124.439 10.9919 124.052 10.4012 123.701 9.40429C123.295 6.98592 122.649 5.2506 121.763 4.19834L121.43 3.64451L121.486 3.58913Z" stroke="white" stroke-width="0.405083"/>
<path d="M147.383 1H147.494C147.725 2.1538 149.792 5.10753 153.697 9.8612L153.641 9.91658H153.586C153.586 9.80581 153.235 9.69505 152.534 9.58428C152.201 9.58428 152.035 9.97196 152.035 10.7473V10.9135L152.091 11.0796L152.035 11.3565C152.035 16.7379 152.275 19.507 152.755 19.6639C152.755 19.8577 152.995 20.0054 153.475 20.107V20.3285C153.475 21.7038 152.866 23.0699 151.648 24.4268C151.463 24.8975 151.371 25.3221 151.371 25.7006C151.371 26.0606 151.426 26.3929 151.537 26.6975L151.481 26.7528H151.426C151.057 25.9867 150.872 25.396 150.872 24.9806V24.8698L151.038 22.9315V22.5992C151.038 21.7407 150.448 21.0761 149.266 20.6054H149.1L149.045 20.6608H148.989L148.934 20.6054V20.2177C148.657 17.8363 147.199 14.7902 144.559 11.0796C143.728 10.1289 143.229 9.63043 143.063 9.58428H143.008L143.063 13.1841V18.5009C143.156 20.3469 143.414 21.3069 143.839 21.3808L143.949 21.0485V20.9931C143.949 20.4762 143.857 19.9777 143.672 19.4977L143.728 19.4424H143.783C144.448 20.107 144.78 21.4915 144.78 23.596C144.78 25.5621 145.426 27.6113 146.719 29.7435L147.715 30.8512V30.9065H147.66C145.057 29.4943 143.229 27.3713 142.177 24.5375C141.226 22.4422 140.377 21.0208 139.63 20.2731C139.463 20.0608 139.02 19.6731 138.3 19.1101L138.356 19.0547L138.411 19.1101H138.467C139.205 19.0547 139.574 18.8147 139.574 18.3901C139.666 18.3901 139.74 17.947 139.796 17.0609L139.685 7.6459C139.205 5.88289 138.337 4.55371 137.082 3.65836C136.953 3.54759 136.824 3.49221 136.694 3.49221V3.32606H136.86C137.433 3.32606 138.356 3.82451 139.63 4.82139C141.005 5.55982 142.186 5.92904 143.174 5.92904L144.116 5.70751C143.451 6.39979 143.119 6.89823 143.119 7.20284C143.119 7.34129 143.949 8.26433 145.611 9.97196L148.934 14.4579V10.0827C148.934 7.74743 148.749 6.34441 148.38 5.87366H148.325C148.14 6.27057 148.048 6.73209 148.048 7.25822V7.59051C148.048 7.96896 148.14 8.28279 148.325 8.53202V8.5874H148.269C147.457 8.09819 147.051 7.17515 147.051 5.81827V5.65213L147.439 1.60921L147.383 1Z" stroke="white" stroke-width="0.405083"/>
<path d="M172.754 2.79993H172.865L173.031 3.8522C173.031 4.98754 172.441 6.13211 171.259 7.28591C170.336 8.49509 169.874 9.39968 169.874 9.99965V10.055C169.874 10.6089 170.281 10.9781 171.093 11.1627V11.2734C169.385 12.7688 167.262 14.0426 164.724 15.0948L171.204 21.8515C172.385 23.0699 173.474 23.6791 174.471 23.6791H174.97C175.699 23.6791 176.345 23.4576 176.908 23.0145H176.963V23.0699C176.077 24.3622 174.564 25.0083 172.422 25.0083H171.924C170.742 25.0083 169.136 24.5283 167.105 23.5684C166.376 23.3468 165.767 23.2361 165.278 23.2361H165.056C164.585 23.2361 164.161 23.3468 163.782 23.5684L163.727 23.4022C163.93 22.8115 164.669 22.4792 165.942 22.4053C167.013 22.313 167.548 22.1653 167.548 21.9623C167.548 21.7223 166.976 21.4269 165.832 21.0761C165.536 21.0761 165.389 21.0208 165.389 20.91C165.389 20.4577 164.484 18.7409 162.675 15.7594H162.232L162.287 19.1931V20.3008C162.287 20.4116 162.416 20.4669 162.675 20.4669V20.5223C162.906 20.4485 163.256 20.4116 163.727 20.4116L163.782 20.4669V20.5223C163.081 20.9285 162.195 21.87 161.124 23.3468C159.85 25.0083 158.004 25.839 155.586 25.839H154.81L154.423 25.7837V25.6729H154.478C155.826 25.6729 157.007 25.0452 158.023 23.7899C158.65 22.9038 158.964 21.6484 158.964 20.0239V16.8117L159.02 13.9872L158.964 11.3288V9.27968C158.964 8.05203 158.281 7.29514 156.915 7.009L156.693 6.95362V6.78747H156.749C159.813 6.47363 161.346 6.21518 161.346 6.01211C161.613 6.01211 161.909 5.71674 162.232 5.12599H162.287L162.232 5.40291L162.287 9.77812V13.9318L162.232 14.7625C165.296 13.9872 166.828 12.8611 166.828 11.3842C166.718 10.4243 166.441 9.94427 165.998 9.94427H165.832C165.435 9.94427 165.139 10.1843 164.945 10.6642H164.835V10.5535C164.835 9.11353 166.625 7.50744 170.207 5.7352C171.905 4.66447 172.754 3.68605 172.754 2.79993Z" stroke="white" stroke-width="0.405083"/>
<path d="M181.982 1.17999H182.092C184.289 2.46302 185.822 4.36449 186.689 6.88439C186.985 7.64128 187.132 8.32433 187.132 8.93354V9.0443C186.994 10.0781 186.883 10.595 186.8 10.595C186.228 10.7427 185.618 10.8165 184.972 10.8165C183.745 10.8165 182.803 10.4473 182.148 9.70889L182.203 9.65351C182.545 9.8012 182.859 9.87504 183.145 9.87504H183.422C183.754 9.87504 183.92 9.65351 183.92 9.21045C183.92 8.47202 183.015 7.77051 181.206 7.10592L180.708 7.05054C180.514 7.05054 180.366 7.14284 180.265 7.32745V7.65974C180.283 8.49971 182.019 10.955 185.471 15.0256C187.409 17.2409 188.664 18.3486 189.237 18.3486L189.458 18.4039H189.846V18.5147C188.738 19.1701 187.335 20.6469 185.637 22.9453C183.846 24.8652 182.831 25.8252 182.591 25.8252L182.535 25.7698L182.646 25.4375C182.646 24.856 181.446 24.1176 179.046 23.2222C178.003 22.6684 176.933 21.69 175.834 20.2869C175.243 19.4377 174.948 18.7178 174.948 18.127V17.8501C174.948 17.2132 175.317 16.5671 176.056 15.9117H176.111V15.9671C175.853 16.3086 175.723 16.5671 175.723 16.7425V17.0194C175.723 17.6747 177.034 18.3209 179.656 18.9578C180.163 19.2439 180.643 19.6131 181.096 20.0654L181.04 20.1208C180.228 19.8993 179.434 19.7885 178.659 19.7885C177.736 19.7885 177.274 20.01 177.274 20.4531C177.56 21.0346 178.446 21.5515 179.932 22.0038C180.089 22.0776 180.385 22.1146 180.819 22.1146H181.04C182.462 22.1146 183.495 21.2469 184.142 19.5116V19.0131C184.142 18.164 183.44 17.0563 182.037 15.6902C179.111 12.4319 177.505 10.2166 177.219 9.0443C177.034 8.65663 176.942 8.34279 176.942 8.1028C178.013 7.92742 178.548 7.72436 178.548 7.4936V7.32745C178.502 6.99515 178.114 6.62594 177.385 6.2198L177.108 6.16442V6.05365H177.163C179.868 6.05365 181.88 6.3121 183.2 6.82901H183.422C183.791 6.82901 183.975 6.40441 183.975 5.55521C183.975 4.01373 183.311 2.55532 181.982 1.17999Z" stroke="white" stroke-width="0.405083"/>
</svg>
