<svg width="137" height="24" viewBox="0 0 137 24" fill="none" xmlns="http://www.w3.org/2000/svg">
<path d="M6.02744 1.12865H6.10661C7.67686 2.04573 8.77208 3.40486 9.39226 5.20603C9.60339 5.74704 9.70895 6.23527 9.70895 6.67072V6.74989C9.60999 7.48883 9.53081 7.8583 9.47143 7.8583C9.06238 7.96386 8.62693 8.01664 8.16509 8.01664C7.2876 8.01664 6.61463 7.75274 6.1462 7.22492L6.18578 7.18534C6.4299 7.2909 6.65422 7.34368 6.85875 7.34368H7.05668C7.2942 7.34368 7.41296 7.18534 7.41296 6.86865C7.41296 6.34083 6.76638 5.83941 5.47323 5.36437L5.11696 5.32479C4.97841 5.32479 4.87284 5.39076 4.80027 5.52272V5.76023C4.81347 6.36062 6.05383 8.11561 8.52137 11.0252C9.90688 12.6086 10.8042 13.4004 11.2132 13.4004L11.3716 13.4399H11.6487V13.5191C10.8569 13.9876 9.8541 15.0432 8.64013 16.686C7.36017 18.0583 6.63443 18.7445 6.46289 18.7445L6.4233 18.7049L6.50247 18.4674C6.50247 18.0517 5.64477 17.5239 3.92937 16.8839C3.18384 16.4881 2.4185 15.7887 1.63338 14.7859C1.21113 14.1789 1 13.6643 1 13.242V13.0441C1 12.5888 1.26391 12.127 1.79172 11.6586H1.83131V11.6982C1.64657 11.9423 1.55421 12.127 1.55421 12.2524V12.4503C1.55421 12.9187 2.49108 13.3806 4.36482 13.8358C4.7277 14.0403 5.07078 14.3042 5.39406 14.6275L5.35448 14.6671C4.77388 14.5088 4.20648 14.4296 3.65227 14.4296C2.9925 14.4296 2.66262 14.5879 2.66262 14.9046C2.86715 15.3203 3.50052 15.6898 4.56275 16.013C4.67491 16.0658 4.88604 16.0922 5.19613 16.0922H5.35448C6.37052 16.0922 7.10946 15.472 7.5713 14.2317V13.8754C7.5713 13.2684 7.06988 12.4767 6.06703 11.5002C3.97556 9.17124 2.82756 7.58779 2.62303 6.74989C2.49108 6.47278 2.4251 6.24846 2.4251 6.07692C3.19043 5.95157 3.5731 5.80642 3.5731 5.64148V5.52272C3.54011 5.2852 3.26301 5.02129 2.74179 4.73099L2.54386 4.69141V4.61224H2.58345C4.51657 4.61224 5.95487 4.79697 6.89834 5.16644H7.05668C7.32059 5.16644 7.45254 4.86295 7.45254 4.25596C7.45254 3.15415 6.97751 2.11171 6.02744 1.12865Z" fill="black"/>
<path d="M12.0786 2.39541H12.1182C12.6988 3.22012 13.3585 3.93267 14.0975 4.53306C15.0409 5.14005 16.1362 5.44354 17.3831 5.44354H17.8582C18.762 5.44354 19.6989 5.21922 20.6688 4.77058L20.8667 4.49348C21.5661 5.15325 22.1994 5.58869 22.7668 5.79982C23.7961 6.49258 24.3107 7.2843 24.3107 8.17499V8.25416C24.3107 8.84795 24.0072 9.41535 23.4002 9.95637L23.3606 9.91678L23.4398 9.67926C23.4398 8.94032 22.846 8.28055 21.6584 7.69995L20.9459 7.10616L20.9855 7.06658L21.2626 7.10616H21.3813C21.5859 7.10616 21.7178 7.04019 21.7772 6.90823C21.7772 6.7103 21.5397 6.47278 21.0646 6.19568L20.3521 6.07692C19.8243 6.16269 19.5604 6.40021 19.5604 6.78947L19.5208 14.0733C19.6593 14.4428 19.8309 14.6275 20.0354 14.6275H20.1542C20.3125 14.6275 20.484 14.5616 20.6688 14.4296H20.7084V14.4692C20.7084 14.7397 20.1278 15.4259 18.9666 16.5277C18.0231 17.933 17.4161 19.5692 17.1456 21.4363H17.0664L17.2248 6.31444L17.1852 6.27485H17.0664C16.6706 6.27485 16.1823 6.23527 15.6017 6.1561C15.2851 6.32764 15.1267 6.7235 15.1267 7.34368C15.2587 8.00345 15.5226 8.33333 15.9184 8.33333V8.41251C14.6385 8.41251 13.4905 7.07977 12.4744 4.4143C12.3161 3.90628 12.1841 3.23332 12.0786 2.39541Z" fill="black"/>
<path d="M29.2732 1.61359C29.5305 2.31954 29.6592 2.90013 29.6592 3.35538L29.3425 4.85965V4.97841C29.3425 5.26871 29.679 5.41386 30.3519 5.41386H30.6191C31.1536 5.41386 31.5791 5.11036 31.8958 4.50337C33.3077 5.77673 34.2875 6.89834 34.8351 7.8682C35.1979 8.46859 35.3794 8.98321 35.3794 9.41206V9.53081C35.3794 9.87389 35.3398 10.0454 35.2606 10.0454C35.1353 9.72874 34.9274 9.5704 34.6371 9.5704C34.3204 9.5704 33.7036 9.93987 32.7865 10.6788C32.2455 10.9163 31.8595 11.0351 31.6286 11.0351C34.5976 14.743 36.3228 16.8279 36.8045 17.2897C38.0053 18.3981 39.305 18.9523 40.7037 18.9523L41.6736 18.8731V18.9127C40.6509 19.7572 39.493 20.1795 38.1999 20.1795H38.002C36.4845 20.1795 34.7724 19.4933 32.8657 18.121C32.0673 17.6988 31.6154 17.4876 31.5098 17.4876V17.4085L32.5589 17.448H32.5886C33.2351 17.448 33.5584 17.2105 33.5584 16.7355C33.5584 16.465 33.1593 16.2671 32.3609 16.1417L29.1545 10.7976H29.1149V10.8372L29.1545 14.1624V14.9541C29.1545 17.1841 29.5404 18.6488 30.3124 19.3482V19.3878C28.8807 18.827 27.6172 17.7713 26.522 16.2209L25.6016 15.1916V15.152H25.6412L25.8292 15.1916C26.3636 15.1916 26.6869 14.809 26.7991 14.0436V12.6185L26.8387 7.07647C25.7303 7.76263 25.1761 8.36962 25.1761 8.89744H25.1365L25.0573 8.81826V8.54116C25.0573 7.55151 25.6379 6.57505 26.7991 5.61179C28.3957 4.20648 29.194 3.13765 29.194 2.40531L29.2336 1.77193L29.194 1.65317L29.2336 1.61359H29.2732ZM29.0753 6.08682V9.60999C29.5041 9.90028 30.0188 10.0454 30.6191 10.0454C31.4439 10.0454 31.9981 9.63638 32.2818 8.81826V8.69951C32.2818 8.24426 31.9849 7.65047 31.3911 6.91813C30.6323 6.28475 29.9759 5.96806 29.4217 5.96806H29.3128C29.1545 5.98126 29.0753 6.02084 29.0753 6.08682Z" fill="black"/>
<path d="M50.3275 4.61224C50.7366 4.61224 51.0401 4.7046 51.238 4.88934V4.92892H51.0401C50.664 4.92892 49.6611 5.64148 48.0315 7.06658C46.5932 7.93747 45.6827 8.37292 45.3001 8.37292V8.29375C45.907 7.81871 46.2105 7.2777 46.2105 6.67072C46.2105 6.45959 45.8939 6.35403 45.2605 6.35403H45.0625C43.9541 6.35403 43.3999 6.47278 43.3999 6.7103V9.48133H43.4395C44.0135 9.19103 44.6337 9.04588 45.3001 9.04588H45.7751C47.0353 9.04588 47.7874 9.48133 48.0315 10.3522C48.0843 10.3522 48.1107 10.4578 48.1107 10.6689H48.0315C47.761 10.0619 47.2464 9.75843 46.4876 9.75843C45.0164 9.75843 44.0135 10.3918 43.4791 11.6586C43.3471 11.8697 43.2812 12.3711 43.2812 13.1628V14.1921C43.3867 15.67 43.743 16.4089 44.35 16.4089L44.5083 16.4485C44.8514 16.4485 45.3133 16.1582 45.8939 15.5776C44.7063 15.4061 44.1125 15.1158 44.1125 14.7067L44.1521 14.6671H44.1917C44.1917 14.7859 44.4028 14.8914 44.825 14.9838C45.2935 14.9838 45.9664 14.5879 46.8439 13.7962C47.4971 13.3476 48.1965 13.1233 48.942 13.1233H48.9816V13.1628C48.3218 13.5191 47.9919 14.2713 47.9919 15.4193V15.4984L48.0711 16.2506C47.5499 16.5079 46.5074 17.326 44.9438 18.7049L44.3104 19.1799L44.2708 19.1404H44.2312L44.2708 19.1008V18.8632C44.2708 18.0055 43.4263 17.3854 41.7373 17.0027C40.1803 16.4287 39.4017 15.571 39.4017 14.4296H39.4809C39.7316 15.0366 40.0615 15.3401 40.4706 15.3401H40.6685C40.8532 15.1817 40.9456 14.931 40.9456 14.5879V6.74989C40.4837 6.49258 39.5469 6.05713 38.135 5.44354V5.36437H45.6959C47.0287 5.36437 48.335 5.14005 49.615 4.69141L50.3275 4.61224Z" fill="black"/>
<path d="M62.3364 4.61224C62.7454 4.61224 63.0489 4.7046 63.2468 4.88934V4.92892H63.0489C62.6728 4.92892 61.67 5.64148 60.0404 7.06658C58.6021 7.93747 57.6916 8.37292 57.3089 8.37292V8.29375C57.9159 7.81871 58.2194 7.2777 58.2194 6.67072C58.2194 6.45959 57.9027 6.35403 57.2693 6.35403H57.0714C55.963 6.35403 55.4088 6.47278 55.4088 6.7103V9.48133H55.4484C56.0224 9.19103 56.6425 9.04588 57.3089 9.04588H57.7839C59.0441 9.04588 59.7962 9.48133 60.0404 10.3522C60.0931 10.3522 60.1195 10.4578 60.1195 10.6689H60.0404C59.7699 10.0619 59.2552 9.75843 58.4965 9.75843C57.0252 9.75843 56.0224 10.3918 55.488 11.6586C55.356 11.8697 55.29 12.3711 55.29 13.1628V14.1921C55.3956 15.67 55.7519 16.4089 56.3588 16.4089L56.5172 16.4485C56.8603 16.4485 57.3221 16.1582 57.9027 15.5776C56.7151 15.4061 56.1213 15.1158 56.1213 14.7067L56.1609 14.6671H56.2005C56.2005 14.7859 56.4116 14.8914 56.8339 14.9838C57.3023 14.9838 57.9753 14.5879 58.8528 13.7962C59.5059 13.3476 60.2053 13.1233 60.9508 13.1233H60.9904V13.1628C60.3307 13.5191 60.0008 14.2713 60.0008 15.4193V15.4984L60.0799 16.2506C59.5587 16.5079 58.5163 17.326 56.9526 18.7049L56.3193 19.1799L56.2797 19.1404H56.2401L56.2797 19.1008V18.8632C56.2797 18.0055 55.4352 17.3854 53.7462 17.0027C52.1891 16.4287 51.4106 15.571 51.4106 14.4296H51.4898C51.7405 15.0366 52.0703 15.3401 52.4794 15.3401H52.6773C52.8621 15.1817 52.9544 14.931 52.9544 14.5879V6.74989C52.4926 6.49258 51.5557 6.05713 50.1438 5.44354V5.36437H57.7048C59.0375 5.36437 60.3439 5.14005 61.6238 4.69141L62.3364 4.61224Z" fill="black"/>
<path d="M63.0632 2.39541H63.1027C63.6833 3.22012 64.3431 3.93267 65.082 4.53306C66.0255 5.14005 67.1207 5.44354 68.3677 5.44354H68.8427C69.7466 5.44354 70.6835 5.21922 71.6533 4.77058L71.8513 4.49348C72.5506 5.15325 73.184 5.58869 73.7514 5.79982C74.7807 6.49258 75.2953 7.2843 75.2953 8.17499V8.25416C75.2953 8.84795 74.9918 9.41535 74.3848 9.95637L74.3452 9.91678L74.4244 9.67926C74.4244 8.94032 73.8306 8.28055 72.643 7.69995L71.9305 7.10616L71.97 7.06658L72.2471 7.10616H72.3659C72.5704 7.10616 72.7024 7.04019 72.7618 6.90823C72.7618 6.7103 72.5242 6.47278 72.0492 6.19568L71.3367 6.07692C70.8088 6.16269 70.5449 6.40021 70.5449 6.78947L70.5053 14.0733C70.6439 14.4428 70.8154 14.6275 71.02 14.6275H71.1387C71.2971 14.6275 71.4686 14.5616 71.6533 14.4296H71.6929V14.4692C71.6929 14.7397 71.1123 15.4259 69.9511 16.5277C69.0077 17.933 68.4007 19.5692 68.1302 21.4363H68.051L68.2094 6.31444L68.1698 6.27485H68.051C67.6551 6.27485 67.1669 6.23527 66.5863 6.1561C66.2696 6.32764 66.1113 6.7235 66.1113 7.34368C66.2432 8.00345 66.5071 8.33333 66.903 8.33333V8.41251C65.6231 8.41251 64.4751 7.07977 63.459 4.4143C63.3007 3.90628 63.1687 3.23332 63.0632 2.39541Z" fill="black"/>
<path d="M76.0914 1.10886H76.1705C76.1705 1.73564 76.5136 2.47458 77.1998 3.32569C77.7342 3.82711 78.4203 4.24936 79.2582 4.59244C79.4562 4.75079 79.5881 4.82996 79.6541 4.82996V4.90913L79.4166 4.86955C79.1791 4.92892 79.0603 4.9949 79.0603 5.06748C79.0603 5.2984 79.245 5.43035 79.6145 5.46334H79.6937C80.3007 5.46334 81.1452 5.18623 82.2272 4.63203L83.0189 3.99865C84.2329 5.11366 85.0246 5.97136 85.3941 6.57175C85.8955 7.44924 86.1462 8.33333 86.1462 9.22402V10.3324L86.0671 10.4116C85.79 10.2005 85.5129 10.0949 85.2358 10.0949C84.7277 10.0949 83.7645 10.5963 82.346 11.5992C81.9303 11.8631 81.4157 11.9951 80.8021 11.9951L80.2083 11.8763V11.7575H80.4854C81.4751 11.7575 82.3328 11.2165 83.0585 10.1345C83.2696 9.69246 83.3752 9.25701 83.3752 8.82816C83.3752 7.79232 83.0585 7.04019 82.4251 6.57175C82.1216 6.41341 81.8313 6.33423 81.5542 6.33423C80.7097 6.49918 80.2875 6.80267 80.2875 7.24471C80.1819 7.75274 80.1291 8.4257 80.1291 9.26361V12.668L80.0896 15.5974C80.2017 16.1252 80.4128 16.3891 80.7229 16.3891C80.9539 16.3891 81.1782 16.2044 81.3959 15.8349H81.4355V16.1912L81.2771 18.0913V18.1705C81.2771 20.031 81.9633 21.6409 83.3356 23H83.2564C81.3827 21.9708 80.0896 20.6644 79.377 19.081C78.6381 17.6757 77.7804 16.7256 76.8039 16.2308V16.1516C77.2789 16.1516 77.556 15.7293 77.6352 14.8848C77.6352 12.9781 77.688 10.537 77.7936 7.5614C77.7936 7.15894 77.5428 6.48598 77.0414 5.54251C76.408 4.27575 76.0914 3.009 76.0914 1.74224V1.10886Z" fill="black"/>
<path d="M87.0116 2.85065C87.5394 2.94962 88.4103 3.71495 89.6243 5.14665C90.2972 5.78003 90.8119 6.91483 91.1681 8.55106C91.3001 9.31639 91.3661 9.88379 91.3661 10.2533C91.3661 10.6953 91.1285 11.8961 90.6535 13.8556L90.6139 14.4098V14.6473C90.6601 15.1751 90.8316 15.439 91.1285 15.439H91.2473C91.8081 15.439 92.3491 15.1751 92.8703 14.6473C93.0287 14.2581 93.1078 13.981 93.1078 13.816L93.1474 7.32389V6.80927C93.1474 6.11651 92.9363 5.61508 92.5141 5.30499V5.22582H92.5536C92.8703 5.33138 93.1738 5.38417 93.4641 5.38417C94.0315 5.38417 95.1267 5.04109 96.7498 4.35493C97.3172 4.17019 97.7394 4.07782 98.0165 4.07782H98.3332C98.5311 4.07782 98.6367 4.11741 98.6499 4.19658C97.304 4.83656 96.3935 5.62828 95.9185 6.57175L95.7601 7.20513L95.6809 12.3513C95.6809 13.6709 95.8129 14.5154 96.0768 14.8848C96.3209 15.1553 96.7036 15.3401 97.2248 15.439V15.5182C96.7168 15.5182 96.057 15.9933 95.2455 16.9433C94.4604 17.6823 93.6555 18.0517 92.8307 18.0517L92.712 18.0913V18.0517C93.2134 17.5569 93.4641 16.8839 93.4641 16.0328V15.9537C93.4641 15.7491 93.3981 15.6172 93.2662 15.5578H93.2266C92.7318 15.5578 92.3095 16.0196 91.9599 16.9433V17.3392C92.3491 18.5993 92.8505 19.4043 93.4641 19.7539V19.8331C92.5536 19.6616 91.4584 19.0414 90.1785 17.9726C89.4725 17.3392 88.8259 16.3891 88.2388 15.1224C88.0408 14.7925 87.7637 14.4098 87.4074 13.9744V13.8952C87.8495 13.8952 88.3641 13.1167 88.9513 11.5596C89.5055 9.69246 89.7826 8.21457 89.7826 7.12596C89.7562 6.78288 89.6902 6.61134 89.5847 6.61134C89.4263 6.82906 89.3472 7.17214 89.3472 7.64058C89.3472 7.91108 89.3868 8.10901 89.4659 8.23437L89.4263 8.27395C89.1228 8.142 88.8457 7.71975 88.595 7.0072C88.3047 5.2786 87.8429 4.03824 87.2095 3.2861L86.972 2.89024L87.0116 2.85065Z" fill="black"/>
<path d="M105.522 1H105.602C105.767 1.82471 107.244 3.93597 110.035 7.33378L109.996 7.37337H109.956C109.956 7.2942 109.705 7.21502 109.204 7.13585C108.966 7.13585 108.848 7.41296 108.848 7.96716V8.08592L108.887 8.20468L108.848 8.40261C108.848 12.2491 109.019 14.2284 109.362 14.3405C109.362 14.4791 109.534 14.5846 109.877 14.6572V14.8156C109.877 15.7986 109.441 16.7751 108.571 17.7449C108.439 18.0814 108.373 18.3849 108.373 18.6554C108.373 18.9127 108.412 19.1502 108.491 19.368L108.452 19.4076H108.412C108.148 18.8599 108.016 18.4377 108.016 18.1408V18.0616L108.135 16.6761V16.4386C108.135 15.825 107.713 15.35 106.868 15.0135H106.75L106.71 15.0531H106.67L106.631 15.0135V14.7364C106.433 13.0342 105.391 10.8569 103.504 8.20468C102.91 7.52512 102.554 7.16884 102.435 7.13585H102.395L102.435 9.70895V13.5092C102.501 14.8288 102.685 15.5149 102.989 15.5677L103.068 15.3302V15.2906C103.068 14.9211 103.002 14.5649 102.87 14.2218L102.91 14.1822H102.949C103.424 14.6572 103.662 15.6469 103.662 17.1511C103.662 18.5565 104.124 20.0211 105.047 21.5452L105.76 22.3369V22.3765H105.72C103.86 21.3671 102.554 19.8496 101.801 17.8241C101.122 16.3264 100.515 15.3104 99.9804 14.776C99.8616 14.6242 99.545 14.3471 99.0303 13.9447L99.0699 13.9051L99.1095 13.9447H99.1491C99.6769 13.9051 99.9408 13.7335 99.9408 13.43C100.007 13.43 100.06 13.1134 100.099 12.48L100.02 5.75034C99.6769 4.49018 99.0567 3.54011 98.1594 2.90013C98.0671 2.82096 97.9747 2.78138 97.8823 2.78138V2.66262H98.0011C98.4102 2.66262 99.0699 3.01889 99.9804 3.73144C100.963 4.25926 101.808 4.52317 102.514 4.52317L103.187 4.36482C102.712 4.85965 102.474 5.21592 102.474 5.43365C102.474 5.53261 103.068 6.19238 104.256 7.41296L106.631 10.6194V7.49213C106.631 5.82291 106.499 4.82006 106.235 4.48358H106.195C106.063 4.76728 105.997 5.09717 105.997 5.47323V5.71075C105.997 5.98126 106.063 6.20558 106.195 6.38372V6.4233H106.156C105.575 6.07362 105.285 5.41386 105.285 4.44399V4.32524L105.562 1.43545L105.522 1Z" fill="black"/>
<path d="M123.657 2.28655H123.736L123.855 3.03869C123.855 3.8502 123.433 4.66832 122.588 5.49303C121.929 6.35732 121.599 7.0039 121.599 7.43275V7.47233C121.599 7.8682 121.889 8.1321 122.47 8.26406V8.34323C121.249 9.41206 119.732 10.3225 117.917 11.0747L122.549 15.9042C123.393 16.7751 124.172 17.2105 124.884 17.2105H125.241C125.762 17.2105 126.224 17.0522 126.626 16.7355H126.666V16.7751C126.032 17.6988 124.95 18.1606 123.42 18.1606H123.063C122.219 18.1606 121.071 17.8175 119.619 17.1314C119.098 16.973 118.663 16.8938 118.313 16.8938H118.155C117.818 16.8938 117.515 16.973 117.244 17.1314L117.205 17.0126C117.35 16.5903 117.878 16.3528 118.788 16.3C119.554 16.2341 119.936 16.1285 119.936 15.9834C119.936 15.8118 119.527 15.6007 118.709 15.35C118.498 15.35 118.392 15.3104 118.392 15.2312C118.392 14.9079 117.746 13.6808 116.453 11.5497H116.136L116.175 14.004V14.7958C116.175 14.8749 116.268 14.9145 116.453 14.9145V14.9541C116.618 14.9013 116.868 14.8749 117.205 14.8749L117.244 14.9145V14.9541C116.743 15.2444 116.11 15.9174 115.344 16.973C114.434 18.1606 113.114 18.7544 111.386 18.7544H110.831L110.554 18.7148V18.6356H110.594C111.557 18.6356 112.402 18.187 113.127 17.2897C113.576 16.6563 113.8 15.759 113.8 14.5978V12.3018L113.84 10.283L113.8 8.38282V6.91813C113.8 6.04064 113.312 5.49963 112.336 5.2951L112.177 5.25551V5.13675H112.217C114.407 4.91243 115.503 4.7277 115.503 4.58255C115.694 4.58255 115.905 4.37142 116.136 3.94917H116.175L116.136 4.1471L116.175 7.2744V10.2434L116.136 10.8372C118.326 10.283 119.422 9.47803 119.422 8.4224C119.342 7.73624 119.144 7.39316 118.828 7.39316H118.709C118.425 7.39316 118.214 7.5647 118.076 7.90778H117.996V7.82861C117.996 6.79937 119.276 5.65137 121.836 4.38462C123.05 3.61928 123.657 2.91993 123.657 2.28655Z" fill="black"/>
<path d="M130.253 1.12865H130.332C131.902 2.04573 132.997 3.40486 133.618 5.20603C133.829 5.74704 133.934 6.23527 133.934 6.67072V6.74989C133.835 7.48883 133.756 7.8583 133.697 7.8583C133.288 7.96386 132.852 8.01664 132.39 8.01664C131.513 8.01664 130.84 7.75274 130.371 7.22492L130.411 7.18534C130.655 7.2909 130.879 7.34368 131.084 7.34368H131.282C131.519 7.34368 131.638 7.18534 131.638 6.86865C131.638 6.34083 130.992 5.83941 129.699 5.36437L129.342 5.32479C129.204 5.32479 129.098 5.39076 129.026 5.52272V5.76023C129.039 6.36062 130.279 8.11561 132.747 11.0252C134.132 12.6086 135.029 13.4004 135.438 13.4004L135.597 13.4399H135.874V13.5191C135.082 13.9876 134.079 15.0432 132.865 16.686C131.585 18.0583 130.86 18.7445 130.688 18.7445L130.649 18.7049L130.728 18.4674C130.728 18.0517 129.87 17.5239 128.155 16.8839C127.409 16.4881 126.644 15.7887 125.859 14.7859C125.436 14.1789 125.225 13.6643 125.225 13.242V13.0441C125.225 12.5888 125.489 12.127 126.017 11.6586H126.057V11.6982C125.872 11.9423 125.779 12.127 125.779 12.2524V12.4503C125.779 12.9187 126.716 13.3806 128.59 13.8358C128.953 14.0403 129.296 14.3042 129.619 14.6275L129.58 14.6671C128.999 14.5088 128.432 14.4296 127.878 14.4296C127.218 14.4296 126.888 14.5879 126.888 14.9046C127.092 15.3203 127.726 15.6898 128.788 16.013C128.9 16.0658 129.111 16.0922 129.421 16.0922H129.58C130.596 16.0922 131.335 15.472 131.797 14.2317V13.8754C131.797 13.2684 131.295 12.4767 130.292 11.5002C128.201 9.17124 127.053 7.58779 126.848 6.74989C126.716 6.47278 126.65 6.24846 126.65 6.07692C127.416 5.95157 127.798 5.80642 127.798 5.64148V5.52272C127.765 5.2852 127.488 5.02129 126.967 4.73099L126.769 4.69141V4.61224H126.809C128.742 4.61224 130.18 4.79697 131.124 5.16644H131.282C131.546 5.16644 131.678 4.86295 131.678 4.25596C131.678 3.15415 131.203 2.11171 130.253 1.12865Z" fill="black"/>
<path d="M6.02744 1.12865H6.10661C7.67686 2.04573 8.77208 3.40486 9.39226 5.20603C9.60339 5.74704 9.70895 6.23527 9.70895 6.67072V6.74989C9.60999 7.48883 9.53081 7.8583 9.47143 7.8583C9.06238 7.96386 8.62693 8.01664 8.16509 8.01664C7.2876 8.01664 6.61463 7.75274 6.1462 7.22492L6.18578 7.18534C6.4299 7.2909 6.65422 7.34368 6.85875 7.34368H7.05668C7.2942 7.34368 7.41296 7.18534 7.41296 6.86865C7.41296 6.34083 6.76638 5.83941 5.47323 5.36437L5.11696 5.32479C4.97841 5.32479 4.87284 5.39076 4.80027 5.52272V5.76023C4.81347 6.36062 6.05383 8.11561 8.52137 11.0252C9.90688 12.6086 10.8042 13.4004 11.2132 13.4004L11.3716 13.4399H11.6487V13.5191C10.8569 13.9876 9.8541 15.0432 8.64013 16.686C7.36017 18.0583 6.63443 18.7445 6.46289 18.7445L6.4233 18.7049L6.50247 18.4674C6.50247 18.0517 5.64477 17.5239 3.92937 16.8839C3.18384 16.4881 2.4185 15.7887 1.63338 14.7859C1.21113 14.1789 1 13.6643 1 13.242V13.0441C1 12.5888 1.26391 12.127 1.79172 11.6586H1.83131V11.6982C1.64657 11.9423 1.55421 12.127 1.55421 12.2524V12.4503C1.55421 12.9187 2.49108 13.3806 4.36482 13.8358C4.7277 14.0403 5.07078 14.3042 5.39406 14.6275L5.35448 14.6671C4.77388 14.5088 4.20648 14.4296 3.65227 14.4296C2.9925 14.4296 2.66262 14.5879 2.66262 14.9046C2.86715 15.3203 3.50052 15.6898 4.56275 16.013C4.67491 16.0658 4.88604 16.0922 5.19613 16.0922H5.35448C6.37052 16.0922 7.10946 15.472 7.5713 14.2317V13.8754C7.5713 13.2684 7.06988 12.4767 6.06703 11.5002C3.97556 9.17124 2.82756 7.58779 2.62303 6.74989C2.49108 6.47278 2.4251 6.24846 2.4251 6.07692C3.19043 5.95157 3.5731 5.80642 3.5731 5.64148V5.52272C3.54011 5.2852 3.26301 5.02129 2.74179 4.73099L2.54386 4.69141V4.61224H2.58345C4.51657 4.61224 5.95487 4.79697 6.89834 5.16644H7.05668C7.32059 5.16644 7.45254 4.86295 7.45254 4.25596C7.45254 3.15415 6.97751 2.11171 6.02744 1.12865Z" stroke="black" stroke-width="0.405083"/>
<path d="M12.0786 2.39541H12.1182C12.6988 3.22012 13.3585 3.93267 14.0975 4.53306C15.0409 5.14005 16.1362 5.44354 17.3831 5.44354H17.8582C18.762 5.44354 19.6989 5.21922 20.6688 4.77058L20.8667 4.49348C21.5661 5.15325 22.1994 5.58869 22.7668 5.79982C23.7961 6.49258 24.3107 7.2843 24.3107 8.17499V8.25416C24.3107 8.84795 24.0072 9.41535 23.4002 9.95637L23.3606 9.91678L23.4398 9.67926C23.4398 8.94032 22.846 8.28055 21.6584 7.69995L20.9459 7.10616L20.9855 7.06658L21.2626 7.10616H21.3813C21.5859 7.10616 21.7178 7.04019 21.7772 6.90823C21.7772 6.7103 21.5397 6.47278 21.0646 6.19568L20.3521 6.07692C19.8243 6.16269 19.5604 6.40021 19.5604 6.78947L19.5208 14.0733C19.6593 14.4428 19.8309 14.6275 20.0354 14.6275H20.1542C20.3125 14.6275 20.484 14.5616 20.6688 14.4296H20.7084V14.4692C20.7084 14.7397 20.1278 15.4259 18.9666 16.5277C18.0231 17.933 17.4161 19.5692 17.1456 21.4363H17.0664L17.2248 6.31444L17.1852 6.27485H17.0664C16.6706 6.27485 16.1823 6.23527 15.6017 6.1561C15.2851 6.32764 15.1267 6.7235 15.1267 7.34368C15.2587 8.00345 15.5226 8.33333 15.9184 8.33333V8.41251C14.6385 8.41251 13.4905 7.07977 12.4744 4.4143C12.3161 3.90628 12.1841 3.23332 12.0786 2.39541Z" stroke="black" stroke-width="0.405083"/>
<path d="M29.2732 1.61359C29.5305 2.31954 29.6592 2.90013 29.6592 3.35538L29.3425 4.85965V4.97841C29.3425 5.26871 29.679 5.41386 30.3519 5.41386H30.6191C31.1536 5.41386 31.5791 5.11036 31.8958 4.50337C33.3077 5.77673 34.2875 6.89834 34.8351 7.8682C35.1979 8.46859 35.3794 8.98321 35.3794 9.41206V9.53081C35.3794 9.87389 35.3398 10.0454 35.2606 10.0454C35.1353 9.72874 34.9274 9.5704 34.6371 9.5704C34.3204 9.5704 33.7036 9.93987 32.7865 10.6788C32.2455 10.9163 31.8595 11.0351 31.6286 11.0351C34.5976 14.743 36.3228 16.8279 36.8045 17.2897C38.0053 18.3981 39.305 18.9523 40.7037 18.9523L41.6736 18.8731V18.9127C40.6509 19.7572 39.493 20.1795 38.1999 20.1795H38.002C36.4845 20.1795 34.7724 19.4933 32.8657 18.121C32.0673 17.6988 31.6154 17.4876 31.5098 17.4876V17.4085L32.5589 17.448H32.5886C33.2351 17.448 33.5584 17.2105 33.5584 16.7355C33.5584 16.465 33.1593 16.2671 32.3609 16.1417L29.1545 10.7976H29.1149V10.8372L29.1545 14.1624V14.9541C29.1545 17.1841 29.5404 18.6488 30.3124 19.3482V19.3878C28.8807 18.827 27.6172 17.7713 26.522 16.2209L25.6016 15.1916V15.152H25.6412L25.8292 15.1916C26.3636 15.1916 26.6869 14.809 26.7991 14.0436V12.6185L26.8387 7.07647C25.7303 7.76263 25.1761 8.36962 25.1761 8.89744H25.1365L25.0573 8.81826V8.54116C25.0573 7.55151 25.6379 6.57505 26.7991 5.61179C28.3957 4.20648 29.194 3.13765 29.194 2.40531L29.2336 1.77193L29.194 1.65317L29.2336 1.61359H29.2732ZM29.0753 6.08682V9.60999C29.5041 9.90028 30.0188 10.0454 30.6191 10.0454C31.4439 10.0454 31.9981 9.63638 32.2818 8.81826V8.69951C32.2818 8.24426 31.9849 7.65047 31.3911 6.91813C30.6323 6.28475 29.9759 5.96806 29.4217 5.96806H29.3128C29.1545 5.98126 29.0753 6.02084 29.0753 6.08682Z" stroke="black" stroke-width="0.405083"/>
<path d="M50.3275 4.61224C50.7366 4.61224 51.0401 4.7046 51.238 4.88934V4.92892H51.0401C50.664 4.92892 49.6611 5.64148 48.0315 7.06658C46.5932 7.93747 45.6827 8.37292 45.3001 8.37292V8.29375C45.907 7.81871 46.2105 7.2777 46.2105 6.67072C46.2105 6.45959 45.8939 6.35403 45.2605 6.35403H45.0625C43.9541 6.35403 43.3999 6.47278 43.3999 6.7103V9.48133H43.4395C44.0135 9.19103 44.6337 9.04588 45.3001 9.04588H45.7751C47.0353 9.04588 47.7874 9.48133 48.0315 10.3522C48.0843 10.3522 48.1107 10.4578 48.1107 10.6689H48.0315C47.761 10.0619 47.2464 9.75843 46.4876 9.75843C45.0164 9.75843 44.0135 10.3918 43.4791 11.6586C43.3471 11.8697 43.2812 12.3711 43.2812 13.1628V14.1921C43.3867 15.67 43.743 16.4089 44.35 16.4089L44.5083 16.4485C44.8514 16.4485 45.3133 16.1582 45.8939 15.5776C44.7063 15.4061 44.1125 15.1158 44.1125 14.7067L44.1521 14.6671H44.1917C44.1917 14.7859 44.4028 14.8914 44.825 14.9838C45.2935 14.9838 45.9664 14.5879 46.8439 13.7962C47.4971 13.3476 48.1965 13.1233 48.942 13.1233H48.9816V13.1628C48.3218 13.5191 47.9919 14.2713 47.9919 15.4193V15.4984L48.0711 16.2506C47.5499 16.5079 46.5074 17.326 44.9438 18.7049L44.3104 19.1799L44.2708 19.1404H44.2312L44.2708 19.1008V18.8632C44.2708 18.0055 43.4263 17.3854 41.7373 17.0027C40.1803 16.4287 39.4017 15.571 39.4017 14.4296H39.4809C39.7316 15.0366 40.0615 15.3401 40.4706 15.3401H40.6685C40.8532 15.1817 40.9456 14.931 40.9456 14.5879V6.74989C40.4837 6.49258 39.5469 6.05713 38.135 5.44354V5.36437H45.6959C47.0287 5.36437 48.335 5.14005 49.615 4.69141L50.3275 4.61224Z" stroke="black" stroke-width="0.405083"/>
<path d="M62.3364 4.61224C62.7454 4.61224 63.0489 4.7046 63.2468 4.88934V4.92892H63.0489C62.6728 4.92892 61.67 5.64148 60.0404 7.06658C58.6021 7.93747 57.6916 8.37292 57.3089 8.37292V8.29375C57.9159 7.81871 58.2194 7.2777 58.2194 6.67072C58.2194 6.45959 57.9027 6.35403 57.2693 6.35403H57.0714C55.963 6.35403 55.4088 6.47278 55.4088 6.7103V9.48133H55.4484C56.0224 9.19103 56.6425 9.04588 57.3089 9.04588H57.7839C59.0441 9.04588 59.7962 9.48133 60.0404 10.3522C60.0931 10.3522 60.1195 10.4578 60.1195 10.6689H60.0404C59.7699 10.0619 59.2552 9.75843 58.4965 9.75843C57.0252 9.75843 56.0224 10.3918 55.488 11.6586C55.356 11.8697 55.29 12.3711 55.29 13.1628V14.1921C55.3956 15.67 55.7519 16.4089 56.3588 16.4089L56.5172 16.4485C56.8603 16.4485 57.3221 16.1582 57.9027 15.5776C56.7151 15.4061 56.1213 15.1158 56.1213 14.7067L56.1609 14.6671H56.2005C56.2005 14.7859 56.4116 14.8914 56.8339 14.9838C57.3023 14.9838 57.9753 14.5879 58.8528 13.7962C59.5059 13.3476 60.2053 13.1233 60.9508 13.1233H60.9904V13.1628C60.3307 13.5191 60.0008 14.2713 60.0008 15.4193V15.4984L60.0799 16.2506C59.5587 16.5079 58.5163 17.326 56.9526 18.7049L56.3193 19.1799L56.2797 19.1404H56.2401L56.2797 19.1008V18.8632C56.2797 18.0055 55.4352 17.3854 53.7462 17.0027C52.1891 16.4287 51.4106 15.571 51.4106 14.4296H51.4898C51.7405 15.0366 52.0703 15.3401 52.4794 15.3401H52.6773C52.8621 15.1817 52.9544 14.931 52.9544 14.5879V6.74989C52.4926 6.49258 51.5557 6.05713 50.1438 5.44354V5.36437H57.7048C59.0375 5.36437 60.3439 5.14005 61.6238 4.69141L62.3364 4.61224Z" stroke="black" stroke-width="0.405083"/>
<path d="M63.0632 2.39541H63.1027C63.6833 3.22012 64.3431 3.93267 65.082 4.53306C66.0255 5.14005 67.1207 5.44354 68.3677 5.44354H68.8427C69.7466 5.44354 70.6835 5.21922 71.6533 4.77058L71.8513 4.49348C72.5506 5.15325 73.184 5.58869 73.7514 5.79982C74.7807 6.49258 75.2953 7.2843 75.2953 8.17499V8.25416C75.2953 8.84795 74.9918 9.41535 74.3848 9.95637L74.3452 9.91678L74.4244 9.67926C74.4244 8.94032 73.8306 8.28055 72.643 7.69995L71.9305 7.10616L71.97 7.06658L72.2471 7.10616H72.3659C72.5704 7.10616 72.7024 7.04019 72.7618 6.90823C72.7618 6.7103 72.5242 6.47278 72.0492 6.19568L71.3367 6.07692C70.8088 6.16269 70.5449 6.40021 70.5449 6.78947L70.5053 14.0733C70.6439 14.4428 70.8154 14.6275 71.02 14.6275H71.1387C71.2971 14.6275 71.4686 14.5616 71.6533 14.4296H71.6929V14.4692C71.6929 14.7397 71.1123 15.4259 69.9511 16.5277C69.0077 17.933 68.4007 19.5692 68.1302 21.4363H68.051L68.2094 6.31444L68.1698 6.27485H68.051C67.6551 6.27485 67.1669 6.23527 66.5863 6.1561C66.2696 6.32764 66.1113 6.7235 66.1113 7.34368C66.2432 8.00345 66.5071 8.33333 66.903 8.33333V8.41251C65.6231 8.41251 64.4751 7.07977 63.459 4.4143C63.3007 3.90628 63.1687 3.23332 63.0632 2.39541Z" stroke="black" stroke-width="0.405083"/>
<path d="M76.0914 1.10886H76.1705C76.1705 1.73564 76.5136 2.47458 77.1998 3.32569C77.7342 3.82711 78.4203 4.24936 79.2582 4.59244C79.4562 4.75079 79.5881 4.82996 79.6541 4.82996V4.90913L79.4166 4.86955C79.1791 4.92892 79.0603 4.9949 79.0603 5.06748C79.0603 5.2984 79.245 5.43035 79.6145 5.46334H79.6937C80.3007 5.46334 81.1452 5.18623 82.2272 4.63203L83.0189 3.99865C84.2329 5.11366 85.0246 5.97136 85.3941 6.57175C85.8955 7.44924 86.1462 8.33333 86.1462 9.22402V10.3324L86.0671 10.4116C85.79 10.2005 85.5129 10.0949 85.2358 10.0949C84.7277 10.0949 83.7645 10.5963 82.346 11.5992C81.9303 11.8631 81.4157 11.9951 80.8021 11.9951L80.2083 11.8763V11.7575H80.4854C81.4751 11.7575 82.3328 11.2165 83.0585 10.1345C83.2696 9.69246 83.3752 9.25701 83.3752 8.82816C83.3752 7.79232 83.0585 7.04019 82.4251 6.57175C82.1216 6.41341 81.8313 6.33423 81.5542 6.33423C80.7097 6.49918 80.2875 6.80267 80.2875 7.24471C80.1819 7.75274 80.1291 8.4257 80.1291 9.26361V12.668L80.0896 15.5974C80.2017 16.1252 80.4128 16.3891 80.7229 16.3891C80.9539 16.3891 81.1782 16.2044 81.3959 15.8349H81.4355V16.1912L81.2771 18.0913V18.1705C81.2771 20.031 81.9633 21.6409 83.3356 23H83.2564C81.3827 21.9708 80.0896 20.6644 79.377 19.081C78.6381 17.6757 77.7804 16.7256 76.8039 16.2308V16.1516C77.2789 16.1516 77.556 15.7293 77.6352 14.8848C77.6352 12.9781 77.688 10.537 77.7936 7.5614C77.7936 7.15894 77.5428 6.48598 77.0414 5.54251C76.408 4.27575 76.0914 3.009 76.0914 1.74224V1.10886Z" stroke="black" stroke-width="0.405083"/>
<path d="M87.0116 2.85065C87.5394 2.94962 88.4103 3.71495 89.6243 5.14665C90.2972 5.78003 90.8119 6.91483 91.1681 8.55106C91.3001 9.31639 91.3661 9.88379 91.3661 10.2533C91.3661 10.6953 91.1285 11.8961 90.6535 13.8556L90.6139 14.4098V14.6473C90.6601 15.1751 90.8316 15.439 91.1285 15.439H91.2473C91.8081 15.439 92.3491 15.1751 92.8703 14.6473C93.0287 14.2581 93.1078 13.981 93.1078 13.816L93.1474 7.32389V6.80927C93.1474 6.11651 92.9363 5.61508 92.5141 5.30499V5.22582H92.5536C92.8703 5.33138 93.1738 5.38417 93.4641 5.38417C94.0315 5.38417 95.1267 5.04109 96.7498 4.35493C97.3172 4.17019 97.7394 4.07782 98.0165 4.07782H98.3332C98.5311 4.07782 98.6367 4.11741 98.6499 4.19658C97.304 4.83656 96.3935 5.62828 95.9185 6.57175L95.7601 7.20513L95.6809 12.3513C95.6809 13.6709 95.8129 14.5154 96.0768 14.8848C96.3209 15.1553 96.7036 15.3401 97.2248 15.439V15.5182C96.7168 15.5182 96.057 15.9933 95.2455 16.9433C94.4604 17.6823 93.6555 18.0517 92.8307 18.0517L92.712 18.0913V18.0517C93.2134 17.5569 93.4641 16.8839 93.4641 16.0328V15.9537C93.4641 15.7491 93.3981 15.6172 93.2662 15.5578H93.2266C92.7318 15.5578 92.3095 16.0196 91.9599 16.9433V17.3392C92.3491 18.5993 92.8505 19.4043 93.4641 19.7539V19.8331C92.5536 19.6616 91.4584 19.0414 90.1785 17.9726C89.4725 17.3392 88.8259 16.3891 88.2388 15.1224C88.0408 14.7925 87.7637 14.4098 87.4074 13.9744V13.8952C87.8495 13.8952 88.3641 13.1167 88.9513 11.5596C89.5055 9.69246 89.7826 8.21457 89.7826 7.12596C89.7562 6.78288 89.6902 6.61134 89.5847 6.61134C89.4263 6.82906 89.3472 7.17214 89.3472 7.64058C89.3472 7.91108 89.3868 8.10901 89.4659 8.23437L89.4263 8.27395C89.1228 8.142 88.8457 7.71975 88.595 7.0072C88.3047 5.2786 87.8429 4.03824 87.2095 3.2861L86.972 2.89024L87.0116 2.85065Z" stroke="black" stroke-width="0.405083"/>
<path d="M105.522 1H105.602C105.767 1.82471 107.244 3.93597 110.035 7.33378L109.996 7.37337H109.956C109.956 7.2942 109.705 7.21502 109.204 7.13585C108.966 7.13585 108.848 7.41296 108.848 7.96716V8.08592L108.887 8.20468L108.848 8.40261C108.848 12.2491 109.019 14.2284 109.362 14.3405C109.362 14.4791 109.534 14.5846 109.877 14.6572V14.8156C109.877 15.7986 109.441 16.7751 108.571 17.7449C108.439 18.0814 108.373 18.3849 108.373 18.6554C108.373 18.9127 108.412 19.1502 108.491 19.368L108.452 19.4076H108.412C108.148 18.8599 108.016 18.4377 108.016 18.1408V18.0616L108.135 16.6761V16.4386C108.135 15.825 107.713 15.35 106.868 15.0135H106.75L106.71 15.0531H106.67L106.631 15.0135V14.7364C106.433 13.0342 105.391 10.8569 103.504 8.20468C102.91 7.52512 102.554 7.16884 102.435 7.13585H102.395L102.435 9.70895V13.5092C102.501 14.8288 102.685 15.5149 102.989 15.5677L103.068 15.3302V15.2906C103.068 14.9211 103.002 14.5649 102.87 14.2218L102.91 14.1822H102.949C103.424 14.6572 103.662 15.6469 103.662 17.1511C103.662 18.5565 104.124 20.0211 105.047 21.5452L105.76 22.3369V22.3765H105.72C103.86 21.3671 102.554 19.8496 101.801 17.8241C101.122 16.3264 100.515 15.3104 99.9804 14.776C99.8616 14.6242 99.545 14.3471 99.0303 13.9447L99.0699 13.9051L99.1095 13.9447H99.1491C99.6769 13.9051 99.9408 13.7335 99.9408 13.43C100.007 13.43 100.06 13.1134 100.099 12.48L100.02 5.75034C99.6769 4.49018 99.0567 3.54011 98.1594 2.90013C98.0671 2.82096 97.9747 2.78138 97.8823 2.78138V2.66262H98.0011C98.4102 2.66262 99.0699 3.01889 99.9804 3.73144C100.963 4.25926 101.808 4.52317 102.514 4.52317L103.187 4.36482C102.712 4.85965 102.474 5.21592 102.474 5.43365C102.474 5.53261 103.068 6.19238 104.256 7.41296L106.631 10.6194V7.49213C106.631 5.82291 106.499 4.82006 106.235 4.48358H106.195C106.063 4.76728 105.997 5.09717 105.997 5.47323V5.71075C105.997 5.98126 106.063 6.20558 106.195 6.38372V6.4233H106.156C105.575 6.07362 105.285 5.41386 105.285 4.44399V4.32524L105.562 1.43545L105.522 1Z" stroke="black" stroke-width="0.405083"/>
<path d="M123.657 2.28655H123.736L123.855 3.03869C123.855 3.8502 123.433 4.66832 122.588 5.49303C121.929 6.35732 121.599 7.0039 121.599 7.43275V7.47233C121.599 7.8682 121.889 8.1321 122.47 8.26406V8.34323C121.249 9.41206 119.732 10.3225 117.917 11.0747L122.549 15.9042C123.393 16.7751 124.172 17.2105 124.884 17.2105H125.241C125.762 17.2105 126.224 17.0522 126.626 16.7355H126.666V16.7751C126.032 17.6988 124.95 18.1606 123.42 18.1606H123.063C122.219 18.1606 121.071 17.8175 119.619 17.1314C119.098 16.973 118.663 16.8938 118.313 16.8938H118.155C117.818 16.8938 117.515 16.973 117.244 17.1314L117.205 17.0126C117.35 16.5903 117.878 16.3528 118.788 16.3C119.554 16.2341 119.936 16.1285 119.936 15.9834C119.936 15.8118 119.527 15.6007 118.709 15.35C118.498 15.35 118.392 15.3104 118.392 15.2312C118.392 14.9079 117.746 13.6808 116.453 11.5497H116.136L116.175 14.004V14.7958C116.175 14.8749 116.268 14.9145 116.453 14.9145V14.9541C116.618 14.9013 116.868 14.8749 117.205 14.8749L117.244 14.9145V14.9541C116.743 15.2444 116.11 15.9174 115.344 16.973C114.434 18.1606 113.114 18.7544 111.386 18.7544H110.831L110.554 18.7148V18.6356H110.594C111.557 18.6356 112.402 18.187 113.127 17.2897C113.576 16.6563 113.8 15.759 113.8 14.5978V12.3018L113.84 10.283L113.8 8.38282V6.91813C113.8 6.04064 113.312 5.49963 112.336 5.2951L112.177 5.25551V5.13675H112.217C114.407 4.91243 115.503 4.7277 115.503 4.58255C115.694 4.58255 115.905 4.37142 116.136 3.94917H116.175L116.136 4.1471L116.175 7.2744V10.2434L116.136 10.8372C118.326 10.283 119.422 9.47803 119.422 8.4224C119.342 7.73624 119.144 7.39316 118.828 7.39316H118.709C118.425 7.39316 118.214 7.5647 118.076 7.90778H117.996V7.82861C117.996 6.79937 119.276 5.65137 121.836 4.38462C123.05 3.61928 123.657 2.91993 123.657 2.28655Z" stroke="black" stroke-width="0.405083"/>
<path d="M130.253 1.12865H130.332C131.902 2.04573 132.997 3.40486 133.618 5.20603C133.829 5.74704 133.934 6.23527 133.934 6.67072V6.74989C133.835 7.48883 133.756 7.8583 133.697 7.8583C133.288 7.96386 132.852 8.01664 132.39 8.01664C131.513 8.01664 130.84 7.75274 130.371 7.22492L130.411 7.18534C130.655 7.2909 130.879 7.34368 131.084 7.34368H131.282C131.519 7.34368 131.638 7.18534 131.638 6.86865C131.638 6.34083 130.992 5.83941 129.699 5.36437L129.342 5.32479C129.204 5.32479 129.098 5.39076 129.026 5.52272V5.76023C129.039 6.36062 130.279 8.11561 132.747 11.0252C134.132 12.6086 135.029 13.4004 135.438 13.4004L135.597 13.4399H135.874V13.5191C135.082 13.9876 134.079 15.0432 132.865 16.686C131.585 18.0583 130.86 18.7445 130.688 18.7445L130.649 18.7049L130.728 18.4674C130.728 18.0517 129.87 17.5239 128.155 16.8839C127.409 16.4881 126.644 15.7887 125.859 14.7859C125.436 14.1789 125.225 13.6643 125.225 13.242V13.0441C125.225 12.5888 125.489 12.127 126.017 11.6586H126.057V11.6982C125.872 11.9423 125.779 12.127 125.779 12.2524V12.4503C125.779 12.9187 126.716 13.3806 128.59 13.8358C128.953 14.0403 129.296 14.3042 129.619 14.6275L129.58 14.6671C128.999 14.5088 128.432 14.4296 127.878 14.4296C127.218 14.4296 126.888 14.5879 126.888 14.9046C127.092 15.3203 127.726 15.6898 128.788 16.013C128.9 16.0658 129.111 16.0922 129.421 16.0922H129.58C130.596 16.0922 131.335 15.472 131.797 14.2317V13.8754C131.797 13.2684 131.295 12.4767 130.292 11.5002C128.201 9.17124 127.053 7.58779 126.848 6.74989C126.716 6.47278 126.65 6.24846 126.65 6.07692C127.416 5.95157 127.798 5.80642 127.798 5.64148V5.52272C127.765 5.2852 127.488 5.02129 126.967 4.73099L126.769 4.69141V4.61224H126.809C128.742 4.61224 130.18 4.79697 131.124 5.16644H131.282C131.546 5.16644 131.678 4.86295 131.678 4.25596C131.678 3.15415 131.203 2.11171 130.253 1.12865Z" stroke="black" stroke-width="0.405083"/>
</svg>
